<svg width="86" height="74" viewBox="0 0 86 74" fill="none" xmlns="http://www.w3.org/2000/svg">
<path fill-rule="evenodd" clip-rule="evenodd" d="M21.687 3.18162C17.4856 3.94342 14.023 6.61582 12.1998 10.5033C11.3004 12.4211 11.0828 13.5723 11.0004 16.8475L10.929 19.6911L10.4385 20.6806C9.97945 21.6071 9.95155 21.74 10.0006 22.7613C10.0619 24.0429 10.3859 24.8156 11.2295 25.6928C11.8837 26.3732 12.3381 26.6305 13.3359 26.8856L14.0606 27.0709L14.3061 28.0684C14.7761 29.9795 15.9488 31.9159 17.3418 33.0812L18.0303 33.6573V35.0054V36.3534L11.6795 38.8118C8.18651 40.1639 4.99514 41.471 4.58744 41.7162C2.81046 42.7853 1.23935 44.6667 0.607322 46.4825C0.0205482 48.1685 -0.0323407 49.4689 0.0120802 61.1071L0.0537253 72.007L0.470172 72.6788C0.743639 73.1199 1.09665 73.4614 1.49838 73.6733C2.10875 73.9956 2.12291 73.9963 7.54546 73.9963C12.8234 73.9963 12.9894 73.9881 13.2844 73.7134C13.6928 73.3332 13.6928 72.5786 13.2844 72.1984C13.0238 71.9558 12.797 71.9156 11.688 71.9156H10.3955V61.5061V51.0964L10.0547 50.756C9.59105 50.2926 8.97707 50.3031 8.60102 50.781C8.31575 51.1433 8.31325 51.2352 8.31325 61.531V71.9156L5.43283 71.9135C3.84866 71.9123 2.4587 71.8521 2.34418 71.7798C2.16178 71.6645 2.13596 70.2136 2.13596 60.0955C2.13596 49.2995 2.15262 48.4884 2.38985 47.7106C2.89611 46.0507 3.94334 44.6483 5.37244 43.7164C6.36928 43.0664 13.6428 40.1648 13.832 40.3415C13.8888 40.3947 14.6849 41.9497 15.6011 43.7969C16.9812 46.5796 17.3478 47.2093 17.7385 47.4679C18.3246 47.8557 19.0628 47.8687 19.6648 47.502C19.9148 47.3497 20.146 47.2251 20.1786 47.2251C20.2113 47.2251 20.4209 47.4908 20.6444 47.8153L21.0508 48.4056L19.4604 57.7678C18.1071 65.7334 17.8921 67.2025 18.0187 67.6156C18.1121 67.9203 18.8155 68.811 19.9087 70.0083L21.6498 71.9156H19.4424C17.4193 71.9156 17.2044 71.9396 16.8691 72.2031C16.3622 72.6015 16.3633 73.3112 16.8715 73.7107L17.2396 74L31.7002 73.9635L46.1609 73.9269L46.7379 73.5453C47.0553 73.3354 47.4567 72.8985 47.63 72.5743C47.9382 71.998 47.9461 71.8745 47.9894 66.9948C48.0138 64.2503 47.9946 61.7969 47.9469 61.5428C47.7805 60.6563 46.9396 60.2614 46.2793 60.7597C46.0124 60.9611 45.999 61.174 45.9323 66.3088C45.8733 70.8524 45.8318 71.6681 45.6546 71.7799C45.5401 71.8522 44.1503 71.9123 42.566 71.9135L39.6856 71.9156V61.531C39.6856 51.2352 39.6831 51.1433 39.3978 50.781C39.0217 50.3031 38.4078 50.2926 37.9441 50.756L37.6033 51.0964V61.5061V71.9156H31.972H26.3405L28.0857 70.0083C29.1931 68.7981 29.8844 67.9236 29.9775 67.6156C30.1019 67.2046 29.8803 65.6933 28.5348 57.7698L26.9452 48.4096L27.3531 47.8173C27.5772 47.4916 27.7875 47.2251 27.8202 47.2251C27.8528 47.2251 28.0841 47.3497 28.3341 47.502C28.9117 47.8539 29.635 47.8553 30.2092 47.5055C30.5804 47.2792 30.9603 46.6284 32.4032 43.7465C33.8799 40.7973 34.1885 40.2717 34.4096 40.3295C34.5533 40.3671 36.2521 41.0085 38.1847 41.7551C42.8042 43.5393 43.8361 44.2144 44.9567 46.1848C45.7687 47.613 45.8255 48.0126 45.8974 52.8104L45.9634 57.2166L46.3136 57.4919C46.7742 57.8538 47.0822 57.8391 47.5556 57.4326L47.9451 57.098L47.9878 53.6527C48.0366 49.7333 47.8837 47.897 47.3915 46.4825C46.7708 44.6995 45.3749 42.9904 43.6056 41.8477C43.0871 41.5129 40.4457 40.4129 36.3784 38.8381L29.9685 36.3562L29.9693 34.9592L29.9703 33.5621L30.9929 32.491C32.3712 31.0476 33.165 29.5087 33.6331 27.3729C33.6986 27.074 33.8139 26.9932 34.2826 26.9183C35.4888 26.7257 36.7585 25.7898 37.3095 24.6874C37.4863 24.3336 37.6987 23.6497 37.7813 23.1679C37.9151 22.3868 37.8975 22.1886 37.6183 21.3383C37.4462 20.8138 37.2005 20.2691 37.0725 20.1279C36.8755 19.9104 36.8269 19.3998 36.7554 16.7988C36.687 14.3061 36.6164 13.5251 36.3812 12.6587C35.2415 8.45984 32.1067 5.07169 28.0928 3.70082C26.0642 3.00796 23.7011 2.81654 21.687 3.18162ZM26.7509 5.4666C29.9765 6.38861 32.5356 8.63503 33.8325 11.6832C34.4561 13.1484 34.6882 14.4735 34.6882 16.5669V18.3786L34.3065 18.2875C33.7595 18.1568 33.7165 18.1171 33.7165 17.7446C33.7165 17.3889 32.8638 16.3382 31.0603 14.4715C30.2061 13.5875 29.9431 13.3977 29.4617 13.3173C28.8337 13.2126 28.861 13.2021 26.4981 14.461C23.4386 16.091 20.4164 16.847 16.9555 16.8481C15.119 16.8486 14.5264 17.06 14.2407 17.8163C14.0962 18.1988 13.8033 18.3674 13.2759 18.3714C13.0599 18.3731 13.0334 18.2155 13.0373 16.9516C13.0396 16.1695 13.0986 15.0916 13.1683 14.556C13.7856 9.81129 17.3858 6.05002 22.1271 5.19625C23.2247 4.99873 25.5995 5.13744 26.7509 5.4666ZM30.4196 16.8124L31.6343 18.1403L31.6326 22.5222C31.6313 25.9218 31.5855 27.0748 31.4281 27.6658C30.7199 30.3252 28.6011 32.4408 25.9366 33.1495C24.9354 33.4157 22.9308 33.4082 21.8678 33.1344C19.4481 32.511 17.4624 30.6951 16.5225 28.2466C16.1744 27.3393 16.1659 27.2332 16.1162 23.1242L16.0655 18.9282L17.3603 18.9257C20.8336 18.9189 24.9636 17.8088 27.8862 16.0965C28.4589 15.761 28.9898 15.4861 29.0662 15.4855C29.1425 15.4848 29.7516 16.082 30.4196 16.8124ZM14.0047 22.604C14.0047 25.1344 14.0009 25.143 13.161 24.5773C11.7829 23.6495 11.6543 21.7905 12.9061 20.8972C13.1667 20.7112 13.7516 20.3974 13.97 20.3265C13.989 20.3204 14.0047 21.3452 14.0047 22.604ZM34.8413 20.7415C35.2972 21.066 35.7998 22.0518 35.7957 22.6132C35.7885 23.574 34.9975 24.6016 34.0898 24.8292L33.7165 24.9228V22.604V20.2852L34.0898 20.3788C34.2951 20.4303 34.6332 20.5935 34.8413 20.7415ZM23.5242 35.4001C24.9077 35.455 25.3928 35.4175 26.3006 35.1856C26.9055 35.0309 27.5098 34.8612 27.6433 34.808C27.8613 34.7215 27.8862 34.8151 27.8862 35.7189V36.7265L25.9988 39.0628C24.9607 40.3479 24.0605 41.3993 23.9983 41.3993C23.9361 41.3993 23.0369 40.3537 22 39.0759L20.1147 36.7525L20.1137 35.7614L20.1126 34.7703L20.9802 35.0519C21.5769 35.2457 22.371 35.3543 23.5242 35.4001ZM20.6366 40.7063C21.6506 41.9529 22.4316 43.0154 22.3722 43.0676C22.0489 43.3512 18.8295 45.5725 18.7956 45.5354C18.5867 45.3059 15.8147 39.5442 15.8811 39.477C16.0293 39.3272 18.507 38.3708 18.6546 38.4065C18.7308 38.4248 19.6227 39.4598 20.6366 40.7063ZM30.6626 38.8506C31.3879 39.1278 32.0325 39.4006 32.0951 39.4572C32.1797 39.5335 29.4517 45.264 29.2001 45.5384C29.1763 45.5643 28.3411 45.0049 27.3443 44.2953C25.7282 43.1447 25.5503 42.9782 25.7025 42.7593C26.0619 42.2431 29.2085 38.3635 29.2744 38.3554C29.3126 38.3507 29.9372 38.5735 30.6626 38.8506ZM25.1099 45.2584C25.6062 45.6025 26.0325 45.8992 26.0574 45.9178C26.0822 45.9362 25.9332 46.2067 25.7265 46.5188L25.3506 47.0864H23.9994H22.6482L22.2671 46.511C21.9646 46.0543 21.9251 45.9133 22.0751 45.8266C22.1791 45.7667 22.639 45.4408 23.0971 45.1023C23.5552 44.7638 23.9925 44.5197 24.0688 44.5598C24.1452 44.5998 24.6137 44.9142 25.1099 45.2584ZM25.0262 49.5485C25.0687 49.7583 25.7328 53.6752 26.5018 58.2526C27.271 62.8301 27.9265 66.6689 27.9584 66.7833C28.0135 66.9804 24.2275 71.2914 23.9994 71.2914C23.9433 71.2914 23.0177 70.3239 21.9426 69.1414C20.4917 67.5455 20.0037 66.9198 20.05 66.714C20.0843 66.5614 20.7379 62.7226 21.5027 58.1833C22.2675 53.644 22.9284 49.7583 22.9715 49.5485C23.0477 49.1772 23.0749 49.1671 23.9994 49.1671C24.9242 49.1671 24.9511 49.1771 25.0262 49.5485Z" fill="#C39367"/>
<path fill-rule="evenodd" clip-rule="evenodd" d="M39.2505 3.31138C39.2564 1.77096 39.7151 0.889561 40.7943 0.344405C41.9182 -0.223382 43.3048 -0.0736632 44.1769 0.709708C44.8818 1.34277 45.1006 1.90305 45.1037 3.08388L45.1063 4.06652H58.4977H71.8891L71.8918 3.08388C71.8949 1.90305 72.1137 1.34277 72.8185 0.709708C74.3889 -0.700765 77.167 0.107261 77.6333 2.11006C77.6932 2.36721 77.7435 2.90784 77.745 3.31138L77.7479 4.04496L80.1093 4.09749C81.4409 4.12703 82.6636 4.21136 82.9128 4.2908C83.6272 4.5183 84.6422 5.26987 85.157 5.95247C85.2682 6.09988 85.3648 6.19681 85.4487 6.30371C86.0509 7.07133 85.9979 8.353 85.9979 32.5333C85.9979 56.7276 86.0422 57.9387 85.4854 58.7236C85.4138 58.8246 85.3322 58.9185 85.2393 59.0534C84.7014 59.8345 83.8224 60.479 82.9066 60.7638C82.1595 60.996 81.7459 61 58.4977 61C55.0105 61 52.037 60.9999 49.4991 60.999V59.1962L58.6122 59.1844L82.37 59.1538L82.9457 58.7965C83.3337 58.5558 83.6333 58.2411 83.8643 57.832L84.207 57.2248L84.1759 52.0844L84.1447 46.9441L79.3022 51.7732C75.0542 56.0095 74.3648 56.6492 73.6851 56.9848L72.9106 57.3672L53.9039 57.3988C52.3104 57.4014 50.8458 57.404 49.4991 57.4063V55.6091L52.5194 55.6149C62.3508 55.6338 70.5706 55.6178 70.7857 55.5793C71.1945 55.5062 71.9144 54.9535 72.1627 54.5221C72.2641 54.3461 72.326 53.1251 72.369 50.459C72.4292 46.7132 72.4353 46.6373 72.7238 46.052C73.149 45.1894 73.9805 44.4093 74.8002 44.1037C75.4422 43.8645 75.701 43.8485 78.9302 43.8485C82.6048 43.8485 82.9392 43.8062 83.5276 43.2665C83.6242 43.1779 83.7071 43.115 83.7781 43.0407C84.2343 42.5641 84.2045 41.6224 84.2045 30.4548V18.5977H64.9032H45.6019L45.3542 18.2838C45.0315 17.8753 45.0414 17.6142 45.3948 17.2048L45.6835 16.8706L64.9439 16.8398L84.2045 16.8089L84.2018 12.3732C84.1994 8.32176 84.1801 7.89571 83.979 7.45442C83.6914 6.82374 82.8902 6.14983 82.2315 5.98463C81.9009 5.90173 80.2254 5.85314 77.6949 5.85314H73.6826V7.39284C73.6826 8.91444 73.6863 8.93552 73.9977 9.17946C74.1709 9.31524 74.4424 9.42637 74.6009 9.42637C74.9811 9.42637 75.4761 9.93162 75.4761 10.3197C75.4761 10.4894 75.344 10.7598 75.1826 10.9206C74.4408 11.6595 72.7202 10.922 72.1138 9.60503C71.9353 9.21745 71.8939 8.82309 71.8918 7.49087L71.8891 5.85314H56.4651H41.0411L41.0429 7.25265C41.0448 8.82714 41.1588 9.18982 41.7012 9.3468C42.6808 9.63028 43.023 10.0276 42.8105 10.6348C42.6723 11.0298 42.3932 11.213 41.9297 11.213C41.009 11.213 40.033 10.6033 39.5757 9.74236C39.3485 9.31488 39.3069 9.01735 39.269 7.55042L39.2251 5.85314L37.1738 5.8654C36.0456 5.87219 34.9255 5.92996 34.6847 5.99392C34.5353 6.03356 34.3712 6.10927 34.2052 6.20995C33.7786 5.74344 33.3376 5.3187 32.8945 4.93504C33.2035 4.71602 33.5388 4.5313 33.8907 4.39073C34.4444 4.16955 34.8241 4.13155 36.8861 4.09118L39.2476 4.04496L39.2505 3.31138ZM38.1188 16.838L38.3702 18.5976C42.6885 18.5967 42.8513 18.581 43.0737 18.3594C43.3758 18.0585 43.3806 17.5164 43.0843 17.1518L42.8558 16.8706L38.1188 16.838ZM36.3908 27.6593C36.4271 29.1275 36.5751 29.2948 37.172 29.6868C37.4813 29.89 37.7697 29.9113 40.2041 29.9117C42.6918 29.9119 42.9241 29.894 43.2899 29.6718C44.0275 29.2237 44.1442 28.7372 44.1472 26.0969C44.1497 23.9168 44.1328 23.7363 43.8808 23.2411C43.4091 22.3139 43.1433 22.234 40.4432 22.2076C39.8849 22.2021 39.3402 22.2049 38.8868 22.2139L38.9991 23V23.965L40.234 23.9844L42.2965 24.0171L42.3293 26.0717L42.3619 28.1263H40.2668H38.1715V26.8678L36.3908 27.6593ZM43.8031 40.2216C43.8189 40.1961 43.8348 40.1698 43.8509 40.1427C44.0706 39.7719 44.09 39.5254 44.09 37.0978C44.09 34.6159 44.0752 34.4366 43.8435 34.1275C43.2401 33.3225 43.1862 33.3094 40.405 33.2883C39.0122 33.2777 37.765 33.2973 37.6334 33.332C37.2401 33.4354 36.7451 33.8392 36.5493 34.2163C36.3972 34.5095 36.3719 35.0213 36.4012 37.2608L38.1715 37.9689V37.1161V35.0289L40.234 35.0614L42.2965 35.0941L42.3293 37.1487L42.3619 39.2033H41.2574L43.8031 40.2216ZM49.4987 51.8448C49.4844 49.475 49.1443 47.5352 48.6335 45.9697V45.297L48.9324 44.9744C49.0968 44.7971 49.3928 44.5804 49.5901 44.4931C49.8509 44.3776 50.637 44.333 52.4718 44.3296C54.8956 44.3252 55.0106 44.3355 55.3902 44.5929C56.2768 45.1939 56.2858 45.2301 56.2858 48.1959C56.2858 50.6992 56.2711 50.878 56.0392 51.1873C55.4408 51.9858 55.3704 52.0037 52.6605 52.0456C50.7431 52.0752 49.9729 52.053 49.4987 51.8448ZM43.3128 3.18191C43.3128 2.36804 43.2876 2.2774 42.9978 2.05038C42.6966 1.81431 41.9369 1.72677 41.5467 1.88316C41.2575 1.99917 41.0411 2.6252 41.0411 3.34592V4.06652H42.177H43.3128V3.18191ZM75.9544 3.34401C75.9544 2.60495 75.8223 2.21297 75.4865 1.95617C75.1772 1.71962 74.3533 1.77167 73.9977 2.05038C73.7079 2.2774 73.6826 2.36804 73.6826 3.18191V4.06652H74.8185H75.9544V3.34401ZM48.8069 23.042C49.0552 22.6364 49.3733 22.423 49.9488 22.2762C50.146 22.2259 51.3566 22.1951 52.639 22.2076C55.2596 22.2333 55.5632 22.3154 56.0424 23.1279C56.2667 23.5085 56.2858 23.7404 56.2858 26.1014C56.2858 28.0267 56.302 28.9795 55.8336 29.4509C55.3593 29.9283 54.3881 29.9121 52.3999 29.9121C49.9421 29.9121 49.6765 29.8919 49.3269 29.6794C48.6214 29.251 48.5737 29.0224 48.5742 26.0776C48.5746 23.6577 48.5953 23.3878 48.8069 23.042ZM60.9215 23.1546C61.1644 22.7116 61.5641 22.4198 62.1176 22.2813C62.3297 22.2282 63.5524 22.1958 64.8347 22.2092C66.6032 22.2279 67.4996 22.2298 67.954 22.6789C68.4285 23.1479 68.4209 24.1046 68.4212 26.0776C68.4216 28.053 68.4502 29.0115 67.9852 29.4763C67.5208 29.9404 66.5641 29.9121 64.5956 29.9121C62.6074 29.9121 61.6361 29.9283 61.1618 29.4509C60.6935 28.9795 60.7097 28.0267 60.7097 26.1014C60.7097 23.8758 60.7374 23.4901 60.9215 23.1546ZM73.1172 23.1546C73.3602 22.7116 73.7599 22.4198 74.3133 22.2813C74.5255 22.2282 75.7481 22.1958 77.0305 22.2092C78.7972 22.2279 79.6936 22.2289 80.1484 22.6776C80.6252 23.1481 80.6165 24.1106 80.6163 26.1014C80.6159 29.0519 80.5863 29.1859 79.8234 29.6868C79.5141 29.89 79.2257 29.9113 76.7914 29.9117C74.8032 29.9119 73.832 29.9283 73.3577 29.451C72.8893 28.9796 72.9055 28.0268 72.9055 26.1014C72.9055 23.8758 72.9332 23.4901 73.1172 23.1546ZM54.5577 28.1263L54.525 26.0717L54.4923 24.0171L52.4298 23.9844L50.3672 23.9519V26.039V28.1263H52.4625H54.5577ZM66.6282 28.1263V26.0419V23.9575H64.6156C63.5085 23.9575 62.5669 23.9932 62.5232 24.037C62.4793 24.0805 62.4434 25.0185 62.4434 26.1213V28.1263H64.5358H66.6282ZM78.824 28.1263V26.0419V23.9575H76.8113C75.7043 23.9575 74.7627 23.9932 74.7189 24.037C74.675 24.0805 74.6392 25.0185 74.6392 26.1213V28.1263H76.7316H78.824ZM49.1465 33.6874C49.2776 33.5691 49.5388 33.425 49.7267 33.3671C49.9146 33.3092 51.2079 33.2721 52.6007 33.2846C54.969 33.306 55.1549 33.3237 55.4703 33.5582C55.6558 33.696 55.9151 33.9908 56.0466 34.2133C56.2658 34.5838 56.2858 34.8318 56.2858 37.1785C56.2858 39.6323 56.2744 39.7574 56.0148 40.1733C55.5299 40.9502 55.2587 41.0073 52.2488 40.9664C49.8081 40.9333 49.5639 40.9108 49.2713 40.6921C48.6024 40.1921 48.5737 40.048 48.5737 37.1839C48.5737 34.4116 48.6137 34.1678 49.1465 33.6874ZM60.7592 34.7151C60.9236 34.107 61.3 33.6248 61.7756 33.4129C62.0596 33.2864 62.7372 33.2553 64.7208 33.278C67.5711 33.3106 67.7151 33.3455 68.1879 34.1179C68.4004 34.4652 68.4209 34.7321 68.4212 37.1644C68.4217 39.6298 68.4035 39.8595 68.1807 40.2188C67.7445 40.9218 67.4278 40.9899 64.5956 40.9899C61.733 40.9899 61.4505 40.9261 60.9806 40.1733C60.7284 39.7692 60.707 39.5829 60.6692 37.4688C60.6442 36.0691 60.6787 35.0131 60.7592 34.7151ZM73.1172 34.4698C73.3602 34.0269 73.7599 33.7351 74.3133 33.5965C74.5255 33.5434 75.7481 33.511 77.0305 33.5245C78.7972 33.5431 79.6936 33.5441 80.1484 33.9929C80.6252 34.4633 80.6165 35.4259 80.6163 37.4167C80.6159 39.8417 80.5945 40.129 80.3905 40.4371C79.8876 41.197 79.7531 41.2266 76.7914 41.2269C74.8032 41.2272 73.832 41.2436 73.3577 40.7662C72.8893 40.2948 72.9055 39.342 72.9055 37.4167C72.9055 35.191 72.9332 34.8054 73.1172 34.4698ZM54.5577 39.2033L54.525 37.1487L54.4923 35.0941L52.4298 35.0614L50.3672 35.0289V37.1161V39.2033H52.4625H54.5577ZM66.6282 39.2033V37.1189V35.0345H64.6156C63.5085 35.0345 62.5669 35.0703 62.5232 35.114C62.4793 35.1576 62.4434 36.0955 62.4434 37.1984V39.2033H64.5358H66.6282ZM78.824 39.4415V37.3571V35.2727H76.8113C75.7043 35.2727 74.7627 35.3085 74.7189 35.3522C74.675 35.3958 74.6392 36.3337 74.6392 37.4366V39.4415H76.7316H78.824ZM60.7101 46.5836C60.7104 45.4155 60.8501 45.1048 61.6053 44.5929C61.984 44.3361 62.1048 44.3249 64.4976 44.3249C67.2031 44.3249 67.514 44.3815 68.063 44.9743L68.3619 45.297V48.1959V51.0949L68.063 51.4175C67.5173 52.0067 67.1958 52.0669 64.5956 52.0669C62.0133 52.0669 61.6716 52.0046 61.148 51.4388C60.7698 51.0299 60.6411 50.4091 60.8379 49.9428C61.1144 49.2877 62.1162 49.2781 62.3625 49.9283L62.4958 50.2803H64.562H66.6282V48.1959V46.1115H64.5358H62.4434V46.9061C62.4434 47.8662 62.2596 48.1364 61.6065 48.1364C60.8828 48.1364 60.7096 47.8362 60.7101 46.5836ZM78.555 50.0126C81.0046 47.5729 83.0088 45.563 83.0088 45.5464C83.0088 45.5297 82.9146 45.5278 82.7996 45.5423C82.6845 45.5567 81.0031 45.597 79.0631 45.6317C76.5264 45.677 75.3206 45.6199 74.7395 46.1945C74.1451 46.7823 74.2042 48.0311 74.1609 50.7266L74.1011 54.4484L78.555 50.0126ZM54.552 50.2803V48.1959V46.1115H52.4596H50.3672V48.1959V50.2803H52.4596H54.552Z" fill="#C39367"/>
</svg>
