<svg width="62" height="88" viewBox="0 0 62 88" fill="none" xmlns="http://www.w3.org/2000/svg">
<path fill-rule="evenodd" clip-rule="evenodd" d="M5.8954 0.103645C3.36479 0.529951 1.08998 2.52322 0.290125 5.01502C0.0283499 5.83014 0.000327075 7.14311 0.000327075 18.5572V31.1968L5.59637 31.2422L11.1924 31.2874V41.1594V51.0313L7.21966 51.0884C2.70266 51.1534 2.24712 51.2624 1.08895 52.5567C-0.049738 53.8289 0.000327075 53.0442 0.000327075 69.6314C0.000327075 84.5454 0.00357387 84.6854 0.358303 85.4524C0.776256 86.3557 1.58909 87.2008 2.45951 87.6371C3.04235 87.9291 4.35362 87.9483 26.4605 87.9908C42.2181 88.0209 50.0597 87.9774 50.5035 87.857C51.5246 87.5803 52.5692 86.6861 53.0987 85.6354L53.5686 84.7028L53.5611 69.6437C53.5553 57.8385 53.5062 54.4509 53.3343 53.967C52.7365 52.2838 51.2635 51.2631 49.2061 51.1065L47.9298 51.0093V48.2045V45.3997L48.5706 45.2916C54.4248 44.304 58.9367 40.7124 61.009 35.3908C62.4679 31.6439 62.3059 26.9637 60.5895 23.2777C59.7574 21.4903 59.119 20.5536 57.7045 19.0448C55.5651 16.7623 52.5736 15.1226 49.406 14.4962L47.9298 14.2042L47.9278 10.233C47.9257 6.03977 47.8203 5.23273 47.0857 3.78666C46.5581 2.74815 45.3681 1.50965 44.3755 0.965887C42.5281 -0.0461385 43.1425 -0.017248 23.9292 0.00820315C14.2456 0.0211007 6.13035 0.0640924 5.8954 0.103645ZM9.23953 3.51667C9.75471 3.83722 10.2701 4.35639 10.5899 4.87676L11.107 5.71854L11.1533 17.039L11.1996 28.3594H7.00965H2.81971V17.3841C2.81971 5.16188 2.79835 5.4059 3.97019 4.19164C4.9146 3.21298 5.75597 2.88831 7.19351 2.94798C8.19191 2.98942 8.55365 3.08985 9.23953 3.51667ZM42.7182 3.31702C43.7037 3.78477 44.1498 4.2324 44.7101 5.31579C45.0911 6.05233 45.1132 6.28603 45.1687 10.1536L45.2268 14.2173L44.1049 14.414C40.5379 15.0391 37.8646 16.4709 35.3658 19.0945C33.3302 21.2319 32.1749 23.3434 31.4262 26.2958C31.1747 27.2872 31.1027 28.1425 31.1155 29.9931C31.1297 32.0794 31.1933 32.6071 31.5921 33.9483C33.4285 40.1243 38.1695 44.2749 44.5551 45.2971L45.1959 45.3997V48.2293V51.059H29.6466H14.0972V28.8987C14.0972 14.9385 14.0344 6.39574 13.9272 5.81209C13.8338 5.30272 13.5318 4.441 13.2562 3.89706L12.755 2.90825L27.3094 2.90997L41.8639 2.91169L42.7182 3.31702ZM16.8671 7.07845L16.9166 8.49718L29.6038 8.5412L42.2911 8.5854V7.12248V5.65973H29.5543H16.8173L16.8671 7.07845ZM16.8671 12.7534L16.9166 14.1721L26.7845 14.2165L36.6523 14.2608V12.7977V11.3346H26.7349H16.8173L16.8671 12.7534ZM16.8671 18.4283L16.9166 19.847L22.5127 19.8924L28.1087 19.9376V18.4737V17.0095H22.4631H16.8173L16.8671 18.4283ZM49.9776 17.526C57.7033 19.7424 61.4647 28.5762 57.7391 35.7539C56.2878 38.5498 53.6937 40.8051 50.7311 41.8466C44.0406 44.1986 36.7468 40.563 34.4627 33.7381C34.0586 32.5308 34.0151 32.1495 34.0154 29.8211C34.0157 27.4775 34.058 27.1157 34.4754 25.8658C35.1495 23.8473 36.0373 22.4384 37.6748 20.7882C39.5809 18.8675 41.8634 17.6544 44.4719 17.1758C45.7642 16.9387 48.5479 17.1158 49.9776 17.526ZM45.1959 21.388V22.8428L44.3364 23.4086C42.4377 24.6581 41.7959 26.887 42.777 28.8228C43.4627 30.1753 44.62 30.9595 46.2958 31.207C47.3236 31.3586 47.9298 31.8972 47.9298 32.6585C47.9298 33.3492 47.2645 34.0343 46.5936 34.0343C45.9875 34.0343 45.1959 33.4429 45.1959 32.9899C45.1959 32.6886 45.0638 32.6585 43.7435 32.6585C42.8368 32.6585 42.2911 32.7268 42.2911 32.8403C42.2911 34.0449 43.5745 35.9796 44.6788 36.4399L45.1959 36.6556V38.1823V39.7092H46.5629H47.9298V38.2005V36.692L48.5392 36.3618C49.8826 35.6336 50.698 34.2293 50.698 32.6436C50.698 31.3956 50.2407 30.3514 49.3344 29.5298C48.6605 28.9189 47.2908 28.3594 46.4694 28.3594C46.2642 28.3594 45.8937 28.1989 45.6461 28.0029C44.6799 27.238 45.2875 25.6079 46.5389 25.6079C47.1329 25.6079 47.9298 26.2438 47.9298 26.7179C47.9298 26.9369 48.1865 26.9836 49.3855 26.9836H50.8411L50.7371 26.5107C50.3858 24.914 49.5034 23.6427 48.4382 23.1986L47.9298 22.9866V21.4599V19.933H46.5629H45.1959V21.388ZM16.8671 24.1032L16.9166 25.5219L22.5127 25.5673L28.1087 25.6125V24.1486V22.6845H22.4631H16.8173L16.8671 24.1032ZM16.8671 29.7781L16.9166 31.1968L22.5127 31.2422L28.1087 31.2874V29.8235V28.3594H22.4631H16.8173L16.8671 29.7781ZM16.9028 34.2663C16.8543 34.3939 16.8373 35.0324 16.8655 35.685L16.9166 36.8717L22.5127 36.9171L28.1087 36.9624V35.4984V34.0343H22.5501C18.0427 34.0343 16.9745 34.0781 16.9028 34.2663ZM16.9028 39.9412C16.8543 40.0688 16.8373 40.7073 16.8655 41.3599L16.9166 42.5466L22.5127 42.592L28.1087 42.6373V41.1733V39.7092H22.5501C18.0427 39.7092 16.9745 39.753 16.9028 39.9412ZM16.9028 45.6161C16.8543 45.7437 16.8373 46.3822 16.8655 47.0348L16.9166 48.2216L26.7845 48.2659L36.6523 48.3103V46.8472V45.3841H26.8219C18.7296 45.3841 16.9757 45.4252 16.9028 45.6161ZM50.2533 54.3833C50.6287 54.7081 50.7314 54.9683 50.7967 55.759L50.877 56.7339H26.8484H2.81971V55.7804C2.81971 54.997 2.89472 54.7511 3.2392 54.4046L3.65852 53.9824H26.7245H49.7903L50.2533 54.3833ZM50.8346 61.0331V62.4088H49.3822H47.9298V63.8705V65.3323H49.3822H50.8346V74.5069C50.8346 83.9659 50.7933 84.5907 50.1445 84.9401C49.9449 85.0476 41.455 85.1085 26.6799 85.1085H3.52797L3.17393 84.6553C2.82535 84.2094 2.81971 84.0521 2.81971 74.7672V65.3323H4.18668H5.55366V63.8705V62.4088H4.18668H2.81971V61.0331V59.6574H26.8272H50.8346V61.0331ZM8.45847 63.8705V65.3323H9.82545H11.1924V63.8705V62.4088H9.82545H8.45847V63.8705ZM14.0972 63.8705V65.3323H15.4642H16.8312V63.8705V62.4088H15.4642H14.0972V63.8705ZM19.736 63.8705V65.3323H21.103H22.4699V63.8705V62.4088H21.103H19.736V63.8705ZM25.3748 63.8705V65.3323H26.7417H28.1087V63.8705V62.4088H26.7417H25.3748V63.8705ZM31.0135 63.8705V65.3462L32.4232 65.2962L33.8329 65.2463V63.8705V62.4948L32.4232 62.4449L31.0135 62.3949V63.8705ZM36.6523 63.8705V65.3462L38.062 65.2962L39.4717 65.2463V63.8705V62.4948L38.062 62.4449L36.6523 62.3949V63.8705ZM42.2911 63.8637V65.3323H43.7503H45.2097L45.16 63.9135L45.1104 62.4948L43.7008 62.4449L42.2911 62.3949V63.8637ZM35.029 71.2464C33.1045 71.8555 31.6475 73.4498 31.1837 75.4542C30.8982 76.6883 31.0658 77.9111 31.6974 79.2024C32.6549 81.1599 34.4484 82.2695 36.6523 82.2677C37.4838 82.2671 38.2084 82.1577 38.7157 81.956C39.4799 81.6523 39.5212 81.6533 40.5471 82.0012C41.806 82.4278 42.607 82.4483 43.8241 82.0846C45.5038 81.5825 46.6396 80.6072 47.4324 78.9863C47.7699 78.2962 47.8444 77.8793 47.8444 76.6821C47.8444 75.4329 47.7755 75.0792 47.3711 74.2501C46.1123 71.6708 43.1594 70.4125 40.4957 71.3205C39.4802 71.6668 39.4595 71.667 38.5307 71.3444C37.4571 70.9716 36.0247 70.9313 35.029 71.2464ZM5.66763 73.8733C5.60492 73.9363 5.55366 75.8709 5.55366 78.1725V82.357H15.4642H25.3748V78.0578V73.7586H15.5782C10.1899 73.7586 5.73017 73.8102 5.66763 73.8733ZM38.0193 74.2317C38.2542 74.3743 38.6607 74.6917 38.9225 74.9368C39.4344 75.4161 39.3847 75.4283 40.4733 74.5583C42.4185 73.0037 45.0645 74.2341 45.0645 76.6934C45.0645 78.2824 43.8873 79.4342 42.2653 79.4329C41.4907 79.4322 40.6794 79.0444 39.8876 78.2963L39.4491 77.8822L39.0332 78.3307C37.6973 79.771 35.4077 79.7821 34.3966 78.3533C33.8912 77.6389 33.7864 76.2398 34.1765 75.4126C34.8453 73.9942 36.6926 73.4266 38.0193 74.2317ZM11.1924 78.0578V79.4336H9.82545H8.45847V78.0578V76.6821H9.82545H11.1924V78.0578ZM16.8312 78.0578V79.4336H15.4642H14.0972V78.0578V76.6821H15.4642H16.8312V78.0578ZM22.4699 78.0578V79.4336H21.103H19.736V78.0578V76.6821H21.103H22.4699V78.0578Z" fill="#C39367"/>
</svg>
