<svg class="scale-geton" width="241" height="165" viewBox="0 0 241 165" fill="none" xmlns="http://www.w3.org/2000/svg">
                        <path d="M139.859 70.3076V97.7538C141.363 97.7538 142.491 97.3778 143.995 97.3778V70.3076H139.859Z" fill="#FFB83B"/>
                        <path d="M134.22 70.3076V97.7538C134.972 97.7538 135.724 97.7538 136.476 97.7538C136.852 97.7538 137.228 97.7538 137.604 97.7538V70.3076H134.22Z" fill="#FFB83B"/>
                        <path d="M103.768 70.3076V78.2031C103.768 80.8349 104.52 83.4667 106.023 85.7226V70.6836H103.768V70.3076Z" fill="#FFB83B"/>
                        <path d="M145.874 70.3076V97.0018C147.378 96.6259 148.506 96.6259 150.01 96.2499V70.6836H145.874V70.3076Z" fill="#FFB83B"/>
                        <path d="M151.896 70.3076V95.4979C153.023 95.122 153.775 94.746 154.903 94.37V70.3076H151.896Z" fill="#FFB83B"/>
                        <path d="M113.167 70.3076V91.7382C113.919 92.1142 115.047 92.8661 116.175 93.2421V69.9316H113.167V70.3076Z" fill="#FFB83B"/>
                        <path d="M128.58 70.3076V97.0018C129.708 97.0018 130.836 97.3778 131.964 97.3778V70.3076H128.58Z" fill="#FFB83B"/>
                        <path d="M118.432 70.3076V94.37C119.56 94.746 120.312 95.122 121.439 95.4979V70.3076H118.432Z" fill="#FFB83B"/>
                        <path d="M123.315 70.3076V95.8739C124.443 96.2499 125.571 96.2499 126.699 96.6259V70.3076H123.315Z" fill="#FFB83B"/>
                        <path d="M108.276 70.3076V87.9784C109.028 88.7304 110.156 89.8583 111.284 90.6103V70.3076H108.276Z" fill="#FFB83B"/>
                        <path d="M169.19 70.3076H166.935V85.3466C168.438 83.0908 169.19 80.4589 169.19 77.8271V70.3076Z" fill="#FFB83B"/>
                        <path d="M162.044 70.3076V90.6103C163.172 89.8583 164.3 89.1064 165.052 87.9784V70.3076H162.044Z" fill="#FFB83B"/>
                        <path d="M156.778 70.3076V93.6181C157.906 93.2421 158.658 92.4901 159.786 92.1142V70.6836H156.778V70.3076Z" fill="#FFB83B"/>
                        <path d="M106.396 70.3076V85.3466C107.148 86.0986 107.524 86.8505 108.276 87.9784V70.3076H106.396Z" fill="#FF9D27"/>
                        <path d="M111.287 70.3076V90.6103C112.039 90.9862 112.791 91.3622 113.167 92.1142V70.6836H111.287V70.3076Z" fill="#FF9D27"/>
                        <path d="M116.178 70.3076V93.6181C116.93 93.994 117.682 94.37 118.058 94.37V70.3076H116.178Z" fill="#FF9D27"/>
                        <path d="M121.436 70.3076V95.4979C122.187 95.8739 122.939 95.8739 123.315 96.2499V70.6836H121.436V70.3076Z" fill="#FF9D27"/>
                        <path d="M126.7 70.3076V96.6259C127.452 96.6259 128.204 97.0018 128.58 97.0018V70.3076H126.7Z" fill="#FF9D27"/>
                        <path d="M132.34 70.3076V97.3778C133.092 97.3778 133.844 97.3778 134.22 97.3778V69.9316H132.34V70.3076Z" fill="#FF9D27"/>
                        <path d="M137.605 70.3076V97.7538C138.357 97.7538 139.109 97.7538 139.485 97.7538V70.3076H137.605Z" fill="#FF9D27"/>
                        <path d="M143.619 70.3076V97.3778C144.371 97.3778 145.123 97.0018 145.499 97.0018V70.3076H143.619Z" fill="#FF9D27"/>
                        <path d="M165.055 70.3076V87.9784C165.807 87.2265 166.559 86.4745 166.935 85.3466V70.3076H165.055Z" fill="#FF9D27"/>
                        <path d="M159.789 70.3076V91.7382C160.541 91.3622 161.293 90.9862 161.669 90.2343V69.9316H159.789V70.3076Z" fill="#FF9D27"/>
                        <path d="M154.898 70.3076V94.37C155.65 93.994 156.402 93.6181 156.778 93.6181V70.3076H154.898Z" fill="#FF9D27"/>
                        <path d="M150.016 70.3076V95.8739C150.768 95.8739 151.52 95.4979 151.896 95.122V69.9316H150.016V70.3076Z" fill="#FF9D27"/>
                        <path d="M136.477 50.3799C118.431 50.3799 103.768 59.0273 103.768 69.9306C103.768 80.8338 118.431 89.4813 136.477 89.4813C154.524 89.4813 169.187 80.8338 169.187 69.9306C169.187 59.4033 154.524 50.3799 136.477 50.3799Z" fill="#FFE375"/>
                        <path d="M136.475 54.5156C151.514 54.5156 163.922 61.6591 165.05 70.6825C165.05 70.3066 165.05 69.9306 165.05 69.5546C165.05 60.1552 152.266 52.2598 136.475 52.2598C120.685 52.2598 107.901 59.7793 107.901 69.5546C107.901 69.9306 107.901 70.3066 107.901 70.6825C109.029 61.6591 121.436 54.5156 136.475 54.5156Z" fill="#FF9D27"/>
                        <path opacity="0.5" d="M136.475 86.8495C151.514 86.8495 163.922 79.7059 165.05 70.6825C164.298 61.6591 151.89 54.5156 136.475 54.5156C121.436 54.5156 109.029 61.6591 107.901 70.6825C109.029 79.7059 121.436 86.8495 136.475 86.8495Z" fill="#FF9D27"/>
                        <path d="M154.903 80.082C153.775 78.9541 152.647 77.8262 151.519 76.6982C152.647 74.8184 153.023 72.9385 152.271 70.6826C150.767 66.9229 145.88 66.5469 142.496 66.9229C140.616 66.9229 139.112 67.6748 137.608 68.0508C134.224 66.1709 130.841 63.9151 127.457 62.0352C129.713 60.9073 132.72 60.9073 134.6 60.9073C134.976 60.9073 135.352 60.1553 134.6 60.1553C131.968 59.4034 128.209 59.4034 125.201 61.2833C123.697 60.5313 122.193 60.1553 120.689 60.1553C120.313 60.1553 120.313 60.5313 120.689 60.5313C121.817 61.2832 122.945 61.6592 123.697 62.4112C120.689 64.667 119.561 68.4268 123.697 71.4346C127.833 74.0664 132.72 72.1865 136.856 71.0586C137.232 71.0586 137.608 70.6826 137.984 70.6826C141.368 72.5625 144.752 75.1943 148.135 77.4502C146.631 78.5781 144 79.3301 142.496 79.706C139.864 80.082 137.608 80.082 134.6 79.706C134.224 79.706 133.472 80.082 134.224 80.458C137.232 83.4658 144.752 82.7138 149.263 79.706C149.639 79.3301 150.015 79.3301 150.391 78.9541C151.895 79.706 153.023 80.458 154.527 81.2099C154.903 80.834 155.279 80.458 154.903 80.082ZM127.457 69.9307C123.697 69.1787 122.569 66.1709 125.201 63.5391L125.577 63.1631C128.961 65.043 131.968 66.9229 135.352 68.8028C134.976 68.8028 134.224 69.1787 133.848 69.1787C133.096 69.5547 128.585 69.9307 127.457 69.9307ZM143.248 69.1787C145.88 69.1787 151.519 69.1787 149.639 75.1943C146.631 72.9385 143.624 71.4346 140.616 69.5547C141.368 69.1787 142.496 69.1787 143.248 69.1787Z" fill="#FF9D27"/>
                        <path d="M113.543 74.8171C113.167 74.0652 112.415 72.9372 112.039 72.1853C111.663 71.4333 112.039 70.3054 111.663 69.1775C111.663 68.8015 111.287 68.8015 110.911 69.1775C110.159 69.9294 110.159 71.4333 110.535 72.5613C110.911 73.6892 111.663 74.8171 112.791 75.5691C113.543 75.945 113.919 75.1931 113.543 74.8171Z" fill="#FF9D27"/>
                        <path d="M160.543 65.042H160.167C160.167 66.1699 160.543 67.2978 160.167 68.4258C160.167 69.5537 159.415 70.3057 159.415 71.0576C159.415 71.4336 159.791 71.4336 160.167 71.4336C162.047 70.6816 162.423 66.1699 160.543 65.042Z" fill="#FF9D27"/>
                        <path d="M154.524 63.1621C154.524 63.1621 154.524 63.5381 154.524 63.1621C154.9 64.29 155.652 64.666 156.404 65.418C157.156 66.1699 157.532 66.5459 158.284 66.9219C158.66 66.9219 158.66 66.9219 158.66 66.5459C159.036 65.042 156.404 63.1621 154.524 63.1621Z" fill="#FF9D27"/>
                        <path d="M139.859 59.4053V86.8514C141.363 86.8514 142.491 86.4755 143.995 86.4755V59.4053H139.859Z" fill="#FFB83B"/>
                        <path d="M134.22 59.4053V86.8514C134.972 86.8514 135.724 86.8514 136.476 86.8514C136.852 86.8514 137.228 86.8514 137.604 86.8514V59.4053H134.22Z" fill="#FFB83B"/>
                        <path d="M103.768 59.4053V67.3008C103.768 69.9326 104.52 72.5644 106.023 74.8203V59.7813H103.768V59.4053Z" fill="#FFB83B"/>
                        <path d="M145.874 59.4053V86.0995C147.378 85.7235 148.506 85.7235 150.01 85.3476V59.7813H145.874V59.4053Z" fill="#FFB83B"/>
                        <path d="M151.896 59.4053V84.5956C153.023 84.2196 153.775 83.8437 154.903 83.4677V59.4053H151.896Z" fill="#FFB83B"/>
                        <path d="M113.167 59.4053V80.8358C113.919 81.2118 115.047 81.9638 116.175 82.3398V59.0293H113.167V59.4053Z" fill="#FFB83B"/>
                        <path d="M128.58 59.4053V86.0995C129.708 86.0995 130.836 86.4755 131.964 86.4755V59.4053H128.58Z" fill="#FFB83B"/>
                        <path d="M118.432 59.4053V83.4677C119.56 83.8437 120.312 84.2196 121.439 84.5956V59.4053H118.432Z" fill="#FFB83B"/>
                        <path d="M123.315 59.4053V84.9716C124.443 85.3475 125.571 85.3475 126.699 85.7235V59.4053H123.315Z" fill="#FFB83B"/>
                        <path d="M108.276 59.4053V77.0761C109.028 77.8281 110.156 78.956 111.284 79.7079V59.4053H108.276Z" fill="#FFB83B"/>
                        <path d="M169.19 59.4053H166.935V74.4443C168.438 72.1884 169.19 69.5566 169.19 66.9248V59.4053Z" fill="#FFB83B"/>
                        <path d="M162.044 59.4053V79.7079C163.172 78.956 164.3 78.204 165.052 77.0761V59.4053H162.044Z" fill="#FFB83B"/>
                        <path d="M156.778 59.4053V82.7157C157.906 82.3398 158.658 81.5878 159.786 81.2118V59.7813H156.778V59.4053Z" fill="#FFB83B"/>
                        <path d="M106.396 59.4053V74.4443C107.148 75.1962 107.524 75.9482 108.276 77.0761V59.4053H106.396Z" fill="#FF9D27"/>
                        <path d="M111.287 59.4053V79.7079C112.039 80.0839 112.791 80.4599 113.167 81.2118V59.7813H111.287V59.4053Z" fill="#FF9D27"/>
                        <path d="M116.178 59.4053V82.7157C116.93 83.0917 117.682 83.4677 118.058 83.4677V59.4053H116.178Z" fill="#FF9D27"/>
                        <path d="M121.436 59.4053V84.5956C122.187 84.9716 122.939 84.9716 123.315 85.3476V59.7813H121.436V59.4053Z" fill="#FF9D27"/>
                        <path d="M126.7 59.4053V85.7235C127.452 85.7235 128.204 86.0995 128.58 86.0995V59.4053H126.7Z" fill="#FF9D27"/>
                        <path d="M132.34 59.4053V86.4755C133.092 86.4755 133.844 86.4755 134.22 86.4755V59.0293H132.34V59.4053Z" fill="#FF9D27"/>
                        <path d="M137.605 59.4053V86.8514C138.357 86.8514 139.109 86.8514 139.485 86.8514V59.4053H137.605Z" fill="#FF9D27"/>
                        <path d="M143.619 59.4053V86.4755C144.371 86.4755 145.123 86.0995 145.499 86.0995V59.4053H143.619Z" fill="#FF9D27"/>
                        <path d="M165.055 59.4053V77.0761C165.807 76.3242 166.559 75.5722 166.935 74.4443V59.4053H165.055Z" fill="#FF9D27"/>
                        <path d="M159.789 59.4053V80.8358C160.541 80.4599 161.293 80.0839 161.669 79.3319V59.0293H159.789V59.4053Z" fill="#FF9D27"/>
                        <path d="M154.898 59.4053V83.4677C155.65 83.0917 156.402 82.7157 156.778 82.7157V59.4053H154.898Z" fill="#FF9D27"/>
                        <path d="M150.016 59.4053V84.9716C150.768 84.9716 151.52 84.5956 151.896 84.2196V59.0293H150.016V59.4053Z" fill="#FF9D27"/>
                        <path d="M136.477 39.8535C118.431 39.8535 103.768 48.5009 103.768 59.4042C103.768 70.3075 118.431 78.9549 136.477 78.9549C154.524 78.9549 169.187 70.3075 169.187 59.4042C169.187 48.5009 154.524 39.8535 136.477 39.8535Z" fill="#FFE375"/>
                        <path d="M136.475 43.6133C151.514 43.6133 163.922 50.7568 165.05 59.7802C165.05 59.4042 165.05 59.0282 165.05 58.6523C165.05 49.2529 152.266 41.3574 136.475 41.3574C120.685 41.3574 107.901 48.8769 107.901 58.6523C107.901 59.0282 107.901 59.4042 107.901 59.7802C109.029 50.7568 121.436 43.6133 136.475 43.6133Z" fill="#FF9D27"/>
                        <path opacity="0.5" d="M136.475 75.9471C151.514 75.9471 163.922 68.8036 165.05 59.7802C164.298 50.7568 151.89 43.6133 136.475 43.6133C121.436 43.6133 109.029 50.7568 107.901 59.7802C109.029 68.8036 121.436 75.9471 136.475 75.9471Z" fill="#FF9D27"/>
                        <path d="M154.903 69.1797C153.775 68.0517 152.647 66.9238 151.519 65.7959C152.647 63.916 153.023 62.0361 152.271 59.7803C150.767 56.0205 145.88 55.6446 142.496 56.0205C140.616 56.0205 139.112 56.7725 137.608 57.1485C134.224 55.2686 130.841 53.0127 127.457 51.1329C129.713 50.0049 132.72 50.0049 134.6 50.0049C134.976 50.0049 135.352 49.253 134.6 49.253C131.968 48.501 128.209 48.501 125.201 50.3809C123.697 49.629 122.193 49.253 120.689 49.253C120.313 49.253 120.313 49.629 120.689 49.629C121.817 50.3809 122.945 50.7569 123.697 51.5088C120.689 53.7647 119.561 57.5244 123.697 60.5322C127.833 63.1641 132.72 61.2842 136.856 60.1563C137.232 60.1563 137.608 59.7803 137.984 59.7803C141.368 61.6602 144.752 64.292 148.135 66.5478C146.631 67.6758 144 68.4277 142.496 68.8037C139.864 69.1797 137.608 69.1797 134.6 68.8037C134.224 68.8037 133.472 69.1797 134.224 69.5556C137.232 72.5634 144.752 71.8115 149.263 68.8037C149.639 68.4277 150.015 68.4277 150.391 68.0517C151.895 68.8037 153.023 69.5556 154.527 70.3076C154.903 70.3076 155.279 69.5556 154.903 69.1797ZM127.457 59.0283C123.697 58.2764 122.569 55.2686 125.201 52.6368L125.577 52.2608C128.961 54.1407 131.968 56.0205 135.352 57.9004C134.976 57.9004 134.224 58.2764 133.848 58.2764C133.096 58.6524 128.585 59.4043 127.457 59.0283ZM143.248 58.2764C145.88 58.2764 151.519 58.2764 149.639 64.292C146.631 62.0361 143.624 60.5322 140.616 58.6524C141.368 58.2764 142.496 58.2764 143.248 58.2764Z" fill="#FF9D27"/>
                        <path d="M113.543 64.2917C113.167 63.5398 112.415 62.4119 112.039 61.6599C111.663 60.908 112.039 59.78 111.663 58.6521C111.663 58.2761 111.287 58.2761 110.911 58.6521C110.159 59.404 110.159 60.908 110.535 62.0359C110.911 63.1638 111.663 64.2917 112.791 65.0437C113.543 65.0437 113.919 64.6677 113.543 64.2917Z" fill="#FF9D27"/>
                        <path d="M160.543 54.1396H160.167C160.167 55.2676 160.543 56.3955 160.167 57.5234C160.167 58.6513 159.415 59.4033 159.415 60.1552C159.415 60.5312 159.791 60.5312 160.167 60.5312C162.047 59.7793 162.423 55.6435 160.543 54.1396Z" fill="#FF9D27"/>
                        <path d="M154.524 52.6373C154.9 53.7652 155.652 54.1412 156.404 54.8931C157.156 55.6451 157.532 56.021 158.284 56.397C158.66 56.397 158.66 56.397 158.66 56.021C159.036 54.1412 156.404 52.2613 154.524 52.6373Z" fill="#FF9D27"/>
                        <path d="M139.859 48.502V75.9481C141.363 75.9481 142.491 75.5721 143.995 75.5721V48.502H139.859Z" fill="#FFB83B"/>
                        <path d="M134.22 48.502V75.9481C134.972 75.9481 135.724 75.9481 136.476 75.9481C136.852 75.9481 137.228 75.9481 137.604 75.9481V48.502H134.22Z" fill="#FFB83B"/>
                        <path d="M103.768 48.502V56.3974C103.768 59.0292 104.52 61.6611 106.023 63.9169V48.8779H103.768V48.502Z" fill="#FFB83B"/>
                        <path d="M145.874 48.502V75.1962C147.378 74.8202 148.506 74.8202 150.01 74.4442V48.8779H145.874V48.502Z" fill="#FFB83B"/>
                        <path d="M151.896 48.502V73.6923C153.023 73.3163 153.775 72.9403 154.903 72.5643V48.502H151.896Z" fill="#FFB83B"/>
                        <path d="M113.167 48.502V69.9325C113.919 70.3085 115.047 71.0605 116.175 71.4364V48.126H113.167V48.502Z" fill="#FFB83B"/>
                        <path d="M128.58 48.502V75.1962C129.708 75.1962 130.836 75.5721 131.964 75.5721V48.502H128.58Z" fill="#FFB83B"/>
                        <path d="M118.432 48.502V72.5643C119.56 72.9403 120.312 73.3163 121.439 73.6923V48.502H118.432Z" fill="#FFB83B"/>
                        <path d="M123.315 48.502V74.0683C124.443 74.4442 125.571 74.4442 126.699 74.8202V48.502H123.315Z" fill="#FFB83B"/>
                        <path d="M108.276 48.502V66.1728C109.028 66.9247 110.156 68.0526 111.284 68.8046V48.502H108.276Z" fill="#FFB83B"/>
                        <path d="M169.19 48.502H166.935V63.541C168.438 61.2851 169.19 58.6533 169.19 56.0215V48.502Z" fill="#FFB83B"/>
                        <path d="M162.044 48.502V68.8046C163.172 68.0526 164.3 67.3007 165.052 66.1728V48.502H162.044Z" fill="#FFB83B"/>
                        <path d="M156.778 48.502V71.8124C157.906 71.4364 158.658 70.6845 159.786 70.3085V48.8779H156.778V48.502Z" fill="#FFB83B"/>
                        <path d="M106.396 48.502V63.541C107.148 64.2929 107.524 65.0448 108.276 66.1728V48.502H106.396Z" fill="#FF9D27"/>
                        <path d="M111.287 48.502V68.8046C112.039 69.1806 112.791 69.5565 113.167 70.3085V48.8779H111.287V48.502Z" fill="#FF9D27"/>
                        <path d="M116.178 48.502V71.8124C116.93 72.1884 117.682 72.5643 118.058 72.5643V48.502H116.178Z" fill="#FF9D27"/>
                        <path d="M121.436 48.502V73.6923C122.187 74.0682 122.939 74.0682 123.315 74.4442V48.8779H121.436V48.502Z" fill="#FF9D27"/>
                        <path d="M126.7 48.502V74.8202C127.452 74.8202 128.204 75.1962 128.58 75.1962V48.502H126.7Z" fill="#FF9D27"/>
                        <path d="M132.34 48.502V75.5721C133.092 75.5721 133.844 75.5721 134.22 75.5721V48.126H132.34V48.502Z" fill="#FF9D27"/>
                        <path d="M137.605 48.502V75.9481C138.357 75.9481 139.109 75.9481 139.485 75.9481V48.502H137.605Z" fill="#FF9D27"/>
                        <path d="M143.619 48.502V75.5721C144.371 75.5721 145.123 75.1962 145.499 75.1962V48.502H143.619Z" fill="#FF9D27"/>
                        <path d="M165.055 48.502V66.1728C165.807 65.4208 166.559 64.6689 166.935 63.541V48.502H165.055Z" fill="#FF9D27"/>
                        <path d="M159.789 48.502V69.9325C160.541 69.5565 161.293 69.1806 161.669 68.4286V48.126H159.789V48.502Z" fill="#FF9D27"/>
                        <path d="M154.898 48.502V72.5643C155.65 72.1884 156.402 71.8124 156.778 71.8124V48.502H154.898Z" fill="#FF9D27"/>
                        <path d="M150.016 48.502V74.0683C150.768 74.0683 151.52 73.6923 151.896 73.3163V48.126H150.016V48.502Z" fill="#FF9D27"/>
                        <path d="M136.477 28.9512C118.431 28.9512 103.768 37.5986 103.768 48.5019C103.768 59.4051 118.431 68.0526 136.477 68.0526C154.524 68.0526 169.187 59.4051 169.187 48.5019C169.187 37.5986 154.524 28.9512 136.477 28.9512Z" fill="#FFE375"/>
                        <path d="M136.475 32.7109C151.514 32.7109 163.922 39.8545 165.05 48.8779C165.05 48.5019 165.05 48.1259 165.05 47.7499C165.05 38.3506 152.266 30.4551 136.475 30.4551C120.685 30.4551 107.901 37.9746 107.901 47.7499C107.901 48.1259 107.901 48.5019 107.901 48.8779C109.029 39.8545 121.436 32.7109 136.475 32.7109Z" fill="#FF9D27"/>
                        <path opacity="0.5" d="M136.475 65.0448C151.514 65.0448 163.922 57.9013 165.05 48.8779C164.298 39.8545 151.89 32.7109 136.475 32.7109C121.436 32.7109 109.029 39.8545 107.901 48.8779C109.029 57.9013 121.436 65.0448 136.475 65.0448Z" fill="#FF9D27"/>
                        <path d="M113.543 53.3894C113.167 52.6374 112.415 51.5095 112.039 50.7576C111.663 50.0056 112.039 48.8777 111.663 47.7498C111.663 47.3738 111.287 47.3738 110.911 47.7498C110.159 48.5017 110.159 50.0056 110.535 51.1335C110.911 52.2614 111.663 53.3894 112.791 54.1413C113.543 54.1413 113.919 53.7654 113.543 53.3894Z" fill="#FF9D27"/>
                        <path d="M160.543 43.2373H160.167C160.167 44.3652 160.543 45.4932 160.167 46.6211C160.167 47.749 159.415 48.5009 159.415 49.2529C159.415 49.6289 159.791 49.6289 160.167 49.6289C162.047 49.2529 162.423 44.7412 160.543 43.2373Z" fill="#FF9D27"/>
                        <path d="M154.524 41.7344C154.9 42.8623 155.652 43.2383 156.404 43.9902C157.156 44.7422 157.532 45.1181 158.284 45.4941C158.66 45.4941 158.66 45.4941 158.66 45.1182C159.036 43.2383 156.404 41.7344 154.524 41.7344Z" fill="#FF9D27"/>
                        <path d="M141.739 30.4541V57.9003C143.243 57.9003 144.371 57.5243 145.875 57.5243V30.4541H141.739Z" fill="#FFB83B"/>
                        <path d="M136.1 30.4541V57.9003C136.852 57.9003 137.604 57.9003 138.355 57.9003C138.731 57.9003 139.107 57.9003 139.483 57.9003V30.4541H136.1Z" fill="#FFB83B"/>
                        <path d="M106.021 30.4541V38.3496C106.021 40.9814 106.773 43.6132 108.277 45.8691V30.8301H106.021V30.4541Z" fill="#FFB83B"/>
                        <path d="M147.753 30.4541V57.1483C149.257 56.7724 150.385 56.7724 151.889 56.3964V30.8301H147.753V30.4541Z" fill="#FFB83B"/>
                        <path d="M153.768 30.4541V55.6444C154.896 55.2685 155.647 54.8925 156.775 54.5165V30.4541H153.768Z" fill="#FFB83B"/>
                        <path d="M115.421 30.4541V51.8847C116.173 52.2606 117.301 53.0126 118.429 53.3886V30.0781H115.421V30.4541Z" fill="#FFB83B"/>
                        <path d="M130.834 30.4541V57.1483C131.962 57.1483 133.09 57.5243 134.218 57.5243V30.4541H130.834Z" fill="#FFB83B"/>
                        <path d="M120.312 30.4541V54.5165C121.439 54.8925 122.191 55.2685 123.319 55.6444V30.4541H120.312Z" fill="#FFB83B"/>
                        <path d="M125.194 30.4541V56.3964C126.322 56.7724 127.45 56.7724 128.578 57.1483V30.8301H125.194V30.4541Z" fill="#FFB83B"/>
                        <path d="M110.53 30.4541V48.1249C111.282 48.8769 112.41 50.0048 113.538 50.7568V30.4541H110.53Z" fill="#FFB83B"/>
                        <path d="M171.444 30.4541H169.188V45.4931C170.692 43.2373 171.444 40.6054 171.444 37.9736V30.4541Z" fill="#FFB83B"/>
                        <path d="M163.923 30.4541V50.7568C165.051 50.0048 166.179 49.2529 166.931 48.1249V30.4541H163.923Z" fill="#FFB83B"/>
                        <path d="M159.032 30.4541V53.7646C160.16 53.3886 160.912 52.6366 162.04 52.2607V30.8301H159.032V30.4541Z" fill="#FFB83B"/>
                        <path d="M108.275 30.4541V45.4931C109.027 46.2451 109.403 46.997 110.155 48.1249V30.4541H108.275Z" fill="#FF9D27"/>
                        <path d="M113.166 30.4541V50.7568C113.918 51.1327 114.67 51.5087 115.046 52.2607V30.8301H113.166V30.4541Z" fill="#FF9D27"/>
                        <path d="M118.432 30.4541V53.7646C119.184 54.1405 119.936 54.5165 120.312 54.5165V30.4541H118.432Z" fill="#FF9D27"/>
                        <path d="M123.314 30.4541V55.6444C124.066 56.0204 124.818 56.0204 125.194 56.3964V30.8301H123.314V30.4541Z" fill="#FF9D27"/>
                        <path d="M128.58 30.4541V56.7724C129.332 56.7724 130.084 57.1483 130.46 57.1483V30.4541H128.58Z" fill="#FF9D27"/>
                        <path d="M134.22 30.4541V57.5243C134.972 57.5243 135.724 57.5243 136.1 57.5243V30.0781H134.22V30.4541Z" fill="#FF9D27"/>
                        <path d="M139.859 30.4541V57.9003C140.611 57.9003 141.363 57.9003 141.739 57.9003V30.4541H139.859Z" fill="#FF9D27"/>
                        <path d="M145.873 30.4541V57.5243C146.625 57.5243 147.377 57.1483 147.753 57.1483V30.4541H145.873Z" fill="#FF9D27"/>
                        <path d="M166.927 30.4541V48.1249C167.679 47.373 168.431 46.621 168.807 45.4931V30.4541H166.927Z" fill="#FF9D27"/>
                        <path d="M162.043 30.4541V51.8847C162.795 51.5087 163.547 51.1327 163.923 50.3808V30.0781H162.043V30.4541Z" fill="#FF9D27"/>
                        <path d="M156.778 30.4541V54.5165C157.53 54.1405 158.282 53.7646 158.658 53.7646V30.4541H156.778Z" fill="#FF9D27"/>
                        <path d="M151.888 30.4541V56.3964C152.64 56.3964 153.392 56.0204 153.768 55.6444V30.4541H151.888Z" fill="#FF9D27"/>
                        <path d="M138.731 10.9033C120.684 10.9033 106.021 19.5507 106.021 30.454C106.021 41.3573 120.684 50.0047 138.731 50.0047C156.778 50.0047 171.441 41.3573 171.441 30.454C171.441 19.5507 156.778 10.9033 138.731 10.9033Z" fill="#FFE375"/>
                        <path d="M138.73 14.6631C153.769 14.6631 166.177 21.8066 167.304 30.83C167.304 30.454 167.304 30.0781 167.304 29.7021C167.304 20.3027 154.521 12.4072 138.73 12.4072C122.939 12.4072 110.156 19.9267 110.156 29.7021C110.156 30.0781 110.156 30.454 110.156 30.83C110.908 21.8066 123.315 14.6631 138.73 14.6631Z" fill="#FF9D27"/>
                        <path opacity="0.5" d="M138.73 46.9979C153.769 46.9979 166.177 39.8544 167.304 30.831C166.552 21.8076 154.145 14.6641 138.73 14.6641C123.691 14.6641 111.284 21.8076 110.156 30.831C110.908 39.8544 123.315 46.9979 138.73 46.9979Z" fill="#FF9D27"/>
                        <path d="M157.158 40.2295C156.03 39.1015 154.902 37.9736 153.774 36.8457C154.902 34.9658 155.278 33.0859 154.526 30.8301C153.022 27.0703 148.134 26.6944 144.751 27.0703C142.871 27.0703 141.367 27.8223 139.863 28.1983C136.479 26.3184 133.095 24.0625 129.712 22.1827C131.967 21.0547 134.975 21.0547 136.855 21.0547C137.231 21.0547 137.607 20.3028 136.855 20.3028C134.223 19.5508 130.464 19.5508 127.456 21.4307C125.952 20.6788 124.448 20.3028 122.944 20.3028C122.568 20.3028 122.568 20.6788 122.944 20.6788C124.072 21.4307 125.2 21.8067 125.952 22.5586C122.944 24.8145 121.816 28.5742 125.952 31.582C130.088 34.2139 134.975 32.334 139.111 31.2061C139.487 31.2061 139.863 30.8301 140.239 30.8301C143.623 32.71 147.006 35.3418 150.39 37.5976C148.886 38.7256 146.255 39.4775 144.751 39.8535C142.119 40.2295 139.863 40.2295 136.855 39.8535C136.479 39.8535 135.727 40.2295 136.479 40.6054C139.487 43.6132 147.006 42.8613 151.518 39.8535C151.894 39.4775 152.27 39.4775 152.646 39.1015C154.15 39.8535 155.278 40.6054 156.782 41.3574C156.782 41.3574 157.534 40.6054 157.158 40.2295ZM129.336 30.0781C125.576 29.3262 124.448 26.3184 127.08 23.6866L127.456 23.3106C130.84 25.1905 133.847 27.0703 137.231 28.9502C136.855 28.9502 136.103 29.3262 135.727 29.3262C134.975 29.7022 130.464 30.4541 129.336 30.0781ZM145.503 29.3262C148.134 29.3262 153.774 29.3262 151.894 35.3418C148.886 33.0859 145.879 31.582 142.871 29.7022C143.623 29.7022 144.375 29.3262 145.503 29.3262Z" fill="#FF9D27"/>
                        <path d="M115.424 35.3415C115.048 34.5896 114.296 33.4616 113.92 32.7097C113.544 31.9578 113.92 30.8298 113.544 29.7019C113.544 29.3259 113.168 29.3259 112.792 29.7019C112.04 30.4539 112.04 31.9577 112.416 33.0857C112.792 34.2136 113.544 35.3415 114.672 36.0935C115.424 36.0935 115.8 35.7175 115.424 35.3415Z" fill="#FF9D27"/>
                        <path d="M162.416 25.1895H162.04C162.04 26.3174 162.416 27.4453 162.04 28.5732C162.04 29.7011 161.288 30.4531 161.288 31.205C161.288 31.581 161.664 31.581 162.04 31.581C164.296 31.2051 164.296 26.6934 162.416 25.1895Z" fill="#FF9D27"/>
                        <path d="M156.782 23.6865C156.406 23.6865 156.406 23.6865 156.782 23.6865C157.158 24.8144 157.91 25.1904 158.662 25.9424C159.414 26.6943 159.79 27.0703 160.542 27.4463C160.918 27.4463 160.918 27.4463 160.918 27.0703C160.918 25.1904 158.286 23.6865 156.782 23.6865Z" fill="#FF9D27"/>
                        <path d="M141.739 19.9277V47.3739C143.243 47.3739 144.371 46.9979 145.875 46.9979V19.9277H141.739Z" fill="#FFB83B"/>
                        <path d="M136.1 19.9277V47.3739C136.852 47.3739 137.604 47.3739 138.355 47.3739C138.731 47.3739 139.107 47.3739 139.483 47.3739V19.9277H136.1Z" fill="#FFB83B"/>
                        <path d="M106.021 19.9277V27.8232C106.021 30.455 106.773 33.0869 108.277 35.3427V20.3037H106.021V19.9277Z" fill="#FFB83B"/>
                        <path d="M147.753 19.9277V46.622C149.257 46.246 150.385 46.246 151.889 45.87V20.3037H147.753V19.9277Z" fill="#FFB83B"/>
                        <path d="M153.768 19.9277V45.1181C154.896 44.7421 155.647 44.3661 156.775 43.9901V19.9277H153.768Z" fill="#FFB83B"/>
                        <path d="M115.421 19.9277V41.3583C116.173 41.7343 117.301 42.4862 118.429 42.8622V19.5518H115.421V19.9277Z" fill="#FFB83B"/>
                        <path d="M130.834 19.9277V46.622C131.962 46.622 133.09 46.9979 134.218 46.9979V19.9277H130.834Z" fill="#FFB83B"/>
                        <path d="M120.312 19.9277V43.9901C121.439 44.3661 122.191 44.7421 123.319 45.1181V19.9277H120.312Z" fill="#FFB83B"/>
                        <path d="M125.194 19.9277V45.494C126.322 45.87 127.45 45.87 128.578 46.246V19.9277H125.194Z" fill="#FFB83B"/>
                        <path d="M110.53 19.9277V37.5986C111.282 38.3505 112.41 39.4784 113.538 40.2304V19.9277H110.53Z" fill="#FFB83B"/>
                        <path d="M171.444 19.9277H169.188V34.9667C170.692 32.7109 171.444 30.0791 171.444 27.4472V19.9277Z" fill="#FFB83B"/>
                        <path d="M163.923 19.9277V40.2304C165.051 39.4784 166.179 38.7265 166.931 37.5986V19.9277H163.923Z" fill="#FFB83B"/>
                        <path d="M159.032 19.9277V43.2382C160.16 42.8622 160.912 42.1103 162.04 41.7343V20.3037H159.032V19.9277Z" fill="#FFB83B"/>
                        <path d="M108.275 19.9277V34.9667C109.027 35.7187 109.403 36.4706 110.155 37.5986V19.9277H108.275Z" fill="#FF9D27"/>
                        <path d="M113.166 19.9277V40.2304C113.918 40.6064 114.67 40.9823 115.046 41.7343V20.3037H113.166V19.9277Z" fill="#FF9D27"/>
                        <path d="M118.432 19.9277V43.2382C119.184 43.6142 119.936 43.9901 120.312 43.9901V19.9277H118.432Z" fill="#FF9D27"/>
                        <path d="M123.314 19.9277V45.1181C124.066 45.494 124.818 45.494 125.194 45.87V20.3037H123.314V19.9277Z" fill="#FF9D27"/>
                        <path d="M128.58 19.9277V46.246C129.332 46.246 130.084 46.622 130.46 46.622V19.9277H128.58Z" fill="#FF9D27"/>
                        <path d="M134.22 19.9277V46.9979C134.972 46.9979 135.724 46.9979 136.1 46.9979V19.5518H134.22V19.9277Z" fill="#FF9D27"/>
                        <path d="M139.859 19.9277V47.3739C140.611 47.3739 141.363 47.3739 141.739 47.3739V19.9277H139.859Z" fill="#FF9D27"/>
                        <path d="M145.873 19.9277V46.9979C146.625 46.9979 147.377 46.622 147.753 46.622V19.9277H145.873Z" fill="#FF9D27"/>
                        <path d="M166.927 19.9277V37.5986C167.679 36.8466 168.431 36.0947 168.807 34.9667V19.9277H166.927Z" fill="#FF9D27"/>
                        <path d="M162.043 19.9277V41.3583C162.795 40.9823 163.547 40.6063 163.923 39.8544V19.5518H162.043V19.9277Z" fill="#FF9D27"/>
                        <path d="M156.778 19.9277V43.9901C157.53 43.6142 158.282 43.2382 158.658 43.2382V19.9277H156.778Z" fill="#FF9D27"/>
                        <path d="M151.888 19.9277V45.494C152.64 45.494 153.392 45.1181 153.768 44.7421V19.5518H151.888V19.9277Z" fill="#FF9D27"/>
                        <path d="M138.731 0C120.684 0 106.021 8.64743 106.021 19.5507C106.021 30.454 120.684 39.1014 138.731 39.1014C156.778 39.1014 171.441 30.454 171.441 19.5507C171.441 9.0234 156.778 0 138.731 0Z" fill="#FFE375"/>
                        <path d="M138.73 4.13573C153.769 4.13573 166.177 11.2793 167.304 20.3027C167.304 19.9267 167.304 19.5507 167.304 19.1747C167.304 9.77535 154.521 1.87988 138.73 1.87988C122.939 1.87988 110.156 9.39938 110.156 19.1747C110.156 19.5507 110.156 19.9267 110.156 20.3027C110.908 11.2793 123.315 4.13573 138.73 4.13573Z" fill="#FF9D27"/>
                        <path opacity="0.5" d="M138.73 36.4696C153.769 36.4696 166.177 29.3261 167.304 20.3027C166.552 11.2793 154.145 4.13574 138.73 4.13574C123.691 4.13574 111.284 11.2793 110.156 20.3027C110.908 29.3261 123.315 36.4696 138.73 36.4696Z" fill="#FF9D27"/>
                        <path d="M115.424 24.4372C115.048 23.6853 114.296 22.5574 113.92 21.8054C113.544 21.0535 113.92 19.9255 113.544 18.7976C113.544 18.4216 113.168 18.4216 112.792 18.7976C112.04 19.5496 112.04 21.0535 112.416 22.1814C112.792 23.3093 113.544 24.4372 114.672 25.1892C115.424 25.1892 115.8 24.8132 115.424 24.4372Z" fill="#FF9D27"/>
                        <path d="M162.416 14.2861H162.04C162.04 15.4141 162.416 16.542 162.04 17.6699C162.04 18.7978 161.288 19.5498 161.288 20.3017C161.288 20.6777 161.664 20.6777 162.04 20.6777C164.296 20.3017 164.296 15.79 162.416 14.2861Z" fill="#FF9D27"/>
                        <path d="M156.782 12.7832C156.406 12.7832 156.406 13.1592 156.782 12.7832C157.158 13.9111 157.91 14.2871 158.662 15.039C159.414 15.791 159.79 16.167 160.542 16.543C160.918 16.543 160.918 16.5429 160.918 16.167C160.918 14.6631 158.286 12.7832 156.782 12.7832Z" fill="#FF9D27"/>
                        <path d="M211.295 104.146V131.592C212.799 131.592 213.927 131.216 215.431 131.216V104.146H211.295Z" fill="#FFB83B"/>
                        <path d="M206.029 104.146V131.592C206.781 131.592 207.533 131.592 208.285 131.592C208.661 131.592 209.037 131.592 209.413 131.592V104.146H206.029Z" fill="#FFB83B"/>
                        <path d="M175.577 104.146V112.041C175.577 114.673 176.329 117.305 177.833 119.561V104.522H175.577V104.146Z" fill="#FFB83B"/>
                        <path d="M217.684 104.146V130.84C219.187 130.464 220.315 130.464 221.819 130.088V104.522H217.684V104.146Z" fill="#FFB83B"/>
                        <path d="M223.705 104.146V129.336C224.833 128.96 225.585 128.584 226.713 128.208V104.146H223.705Z" fill="#FFB83B"/>
                        <path d="M184.977 104.146V125.576C185.729 125.952 186.856 126.704 187.984 127.08V103.77H184.977V104.146Z" fill="#FFB83B"/>
                        <path d="M200.39 104.146V130.84C201.518 130.84 202.646 131.216 203.773 131.216V104.146H200.39Z" fill="#FFB83B"/>
                        <path d="M189.867 104.146V128.208C190.995 128.584 191.747 128.96 192.875 129.336V104.146H189.867Z" fill="#FFB83B"/>
                        <path d="M195.125 104.146V129.712C196.253 130.088 197.381 130.088 198.509 130.464V104.146H195.125Z" fill="#FFB83B"/>
                        <path d="M180.086 104.146V121.816C180.838 122.568 181.966 123.696 183.094 124.448V104.146H180.086Z" fill="#FFB83B"/>
                        <path d="M241 104.146H238.744V119.185C240.248 116.929 241 114.297 241 111.665V104.146Z" fill="#FFB83B"/>
                        <path d="M233.479 104.146V124.072C234.606 123.32 235.734 122.568 236.486 121.44V103.77H233.479V104.146Z" fill="#FFB83B"/>
                        <path d="M228.588 104.146V127.456C229.716 127.08 230.468 126.328 231.596 125.952V104.522H228.588V104.146Z" fill="#FFB83B"/>
                        <path d="M177.831 104.146V119.185C178.583 119.936 178.959 120.688 179.711 121.816V104.146H177.831Z" fill="#FF9D27"/>
                        <path d="M183.097 104.146V124.072C183.849 124.448 184.601 124.824 184.977 125.576V104.146H183.097Z" fill="#FF9D27"/>
                        <path d="M187.987 104.146V127.456C188.739 127.832 189.491 128.208 189.867 128.208V104.146H187.987Z" fill="#FF9D27"/>
                        <path d="M192.87 104.146V129.336C193.622 129.712 194.374 129.712 194.75 130.088V104.522H192.87V104.146Z" fill="#FF9D27"/>
                        <path d="M198.51 104.146V130.464C199.262 130.464 200.014 130.84 200.39 130.84V104.146H198.51Z" fill="#FF9D27"/>
                        <path d="M203.775 104.146V131.216C204.527 131.216 205.279 131.216 205.655 131.216V103.77H203.775V104.146Z" fill="#FF9D27"/>
                        <path d="M209.415 104.146V131.592C210.167 131.592 210.919 131.592 211.295 131.592V104.146H209.415Z" fill="#FF9D27"/>
                        <path d="M215.429 104.146V131.216C216.181 131.216 216.933 130.84 217.309 130.84V104.146H215.429Z" fill="#FF9D27"/>
                        <path d="M236.482 104.146V121.816C237.234 121.064 237.986 120.312 238.362 119.185V104.146H236.482Z" fill="#FF9D27"/>
                        <path d="M231.599 104.146V125.576C232.351 125.2 233.103 124.824 233.479 124.072V103.77H231.599V104.146Z" fill="#FF9D27"/>
                        <path d="M226.708 104.146V128.208C227.46 127.832 228.212 127.456 228.588 127.456V104.146H226.708Z" fill="#FF9D27"/>
                        <path d="M221.443 104.146V129.712C222.195 129.712 222.947 129.336 223.323 128.96V103.77H221.443V104.146Z" fill="#FF9D27"/>
                        <path d="M208.288 123.696C226.353 123.696 240.998 114.943 240.998 104.145C240.998 93.3479 226.353 84.5947 208.288 84.5947C190.223 84.5947 175.578 93.3479 175.578 104.145C175.578 114.943 190.223 123.696 208.288 123.696Z" fill="#FFE375"/>
                        <path d="M208.285 88.3545C223.324 88.3545 235.731 95.498 236.859 104.521C236.859 104.145 236.859 103.769 236.859 103.393C236.859 93.9941 224.076 86.0986 208.285 86.0986C192.494 86.0986 179.711 93.6181 179.711 103.393C179.711 103.769 179.711 104.145 179.711 104.521C180.839 95.498 193.246 88.3545 208.285 88.3545Z" fill="#FF9D27"/>
                        <path opacity="0.5" d="M208.285 120.688C223.324 120.688 235.731 113.545 236.859 104.521C236.107 95.498 223.7 88.3545 208.285 88.3545C193.246 88.3545 180.839 95.498 179.711 104.521C180.839 113.545 193.246 120.688 208.285 120.688Z" fill="#FF9D27"/>
                        <path d="M185.353 108.658C184.977 107.906 184.225 106.778 183.849 106.026C183.474 105.274 183.849 104.146 183.474 103.018C183.474 102.642 183.098 102.642 182.722 103.018C181.97 103.77 181.97 105.274 182.346 106.402C182.722 107.53 183.474 108.658 184.601 109.41C184.977 109.786 185.353 109.034 185.353 108.658Z" fill="#FF9D27"/>
                        <path d="M232.354 98.8809H231.978C231.978 100.009 232.354 101.137 231.978 102.265C231.978 103.393 231.226 104.145 231.226 104.896C231.226 105.272 231.602 105.272 231.978 105.272C233.857 104.52 233.857 100.009 232.354 98.8809Z" fill="#FF9D27"/>
                        <path d="M226.333 97.001C226.333 97.001 225.957 97.377 226.333 97.001C226.709 98.1289 227.461 98.5049 228.213 99.2568C228.965 100.009 229.341 100.385 230.093 100.761C230.469 100.761 230.469 100.761 230.469 100.385C230.845 98.8809 227.837 97.001 226.333 97.001Z" fill="#FF9D27"/>
                        <path d="M197.386 90.9863V118.433C198.89 118.433 200.018 118.057 201.521 118.057V90.9863H197.386Z" fill="#FFB83B"/>
                        <path d="M191.746 90.9863V118.433C192.498 118.433 193.25 118.433 194.002 118.433C194.378 118.433 194.754 118.433 195.13 118.433V90.9863H191.746Z" fill="#FFB83B"/>
                        <path d="M161.294 90.9863V98.8818C161.294 101.514 162.046 104.145 163.55 106.401V91.3623H161.294V90.9863Z" fill="#FFB83B"/>
                        <path d="M203.4 90.9863V117.681C204.904 117.305 206.032 117.305 207.536 116.929V91.3623H203.4V90.9863Z" fill="#FFB83B"/>
                        <path d="M209.422 90.9863V116.177C210.55 115.801 211.302 115.425 212.43 115.049V90.9863H209.422Z" fill="#FFB83B"/>
                        <path d="M171.067 90.9863V112.417C171.819 112.793 172.947 113.545 174.075 113.921V90.6104H171.067V90.9863Z" fill="#FFB83B"/>
                        <path d="M186.481 90.9863V117.681C187.609 117.681 188.737 118.057 189.865 118.057V90.9863H186.481Z" fill="#FFB83B"/>
                        <path d="M175.958 90.9863V115.049C177.086 115.425 177.838 115.801 178.966 116.177V90.9863H175.958Z" fill="#FFB83B"/>
                        <path d="M180.842 90.9863V116.553C181.97 116.929 183.098 116.929 184.226 117.305V90.9863H180.842Z" fill="#FFB83B"/>
                        <path d="M165.803 90.9863V108.657C166.555 109.409 167.683 110.537 168.811 111.289V90.9863H165.803Z" fill="#FFB83B"/>
                        <path d="M227.091 90.9863H224.835V106.025C226.339 103.769 227.091 101.138 227.091 98.5058V90.9863Z" fill="#FFB83B"/>
                        <path d="M219.57 90.9863V111.289C220.698 110.537 221.826 109.785 222.578 108.657V90.9863H219.57Z" fill="#FFB83B"/>
                        <path d="M214.68 90.9863V114.297C215.808 113.921 216.56 113.169 217.687 112.793V91.3623H214.68V90.9863Z" fill="#FFB83B"/>
                        <path d="M163.923 90.9863V106.025C164.675 106.777 165.051 107.529 165.803 108.657V90.9863H163.923Z" fill="#FF9D27"/>
                        <path d="M168.813 90.9863V111.289C169.565 111.665 170.317 112.041 170.693 112.793V91.3623H168.813V90.9863Z" fill="#FF9D27"/>
                        <path d="M174.078 90.9863V114.297C174.83 114.673 175.582 115.049 175.958 115.049V90.9863H174.078Z" fill="#FF9D27"/>
                        <path d="M178.962 90.9863V116.177C179.714 116.553 180.466 116.553 180.842 116.929V91.3623H178.962V90.9863Z" fill="#FF9D27"/>
                        <path d="M184.227 90.9863V117.305C184.979 117.305 185.73 117.681 186.106 117.681V90.9863H184.227Z" fill="#FF9D27"/>
                        <path d="M189.866 90.9863V118.057C190.618 118.057 191.37 118.057 191.746 118.057V90.6104H189.866V90.9863Z" fill="#FF9D27"/>
                        <path d="M195.506 90.9863V118.433C196.258 118.433 197.01 118.433 197.386 118.433V90.9863H195.506Z" fill="#FF9D27"/>
                        <path d="M201.521 90.9863V118.057C202.272 118.057 203.024 117.681 203.4 117.681V90.9863H201.521Z" fill="#FF9D27"/>
                        <path d="M222.581 90.9863V108.657C223.333 107.905 224.085 107.153 224.461 106.025V90.9863H222.581Z" fill="#FF9D27"/>
                        <path d="M217.315 90.9863V112.417C218.067 112.041 218.819 111.665 219.195 110.913V90.6104H217.315V90.9863Z" fill="#FF9D27"/>
                        <path d="M212.425 90.9863V115.049C213.177 114.673 213.929 114.297 214.305 114.297V90.9863H212.425Z" fill="#FF9D27"/>
                        <path d="M207.542 90.9863V116.553C208.294 116.553 209.046 116.177 209.422 115.801V90.6104H207.542V90.9863Z" fill="#FF9D27"/>
                        <path d="M194.379 71.0586C176.332 71.0586 161.669 79.706 161.669 90.6093C161.669 101.513 176.332 110.16 194.379 110.16C212.426 110.16 227.089 101.513 227.089 90.6093C227.089 80.082 212.426 71.0586 194.379 71.0586Z" fill="#FFE375"/>
                        <path d="M194.376 75.1943C209.415 75.1943 221.822 82.3378 222.95 91.3612C222.95 90.9853 222.95 90.6093 222.95 90.2333C222.95 80.8339 210.167 72.9385 194.376 72.9385C178.585 72.9385 165.802 80.458 165.802 90.2333C165.802 90.6093 165.802 90.9853 165.802 91.3612C166.554 82.3378 178.961 75.1943 194.376 75.1943Z" fill="#FF9D27"/>
                        <path opacity="0.5" d="M194.376 107.528C209.415 107.528 221.822 100.385 222.95 91.3613C222.198 82.3379 209.791 75.1943 194.376 75.1943C179.337 75.1943 166.93 82.3379 165.802 91.3613C166.554 100.385 178.961 107.528 194.376 107.528Z" fill="#FF9D27"/>
                        <path d="M212.429 100.385C211.301 99.2568 210.173 98.1289 209.046 97.001C210.173 95.1211 210.549 93.2412 209.797 90.9854C208.294 87.2256 203.406 86.8496 200.022 87.2256C198.142 87.2256 196.638 87.9776 195.134 88.3535C191.751 86.4737 188.367 84.2178 184.983 82.3379C187.239 81.21 190.247 81.21 192.127 81.21C192.503 81.21 192.879 80.4581 192.127 80.4581C189.495 79.7061 185.735 79.7061 182.727 81.586C181.223 80.834 179.719 80.4581 178.216 80.4581C177.84 80.4581 177.84 80.834 178.216 80.834C179.344 81.586 180.471 81.962 181.223 82.7139C178.216 84.9698 177.088 88.7295 181.223 91.7373C185.359 94.3691 190.247 92.4893 194.383 91.3613C194.758 91.3613 195.134 90.9854 195.51 90.9854C198.894 92.8652 202.278 95.4971 205.662 97.7529C204.158 98.8808 201.526 99.6328 200.022 100.009C197.39 100.385 195.134 100.385 192.127 100.009C191.751 100.009 190.999 100.385 191.751 100.761C194.758 103.769 202.278 103.017 206.79 100.009C207.166 99.6328 207.542 99.6328 207.918 99.2568C209.422 100.009 210.549 100.761 212.053 101.513C212.429 101.513 213.181 101.137 212.429 100.385ZM184.983 90.2334C181.223 89.4815 180.095 86.4737 182.727 83.8418L183.103 83.4659C186.487 85.3457 189.495 87.2256 192.879 89.1055C192.503 89.1055 191.751 89.4815 191.375 89.4815C190.623 89.8574 186.111 90.6094 184.983 90.2334ZM201.15 89.4815C203.782 89.4815 209.422 89.4815 207.542 95.4971C204.534 93.2412 201.526 91.7373 198.518 89.8574C199.27 89.8574 200.022 89.8574 201.15 89.4815Z" fill="#FF9D27"/>
                        <path d="M171.069 95.4958C170.693 94.7439 169.941 93.6159 169.565 92.864C169.189 92.112 169.565 90.9841 169.189 89.8562C169.189 89.4802 168.813 89.4802 168.437 89.8562C167.685 90.6082 167.685 92.112 168.061 93.24C168.437 94.3679 169.189 95.4958 170.317 96.2478C171.069 96.2478 171.445 95.8718 171.069 95.4958Z" fill="#FF9D27"/>
                        <path d="M218.069 85.7217H217.693C217.693 86.8496 218.069 87.9775 217.693 89.1055C217.693 90.2334 216.941 90.9853 216.941 91.7373C216.941 92.1133 217.317 92.1133 217.693 92.1133C219.949 91.3613 219.949 86.8496 218.069 85.7217Z" fill="#FF9D27"/>
                        <path d="M212.428 83.8418C212.052 83.8418 212.052 84.2178 212.428 83.8418C212.804 84.9697 213.556 85.3457 214.308 86.0977C215.06 86.8496 215.436 87.2256 216.188 87.6015C216.564 87.6015 216.564 87.6016 216.564 87.2256C216.564 85.7217 213.932 83.8418 212.428 83.8418Z" fill="#FF9D27"/>
                        <path d="M197.386 80.083V107.529C198.89 107.529 200.018 107.153 201.521 107.153V80.083H197.386Z" fill="#FFB83B"/>
                        <path d="M191.746 80.083V107.529C192.498 107.529 193.25 107.529 194.002 107.529C194.378 107.529 194.754 107.529 195.13 107.529V80.083H191.746Z" fill="#FFB83B"/>
                        <path d="M161.294 80.083V87.9785C161.294 90.6103 162.046 93.2421 163.55 95.498V80.459H161.294V80.083Z" fill="#FFB83B"/>
                        <path d="M203.4 80.083V106.777C204.904 106.401 206.032 106.401 207.536 106.025V80.459H203.4V80.083Z" fill="#FFB83B"/>
                        <path d="M209.422 80.083V105.273C210.55 104.897 211.302 104.521 212.43 104.145V80.083H209.422Z" fill="#FFB83B"/>
                        <path d="M171.067 80.083V101.514C171.819 101.89 172.947 102.642 174.075 103.017V79.707H171.067V80.083Z" fill="#FFB83B"/>
                        <path d="M186.481 80.083V106.777C187.609 106.777 188.737 107.153 189.865 107.153V80.083H186.481Z" fill="#FFB83B"/>
                        <path d="M175.958 80.083V104.145C177.086 104.521 177.838 104.897 178.966 105.273V80.083H175.958Z" fill="#FFB83B"/>
                        <path d="M180.842 80.083V105.649C181.97 106.025 183.098 106.025 184.226 106.401V80.083H180.842Z" fill="#FFB83B"/>
                        <path d="M165.803 80.083V97.7538C166.555 98.5058 167.683 99.6337 168.811 100.386V80.083H165.803Z" fill="#FFB83B"/>
                        <path d="M227.091 80.083H224.835V95.122C226.339 92.8662 227.091 90.2343 227.091 87.6025V80.083Z" fill="#FFB83B"/>
                        <path d="M219.57 80.083V100.386C220.698 99.6337 221.826 98.8818 222.578 97.7538V80.083H219.57Z" fill="#FFB83B"/>
                        <path d="M214.68 80.083V103.393C215.808 103.017 216.56 102.266 217.687 101.89V80.459H214.68V80.083Z" fill="#FFB83B"/>
                        <path d="M163.923 80.083V95.122C164.675 95.874 165.051 96.6259 165.803 97.7538V80.083H163.923Z" fill="#FF9D27"/>
                        <path d="M168.813 80.083V100.386C169.565 100.762 170.317 101.138 170.693 101.89V80.459H168.813V80.083Z" fill="#FF9D27"/>
                        <path d="M174.078 80.083V103.393C174.83 103.769 175.582 104.145 175.958 104.145V80.083H174.078Z" fill="#FF9D27"/>
                        <path d="M178.962 80.083V105.273C179.714 105.649 180.466 105.649 180.842 106.025V80.459H178.962V80.083Z" fill="#FF9D27"/>
                        <path d="M184.227 80.083V106.401C184.979 106.401 185.73 106.777 186.106 106.777V80.083H184.227Z" fill="#FF9D27"/>
                        <path d="M189.866 80.083V107.153C190.618 107.153 191.37 107.153 191.746 107.153V79.707H189.866V80.083Z" fill="#FF9D27"/>
                        <path d="M195.506 80.083V107.529C196.258 107.529 197.01 107.529 197.386 107.529V80.083H195.506Z" fill="#FF9D27"/>
                        <path d="M201.521 80.083V107.153C202.272 107.153 203.024 106.777 203.4 106.777V80.083H201.521Z" fill="#FF9D27"/>
                        <path d="M222.581 80.083V97.7538C223.333 97.0019 224.085 96.2499 224.461 95.122V80.083H222.581Z" fill="#FF9D27"/>
                        <path d="M217.315 80.083V101.514C218.067 101.138 218.819 100.762 219.195 100.01V79.707H217.315V80.083Z" fill="#FF9D27"/>
                        <path d="M212.425 80.083V104.145C213.177 103.769 213.929 103.393 214.305 103.393V80.083H212.425Z" fill="#FF9D27"/>
                        <path d="M207.542 80.083V105.649C208.294 105.649 209.046 105.273 209.422 104.897V79.707H207.542V80.083Z" fill="#FF9D27"/>
                        <path d="M194.379 60.5322C176.332 60.5322 161.669 69.1797 161.669 80.0829C161.669 90.9862 176.332 99.6336 194.379 99.6336C212.426 99.6336 227.089 90.9862 227.089 80.0829C227.089 69.1797 212.426 60.5322 194.379 60.5322Z" fill="#FFE375"/>
                        <path d="M194.376 64.291C209.415 64.291 221.822 71.4345 222.95 80.4579C222.95 80.082 222.95 79.706 222.95 79.33C222.95 69.9306 210.167 62.0352 194.376 62.0352C178.585 62.0352 165.802 69.5547 165.802 79.33C165.802 79.706 165.802 80.082 165.802 80.4579C166.554 71.4345 178.961 64.291 194.376 64.291Z" fill="#FF9D27"/>
                        <path opacity="0.5" d="M194.376 96.6249C209.415 96.6249 221.822 89.4814 222.95 80.458C222.198 71.4346 209.791 64.291 194.376 64.291C179.337 64.291 166.93 71.4346 165.802 80.458C166.554 89.4814 178.961 96.6249 194.376 96.6249Z" fill="#FF9D27"/>
                        <path d="M171.069 84.9695C170.693 84.2175 169.941 83.0896 169.565 82.3376C169.189 81.5857 169.565 80.4578 169.189 79.3298C169.189 78.9539 168.813 78.9539 168.437 79.3298C167.685 80.0818 167.685 81.5857 168.061 82.7136C168.437 83.8415 169.189 84.9695 170.317 85.7214C171.069 85.7214 171.445 85.3454 171.069 84.9695Z" fill="#FF9D27"/>
                        <path d="M218.069 74.8184H217.693C217.693 75.9463 218.069 77.0742 217.693 78.2021C217.693 79.3301 216.941 80.082 216.941 80.834C216.941 81.2099 217.317 81.2099 217.693 81.2099C219.949 80.458 219.949 75.9463 218.069 74.8184Z" fill="#FF9D27"/>
                        <path d="M212.428 73.316C212.052 73.316 212.052 73.316 212.428 73.316C212.804 74.4439 213.556 74.8199 214.308 75.5718C215.06 76.3238 215.436 76.6997 216.188 77.0757C216.564 77.0757 216.564 77.0757 216.564 76.6998C216.564 74.8199 213.932 72.94 212.428 73.316Z" fill="#FF9D27"/>
                        <path d="M42.8623 136.856V164.303C44.3662 164.303 45.4941 163.927 46.998 163.927V136.856H42.8623Z" fill="#FFB83B"/>
                        <path d="M37.5967 136.856V164.303C38.3486 164.303 39.1006 164.303 39.8525 164.303C40.2285 164.303 40.6045 164.303 40.9804 164.303V136.856H37.5967Z" fill="#FFB83B"/>
                        <path d="M7.14453 136.856V144.752C7.14453 147.384 7.89649 150.016 9.40039 152.271V137.232H7.14453V136.856Z" fill="#FFB83B"/>
                        <path d="M48.876 136.856V163.551C50.3799 163.175 51.5078 163.175 53.0117 162.799V137.232H48.876V136.856Z" fill="#FFB83B"/>
                        <path d="M55.2725 136.856V162.047C56.4004 161.671 57.1523 161.295 58.2803 160.919V136.856H55.2725Z" fill="#FFB83B"/>
                        <path d="M16.5439 136.856V158.287C17.2959 158.663 18.4238 159.415 19.5518 159.791V136.48H16.5439V136.856Z" fill="#FFB83B"/>
                        <path d="M31.957 136.856V163.551C33.085 163.551 34.2129 163.927 35.3408 163.927V136.856H31.957Z" fill="#FFB83B"/>
                        <path d="M21.4346 136.856V160.919C22.5625 161.295 23.3144 161.671 24.4424 162.047V136.856H21.4346Z" fill="#FFB83B"/>
                        <path d="M26.6924 136.856V162.423C27.8203 162.799 28.9482 162.799 30.0762 163.175V136.856H26.6924Z" fill="#FFB83B"/>
                        <path d="M11.6533 136.856V154.527C12.4053 155.279 13.5332 156.407 14.6611 157.159V136.856H11.6533Z" fill="#FFB83B"/>
                        <path d="M72.5674 136.856H70.3115V151.895C71.8154 149.64 72.5674 147.008 72.5674 144.376V136.856Z" fill="#FFB83B"/>
                        <path d="M65.0459 136.856V157.159C66.1738 156.407 67.3017 155.655 68.0537 154.527V136.856H65.0459Z" fill="#FFB83B"/>
                        <path d="M60.1553 136.856V160.167C61.2832 159.791 62.0351 159.039 63.1631 158.663V137.232H60.1553V136.856Z" fill="#FFB83B"/>
                        <path d="M9.39844 136.856V151.895C10.1504 152.647 10.5264 153.399 11.2783 154.527V136.856H9.39844Z" fill="#FF9D27"/>
                        <path d="M14.2891 136.856V157.159C15.041 157.535 15.793 157.911 16.1689 158.663V137.232H14.2891V136.856Z" fill="#FF9D27"/>
                        <path d="M19.5547 136.856V160.167C20.3066 160.543 21.0586 160.919 21.4346 160.919V136.856H19.5547Z" fill="#FF9D27"/>
                        <path d="M24.4375 136.856V162.047C25.1895 162.423 25.9414 162.423 26.3174 162.799V137.232H24.4375V136.856Z" fill="#FF9D27"/>
                        <path d="M29.7031 136.856V163.175C30.4551 163.175 31.207 163.551 31.583 163.551V136.856H29.7031Z" fill="#FF9D27"/>
                        <path d="M35.3428 136.856V163.927C36.0947 163.927 36.8467 163.927 37.2226 163.927V136.48H35.3428V136.856Z" fill="#FF9D27"/>
                        <path d="M40.9824 136.856V164.303C41.7344 164.303 42.4863 164.303 42.8623 164.303V136.856H40.9824Z" fill="#FF9D27"/>
                        <path d="M46.9961 136.856V163.927C47.748 163.927 48.5 163.551 48.876 163.551V136.856H46.9961Z" fill="#FF9D27"/>
                        <path d="M68.0498 136.856V154.527C68.8018 153.775 69.5537 153.023 69.9297 151.895V136.856H68.0498Z" fill="#FF9D27"/>
                        <path d="M63.166 136.856V158.287C63.918 157.911 64.6699 157.535 65.0459 156.783V136.48H63.166V136.856Z" fill="#FF9D27"/>
                        <path d="M57.9014 136.856V160.919C58.6533 160.543 59.4053 160.167 59.7812 160.167V136.856H57.9014Z" fill="#FF9D27"/>
                        <path d="M53.0107 136.856V162.423C53.7627 162.423 54.5146 162.047 54.8906 161.671V136.48H53.0107V136.856Z" fill="#FF9D27"/>
                        <path d="M39.8544 117.306C21.8076 117.306 7.14453 125.953 7.14453 136.856C7.14453 147.76 21.8076 156.407 39.8544 156.407C57.9012 156.407 72.5642 147.76 72.5642 136.856C72.5642 125.953 57.9012 117.306 39.8544 117.306Z" fill="#FFE375"/>
                        <path d="M39.8524 121.064C54.8914 121.064 67.2986 128.208 68.4265 137.231C68.4265 136.855 68.4265 136.479 68.4265 136.103C68.4265 126.704 55.6434 118.809 39.8524 118.809C24.0615 118.809 11.2783 126.328 11.2783 136.103C11.2783 136.479 11.2783 136.855 11.2783 137.231C12.0303 128.208 24.4374 121.064 39.8524 121.064Z" fill="#FF9D27"/>
                        <path opacity="0.5" d="M39.8524 153.398C54.8914 153.398 67.2986 146.255 68.4265 137.231C67.6746 128.208 55.2674 121.064 39.8524 121.064C24.8134 121.064 12.4062 128.208 11.2783 137.231C12.0303 146.255 24.4374 153.398 39.8524 153.398Z" fill="#FF9D27"/>
                        <path d="M58.2799 146.632C57.152 145.504 56.024 144.376 54.8961 143.248C56.024 141.368 56.4 139.488 55.6481 137.232C54.1442 133.473 49.2565 133.097 45.8727 133.473C43.9928 133.473 42.4889 134.225 40.985 134.601C37.6013 132.721 34.2175 130.465 30.8337 128.585C33.0896 127.457 36.0974 127.457 37.9772 127.457C38.3532 127.457 38.7292 126.705 37.9772 126.705C35.3454 125.953 31.5857 125.953 28.5779 127.833C27.074 127.081 25.5701 126.705 24.0662 126.705C23.6902 126.705 23.6902 127.081 24.0662 127.081C25.1941 127.833 26.322 128.209 27.074 128.961C24.0662 131.217 22.9382 134.977 27.074 137.984C31.2097 140.616 36.0974 138.736 40.2331 137.608C40.6091 137.608 40.985 137.232 41.361 137.232C44.7448 139.112 48.1286 141.744 51.5123 144C50.0084 145.128 47.3766 145.88 45.8727 146.256C43.2409 146.632 40.985 146.632 37.9772 146.256C37.6013 146.256 36.8493 146.632 37.6013 147.008C40.6091 150.016 48.1286 149.264 52.6403 146.256C53.0162 145.88 53.3922 145.88 53.7682 145.504C55.2721 146.256 56.4 147.008 57.9039 147.76C57.9039 147.76 58.6559 147.008 58.2799 146.632ZM30.4577 136.481C26.698 135.729 25.5701 132.721 28.2019 130.089L28.5779 129.713C31.9616 131.593 34.9694 133.473 38.3532 135.353C37.9772 135.353 37.2253 135.729 36.8493 135.729C36.0974 136.105 31.9616 136.856 30.4577 136.481ZM46.6247 135.729C49.2565 135.729 54.8961 135.729 53.0162 141.744C50.0084 139.488 47.0006 137.984 43.9928 136.105C44.7448 136.105 45.4967 135.729 46.6247 135.729Z" fill="#FF9D27"/>
                        <path d="M16.9198 141.743C16.5438 140.991 15.7919 139.863 15.4159 139.111C15.0399 138.359 15.4159 137.231 15.0399 136.103C15.0399 135.727 14.6639 135.727 14.288 136.103C13.536 136.855 13.536 138.359 13.912 139.487C14.288 140.615 15.0399 141.743 16.1678 142.495C16.5438 142.495 16.9198 142.119 16.9198 141.743Z" fill="#FF9D27"/>
                        <path d="M63.9199 131.592H63.5439C63.5439 132.72 63.9199 133.848 63.5439 134.976C63.5439 136.104 62.792 136.855 62.792 137.607C62.792 137.983 63.168 137.983 63.5439 137.983C65.4238 137.607 65.4238 133.096 63.9199 131.592Z" fill="#FF9D27"/>
                        <path d="M57.9041 130.089C57.5281 130.089 57.5281 130.465 57.9041 130.089C58.28 131.217 59.032 131.593 59.7839 132.345C60.5359 133.097 60.9119 133.473 61.6638 133.849C62.0398 133.849 62.0398 133.849 62.0398 133.473C62.0398 131.593 59.408 130.089 57.9041 130.089Z" fill="#FF9D27"/>
                        <path d="M53.7598 122.568V150.015C55.2637 150.015 56.3916 149.639 57.8955 149.639V122.568H53.7598Z" fill="#FFB83B"/>
                        <path d="M48.1201 122.568V150.015C48.8721 150.015 49.624 150.015 50.376 150.015C50.7519 150.015 51.1279 150.015 51.5039 150.015V122.568H48.1201Z" fill="#FFB83B"/>
                        <path d="M17.668 122.568V130.464C17.668 133.096 18.4199 135.727 19.9238 137.983V122.944H17.668V122.568Z" fill="#FFB83B"/>
                        <path d="M59.7744 122.568V149.263C61.2783 148.887 62.4062 148.887 63.9101 148.511V122.944H59.7744V122.568Z" fill="#FFB83B"/>
                        <path d="M65.7959 122.568V147.759C66.9238 147.383 67.6758 147.007 68.8037 146.631V122.568H65.7959Z" fill="#FFB83B"/>
                        <path d="M27.0674 122.568V143.999C27.8193 144.375 28.9473 145.127 30.0752 145.503V122.192H27.0674V122.568Z" fill="#FFB83B"/>
                        <path d="M42.4805 122.568V149.263C43.6084 149.263 44.7363 149.639 45.8642 149.639V122.568H42.4805Z" fill="#FFB83B"/>
                        <path d="M32.332 122.568V146.631C33.46 147.007 34.2119 147.383 35.3398 147.759V122.568H32.332Z" fill="#FFB83B"/>
                        <path d="M37.2158 122.568V148.135C38.3437 148.511 39.4717 148.511 40.5996 148.887V122.568H37.2158Z" fill="#FFB83B"/>
                        <path d="M22.1768 122.568V140.239C22.9287 140.991 24.0566 142.119 25.1846 142.871V122.568H22.1768Z" fill="#FFB83B"/>
                        <path d="M83.0908 122.568H80.835V137.607C82.3389 135.352 83.0908 132.72 83.0908 130.088V122.568Z" fill="#FFB83B"/>
                        <path d="M75.9443 122.568V142.871C77.0723 142.119 78.2002 141.367 78.9521 140.239V122.568H75.9443Z" fill="#FFB83B"/>
                        <path d="M70.6787 122.568V145.879C71.8066 145.503 72.5586 144.751 73.6865 144.375V122.944H70.6787V122.568Z" fill="#FFB83B"/>
                        <path d="M20.2969 122.568V137.607C21.0488 138.359 21.4248 139.111 22.1768 140.239V122.568H20.2969Z" fill="#FF9D27"/>
                        <path d="M25.1875 122.568V142.871C25.9395 143.247 26.6914 143.623 27.0674 144.375V122.944H25.1875V122.568Z" fill="#FF9D27"/>
                        <path d="M30.0781 122.568V145.879C30.8301 146.255 31.582 146.631 31.958 146.631V122.568H30.0781Z" fill="#FF9D27"/>
                        <path d="M34.9609 122.568V147.759C35.7129 148.135 36.4648 148.135 36.8408 148.511V122.944H34.9609V122.568Z" fill="#FF9D27"/>
                        <path d="M40.6006 122.568V148.887C41.3525 148.887 42.1045 149.263 42.4805 149.263V122.568H40.6006Z" fill="#FF9D27"/>
                        <path d="M46.2402 122.568V149.639C46.9922 149.639 47.7441 149.639 48.1201 149.639V122.192H46.2402V122.568Z" fill="#FF9D27"/>
                        <path d="M51.5059 122.568V150.015C52.2578 150.015 53.0098 150.015 53.3857 150.015V122.568H51.5059Z" fill="#FF9D27"/>
                        <path d="M57.5195 122.568V149.639C58.2715 149.639 59.0234 149.263 59.3994 149.263V122.568H57.5195Z" fill="#FF9D27"/>
                        <path d="M78.5732 122.568V140.239C79.3252 139.487 80.0771 138.735 80.4531 137.607V122.568H78.5732Z" fill="#FF9D27"/>
                        <path d="M73.6895 122.568V143.999C74.4414 143.623 75.1934 143.247 75.5693 142.495V122.192H73.6895V122.568Z" fill="#FF9D27"/>
                        <path d="M68.7988 122.568V146.631C69.5508 146.255 70.3027 145.879 70.6787 145.879V122.568H68.7988Z" fill="#FF9D27"/>
                        <path d="M63.5342 122.568V148.135C64.2861 148.135 65.0381 147.759 65.4141 147.383V122.192H63.5342V122.568Z" fill="#FF9D27"/>
                        <path d="M50.3778 103.018C32.331 103.018 17.668 111.665 17.668 122.568C17.668 133.472 32.331 142.119 50.3778 142.119C68.4246 142.119 83.0876 133.472 83.0876 122.568C83.0876 111.665 68.4246 103.018 50.3778 103.018Z" fill="#FFE375"/>
                        <path d="M50.3768 106.777C65.4158 106.777 77.823 113.921 78.9509 122.944C78.9509 122.568 78.9509 122.192 78.9509 121.816C78.9509 112.417 66.1678 104.521 50.3768 104.521C34.5859 104.521 21.8027 112.041 21.8027 121.816C21.8027 122.192 21.8027 122.568 21.8027 122.944C22.9307 113.921 35.3378 106.777 50.3768 106.777Z" fill="#FF9D27"/>
                        <path opacity="0.5" d="M50.3759 139.111C65.4149 139.111 77.822 131.968 78.9499 122.944C78.198 113.921 65.7908 106.777 50.3759 106.777C34.9609 106.777 22.9297 113.921 21.8018 122.944C22.9297 131.968 35.3369 139.111 50.3759 139.111Z" fill="#FF9D27"/>
                        <path d="M27.4432 127.456C27.0673 126.704 26.3153 125.576 25.9393 124.824C25.5634 124.072 25.9393 122.944 25.5634 121.816C25.5634 121.44 25.1874 121.44 24.8114 121.816C24.0595 122.568 24.0595 124.072 24.4354 125.2C24.8114 126.328 25.5634 127.456 26.6913 128.208C27.0673 128.208 27.4432 127.832 27.4432 127.456Z" fill="#FF9D27"/>
                        <path d="M74.4434 117.304H74.0674C74.0674 118.432 74.4434 119.56 74.0674 120.687C74.0674 121.815 73.3154 122.567 73.3154 123.319C73.3154 123.695 73.6914 123.695 74.0674 123.695C75.9473 122.943 75.9473 118.808 74.4434 117.304Z" fill="#FF9D27"/>
                        <path d="M68.4248 115.801C68.8008 116.929 69.5527 117.305 70.3047 118.057C71.0566 118.809 71.4326 119.185 72.1846 119.561C72.5605 119.561 72.5605 119.561 72.5605 119.185C72.9365 117.305 70.3047 115.425 68.4248 115.801Z" fill="#FF9D27"/>
                        <path d="M35.7178 110.162V137.608C37.2217 137.608 38.3496 137.232 39.8535 137.232V110.162H35.7178Z" fill="#FFB83B"/>
                        <path d="M30.4521 110.162V137.608C31.2041 137.608 31.9561 137.608 32.708 137.608C33.084 137.608 33.46 137.608 33.8359 137.608V110.162H30.4521Z" fill="#FFB83B"/>
                        <path d="M0 110.162V118.058C0 120.689 0.751944 123.321 2.25584 125.577V110.538H0V110.162Z" fill="#FFB83B"/>
                        <path d="M41.7314 110.162V136.856C43.2353 136.48 44.3633 136.48 45.8672 136.104V110.538H41.7314V110.162Z" fill="#FFB83B"/>
                        <path d="M47.7461 110.162V135.352C48.874 134.976 49.626 134.6 50.7539 134.224V110.162H47.7461Z" fill="#FFB83B"/>
                        <path d="M9.39941 110.162V131.593C10.1514 131.969 11.2793 132.721 12.4072 133.097V109.786H9.39941V110.162Z" fill="#FFB83B"/>
                        <path d="M24.8125 110.162V136.856C25.9404 136.856 27.0684 137.232 28.1963 137.232V110.162H24.8125Z" fill="#FFB83B"/>
                        <path d="M14.29 110.162V134.224C15.418 134.6 16.1699 134.976 17.2978 135.352V110.162H14.29Z" fill="#FFB83B"/>
                        <path d="M19.1729 110.162V135.728C20.3008 136.104 21.4287 136.104 22.5566 136.48V110.162H19.1729Z" fill="#FFB83B"/>
                        <path d="M4.50879 110.162V127.833C5.26074 128.585 6.38866 129.713 7.51659 130.465V110.162H4.50879Z" fill="#FFB83B"/>
                        <path d="M65.4228 110.162H63.167V125.201C64.6709 122.945 65.4228 120.313 65.4228 117.682V110.162Z" fill="#FFB83B"/>
                        <path d="M57.9014 110.162V130.465C59.0293 129.713 60.1572 128.961 60.9092 127.833V110.162H57.9014Z" fill="#FFB83B"/>
                        <path d="M53.0107 110.162V133.473C54.1387 133.097 54.8906 132.345 56.0185 131.969V110.538H53.0107V110.162Z" fill="#FFB83B"/>
                        <path d="M2.25391 110.162V125.201C3.00586 125.953 3.38183 126.705 4.13378 127.833V110.162H2.25391Z" fill="#FF9D27"/>
                        <path d="M7.14453 110.162V130.465C7.89648 130.841 8.64843 131.217 9.02441 131.969V110.538H7.14453V110.162Z" fill="#FF9D27"/>
                        <path d="M12.4102 110.162V133.473C13.1621 133.849 13.9141 134.224 14.29 134.224V110.162H12.4102Z" fill="#FF9D27"/>
                        <path d="M17.293 110.162V135.352C18.0449 135.728 18.7969 135.728 19.1728 136.104V110.538H17.293V110.162Z" fill="#FF9D27"/>
                        <path d="M22.5586 110.162V136.48C23.3105 136.48 24.0625 136.856 24.4385 136.856V110.162H22.5586Z" fill="#FF9D27"/>
                        <path d="M28.1982 110.162V137.232C28.9502 137.232 29.7021 137.232 30.0781 137.232V109.786H28.1982V110.162Z" fill="#FF9D27"/>
                        <path d="M33.8379 110.162V137.608C34.5898 137.608 35.3418 137.608 35.7178 137.608V110.162H33.8379Z" fill="#FF9D27"/>
                        <path d="M39.8516 110.162V137.232C40.6035 137.232 41.3555 136.856 41.7314 136.856V110.162H39.8516Z" fill="#FF9D27"/>
                        <path d="M60.9053 110.162V127.833C61.6572 127.081 62.4092 126.329 62.7851 125.201V110.162H60.9053Z" fill="#FF9D27"/>
                        <path d="M56.0215 110.162V131.593C56.7734 131.217 57.5254 130.841 57.9014 130.089V109.786H56.0215V110.162Z" fill="#FF9D27"/>
                        <path d="M50.7568 110.162V134.224C51.5088 133.849 52.2607 133.473 52.6367 133.473V110.162H50.7568Z" fill="#FF9D27"/>
                        <path d="M45.8662 110.162V135.728C46.6182 135.728 47.3701 135.352 47.7461 134.976V109.786H45.8662V110.162Z" fill="#FF9D27"/>
                        <path d="M32.7098 90.2344C14.663 90.2344 0 98.8818 0 109.785C0 120.688 14.663 129.336 32.7098 129.336C50.7566 129.336 65.4196 120.688 65.4196 109.785C65.4196 99.2578 50.7566 90.2344 32.7098 90.2344Z" fill="#FFE375"/>
                        <path d="M32.7089 94.3701C47.7479 94.3701 60.155 101.514 61.283 110.537C61.283 110.161 61.283 109.785 61.283 109.409C61.283 100.01 48.4998 92.1143 32.7089 92.1143C16.9179 92.1143 4.13477 99.6338 4.13477 109.409C4.13477 109.785 4.13477 110.161 4.13477 110.537C4.88672 101.514 17.2939 94.3701 32.7089 94.3701Z" fill="#FF9D27"/>
                        <path opacity="0.5" d="M32.7079 126.704C47.7469 126.704 60.1541 119.56 61.282 110.537C60.53 101.514 48.1229 94.3701 32.7079 94.3701C17.6689 94.3701 5.26171 101.514 4.13379 110.537C4.88574 119.56 17.2929 126.704 32.7079 126.704Z" fill="#FF9D27"/>
                        <path d="M9.40124 114.673C9.02527 113.921 8.27331 112.793 7.89734 112.041C7.52136 111.289 7.89734 110.161 7.52137 109.033C7.52137 108.657 7.14539 108.657 6.76942 109.033C6.01747 109.785 6.01747 111.289 6.39345 112.417C6.76942 113.545 7.52137 114.673 8.64929 115.425C9.40124 115.8 9.77722 115.049 9.40124 114.673Z" fill="#FF9D27"/>
                        <path d="M56.3935 104.897H56.0176C56.0176 106.025 56.3935 107.153 56.0176 108.281C56.0176 109.409 55.2656 110.161 55.2656 110.913C55.2656 111.289 55.6416 111.289 56.0176 111.289C58.2734 110.537 58.2734 106.025 56.3935 104.897Z" fill="#FF9D27"/>
                        <path d="M50.7595 103.018C50.3835 103.018 50.3835 103.394 50.7595 103.018C51.1355 104.146 51.8874 104.521 52.6394 105.273C53.3913 106.025 53.7673 106.401 54.5193 106.777C54.8952 106.777 54.8952 106.777 54.8952 106.401C54.8952 104.897 52.2634 103.018 50.7595 103.018Z" fill="#FF9D27"/>
                    </svg>