                    <svg class="pub__market-item pub__market-item--img" width="694" height="577" viewBox="0 0 694 577"
                        fill="none"
                        xmlns="http://www.w3.org/2000/svg"
                        data-aos="fade-up"
                        data-aos-once="true"
                        data-aos-delay="50"
                        data-aos-duration="1500"
                        data-aos-easing="ease-in-out"
                    >
                        <path d="M358.062 271.374C358.062 271.374 358.588 274.535 359.641 277.697C360.694 280.859 359.641 285.601 359.641 285.601C359.641 285.601 359.115 287.709 355.955 288.236C352.796 288.763 350.69 288.236 350.69 288.236C350.69 288.236 348.057 291.924 344.371 294.559C340.685 297.194 332.26 299.301 330.154 298.775C326.468 298.248 324.362 295.613 324.889 293.505C325.415 291.924 329.628 286.655 332.787 284.547C334.893 282.966 340.159 278.224 341.738 276.643C344.371 274.008 345.951 270.847 345.951 270.847L358.062 271.374Z" fill="#704232"/>
                        <path d="M398.605 291.399C398.605 291.399 400.712 298.777 400.185 302.992C400.185 307.208 399.132 308.262 397.552 309.842C396.499 311.423 394.919 310.896 394.919 310.896C394.919 310.896 394.393 319.854 390.18 323.543C385.968 327.231 378.07 327.758 374.91 326.178C371.224 325.124 373.857 318.273 377.017 311.95C380.702 305.627 384.915 298.777 385.968 293.507C394.393 291.926 398.605 291.399 398.605 291.399Z" fill="#704232"/>
                        <path d="M335.946 232.909C333.84 219.208 330.68 220.262 331.207 207.616C331.207 201.292 333.313 187.065 338.052 157.556C340.158 142.275 343.844 139.64 349.11 130.155C349.636 129.102 364.907 137.006 372.278 140.694C372.805 141.221 379.124 157.556 376.491 170.203C375.438 174.945 363.327 208.67 357.535 214.993C362.8 227.639 367.539 239.759 363.327 274.01C359.641 278.753 349.636 279.28 343.318 275.591C342.791 268.214 337.526 241.867 335.946 232.909Z" fill="url(#paint0_linear)"/>
                        <path d="M362.794 169.676C353.843 159.137 355.949 150.706 360.161 138.059C360.161 137.532 396.494 132.263 397.02 133.317C410.711 157.556 407.025 196.55 397.02 220.262C399.126 230.274 403.865 275.064 403.339 291.399C396.494 296.141 385.436 299.303 381.224 291.399C377.538 268.74 372.799 247.663 374.378 228.166C372.272 220.789 363.847 186.538 362.794 169.676Z" fill="url(#paint1_linear)"/>
                        <path d="M294.871 98.5381C300.663 91.6879 316.987 83.2568 321.199 82.2029C321.199 82.2029 326.465 73.2449 328.571 68.5025C330.677 64.2869 332.257 53.7481 335.943 47.4248C340.155 40.0477 344.368 38.4669 350.686 36.3591C352.266 35.8322 354.372 35.8322 355.425 37.413C357.005 39.5207 357.005 43.2093 357.005 45.844C357.005 50.0596 357.005 54.2751 357.005 58.4906C357.005 63.76 349.107 75.8796 347.527 77.9874C345.947 80.6221 341.735 90.107 340.682 93.2687C340.155 94.8495 338.049 98.0112 331.73 100.646C329.624 101.7 309.615 111.712 299.084 113.819C299.084 110.658 295.924 103.281 294.871 98.5381Z" fill="#704232"/>
                        <path d="M355.947 42.6831C364.898 38.9945 375.429 43.7369 374.903 43.21C374.376 42.6831 387.014 50.0602 387.014 50.0602C395.965 53.2219 404.917 55.8566 410.182 67.9762C412.815 73.7726 403.337 86.4191 399.651 103.281C398.071 110.658 397.545 121.724 400.704 126.467C402.81 130.155 407.023 135.425 394.385 139.113C390.7 140.167 373.323 147.017 363.319 144.91C358.58 143.856 336.464 131.736 343.31 126.994C344.889 125.94 346.469 123.305 345.416 121.197C344.363 119.089 342.256 115.928 343.31 112.239C345.416 102.754 343.836 99.0657 342.256 92.2155C335.938 85.3653 341.73 75.3534 345.416 64.2876C348.049 56.9105 346.995 46.8986 355.947 42.6831Z" fill="white"/>
                        <path d="M358.056 41.102C358.056 41.102 358.056 40.5751 358.056 41.102C363.322 41.629 370.167 38.4673 374.379 35.3057C377.012 41.102 377.539 43.7367 381.225 49.5331C379.118 49.5331 375.433 54.8025 372.273 60.5988C370.694 63.2335 364.901 69.0299 361.216 67.976C355.423 65.8682 358.583 61.1258 358.056 54.8025C358.056 50.06 358.056 45.3175 358.056 41.102Z" fill="#FFB9A4"/>
                        <path d="M353.846 87.4714C354.899 82.2019 356.478 77.4595 357.532 74.2978C357.532 73.7709 355.952 67.4476 355.952 67.4476L361.744 65.3398L364.903 69.0284C364.903 69.0284 362.797 73.244 360.691 74.8248C360.691 80.6211 361.217 91.1599 361.217 100.645C361.217 115.926 361.217 126.992 361.217 126.992C361.217 126.992 357.532 132.261 353.846 134.369C351.213 129.627 350.16 123.83 350.16 123.83C350.16 123.83 352.266 96.4293 353.846 87.4714Z" fill="#E04E39"/>
                        <path d="M385.44 49.5312C385.44 49.5312 375.962 53.7468 372.277 56.9084C367.011 61.1239 364.378 62.7048 361.745 64.8125C361.745 64.2856 360.692 52.166 360.692 52.166L356.48 52.6929C356.48 52.6929 353.847 55.3276 352.794 60.0701C351.741 64.8125 353.321 70.6089 353.321 70.6089L360.692 66.3934L365.431 75.3513C365.431 75.3513 375.436 66.9203 379.648 61.6509C384.914 56.3815 385.44 49.5312 385.44 49.5312Z" fill="white"/>
                        <path d="M357.533 42.682C357.533 42.682 349.108 42.1551 344.895 51.64C340.683 61.1249 338.05 72.7176 337.524 87.472C337.524 98.0108 339.63 111.711 338.05 119.088C336.47 125.412 328.046 149.124 328.046 149.124C328.046 149.124 328.572 158.609 331.731 162.824C335.944 167.567 340.156 167.567 340.156 167.567C340.156 167.567 345.422 138.585 345.948 133.843C346.475 129.1 348.055 104.861 347.528 97.4839C347.002 90.1067 351.214 66.3944 352.794 61.1249C354.373 55.8555 364.378 44.7898 364.378 44.7898L357.533 42.682Z" fill="url(#paint2_linear)"/>
                        <path d="M359.11 50.5856C359.11 50.5856 356.477 54.2742 353.844 60.0705C351.738 65.8669 350.685 77.9865 350.158 84.8367C349.632 92.2139 348.052 99.0641 348.052 99.0641C348.052 99.0641 345.419 91.16 344.893 85.8906C344.366 80.6212 343.839 76.4057 343.839 76.4057L346.999 73.771L343.313 65.3399C343.313 65.3399 352.264 45.8431 355.95 44.2623C360.163 43.7354 359.11 50.5856 359.11 50.5856Z" fill="#704232"/>
                        <path d="M381.753 46.8965C381.753 46.8965 371.222 61.1239 368.062 80.6207C364.903 100.117 367.009 120.141 368.062 134.369C369.642 151.758 370.695 177.051 370.695 177.051C370.695 177.051 388.071 179.686 398.076 178.105C408.607 175.997 412.293 165.458 412.293 165.458C412.293 165.458 412.293 143.854 403.342 118.033C400.182 109.602 402.288 91.1595 405.974 80.0937C407.554 73.7705 404.395 61.1239 399.129 55.3275C395.443 51.639 386.492 50.0581 381.753 46.8965Z" fill="url(#paint3_linear)"/>
                        <path d="M378.065 44.2627C378.065 44.2627 384.384 44.7896 386.49 49.5321C385.437 52.1668 382.804 55.3285 381.751 61.1248C380.698 66.9211 381.225 73.7714 381.225 73.7714L374.379 76.933L378.065 83.7832L365.955 99.5915C365.955 99.5915 364.375 79.0408 369.114 64.2864C373.853 49.5321 378.065 44.2627 378.065 44.2627Z" fill="#704232"/>
                        <path d="M347.531 18.9711C352.27 13.1747 362.801 11.5939 369.646 15.8094C371.226 16.3364 372.806 16.8633 373.859 17.9172C378.071 21.6058 377.545 28.456 376.491 33.7254C374.385 41.6295 363.854 59.0185 353.85 52.1683C348.584 48.4797 344.898 40.0487 344.372 33.7254C342.792 28.9829 343.845 23.1866 347.531 18.9711Z" fill="#FFC9B6"/>
                        <path d="M340.683 7.90435C343.842 3.16189 352.794 -2.10752 358.059 1.05412C360.166 2.108 361.219 4.21577 361.219 6.32353C366.484 5.26965 376.489 8.95823 379.122 13.7007C383.334 21.6048 380.175 35.3053 376.489 39.5208C372.803 36.3591 367.011 28.982 365.431 22.6587C359.113 25.8203 350.688 25.8203 344.369 22.6587C339.103 18.9701 336.997 12.6468 340.683 7.90435Z" fill="#704232"/>
                        <path d="M367.011 30.0358C367.011 30.0358 370.17 24.7664 372.803 28.455C377.015 34.2514 370.697 36.8861 370.697 36.8861L367.011 30.0358Z" fill="#FFC9B6"/>
                        <path d="M382.806 133.842C384.386 129.627 390.704 121.723 394.917 116.98C393.337 108.549 391.231 95.9026 389.651 90.6332C387.019 81.1482 393.337 56.9089 399.129 55.3281C407.028 57.9628 411.767 60.0706 415.453 74.298C419.138 87.4715 416.506 110.657 414.926 123.83C414.399 126.465 417.559 126.992 405.975 140.693C398.603 149.651 391.758 151.758 391.758 151.758L380.7 142.273C380.7 141.746 379.12 142.8 382.806 133.842Z" fill="#704232"/>
                        <path d="M380.696 141.747C380.696 141.747 383.855 138.585 388.594 142.8C391.754 145.435 392.28 149.124 391.754 151.232C389.648 152.285 387.015 154.393 385.962 157.028C382.802 162.824 380.696 171.782 377.537 175.998C373.324 181.794 369.638 178.632 367.532 175.471C365.426 172.309 367.006 168.094 368.585 164.932C370.165 161.243 371.218 158.609 369.638 158.609C368.585 158.609 365.953 161.77 363.32 161.77C360.687 161.77 360.687 159.663 364.373 157.555C366.479 156.501 366.479 154.393 370.165 152.285C372.798 150.705 374.377 151.232 375.431 150.705C377.537 147.016 379.643 143.854 380.696 141.747Z" fill="#FFC9B6"/>
                        <path d="M72.6659 154.92L76.3517 152.812C142.698 76.406 270.651 99.5914 349.634 145.435L480.22 242.919L432.83 270.32L297.505 192.333C248.535 163.878 173.765 160.716 131.114 185.483L128.481 187.064C85.8298 211.83 91.6219 255.039 140.592 283.494L275.916 360.954L228.526 388.355L91.0953 308.787C13.1651 263.47 4.21368 194.441 72.6659 154.92Z" fill="#F17757"/>
                        <path d="M229.056 330.919V388.356L26.3318 221.843V161.771L229.056 330.919Z" fill="#E04E39"/>
                        <path d="M72.6659 97.484L76.3517 95.3763C144.277 55.8557 264.332 61.1251 343.315 106.442L480.22 186.01L432.83 213.411L297.505 135.424C248.535 106.969 173.764 103.807 131.114 128.574L128.481 130.154C85.8297 154.921 91.6219 198.13 140.592 226.584L275.916 304.045L228.526 331.446L91.0953 251.878C13.1651 206.561 4.21368 137.005 72.6659 97.484Z" fill="#F49678"/>
                        <path d="M275.913 304.046V360.955L229.05 388.356V330.92L275.913 304.046Z" fill="#EFE8EB"/>
                        <path d="M480.22 186.009V242.918L432.83 270.319V213.41L480.22 186.009Z" fill="#EFE8EB"/>
                        <path d="M480.22 186.01L428.617 155.975L381.227 183.376L432.83 213.411L480.22 186.01Z" fill="white"/>
                        <path d="M381.228 183.375L432.83 213.411V270.32L381.228 240.285V183.375Z" fill="#E0D1DB"/>
                        <path d="M275.913 304.044L224.311 274.009L176.921 301.41L229.05 331.445L275.913 304.044Z" fill="white"/>
                        <path d="M176.927 301.411L229.056 331.447V388.356L176.927 358.321V301.411Z" fill="#E0D1DB"/>
                        <g class="icon-ziczac">
                        <path d="M471.792 217.101L522.342 230.801L509.178 238.178L536.559 253.459L488.115 240.286L500.753 232.909L471.792 217.101Z" fill="#CFA580"/>
                        <path d="M471.788 210.776V217.1L500.749 232.908V226.058L471.788 210.776Z" fill="#CFA580"/>
                        <path d="M488.115 233.434V240.284L536.559 253.457V246.607L488.115 233.434Z" fill="#CFA580"/>
                        <path d="M522.345 223.95V230.8L509.181 238.178V231.327L522.345 223.95Z" fill="#CFA580"/>
                        <path d="M471.792 210.776L522.342 223.95L509.178 231.327L536.559 246.608L488.115 233.435L500.753 226.058L471.792 210.776Z" fill="#D8B89A"/>
                        <path d="M439.675 235.541L489.698 248.715L477.061 256.092L503.915 271.9L455.472 258.199L468.109 250.822L439.675 235.541Z" fill="#CFA580"/>
                        <path d="M439.672 228.691V235.542L468.105 250.823V244.5L439.672 228.691Z" fill="#CFA580"/>
                        <path d="M455.472 251.876V258.199L503.915 271.9V265.049L455.472 251.876Z" fill="#CFA580"/>
                        <path d="M489.701 241.865V248.715L477.064 256.093V249.242L489.701 241.865Z" fill="#CFA580"/>
                        <path d="M439.675 228.691L489.698 241.865L477.061 249.242L503.915 265.05L455.472 251.877L468.109 244.5L439.675 228.691Z" fill="#D8B89A"/>
                        </g>
                        <g class="icon-ziczac">
                        <path d="M268.02 335.135L318.043 348.308L305.405 355.685L332.26 371.494L283.817 358.32L296.454 350.943L268.02 335.135Z" fill="#CFA580"/>
                        <path d="M268.017 328.285V335.135L296.451 350.944V344.093L268.017 328.285Z" fill="#CFA580"/>
                        <path d="M283.817 351.47V358.32L332.26 371.493V364.643L283.817 351.47Z" fill="#CFA580"/>
                        <path d="M318.046 341.459V348.309L305.409 355.686V348.836L318.046 341.459Z" fill="#CFA580"/>
                        <path d="M268.02 328.285L318.043 341.459L305.405 348.836L332.26 364.644L283.817 351.471L296.454 344.093L268.02 328.285Z" fill="#D8B89A"/>
                        <path d="M235.367 353.577L285.916 366.751L273.279 374.128L300.133 389.409L251.69 376.236L264.327 368.858L235.367 353.577Z" fill="#CFA580"/>
                        <path d="M235.363 346.728V353.578L264.323 368.859V362.009L235.363 346.728Z" fill="#CFA580"/>
                        <path d="M251.69 369.385V376.235L300.133 389.409V383.085L251.69 369.385Z" fill="#CFA580"/>
                        <path d="M285.919 359.901V366.752L273.282 374.129V367.279L285.919 359.901Z" fill="#CFA580"/>
                        <path d="M235.367 346.728L285.916 359.901L273.279 367.278L300.133 383.086L251.69 369.386L264.327 362.009L235.367 346.728Z" fill="#D8B89A"/>
                        </g>
                        <path d="M19.4795 428.929C18.953 422.605 18.4264 415.228 16.8468 407.851C14.214 394.677 11.0547 375.181 20.0061 366.223C10.0016 340.929 13.6875 327.229 15.2672 319.325C0.523624 303.517 14.7406 287.182 21.5858 281.912C25.2717 286.655 47.9135 295.613 47.9135 296.14C50.5463 307.732 47.9135 319.852 44.7542 330.918C42.6479 337.768 40.5417 349.361 35.8028 368.857C37.909 378.342 35.2762 392.57 34.7497 403.108C34.2231 410.486 34.2231 418.917 33.17 426.821C31.0638 429.455 26.8513 432.09 19.4795 428.929Z" fill="url(#paint4_linear)"/>
                        <path d="M45.2815 427.874C50.5471 429.982 51.6002 431.562 50.5471 434.724C48.4409 439.466 43.7018 442.628 38.9628 443.155C32.1176 444.736 28.4317 452.64 21.06 445.263C18.9537 443.155 19.4803 439.993 20.0069 436.832C20.0069 434.724 19.4803 430.509 19.4803 428.401C26.8521 431.035 30.538 428.928 32.6442 426.293C32.1176 427.874 32.1176 429.982 31.5911 431.562C34.7504 431.562 42.1222 426.82 45.2815 427.874Z" fill="#FFB9A4"/>
                        <path d="M20.0109 436.308C20.0109 436.308 24.2234 437.888 26.8562 438.942C29.4889 439.996 36.3341 439.996 41.0731 435.254C44.759 431.565 38.9669 428.93 38.9669 428.93C38.9669 428.93 48.4449 423.134 54.7636 425.769C57.9229 426.823 57.9229 432.092 56.3433 435.254C54.7636 438.415 48.4449 442.631 45.2856 443.158C42.6528 443.685 35.8076 445.265 33.7013 446.319C29.4889 448.954 24.7499 452.116 20.0109 447.9C16.325 443.158 20.0109 436.308 20.0109 436.308Z" fill="#261822"/>
                        <g filter="url(#filter0_d)">
                        <path d="M44.233 444.21C43.7064 437.887 43.1799 430.51 41.6002 423.133C38.9674 409.959 35.8081 390.462 44.7595 381.504C34.755 356.211 33.7019 336.714 35.2815 328.81C17.9052 315.637 24.2239 297.194 31.5956 292.451C35.2815 297.194 60.0297 289.816 62.6624 297.194C67.4014 311.948 67.4015 317.217 66.3484 336.714C66.3484 344.091 65.2952 364.642 60.0297 383.612C62.1359 393.097 59.5031 407.324 58.9766 417.863C58.45 425.24 58.45 433.671 57.3969 441.575C55.2907 444.737 51.0782 446.845 44.233 444.21Z" fill="url(#paint5_linear)"/>
                        </g>
                        <path d="M70.0345 443.155C75.3 445.263 76.3531 446.844 75.3 450.005C73.1938 454.748 68.4548 457.909 63.7158 458.436C56.8706 460.017 53.1847 467.394 45.8129 459.49C43.7067 457.382 44.2332 454.748 44.7598 452.113C44.7598 450.005 44.2332 445.79 44.2332 443.682C51.605 446.317 55.2909 444.209 57.3971 441.574C56.8706 443.155 56.8706 445.263 56.344 446.844C58.9768 446.844 66.3486 442.101 70.0345 443.155Z" fill="#FFB9A4"/>
                        <path d="M44.756 451.588C44.756 451.588 48.9685 453.169 51.6013 454.222C54.2341 455.276 61.0793 455.276 65.8183 450.534C69.5041 446.845 63.7121 444.211 63.7121 444.211C63.7121 444.211 73.1901 438.414 79.5087 441.049C82.668 442.103 82.668 447.372 81.0884 450.534C79.5087 453.696 73.19 457.911 70.0307 458.438C66.8714 458.965 60.5527 460.546 58.4465 461.6C54.2341 464.234 49.495 467.396 44.756 463.181C40.5436 458.438 44.756 451.588 44.756 451.588Z" fill="#261822"/>
                        <path d="M15.2737 214.466C22.1188 212.358 30.0171 216.046 30.0171 222.37C33.703 228.693 30.0171 237.651 24.225 241.866C17.3799 246.609 7.37531 241.866 5.2691 234.489C3.16289 227.112 7.37536 217.1 15.2737 214.466Z" fill="#EFE8EB"/>
                        <path d="M15.799 225.53C15.799 225.003 16.3256 224.476 16.8521 224.476C24.7504 222.368 26.3301 218.153 27.9098 211.303C27.9098 210.249 29.4895 209.722 30.016 210.249C34.2285 212.883 38.4409 214.464 43.1799 216.045C38.9675 229.219 46.8658 231.853 50.0251 237.123C51.0782 238.177 42.1268 245.027 36.8612 244.5C32.6488 243.973 28.4364 242.392 25.277 240.284C21.5911 237.123 14.7459 230.799 15.799 225.53Z" fill="#FFC9B6"/>
                        <path d="M26.8504 196.021C27.3769 189.171 33.169 180.213 40.5408 180.74C48.4391 181.267 53.1781 192.86 54.2312 198.129C55.2843 207.087 54.2312 223.949 40.5408 218.68C28.9566 214.464 25.7973 206.033 26.8504 196.021Z" fill="#FFC9B6"/>
                        <path d="M15.2715 182.848C18.9574 175.471 26.8557 168.621 38.4399 173.89C45.8117 171.256 56.8694 175.471 58.9756 183.902C56.3428 190.753 52.1303 198.13 47.3913 195.495C47.9179 203.926 36.8603 215.519 29.4885 215.519C26.8557 209.722 21.0635 209.722 16.8511 201.818C14.7449 197.603 13.1653 187.064 15.2715 182.848Z" fill="#261822"/>
                        <path d="M47.3867 200.764C47.3867 200.764 41.5947 197.075 41.0681 202.345C40.015 208.141 45.8071 209.722 45.8071 209.722L47.3867 200.764Z" fill="#FFC9B6"/>
                        <path d="M17.9066 175.472C22.6456 173.364 25.8049 173.364 29.4908 175.999C33.7032 179.16 32.1236 191.807 25.2784 193.388C21.0659 194.441 15.2738 193.388 13.1676 189.172C10.5348 184.43 11.0615 178.633 17.9066 175.472Z" fill="#E04E39"/>
                        <path d="M11.5857 252.405C6.84666 237.124 9.47944 227.112 14.2184 222.37C15.7981 220.262 20.0106 216.046 24.7496 220.262C23.1699 227.112 35.2807 229.22 43.7056 229.22C50.0242 233.962 56.3429 237.651 60.0288 243.974C64.2412 250.824 65.8209 258.201 57.396 263.471C60.0288 271.375 60.0288 281.914 64.2412 301.938C56.3429 308.261 41.0728 308.788 31.5948 305.099C21.5902 300.884 13.6919 295.087 14.2184 290.345C16.3247 285.602 22.1168 281.387 22.1168 275.59C21.5902 267.686 13.6919 259.255 11.5857 252.405Z" fill="white"/>
                        <path d="M114.789 324.595C114.789 324.595 115.842 325.122 116.895 324.595C117.422 324.068 116.369 321.96 112.156 318.799C107.417 315.637 105.311 313.529 105.838 311.948C105.838 310.368 109.524 309.841 110.577 307.206C111.63 305.098 111.103 304.044 108.997 305.098C106.891 306.679 104.258 307.206 101.099 306.679C97.9394 306.679 95.8332 306.679 88.4614 299.302C83.1958 294.032 76.3506 287.709 72.1382 282.967C71.0851 278.224 66.8726 267.158 66.3461 263.997C65.8195 259.781 63.7133 255.039 61.6071 251.35C59.5008 247.135 44.2307 247.135 43.7042 256.62C43.7042 265.051 43.1776 265.051 47.39 271.901C54.2353 282.967 58.9743 286.655 62.1336 291.398C63.7133 293.506 67.3992 297.194 70.5585 300.356C76.8772 305.625 88.4614 310.368 91.0942 312.475C93.7269 315.11 97.4128 319.326 103.732 324.068C106.364 326.176 110.05 326.703 110.05 326.703C110.05 326.703 110.577 326.703 112.156 327.23C113.736 327.757 112.683 325.649 112.683 325.649C112.683 325.649 114.263 326.176 115.316 325.649C116.369 326.176 114.789 324.595 114.789 324.595Z" fill="#FFC9B6"/>
                        <path d="M57.3919 237.123C66.8699 241.866 68.9762 257.674 66.3434 266.105C67.9231 269.794 57.9185 278.225 48.9671 275.063C39.4891 274.009 33.1704 259.782 37.3829 247.662C40.5422 238.704 50.0202 233.435 57.3919 237.123Z" fill="#EFE8EB"/>
                        <path d="M66.3453 266.632L67.3984 270.847C67.3984 270.847 67.3984 274.009 61.6063 277.171C55.8142 279.805 50.5487 278.751 50.5487 278.751L48.969 275.59C48.969 275.59 55.2877 275.59 59.5001 273.482C64.2391 270.847 66.3453 266.632 66.3453 266.632Z" fill="white"/>
                        <path d="M24.7499 177.052C28.4358 181.794 26.8561 187.064 24.7499 191.279C23.6968 193.387 11.586 197.603 14.2188 206.034C15.7984 211.83 20.5375 220.261 20.0109 230.8C19.4843 241.339 8.95321 237.65 8.95321 237.65C8.95321 237.65 15.2719 234.488 11.586 228.692C7.9001 222.896 -2.10439 206.56 0.528379 191.279C3.68771 176.525 17.3781 168.621 24.7499 177.052Z" fill="#352322"/>
                        <g class="icon-anim-logo">
                        <path d="M640.818 339.878C647.663 343.566 672.937 357.794 683.469 365.171C685.048 366.225 683.995 367.805 682.415 367.278C671.884 362.009 646.61 346.201 640.291 341.458C638.711 340.931 639.764 339.351 640.818 339.878Z" fill="#EEE2D6"/>
                        <path d="M648.719 425.768C662.936 431.565 676.627 438.415 689.791 446.319C690.317 446.846 689.791 447.373 689.264 447.373C675.047 442.104 660.83 435.253 647.666 427.876C646.613 427.349 647.666 425.241 648.719 425.768Z" fill="#EEE2D6"/>
                        <path d="M538.143 462.654C552.36 468.451 566.051 475.301 579.215 483.205C579.741 483.732 579.215 484.259 578.688 484.259C564.471 478.989 550.254 472.139 537.09 464.762C536.037 464.235 536.564 462.127 538.143 462.654Z" fill="#EEE2D6"/>
                        <path d="M654.508 416.811C666.092 421.027 677.677 427.35 688.208 433.146C688.734 433.146 688.208 434.2 687.681 433.673C676.097 429.458 664.513 424.715 653.455 418.392C652.928 417.865 653.455 416.284 654.508 416.811Z" fill="#EEE2D6"/>
                        <path d="M555.512 538.535C567.096 542.75 578.68 549.074 589.212 554.87C589.738 554.87 589.212 555.924 588.685 555.397C577.101 551.181 565.517 546.439 554.459 540.116C553.932 539.589 554.459 538.008 555.512 538.535Z" fill="#EEE2D6"/>
                        <path d="M555.512 529.048C567.096 533.264 578.68 539.587 589.212 545.384C589.738 545.384 589.212 546.437 588.685 545.91C577.101 541.695 565.517 536.953 554.459 530.629C553.932 530.102 554.459 528.521 555.512 529.048Z" fill="#EEE2D6"/>
                        <path d="M455.467 400.475C467.051 404.691 478.636 411.014 489.167 416.81C489.693 416.81 489.167 417.864 488.64 417.337C477.056 413.122 465.472 408.379 454.414 402.056C453.887 401.529 454.414 399.948 455.467 400.475Z" fill="#EEE2D6"/>
                        <path d="M452.309 408.907C463.893 413.122 475.477 419.446 486.008 425.242C486.535 425.242 486.008 426.296 485.482 425.769C473.898 421.553 462.313 416.811 451.256 410.488C450.729 409.961 451.256 408.38 452.309 408.907Z" fill="#EEE2D6"/>
                        <path d="M546.565 457.912C558.149 462.127 569.733 468.451 580.264 474.247C580.791 474.247 580.264 475.301 579.738 474.774C568.154 470.558 556.569 465.816 545.512 459.493C544.985 458.966 545.512 457.385 546.565 457.912Z" fill="#EEE2D6"/>
                        <path d="M414.402 491.109C428.092 499.014 442.836 506.918 455.473 516.403C456 516.93 455.473 517.456 454.947 517.456C440.73 510.606 427.039 501.121 413.875 492.163C413.349 491.636 413.875 490.582 414.402 491.109Z" fill="#EEE2D6"/>
                        <path d="M530.238 350.943C544.982 357.267 560.252 364.117 573.416 372.021C573.942 372.548 573.416 373.075 572.889 373.075C558.146 367.279 543.402 359.374 529.712 351.997C529.185 351.47 529.712 350.943 530.238 350.943Z" fill="#EEE2D6"/>
                        <path d="M421.773 480.57C435.99 487.421 450.207 495.325 463.897 503.756C464.424 504.283 463.897 505.337 463.371 504.81C449.154 497.959 434.937 490.055 421.246 481.624C420.72 481.097 421.246 480.57 421.773 480.57Z" fill="#EEE2D6"/>
                        <path d="M522.867 361.482C537.084 368.332 551.301 376.236 564.992 384.667C565.518 385.194 564.992 386.248 564.465 385.721C550.248 378.871 536.031 370.966 522.341 362.535C521.814 362.008 522.341 360.955 522.867 361.482Z" fill="#EEE2D6"/>
                        <path d="M651.349 333.027C665.566 339.878 679.783 347.782 693.473 356.213C694 356.74 693.473 357.794 692.947 357.267C678.73 350.416 664.513 342.512 650.822 334.081C650.822 333.554 650.822 333.027 651.349 333.027Z" fill="#EEE2D6"/>
                        <path d="M366.82 404.701C361.177 405.439 359.588 403.028 359.588 400.447C359.588 398.462 360.553 396.647 362.368 395.598C363.389 395.002 365.204 394.974 366.848 396.619V390.181C365.374 389.33 363.587 389.075 361.262 390.408C357.518 392.507 354.625 397.696 354.484 402.149C354.313 408.927 358.369 412.245 366.792 410.572L366.82 404.701Z" fill="#ED5338"/>
                        <path d="M366.819 402.404C371.073 398.718 374.051 394.492 374.051 391.741C374.051 390.21 373.314 389.217 371.499 390.266C370.478 390.862 368.351 393.102 366.819 396.562V390.125C368.294 387.572 370.081 385.247 372.406 383.914C376.121 381.759 379.127 383.545 379.127 387.913C379.127 393.67 375.582 400.306 366.791 408.076L366.819 402.404Z" fill="#C59368"/>
                        <path d="M559.342 264.701C553.698 265.439 552.11 263.028 552.11 260.447C552.11 258.462 553.074 256.647 554.889 255.598C555.91 255.002 557.725 254.974 559.37 256.619V250.181C557.895 249.33 556.109 249.075 553.783 250.408C550.04 252.507 547.147 257.696 547.005 262.149C546.835 268.927 550.89 272.245 559.313 270.572L559.342 264.701Z" fill="#ED5338"/>
                        <path d="M559.341 262.404C563.595 258.718 566.573 254.492 566.573 251.741C566.573 250.21 565.835 249.217 564.02 250.266C562.999 250.862 560.872 253.102 559.341 256.562V250.125C560.816 247.572 562.602 245.247 564.928 243.914C568.643 241.759 571.649 243.545 571.649 247.913C571.649 253.67 568.104 260.306 559.312 268.076L559.341 262.404Z" fill="#C59368"/>
                        <path d="M439.585 411.021C432.974 411.884 431.114 409.061 431.114 406.038C431.114 403.713 432.244 401.587 434.37 400.358C435.565 399.66 437.691 399.627 439.618 401.553V394.013C437.891 393.016 435.798 392.717 433.074 394.279C428.689 396.737 425.301 402.816 425.135 408.031C424.936 415.97 429.686 419.857 439.552 417.897L439.585 411.021Z" fill="#ED5338"/>
                        <path d="M439.586 408.33C444.569 404.012 448.057 399.062 448.057 395.84C448.057 394.046 447.193 392.884 445.067 394.113C443.871 394.81 441.38 397.435 439.586 401.487V393.947C441.313 390.957 443.406 388.233 446.13 386.672C450.482 384.147 454.003 386.24 454.003 391.356C454.003 398.099 449.85 405.872 439.553 414.974L439.586 408.33Z" fill="#C59368"/>
                        <path d="M630.739 427.535C617.597 429.252 613.899 423.639 613.899 417.629C613.899 413.007 616.145 408.78 620.371 406.337C622.749 404.95 626.975 404.884 630.805 408.714V393.723C627.371 391.742 623.211 391.147 617.796 394.251C609.078 399.138 602.342 411.224 602.012 421.592C601.616 437.375 611.059 445.102 630.673 441.206L630.739 427.535Z" fill="#ED5338"/>
                        <path d="M630.742 422.186C640.648 413.601 647.582 403.761 647.582 397.355C647.582 393.789 645.865 391.477 641.638 393.921C639.261 395.308 634.308 400.525 630.742 408.582V393.591C634.176 387.647 638.336 382.232 643.752 379.128C652.403 374.109 659.403 378.269 659.403 388.44C659.403 401.846 651.148 417.299 630.676 435.394L630.742 422.186Z" fill="#C59368"/>
                        <path d="M396.739 488.535C383.597 490.252 379.899 484.639 379.899 478.629C379.899 474.007 382.145 469.78 386.371 467.337C388.749 465.95 392.975 465.884 396.805 469.714V454.723C393.371 452.742 389.211 452.147 383.796 455.251C375.078 460.138 368.342 472.224 368.012 482.592C367.616 498.375 377.059 506.102 396.673 502.206L396.739 488.535Z" fill="#ED5338"/>
                        <path d="M396.742 483.186C406.648 474.601 413.582 464.761 413.582 458.355C413.582 454.789 411.865 452.477 407.638 454.921C405.261 456.308 400.308 461.525 396.742 469.582V454.591C400.176 448.647 404.336 443.232 409.752 440.128C418.403 435.109 425.403 439.269 425.403 449.44C425.403 462.846 417.148 478.299 396.676 496.394L396.742 483.186Z" fill="#C59368"/>
                        <path d="M514.045 503.316C515.75 502.317 517.043 500.083 517.043 498.144C517.043 496.204 515.691 495.44 514.045 496.439C512.341 497.379 511.047 499.672 511.047 501.611C511.047 503.551 512.341 504.256 514.045 503.316ZM534.146 520.184L527.916 496.968L510.225 507.195V519.362L519.923 513.778L523.038 525.357C523.155 525.827 523.096 526.356 522.803 527.002C522.509 527.59 522.097 528.119 521.627 528.354L510.283 534.937V547.162L525.506 538.405C528.327 536.759 530.972 533.762 532.618 530.235C534.323 526.532 534.91 522.888 534.146 520.184Z" fill="#C59368"/>
                        <path d="M506.462 507.665C508.167 506.666 509.46 504.433 509.46 502.493C509.46 500.554 508.108 499.789 506.462 500.789C504.758 501.788 503.465 504.021 503.465 505.961C503.465 507.901 504.817 508.606 506.462 507.665ZM501.819 524.24L510.283 519.362V507.254L493.767 516.776L486.302 553.04C485.597 556.567 486.126 559.564 487.889 561.151C489.594 562.738 492.239 562.679 495.001 561.092L510.224 552.335V540.168L498.939 546.692C498.469 546.927 497.999 546.986 497.764 546.692C497.47 546.457 497.411 545.928 497.528 545.341L501.819 524.24Z" fill="#ED5338"/>
                        <path d="M505.045 308.316C506.75 307.317 508.043 305.083 508.043 303.144C508.043 301.204 506.691 300.44 505.045 301.439C503.341 302.379 502.047 304.672 502.047 306.611C502.047 308.551 503.341 309.256 505.045 308.316ZM525.146 325.184L518.916 301.968L501.225 312.195V324.362L510.923 318.778L514.038 330.357C514.155 330.827 514.096 331.356 513.803 332.002C513.509 332.59 513.097 333.119 512.627 333.354L501.283 339.937V352.162L516.506 343.405C519.327 341.759 521.972 338.762 523.618 335.235C525.323 331.532 525.91 327.888 525.146 325.184Z" fill="#C59368"/>
                        <path d="M497.462 312.665C499.167 311.666 500.46 309.433 500.46 307.493C500.46 305.554 499.108 304.789 497.462 305.789C495.758 306.788 494.465 309.021 494.465 310.961C494.465 312.901 495.817 313.606 497.462 312.665ZM492.819 329.24L501.283 324.362V312.254L484.767 321.776L477.302 358.04C476.597 361.567 477.126 364.564 478.889 366.151C480.594 367.738 483.239 367.679 486.001 366.092L501.224 357.335V345.168L489.939 351.692C489.469 351.927 488.999 351.986 488.764 351.692C488.47 351.457 488.411 350.928 488.528 350.341L492.819 329.24Z" fill="#ED5338"/>
                        <path d="M546.518 411C543.071 416.313 537.192 421.626 532.727 423.152C526.623 425.244 523.797 419.817 523.288 418.631V435.304C525.718 437.678 530.353 436.604 534.875 433.496L533.236 443.896L523.231 449.661V461.418L542.11 450.452C542.11 450.509 546.575 410.944 546.518 411Z" fill="#C59368"/>
                        <path d="M511.417 447.005C516.052 444.857 520.744 440.618 523.287 435.248V418.574C522.778 420.326 519.952 429.031 513.848 434.005C509.383 437.622 503.448 439.205 500 437.792L504.352 477.3L523.23 466.448V454.692L513.057 460.57L511.417 447.005Z" fill="#ED5338"/>
                        <path d="M667.565 238C660.997 248.121 649.799 258.243 641.293 261.15C629.664 265.134 624.281 254.797 623.312 252.536V284.299C627.942 288.822 636.771 286.776 645.385 280.854L642.262 300.666L623.204 311.648V334.044L659.167 313.156C659.167 313.263 667.673 237.892 667.565 238Z" fill="#C59368"/>
                        <path d="M600.701 306.588C609.53 302.496 618.467 294.421 623.312 284.192V252.429C622.343 255.767 616.96 272.348 605.331 281.823C596.825 288.714 585.519 291.729 578.951 289.037L587.242 364.301L623.205 343.627V321.231L603.824 332.429L600.701 306.588Z" fill="#ED5338"/>
                        </g>
                        <defs>
                        <filter id="filter0_d" x="20.1318" y="292.451" width="50.7828" height="160.952" filterUnits="userSpaceOnUse" color-interpolation-filters="sRGB">
                        <feFlood flood-opacity="0" result="BackgroundImageFix"/>
                        <feColorMatrix in="SourceAlpha" type="matrix" values="0 0 0 0 0 0 0 0 0 0 0 0 0 0 0 0 0 0 127 0"/>
                        <feOffset dy="4"/>
                        <feGaussianBlur stdDeviation="2"/>
                        <feColorMatrix type="matrix" values="0 0 0 0 0 0 0 0 0 0 0 0 0 0 0 0 0 0 0.09 0"/>
                        <feBlend mode="normal" in2="BackgroundImageFix" result="effect1_dropShadow"/>
                        <feBlend mode="normal" in="SourceGraphic" in2="effect1_dropShadow" result="shape"/>
                        </filter>
                        <linearGradient id="paint0_linear" x1="341.662" y1="268.352" x2="346.918" y2="126.647" gradientUnits="userSpaceOnUse">
                        <stop offset="0.00505051" stop-color="#C39367"/>
                        <stop offset="1" stop-color="#704232"/>
                        </linearGradient>
                        <linearGradient id="paint1_linear" x1="367.838" y1="285.569" x2="373.776" y2="129.429" gradientUnits="userSpaceOnUse">
                        <stop offset="0.00505051" stop-color="#C39367"/>
                        <stop offset="1" stop-color="#704232"/>
                        </linearGradient>
                        <linearGradient id="paint2_linear" x1="336.352" y1="159.413" x2="341.091" y2="39.8197" gradientUnits="userSpaceOnUse">
                        <stop offset="0.00505051" stop-color="#C39367"/>
                        <stop offset="1" stop-color="#704232"/>
                        </linearGradient>
                        <linearGradient id="paint3_linear" x1="376.888" y1="170.011" x2="381.062" y2="43.8234" gradientUnits="userSpaceOnUse">
                        <stop offset="0.00505051" stop-color="#C39367"/>
                        <stop offset="1" stop-color="#704232"/>
                        </linearGradient>
                        <linearGradient id="paint4_linear" x1="97.1145" y1="254.676" x2="74.8828" y2="429.995" gradientUnits="userSpaceOnUse">
                        <stop offset="0.015625" stop-color="#EEE2D6"/>
                        <stop offset="1" stop-color="#F17757"/>
                        </linearGradient>
                        <linearGradient id="paint5_linear" x1="118.166" y1="264.391" x2="95.9865" y2="445.197" gradientUnits="userSpaceOnUse">
                        <stop offset="0.015625" stop-color="#EEE2D6"/>
                        <stop offset="1" stop-color="#F17757"/>
                        </linearGradient>
                        </defs>
                    </svg>