                <svg class="market__list-icon--folder" width="169" height="362" viewBox="0 0 169 362" fill="none" xmlns="http://www.w3.org/2000/svg">
                    <path d="M136.327 265.802V186.942C136.327 180.957 140.192 177.788 144.759 180.605L145.462 180.957V92.9426L3.16406 10.5615V277.772L145.813 360.153L146.165 282.349L144.759 281.645C140.192 279.18 136.327 271.787 136.327 265.802Z" fill="#C39367"/>
                    <path d="M133.163 267.563V189.054C133.163 183.069 137.028 179.901 141.595 182.717L142.298 183.069V94.7034L0 12.3223V279.533L142.649 361.914V284.109L141.947 283.757C137.028 280.941 133.163 273.9 133.163 267.563Z" fill="#CFA580"/>
                    <path d="M142.649 94.7037V183.07C144.406 182.014 146.866 180.605 148.271 179.901C150.028 178.845 150.379 185.534 148.271 185.886C146.514 186.238 148.271 281.293 146.514 282.35C145.109 283.406 145.109 283.054 143.352 283.758C143.352 283.758 143.001 284.462 143.001 284.11V361.914L153.541 355.929V88.7188L142.649 94.7037Z" fill="#C39367"/>
                    <path d="M153.19 88.717L142.649 94.702L0 12.3209L10.5406 6.33594L153.19 88.717Z" fill="#D8B89A"/>
                    <path d="M162.68 287.982L165.842 286.222L164.085 283.758L160.923 285.518L162.68 287.982Z" fill="#C39367"/>
                    <path d="M160.917 186.59L150.025 180.253V279.533L160.917 285.87C165.134 288.334 168.296 285.87 168.296 280.237V200.672C168.296 195.391 164.782 188.702 160.917 186.59Z" fill="#C39367"/>
                    <path d="M158.11 187.998L147.218 181.661V280.941L158.11 287.278C162.326 289.742 165.488 287.278 165.488 281.645V202.432C165.488 196.8 161.975 190.463 158.11 187.998Z" fill="#CFA580"/>
                    <path d="M150.026 82.3811L7.37695 0V13.0261L146.161 93.2948V347.479L150.026 349.592V82.3811Z" fill="#EEE2D6"/>
                    <g clip-path="url(#clip0)">
                    <path d="M108.171 310.131V302.648L110.319 303.896V307.41C110.319 307.694 110.263 307.921 110.263 307.921L110.376 307.977L112.75 305.313L114.616 306.39V313.873L112.693 312.739V309.224C112.693 308.998 112.75 308.771 112.75 308.771L112.637 308.714L110.263 311.379L108.171 310.131Z" fill="#623B2A"/>
                    <path d="M103.649 305.426C104.44 305.88 104.949 305.483 104.949 304.576C104.949 303.669 104.44 302.649 103.649 302.195C102.857 301.742 102.349 302.138 102.349 303.046C102.349 303.953 102.857 304.973 103.649 305.426ZM103.649 299.871C105.741 301.061 107.267 303.669 107.267 305.937C107.267 308.204 105.741 308.998 103.649 307.807C101.614 306.617 100.087 304.066 100.087 301.798C100.031 299.474 101.614 298.68 103.649 299.871Z" fill="#623B2A"/>
                    <path d="M60.6281 290.46C61.9283 291.197 62.8329 290.63 62.8329 289.156C62.8329 287.682 61.9283 286.038 60.6281 285.301C59.3279 284.564 58.4799 285.131 58.4799 286.662C58.4234 288.079 59.3279 289.723 60.6281 290.46ZM60.6281 283.941C62.6633 285.131 64.0766 287.625 64.0766 289.893C64.0766 292.161 62.6633 293.011 60.6281 291.82C58.593 290.63 57.1797 288.136 57.1797 285.868C57.1797 283.657 58.593 282.75 60.6281 283.941Z" fill="#623B2A"/>
                    <path d="M89.7985 302.082C90.9856 302.762 91.551 304.009 91.664 305.2L87.9329 303.045C88.1025 301.968 88.8374 301.515 89.7985 302.082ZM92.8512 307.07C92.8512 306.9 92.8512 306.787 92.8512 306.617C92.8512 304.349 91.8336 302.082 89.6854 300.835C87.8764 299.757 86.5762 300.721 86.5762 302.989C86.5762 303.159 86.5762 303.329 86.5762 303.442C86.7458 305.483 87.8764 307.581 90.1377 308.884C91.2118 309.508 92.1728 309.678 92.8512 309.451L92.3424 308.091C91.8336 308.261 91.0987 308.204 90.1942 307.694C88.7809 306.9 88.1025 305.596 87.9895 304.236L92.8512 307.07Z" fill="#623B2A"/>
                    <path d="M98.5045 306.107V309.168L95.0561 307.184V304.123L93.7559 303.386V310.869L95.0561 311.606V308.318L98.5045 310.302V313.59L99.8048 314.327V306.844L98.5045 306.107Z" fill="#623B2A"/>
                    <path d="M106.588 310.755L100.709 307.354V308.657L103.027 309.961V316.14L104.327 316.877V310.755L106.645 312.115V310.755H106.588Z" fill="#623B2A"/>
                    <path d="M114.785 315.517L113.484 314.78V322.263L114.785 323V315.517Z" fill="#623B2A"/>
                    <path d="M67.8071 291.877V291.821C67.8071 291.821 67.9201 291.821 68.0332 291.764C68.1462 291.707 70.5206 289.893 70.5206 289.893L69.0508 289.043L66.7895 290.8L66.2807 290.517V287.456L64.9805 286.719V294.202L66.2807 294.939V291.651L66.846 291.991L69.2769 296.696L70.8598 297.603C70.8598 297.603 68.0897 292.444 67.9766 292.218C67.9201 291.991 67.8071 291.877 67.8071 291.877Z" fill="#623B2A"/>
                    <path d="M109.528 318.805C109.132 318.579 108.737 318.352 108.737 318.352V315.631C108.737 315.631 109.019 315.687 109.528 315.971C110.602 316.594 111.055 317.331 111.055 318.238C111.111 319.202 110.659 319.486 109.528 318.805ZM109.754 314.894C109.132 314.554 108.737 314.384 108.737 314.384V312.003L107.437 311.266V318.749C107.437 318.749 108.511 319.486 109.585 320.109C111.62 321.3 112.298 320.223 112.298 318.919C112.355 317.615 111.733 316.028 109.754 314.894Z" fill="#623B2A"/>
                    <path d="M53.2224 286.152C51.9221 285.415 51.2438 283.885 51.2438 282.467C51.2438 280.994 52.0352 280.313 53.2789 281.05C54.0138 281.447 54.9749 282.808 54.9749 284.168V286.209C54.5791 286.606 53.9573 286.606 53.2224 286.152ZM55.0314 280.937L54.9749 281.844L54.9183 281.787C54.5226 280.823 53.6746 279.916 53.0528 279.576C51.1872 278.443 50.0566 279.52 50.0001 281.73C49.9435 283.941 51.0742 286.266 52.9963 287.399C53.8442 287.91 54.4095 287.91 54.9183 287.513L54.9749 287.569V288.25C54.9749 289.724 54.1269 289.78 53.1093 289.213C52.2613 288.647 51.5264 287.853 51.1307 287.343L50.6785 288.306C51.0742 288.817 51.8656 289.78 53.1093 290.517C54.9183 291.538 56.2186 291.084 56.2186 288.703V281.617L55.0314 280.937Z" fill="#623B2A"/>
                    <path d="M76.0046 293.068V298.51C75.6089 298.85 75.0436 298.85 74.3087 298.397C73.1215 297.716 72.5562 296.299 72.6127 294.882V291.14L71.369 290.403V294.145C71.3125 296.356 72.1039 298.51 73.9695 299.587C74.8175 300.097 75.4393 300.154 75.8916 299.7L75.9481 299.757V300.437C75.9481 301.911 75.1001 301.968 74.0826 301.401C73.178 300.891 72.4997 300.097 72.0474 299.53L71.6517 300.494C72.0474 301.004 72.8389 301.968 74.0826 302.705C75.8916 303.725 77.1918 303.272 77.1918 300.891V293.805L76.0046 293.068Z" fill="#623B2A"/>
                    <path d="M84.4845 297.943C84.4845 297.943 82.3363 300.154 82.2798 300.268C82.2233 300.324 82.2233 300.438 82.2233 300.438H82.1667C82.1667 300.438 82.1667 300.324 82.0537 300.154C81.9972 299.984 79.6794 295.222 79.6794 295.222L78.4922 294.542V302.025L79.7924 302.762V297.943C79.7924 297.603 79.7359 297.376 79.7359 297.376L79.7924 297.433L82.1667 302.478L82.2233 302.535L84.428 300.098L84.4845 300.154C84.4845 300.154 84.428 300.324 84.428 300.608V305.37L85.7282 306.107V298.68L84.4845 297.943Z" fill="#623B2A"/>
                    <path d="M97.43 296.47C97.43 296.47 95.621 298.17 95.5644 298.227C95.5079 298.284 95.4514 298.34 95.4514 298.34L95.3383 298.284C95.3383 298.284 95.3383 298.17 95.2252 298.057C95.1122 297.774 93.1901 294.089 93.1901 294.089L91.4941 293.125V300.608L93.5858 301.798V298.624C93.5858 298.284 93.5293 298.057 93.5293 298.057L93.6423 298.114L95.3383 301.345L95.4514 301.402L97.0342 300.041L97.1473 300.098C97.1473 300.098 97.0908 300.268 97.0908 300.608V303.726L99.1824 304.916V297.433L97.43 296.47Z" fill="#623B2A"/>
                    <path d="M111.055 288.817V281.22L105.91 278.216V285.812C105.91 288.477 107.154 291.651 109.132 294.202L114.955 301.458V294.542L111.733 290.517C111.337 290.007 111.055 289.384 111.055 288.817Z" fill="#C79B65"/>
                    <path d="M114.955 298.453L120.778 297.943C122.756 297.773 124 296.016 124 293.351V278.272L114.955 273.057V279.066L118.856 281.333V290.404C118.856 290.914 118.63 291.311 118.234 291.311L115.012 291.594L114.955 298.453Z" fill="#E04E39"/>
                    <path d="M114.955 273L105.91 278.272L114.955 283.488V273Z" fill="#623B2A"/>
                    </g>
                    <defs>
                    <clipPath id="clip0">
                    <rect width="74" height="50" fill="white" transform="translate(50 273)"/>
                    </clipPath>
                    </defs>
                </svg>