<svg class="market__picture market__picture--apps" width="577" height="843" viewBox="0 0 577 843" fill="none" xmlns="http://www.w3.org/2000/svg">
                    <path d="M440.95 203.22L273.47 106.13C269.15 103.63 265.26 103.64 262.66 105.68L252.76 111.29L259.27 115.91V522.27C259.27 531.27 265.66 542.32 273.47 546.84L438.66 642.6L440.55 650.85L450.58 645.12C453.38 643.77 455.15 640.52 455.15 635.81V227.81C455.14 218.8 448.75 207.74 440.95 203.22Z" fill="#2C2A29"/>
                    <path d="M444.07 642.159C444.07 651.149 437.68 654.799 429.87 650.269L262.4 553.169C254.59 548.659 248.21 537.599 248.21 528.609V120.609C248.21 111.609 254.59 107.949 262.4 112.479L429.88 209.559C437.69 214.079 444.08 225.149 444.08 234.139V642.159H444.07Z" fill="url(#paint0_linear)"/>
                    <path d="M432.71 605.309L259.56 504.939V154.989L432.71 255.369V605.309Z" fill="#EEE2D6"/>
                    <path d="M432.69 285.329L259.56 184.959V154.989L432.69 255.349V285.329Z" fill="#E04E39"/>
                    <path d="M359.79 191.65C359.79 192.11 359.7 192.48 359.56 192.8C359.27 193.42 358.72 193.73 358.03 193.65C357.85 193.62 357.66 193.57 357.47 193.53C357.28 193.46 357.09 193.36 356.88 193.24L336.79 181.59C335.83 181.04 335.01 180.02 334.49 178.91C334.15 178.18 333.94 177.38 333.94 176.67C333.94 174.87 335.22 174.13 336.79 175.05L356.95 186.74C357.52 187.06 358.06 187.57 358.48 188.16C358.59 188.3 358.66 188.43 358.77 188.56C358.95 188.85 359.11 189.13 359.25 189.43C359.29 189.54 359.36 189.66 359.39 189.75C359.47 189.94 359.53 190.13 359.6 190.33C359.66 190.53 359.7 190.72 359.73 190.92C359.75 190.97 359.75 190.99 359.75 191.03C359.77 191.24 359.79 191.45 359.79 191.65Z" fill="#5B2E2E"/>
                    <path d="M359.66 192.43C359.65 192.55 359.62 192.67 359.58 192.79C359.26 193.41 358.72 193.72 358.01 193.64C357.85 193.59 357.66 193.54 357.47 193.5C357.28 193.43 357.09 193.36 356.88 193.24L336.79 181.6C335.83 181.02 335.01 180 334.5 178.91C334.16 178.17 333.95 177.38 333.95 176.67C333.95 175.5 334.47 174.78 335.25 174.67C335.17 174.91 335.14 175.17 335.14 175.48C335.14 176.2 335.35 176.99 335.68 177.72C336.19 178.81 337.03 179.84 337.98 180.41L358.08 192.05C358.29 192.18 358.48 192.25 358.67 192.32C358.85 192.37 359.05 192.42 359.21 192.47C359.36 192.48 359.52 192.48 359.66 192.43Z" fill="#C4765F"/>
                    <path d="M346.98 585.789C343.1 583.549 339.96 578.089 339.95 573.599C339.95 569.139 343.1 567.329 346.98 569.589C350.86 571.839 354.02 577.289 354.02 581.759C354.02 586.229 350.86 588.039 346.98 585.789ZM346.98 571.389C343.97 569.639 341.52 571.049 341.52 574.519C341.52 577.989 343.97 582.239 346.98 583.999C350 585.739 352.45 584.349 352.45 580.869C352.45 577.399 350.01 573.139 346.98 571.389Z" fill="#201600"/>
                    <path d="M51.3214 647.026L123.202 608.683L107.841 564.377L30.5355 593.237C27.9463 608.154 30.4844 631.729 51.3214 647.026Z" fill="#F8A075"/>
                    <path d="M154.962 601.284C142.095 615.232 107.71 618.591 103.644 590.923C100.404 568.749 135.068 537.057 159.168 544.031C172.113 547.51 172.615 562.708 170.445 573.911C167.385 587.784 162.072 595.419 153.851 602.415L154.962 601.284Z" fill="#F8A075"/>
                    <path d="M154.23 572.38C154.23 572.38 138.419 586.654 155.208 587.572L154.23 572.38Z" fill="#EA8C68"/>
                    <path d="M156.073 585.183C156.073 585.183 137.091 595.007 150.788 600.126L156.073 585.183Z" fill="#EA8C68"/>
                    <path d="M161.597 558.02C161.597 558.02 144.127 570.965 155.748 578.329L161.597 558.02Z" fill="#EA8C68"/>
                    <path d="M132.863 587.177C126.035 588.553 117.503 577.461 115.743 570.214C113.636 562.293 124.627 555.656 129.42 551.147C134.909 545.579 141.782 541.9 150.392 544.598C162.886 548.512 149.928 562.199 147.056 567.754C142.678 576.208 141.795 585.392 132.863 587.177Z" fill="#EA8C68"/>
                    <path d="M150.778 597.446C150.778 597.446 133.108 601.146 144.873 608.964L150.778 597.446Z" fill="#EA8C68"/>
                    <path d="M153.846 574.068C153.791 574.97 153.856 575.845 154.022 576.651C156.061 585.319 163.711 579.42 170.58 573.073C172.339 571.444 174.017 569.826 175.578 568.398C177.155 566.902 178.572 565.621 179.71 564.833C180.409 564.313 181.072 563.8 181.634 563.247C181.996 562.927 182.311 562.589 182.605 562.253C189.162 554.979 186.18 544.747 174.049 542.587C170.512 542.099 166.987 542.647 163.451 542.675L159.35 544.06L151.364 546.797C152.389 550.338 153.858 548.981 153.875 553.007L160.014 559.365C156.773 563.754 154.044 569.493 153.846 574.068Z" fill="#F8A075"/>
                    <path d="M151.997 585.439C152.603 586 153.317 586.345 154.15 586.576C157.806 587.552 163.206 585.571 167.233 584.457C168.038 584.215 168.785 584.036 169.441 583.897C171.708 583.38 174.206 582.848 176.58 582.03C176.578 582.007 176.578 582.007 176.593 582.024C177.709 581.646 178.752 581.207 179.772 580.663C179.772 580.663 179.772 580.663 179.794 580.661C179.872 580.627 179.959 580.597 180.018 580.556C183.239 578.814 185.766 576.186 186.337 571.865C186.91 568.523 185.683 566.343 183.649 564.683C183.054 564.148 182.371 563.697 181.644 563.25C181.516 563.167 181.356 563.083 181.195 562.998C180.815 562.763 180.439 562.572 180.048 562.364L171.426 565.271L161.067 568.74C159.124 569.502 156.192 571.519 153.864 574.052C150.568 577.624 148.494 582.159 151.997 585.439Z" fill="#F8A075"/>
                    <path d="M157.004 567.078L244.735 520.151L205.02 495.312L117.285 542.248L157.004 567.078Z" fill="#7FCCAB"/>
                    <path d="M151.779 561.263C151.737 561.289 151.701 561.297 151.703 561.319L126.817 545.772C126.833 545.757 126.85 545.742 126.882 545.744C130.012 544.041 130.142 541.17 127.134 539.31L199.372 500.656C202.319 502.481 207.195 502.68 210.342 501.07L235.235 516.63C232.234 518.33 232.152 521.134 235.082 522.974L162.856 561.622C159.848 559.762 154.886 559.594 151.779 561.263Z" fill="#64AD8F"/>
                    <path d="M162.707 560.144L162.437 560.038C159.37 558.928 155.377 558.809 152.236 559.744L151.942 559.811L129.578 545.826L130.201 545.254C131.874 543.677 131.987 541.723 130.458 540.036L129.903 539.399L199.502 502.157L199.781 502.267C202.809 503.34 206.633 503.479 209.735 502.614L210.017 502.553L232.471 516.552L231.895 517.142C230.294 518.727 230.247 520.567 231.754 522.256L232.316 522.874L162.707 560.144ZM156.509 557.76C158.639 557.727 160.746 558.051 162.611 558.666L230.247 522.48C228.966 520.654 229.029 518.583 230.413 516.839L209.837 503.965C206.6 504.82 202.763 504.686 199.618 503.611L131.982 539.797C133.257 541.663 133.171 543.822 131.7 545.596L152.156 558.391C153.519 558.013 154.975 557.78 156.509 557.76Z" fill="#7FCCAB"/>
                    <path d="M196.683 522.797C188.296 517.565 174.463 517.11 165.756 521.788C157.052 526.435 156.763 534.466 165.121 539.688C173.497 544.894 187.332 545.371 196.05 540.719C204.756 536.041 205.038 528.028 196.683 522.797Z" fill="#7FCCAB"/>
                    <path d="M194.029 539.463C201.575 535.414 201.807 528.456 194.57 523.933C187.315 519.404 175.318 519.006 167.754 523.048C160.206 527.075 159.964 534.029 167.207 538.564C174.459 543.103 186.509 543.501 194.029 539.463Z" fill="#64AD8F"/>
                    <path d="M192.018 538.209C198.407 534.779 198.605 528.893 192.478 525.044C186.328 521.229 176.137 520.885 169.759 524.287C163.378 527.698 163.182 533.606 169.334 537.444C175.477 541.278 185.637 541.62 192.018 538.209Z" fill="#7FCCAB"/>
                    <path d="M212.205 519.639C214.762 518.302 214.854 515.91 212.385 514.401C209.927 512.865 205.868 512.72 203.31 514.088C200.766 515.474 200.698 517.832 203.142 519.352C205.581 520.881 209.653 521.021 212.205 519.639Z" fill="#7FCCAB"/>
                    <path d="M158.178 548.573C160.727 547.201 160.811 544.827 158.336 543.306C155.893 541.786 151.798 541.626 149.252 542.989C146.699 544.371 146.626 546.716 149.082 548.23C151.548 549.802 155.632 549.936 158.178 548.573Z" fill="#7FCCAB"/>
                    <path d="M157.005 567.1L156.955 567.747L117.284 542.99L117.298 542.243L157.005 567.1Z" fill="#64AD8F"/>
                    <path d="M156.956 567.746L244.644 520.985L244.736 520.15L157.006 567.1L156.956 567.746Z" fill="#539679"/>
                    <path d="M149.145 598.266C149.491 598.971 150.063 599.594 150.797 600.13C151.81 600.807 153.392 601.129 155.201 601.228C157.467 601.367 160.149 601.132 162.612 600.8L162.682 600.785C165.087 600.463 167.246 600.001 168.609 599.677C169.106 599.561 169.599 599.4 170.108 599.225C172.212 598.548 174.364 597.61 176.244 596.383L176.287 596.357C179.898 594.005 182.621 590.606 182.228 585.895C182.218 584.827 182.07 583.673 181.644 582.679C181.275 581.814 180.701 581.061 179.785 580.658C179.763 580.66 179.763 580.66 179.763 580.66C179.703 580.593 179.656 580.575 179.591 580.549L167.512 583.751L161.341 585.396C158.817 584.683 156.287 585.268 154.147 586.586C149.909 589.164 147.179 594.602 149.145 598.266Z" fill="#F8A075"/>
                    <path d="M143.4 608.224C143.509 608.331 143.606 608.412 143.714 608.466C146.964 611.076 155.408 609.605 158.857 609.005C163.265 607.934 169.058 605.936 169.984 601.067C170.1 600.5 170.172 599.905 170.116 599.228C170.123 599.101 170.109 598.945 170.101 598.803L169.31 598.738L158.566 597.941L152.249 597.445C151.343 597.508 150.242 597.794 149.131 598.271C144.733 600.055 139.832 604.457 143.4 608.224Z" fill="#F8A075"/>
                    <path d="M127.199 588.002C125.755 588.229 124.175 588.285 122.444 588.152C105.738 586.804 97.5406 566.882 108.091 554.182C117.543 542.823 135.017 539.433 147.811 533.977C152.279 532.07 155.489 528.39 159.068 525.273C162.005 522.721 166.258 518.193 169.976 522.073C172.403 524.618 171.989 528.593 171.538 531.843C170.701 537.66 167.98 542.941 164.536 547.625C161.268 552.057 155.373 554.423 151.433 558.429C142.563 567.46 141.119 585.75 127.199 588.002Z" fill="#F8A075"/>
                    <path d="M161.704 571.795C161.704 571.795 164.237 572.351 171.035 570.092C172.373 569.64 173.887 569.097 175.58 568.398C177.896 567.428 180.57 566.202 183.64 564.68C183.045 564.145 182.362 563.694 181.636 563.247C181.998 562.927 182.313 562.589 182.607 562.253L181.187 562.995L181.109 563.029C181.109 563.029 176.625 565.467 171.249 567.963C168.134 569.381 164.716 570.831 161.704 571.795Z" fill="#EA8C68"/>
                    <path d="M161.293 587.236C161.293 587.236 162.605 587.645 166.004 587.198C169.183 586.793 174.188 585.624 181.647 582.669C181.278 581.804 180.704 581.051 179.788 580.648C179.766 580.65 179.766 580.65 179.766 580.65C178.939 581.002 177.863 581.471 176.587 582.011C176.563 581.991 176.563 581.991 176.574 582.017C173.839 583.123 170.278 584.527 166.709 585.68C164.868 586.289 163.009 586.837 161.293 587.236Z" fill="#EA8C68"/>
                    <path d="M153.448 602.976C153.448 602.976 157.375 604.521 169.984 601.066C170.1 600.499 170.172 599.904 170.116 599.227C172.22 598.55 174.372 597.612 176.252 596.385L173.934 597.171C173.934 597.171 172.075 597.826 169.309 598.737C167.445 599.38 165.137 600.084 162.686 600.796L162.616 600.812C159.562 601.663 156.323 602.495 153.448 602.976Z" fill="#EA8C68"/>
                    <path d="M119.288 591.746L97.3792 599.968C97.3792 599.968 109.585 600.545 119.288 591.746Z" fill="#EA8C68"/>
                    <path d="M554.13 203.163C558.92 199.043 561.79 191.963 561.79 182.433C561.79 160.163 546.13 133.033 526.8 121.823C507.47 110.623 491.81 119.593 491.81 141.863C491.81 164.123 507.47 191.263 526.8 202.463C531.69 205.293 536.35 206.843 540.57 207.203L554.98 226.203L556.98 235.683L560.78 233.843L560.92 233.063L560.22 231.313L554.13 203.163Z" fill="#9C5647"/>
                    <path d="M550.32 205.003C555.11 200.883 557.98 193.803 557.98 184.283C557.98 162.003 542.32 134.873 522.99 123.673C503.67 112.473 488 121.443 488 143.713C488 165.973 503.67 193.113 522.99 204.313C527.89 207.153 532.54 208.693 536.77 209.053L556.98 235.703L550.32 205.003Z" fill="white"/>
                    <path d="M539.57 169.123C541.25 170.093 542.62 169.312 542.62 167.383C542.62 165.443 541.26 163.083 539.57 162.113L533.81 158.773L535.02 151.972C535.33 150.242 534.23 147.773 532.59 146.463C530.92 145.143 529.34 145.483 529.04 147.213L527.62 155.183L519.88 150.693L521.22 143.173C521.52 141.443 520.44 138.983 518.78 137.663C517.13 136.343 515.54 136.683 515.24 138.413L513.68 147.093L506.69 143.043C505 142.063 503.64 142.842 503.64 144.782C503.64 146.722 505.01 149.082 506.69 150.062L512.54 153.463L510.99 162.183L504.86 158.623C503.19 157.653 501.84 158.433 501.84 160.363C501.84 162.283 503.19 164.633 504.86 165.603L509.86 168.502L508.6 175.623C508.29 177.343 509.38 179.813 511.03 181.133C511.21 181.283 511.41 181.403 511.6 181.513C513.04 182.343 514.31 181.913 514.57 180.373L516.06 172.093L523.79 176.583L522.4 184.413C522.1 186.143 523.18 188.603 524.84 189.913C525.04 190.073 525.22 190.193 525.4 190.303C526.83 191.133 528.12 190.693 528.39 189.173L530 180.173L537.36 184.433C539.03 185.393 540.38 184.623 540.38 182.693C540.38 180.763 539.03 178.413 537.36 177.443L531.14 173.833L532.69 165.123L539.57 169.123ZM524.92 170.243L517.19 165.752L518.74 157.043L526.47 161.532L524.92 170.243Z" fill="#EE6251"/>
                    <path d="M329.78 74.8859L328 72.7059L333.31 59.7559L329.78 74.8859Z" fill="#D8B89A"/>
                    <path d="M384.081 75.2565L427.201 58.8365C426.411 57.0965 424.451 54.0065 422.991 53.1665L334.191 2.78646C332.591 1.85646 331.221 2.02646 330.431 2.99646L373.111 68.8565C376.051 73.3065 381.061 76.2665 384.081 75.2565Z" fill="#D8B89A"/>
                    <path d="M328.07 6.59668L329.78 74.8867L359.39 54.3067L328.07 6.59668Z" fill="#D8B89A"/>
                    <path d="M386.87 80.8166C384.52 81.5966 381.56 80.9466 378.58 79.2266C375.61 77.5066 372.6 74.6866 370.29 71.1566L360.88 57.4766L331.23 81.4666C332.04 82.7366 333.05 83.8466 334.21 84.5066L423.62 136.337C424.29 136.717 424.9 136.937 425.49 136.917L392.24 76.0766L386.87 80.8166Z" fill="#D8B89A"/>
                    <path d="M428.05 133.597V132.667V132.587V65.1468L426.27 62.9668L426.29 65.8168L397.24 76.8668L426.17 130.507L426.13 131.587L428.05 134.067V133.997V133.607V133.597Z" fill="#D8B89A"/>
                    <path d="M357.61 52.1163L328 72.7063V6.45626L357.61 52.1163ZM382.31 73.0763L425.77 56.3863C424.97 54.6463 423.31 53.2763 421.85 52.4263L332.43 0.606255C330.84 -0.313745 329.46 -0.143745 328.66 0.826255L371.34 66.6963C374.28 71.1363 379.28 74.0863 382.31 73.0763ZM385.09 78.6263C382.73 79.4163 379.77 78.7663 376.8 77.0363C373.82 75.3263 370.82 72.4963 368.51 68.9563L360.97 57.3463L329.46 79.2663C330.25 80.5462 331.27 81.6363 332.43 82.3063L421.84 134.146C422.51 134.526 423.13 134.726 423.7 134.706L392.05 75.9663L385.09 78.6263ZM426.27 131.816V62.9663L395.46 74.6763L426.27 131.816Z" fill="#E3CCB7"/>
                    <path d="M197.1 177.67C193.63 183.29 185.94 182.52 185.94 182.52L183.48 180.11C185.03 179.73 186.8 177.67 187.6 177.15C183.64 173.88 180.66 168.09 180.66 163.23C180.66 157.65 184.58 155.4 189.44 158.21C194.29 161.02 198.22 167.83 198.22 173.42C198.21 175.18 197.81 176.62 197.1 177.67ZM218.33 185.06C218.33 179.48 214.4 172.67 209.55 169.86C204.7 167.05 200.78 169.3 200.78 174.89C200.78 179.75 203.76 185.53 207.72 188.81C206.92 189.34 204.9 191.36 203.35 191.75L206.07 194.19C206.07 194.19 213.75 194.96 217.22 189.35C217.93 188.29 218.33 186.84 218.33 185.06Z" fill="#9C5647"/>
                    <path d="M195.43 178.69H195.44C191.97 184.3 184.3 183.53 184.3 183.53L181.79 180.17C183.34 179.78 185.14 178.68 185.93 178.15C181.98 174.87 179 169.09 179 164.23C179 158.64 182.93 156.39 187.78 159.2C192.62 162.01 196.56 168.82 196.56 174.41C196.57 176.2 196.16 177.64 195.43 178.69ZM216.68 186.08C216.68 180.5 212.76 173.69 207.91 170.88C203.05 168.06 199.13 170.31 199.13 175.9C199.13 180.76 202.11 186.54 206.07 189.82C205.26 190.35 203.47 191.46 201.91 191.84L204.43 195.19C204.43 195.19 212.1 195.97 215.58 190.35C216.28 189.31 216.68 187.86 216.68 186.08Z" fill="#C4765F"/>
                    <path d="M569.71 576.268C569.71 565.798 562.27 552.918 553.19 547.648L502.49 518.268C493.39 512.988 485.97 517.248 485.97 527.718V541.058C485.97 551.538 493.4 564.408 502.49 569.688L546.85 595.398L555.13 609.728L555.05 614.568L557.06 613.048L557.08 612.798L557.06 612.728V600.748C564.29 602.928 569.73 598.538 569.73 589.608V576.268H569.71Z" fill="#9C5647"/>
                    <path d="M551.23 549.318L500.54 519.928C491.44 514.658 484 518.908 484 529.388V542.728C484 553.198 491.44 566.078 500.54 571.348L544.89 597.078L555.09 614.718V602.448C562.32 604.618 567.75 600.228 567.75 591.288V577.958C567.76 567.478 560.32 554.588 551.23 549.318Z" fill="#CFA580"/>
                    <path d="M526.32 562.238C523.13 567.408 516.06 566.698 516.06 566.698L513.74 563.608C515.17 563.268 516.83 562.238 517.58 561.758C513.93 558.738 511.18 553.418 511.18 548.948C511.18 543.788 514.8 541.728 519.26 544.318C523.73 546.908 527.35 553.178 527.35 558.328C527.34 559.948 526.97 561.278 526.32 562.238ZM545.89 569.048C545.89 563.898 542.26 557.628 537.79 555.038C533.32 552.448 529.72 554.538 529.72 559.678C529.72 564.148 532.45 569.468 536.1 572.488C535.36 572.968 533.71 573.998 532.28 574.348L534.59 577.438C534.59 577.438 541.66 578.148 544.86 572.978C545.5 572.008 545.89 570.698 545.89 569.048Z" fill="white"/>
                    <path d="M568.92 356.783L496.9 315.043C494.6 313.703 492.54 313.703 491.13 314.763L488.9 315.973L489.76 316.663C489.46 317.433 489.28 318.343 489.28 319.403V402.373C489.28 407.193 492.72 413.123 496.9 415.543L568.92 457.293C569.56 457.673 570.18 457.923 570.77 458.093L570.97 459.633L573.78 458.053C575.44 457.413 576.52 455.623 576.52 452.923V369.963C576.53 365.143 573.11 359.213 568.92 356.783Z" fill="#D8B89A"/>
                    <path d="M486 321.163C486 316.343 489.43 314.383 493.61 316.803L565.62 358.553C569.82 360.983 573.23 366.903 573.23 371.723V454.683C573.23 459.513 569.82 461.483 565.62 459.053L493.61 417.303C489.43 414.883 486 408.953 486 404.123V321.163Z" fill="#E3CCB7"/>
                    <path d="M495.38 367.203C495.38 345.093 510.94 336.193 530.12 347.313C549.3 358.433 564.85 385.373 564.85 407.473C564.85 429.583 549.3 438.493 530.12 427.363C510.94 416.253 495.38 389.313 495.38 367.203Z" fill="white"/>
                    <path d="M552.19 394.583C554.28 395.803 555.99 394.823 555.99 392.403C555.99 389.983 554.28 387.033 552.19 385.813L544.98 381.643L546.5 373.143C546.89 370.993 545.53 367.913 543.46 366.273C541.39 364.633 539.41 365.053 539.03 367.203L537.25 377.153L527.58 371.553L529.26 362.163C529.64 360.003 528.28 356.923 526.21 355.283C524.14 353.633 522.16 354.063 521.79 356.213L519.84 367.063L511.1 361.993C509 360.773 507.29 361.753 507.29 364.173C507.29 366.593 509 369.543 511.1 370.763L518.41 375.003L516.47 385.883L508.81 381.433C506.73 380.213 505.04 381.193 505.04 383.593C505.04 386.003 506.73 388.943 508.81 390.143L515.07 393.773L513.48 402.663C513.11 404.813 514.47 407.893 516.53 409.543C516.76 409.713 517 409.883 517.23 410.013C519.03 411.063 520.62 410.513 520.96 408.593L522.81 398.253L532.47 403.863L530.72 413.643C530.34 415.803 531.7 418.883 533.77 420.523C534.01 420.713 534.24 420.873 534.48 421.003C536.28 422.043 537.86 421.503 538.21 419.593L540.21 408.353L549.39 413.673C551.48 414.883 553.16 413.903 553.16 411.503C553.16 409.093 551.47 406.163 549.38 404.953L541.61 400.453L543.55 389.563L552.19 394.583ZM533.89 395.983L524.22 390.383L526.16 379.493L535.82 385.093L533.89 395.983Z" fill="#EE6251"/>
                    <path d="M191.41 328.547L118.77 286.437C112.99 283.087 108.25 285.797 108.25 292.467V336.127C108.25 342.797 112.99 350.997 118.77 354.347L176.25 387.657L185.72 405.797L185.54 413.807L188.95 411.977V395.017L191.41 396.447C197.2 399.797 201.93 397.087 201.93 390.417V346.767C201.94 340.117 197.2 331.907 191.41 328.547Z" fill="#9C5647"/>
                    <path d="M188.16 330.587L115.53 288.487C109.74 285.127 105 287.837 105 294.507V338.167C105 344.837 109.74 353.047 115.53 356.397L172.99 389.717L185.71 414.047V397.087L188.16 398.517C193.97 401.877 198.7 399.157 198.7 392.487V348.827C198.7 342.147 193.97 333.947 188.16 330.587Z" fill="white"/>
                    <path d="M187.92 342.787L116.83 301.577C116.26 301.247 115.81 300.457 115.81 299.807C115.81 299.157 116.27 298.897 116.83 299.217L187.92 340.427C188.49 340.757 188.95 341.557 188.95 342.197C188.95 342.847 188.49 343.117 187.92 342.787Z" fill="#EE6251"/>
                    <path d="M187.92 350.446L116.83 309.236C116.26 308.906 115.81 308.116 115.81 307.466C115.81 306.816 116.27 306.546 116.83 306.876L187.92 348.086C188.49 348.416 188.95 349.206 188.95 349.866C188.95 350.506 188.49 350.766 187.92 350.446Z" fill="#EE6251"/>
                    <path d="M187.92 358.097L116.83 316.897C116.26 316.567 115.81 315.777 115.8 315.127C115.8 314.487 116.26 314.217 116.83 314.547L187.92 355.757C188.49 356.087 188.95 356.877 188.95 357.527C188.95 358.167 188.49 358.427 187.92 358.097Z" fill="#EE6251"/>
                    <path d="M187.92 365.767L116.83 324.557C116.26 324.237 115.81 323.437 115.8 322.787C115.8 322.137 116.26 321.877 116.83 322.207L187.92 363.417C188.49 363.747 188.95 364.547 188.95 365.187C188.95 365.827 188.49 366.087 187.92 365.767Z" fill="#EE6251"/>
                    <path d="M187.92 373.417L116.83 332.207C116.26 331.887 115.81 331.087 115.8 330.437C115.8 329.787 116.26 329.517 116.83 329.847L187.92 371.057C188.49 371.377 188.95 372.177 188.95 372.837C188.95 373.487 188.49 373.747 187.92 373.417Z" fill="#EE6251"/>
                    <path d="M187.92 381.077L116.83 339.867C116.26 339.537 115.81 338.747 115.8 338.097C115.8 337.447 116.26 337.187 116.83 337.507L187.92 378.727C188.49 379.047 188.95 379.837 188.95 380.497C188.95 381.147 188.49 381.407 187.92 381.077Z" fill="#EE6251"/>
                    <path d="M187.92 388.737L116.83 347.527C116.26 347.197 115.8 346.407 115.8 345.757C115.8 345.107 116.26 344.847 116.83 345.167L187.92 386.387C188.49 386.717 188.95 387.507 188.95 388.157C188.95 388.807 188.49 389.067 187.92 388.737Z" fill="#EE6251"/>
                    <defs>
                    <linearGradient id="paint0_linear" x1="399.297" y1="616.852" x2="382.753" y2="97.8563" gradientUnits="userSpaceOnUse">
                    <stop offset="0.00505051" stop-color="#C39367"/>
                    <stop offset="1" stop-color="#704232"/>
                    </linearGradient>
                    </defs>
                </svg>