<svg class="market__picture market__picture--affiche" width="436" height="933" viewBox="0 0 436 933" fill="none" xmlns="http://www.w3.org/2000/svg">
                    <path d="M426.39 930.088L14.4339 692.318C9.80684 689.631 6.22461 683.213 6.22461 677.989V6.91832C6.22461 1.69424 9.9561 -0.544655 14.4339 2.14202L426.39 239.912C431.017 242.599 434.599 249.017 434.599 254.241V925.312C434.749 930.536 431.017 932.775 426.39 930.088Z" fill="#623B2A" stroke="#623B2A" stroke-width="2" stroke-miterlimit="10"/>
                    <path d="M421.165 930.088L9.20927 692.318C4.58223 689.631 1 683.213 1 677.989V6.91832C1 1.69424 4.73149 -0.544655 9.20927 2.14202L421.165 239.912C425.792 242.599 429.375 249.017 429.375 254.241V925.312C429.375 930.536 425.792 932.775 421.165 930.088Z" fill="#EFEBE9" stroke="#623B2A" stroke-width="2" stroke-miterlimit="10"/>
                    <path d="M408.331 896.655L31.1524 678.885C27.5702 676.795 24.585 671.571 24.585 667.392V38.4125C24.585 34.2333 27.5702 32.4422 31.1524 34.5318L408.331 252.301C411.913 254.391 414.899 259.615 414.899 263.794V892.774C414.899 897.102 411.913 898.744 408.331 896.655Z" fill="white" stroke="white" stroke-miterlimit="10"/>
                    <path d="M406.33 897.655L29.1514 679.885C25.5692 677.795 22.584 672.571 22.584 668.392V626.413C22.584 622.233 25.5692 620.442 29.1514 622.532L406.33 840.301C409.912 842.391 412.898 847.615 412.898 851.794V893.774C412.898 898.102 409.912 899.744 406.33 897.655Z" fill="#623B2A" stroke="white" stroke-miterlimit="10"/>
                    <path d="M323.103 421.79L116.826 302.681C113.841 300.89 111.453 288.054 111.453 273.874V243.127C111.453 228.947 113.841 218.947 116.826 220.588L323.103 339.698C326.088 341.489 328.476 354.325 328.476 368.505V399.252C328.476 413.432 326.088 423.581 323.103 421.79Z" fill="#EFEBE9"/>
                    <path d="M323.103 523.286L116.826 404.177C113.841 402.386 111.453 389.55 111.453 375.37V344.623C111.453 330.443 113.841 320.443 116.826 322.085L323.103 441.194C326.088 442.985 328.476 455.821 328.476 470.001V500.748C328.476 514.928 326.088 525.077 323.103 523.286Z" fill="#EFEBE9"/>
                    <path d="M323.103 624.782L116.826 505.673C113.841 503.882 111.453 491.046 111.453 476.866V446.119C111.453 431.939 113.841 421.939 116.826 423.581L323.103 542.69C326.088 544.481 328.476 557.317 328.476 571.497V602.244C328.476 616.424 326.088 626.574 323.103 624.782Z" fill="#EFEBE9"/>
                    <path d="M46.673 658.297C46.673 658.638 46.6303 658.979 46.545 659.278C46.4598 659.576 46.3318 659.832 46.1612 660.045C45.9907 660.216 45.7348 660.344 45.4789 660.429C45.1804 660.472 44.8392 660.429 44.4554 660.344V660.472C44.7966 660.727 45.1377 661.069 45.4789 661.41C45.7774 661.751 46.0759 662.135 46.3318 662.561C46.5877 662.988 46.7583 663.457 46.8862 663.926C47.0141 664.438 47.0994 664.949 47.0994 665.504C47.0994 666.229 46.9715 666.783 46.673 667.21C46.4171 667.593 46.0333 667.807 45.5642 667.892C45.0951 667.977 44.5834 667.935 44.029 667.764C43.4319 667.593 42.8349 667.338 42.2378 666.996C42.0246 666.868 41.7687 666.74 41.4702 666.527C41.1717 666.357 40.8305 666.143 40.4467 665.888C40.1056 665.674 39.7218 665.418 39.3379 665.163C38.9541 664.907 38.6556 664.651 38.3145 664.395V650.279C38.5277 650.365 38.7836 650.493 39.0821 650.578C39.3806 650.706 39.6791 650.834 40.0203 651.004C40.3614 651.175 40.7026 651.345 41.0438 651.516C41.3849 651.687 41.7261 651.9 42.1099 652.113C42.7069 652.454 43.2613 652.838 43.7731 653.264C44.3275 653.691 44.8392 654.16 45.2657 654.629C45.6921 655.141 46.0333 655.695 46.3318 656.335C46.545 656.932 46.673 657.572 46.673 658.297ZM42.2378 664.608C42.5364 664.779 42.8349 664.907 43.0908 664.992C43.3893 665.077 43.6025 665.077 43.8157 665.035C44.029 664.992 44.1995 664.864 44.3275 664.694C44.4554 664.523 44.5407 664.224 44.5407 663.883C44.5407 663.414 44.4554 663.03 44.3275 662.689C44.1569 662.348 43.9863 662.007 43.7304 661.751C43.4746 661.452 43.2187 661.197 42.8775 660.983C42.579 660.77 42.2805 660.557 41.9393 660.386L40.66 659.619V663.585C40.7026 663.627 40.8305 663.713 40.9585 663.798C41.0864 663.883 41.2144 663.969 41.3849 664.054C41.5555 664.139 41.6835 664.224 41.854 664.352C41.982 664.48 42.1526 664.566 42.2378 664.608ZM41.4702 657.955C41.6408 658.041 41.8114 658.169 42.0246 658.254C42.2378 658.382 42.4511 658.467 42.579 658.51C43.0481 658.595 43.4319 658.595 43.7304 658.425C44.0716 658.297 44.2422 657.956 44.2422 657.401C44.2422 657.06 44.1995 656.719 44.0716 656.42C43.9437 656.122 43.7731 655.823 43.6025 655.61C43.4319 655.354 43.176 655.141 42.9628 654.928C42.7069 654.714 42.4511 654.544 42.1952 654.416C41.8967 654.245 41.5982 654.075 41.3423 653.947C41.0864 653.819 40.8732 653.734 40.7453 653.648V657.486L41.4702 657.955ZM48.72 660.813C49.1891 660.855 49.7435 660.983 50.3831 661.197C51.0228 661.41 51.7052 661.751 52.4301 662.135C53.0272 662.476 53.5389 662.86 53.9654 663.286C54.3918 663.67 54.6903 664.096 54.9462 664.566C55.2021 665.035 55.3727 665.504 55.458 665.973C55.5433 666.485 55.6285 666.996 55.6285 667.551C55.6285 668.148 55.6286 668.745 55.5859 669.342C55.5433 669.939 55.5433 670.493 55.5006 671.09C55.5006 671.687 55.5006 672.242 55.5433 672.839C55.5859 673.393 55.6712 673.99 55.7991 674.545L53.9227 673.478L53.5389 671.858L53.4536 671.815C53.1978 672.114 52.8992 672.284 52.4728 672.327C52.0463 672.37 51.5346 672.242 50.8522 671.858C50.4258 671.602 50.0846 671.346 49.7435 671.005C49.4023 670.664 49.1464 670.28 48.8906 669.896C48.6347 669.47 48.4641 669.086 48.3362 668.617C48.2082 668.19 48.1229 667.721 48.1229 667.295C48.1229 666.655 48.2509 666.229 48.4641 665.93C48.72 665.632 49.0611 665.504 49.5302 665.504C49.9993 665.504 50.5537 665.632 51.1508 665.888C51.7905 666.143 52.5154 666.527 53.283 666.996C53.3683 666.271 53.3257 665.717 53.1551 665.291C52.9845 664.864 52.6007 664.438 51.961 664.096C51.4919 663.841 51.0228 663.585 50.4684 663.414C49.9567 663.244 49.5302 663.116 49.1891 663.116L48.72 660.813ZM51.6199 670.109C52.089 670.365 52.4301 670.451 52.7287 670.408C52.9845 670.323 53.1978 670.195 53.3257 669.982V668.66C52.9419 668.404 52.6007 668.19 52.2596 668.02C51.9184 667.849 51.6199 667.764 51.364 667.679C51.1081 667.636 50.8949 667.636 50.7243 667.721C50.5537 667.807 50.5111 667.977 50.5111 668.276C50.5111 668.66 50.5964 669.001 50.8096 669.342C51.0228 669.64 51.2787 669.896 51.6199 670.109ZM57.5476 675.568V665.333L59.8505 666.655V674.545L62.068 675.824V667.935L64.3709 669.257V677.146L66.5885 678.425V670.536L68.8913 671.858V682.093L57.5476 675.568ZM70.853 673.606C71.3221 673.649 71.8765 673.777 72.5162 673.99C73.1559 674.203 73.8382 674.545 74.5632 674.928C75.1602 675.27 75.672 675.653 76.0984 676.08C76.5249 676.464 76.8234 676.89 77.0793 677.359C77.3351 677.828 77.5057 678.297 77.591 678.767C77.6763 679.278 77.7616 679.79 77.7616 680.344C77.7616 680.941 77.7616 681.539 77.7189 682.136C77.6763 682.733 77.6763 683.287 77.6337 683.884C77.6337 684.481 77.6337 685.035 77.6763 685.632C77.719 686.187 77.8042 686.784 77.9322 687.338L76.0558 686.272L75.672 684.652L75.5867 684.609C75.3308 684.907 75.0323 685.078 74.6058 685.121C74.1794 685.163 73.6676 685.035 72.9853 684.652C72.5588 684.396 72.2177 684.14 71.8765 683.799C71.5353 683.458 71.2795 683.074 71.0236 682.69C70.7677 682.263 70.5971 681.88 70.4692 681.411C70.3413 680.984 70.256 680.515 70.256 680.089C70.256 679.449 70.3839 679.022 70.5971 678.724C70.853 678.425 71.1942 678.297 71.6633 678.297C72.1324 678.297 72.6868 678.425 73.2838 678.681C73.9235 678.937 74.6485 679.321 75.4161 679.79C75.5014 679.065 75.4587 678.511 75.2882 678.084C75.1176 677.658 74.7338 677.231 74.0941 676.89C73.625 676.634 73.1559 676.378 72.6015 676.208C72.0897 676.037 71.6633 675.909 71.3221 675.909L70.853 673.606ZM73.7956 682.903C74.2647 683.159 74.6058 683.244 74.9043 683.202C75.1602 683.116 75.3734 682.988 75.5014 682.775V681.453C75.1176 681.197 74.7764 680.984 74.4352 680.814C74.0941 680.643 73.7956 680.558 73.5397 680.472C73.2838 680.43 73.0706 680.43 72.9 680.515C72.7294 680.6 72.6868 680.771 72.6868 681.069C72.6868 681.453 72.7721 681.794 72.9853 682.136C73.1559 682.434 73.4544 682.69 73.7956 682.903Z" fill="#FDFDFD"/>
                    <path d="M81.7705 678L83.4337 678.981L83.6896 680.346L83.7748 680.388C84.0734 680.047 84.4572 679.876 84.841 679.876C85.2674 679.876 85.7792 680.047 86.3762 680.388C87.485 681.028 88.3379 681.923 88.8923 683.075C89.4467 684.184 89.7452 685.676 89.7452 687.467C89.7452 688.32 89.6599 689.088 89.4894 689.685C89.3188 690.282 89.0629 690.708 88.6791 691.007C88.3379 691.305 87.9115 691.433 87.3997 691.391C86.888 691.348 86.3336 691.177 85.6939 690.794C85.3101 690.58 85.0116 690.367 84.7983 690.154C84.5425 689.983 84.3292 689.728 84.0734 689.472V693.651L81.7705 692.329V678ZM85.7365 682.265C85.2674 682.009 84.9263 681.923 84.6704 682.051C84.4145 682.179 84.2439 682.435 84.0734 682.862V687.126C84.2439 687.382 84.4145 687.595 84.5851 687.808C84.7983 688.022 85.0542 688.192 85.3527 688.363C86.0351 688.747 86.5042 688.747 86.8453 688.406C87.1865 688.064 87.3571 687.254 87.3571 686.017C87.3571 685.122 87.2291 684.354 86.9733 683.715C86.7174 683.075 86.2909 682.563 85.7365 682.265ZM98.4449 696.977C98.1038 697.105 97.592 697.105 96.995 696.977C96.3979 696.849 95.7583 696.593 95.0759 696.21C93.626 695.399 92.6025 694.291 91.9201 692.969C91.2378 691.604 90.9393 690.111 90.9393 688.406C90.9393 686.614 91.3231 685.463 92.0481 684.994C92.7731 684.525 93.8392 684.695 95.2039 685.463C95.673 685.719 96.0994 686.06 96.5259 686.444C96.9523 686.828 97.3361 687.254 97.6773 687.766C98.0185 688.278 98.2743 688.832 98.4876 689.514C98.7008 690.154 98.7861 690.879 98.7861 691.689C98.7861 691.988 98.7861 692.286 98.7434 692.585C98.7008 692.883 98.6582 693.224 98.6155 693.523L93.2848 690.453C93.3275 691.348 93.498 692.073 93.8392 692.713C94.1804 693.352 94.7774 693.907 95.545 694.333C96.0141 694.632 96.4406 694.76 96.8244 694.845C97.2082 694.888 97.5067 694.888 97.7199 694.845L98.4449 696.977ZM95.1612 687.553C94.5642 687.211 94.0951 687.169 93.7966 687.425C93.498 687.681 93.3275 688.107 93.2848 688.789L96.5685 690.708C96.6112 689.983 96.5259 689.386 96.27 688.832C96.0568 688.278 95.673 687.851 95.1612 687.553ZM103.264 696.423L102.624 696.082V700.304L100.321 698.982V688.747L102.624 690.069V694.419L103.179 694.461L105.268 691.604L107.742 693.011L105.609 695.655L104.714 695.911L105.695 697.276L108.083 703.417L105.439 701.882L103.264 696.423ZM114.394 699.195L112.646 698.171C112.561 699.11 112.475 700.005 112.39 700.901C112.305 701.796 112.134 702.564 111.921 703.204C111.708 703.843 111.452 704.312 111.068 704.568C110.727 704.824 110.258 704.781 109.703 704.483C109.021 704.099 108.552 703.715 108.253 703.331L108.552 701.284C108.723 701.455 108.936 701.626 109.064 701.711C109.32 701.839 109.49 701.839 109.703 701.711C109.874 701.583 110.045 701.242 110.13 700.73C110.258 700.218 110.343 699.451 110.428 698.47C110.514 697.489 110.556 696.21 110.599 694.632L116.697 698.129V708.364L114.394 707.042V699.195ZM118.616 699.877C119.085 699.92 119.64 700.048 120.279 700.261C120.919 700.474 121.601 700.815 122.326 701.199C122.923 701.54 123.435 701.924 123.862 702.351C124.288 702.734 124.587 703.161 124.843 703.63C125.098 704.099 125.269 704.568 125.354 705.037C125.44 705.549 125.525 706.061 125.525 706.615C125.525 707.212 125.525 707.809 125.482 708.406C125.44 709.003 125.44 709.558 125.397 710.155C125.397 710.752 125.397 711.306 125.44 711.903C125.482 712.458 125.568 713.055 125.695 713.609L123.819 712.543L123.435 710.922L123.35 710.88C123.094 711.178 122.796 711.349 122.369 711.391C121.943 711.434 121.431 711.306 120.749 710.922C120.322 710.667 119.981 710.411 119.64 710.069C119.299 709.728 119.043 709.344 118.787 708.961C118.531 708.534 118.36 708.15 118.232 707.681C118.105 707.255 118.019 706.786 118.019 706.359C118.019 705.72 118.147 705.293 118.36 704.995C118.616 704.696 118.957 704.568 119.427 704.568C119.896 704.568 120.45 704.696 121.047 704.952C121.687 705.208 122.412 705.592 123.179 706.061C123.265 705.336 123.222 704.781 123.051 704.355C122.881 703.928 122.497 703.502 121.857 703.161C121.388 702.905 120.919 702.649 120.365 702.479C119.853 702.308 119.427 702.18 119.085 702.18L118.616 699.877ZM121.559 709.174C122.028 709.43 122.369 709.515 122.668 709.472C122.923 709.387 123.137 709.259 123.265 709.046V707.724C122.881 707.468 122.54 707.255 122.199 707.084C121.857 706.914 121.559 706.828 121.303 706.743C121.047 706.7 120.834 706.7 120.663 706.786C120.493 706.871 120.45 707.042 120.45 707.34C120.45 707.724 120.535 708.065 120.749 708.406C120.962 708.705 121.218 708.961 121.559 709.174ZM135.077 714.291L135.205 712.244L135.12 712.202L134.395 713.566L132.732 715.784L131.879 715.315L130.045 711.093L129.363 708.961L129.278 708.918L129.491 711.178V715.869L127.444 714.675V704.44L129.832 705.805L131.879 710.837L132.391 712.415L132.476 712.458L132.988 711.434L134.864 708.705L137.295 710.112V720.347L135.077 719.068V714.291ZM139.214 711.775C139.683 711.818 140.238 711.946 140.877 712.159C141.517 712.372 142.199 712.713 142.924 713.097C143.521 713.438 144.033 713.822 144.459 714.249C144.886 714.633 145.184 715.059 145.44 715.528C145.696 715.997 145.867 716.466 145.952 716.935C146.037 717.447 146.123 717.959 146.123 718.513C146.123 719.11 146.123 719.707 146.08 720.304C146.037 720.901 146.037 721.456 145.995 722.053C145.995 722.65 145.995 723.204 146.037 723.801C146.08 724.356 146.165 724.953 146.293 725.507L144.417 724.441L144.033 722.82L143.948 722.778C143.692 723.076 143.393 723.247 142.967 723.29C142.54 723.332 142.029 723.204 141.346 722.82C140.92 722.565 140.579 722.309 140.238 721.968C139.896 721.626 139.641 721.243 139.385 720.859C139.129 720.432 138.958 720.049 138.83 719.579C138.702 719.153 138.617 718.684 138.617 718.257C138.617 717.618 138.745 717.191 138.958 716.893C139.214 716.594 139.555 716.466 140.024 716.466C140.493 716.466 141.048 716.594 141.645 716.85C142.285 717.106 143.01 717.49 143.777 717.959C143.862 717.234 143.82 716.68 143.649 716.253C143.479 715.827 143.095 715.4 142.455 715.059C141.986 714.803 141.517 714.547 140.963 714.377C140.451 714.206 140.024 714.078 139.683 714.078L139.214 711.775ZM142.157 721.072C142.626 721.328 142.967 721.413 143.265 721.371C143.521 721.285 143.735 721.157 143.862 720.944V719.622C143.479 719.366 143.137 719.153 142.796 718.982C142.455 718.812 142.157 718.727 141.901 718.641C141.645 718.599 141.432 718.599 141.261 718.684C141.09 718.769 141.048 718.94 141.048 719.238C141.048 719.622 141.133 719.963 141.346 720.304C141.56 720.603 141.815 720.859 142.157 721.072Z" fill="#E04E39"/>
                    <path d="M179.513 732.928C179.513 733.269 179.47 733.61 179.385 733.908C179.3 734.207 179.172 734.463 179.001 734.676C178.83 734.847 178.575 734.975 178.319 735.06C178.02 735.102 177.679 735.06 177.295 734.975V735.102C177.636 735.358 177.978 735.699 178.319 736.041C178.617 736.382 178.916 736.766 179.172 737.192C179.428 737.619 179.598 738.088 179.726 738.557C179.854 739.068 179.939 739.58 179.939 740.135C179.939 740.86 179.811 741.414 179.513 741.84C179.257 742.224 178.873 742.437 178.404 742.523C177.935 742.608 177.423 742.565 176.869 742.395C176.272 742.224 175.675 741.968 175.078 741.627C174.864 741.499 174.609 741.371 174.31 741.158C174.012 740.988 173.67 740.774 173.287 740.518C172.945 740.305 172.562 740.049 172.178 739.793C171.794 739.538 171.495 739.282 171.154 739.026V724.91C171.368 724.995 171.623 725.123 171.922 725.209C172.22 725.337 172.519 725.465 172.86 725.635C173.201 725.806 173.542 725.976 173.884 726.147C174.225 726.317 174.566 726.531 174.95 726.744C175.547 727.085 176.101 727.469 176.613 727.895C177.167 728.322 177.679 728.791 178.106 729.26C178.532 729.772 178.873 730.326 179.172 730.966C179.385 731.563 179.513 732.203 179.513 732.928ZM175.078 739.239C175.376 739.41 175.675 739.538 175.931 739.623C176.229 739.708 176.442 739.708 176.656 739.666C176.869 739.623 177.039 739.495 177.167 739.324C177.295 739.154 177.381 738.855 177.381 738.514C177.381 738.045 177.295 737.661 177.167 737.32C176.997 736.979 176.826 736.638 176.57 736.382C176.314 736.083 176.059 735.827 175.717 735.614C175.419 735.401 175.12 735.188 174.779 735.017L173.5 734.25V738.216C173.542 738.258 173.67 738.344 173.798 738.429C173.926 738.514 174.054 738.599 174.225 738.685C174.395 738.77 174.523 738.855 174.694 738.983C174.822 739.111 174.992 739.196 175.078 739.239ZM174.31 732.586C174.481 732.672 174.651 732.8 174.864 732.885C175.078 733.013 175.291 733.098 175.419 733.141C175.888 733.226 176.272 733.226 176.57 733.055C176.911 732.928 177.082 732.586 177.082 732.032C177.082 731.691 177.039 731.35 176.911 731.051C176.784 730.753 176.613 730.454 176.442 730.241C176.272 729.985 176.016 729.772 175.803 729.559C175.547 729.345 175.291 729.175 175.035 729.047C174.737 728.876 174.438 728.706 174.182 728.578C173.926 728.45 173.713 728.364 173.585 728.279V732.117L174.31 732.586ZM181.56 735.444C182.029 735.486 182.583 735.614 183.223 735.827C183.863 736.041 184.545 736.382 185.27 736.766C185.867 737.107 186.379 737.491 186.805 737.917C187.232 738.301 187.53 738.727 187.786 739.196C188.042 739.666 188.213 740.135 188.298 740.604C188.383 741.115 188.468 741.627 188.468 742.182C188.468 742.779 188.468 743.376 188.426 743.973C188.383 744.57 188.383 745.124 188.34 745.721C188.34 746.318 188.34 746.873 188.383 747.47C188.426 748.024 188.511 748.621 188.639 749.175L186.763 748.109L186.379 746.489L186.293 746.446C186.038 746.745 185.739 746.915 185.313 746.958C184.886 747.001 184.374 746.873 183.692 746.489C183.266 746.233 182.924 745.977 182.583 745.636C182.242 745.295 181.986 744.911 181.73 744.527C181.475 744.101 181.304 743.717 181.176 743.248C181.048 742.821 180.963 742.352 180.963 741.926C180.963 741.286 181.091 740.86 181.304 740.561C181.56 740.263 181.901 740.135 182.37 740.135C182.839 740.135 183.394 740.263 183.991 740.518C184.63 740.774 185.355 741.158 186.123 741.627C186.208 740.902 186.166 740.348 185.995 739.921C185.824 739.495 185.441 739.068 184.801 738.727C184.332 738.471 183.863 738.216 183.308 738.045C182.797 737.874 182.37 737.746 182.029 737.746L181.56 735.444ZM184.46 744.74C184.929 744.996 185.27 745.082 185.568 745.039C185.824 744.954 186.038 744.826 186.166 744.612V743.29C185.782 743.035 185.441 742.821 185.099 742.651C184.758 742.48 184.46 742.395 184.204 742.31C183.948 742.267 183.735 742.267 183.564 742.352C183.394 742.437 183.351 742.608 183.351 742.907C183.351 743.29 183.436 743.632 183.649 743.973C183.863 744.271 184.119 744.527 184.46 744.74ZM190.387 750.199V739.964L192.69 741.286V749.175L194.908 750.455V742.565L197.211 743.887V751.777L199.428 753.056V745.167L201.731 746.489V756.724L190.387 750.199ZM203.693 748.237C204.162 748.28 204.716 748.408 205.356 748.621C205.996 748.834 206.678 749.175 207.403 749.559C208 749.9 208.512 750.284 208.938 750.711C209.365 751.095 209.663 751.521 209.919 751.99C210.175 752.459 210.346 752.928 210.431 753.397C210.516 753.909 210.601 754.421 210.601 754.975C210.601 755.572 210.601 756.169 210.559 756.766C210.516 757.363 210.516 757.918 210.474 758.515C210.474 759.112 210.474 759.666 210.516 760.263C210.559 760.818 210.644 761.415 210.772 761.969L208.896 760.903L208.512 759.282L208.427 759.24C208.171 759.538 207.872 759.709 207.446 759.752C207.019 759.794 206.507 759.666 205.825 759.282C205.399 759.027 205.058 758.771 204.716 758.43C204.375 758.088 204.119 757.705 203.863 757.321C203.608 756.894 203.437 756.511 203.309 756.041C203.181 755.615 203.096 755.146 203.096 754.719C203.096 754.08 203.224 753.653 203.437 753.355C203.693 753.056 204.034 752.928 204.503 752.928C204.972 752.928 205.527 753.056 206.124 753.312C206.763 753.568 207.488 753.952 208.256 754.421C208.341 753.696 208.299 753.142 208.128 752.715C207.957 752.289 207.574 751.862 206.934 751.521C206.465 751.265 205.996 751.009 205.441 750.839C204.93 750.668 204.503 750.54 204.162 750.54L203.693 748.237ZM206.635 757.534C207.105 757.79 207.446 757.875 207.744 757.833C208 757.747 208.213 757.619 208.341 757.406V756.084C207.957 755.828 207.616 755.615 207.275 755.444C206.934 755.274 206.635 755.189 206.38 755.103C206.124 755.061 205.91 755.061 205.74 755.146C205.569 755.231 205.527 755.402 205.527 755.7C205.527 756.084 205.612 756.425 205.825 756.766C205.996 757.065 206.294 757.321 206.635 757.534Z" fill="#FDFDFD"/>
                    <path d="M214.611 752.629L216.275 753.61L216.53 754.974L216.616 755.017C216.914 754.676 217.298 754.505 217.682 754.505C218.108 754.505 218.62 754.676 219.217 755.017C220.326 755.657 221.179 756.552 221.733 757.704C222.288 758.813 222.586 760.305 222.586 762.096C222.586 762.949 222.501 763.717 222.33 764.314C222.16 764.911 221.904 765.337 221.52 765.636C221.179 765.934 220.752 766.062 220.241 766.02C219.729 765.977 219.174 765.806 218.535 765.423C218.151 765.209 217.852 764.996 217.639 764.783C217.383 764.612 217.17 764.356 216.914 764.101V768.28L214.611 766.958V752.629ZM218.577 756.893C218.108 756.638 217.767 756.552 217.511 756.68C217.255 756.808 217.085 757.064 216.914 757.49V761.755C217.085 762.011 217.255 762.224 217.426 762.437C217.639 762.651 217.895 762.821 218.194 762.992C218.876 763.376 219.345 763.376 219.686 763.034C220.027 762.693 220.198 761.883 220.198 760.646C220.198 759.751 220.07 758.983 219.814 758.343C219.558 757.704 219.132 757.192 218.577 756.893ZM231.286 771.606C230.945 771.734 230.433 771.734 229.836 771.606C229.239 771.478 228.599 771.222 227.917 770.839C226.467 770.028 225.443 768.92 224.761 767.598C224.079 766.233 223.78 764.74 223.78 763.034C223.78 761.243 224.164 760.092 224.889 759.623C225.614 759.154 226.68 759.324 228.045 760.092C228.514 760.348 228.94 760.689 229.367 761.073C229.793 761.457 230.177 761.883 230.518 762.395C230.859 762.906 231.115 763.461 231.328 764.143C231.542 764.783 231.627 765.508 231.627 766.318C231.627 766.617 231.627 766.915 231.584 767.214C231.542 767.512 231.499 767.853 231.456 768.152L226.126 765.081C226.168 765.977 226.339 766.702 226.68 767.342C227.021 767.981 227.618 768.536 228.386 768.962C228.855 769.261 229.281 769.389 229.665 769.474C230.049 769.517 230.348 769.517 230.561 769.474L231.286 771.606ZM228.002 762.182C227.405 761.84 226.936 761.798 226.637 762.054C226.339 762.309 226.168 762.736 226.126 763.418L229.409 765.337C229.452 764.612 229.367 764.015 229.111 763.461C228.898 762.906 228.514 762.48 228.002 762.182ZM236.105 771.052L235.465 770.711V774.933L233.162 773.611V763.376L235.465 764.698V769.047L236.019 769.09L238.109 766.233L240.582 767.64L238.45 770.284L237.555 770.54L238.535 771.905L240.924 778.046L238.28 776.51L236.105 771.052ZM247.235 773.824L245.487 772.8C245.401 773.738 245.316 774.634 245.231 775.53C245.146 776.425 244.975 777.193 244.762 777.832C244.549 778.472 244.293 778.941 243.909 779.197C243.568 779.453 243.099 779.41 242.544 779.112C241.862 778.728 241.393 778.344 241.094 777.96L241.393 775.913C241.563 776.084 241.777 776.255 241.904 776.34C242.16 776.468 242.331 776.468 242.544 776.34C242.715 776.212 242.885 775.871 242.971 775.359C243.099 774.847 243.184 774.08 243.269 773.099C243.354 772.118 243.397 770.839 243.44 769.261L249.538 772.758V782.993L247.235 781.671V773.824ZM251.457 774.506C251.926 774.549 252.481 774.677 253.12 774.89C253.76 775.103 254.442 775.444 255.167 775.828C255.764 776.169 256.276 776.553 256.703 776.98C257.129 777.363 257.427 777.79 257.683 778.259C257.939 778.728 258.11 779.197 258.195 779.666C258.28 780.178 258.366 780.69 258.366 781.244C258.366 781.841 258.366 782.438 258.323 783.035C258.28 783.632 258.28 784.187 258.238 784.784C258.238 785.381 258.238 785.935 258.28 786.532C258.323 787.087 258.408 787.684 258.536 788.238L256.66 787.172L256.276 785.551L256.191 785.509C255.935 785.807 255.636 785.978 255.21 786.02C254.783 786.063 254.272 785.935 253.589 785.551C253.163 785.295 252.822 785.04 252.481 784.698C252.139 784.357 251.884 783.973 251.628 783.59C251.372 783.163 251.201 782.779 251.073 782.31C250.945 781.884 250.86 781.415 250.86 780.988C250.86 780.349 250.988 779.922 251.201 779.624C251.457 779.325 251.798 779.197 252.267 779.197C252.736 779.197 253.291 779.325 253.888 779.581C254.528 779.837 255.253 780.221 256.02 780.69C256.105 779.965 256.063 779.41 255.892 778.984C255.722 778.557 255.338 778.131 254.698 777.79C254.229 777.534 253.76 777.278 253.206 777.107C252.694 776.937 252.267 776.809 251.926 776.809L251.457 774.506ZM254.4 783.803C254.869 784.059 255.21 784.144 255.508 784.101C255.764 784.016 255.978 783.888 256.105 783.675V782.353C255.722 782.097 255.38 781.884 255.039 781.713C254.698 781.543 254.4 781.457 254.144 781.372C253.888 781.329 253.675 781.329 253.504 781.415C253.334 781.5 253.291 781.671 253.291 781.969C253.291 782.353 253.376 782.694 253.589 783.035C253.803 783.334 254.058 783.59 254.4 783.803ZM267.918 788.92L268.046 786.873L267.961 786.831L267.236 788.195L265.573 790.413L264.72 789.944L262.886 785.722L262.204 783.59L262.118 783.547L262.332 785.807V790.498L260.285 789.304V779.069L262.673 780.434L264.72 785.466L265.232 787.044L265.317 787.087L265.829 786.063L267.705 783.334L270.136 784.741V794.976L267.918 793.697V788.92ZM272.055 786.404C272.524 786.447 273.078 786.575 273.718 786.788C274.358 787.001 275.04 787.342 275.765 787.726C276.362 788.067 276.874 788.451 277.3 788.878C277.727 789.261 278.025 789.688 278.281 790.157C278.537 790.626 278.708 791.095 278.793 791.564C278.878 792.076 278.963 792.588 278.963 793.142C278.963 793.739 278.963 794.336 278.921 794.933C278.878 795.53 278.878 796.085 278.836 796.682C278.836 797.279 278.836 797.833 278.878 798.43C278.921 798.985 279.006 799.582 279.134 800.136L277.258 799.07L276.874 797.449L276.789 797.407C276.533 797.705 276.234 797.876 275.808 797.919C275.381 797.961 274.87 797.833 274.187 797.449C273.761 797.194 273.42 796.938 273.078 796.596C272.737 796.255 272.481 795.872 272.225 795.488C271.97 795.061 271.799 794.677 271.671 794.208C271.543 793.782 271.458 793.313 271.458 792.886C271.458 792.247 271.586 791.82 271.799 791.522C272.055 791.223 272.396 791.095 272.865 791.095C273.334 791.095 273.889 791.223 274.486 791.479C275.125 791.735 275.85 792.119 276.618 792.588C276.703 791.863 276.661 791.308 276.49 790.882C276.319 790.456 275.936 790.029 275.296 789.688C274.827 789.432 274.358 789.176 273.803 789.006C273.292 788.835 272.865 788.707 272.524 788.707L272.055 786.404ZM274.997 795.701C275.467 795.957 275.808 796.042 276.106 795.999C276.362 795.914 276.575 795.786 276.703 795.573V794.251C276.319 793.995 275.978 793.782 275.637 793.611C275.296 793.441 274.997 793.355 274.742 793.27C274.486 793.227 274.272 793.227 274.102 793.313C273.931 793.398 273.889 793.569 273.889 793.867C273.889 794.251 273.974 794.592 274.187 794.933C274.4 795.232 274.656 795.488 274.997 795.701Z" fill="#E04E39"/>
                    <path d="M303.399 803.078C303.399 803.419 303.356 803.76 303.271 804.059C303.185 804.357 303.057 804.613 302.887 804.826C302.716 804.997 302.46 805.125 302.204 805.21C301.906 805.253 301.565 805.21 301.181 805.125V805.253C301.522 805.509 301.863 805.85 302.204 806.191C302.503 806.532 302.802 806.916 303.057 807.342C303.313 807.769 303.484 808.238 303.612 808.707C303.74 809.219 303.825 809.731 303.825 810.285C303.825 811.01 303.697 811.564 303.399 811.991C303.143 812.375 302.759 812.588 302.29 812.673C301.821 812.758 301.309 812.716 300.755 812.545C300.158 812.375 299.56 812.119 298.963 811.778C298.75 811.65 298.494 811.522 298.196 811.309C297.897 811.138 297.556 810.925 297.172 810.669C296.831 810.456 296.447 810.2 296.064 809.944C295.68 809.688 295.381 809.432 295.04 809.176V795.061C295.253 795.146 295.509 795.274 295.808 795.359C296.106 795.487 296.405 795.615 296.746 795.786C297.087 795.956 297.428 796.127 297.769 796.297C298.111 796.468 298.452 796.681 298.835 796.894C299.433 797.235 299.987 797.619 300.499 798.046C301.053 798.472 301.565 798.941 301.991 799.41C302.418 799.922 302.759 800.477 303.057 801.116C303.271 801.713 303.399 802.353 303.399 803.078ZM298.963 809.389C299.262 809.56 299.56 809.688 299.816 809.773C300.115 809.859 300.328 809.859 300.541 809.816C300.755 809.773 300.925 809.645 301.053 809.475C301.181 809.304 301.266 809.006 301.266 808.664C301.266 808.195 301.181 807.812 301.053 807.47C300.882 807.129 300.712 806.788 300.456 806.532C300.2 806.234 299.944 805.978 299.603 805.765C299.305 805.551 299.006 805.338 298.665 805.168L297.386 804.4V808.366C297.428 808.409 297.556 808.494 297.684 808.579C297.812 808.664 297.94 808.75 298.111 808.835C298.281 808.92 298.409 809.006 298.58 809.134C298.708 809.262 298.878 809.347 298.963 809.389ZM298.196 802.737C298.366 802.822 298.537 802.95 298.75 803.035C298.963 803.163 299.177 803.249 299.305 803.291C299.774 803.376 300.158 803.376 300.456 803.206C300.797 803.078 300.968 802.737 300.968 802.182C300.968 801.841 300.925 801.5 300.797 801.202C300.669 800.903 300.499 800.604 300.328 800.391C300.158 800.135 299.902 799.922 299.688 799.709C299.433 799.496 299.177 799.325 298.921 799.197C298.622 799.027 298.324 798.856 298.068 798.728C297.812 798.6 297.599 798.515 297.471 798.43V802.268L298.196 802.737ZM305.446 805.594C305.915 805.637 306.469 805.765 307.109 805.978C307.748 806.191 308.431 806.532 309.156 806.916C309.753 807.257 310.265 807.641 310.691 808.067C311.117 808.451 311.416 808.878 311.672 809.347C311.928 809.816 312.098 810.285 312.184 810.754C312.269 811.266 312.354 811.778 312.354 812.332C312.354 812.929 312.354 813.526 312.311 814.123C312.269 814.72 312.269 815.275 312.226 815.872C312.226 816.469 312.226 817.023 312.269 817.62C312.311 818.174 312.397 818.771 312.525 819.326L310.648 818.26L310.265 816.639L310.179 816.597C309.923 816.895 309.625 817.066 309.198 817.108C308.772 817.151 308.26 817.023 307.578 816.639C307.151 816.383 306.81 816.127 306.469 815.786C306.128 815.445 305.872 815.061 305.616 814.678C305.36 814.251 305.19 813.867 305.062 813.398C304.934 812.972 304.849 812.503 304.849 812.076C304.849 811.436 304.976 811.01 305.19 810.711C305.446 810.413 305.787 810.285 306.256 810.285C306.725 810.285 307.279 810.413 307.876 810.669C308.516 810.925 309.241 811.309 310.009 811.778C310.094 811.053 310.051 810.498 309.881 810.072C309.71 809.645 309.326 809.219 308.687 808.878C308.218 808.622 307.748 808.366 307.194 808.195C306.682 808.025 306.256 807.897 305.915 807.897L305.446 805.594ZM308.345 814.891C308.815 815.147 309.156 815.232 309.454 815.189C309.71 815.104 309.923 814.976 310.051 814.763V813.441C309.667 813.185 309.326 812.972 308.985 812.801C308.644 812.631 308.345 812.545 308.09 812.46C307.834 812.417 307.62 812.417 307.45 812.503C307.279 812.588 307.237 812.758 307.237 813.057C307.237 813.441 307.322 813.782 307.535 814.123C307.748 814.422 308.004 814.678 308.345 814.891ZM314.273 820.349V810.114L316.576 811.436V819.326L318.794 820.605V812.716L321.096 814.038V821.927L323.314 823.207V815.317L325.617 816.639V826.874L314.273 820.349ZM327.579 818.388C328.048 818.43 328.602 818.558 329.242 818.771C329.881 818.985 330.564 819.326 331.289 819.71C331.886 820.051 332.398 820.435 332.824 820.861C333.25 821.245 333.549 821.671 333.805 822.14C334.061 822.61 334.231 823.079 334.317 823.548C334.402 824.06 334.487 824.571 334.487 825.126C334.487 825.723 334.487 826.32 334.445 826.917C334.402 827.514 334.402 828.068 334.359 828.665C334.359 829.262 334.359 829.817 334.402 830.414C334.445 830.968 334.53 831.565 334.658 832.12L332.781 831.053L332.398 829.433L332.312 829.39C332.056 829.689 331.758 829.859 331.331 829.902C330.905 829.945 330.393 829.817 329.711 829.433C329.284 829.177 328.943 828.921 328.602 828.58C328.261 828.239 328.005 827.855 327.749 827.471C327.493 827.045 327.323 826.661 327.195 826.192C327.067 825.765 326.982 825.296 326.982 824.87C326.982 824.23 327.11 823.804 327.323 823.505C327.579 823.207 327.92 823.079 328.389 823.079C328.858 823.079 329.412 823.207 330.009 823.462C330.649 823.718 331.374 824.102 332.142 824.571C332.227 823.846 332.184 823.292 332.014 822.865C331.843 822.439 331.459 822.013 330.82 821.671C330.351 821.416 329.881 821.16 329.327 820.989C328.815 820.818 328.389 820.691 328.048 820.691L327.579 818.388ZM330.521 827.684C330.99 827.94 331.331 828.026 331.63 827.983C331.886 827.898 332.099 827.77 332.227 827.556V826.234C331.843 825.979 331.502 825.765 331.161 825.595C330.82 825.424 330.521 825.339 330.265 825.254C330.009 825.211 329.796 825.211 329.626 825.296C329.455 825.382 329.412 825.552 329.412 825.851C329.412 826.234 329.498 826.576 329.711 826.917C329.881 827.215 330.18 827.471 330.521 827.684Z" fill="#FDFDFD"/>
                    <path d="M338.498 822.779L340.161 823.76L340.417 825.125L340.502 825.167C340.801 824.826 341.185 824.656 341.569 824.656C341.995 824.656 342.507 824.826 343.104 825.167C344.213 825.807 345.065 826.703 345.62 827.854C346.174 828.963 346.473 830.456 346.473 832.247C346.473 833.1 346.387 833.867 346.217 834.464C346.046 835.061 345.79 835.488 345.407 835.786C345.065 836.085 344.639 836.213 344.127 836.17C343.616 836.127 343.061 835.957 342.421 835.573C342.038 835.36 341.739 835.147 341.526 834.933C341.27 834.763 341.057 834.507 340.801 834.251V838.43L338.498 837.108V822.779ZM342.464 827.044C341.995 826.788 341.654 826.703 341.398 826.831C341.142 826.959 340.971 827.214 340.801 827.641V831.905C340.971 832.161 341.142 832.375 341.313 832.588C341.526 832.801 341.782 832.972 342.08 833.142C342.763 833.526 343.232 833.526 343.573 833.185C343.914 832.844 344.085 832.033 344.085 830.797C344.085 829.901 343.957 829.133 343.701 828.494C343.445 827.854 343.018 827.342 342.464 827.044ZM355.172 841.757C354.831 841.885 354.32 841.885 353.723 841.757C353.125 841.629 352.486 841.373 351.803 840.989C350.354 840.179 349.33 839.07 348.648 837.748C347.965 836.383 347.667 834.891 347.667 833.185C347.667 831.394 348.051 830.242 348.776 829.773C349.501 829.304 350.567 829.475 351.931 830.242C352.401 830.498 352.827 830.839 353.253 831.223C353.68 831.607 354.064 832.033 354.405 832.545C354.746 833.057 355.002 833.611 355.215 834.294C355.428 834.933 355.514 835.658 355.514 836.469C355.514 836.767 355.514 837.066 355.471 837.364C355.428 837.663 355.386 838.004 355.343 838.302L350.012 835.232C350.055 836.127 350.226 836.852 350.567 837.492C350.908 838.132 351.505 838.686 352.273 839.113C352.742 839.411 353.168 839.539 353.552 839.624C353.936 839.667 354.234 839.667 354.447 839.624L355.172 841.757ZM351.889 832.332C351.292 831.991 350.823 831.948 350.524 832.204C350.226 832.46 350.055 832.886 350.012 833.569L353.296 835.488C353.339 834.763 353.253 834.166 352.998 833.611C352.784 833.057 352.401 832.63 351.889 832.332ZM359.991 841.202L359.352 840.861V845.083L357.049 843.761V833.526L359.352 834.848V839.198L359.906 839.24L361.996 836.383L364.469 837.791L362.337 840.435L361.441 840.69L362.422 842.055L364.81 848.196L362.166 846.661L359.991 841.202ZM371.122 843.974L369.373 842.951C369.288 843.889 369.203 844.784 369.118 845.68C369.032 846.576 368.862 847.343 368.648 847.983C368.435 848.623 368.179 849.092 367.796 849.347C367.454 849.603 366.985 849.561 366.431 849.262C365.749 848.878 365.279 848.495 364.981 848.111L365.279 846.064C365.45 846.234 365.663 846.405 365.791 846.49C366.047 846.618 366.218 846.618 366.431 846.49C366.601 846.362 366.772 846.021 366.857 845.509C366.985 844.998 367.071 844.23 367.156 843.249C367.241 842.268 367.284 840.989 367.326 839.411L373.425 842.908V853.143L371.122 851.821V843.974ZM375.344 844.656C375.813 844.699 376.367 844.827 377.007 845.04C377.647 845.254 378.329 845.595 379.054 845.978C379.651 846.32 380.163 846.703 380.589 847.13C381.016 847.514 381.314 847.94 381.57 848.409C381.826 848.878 381.997 849.347 382.082 849.817C382.167 850.328 382.252 850.84 382.252 851.394C382.252 851.992 382.252 852.589 382.21 853.186C382.167 853.783 382.167 854.337 382.124 854.934C382.124 855.531 382.124 856.085 382.167 856.683C382.21 857.237 382.295 857.834 382.423 858.388L380.547 857.322L380.163 855.702L380.077 855.659C379.822 855.958 379.523 856.128 379.097 856.171C378.67 856.213 378.158 856.085 377.476 855.702C377.05 855.446 376.708 855.19 376.367 854.849C376.026 854.508 375.77 854.124 375.514 853.74C375.259 853.314 375.088 852.93 374.96 852.461C374.832 852.034 374.747 851.565 374.747 851.139C374.747 850.499 374.875 850.072 375.088 849.774C375.344 849.475 375.685 849.347 376.154 849.347C376.623 849.347 377.178 849.475 377.775 849.731C378.414 849.987 379.139 850.371 379.907 850.84C379.992 850.115 379.95 849.561 379.779 849.134C379.608 848.708 379.225 848.281 378.585 847.94C378.116 847.684 377.647 847.428 377.092 847.258C376.581 847.087 376.154 846.959 375.813 846.959L375.344 844.656ZM378.286 853.953C378.755 854.209 379.097 854.294 379.395 854.252C379.651 854.166 379.864 854.038 379.992 853.825V852.503C379.608 852.247 379.267 852.034 378.926 851.864C378.585 851.693 378.286 851.608 378.03 851.522C377.775 851.48 377.561 851.48 377.391 851.565C377.22 851.65 377.178 851.821 377.178 852.119C377.178 852.503 377.263 852.844 377.476 853.186C377.689 853.484 377.945 853.74 378.286 853.953ZM391.805 859.071L391.933 857.024L391.848 856.981L391.123 858.346L389.459 860.563L388.607 860.094L386.773 855.872L386.09 853.74L386.005 853.697L386.218 855.958V860.649L384.171 859.454V849.22L386.56 850.584L388.607 855.616L389.118 857.194L389.204 857.237L389.715 856.213L391.592 853.484L394.023 854.891V865.126L391.805 863.847V859.071ZM395.942 856.555C396.411 856.597 396.965 856.725 397.605 856.938C398.244 857.152 398.927 857.493 399.652 857.877C400.249 858.218 400.761 858.602 401.187 859.028C401.613 859.412 401.912 859.838 402.168 860.307C402.424 860.776 402.594 861.246 402.68 861.715C402.765 862.226 402.85 862.738 402.85 863.293C402.85 863.89 402.85 864.487 402.808 865.084C402.765 865.681 402.765 866.235 402.722 866.832C402.722 867.429 402.722 867.984 402.765 868.581C402.808 869.135 402.893 869.732 403.021 870.286L401.144 869.22L400.761 867.6L400.675 867.557C400.419 867.856 400.121 868.026 399.694 868.069C399.268 868.112 398.756 867.984 398.074 867.6C397.647 867.344 397.306 867.088 396.965 866.747C396.624 866.406 396.368 866.022 396.112 865.638C395.856 865.212 395.686 864.828 395.558 864.359C395.43 863.932 395.345 863.463 395.345 863.037C395.345 862.397 395.473 861.971 395.686 861.672C395.942 861.374 396.283 861.246 396.752 861.246C397.221 861.246 397.775 861.374 398.372 861.629C399.012 861.885 399.737 862.269 400.505 862.738C400.59 862.013 400.547 861.459 400.377 861.032C400.206 860.606 399.822 860.179 399.183 859.838C398.714 859.582 398.244 859.327 397.69 859.156C397.178 858.985 396.752 858.857 396.411 858.857L395.942 856.555ZM398.884 865.851C399.353 866.107 399.694 866.192 399.993 866.15C400.249 866.065 400.462 865.937 400.59 865.723V864.401C400.206 864.145 399.865 863.932 399.524 863.762C399.183 863.591 398.884 863.506 398.628 863.421C398.372 863.378 398.159 863.378 397.989 863.463C397.818 863.548 397.775 863.719 397.775 864.018C397.775 864.401 397.861 864.743 398.074 865.084C398.287 865.382 398.543 865.638 398.884 865.851Z" fill="#E04E39"/>
                    <path d="M177.574 314.147L175.634 312.953L182.649 298.027L184.291 299.072L191.306 322.058L189.216 320.864L187.127 313.998L179.664 309.67L177.574 314.147ZM186.231 311.311L183.246 301.61L180.261 307.878L186.231 311.311ZM203.098 322.655L197.575 319.371V317.431L203.098 320.715V322.655ZM220.859 329.82C220.859 332.805 220.412 335.044 219.516 336.089C218.621 337.283 217.277 337.432 215.635 336.387C213.844 335.342 212.501 333.7 211.605 331.461C210.71 329.223 210.262 326.685 210.262 323.7C210.262 320.715 210.71 318.625 211.605 317.431C212.501 316.237 213.844 316.088 215.635 317.133C217.426 318.177 218.77 319.819 219.665 322.058C220.412 324.297 220.859 326.834 220.859 329.82ZM215.635 334.297C216.829 334.894 217.576 334.745 218.173 333.85C218.77 332.954 218.919 331.163 218.919 328.626C218.919 326.088 218.621 323.998 218.173 322.506C217.576 320.864 216.829 319.819 215.635 319.222C213.396 317.879 212.352 319.819 212.352 324.894C212.352 329.969 213.396 333.103 215.635 334.297ZM223.994 327.282L222.949 325.043L226.83 323.849L228.173 324.596V343.402L226.382 342.357V326.536L223.994 327.282Z" fill="#E04E39"/>
                    <path d="M141.453 153.991L129.363 147.125V144.289L156.081 159.663V162.499L143.991 155.484V190.261L141.453 188.768V153.991ZM155.036 176.529L154.439 173.842C156.529 173.544 158.767 174.141 161.156 175.484C163.842 177.126 165.783 178.917 167.126 181.305C168.32 183.544 168.917 186.38 168.917 189.664V204.59L166.529 203.247V199.515C164.887 201.157 162.499 201.157 159.364 199.366C157.424 198.172 155.782 196.679 154.737 194.739C153.543 192.798 152.946 190.709 152.946 188.47C152.946 186.082 153.693 184.738 155.185 184.291C156.678 183.843 158.618 184.291 160.857 185.634C163.245 186.977 165.036 188.768 166.529 190.709C166.529 188.171 166.38 186.231 166.081 184.738C165.783 183.246 165.335 182.052 164.589 181.156C163.842 180.261 162.648 179.216 161.156 178.171C159.066 176.977 157.126 176.529 155.036 176.529ZM159.961 197.276C162.499 198.769 164.738 198.769 166.38 197.127V193.097C164.887 190.858 163.096 189.216 161.006 188.022C159.364 187.127 158.021 186.828 156.976 187.127C155.931 187.425 155.334 188.321 155.334 189.962C155.334 191.455 155.782 192.798 156.678 194.142C157.424 195.336 158.618 196.53 159.961 197.276ZM192.948 218.62L190.56 217.128V195.784L181.604 190.709L181.306 195.784C180.858 202.351 179.962 206.232 178.32 207.575C177.126 208.769 175.484 208.769 173.693 207.724L173.544 204.888C174.29 205.336 175.037 205.336 175.783 204.888C177.425 203.993 178.47 200.411 178.917 193.843L179.216 186.529L192.799 194.291V218.62H192.948ZM209.814 228.77C206.53 226.979 203.993 224.143 201.903 220.71C199.814 217.128 198.769 213.545 198.769 209.963C198.769 206.381 199.814 203.844 201.903 202.65C203.993 201.455 206.53 201.754 209.814 203.694C213.098 205.635 215.635 208.321 217.725 211.754C219.815 215.337 220.859 218.919 220.859 222.501C220.859 226.083 219.815 228.621 217.725 229.815C215.635 231.009 212.949 230.71 209.814 228.77ZM209.814 226.233C212.352 227.725 214.292 227.874 215.934 226.979C217.576 226.083 218.322 224.143 218.322 221.158C218.322 218.322 217.576 215.486 215.934 212.65C214.292 209.814 212.352 207.724 209.814 206.381C207.426 205.038 205.336 204.739 203.695 205.635C202.053 206.53 201.306 208.471 201.306 211.456C201.306 214.441 202.053 217.128 203.695 219.964C205.336 222.65 207.277 224.74 209.814 226.233ZM245.189 248.771L242.651 247.278V236.382L229.069 228.471V239.367L226.68 238.024V213.844L229.069 215.187V225.785L242.651 233.696V223.098L245.039 224.441V248.771H245.189ZM290.713 237.427V275.04L288.623 273.846L267.279 229.218V261.607L264.891 260.264V222.501L266.981 223.695L288.325 268.473V236.084L290.713 237.427ZM302.504 263.995C300.265 262.652 298.325 260.711 296.832 258.174C295.34 255.637 294.594 253.099 294.594 250.562C294.594 248.024 295.34 246.383 296.832 245.636C298.325 244.89 300.265 245.188 302.504 246.532C304.743 247.875 306.684 249.816 308.176 252.353C309.669 254.89 310.415 257.428 310.415 259.965C310.415 262.503 309.669 264.144 308.176 264.891C306.684 265.637 304.892 265.339 302.504 263.995ZM296.832 251.905C296.832 253.696 297.429 255.637 298.474 257.577C299.668 259.368 301.012 260.861 302.504 261.756C304.146 262.652 305.489 262.801 306.534 262.204C307.579 261.607 308.176 260.413 308.176 258.622C308.176 256.831 307.579 254.89 306.385 253.099C305.34 251.308 303.997 249.816 302.355 248.92C300.862 248.024 299.519 247.875 298.325 248.472C297.429 248.92 296.832 250.114 296.832 251.905ZM309.072 273.996L296.086 266.533V263.846L309.072 271.309V273.996Z" fill="#623B2A"/>
                    <path d="M175.634 418.33V399.523L184.888 404.897V406.986L177.574 402.807V408.18C178.47 408.479 179.216 408.927 180.112 409.524C181.903 410.569 183.246 411.912 184.291 413.405C185.336 414.897 185.783 416.688 185.783 418.33C185.783 420.271 185.186 421.465 184.142 421.763C183.097 422.211 181.455 421.763 179.515 420.718C179.216 420.569 178.47 420.121 177.276 419.375C177.126 419.226 176.828 419.076 176.529 418.927C176.231 418.778 176.082 418.629 175.932 418.479C175.783 418.33 175.634 418.33 175.634 418.33ZM179.962 411.464C179.216 411.016 178.47 410.718 177.574 410.27V417.285C178.47 417.882 179.216 418.33 179.813 418.629C181.156 419.375 182.052 419.673 182.798 419.375C183.545 419.076 183.843 418.479 183.843 417.285C183.843 416.241 183.545 415.046 182.798 414.151C182.052 413.106 181.156 412.21 179.962 411.464ZM198.918 425.345L193.396 422.062V420.121L198.918 423.405V425.345ZM216.68 432.51C216.68 435.495 216.232 437.734 215.337 438.779C214.441 439.973 213.098 440.122 211.456 439.077C209.665 438.032 208.322 436.391 207.426 434.152C206.531 431.913 206.083 429.375 206.083 426.39C206.083 423.405 206.531 421.315 207.426 420.121C208.322 418.927 209.665 418.778 211.456 419.823C213.247 420.868 214.591 422.509 215.486 424.748C216.232 426.987 216.68 429.674 216.68 432.51ZM211.456 437.137C212.65 437.734 213.396 437.585 213.993 436.689C214.591 435.793 214.74 434.002 214.74 431.465C214.74 428.928 214.441 426.838 213.993 425.345C213.396 423.703 212.65 422.659 211.456 422.062C209.217 420.718 208.172 422.659 208.172 427.733C208.023 432.659 209.217 435.793 211.456 437.137ZM228.919 449.078L218.919 443.406V441.615C221.009 440.421 222.651 439.376 223.546 438.629C225.337 437.137 226.233 435.495 226.233 433.704C226.233 432.808 225.934 431.913 225.486 431.166C225.039 430.271 224.442 429.674 223.546 429.226C222.8 428.778 222.203 428.778 221.606 428.928C221.009 429.077 220.71 429.674 220.561 430.569L218.919 428.928C219.068 427.733 219.665 426.987 220.412 426.689C221.307 426.39 222.352 426.539 223.546 427.286C225.039 428.181 226.083 429.226 226.83 430.569C227.576 431.913 228.024 433.256 228.024 434.599C228.024 436.988 226.979 439.077 225.039 440.57C224.143 441.316 223.397 441.764 222.949 442.062C222.501 442.361 221.904 442.659 221.307 442.958L228.77 447.286V449.078H228.919Z" fill="#E04E39"/>
                    <path d="M175.634 512.363V493.557C177.723 494.751 179.216 495.497 180.112 496.094C181.903 497.139 183.246 498.333 183.992 499.527C184.888 500.87 185.336 502.214 185.336 503.706C185.336 504.751 185.037 505.497 184.589 505.945C184.142 506.393 183.395 506.542 182.5 506.393C183.545 507.139 184.44 508.184 185.037 509.229C185.634 510.274 185.933 511.468 185.933 512.811C185.933 514.602 185.336 515.647 184.291 515.946C183.246 516.244 181.753 515.946 179.962 514.751C178.171 514.005 176.679 513.11 175.634 512.363ZM180.112 506.542L177.425 505.05V511.468C178.022 511.916 178.917 512.363 179.962 512.96C181.156 513.707 182.052 513.856 182.798 513.707C183.395 513.557 183.843 512.811 183.843 511.766C183.843 510.721 183.545 509.826 182.798 508.93C182.201 508.035 181.306 507.289 180.112 506.542ZM179.962 498.333C179.515 498.034 178.619 497.587 177.574 496.99V503.109L180.112 504.602C181.007 505.199 181.753 505.348 182.35 505.05C182.948 504.751 183.246 504.154 183.246 503.259C183.246 501.169 182.201 499.527 179.962 498.333ZM198.918 519.677L193.396 516.393V514.453L198.918 517.737V519.677ZM216.68 526.842C216.68 529.827 216.232 532.066 215.337 533.11C214.441 534.304 213.098 534.454 211.456 533.409C209.665 532.364 208.322 530.722 207.426 528.483C206.531 526.244 206.083 523.707 206.083 520.722C206.083 517.737 206.531 515.647 207.426 514.453C208.322 513.259 209.665 513.11 211.456 514.154C213.247 515.199 214.591 516.841 215.486 519.08C216.232 521.319 216.68 523.856 216.68 526.842ZM211.456 531.469C212.65 532.066 213.396 531.916 213.993 531.021C214.591 530.125 214.74 528.334 214.74 525.797C214.74 523.259 214.441 521.17 213.993 519.677C213.396 518.035 212.65 516.99 211.456 516.393C209.217 515.05 208.172 516.99 208.172 522.065C208.172 526.991 209.217 530.125 211.456 531.469ZM223.695 540.573C222.501 539.976 221.606 539.081 220.71 538.036C219.815 536.991 219.218 535.797 218.77 534.603L219.815 533.707C220.113 534.752 220.71 535.648 221.456 536.543C222.203 537.439 222.949 538.036 223.695 538.484C224.74 539.081 225.486 539.23 226.083 538.932C226.681 538.633 226.979 538.036 226.979 536.991C226.979 535.946 226.681 535.051 226.083 534.006C225.486 533.11 224.74 532.364 223.695 531.767L222.352 531.021V528.931L223.546 529.528C224.292 529.976 224.889 529.976 225.486 529.677C226.083 529.379 226.382 528.782 226.382 527.886C226.382 526.991 226.083 526.095 225.636 525.349C225.188 524.603 224.591 523.856 223.695 523.409C222.203 522.513 221.158 522.662 220.412 523.856L219.367 521.767C219.665 521.02 220.262 520.573 221.158 520.573C221.904 520.573 222.949 520.722 223.994 521.319C225.337 522.065 226.382 523.11 227.278 524.453C228.173 525.797 228.472 527.14 228.472 528.633C228.472 529.677 228.322 530.424 227.875 531.021C227.427 531.618 226.83 531.767 225.934 531.767V531.916C226.83 532.663 227.725 533.558 228.173 534.752C228.77 535.946 229.069 537.14 229.069 538.185C229.069 539.827 228.621 540.872 227.576 541.32C226.531 541.618 225.337 541.469 223.695 540.573Z" fill="#E04E39"/>
                </svg>