                        <svg class="pub__service-img" width="705" height="664" viewBox="0 0 705 664" fill="none" xmlns="http://www.w3.org/2000/svg">
                            <path d="M43.7027 521.769C59.1291 520.835 55.6698 494.656 51.5561 480.445C50.0602 475.303 43.8896 472.779 38.841 474.462C33.7923 476.145 30.6136 485.774 30.8005 491.104C30.8005 496.152 25.4714 522.891 43.7027 521.769Z" fill="#E04E39"/>
                            <path d="M52.1142 494.562C54.7321 472.498 30.6107 470.721 33.883 494.656C34.7244 501.013 38.7447 505.688 42.8584 505.875C49.029 506.249 51.5533 499.143 52.1142 494.562Z" fill="#FFAE80"/>
                            <path d="M123.537 485.869C130.268 491.198 138.683 494.096 147.191 493.816C148.313 493.816 149.622 493.629 150.369 492.694C151.491 491.291 150.743 489.141 149.715 487.645C141.955 475.024 127.37 464.178 121.013 450.715C120.265 449.126 119.61 447.443 118.301 446.415C116.338 444.825 113.44 445.199 111.009 444.545C108.765 443.984 106.334 442.488 104.277 443.61C102.407 444.638 102.033 447.163 101.472 449.313C100.911 451.557 99.7895 457.26 99.0416 459.504C98.2936 461.748 97.8261 464.178 98.4806 466.516C99.322 469.321 101.659 471.377 104.184 472.78C106.708 474.089 109.419 474.93 111.944 476.333C116.338 478.857 119.704 482.784 123.537 485.869Z" fill="#FFAE80"/>
                            <path d="M150.373 492.788C149.625 493.723 148.316 493.817 147.194 493.817C138.78 494.097 130.272 491.199 123.54 485.87C119.614 482.784 116.248 478.764 111.947 476.427C109.423 475.024 106.712 474.183 104.187 472.874C101.663 471.472 99.3256 469.415 98.4842 466.61C97.8297 464.366 98.2972 461.935 98.9516 459.598C99.6061 457.635 100.448 452.212 101.102 450.249C101.195 449.968 101.289 449.688 101.382 449.314C101.943 447.163 102.317 444.639 104.281 443.611C106.338 442.489 108.768 443.891 111.012 444.545C113.443 445.106 116.341 444.826 118.305 446.415C119.614 447.444 120.268 449.127 121.016 450.716C123.54 456.045 127.374 460.346 131.487 464.46C137.845 470.724 145.044 479.98 149.719 487.646C150.747 489.235 151.495 491.386 150.373 492.788Z" fill="#E04E39"/>
                            <path d="M136.07 471.939C136.164 472.78 135.883 473.715 135.135 474.183C134.574 474.557 133.733 474.557 133.079 474.463C125.599 473.902 118.961 469.415 113.164 464.553C110.173 462.122 107.274 459.504 104.844 456.419C103.348 454.549 102.132 452.492 101.197 450.248C101.291 449.968 101.384 449.687 101.478 449.313C102.039 447.163 102.132 442.675 104.002 441.647C106.059 440.525 108.77 441.741 111.014 442.301C113.445 442.862 117.185 441.554 119.148 443.143C120.457 444.171 119.896 447.818 120.644 449.313C123.168 454.643 127.375 460.252 131.489 464.366C132.798 466.142 134.013 467.825 134.948 469.415C135.509 470.35 135.883 471.097 136.07 471.939Z" fill="#FFAE80"/>
                            <path d="M128.961 319.17C128.774 322.629 128.493 326.556 128.213 330.95C127.932 335.063 127.652 339.551 127.371 344.319C127.091 348.153 126.904 352.173 126.623 356.286C124.005 397.517 120.733 449.313 120.733 449.406C116.806 456.699 102.782 458.194 101.473 449.406C99.9776 422.106 95.1159 398.359 91.7502 376.481C90.6282 369.002 89.5998 361.803 88.9454 354.791C88.3844 348.807 88.1039 342.917 88.1974 337.027V336.279C88.2909 331.23 88.6649 326.275 89.5063 321.32C89.7868 319.824 90.0673 318.422 90.3478 316.926L122.136 296.264C122.042 297.199 128.961 318.235 128.961 319.17Z" fill="#FFAE80"/>
                            <path d="M91.6708 273.638C86.4352 300.658 83.3499 321.975 80.1711 338.336C79.8907 339.551 79.7037 340.767 79.4232 341.982C78.1143 348.246 76.7119 353.762 75.1225 358.437C74.842 359.559 74.468 360.587 74.0941 361.522L71.4762 374.144L70.3543 379.66L49.8792 477.454L49.1313 480.914L48.4768 484.092C48.4768 491.759 36.6967 489.141 35.9487 482.69C35.8552 482.222 35.8552 481.661 35.7617 481.194C35.5747 479.698 35.4812 478.296 35.2943 476.893C29.0302 417.899 30.8066 394.058 34.8268 371.807C35.2943 368.908 35.8552 366.103 36.4162 363.205C37.2576 359.091 38.0991 354.791 38.9405 350.303C38.7535 348.807 38.5665 347.405 38.473 345.909C38.3795 345.535 38.3795 345.161 38.3795 344.787C38.286 344.6 38.286 344.413 38.286 344.133C34.8268 313.373 35.6682 289.813 36.5097 273.545H91.6708V273.638Z" fill="#FFAE80"/>
                            <path d="M91.6708 273.638C86.4352 300.658 83.3499 321.975 80.1711 338.336C79.8907 339.551 79.7037 340.767 79.4232 341.982C78.1143 348.246 76.7119 353.762 75.1225 358.437C74.842 359.559 74.468 360.587 74.0941 361.522L71.4762 374.144L70.3543 379.66L49.8792 477.454L49.1313 480.914L48.4768 484.092C48.4768 491.759 36.6967 489.141 35.9487 482.69C35.8552 482.222 35.8552 481.661 35.7617 481.194C35.5747 479.698 35.4812 478.296 35.2943 476.893C29.0302 417.899 30.8066 394.058 34.8268 371.807C35.2943 368.908 35.8552 366.103 36.4162 363.205C37.2576 359.091 38.0991 354.791 38.9405 350.303C38.7535 348.807 38.5665 347.405 38.473 345.909C38.3795 345.535 38.3795 345.161 38.3795 344.787C38.286 344.6 38.286 344.413 38.286 344.133C34.8268 313.373 35.6682 289.813 36.5097 273.545H91.6708V273.638Z" fill="#FFBB7D"/>
                            <path d="M80.1647 338.338C79.8842 339.553 79.6972 340.769 79.4167 341.984C78.1078 348.248 76.7054 353.764 75.116 358.439C74.8355 359.561 74.4616 360.589 74.0876 361.524L71.4698 374.146L70.3478 379.662C58.5677 379.849 46.4135 377.512 34.8203 371.715C35.2878 368.817 35.8487 366.012 36.4097 363.114C37.2511 359 38.0926 354.699 38.934 350.212C38.747 348.716 38.5601 347.313 38.4666 345.817C38.3731 345.443 38.3731 345.069 38.3731 344.695L80.1647 338.338Z" fill="#FFAE80"/>
                            <path d="M128.217 330.949C127.937 335.063 127.656 339.551 127.376 344.319C127.095 348.152 126.908 352.172 126.628 356.286C118.587 365.168 106.059 372.554 91.6613 376.574C90.5394 369.095 89.5109 361.896 88.8565 354.884C88.2955 348.9 88.015 343.01 88.1085 337.12L128.217 330.949Z" fill="#FFAE80"/>
                            <path d="M127.56 341.795C122.792 354.884 57.5332 381.249 36.8711 360.774L30.7941 270.646C25.1845 241.009 30.1396 225.77 45.4726 211.465C47.3424 209.782 49.3058 208.006 51.4561 206.323L97.268 204.453L115.219 203.705C130.739 253.444 131.206 307.483 127.56 341.795Z" fill="#623B2A"/>
                            <path opacity="0.5" d="M115.219 203.801C110.825 214.272 105.028 222.406 93.4347 225.398C81.8415 228.296 58.6551 225.865 45.4726 211.561C30.1396 225.865 25.1845 241.105 30.7941 270.742L36.8711 360.87C38.741 362.646 41.9198 364.89 46.9684 366.667C42.7612 335.159 47.5294 262.702 54.2609 238.019C92.2193 239.515 108.3 230.633 117.182 209.691L115.219 203.801Z" fill="#2D2856"/>
                            <path d="M72.5906 72.1601C72.5906 82.8183 63.9892 91.4197 53.3309 91.4197C42.6727 91.4197 34.0713 82.8183 34.0713 72.1601C34.0713 61.5018 42.6727 52.9004 53.3309 52.9004C63.9892 52.9004 72.5906 61.5018 72.5906 72.1601Z" fill="#0B1017"/>
                            <path d="M205.071 187.437L198.994 198.47C196.751 197.815 194.6 197.254 192.356 196.506C171.788 190.149 151.5 180.612 131.399 168.271L99.0498 128.349L93.3467 121.244L98.5823 75.6191C111.017 75.8996 129.996 110.305 149.63 147.983L205.071 187.437Z" fill="#E3CCB7"/>
                            <path d="M192.44 196.507C171.872 190.15 151.584 180.613 131.483 168.272L99.1338 128.35C100.817 124.05 104.369 114.887 104.182 115.822C103.528 118.44 135.503 162.756 135.596 165.28L192.44 196.507Z" fill="#C39367" fill-opacity="0.4"/>
                            <path d="M240.977 217.822C241.725 220.44 240.696 221.469 237.517 220.534L234.806 219.412C235.274 220.627 234.619 221.001 232.749 220.721C232.562 220.721 232.375 220.627 232.095 220.627L201.429 205.107C198.437 203.331 196.848 201.274 196.193 199.03C195.445 196.599 195.913 193.888 196.941 191.083C196.941 191.083 203.112 178.555 218.351 191.831C226.485 198.937 231.44 202.957 234.245 205.107C234.526 205.294 234.806 205.481 234.993 205.668C236.863 207.164 237.611 207.538 237.611 207.538C239.294 209.782 239.387 211.371 237.611 212.026L240.883 214.644C242.379 216.14 242.66 217.262 240.977 217.822Z" fill="#FFAE80"/>
                            <path opacity="0.15" d="M235.084 205.482C235.084 205.575 232.746 220.721 232.746 220.721C232.559 220.721 232.372 220.628 232.092 220.628L201.426 205.108C198.434 203.331 196.845 201.274 196.19 199.031C202.641 201.742 205.82 197.441 208.438 193.327C211.523 188.559 230.035 202.396 234.242 205.014C234.803 205.295 235.084 205.482 235.084 205.482Z" fill="#1D1D1B"/>
                            <g filter="url(#filter0_d)">
                            <path d="M217.187 153.008L203.999 240.168L243.316 267.008L256.999 177.042L217.187 153.008Z" fill="#EDEDED"/>
                            </g>
                            <path d="M199.732 196.788C199.732 196.788 205.436 202.304 214.785 199.406L224.321 202.023C230.866 203.519 230.024 198.471 225.35 197.255C225.35 197.255 211.887 191.646 207.866 187.064L199.732 196.788Z" fill="#FFAE80"/>
                            <path d="M134.481 157.989C134.574 167.245 125.692 175.66 114.753 174.257C114.753 175.192 114.753 175.847 114.66 176.501C114.379 182.204 113.351 188.936 113.445 195.106C113.445 195.761 113.445 196.415 113.538 196.976C113.632 198.566 113.818 200.155 114.192 201.744C114.379 202.492 114.566 203.147 114.753 203.895C110.266 214.553 104.376 222.78 92.5955 225.772C89.6037 226.52 85.9574 226.894 81.9372 226.894C69.6895 226.801 53.8891 222.687 43.7918 211.748C46.0357 195.2 40.4261 173.977 34.536 156.213C30.0483 142.469 25.3736 130.783 24.1582 124.893C34.91 111.336 47.9056 100.117 61.7426 90.4871C75.5796 80.8573 81.9372 68.6096 97.7376 74.4997C113.538 80.3898 115.408 111.897 121.204 124.238C126.908 136.392 134.481 145.087 134.481 157.989Z" fill="#E3CCB7"/>
                            <path d="M114.187 201.65C114.374 202.398 114.561 203.053 114.748 203.801C108.765 221.003 97.6391 228.763 81.8387 226.8C69.5911 226.707 53.7907 222.593 43.6934 211.654C45.9372 195.106 40.3276 173.883 34.4375 156.119L48.742 152.473L64.2619 177.248C76.3226 197.537 107.643 193.61 108.952 172.854L114.655 174.444C114.655 175.192 114.655 175.846 114.561 176.5C114.374 184.634 113.44 190.151 113.346 195.106C113.346 195.76 113.346 196.415 113.44 196.976C113.627 198.565 113.72 200.061 114.187 201.65Z" fill="#D8B89A"/>
                            <path d="M23.9728 124.89C10.9772 147.609 3.68472 173.133 1.34738 201.274C-2.29887 221.936 1.62786 259.427 10.9772 279.248C13.3146 276.349 17.4283 275.134 23.9728 275.882C25.4687 248.301 27.3386 221.562 23.9728 207.258L44.7284 161.726C59.1264 130.593 35.6595 110.024 23.9728 124.89Z" fill="#E3CCB7"/>
                            <path d="M49.3124 297.292C48.1904 297.946 46.5076 298.04 44.9182 296.731C41.4589 293.085 37.8127 290.28 33.138 291.869C32.2965 293.365 32.203 295.422 32.764 297.853L32.8575 298.414C34.0729 303.556 37.5322 310.194 41.0849 316.832C41.4589 317.954 41.1784 318.795 40.6175 319.263C39.776 319.917 38.4671 320.011 37.4387 319.356C37.6257 321.226 35.1948 321.974 33.6054 320.198L31.1746 317.58C30.8941 319.73 28.3698 319.169 27.5284 317.58L22.9472 311.97C19.8619 308.979 17.2441 305.332 15.0937 301.312C14.8132 300.751 14.4393 300.097 14.1588 299.536C12.0084 292.804 10.8865 286.073 10.98 279.435C12.5694 273.825 17.5246 273.077 23.9756 276.069L31.6421 280.089C38.8411 283.642 42.4873 288.691 50.1538 294.861C50.8083 295.516 50.3408 296.731 49.3124 297.292Z" fill="#FFAE80"/>
                            <path opacity="0.15" d="M40.513 319.169C39.6715 319.824 38.3626 319.917 37.3342 319.263C37.5212 321.132 35.0904 321.88 33.501 320.104L31.0701 317.486C30.7897 319.637 28.2653 319.076 27.4239 317.486L22.8427 311.877C19.7574 308.885 17.1396 305.239 14.9893 301.218C18.729 302.714 22.5622 301.686 26.489 299.629C29.8547 307.295 35.8383 317.767 40.513 319.169Z" fill="black"/>
                            <path opacity="0.15" d="M49.2256 297.293C48.1037 297.947 46.4208 298.04 44.8314 296.732C41.3721 293.085 37.7259 290.281 33.0512 291.87C32.2098 293.366 32.1163 295.423 32.6772 297.854L30.7139 289.626C39.3153 287.569 45.2054 295.703 49.2256 297.293Z" fill="black"/>
                            <path opacity="0.1" d="M124.663 172.946C126.72 172.011 128.87 170.516 131.208 168.365C129.525 170.329 127.374 171.918 124.663 172.946Z" fill="#1D1D1B"/>
                            <path d="M63.5214 70.1055C61.371 77.3045 59.5946 87.2148 56.8833 94.6943C55.2939 103.109 71.0008 120.031 81.3786 119.283C88.7646 117.787 88.5776 103.483 89.6995 94.6943L63.5214 70.1055Z" fill="#FFAE80"/>
                            <g filter="url(#filter1_d)">
                            <path d="M65.953 81.6039C73.339 90.8598 81.2859 98.7133 94.375 96.8434C99.2367 96.0954 103.724 88.8964 103.35 60.1004C103.257 50.2836 98.0213 38.8774 93.5336 33.4548C86.989 25.6013 76.1438 22.7965 65.6725 25.1339C50.9005 28.4996 43.795 39.9058 45.5714 54.2103C48.9372 73.7505 57.2581 80.9495 65.953 81.6039Z" fill="#FFAE80"/>
                            </g>
                            <path d="M60.9896 79.8271C60.9896 79.8271 64.3554 79.0792 67.2537 74.498C70.152 69.9168 70.6195 64.4942 71.1804 58.5106C84.6435 57.1082 98.948 47.2914 98.948 42.7102C98.2936 36.4462 94.4603 30.743 83.0541 26.1619C70.2455 21.3937 58.8393 24.3855 49.7704 34.2958C35.4659 49.8157 48.368 77.2093 60.4287 82.1645L60.9896 79.8271Z" fill="#0B1017"/>
                            <path d="M64.0684 76.0843C63.1335 74.6819 62.1985 73.2795 60.7961 72.1576C59.4872 71.1291 57.8044 70.3812 56.1215 70.4747C55.654 70.4747 55.1865 70.5682 54.8126 70.8487C53.8776 71.3161 53.4102 72.4381 53.4102 73.4665C53.4102 74.4949 53.6906 75.5233 54.1581 76.4583C54.9061 78.2347 56.028 80.011 57.5239 81.3199C58.9263 82.6288 60.7961 83.5638 62.7595 83.5638C63.5075 83.5638 64.3489 83.4703 64.9099 82.9093C65.3773 82.5354 65.5643 81.9744 65.6578 81.3199C66.0318 79.5436 65.0968 77.6737 64.0684 76.0843Z" fill="#FFAE80"/>
                            <path d="M557.639 201.46C555.395 206.602 553.245 211.557 551.094 216.325C549.225 223.618 546.139 230.069 542.493 236.426C541.278 241.101 543.615 241.288 548.103 238.764L557.359 225.114C559.883 227.357 561.753 231.097 563.249 235.678L560.724 256.621C561.379 260.641 562.968 260.267 565.025 258.023L568.765 239.044L569.139 259.426C570.541 261.109 571.757 260.548 572.785 257.836L574 251.946C575.029 254.096 576.057 253.723 577.086 251.479C577.086 251.479 577.834 226.89 577.834 226.516C577.834 226.142 569.793 197.813 569.793 197.813L566.708 191.736L554.46 195.102L557.639 201.46Z" fill="#FFAE80"/>
                            <path d="M517.983 83.8485C522.377 100.303 521.162 120.498 526.865 144.432C534.625 168.367 544.161 180.053 555.1 207.26C556.783 209.878 572.022 206.512 571.368 203.707C559.961 151.351 566.599 168.46 559.4 145.835C556.128 128.445 555.941 106.287 553.884 85.2509C552.669 71.4139 547.433 63.9344 540.141 60.7556C523.873 55.333 508.82 68.3286 517.983 83.8485Z" fill="white"/>
                            <path d="M519.578 432.019C519.578 432.019 517.334 444.36 518.456 449.689C519.578 455.018 533.695 458.477 533.695 458.477C533.695 458.477 545.662 472.969 562.398 471.753C572.308 471.005 575.674 468.388 577.17 465.489C578.759 462.591 577.263 458.851 575.3 456.14C573.336 453.429 560.621 448.754 555.573 440.62C553.048 436.6 548.935 428.279 548.935 428.279L548.467 423.791C547.719 417.434 542.484 412.478 536.033 412.198C527.338 411.824 520.513 418.836 521.167 427.25L521.354 429.962L519.578 432.019Z" fill="#0B1017"/>
                            <path d="M460.856 469.693C458.799 473.62 458.799 480.258 458.612 489.887C461.23 495.217 465.157 499.517 470.019 501.107C470.019 501.107 473.758 518.309 496.758 518.87C518.355 519.431 518.168 510.643 518.074 510.643C518.074 510.643 518.074 505.688 513.119 501.481C510.034 498.863 498.534 489.139 495.729 485.4C492.924 481.753 490.587 475.863 490.587 475.863L489.652 460.25H460.576L460.856 469.693Z" fill="#0B1017"/>
                            <g filter="url(#filter2_d)">
                            <path d="M544.074 199.406L505.741 251.295C507.611 265.6 510.603 305.241 513.969 318.704C506.863 370.032 516.025 428.091 520.233 431.364C526.123 436.225 540.053 439.124 548.187 426.969C548.187 426.969 544.167 370.686 551.74 312.066L544.074 199.406Z" fill="url(#paint0_linear)"/>
                            </g>
                            <g filter="url(#filter3_d)">
                            <path d="M517.425 241.29L506.86 337.682C494.987 397.517 489.845 475.024 489.845 475.024C482.926 487.365 464.508 482.41 458.618 475.024C457.963 467.264 457.309 459.223 456.841 450.996C454.598 415.188 454.878 375.64 468.248 341.608C463.947 316.646 459.459 269.805 461.703 246.899C457.402 233.717 455.813 215.579 463.292 196.787C463.386 196.6 463.479 196.319 463.573 196.132C463.76 196.319 463.947 196.506 464.227 196.693C467.406 199.405 471.052 201.274 474.979 202.583C502.653 211.652 544.164 188.84 544.164 189.401C545.193 217.075 535.095 228.201 517.425 241.29Z" fill="url(#paint1_linear)"/>
                            </g>
                            <path d="M478.247 343.573C464.877 367.227 459.829 407.149 456.93 450.904C454.686 415.096 454.967 375.548 468.337 341.516C464.036 316.554 459.548 269.713 461.792 246.808C457.491 233.625 455.902 215.487 463.381 196.695L464.316 196.602L478.153 194.451C476.938 197.162 475.909 199.78 474.975 202.492C469.832 217.451 469.271 231.755 474.04 245.312C468.617 273.173 472.17 307.485 478.247 343.573Z" fill="#A263C7" fill-opacity="0.1"/>
                            <path d="M550.996 154.153C549.22 165.652 546.882 176.685 544.545 187.249C544.545 187.249 544.545 190.148 542.862 193.794C540.151 199.684 533.045 207.724 514.627 209.407C502.473 211.184 493.124 211.277 485.925 210.342C480.689 209.688 476.575 208.472 473.396 206.883C473.209 206.79 473.022 206.696 472.835 206.603L470.872 205.574C461.71 199.965 461.803 192.392 461.803 192.392C458.064 173.319 455.539 153.779 453.95 133.865C453.576 128.816 453.669 121.804 453.95 114.231C454.511 99.9264 458.718 83.5651 458.624 73.7483C478.445 65.9883 483.12 61.9681 499.855 52.6187C517.058 49.066 532.858 50.4684 547.817 53.1797C557.354 89.0812 555.858 123.113 550.996 154.153Z" fill="white"/>
                            <path d="M473.303 206.791L472.742 206.511L470.778 205.482C461.616 199.872 461.709 192.299 461.709 192.299C457.97 173.227 455.445 153.687 453.856 133.773C453.482 128.724 453.576 121.712 453.856 114.139C461.336 110.025 470.217 104.977 470.217 104.977C463.486 137.232 465.73 171.357 473.303 206.791Z" fill="#D6EEEB"/>
                            <path d="M515.183 86.9335L517.987 95.8154L523.036 93.9455V83.9417L517.987 80.4824L515.183 86.9335Z" fill="url(#paint2_linear)"/>
                            <path d="M517.997 95.8152C519.399 114.514 519.399 149.761 517.997 169.488L526.318 177.435L532.021 164.439C530.899 145.18 527.159 112.083 523.046 93.9453L517.997 95.8152Z" fill="#E04E39"/>
                            <path d="M503.779 43.9238C503.218 43.9238 493.401 56.078 493.401 56.078C480.312 63.464 497.141 91.1381 514.998 88.2398L529.77 77.9555L503.779 43.9238Z" fill="#FFAE80"/>
                            <path d="M496.4 52.4336C493.969 54.1165 489.762 57.0148 486.022 60.474C486.022 60.474 493.221 93.9447 515.099 95.8146C516.688 90.018 519.026 85.4368 519.026 85.4368C505.563 83.2865 496.4 62.7179 496.4 52.4336Z" fill="#C8E6E2"/>
                            <path d="M519.298 85.5312L527.465 93.063C527.465 93.063 534.7 61.4311 527.766 54.9074C520.925 48.3821 519.298 85.5312 519.298 85.5312Z" fill="#C8E6E2"/>
                            <g filter="url(#filter4_d)">
                            <path d="M525.56 10.7363C509.573 10.9233 500.41 18.4963 499.756 35.2316C500.223 52.8084 501.158 63.3732 509.573 75.4339C514.902 82.0719 522.007 86.8401 530.235 86.4661C539.958 85.9986 554.356 62.6252 555.758 45.7029C558.189 28.5936 543.604 15.411 525.56 10.7363Z" fill="#FFAE80"/>
                            </g>
                            <path d="M553.892 57.9491C550.246 66.457 529.023 64.9611 519.674 54.4899L518.645 60.7539L510.044 53.6484L502.564 63.3717L499.76 59.5385C492.935 45.8884 493.309 23.45 512.662 12.1373C538.653 1.66601 570.815 31.8644 553.892 57.9491Z" fill="black"/>
                            <path d="M507.616 61.0345C506.587 59.2581 505.746 57.3882 505.465 55.4249C505.278 53.4615 505.839 51.3112 507.335 50.0022C508.831 48.6933 511.355 48.4129 512.945 49.7218C514.067 50.6567 514.534 52.0591 514.534 53.4615C514.534 54.8639 514.16 56.1728 513.786 57.4817C513.412 58.6971 513.132 59.9126 512.758 61.0345C512.477 61.8759 512.197 62.8109 511.449 63.1848C510.701 63.5588 509.86 63.3718 509.112 62.9044C508.457 62.3434 507.99 61.6889 507.616 61.0345Z" fill="#FFAE80"/>
                            <path d="M423.831 237.269L422.803 252.321L423.364 265.691L427.29 275.601C427.945 277.938 430.656 278.593 429.721 275.788L433.181 286.633C433.928 289.812 437.201 289.906 437.014 286.82L434.489 272.516L443.465 292.149C444.867 295.048 448.513 295.328 447.672 291.401L441.408 270.085L448.046 281.772L454.497 289.625C457.208 292.336 460.668 290.841 458.985 287.475L452.066 276.536C452.066 276.536 449.074 268.028 448.046 264.008C447.859 263.353 449.635 255.687 449.635 255.687L465.155 263.821C469.362 265.223 471.045 261.577 467.306 258.772L451.599 244.935C451.599 244.935 442.436 239.326 441.595 238.858C440.753 238.391 440.753 238.391 440.753 238.391L438.51 231.285L423.738 232.407L423.831 237.269Z" fill="#FFAE80"/>
                            <path d="M453.01 77.4894C436.181 95.5337 427.86 116.476 415.519 147.329C412.433 172.759 417.295 204.828 423.84 238.672C428.608 241.103 433.75 239.327 440.295 236.241C439.734 211.092 445.904 185.568 443.38 160.605C456.656 152.284 469.839 128.069 484.143 107.127C488.163 77.8634 471.054 61.876 453.01 77.4894Z" fill="white"/>
                            <path d="M663.553 548.507C647.939 547.572 651.305 520.926 655.606 506.528C657.102 501.293 663.366 498.768 668.601 500.451C673.743 502.134 676.922 511.951 676.829 517.373C676.548 522.516 682.064 549.629 663.553 548.507Z" fill="#623B2A"/>
                            <path d="M654.946 520.833C652.328 498.395 676.824 496.525 673.458 520.927C672.616 527.471 668.503 532.146 664.389 532.333C658.031 532.707 655.507 525.508 654.946 520.833Z" fill="#FFAE80"/>
                            <path d="M582.305 512.041C575.48 517.464 566.879 520.362 558.278 520.175C557.062 520.175 555.753 519.988 555.005 519.053C553.883 517.651 554.631 515.5 555.66 513.911C563.513 501.009 578.379 490.07 584.923 476.42C585.671 474.831 586.326 473.148 587.635 472.026C589.691 470.437 592.496 470.811 595.021 470.156C597.358 469.595 599.789 468.099 601.846 469.221C603.715 470.25 604.183 472.867 604.744 475.018C605.398 477.355 606.427 483.152 607.175 485.395C607.923 487.639 608.39 490.164 607.736 492.501C606.894 495.399 604.463 497.456 601.939 498.859C599.415 500.261 596.61 501.102 594.086 502.505C589.598 504.842 586.232 508.862 582.305 512.041Z" fill="#FFAE80"/>
                            <path d="M555.003 519.054C555.751 519.989 557.06 520.082 558.275 520.176C566.876 520.456 575.478 517.558 582.303 512.042C586.23 508.863 589.689 504.843 594.083 502.412C596.607 501.01 599.412 500.168 601.936 498.859C604.461 497.457 606.892 495.4 607.733 492.502C608.388 490.258 607.92 487.734 607.266 485.396C606.611 483.433 605.77 477.917 605.115 475.953C605.022 475.673 604.928 475.392 604.835 475.018C604.274 472.868 603.9 470.25 601.936 469.222C599.88 468.1 597.355 469.502 595.112 470.157C592.587 470.811 589.689 470.437 587.726 472.027C586.417 473.149 585.762 474.831 584.921 476.421C582.396 481.844 578.47 486.238 574.262 490.445C567.811 496.802 560.425 506.245 555.657 514.005C554.722 515.501 553.881 517.652 555.003 519.054Z" fill="#623B2A"/>
                            <path d="M569.582 497.83C569.488 498.672 569.769 499.607 570.517 500.168C571.171 500.542 571.919 500.542 572.667 500.448C580.334 499.887 587.065 495.306 592.955 490.444C596.04 487.92 599.032 485.302 601.463 482.124C602.959 480.16 604.268 478.103 605.203 475.859C605.109 475.579 605.016 475.298 604.922 474.925C604.361 472.774 604.268 468.193 602.305 467.165C600.248 466.043 597.443 467.258 595.106 467.819C592.581 468.473 588.841 467.071 586.785 468.66C585.476 469.782 586.037 473.429 585.289 474.925C582.764 480.347 578.464 486.05 574.256 490.257C572.948 492.034 571.732 493.717 570.704 495.4C570.143 496.148 569.769 496.989 569.582 497.83Z" fill="#FFAE80"/>
                            <path d="M576.799 342.54C576.986 345.999 577.266 350.113 577.547 354.507C577.827 358.714 578.108 363.295 578.388 368.157C578.669 372.084 578.856 376.104 579.136 380.311C581.847 422.29 585.12 474.926 585.12 475.02C589.047 482.406 603.351 483.995 604.753 475.02C606.249 447.252 611.204 423.131 614.664 400.88C615.879 393.307 616.814 386.014 617.469 378.815C618.029 372.645 618.31 366.661 618.216 360.771V359.929C618.123 354.787 617.749 349.739 616.908 344.69C616.627 343.194 616.347 341.698 616.066 340.202L583.717 319.26C583.811 320.195 576.799 341.605 576.799 342.54Z" fill="#FFAE80"/>
                            <path d="M614.648 296.262C619.978 323.749 623.063 345.439 626.335 362.081C626.616 363.297 626.803 364.605 627.083 365.821C628.392 372.178 629.794 377.788 631.477 382.556C631.851 383.678 632.225 384.707 632.599 385.642L635.31 398.544L636.526 404.153L657.282 503.537L658.029 507.09L658.684 510.362C658.684 518.215 670.651 515.504 671.399 508.959C671.492 508.492 671.493 507.931 671.586 507.464C671.773 505.968 671.96 504.565 672.053 503.069C678.505 443.047 676.728 418.832 672.614 396.113C672.147 393.214 671.586 390.316 671.025 387.418C670.184 383.211 669.342 378.91 668.407 374.329C668.594 372.833 668.781 371.337 668.968 369.935C669.062 369.561 669.062 369.187 669.062 368.813C669.155 368.626 669.155 368.439 669.155 368.158C672.708 336.931 671.773 312.997 671.025 296.449H614.648V296.262Z" fill="#FFAE80"/>
                            <path d="M614.648 296.262C619.978 323.749 623.063 345.439 626.335 362.081C626.616 363.297 626.803 364.605 627.083 365.821C628.392 372.178 629.794 377.788 631.477 382.556C631.851 383.678 632.225 384.707 632.599 385.642L635.31 398.544L636.526 404.153L657.282 503.537L658.029 507.09L658.684 510.362C658.684 518.215 670.651 515.504 671.399 508.959C671.492 508.492 671.493 507.931 671.586 507.464C671.773 505.968 671.96 504.565 672.053 503.069C678.505 443.047 676.728 418.832 672.614 396.113C672.147 393.214 671.586 390.316 671.025 387.418C670.184 383.211 669.342 378.91 668.407 374.329C668.594 372.833 668.781 371.337 668.968 369.935C669.062 369.561 669.062 369.187 669.062 368.813C669.155 368.626 669.155 368.439 669.155 368.158C672.708 336.931 671.773 312.997 671.025 296.449H614.648V296.262Z" fill="#FFAE80"/>
                            <path opacity="0.5" d="M626.354 362.082C626.635 363.297 626.822 364.606 627.102 365.822C628.411 372.179 629.814 377.789 631.497 382.557C631.871 383.679 632.245 384.707 632.619 385.642L635.33 398.545L636.545 404.154C648.512 404.341 660.947 401.91 672.634 396.114C672.166 393.215 671.605 390.317 671.044 387.419C670.203 383.212 669.362 378.911 668.427 374.33C668.614 372.834 668.801 371.338 668.988 369.935C669.081 369.562 669.081 369.188 669.081 368.814L626.354 362.082Z" fill="#FFAE80"/>
                            <path opacity="0.5" d="M577.542 354.51C577.822 358.717 578.103 363.298 578.383 368.16C578.664 372.087 578.851 376.107 579.131 380.314C587.265 389.383 599.98 396.862 614.659 400.883C615.874 393.31 616.809 386.017 617.464 378.818C618.025 372.648 618.305 366.664 618.212 360.774L577.542 354.51Z" fill="#FFAE80"/>
                            <path d="M543.611 222.311L594.004 212.307C594.004 212.307 613.263 148.825 612.515 147.797C611.767 146.768 593.256 108.623 593.256 108.623L578.764 188.28L535.196 210.157L543.611 222.311Z" fill="#3F76AB"/>
                            <path d="M543.611 222.311L594.004 212.307C594.004 212.307 613.263 148.825 612.515 147.797C611.767 146.768 593.256 108.623 593.256 108.623L578.764 188.28L535.196 210.157L543.611 222.311Z" fill="#9E2E3B"/>
                            <path d="M641.966 69.9141C674.034 80.3853 667.209 110.677 658.514 134.425L635.889 113.108L641.966 69.9141Z" fill="#1D1D1B"/>
                            <path d="M578.189 365.543C583.05 378.912 649.431 405.651 670.467 384.896L676.637 293.179C682.34 263.074 677.385 247.554 661.772 233.062C659.902 231.286 657.845 229.603 655.695 227.827L609.135 225.957L590.904 225.209C574.916 275.695 574.542 330.67 578.189 365.543Z" fill="url(#paint3_linear)"/>
                            <path d="M571.095 179.49C571.002 188.746 579.884 197.16 590.823 195.758C590.916 204.64 593.627 217.074 590.823 225.302C595.31 235.96 601.2 244.187 612.981 247.179C624.761 250.171 648.321 247.647 661.784 233.155C659.54 216.607 665.15 195.477 670.947 177.714C675.434 163.97 677.117 146.674 678.333 140.784C667.581 127.227 657.577 121.617 643.74 111.988C629.996 102.358 619.432 91.3255 603.631 97.2156C587.831 103.106 590.262 133.304 584.465 145.739C578.668 157.986 571.095 166.588 571.095 179.49Z" fill="#E04E39"/>
                            <path opacity="0.5" d="M590.717 225.209C595.205 235.867 601.095 244.095 612.875 247.086C624.655 250.078 648.216 247.554 661.679 233.062C677.292 247.647 682.247 263.167 676.544 293.179L670.374 384.896C668.504 386.672 665.232 389.01 660.089 390.786C664.39 358.811 659.528 285.045 652.703 259.989C614.091 261.484 597.729 252.416 588.754 231.193L590.717 225.209Z" fill="#9E2E3B"/>
                            <path opacity="0.5" d="M590.729 225.208C595.216 235.866 601.106 244.094 612.887 247.085C624.667 250.077 648.227 247.553 661.69 233.061C659.446 216.513 665.056 195.384 670.852 177.62L659.259 167.896L641.122 198.749C629.061 219.037 597.834 215.017 596.432 194.262L590.729 195.851C590.822 204.546 593.533 216.981 590.729 225.208Z" fill="#9E2E3B"/>
                            <path d="M629.44 213.521C627.85 216.606 624.672 218.943 619.997 220.813L613.453 222.216C612.798 224.179 609.9 224.46 606.908 224.834C604.758 224.553 603.729 223.525 603.916 221.748C602.14 220.533 601.205 219.224 601.859 217.448C600.27 216.232 599.522 214.83 600.457 212.96C599.055 211.464 598.494 209.875 599.522 208.005L583.441 209.875C579.982 210.249 578.766 206.976 583.441 205.948L613.265 200.525C617.379 199.497 621.68 199.497 625.981 200.525L636.171 203.143L635.61 215.484L629.44 213.521Z" fill="#FFAE80"/>
                            <path d="M678.322 140.69C695.244 161.446 713.008 219.599 700.854 228.2C686.83 240.355 656.725 226.891 628.77 215.485C630.266 208.847 630.453 203.986 626.152 200.433L677.761 206.323L657.192 173.694C649.245 146.487 662.895 130.593 678.322 140.69Z" fill="#E04E39"/>
                            <path d="M637.659 90.5781C639.716 97.5901 645.138 108.435 646.541 115.073C648.037 123.301 632.891 136.109 622.7 135.362C615.501 133.959 613.631 124.703 612.603 116.195L637.659 90.5781Z" fill="#FFAE80"/>
                            <path opacity="0.5" d="M632.42 95.9082C632.42 95.9082 638.404 145.179 614.75 141.159C599.323 138.541 602.502 113.018 602.502 113.018L632.42 95.9082Z" fill="#FFAE80"/>
                            <path d="M605.12 65.334C584.738 68.4193 561.926 93.382 596.051 107.219C595.21 95.9064 593.246 87.3985 605.12 65.334Z" fill="#1D1D1B"/>
                            <path d="M617.562 50.8429C593.815 54.1152 586.522 68.0457 588.859 86.9314C589.14 102.732 602.322 123.768 611.485 123.394C624.574 124.142 631.025 108.809 642.244 92.4476C650.939 65.4279 639.626 47.7577 617.562 50.8429Z" fill="#FFAE80"/>
                            <path d="M589.127 87.3995C594.082 92.7286 601.935 95.7204 611.846 97.9643C620.167 101.424 628.207 101.05 631.479 105.724L641.109 101.704C650.833 90.5783 651.767 58.697 635.126 51.9655C608.48 41.1202 576.786 67.9529 589.127 87.3995Z" fill="#1D1D1B"/>
                            <path d="M631.862 100.863C633.358 95.0667 637.378 91.2335 640.837 94.5992C642.427 96.1886 642.333 98.9934 640.837 102.64C639.622 105.444 637.846 106.753 635.695 107.127C632.329 107.595 630.647 105.351 631.862 100.863Z" fill="#FFAE80"/>
                            <path d="M558.001 172.197C573.054 186.315 583.151 207.631 590.724 238.671L538.554 240.354C539.302 216.233 523.502 193.701 503.588 172.197H558.001Z" fill="#D6EEEB"/>
                            <path d="M540.325 211.56C545.748 212.121 545.748 216.328 541.728 216.702C547.898 216.609 548.833 222.031 543.691 222.312C547.244 222.499 547.898 226.519 542.756 226.986C546.59 228.202 546.87 230.539 542.569 231.193L536.773 231.474C534.435 231.661 531.257 230.259 531.911 227.454C529.948 227.454 528.452 222.686 529.387 222.312C527.61 221.564 526.301 218.104 527.61 216.982C525.18 215.674 524.806 212.027 528.358 208.101L530.041 206.324L532.566 211.279L540.325 211.56Z" fill="#FFAE80"/>
                            <path d="M271.551 218.104V233.53L248.926 232.783L252.105 214.738L271.551 218.104Z" fill="#FFAE80"/>
                            <path d="M260.238 207.353L251.263 202.305L239.296 208.849C236.211 210.719 235.556 215.3 239.95 213.898L247.897 212.215C247.43 217.638 248.645 219.975 251.731 223.247L255.751 226.987L269.962 226.706L271.551 218.012L260.238 207.353Z" fill="#FFAE80"/>
                            <path d="M312.685 220.908L271.641 218.01C264.255 220.815 262.76 229.977 265.751 236.428L303.242 252.228L312.685 220.908Z" fill="#C8E6E2"/>
                            <path d="M270.144 587.498C270.144 579.458 276.314 576.372 285.57 575.438C293.61 575.438 304.362 578.99 318.573 582.263L334.748 591.144C337.833 599.465 337.739 606.851 335.963 613.676C331.382 617.603 325.679 620.034 320.35 618.632L302.212 610.965L300.903 608.347C286.318 606.571 270.144 600.026 270.144 587.498Z" fill="#0B1017"/>
                            <path d="M329.125 555.243C329.125 548.698 335.015 547.576 343.803 546.828C359.604 546.828 360.352 554.775 374.843 554.401L389.148 563.096C392.046 571.51 391.485 580.486 389.802 587.217C385.502 590.957 378.864 591.799 373.908 591.051L359.23 582.356L358.014 579.644C344.084 577.774 329.125 567.49 329.125 555.243Z" fill="#0B1017"/>
                            <path d="M381.012 331.51L328.282 353.574C328.188 362.924 328.469 371.712 329.31 378.257C332.676 402.565 342.399 439.308 342.399 439.308C349.505 470.535 352.31 509.334 353.993 550.191C354.273 564.87 376.151 577.772 390.175 563.841C394.195 514.009 394.195 465.486 382.415 433.418C388.024 408.081 382.695 379.846 381.106 350.676C382.602 350.115 379.516 332.071 381.012 331.51Z" fill="url(#paint4_linear)"/>
                            <g filter="url(#filter5_d)">
                            <path d="M341.557 383.869C341.463 413.039 341.837 436.599 334.825 461.842C344.735 493.911 342.118 541.592 335.293 591.424C326.691 600.867 314.444 600.961 306.777 595.351C301.822 591.705 298.83 585.815 299.858 578.429L294.529 467.732C294.529 467.732 286.769 431.083 284.806 406.775C282.843 382.466 291.444 327.025 291.444 327.025C296.212 328.334 300.887 329.268 305.562 329.829C336.975 333.756 365.865 322.63 374.747 304.68C375.214 305.989 375.682 307.298 376.056 308.606C379.515 319.452 381.478 330.671 381.946 342.264C382.881 367.788 357.824 377.231 341.557 383.869Z" fill="url(#paint5_linear)"/>
                            </g>
                            <path d="M284.529 234.186C287.054 250.454 287.241 266.067 287.334 280.933C287.428 286.542 287.428 292.058 287.615 297.481C288.082 307.859 289.017 317.769 291.354 327.025C295.842 328.988 300.33 330.671 304.724 332.074C331.837 340.675 356.519 336.468 376.059 308.513C380.547 296.92 393.73 257.746 397.095 217.17C397.002 198.565 390.925 185.289 375.124 180.895C346.889 187.72 318.187 205.203 289.017 230.259C287.521 231.475 286.025 232.783 284.529 234.186Z" fill="white"/>
                            <path d="M314.643 182.857L317.354 208.288C333.809 208.194 359.519 196.788 356.247 188L347.646 171.451L314.643 182.857Z" fill="#FFAE80"/>
                            <path d="M306.777 186.036C313.321 193.422 323.138 192.487 333.142 189.776C347.821 183.044 358.292 173.04 356.889 153.968C358.011 140.131 351.747 125.639 328.187 126.387C313.228 126.855 300.419 132.277 299.484 148.358C299.578 148.358 298.736 178.65 306.777 186.036Z" fill="#FFAE80"/>
                            <path d="M316.411 199.592L310.428 213.149C338.569 209.97 363.719 199.405 357.455 186.409L352.313 180.426C356.24 189.869 328.565 200.994 316.411 199.592Z" fill="#C8E6E2"/>
                            <path d="M299.671 144.431C300.793 149.948 304.346 154.155 309.208 157.801C309.208 157.801 308.086 170.236 308.74 170.516C309.395 170.703 315.939 176.313 315.939 176.313L319.305 185.756C330.524 193.796 347.166 187.719 352.215 180.333C355.207 176.593 358.385 161.354 357.637 146.675C355.861 134.428 347.073 122.554 328.281 121.806C309.675 121.058 298.082 131.903 299.671 144.431Z" fill="#0B1017"/>
                            <path d="M310.802 172.292C309.025 170.328 311.737 165.654 313.794 164.999C316.598 164.064 318.188 168.178 318.468 170.422C318.842 173.414 318.468 175.751 316.785 178.182C314.915 180.987 311.83 178.275 310.895 175.938C310.241 174.255 311.924 173.601 310.802 172.292Z" fill="#FFAE80"/>
                            <path d="M284.726 406.68C286.689 430.988 294.449 467.637 294.449 467.637L299.778 578.427C298.75 585.72 301.741 591.703 306.697 595.35C301.835 548.79 299.778 505.035 306.697 471.284C296.319 432.951 291.551 392.749 303.518 363.112C303.424 351.238 302.115 340.58 304.64 331.978C300.246 330.576 295.758 328.893 291.27 326.93C291.364 326.93 282.856 382.465 284.726 406.68Z" fill="#A263C7" fill-opacity="0.2"/>
                            <path d="M318.556 257.373L324.82 335.908L296.585 376.39L292.564 309.449L318.556 257.373Z" fill="#D6EEEB"/>
                            <path d="M269.011 383.588L283.316 378.82L284.251 378.539L284.999 380.222C285.373 381.624 289.767 404.25 289.673 404.811C289.019 411.075 285.653 417.058 282.194 423.229L270.601 431.269C270.601 431.269 264.243 433.7 263.776 430.241L267.515 424.351L265.272 415.843L263.121 411.262L260.877 416.965C257.138 425.473 251.154 424.538 252.089 420.892L255.642 412.758L257.979 399.388L269.011 383.588Z" fill="#FFAE80"/>
                            <path d="M295.94 223.808C283.505 231.474 277.802 236.616 277.334 260.644L280.42 325.809L265.741 387.421C266.957 394.153 281.729 397.893 287.338 393.779C297.249 377.511 302.297 363.58 312.955 336.374L318.846 264.945C320.435 238.58 320.902 220.348 295.94 223.808Z" fill="white"/>
                            <defs>
                            <filter id="filter0_d" x="199.999" y="153.008" width="61" height="122" filterUnits="userSpaceOnUse" color-interpolation-filters="sRGB">
                            <feFlood flood-opacity="0" result="BackgroundImageFix"/>
                            <feColorMatrix in="SourceAlpha" type="matrix" values="0 0 0 0 0 0 0 0 0 0 0 0 0 0 0 0 0 0 127 0"/>
                            <feOffset dy="4"/>
                            <feGaussianBlur stdDeviation="2"/>
                            <feColorMatrix type="matrix" values="0 0 0 0 0 0 0 0 0 0 0 0 0 0 0 0 0 0 0.11 0"/>
                            <feBlend mode="normal" in2="BackgroundImageFix" result="effect1_dropShadow"/>
                            <feBlend mode="normal" in="SourceGraphic" in2="effect1_dropShadow" result="shape"/>
                            </filter>
                            <filter id="filter1_d" x="13.2177" y="0.271401" width="122.241" height="136.957" filterUnits="userSpaceOnUse" color-interpolation-filters="sRGB">
                            <feFlood flood-opacity="0" result="BackgroundImageFix"/>
                            <feColorMatrix in="SourceAlpha" type="matrix" values="0 0 0 0 0 0 0 0 0 0 0 0 0 0 0 0 0 0 127 0"/>
                            <feOffset dy="8.02151"/>
                            <feGaussianBlur stdDeviation="16.043"/>
                            <feColorMatrix type="matrix" values="0 0 0 0 0 0 0 0 0 0 0 0 0 0 0 0 0 0 0.25 0"/>
                            <feBlend mode="normal" in2="BackgroundImageFix" result="effect1_dropShadow"/>
                            <feBlend mode="normal" in="SourceGraphic" in2="effect1_dropShadow" result="shape"/>
                            </filter>
                            <filter id="filter2_d" x="473.655" y="199.406" width="110.171" height="300.326" filterUnits="userSpaceOnUse" color-interpolation-filters="sRGB">
                            <feFlood flood-opacity="0" result="BackgroundImageFix"/>
                            <feColorMatrix in="SourceAlpha" type="matrix" values="0 0 0 0 0 0 0 0 0 0 0 0 0 0 0 0 0 0 127 0"/>
                            <feOffset dy="32.086"/>
                            <feGaussianBlur stdDeviation="16.043"/>
                            <feColorMatrix type="matrix" values="0 0 0 0 0 0 0 0 0 0 0 0 0 0 0 0 0 0 0.25 0"/>
                            <feBlend mode="normal" in2="BackgroundImageFix" result="effect1_dropShadow"/>
                            <feBlend mode="normal" in="SourceGraphic" in2="effect1_dropShadow" result="shape"/>
                            </filter>
                            <filter id="filter3_d" x="423.696" y="189.391" width="152.626" height="357.316" filterUnits="userSpaceOnUse" color-interpolation-filters="sRGB">
                            <feFlood flood-opacity="0" result="BackgroundImageFix"/>
                            <feColorMatrix in="SourceAlpha" type="matrix" values="0 0 0 0 0 0 0 0 0 0 0 0 0 0 0 0 0 0 127 0"/>
                            <feOffset dy="32.086"/>
                            <feGaussianBlur stdDeviation="16.043"/>
                            <feColorMatrix type="matrix" values="0 0 0 0 0 0 0 0 0 0 0 0 0 0 0 0 0 0 0.25 0"/>
                            <feBlend mode="normal" in2="BackgroundImageFix" result="effect1_dropShadow"/>
                            <feBlend mode="normal" in="SourceGraphic" in2="effect1_dropShadow" result="shape"/>
                            </filter>
                            <filter id="filter4_d" x="483.713" y="2.71482" width="88.3543" height="107.836" filterUnits="userSpaceOnUse" color-interpolation-filters="sRGB">
                            <feFlood flood-opacity="0" result="BackgroundImageFix"/>
                            <feColorMatrix in="SourceAlpha" type="matrix" values="0 0 0 0 0 0 0 0 0 0 0 0 0 0 0 0 0 0 127 0"/>
                            <feOffset dy="8.02151"/>
                            <feGaussianBlur stdDeviation="8.02151"/>
                            <feColorMatrix type="matrix" values="0 0 0 0 0 0 0 0 0 0 0 0 0 0 0 0 0 0 0.25 0"/>
                            <feBlend mode="normal" in2="BackgroundImageFix" result="effect1_dropShadow"/>
                            <feBlend mode="normal" in="SourceGraphic" in2="effect1_dropShadow" result="shape"/>
                            </filter>
                            <filter id="filter5_d" x="252.429" y="304.68" width="161.629" height="358.627" filterUnits="userSpaceOnUse" color-interpolation-filters="sRGB">
                            <feFlood flood-opacity="0" result="BackgroundImageFix"/>
                            <feColorMatrix in="SourceAlpha" type="matrix" values="0 0 0 0 0 0 0 0 0 0 0 0 0 0 0 0 0 0 127 0"/>
                            <feOffset dy="32.086"/>
                            <feGaussianBlur stdDeviation="16.043"/>
                            <feColorMatrix type="matrix" values="0 0 0 0 0 0 0 0 0 0 0 0 0 0 0 0 0 0 0.25 0"/>
                            <feBlend mode="normal" in2="BackgroundImageFix" result="effect1_dropShadow"/>
                            <feBlend mode="normal" in="SourceGraphic" in2="effect1_dropShadow" result="shape"/>
                            </filter>
                            <linearGradient id="paint0_linear" x1="541.223" y1="420.142" x2="527.866" y2="194.439" gradientUnits="userSpaceOnUse">
                            <stop offset="0.00505051" stop-color="#C39367"/>
                            <stop offset="1" stop-color="#704232"/>
                            </linearGradient>
                            <linearGradient id="paint1_linear" x1="524.012" y1="463.396" x2="513.288" y2="182.653" gradientUnits="userSpaceOnUse">
                            <stop offset="0.00505051" stop-color="#C39367"/>
                            <stop offset="1" stop-color="#704232"/>
                            </linearGradient>
                            <linearGradient id="paint2_linear" x1="505.775" y1="77.6695" x2="507.002" y2="95.9852" gradientUnits="userSpaceOnUse">
                            <stop offset="0.015625" stop-color="#EEE2D6"/>
                            <stop offset="1" stop-color="#F17757"/>
                            </linearGradient>
                            <linearGradient id="paint3_linear" x1="453.365" y1="194.514" x2="464.561" y2="394.648" gradientUnits="userSpaceOnUse">
                            <stop offset="0.015625" stop-color="#EEE2D6"/>
                            <stop offset="1" stop-color="#F17757"/>
                            </linearGradient>
                            <linearGradient id="paint4_linear" x1="377.885" y1="554.253" x2="368.143" y2="326.116" gradientUnits="userSpaceOnUse">
                            <stop offset="0.00505051" stop-color="#C39367"/>
                            <stop offset="1" stop-color="#704232"/>
                            </linearGradient>
                            <linearGradient id="paint5_linear" x1="359.689" y1="579.91" x2="349.865" y2="297.843" gradientUnits="userSpaceOnUse">
                            <stop offset="0.00505051" stop-color="#C39367"/>
                            <stop offset="1" stop-color="#704232"/>
                            </linearGradient>
                            </defs>
                        </svg>