<svg width="247" height="464" viewBox="0 0 247 464" fill="none" xmlns="http://www.w3.org/2000/svg">
<path d="M121.409 169.466C119.505 173.83 117.68 178.035 115.855 182.081C114.268 188.269 111.65 193.744 108.556 199.139C107.525 203.106 109.508 203.264 113.316 201.122L121.171 189.539C123.313 191.443 124.9 194.616 126.169 198.504L124.027 216.276C124.582 219.687 125.931 219.37 127.677 217.466L130.85 201.36L131.168 218.656C132.358 220.084 133.389 219.608 134.262 217.307L135.293 212.309C136.166 214.134 137.039 213.816 137.911 211.912C137.911 211.912 138.546 191.046 138.546 190.729C138.546 190.411 131.723 166.372 131.723 166.372L129.105 161.215L118.711 164.071L121.409 169.466Z" fill="#FFAE80"/>
<path d="M87.759 69.6614C91.4879 83.625 90.4564 100.762 95.2961 121.073C101.881 141.383 109.974 151.301 119.256 174.388C120.684 176.61 133.617 173.753 133.061 171.373C123.382 126.944 129.015 141.463 122.906 122.263C120.129 107.506 119.97 88.7026 118.225 70.8515C117.194 59.1094 112.751 52.7623 106.562 50.0648C92.7573 45.4632 79.9838 56.4912 87.759 69.6614Z" fill="white"/>
<path d="M89.1093 365.117C89.1093 365.117 87.2051 375.59 88.1572 380.112C89.1093 384.634 101.089 387.57 101.089 387.57C101.089 387.57 111.245 399.867 125.446 398.836C133.856 398.201 136.712 395.98 137.982 393.52C139.33 391.061 138.061 387.887 136.395 385.586C134.729 383.286 123.939 379.319 119.655 372.416C117.512 369.005 114.022 361.944 114.022 361.944L113.625 358.135C112.99 352.74 108.547 348.535 103.073 348.297C95.6944 347.98 89.9027 353.93 90.458 361.071L90.6167 363.372L89.1093 365.117Z" fill="#0B1017"/>
<path d="M39.2791 397.088C37.5337 400.421 37.5337 406.054 37.375 414.225C39.5965 418.748 42.9287 422.397 47.0543 423.746C47.0543 423.746 50.2278 438.344 69.7451 438.82C88.0723 439.296 87.9136 431.839 87.8343 431.839C87.8343 431.839 87.8343 427.634 83.6293 424.063C81.0112 421.842 71.2525 413.591 68.8724 410.417C66.4922 407.323 64.5088 402.325 64.5088 402.325L63.7154 389.075H39.0411L39.2791 397.088Z" fill="#0B1017"/>
<g filter="url(#filter0_d)">
<path d="M109.896 167.723L77.3672 211.755C78.954 223.894 81.4928 257.534 84.349 268.959C78.3193 312.515 86.0944 361.784 89.6646 364.561C94.663 368.687 106.484 371.146 113.387 360.832C113.387 360.832 109.975 313.071 116.402 263.325L109.896 167.723Z" fill="url(#paint0_linear)"/>
</g>
<g filter="url(#filter1_d)">
<path d="M87.2828 203.266L78.3175 285.064C68.2416 335.841 63.8779 401.612 63.8779 401.612C58.0069 412.085 42.3772 407.88 37.3789 401.612C36.8235 395.027 36.2682 388.204 35.8715 381.222C33.9674 350.836 34.2054 317.275 45.5508 288.396C41.9012 267.213 38.093 227.464 39.9971 208.026C36.3475 196.84 34.9987 181.448 41.3458 165.501C41.4252 165.342 41.5045 165.104 41.5839 164.946C41.7425 165.104 41.9012 165.263 42.1392 165.422C44.8367 167.722 47.9309 169.309 51.2631 170.42C74.7473 178.116 109.974 158.757 109.974 159.233C110.846 182.717 102.278 192.159 87.2828 203.266Z" fill="url(#paint1_linear)"/>
</g>
<path d="M54.0388 290.063C42.6934 310.136 38.4091 344.013 35.9496 381.144C34.0455 350.757 34.2835 317.197 45.6289 288.318C41.9793 267.135 38.1711 227.386 40.0752 207.948C36.4256 196.761 35.0769 181.37 41.424 165.423L42.2174 165.343L53.9594 163.519C52.928 165.819 52.0553 168.041 51.2619 170.342C46.8983 183.036 46.4223 195.175 50.4686 206.679C45.8669 230.322 48.8818 259.439 54.0388 290.063Z" fill="#A263C7" fill-opacity="0.1"/>
<path d="M115.774 129.322C114.266 139.081 112.283 148.442 110.299 157.408C110.299 157.408 110.299 159.867 108.871 162.961C106.57 167.96 100.541 174.783 84.9109 176.211C74.5969 177.718 66.6631 177.798 60.554 177.004C56.1111 176.449 52.6202 175.418 49.9227 174.069C49.764 173.989 49.6053 173.91 49.4466 173.831L47.7805 172.958C40.0054 168.198 40.0847 161.771 40.0847 161.771C36.9111 145.586 34.769 129.005 33.4203 112.105C33.1029 107.821 33.1822 101.871 33.4203 95.4444C33.8963 83.3056 37.4665 69.4214 37.3872 61.0908C54.2069 54.5057 58.1738 51.0942 72.3754 43.1603C86.9737 40.1455 100.382 41.3356 113.076 43.6364C121.169 74.1023 119.899 102.982 115.774 129.322Z" fill="white"/>
<path d="M49.8406 173.989L49.3646 173.751L47.6985 172.879C39.9233 168.118 40.0027 161.692 40.0027 161.692C36.8291 145.507 34.687 128.925 33.3382 112.026C33.0209 107.742 33.1002 101.791 33.3382 95.365C39.6853 91.8741 47.2224 87.5898 47.2224 87.5898C41.5101 114.962 43.4142 143.92 49.8406 173.989Z" fill="#D6EEEB"/>
<path d="M85.3828 72.279L87.763 79.8162L92.0472 78.2294V69.7402L87.763 66.8047L85.3828 72.279Z" fill="url(#paint2_linear)"/>
<path d="M87.7695 79.8153C88.9596 95.683 88.9596 125.594 87.7695 142.334L94.8306 149.078L99.6703 138.05C98.7182 121.706 95.5447 93.6202 92.0538 78.2285L87.7695 79.8153Z" fill="#E04E39"/>
<path d="M75.7053 35.7812C75.2293 35.7812 66.8987 46.0952 66.8987 46.0952C55.7913 52.363 70.0723 75.8472 85.2259 73.3877L97.7614 64.6604L75.7053 35.7812Z" fill="#FFAE80"/>
<path d="M69.4433 43.002C67.3805 44.43 63.8103 46.8895 60.6367 49.8251C60.6367 49.8251 66.7458 78.2282 85.311 79.815C86.6597 74.896 88.6432 71.0084 88.6432 71.0084C77.2184 69.1836 69.4433 51.7292 69.4433 43.002Z" fill="#C8E6E2"/>
<path d="M88.8745 71.0889L95.8048 77.4804C95.8048 77.4804 101.945 50.6377 96.0602 45.1016C90.2551 39.5643 88.8745 71.0889 88.8745 71.0889Z" fill="#C8E6E2"/>
<g filter="url(#filter2_d)">
<path d="M94.1865 7.61816C80.6196 7.77684 72.8444 14.2033 72.2891 28.4048C72.6858 43.3205 73.4791 52.2857 80.6196 62.5204C85.1419 68.1534 91.1716 72.1997 98.1534 71.8823C106.405 71.4856 118.623 51.651 119.813 37.2907C121.876 22.7718 109.499 11.5851 94.1865 7.61816Z" fill="#FFAE80"/>
</g>
<path d="M118.23 47.6829C115.136 54.9027 97.126 53.6333 89.1922 44.7474L88.3194 50.063L81.0203 44.0333L74.6732 52.2845L72.2931 49.0317C66.5014 37.4482 66.8187 18.407 83.2418 8.80707C105.298 -0.078835 132.59 25.5475 118.23 47.6829Z" fill="black"/>
<path d="M78.9597 50.301C78.087 48.7936 77.3729 47.2068 77.1349 45.5407C76.9762 43.8746 77.4522 42.0498 78.7217 40.9391C79.9911 39.8284 82.1332 39.5903 83.482 40.7011C84.434 41.4945 84.8307 42.6845 84.8307 43.8746C84.8307 45.0647 84.5134 46.1754 84.196 47.2862C83.8787 48.3176 83.6407 49.349 83.3233 50.301C83.0853 51.0151 82.8473 51.8085 82.2126 52.1258C81.5779 52.4432 80.8638 52.2845 80.2291 51.8878C79.6737 51.4118 79.2771 50.8564 78.9597 50.301Z" fill="#FFAE80"/>
<path d="M7.86101 199.854L6.98828 212.628L7.46429 223.973L10.7965 232.383C11.3519 234.366 13.6527 234.922 12.8593 232.541L15.7949 241.745C16.4296 244.442 19.2064 244.522 19.0477 241.903L16.9056 229.765L24.5221 246.426C25.7121 248.885 28.8064 249.123 28.0923 245.791L22.7766 227.702L28.4096 237.619L33.884 244.284C36.1848 246.584 39.1203 245.315 37.6922 242.459L31.8212 233.176C31.8212 233.176 29.2824 225.956 28.4096 222.545C28.251 221.989 29.7584 215.484 29.7584 215.484L42.9286 222.386C46.4988 223.576 47.9269 220.482 44.7534 218.102L31.4245 206.36C31.4245 206.36 23.6493 201.599 22.9353 201.203C22.2212 200.806 22.2212 200.806 22.2212 200.806L20.3171 194.776L7.78165 195.728L7.86101 199.854Z" fill="#FFAE80"/>
<path d="M32.6213 64.2656C18.3403 79.5779 11.2792 97.3497 0.806526 123.531C-1.81164 145.111 2.31398 172.325 7.86767 201.045C11.9139 203.108 16.2775 201.6 21.8312 198.982C21.3552 177.64 26.5915 155.981 24.4494 134.797C35.7154 127.736 46.9022 107.188 59.0409 89.4158C62.4525 64.5829 47.9336 51.016 32.6213 64.2656Z" fill="white"/>
<path d="M211.288 463.971C198.039 463.178 200.895 440.566 204.544 428.348C205.814 423.905 211.13 421.763 215.573 423.191C219.936 424.619 222.634 432.95 222.554 437.551C222.316 441.915 226.997 464.923 211.288 463.971Z" fill="#623B2A"/>
<path d="M203.987 440.488C201.765 421.446 222.552 419.86 219.696 440.567C218.982 446.121 215.491 450.088 212 450.246C206.605 450.564 204.463 444.455 203.987 440.488Z" fill="#FFAE80"/>
<path d="M142.344 433.027C136.553 437.628 129.253 440.088 121.954 439.929C120.923 439.929 119.812 439.771 119.178 438.977C118.225 437.787 118.86 435.962 119.733 434.614C126.397 423.665 139.012 414.382 144.566 402.799C145.201 401.45 145.756 400.022 146.867 399.07C148.612 397.721 150.992 398.039 153.134 397.483C155.118 397.007 157.181 395.738 158.926 396.69C160.513 397.563 160.91 399.784 161.386 401.609C161.941 403.592 162.814 408.511 163.448 410.415C164.083 412.319 164.48 414.462 163.924 416.445C163.21 418.905 161.148 420.65 159.005 421.84C156.863 423.03 154.483 423.744 152.341 424.934C148.533 426.918 145.677 430.329 142.344 433.027Z" fill="#FFAE80"/>
<path d="M119.174 438.978C119.809 439.771 120.92 439.85 121.951 439.93C129.25 440.168 136.55 437.708 142.341 433.027C145.673 430.33 148.609 426.918 152.338 424.855C154.48 423.665 156.86 422.951 159.002 421.841C161.144 420.651 163.207 418.905 163.921 416.446C164.477 414.542 164.08 412.399 163.525 410.416C162.969 408.75 162.255 404.069 161.7 402.403C161.62 402.165 161.541 401.927 161.462 401.609C160.986 399.785 160.668 397.563 159.002 396.69C157.257 395.738 155.115 396.928 153.211 397.484C151.068 398.039 148.609 397.722 146.943 399.07C145.832 400.023 145.277 401.451 144.563 402.799C142.421 407.401 139.088 411.13 135.518 414.7C130.044 420.095 123.776 428.108 119.73 434.693C118.936 435.963 118.222 437.788 119.174 438.978Z" fill="#623B2A"/>
<path d="M131.546 420.969C131.467 421.683 131.705 422.476 132.339 422.952C132.895 423.269 133.529 423.269 134.164 423.19C140.67 422.714 146.382 418.826 151.381 414.701C153.999 412.559 156.538 410.337 158.6 407.64C159.87 405.974 160.981 404.228 161.774 402.324C161.695 402.086 161.615 401.848 161.536 401.531C161.06 399.706 160.981 395.818 159.314 394.946C157.569 393.994 155.189 395.025 153.205 395.501C151.063 396.056 147.89 394.866 146.144 396.215C145.034 397.167 145.51 400.261 144.875 401.531C142.733 406.132 139.083 410.972 135.513 414.542C134.402 416.05 133.371 417.478 132.498 418.906C132.022 419.54 131.705 420.255 131.546 420.969Z" fill="#FFAE80"/>
<path d="M137.672 289.188C137.831 292.123 138.069 295.614 138.307 299.343C138.545 302.913 138.783 306.801 139.021 310.927C139.259 314.259 139.417 317.67 139.655 321.241C141.956 356.864 144.733 401.531 144.733 401.61C148.065 407.878 160.204 409.227 161.394 401.61C162.663 378.047 166.868 357.578 169.804 338.695C170.835 332.269 171.629 326.08 172.184 319.971C172.66 314.735 172.898 309.657 172.819 304.659V303.945C172.739 299.581 172.422 295.297 171.708 291.013C171.47 289.743 171.232 288.474 170.994 287.204L143.543 269.433C143.622 270.226 137.672 288.394 137.672 289.188Z" fill="#FFAE80"/>
<path d="M169.789 249.916C174.311 273.242 176.93 291.648 179.706 305.77C179.944 306.802 180.103 307.912 180.341 308.944C181.452 314.339 182.642 319.099 184.07 323.145C184.387 324.097 184.705 324.97 185.022 325.764L187.323 336.712L188.354 341.473L205.967 425.809L206.602 428.824L207.157 431.601C207.157 438.265 217.313 435.965 217.947 430.411C218.027 430.014 218.027 429.538 218.106 429.142C218.265 427.872 218.424 426.682 218.503 425.413C223.977 374.477 222.47 353.929 218.979 334.649C218.582 332.19 218.106 329.73 217.63 327.271C216.916 323.701 216.202 320.051 215.409 316.164C215.567 314.894 215.726 313.625 215.885 312.435C215.964 312.117 215.964 311.8 215.964 311.483C216.043 311.324 216.043 311.165 216.043 310.927C219.058 284.428 218.265 264.118 217.63 250.075H169.789V249.916Z" fill="#FFAE80"/>
<path d="M169.789 249.916C174.311 273.242 176.93 291.648 179.706 305.77C179.944 306.802 180.103 307.912 180.341 308.944C181.452 314.339 182.642 319.099 184.07 323.145C184.387 324.097 184.705 324.97 185.022 325.764L187.323 336.712L188.354 341.473L205.967 425.809L206.602 428.824L207.157 431.601C207.157 438.265 217.313 435.965 217.947 430.411C218.027 430.014 218.027 429.538 218.106 429.142C218.265 427.872 218.424 426.682 218.503 425.413C223.977 374.477 222.47 353.929 218.979 334.649C218.582 332.19 218.106 329.73 217.63 327.271C216.916 323.701 216.202 320.051 215.409 316.164C215.567 314.894 215.726 313.625 215.885 312.435C215.964 312.117 215.964 311.8 215.964 311.483C216.043 311.324 216.043 311.165 216.043 310.927C219.058 284.428 218.265 264.118 217.63 250.075H169.789V249.916Z" fill="#FFAE80"/>
<path opacity="0.5" d="M179.723 305.771C179.961 306.802 180.119 307.913 180.357 308.944C181.468 314.339 182.658 319.099 184.086 323.146C184.404 324.098 184.721 324.97 185.038 325.764L187.339 336.713L188.371 341.473C198.526 341.631 209.078 339.569 218.995 334.65C218.599 332.19 218.122 329.731 217.646 327.271C216.932 323.701 216.218 320.051 215.425 316.164C215.584 314.894 215.742 313.625 215.901 312.435C215.98 312.118 215.98 311.8 215.98 311.483L179.723 305.771Z" fill="#FFAE80"/>
<path opacity="0.5" d="M138.301 299.345C138.539 302.915 138.777 306.803 139.015 310.928C139.253 314.26 139.412 317.672 139.65 321.242C146.552 328.938 157.342 335.285 169.798 338.697C170.83 332.27 171.623 326.082 172.178 319.973C172.654 314.736 172.892 309.659 172.813 304.66L138.301 299.345Z" fill="#FFAE80"/>
<path d="M109.508 187.161L152.271 178.672C152.271 178.672 168.615 124.801 167.98 123.928C167.345 123.056 151.636 90.6855 151.636 90.6855L139.339 158.282L102.367 176.847L109.508 187.161Z" fill="#3F76AB"/>
<path d="M109.508 187.161L152.271 178.672C152.271 178.672 168.615 124.801 167.98 123.928C167.345 123.056 151.636 90.6855 151.636 90.6855L139.339 158.282L102.367 176.847L109.508 187.161Z" fill="#9E2E3B"/>
<path d="M192.97 57.8379C220.183 66.7238 214.391 92.4295 207.012 112.581L187.812 94.4922L192.97 57.8379Z" fill="#1D1D1B"/>
<path d="M138.847 308.707C142.973 320.052 199.303 342.743 217.154 325.13L222.391 247.299C227.23 221.752 223.025 208.582 209.776 196.285C208.189 194.777 206.444 193.349 204.619 191.842L165.108 190.255L149.637 189.62C136.07 232.463 135.753 279.114 138.847 308.707Z" fill="url(#paint3_linear)"/>
<path d="M132.829 150.823C132.749 158.678 140.287 165.818 149.569 164.628C149.648 172.166 151.949 182.718 149.569 189.699C153.377 198.744 158.376 205.726 168.372 208.265C178.369 210.803 198.362 208.661 209.787 196.364C207.883 182.321 212.643 164.39 217.562 149.316C221.37 137.653 222.799 122.976 223.83 117.977C214.706 106.473 206.217 101.713 194.475 93.5411C182.812 85.3693 173.847 76.0074 160.438 81.0057C147.03 86.004 149.093 111.63 144.174 122.182C139.255 132.576 132.829 139.875 132.829 150.823Z" fill="#E04E39"/>
<path opacity="0.5" d="M149.483 189.62C153.291 198.665 158.289 205.646 168.286 208.185C178.282 210.724 198.276 208.582 209.7 196.285C222.95 208.661 227.155 221.832 222.315 247.299L217.079 325.13C215.492 326.638 212.715 328.621 208.352 330.128C212.001 302.995 207.876 240.397 202.084 219.134C169.317 220.403 155.433 212.708 147.816 194.698L149.483 189.62Z" fill="#9E2E3B"/>
<path opacity="0.5" d="M149.492 189.62C153.3 198.664 158.299 205.646 168.295 208.185C178.292 210.724 198.285 208.582 209.71 196.284C207.806 182.241 212.566 164.311 217.485 149.237L207.647 140.985L192.256 167.167C182.021 184.383 155.522 180.972 154.332 163.359L149.492 164.708C149.572 172.086 151.872 182.638 149.492 189.62Z" fill="#9E2E3B"/>
<path d="M182.34 179.702C180.992 182.32 178.294 184.304 174.327 185.891L168.773 187.081C168.218 188.747 165.759 188.985 163.22 189.302C161.395 189.064 160.522 188.191 160.681 186.684C159.173 185.653 158.38 184.542 158.936 183.034C157.587 182.003 156.952 180.813 157.745 179.226C156.555 177.957 156.079 176.608 156.952 175.021L143.306 176.608C140.37 176.925 139.339 174.148 143.306 173.276L168.615 168.674C172.106 167.801 175.755 167.801 179.405 168.674L188.053 170.896L187.577 181.368L182.34 179.702Z" fill="#FFAE80"/>
<path d="M223.822 117.897C238.182 135.51 253.256 184.859 242.942 192.158C231.041 202.472 205.494 191.047 181.772 181.368C183.042 175.735 183.2 171.609 179.551 168.594L223.346 173.593L205.891 145.904C199.147 122.816 210.731 109.329 223.822 117.897Z" fill="#E04E39"/>
<path d="M189.313 75.373C191.059 81.3234 195.661 90.5267 196.851 96.1597C198.12 103.141 185.267 114.011 176.619 113.376C170.51 112.186 168.924 104.332 168.051 97.1118L189.313 75.373Z" fill="#FFAE80"/>
<path opacity="0.5" d="M184.868 79.8945C184.868 79.8945 189.946 121.706 169.873 118.294C156.782 116.073 159.48 94.4135 159.48 94.4135L184.868 79.8945Z" fill="#FFAE80"/>
<path d="M161.704 53.9502C144.409 56.5684 125.05 77.7517 154.009 89.4938C153.294 79.8939 151.628 72.6741 161.704 53.9502Z" fill="#1D1D1B"/>
<path d="M172.263 41.6524C152.111 44.4293 145.923 56.2507 147.906 72.2771C148.144 85.6853 159.331 103.536 167.106 103.219C178.213 103.854 183.688 90.8423 193.208 76.958C200.587 54.0292 190.987 39.0343 172.263 41.6524Z" fill="#FFAE80"/>
<path d="M148.133 72.6753C152.338 77.1976 159.002 79.7364 167.412 81.6405C174.473 84.5761 181.296 84.2587 184.073 88.2256L192.245 84.8141C200.496 75.3728 201.289 48.3184 187.167 42.606C164.556 33.4028 137.66 56.1729 148.133 72.6753Z" fill="#1D1D1B"/>
<path d="M184.397 84.0995C185.667 79.1805 189.078 75.9277 192.014 78.7839C193.362 80.1326 193.283 82.5128 192.014 85.607C190.982 87.9871 189.475 89.0979 187.65 89.4152C184.794 89.8119 183.366 87.9078 184.397 84.0995Z" fill="#FFAE80"/>
<path d="M121.718 144.634C134.491 156.614 143.06 174.703 149.486 201.043L105.216 202.471C105.85 182.002 92.4421 162.882 75.543 144.634H121.718Z" fill="#D6EEEB"/>
<path d="M106.719 178.038C111.32 178.514 111.32 182.084 107.909 182.401C113.145 182.322 113.938 186.924 109.575 187.162C112.59 187.32 113.145 190.732 108.781 191.129C112.034 192.16 112.272 194.143 108.623 194.699L103.704 194.937C101.72 195.095 99.0227 193.905 99.578 191.525C97.9119 191.525 96.6425 187.479 97.4359 187.162C95.9285 186.527 94.8177 183.591 95.9285 182.639C93.8657 181.529 93.5483 178.434 96.5632 175.102L97.9913 173.595L100.133 177.8L106.719 178.038Z" fill="#FFAE80"/>
<defs>
<filter id="filter0_d" x="50.139" y="167.723" width="93.4908" height="254.856" filterUnits="userSpaceOnUse" color-interpolation-filters="sRGB">
<feFlood flood-opacity="0" result="BackgroundImageFix"/>
<feColorMatrix in="SourceAlpha" type="matrix" values="0 0 0 0 0 0 0 0 0 0 0 0 0 0 0 0 0 0 127 0"/>
<feOffset dy="27.2282"/>
<feGaussianBlur stdDeviation="13.6141"/>
<feColorMatrix type="matrix" values="0 0 0 0 0 0 0 0 0 0 0 0 0 0 0 0 0 0 0.25 0"/>
<feBlend mode="normal" in2="BackgroundImageFix" result="effect1_dropShadow"/>
<feBlend mode="normal" in="SourceGraphic" in2="effect1_dropShadow" result="shape"/>
</filter>
<filter id="filter1_d" x="7.74449" y="159.225" width="129.518" height="303.218" filterUnits="userSpaceOnUse" color-interpolation-filters="sRGB">
<feFlood flood-opacity="0" result="BackgroundImageFix"/>
<feColorMatrix in="SourceAlpha" type="matrix" values="0 0 0 0 0 0 0 0 0 0 0 0 0 0 0 0 0 0 127 0"/>
<feOffset dy="27.2282"/>
<feGaussianBlur stdDeviation="13.6141"/>
<feColorMatrix type="matrix" values="0 0 0 0 0 0 0 0 0 0 0 0 0 0 0 0 0 0 0.25 0"/>
<feBlend mode="normal" in2="BackgroundImageFix" result="effect1_dropShadow"/>
<feBlend mode="normal" in="SourceGraphic" in2="effect1_dropShadow" result="shape"/>
</filter>
<filter id="filter2_d" x="58.675" y="0.811123" width="74.9773" height="91.5098" filterUnits="userSpaceOnUse" color-interpolation-filters="sRGB">
<feFlood flood-opacity="0" result="BackgroundImageFix"/>
<feColorMatrix in="SourceAlpha" type="matrix" values="0 0 0 0 0 0 0 0 0 0 0 0 0 0 0 0 0 0 127 0"/>
<feOffset dy="6.80704"/>
<feGaussianBlur stdDeviation="6.80704"/>
<feColorMatrix type="matrix" values="0 0 0 0 0 0 0 0 0 0 0 0 0 0 0 0 0 0 0.25 0"/>
<feBlend mode="normal" in2="BackgroundImageFix" result="effect1_dropShadow"/>
<feBlend mode="normal" in="SourceGraphic" in2="effect1_dropShadow" result="shape"/>
</filter>
<linearGradient id="paint0_linear" x1="107.477" y1="355.039" x2="96.1425" y2="163.508" gradientUnits="userSpaceOnUse">
<stop offset="0.00505051" stop-color="#C39367"/>
<stop offset="1" stop-color="#704232"/>
</linearGradient>
<linearGradient id="paint1_linear" x1="92.8726" y1="391.745" x2="83.7716" y2="153.507" gradientUnits="userSpaceOnUse">
<stop offset="0.00505051" stop-color="#C39367"/>
<stop offset="1" stop-color="#704232"/>
</linearGradient>
<linearGradient id="paint2_linear" x1="77.3993" y1="64.4177" x2="78.4405" y2="79.9604" gradientUnits="userSpaceOnUse">
<stop offset="0.015625" stop-color="#EEE2D6"/>
<stop offset="1" stop-color="#F17757"/>
</linearGradient>
<linearGradient id="paint3_linear" x1="32.9221" y1="163.573" x2="42.4229" y2="333.406" gradientUnits="userSpaceOnUse">
<stop offset="0.015625" stop-color="#EEE2D6"/>
<stop offset="1" stop-color="#F17757"/>
</linearGradient>
</defs>
</svg>
