<svg width="387" height="377" viewBox="0 0 387 377" fill="none" xmlns="http://www.w3.org/2000/svg">
<path d="M39.6321 169.228C66.7557 135.563 116.072 167.083 151.901 141.932C170.767 128.69 184.162 89.0334 203.813 77.3856C276.733 34.1627 341.2 91.2851 339.439 160.949C336.319 284.335 175.51 315.048 99.2452 288.137C49.2352 270.491 -2.95734 222.089 39.6321 169.228Z" fill="url(#paint0_linear)"/>
<path d="M246.348 216.639L245.952 216.507C244.236 216.243 243.048 214.527 243.444 212.811L256.382 143.765L262.982 144.953L250.045 213.999C249.781 215.715 248.064 216.903 246.348 216.639Z" fill="#F8B79E"/>
<path d="M299.42 243.043H299.024C297.308 243.043 295.855 241.591 295.855 239.875V169.641H302.588V239.875C302.588 241.591 301.136 243.043 299.42 243.043Z" fill="#F8B79E"/>
<path d="M354.607 226.013H354.211C352.494 226.277 350.91 224.957 350.646 223.24L341.801 153.534L348.534 152.742L357.379 222.448C357.511 224.165 356.323 225.749 354.607 226.013Z" fill="#F8B79E"/>
<path d="M305.361 47.5226L310.51 44.8822C311.698 44.2221 313.018 44.3541 314.206 45.0142L367.41 76.4348C368.73 77.2269 369.258 78.6791 368.994 80.1314L351.304 155.382C350.511 158.683 348.399 161.455 345.495 163.039L300.476 188.123C299.024 188.915 297.176 188.915 295.856 188.123L248.065 159.739C246.216 158.683 245.16 156.702 245.16 154.722V148.121L294.007 130.959L305.361 47.5226Z" fill="#623B2A"/>
<path d="M245.16 147.725L286.746 123.169L305.361 47.5225L361.601 80.5273L344.967 152.874L298.892 178.486L245.16 147.725Z" fill="#C39367"/>
<path d="M301.532 72.4736C301.532 72.4736 329.784 89.9002 337.573 122.113C339.158 128.846 336.781 141.652 330.576 150.101C324.372 158.55 310.642 167.527 310.642 167.527L286.086 147.329L301.532 72.4736Z" fill="#302665" fill-opacity="0.1"/>
<path d="M213.478 215.055C213.478 215.055 207.009 223.372 199.22 228.785C191.431 234.197 193.279 240.666 201.597 241.327C207.934 241.855 212.422 240.138 217.835 235.254C223.248 230.501 225.624 230.897 227.076 228.785C228.529 226.804 226.944 218.223 226.944 218.223L213.478 215.055Z" fill="#58595B"/>
<path d="M248.193 238.554C248.193 238.554 245.289 243.966 238.16 250.435C231.031 257.036 230.107 261.261 235.784 264.429C241.46 267.73 250.57 265.09 255.454 259.545C260.339 254 262.715 252.416 264.696 251.096C266.808 249.775 264.696 239.742 264.696 239.742L248.193 238.554Z" fill="#58595B"/>
<path d="M267.999 134.127C267.999 134.127 239.615 143.632 230.637 150.365C221.66 157.098 211.759 214.395 211.759 214.395C209.778 219.411 226.677 225.88 228.525 220.864L248.592 169.64L292.951 148.517L267.999 134.127Z" fill="url(#paint1_linear)"/>
<path d="M286.746 140.199C286.746 140.199 264.302 157.494 257.041 167.923C249.78 178.353 247.008 237.893 247.008 237.893C245.556 246.079 264.83 249.379 266.679 242.514L281.333 180.597C281.333 180.597 316.582 165.283 318.034 146.404L286.746 140.199Z" fill="url(#paint2_linear)"/>
<path d="M318.167 146.273C318.167 146.273 310.906 149.969 301.137 149.837C296.384 149.837 290.971 148.781 285.691 146.008C277.901 141.916 273.545 139.011 271.036 137.031C268.396 134.919 268 133.995 268 133.995L271.036 114.588C271.036 114.588 268.132 85.2797 270.508 77.2265C272.489 70.4935 281.862 64.6847 294.536 67.8531C294.536 67.8531 297.572 68.1172 301.797 71.4176C306.55 74.9822 312.622 81.8471 316.055 86.9959C323.184 97.6895 318.167 146.273 318.167 146.273Z" fill="url(#paint3_linear)"/>
<path d="M304.832 141.124L316.186 135.711C315.394 143.368 306.284 147.857 301.136 149.837C296.383 149.837 290.97 148.781 285.689 146.009C277.9 141.916 273.544 139.012 271.035 137.031C272.091 135.447 273.808 133.863 276.316 132.543C287.009 127.13 291.63 124.093 291.63 124.093C291.63 124.093 273.147 116.436 273.808 115.116C274.468 113.796 294.006 120.793 294.006 120.793C297.043 110.627 301.4 101.782 305.492 95.5773C305.492 95.5773 317.902 88.1842 318.826 95.1812C319.75 102.31 316.978 120.133 315.394 127.526C313.809 134.919 305.36 140.86 304.832 141.124Z" fill="#E04E39"/>
<path d="M299.551 72.3414C298.758 75.2458 290.969 84.4872 284.896 83.8271C284.104 83.695 283.312 83.431 282.652 83.167C279.088 80.9226 279.88 74.5857 279.88 74.5857L283.972 72.2094C283.972 72.2094 292.686 58.7434 294.27 59.6675C294.402 59.7996 294.534 59.9316 294.534 60.1956C294.534 60.3276 294.534 60.3276 294.534 60.4597C294.534 61.2518 294.666 62.0439 294.93 62.968C296.25 67.1926 299.551 72.3414 299.551 72.3414Z" fill="#FFC9B6"/>
<path d="M295.067 62.8362C294.935 78.0184 283.053 82.9031 282.789 83.0351C279.224 80.7908 280.016 74.4539 280.016 74.4539L284.109 72.0775C284.109 72.0775 292.822 58.6116 294.407 59.5357C294.539 59.6677 294.539 59.7997 294.671 60.0638C294.935 60.7239 295.067 61.648 295.067 62.8362Z" fill="#CE5555" fill-opacity="0.2"/>
<path d="M268.128 55.4438C266.808 49.503 269.185 46.8626 269.317 46.7306C277.634 39.6015 289.648 46.3345 290.308 46.8626C290.968 47.2586 293.212 52.1434 294.136 54.5197C294.796 53.0675 295.72 52.6714 296.513 52.8035C297.833 52.9355 298.625 53.7276 298.625 55.9719C298.757 58.0842 298.097 62.1768 295.984 63.365C295.588 63.629 295.192 63.365 294.928 63.101C295.192 67.8536 288.327 76.963 279.878 76.0388C274.069 75.2467 269.449 61.3847 268.128 55.4438Z" fill="#FFC9B6"/>
<path d="M279.614 32.34C292.948 28.6434 294.797 37.0927 294.797 37.0927C294.797 37.0927 299.813 36.9606 300.077 50.1626C300.209 53.9911 299.153 56.1034 298.757 57.5556C298.889 56.8956 298.889 56.3675 298.757 55.8394C298.625 53.7271 297.833 52.935 296.645 52.6709C295.589 52.5389 294.401 53.331 293.741 56.1034C292.816 57.6877 292.948 60.4601 292.948 60.4601C292.948 60.4601 292.552 60.7241 292.156 60.196C291.628 59.8 290.572 57.9517 290.176 56.8956C290.044 56.3675 289.78 56.6315 288.064 55.0473C286.479 53.463 285.819 51.0867 285.423 50.2946C282.519 53.8591 271.297 57.4236 268.657 51.7468C268.261 53.463 269.449 58.8758 269.317 59.1399C269.317 59.0079 266.545 56.6315 266.413 50.9547C266.413 50.9547 264.96 45.938 267.073 41.7133C269.713 36.6966 276.578 33.2641 279.614 32.34Z" fill="#C39367"/>
<path d="M297.439 68.1172C297.439 68.1172 297.175 79.7349 282.785 83.0354L287.67 90.1644C287.67 90.1644 299.42 82.2432 301.928 71.2857L297.439 68.1172Z" fill="#E3F6FD"/>
<path d="M119.346 154.325L186.544 114.983L186.28 198.684L119.082 237.893L119.346 154.325Z" fill="#704232"/>
<path d="M283.048 237.366L350.114 198.024L349.85 293.078L282.652 332.42L283.048 237.366Z" fill="#8E6455"/>
<path d="M109.973 137.428L177.17 98.0859L350.116 198.024L283.05 237.366L109.973 137.428Z" fill="#DC006E"/>
<path d="M283.052 237.365L282.656 332.419L273.283 326.874L273.547 243.306L119.348 154.325L119.084 237.893L109.711 232.481L109.975 137.427L283.052 237.365Z" fill="#AE8E81"/>
<path d="M101.391 125.941L177.038 81.583L358.828 186.538L283.049 230.897L101.391 125.941Z" fill="#D8B89A"/>
<path opacity="0.23" d="M236.315 171.224L241.596 171.488L270.772 156.834L296.516 150.497L254.798 126.47L232.09 134.127L227.602 158.286L236.315 171.224Z" fill="#CFA580"/>
<path fill-rule="evenodd" clip-rule="evenodd" d="M266.549 82.5076C269.585 73.2662 274.47 71.418 274.47 71.418L284.503 91.4849L270.997 113.191L270.02 114.852C263.155 125.545 243.22 135.711 243.22 135.711C237.28 138.483 231.471 130.43 235.299 127.261L257.321 107.217C258.275 104.773 263.667 90.9112 266.549 82.5076Z" fill="url(#paint4_linear)"/>
<path opacity="0.23" d="M149.977 131.09H164.103L195.523 113.003L179.021 103.762L160.802 113.795L149.977 131.09Z" fill="#CFA580"/>
<path opacity="0.23" d="M319.355 191.423L324.636 188.387C328.201 186.274 328.333 181.125 324.768 179.013L319.884 175.845L319.355 191.423Z" fill="#CFA580"/>
<path d="M283.049 242.382V230.897L101.391 125.941V137.427L283.049 242.382Z" fill="#CFA580"/>
<path d="M358.83 186.538V198.024L283.051 242.383V230.897L358.83 185.614" fill="#C39367"/>
<path d="M236.316 171.225L269.189 153.006L226.282 128.187L195.918 147.857L236.316 171.225Z" fill="#DC006E"/>
<path d="M238.031 167.528L267.868 151.025L269.188 153.006L238.823 169.904L238.031 167.528Z" fill="#58595B"/>
<path d="M267.867 151.025L227.205 127.262L211.891 136.239L238.03 167.528L267.867 151.025Z" fill="white"/>
<path d="M235.259 163.963L252.95 154.986L220.737 135.711L218.625 144.556L235.259 163.963Z" fill="#D1D3D4"/>
<path opacity="0.23" d="M248.59 185.483L281.199 166.34L307.074 181.126L274.334 200.269L248.59 185.483Z" fill="#5889D6"/>
<path opacity="0.23" d="M251.23 188.518L279.615 167.131L305.49 181.785L276.974 203.304L251.23 188.518Z" fill="#5889D6"/>
<path d="M248.195 183.766L280.936 164.755L306.68 179.541L274.071 198.684L248.195 183.766Z" fill="#E2E3E8"/>
<path d="M250.703 187.067L279.087 165.68L304.963 180.466L276.447 201.985L250.703 187.067Z" fill="white"/>
<path d="M144.43 127.79V91.617L150.371 87.5244L165.289 105.743L172.55 101.915V111.684L144.43 127.79Z" fill="#F17757"/>
<path d="M178.096 114.985L172.551 112.345V101.915L178.096 105.216V114.985Z" fill="#F17757"/>
<path d="M172.417 72.4746L147.598 86.6007V126.735L172.417 112.608V72.4746Z" fill="#BCBFC9"/>
<path d="M174.265 73.5303L149.445 87.6563V127.79L174.265 113.664V73.5303Z" fill="#E2E3E8"/>
<path d="M175.981 74.4551L151.293 88.5811V128.715L175.981 114.721V74.4551Z" fill="white"/>
<path d="M144.43 91.4854L149.974 94.6538V131.091L144.43 127.923V91.4854Z" fill="#F49678"/>
<path d="M149.973 131.091V94.7858L155.914 90.8252L170.832 109.044L178.093 105.215V114.985L149.973 131.091Z" fill="#F8B79E"/>
<path d="M308.66 174.525V188.519C308.66 190.632 311.697 192.216 315.393 192.216C319.09 192.216 322.126 190.5 322.126 188.519V174.525H308.66Z" fill="#A7A9AC"/>
<path d="M322.126 174.525C322.126 176.637 319.09 178.221 315.393 178.221C311.697 178.221 308.66 176.505 308.66 174.525C308.66 172.412 311.697 170.828 315.393 170.828C319.09 170.828 322.126 172.412 322.126 174.525Z" fill="#EEE2D6"/>
<path d="M321.197 174.525C321.197 175.581 319.876 176.637 318.16 177.165C317.764 177.297 317.368 177.429 316.84 177.429C316.708 177.429 316.576 177.429 316.576 177.429C316.18 177.429 315.916 177.429 315.52 177.429H315.388C314.86 177.429 314.464 177.429 313.936 177.297C313.804 177.297 313.54 177.297 313.407 177.165C312.747 177.033 312.219 176.901 311.691 176.637C310.503 176.109 309.711 175.317 309.711 174.393C309.711 173.733 310.107 173.205 310.635 172.809C311.031 172.545 311.427 172.281 311.955 172.017C312.483 171.753 313.011 171.62 313.672 171.488C314.2 171.356 314.596 171.356 315.124 171.356H315.388C315.652 171.356 315.916 171.356 316.18 171.356C316.708 171.356 317.104 171.488 317.632 171.62C317.764 171.62 318.028 171.752 318.16 171.752C318.688 171.885 319.084 172.017 319.48 172.281C320.537 172.941 321.197 173.733 321.197 174.525Z" fill="#D1D3D4"/>
<path d="M321.466 165.68C321.466 165.68 321.466 165.812 321.466 165.944L319.486 172.545L318.033 177.165C317.637 177.297 317.241 177.429 316.713 177.429C316.581 177.429 316.449 177.429 316.449 177.429L317.109 175.449L318.165 172.017L320.146 165.548C320.278 165.152 320.674 164.888 321.07 165.02C321.202 165.02 321.466 165.284 321.466 165.68Z" fill="#623B2A"/>
<path d="M315.258 177.429C314.73 177.429 314.201 177.429 313.805 177.297L313.541 171.62L313.277 163.171C313.277 162.775 313.541 162.379 313.937 162.379C314.333 162.379 314.598 162.643 314.73 163.039L314.994 171.356L315.258 176.901V177.429Z" fill="#623B2A"/>
<path d="M313.278 177.297C312.618 177.165 312.09 177.033 311.562 176.769L310.506 172.941L308.394 165.284C308.262 164.887 308.526 164.491 308.922 164.359H309.054C309.318 164.359 309.714 164.623 309.714 164.887L311.694 172.148L313.278 177.297Z" fill="#F17757"/>
<path d="M318.163 168.583C318.163 168.583 318.163 168.715 318.163 168.583L317.635 171.752L317.107 175.316L316.843 177.297C316.711 177.297 316.579 177.297 316.579 177.297C316.183 177.297 315.919 177.297 315.523 177.297H315.391V176.901L316.183 171.356L316.711 168.319C316.843 167.923 317.107 167.659 317.503 167.659C317.899 167.923 318.163 168.187 318.163 168.583Z" fill="#F17757"/>
<path d="M235.786 129.242L231.693 131.882C231.693 131.882 227.6 132.542 225.224 132.938C222.848 133.334 221.396 134.391 219.811 137.559C218.227 140.727 216.907 142.84 218.623 144.16C220.339 145.48 221.924 145.084 224.3 144.16C226.676 143.104 229.185 140.727 229.185 140.727C229.185 140.727 231.033 140.727 233.673 140.067C236.314 139.407 236.446 138.087 236.446 138.087L240.406 135.843C242.387 133.466 237.766 127.129 235.786 129.242Z" fill="#FFC9B6"/>
<path d="M271.033 113.004C271.033 113.004 268.657 92.805 268.921 86.4681C269.185 80.1312 269.977 79.207 269.977 79.207C269.977 79.207 268.393 82.5075 267.733 88.7124C267.205 94.9173 269.581 115.248 269.581 115.248L271.033 113.004Z" fill="#F17757"/>
<path d="M268.659 141.256L296.383 123.698C296.383 123.698 303.908 93.8612 308.793 90.8247C313.677 87.7883 318.43 87.1282 318.694 95.4454C318.826 99.802 317.902 105.743 315.262 114.984C313.413 121.849 311.829 128.714 309.717 131.883C306.152 137.163 274.996 152.082 274.996 152.082C271.035 154.458 264.566 143.632 268.659 141.256Z" fill="url(#paint5_linear)"/>
<path d="M268.529 143.633L264.04 145.613C264.04 145.613 259.816 145.613 257.439 145.613C255.063 145.613 253.479 146.405 251.366 149.309C249.386 152.214 247.67 154.062 249.254 155.646C250.838 157.23 252.291 157.098 254.799 156.438C257.307 155.778 260.08 153.798 260.08 153.798C260.08 153.798 261.928 154.194 264.7 153.798C267.473 153.402 267.869 152.214 267.869 152.214L272.225 150.498C274.47 148.781 270.773 141.916 268.529 143.633Z" fill="#FFC9B6"/>
<path d="M238.823 169.904L236.314 171.356L197.633 149.441C196.312 148.649 195.256 147.46 194.86 146.008L185.883 116.964L186.675 116.172C187.335 115.512 188.259 115.38 189.051 115.908L227.865 138.087C228.657 138.483 229.185 139.275 229.449 140.067L238.823 169.904Z" fill="#58595B"/>
<path d="M236.314 171.224L197.633 149.309C196.312 148.517 195.256 147.328 194.86 145.876L185.883 116.832L225.357 139.275C226.149 139.671 226.677 140.463 226.941 141.256L236.314 171.224Z" fill="#808285"/>
<path d="M282.387 82.9033L276.314 86.4679C276.314 86.4679 274.07 79.7349 277.106 74.4541C277.106 74.4541 278.558 75.6423 280.011 75.7743C280.011 75.7743 279.747 80.659 282.387 82.9033Z" fill="#E3F6FD"/>
<defs>
<linearGradient id="paint0_linear" x1="329.984" y1="194.987" x2="185.367" y2="39.6468" gradientUnits="userSpaceOnUse">
<stop stop-color="#ECE0D4"/>
<stop offset="1" stop-color="#FAEAD9"/>
</linearGradient>
<linearGradient id="paint1_linear" x1="274.35" y1="216.894" x2="273.285" y2="131.981" gradientUnits="userSpaceOnUse">
<stop offset="0.00505051" stop-color="#C39367"/>
<stop offset="1" stop-color="#704232"/>
</linearGradient>
<linearGradient id="paint2_linear" x1="301.777" y1="239.305" x2="300.03" y2="137.644" gradientUnits="userSpaceOnUse">
<stop offset="0.00505051" stop-color="#C39367"/>
<stop offset="1" stop-color="#704232"/>
</linearGradient>
<linearGradient id="paint3_linear" x1="205.849" y1="51.7597" x2="211.283" y2="150.905" gradientUnits="userSpaceOnUse">
<stop offset="0.015625" stop-color="#EEE2D6"/>
<stop offset="1" stop-color="#F17757"/>
</linearGradient>
<linearGradient id="paint4_linear" x1="173.655" y1="59.5184" x2="177.083" y2="137.197" gradientUnits="userSpaceOnUse">
<stop offset="0.015625" stop-color="#EEE2D6"/>
<stop offset="1" stop-color="#F17757"/>
</linearGradient>
<linearGradient id="paint5_linear" x1="205.832" y1="77.0613" x2="209.077" y2="153.329" gradientUnits="userSpaceOnUse">
<stop offset="0.015625" stop-color="#EEE2D6"/>
<stop offset="1" stop-color="#F17757"/>
</linearGradient>
</defs>
</svg>
