<svg width="82" height="105" viewBox="0 0 82 105" fill="none" xmlns="http://www.w3.org/2000/svg">
<path d="M77.3 73.2098L28 101.61L0 85.4098L49.3 57.0098L77.3 73.2098Z" fill="#99653C"/>
<path d="M28 98.9094L32.9 98.8094L77.3 73.2094L69.5 68.6094L28 98.9094Z" fill="#6B4326"/>
<path d="M28 104.409V101.609L77.3 73.209V75.909L28 104.409Z" fill="#593820"/>
<path d="M0 88.2102V85.4102L28 101.61V104.41L0 88.2102Z" fill="#6B4326"/>
<path d="M4.69922 73.0098L49.2992 46.5098L72.5992 60.0098L27.9992 86.5098L4.69922 73.0098Z" fill="#593820"/>
<path d="M72.6 73.2098V60.0098L28 86.5098V98.9098L72.6 73.2098Z" fill="#593820"/>
<path d="M72.6 60.0098V62.2098L58.5 70.4098L28 97.2098V94.5098L55.7 70.0098L72.6 60.0098Z" fill="#6B4326"/>
<path d="M4.69922 85.4098V73.0098L27.9992 86.5098V98.9098L4.69922 85.4098Z" fill="#6B4326"/>
<path d="M4.69922 83.7098V76.0098L27.9992 89.5098V97.2098L4.69922 83.7098Z" fill="#6B4326"/>
<path d="M29.9004 55.8086C29.2004 55.8086 28.4004 55.5086 27.9004 54.9086C27.2004 54.1086 27.1004 53.0086 27.5004 52.1086C27.3004 51.7086 27.2004 51.2086 27.2004 50.6086C27.2004 50.0086 27.3004 49.4086 27.5004 48.9086C27.3004 48.6086 27.1004 48.2086 27.1004 47.7086C27.0004 47.2086 27.1004 46.7086 27.2004 46.3086C27.0004 46.1086 26.9004 45.8086 26.9004 45.4086C26.8004 44.6086 27.0004 44.0086 27.3004 43.4086C27.1004 43.2086 27.0004 43.0086 26.9004 42.7086C26.7004 42.1086 26.7004 41.5086 26.9004 41.0086C26.2004 40.5086 25.9004 39.5086 26.1004 38.6086C26.1004 38.6086 26.1004 38.6086 26.1004 38.5086C25.5004 38.1086 25.1004 37.3086 25.2004 36.5086C25.2004 36.0086 25.4004 35.4086 25.8004 34.9086C25.5004 34.6086 25.2004 34.3086 25.2004 33.9086C25.1004 33.2086 25.2004 32.6086 25.5004 32.1086C25.5004 32.1086 25.5004 32.1086 25.5004 32.0086C24.8004 31.1086 24.7004 29.8086 25.2004 28.8086C25.3004 28.6086 25.4004 28.5086 25.5004 28.4086C25.3004 28.3086 25.0004 28.0086 24.9004 27.7086C24.8004 27.5086 24.9004 27.2086 24.9004 27.0086C25.0004 26.6086 25.2004 26.3086 25.4004 25.9086C24.6004 25.1086 24.3004 23.8086 24.8004 22.8086V22.7086C23.9004 21.8086 24.0004 20.4086 24.7004 19.4086C24.8004 19.2086 25.0004 19.0086 25.1004 18.9086C24.6004 18.3086 24.4004 17.5086 24.7004 16.8086C24.8004 16.6086 24.9004 16.3086 25.1004 16.1086C24.9004 15.9086 24.8004 15.6086 24.7004 15.3086C24.6004 14.7086 24.7004 14.0086 25.0004 13.5086C24.8004 13.2086 24.7004 12.8086 24.8004 12.3086C24.8004 11.4086 25.2004 10.3086 26.0004 9.70859C25.9004 9.30859 25.9004 8.80859 25.9004 8.50859C26.0004 6.80859 26.2004 5.00859 26.6004 3.30859L27.2004 3.40859C26.8004 5.10859 26.6004 6.90859 26.5004 8.70859C26.5004 9.00859 26.5004 9.30859 26.5004 9.60859C26.8004 9.50859 27.1004 9.50859 27.5004 9.50859C27.7004 9.50859 27.9004 9.50859 28.0004 9.60859C28.2004 9.70859 28.4004 9.90859 28.5004 10.1086C28.6004 10.4086 28.5004 10.7086 28.3004 10.9086C28.1004 11.1086 27.9004 11.2086 27.7004 11.2086C27.2004 11.3086 26.7004 11.3086 26.4004 11.0086C26.3004 10.9086 26.2004 10.8086 26.1004 10.6086C25.6004 11.1086 25.4004 11.9086 25.4004 12.6086C25.4004 12.8086 25.4004 13.0086 25.5004 13.2086C25.8004 12.9086 26.3004 12.7086 26.7004 12.7086C27.0004 12.7086 27.2004 12.7086 27.3004 12.8086C27.5004 12.9086 27.7004 13.1086 27.7004 13.4086C27.7004 13.7086 27.6004 14.0086 27.3004 14.3086C26.8004 14.7086 26.4004 14.7086 26.0004 14.6086C25.8004 14.5086 25.6004 14.5086 25.4004 14.4086C25.2004 14.8086 25.1004 15.2086 25.2004 15.6086C25.2004 15.8086 25.3004 16.0086 25.5004 16.2086C25.6004 16.2086 25.7004 16.1086 25.7004 16.1086C25.8004 16.0086 26.8004 15.6086 27.2004 16.1086C27.3004 16.2086 27.4004 16.4086 27.3004 16.6086C27.2004 16.9086 27.0004 17.1086 26.8004 17.2086C26.4004 17.4086 25.9004 17.4086 25.5004 17.2086C25.5004 17.2086 25.5004 17.2086 25.4004 17.2086C25.3004 17.3086 25.2004 17.5086 25.1004 17.7086C24.9004 18.2086 25.1004 18.8086 25.4004 19.2086C25.7004 19.0086 26.0004 18.9086 26.3004 18.8086C26.3004 18.8086 27.8004 18.4086 28.3004 19.0086C28.4004 19.1086 28.4004 19.3086 28.4004 19.4086C28.4004 19.5086 28.3004 19.8086 27.4004 20.2086C26.8004 20.4086 26.2004 20.5086 25.7004 20.2086C25.6004 20.2086 25.5004 20.1086 25.5004 20.1086C25.4004 20.2086 25.2004 20.4086 25.1004 20.5086C24.6004 21.2086 24.5004 22.2086 25.1004 22.9086C25.3004 22.7086 25.6004 22.4086 26.0004 22.3086C26.0004 22.3086 27.2004 21.8086 27.7004 22.3086C27.8004 22.4086 27.9004 22.7086 27.7004 23.1086C27.4004 23.5086 27.0004 23.8086 26.4004 23.9086C26.0004 24.0086 25.6004 23.9086 25.3004 23.8086C25.0004 24.0086 25.2004 25.0086 25.8004 25.5086L25.9004 25.4086C26.3004 25.1086 26.8004 24.7086 27.3004 24.8086C27.9004 24.8086 27.9004 25.2086 28.0004 25.3086C28.1004 25.8086 27.5004 26.4086 27.1004 26.5086C26.7004 26.6086 26.3004 26.6086 25.9004 26.4086C25.7004 26.7086 25.6004 27.0086 25.5004 27.3086C25.5004 27.4086 25.4004 27.5086 25.5004 27.6086C25.5004 27.7086 25.7004 27.9086 25.9004 28.0086C25.9004 28.0086 25.9004 28.0086 26.0004 28.1086C26.2004 28.0086 26.3004 27.9086 26.5004 27.8086C26.8004 27.7086 27.6004 27.3086 28.1004 27.7086C28.4004 27.9086 28.4004 28.2086 28.3004 28.5086C28.1004 29.0086 27.5004 29.3086 27.1004 29.3086C26.7004 29.3086 26.3004 29.2086 26.0004 29.0086C25.9004 29.1086 25.8004 29.2086 25.8004 29.4086C25.4004 30.1086 25.5004 31.1086 26.0004 31.8086C26.2004 31.5086 26.5004 31.3086 26.8004 31.2086C27.0004 31.1086 27.2004 31.0086 27.4004 31.0086C27.7004 31.0086 28.0004 31.1086 28.2004 31.4086C28.4004 31.7086 28.5004 32.1086 28.4004 32.4086C28.2004 33.0086 27.6004 33.3086 26.9004 33.2086C26.6004 33.2086 26.4004 33.0086 26.1004 32.9086C25.9004 33.3086 25.8004 33.7086 25.9004 34.1086C26.0004 34.4086 26.1004 34.6086 26.3004 34.8086C26.4004 34.7086 26.5004 34.6086 26.6004 34.5086C26.8004 34.3086 27.2004 34.0086 27.7004 34.0086C28.0004 34.0086 28.3004 34.2086 28.5004 34.4086C28.6004 34.6086 28.7004 34.9086 28.6004 35.1086C28.5004 35.3086 28.4004 35.4086 28.3004 35.5086C27.9004 35.8086 27.3004 35.9086 26.7004 35.7086C26.6004 35.7086 26.6004 35.7086 26.5004 35.6086C26.2004 36.0086 26.0004 36.5086 26.0004 36.9086C26.0004 37.4086 26.2004 37.9086 26.5004 38.3086C26.7004 38.1086 26.9004 37.8086 27.2004 37.7086C27.4004 37.5086 27.7004 37.4086 27.9004 37.3086C28.3004 37.2086 28.6004 37.3086 28.8004 37.7086C29.0004 38.2086 28.6004 38.6086 28.5004 38.7086C28.1004 39.2086 27.4004 39.4086 26.8004 39.2086C26.6004 39.8086 26.9004 40.4086 27.3004 40.8086C27.5004 40.5086 27.8004 40.3086 28.1004 40.1086C28.3004 40.0086 29.1004 39.6086 29.5004 39.9086C29.6004 40.0086 29.8004 40.2086 29.7004 40.6086C29.6004 40.9086 29.4004 41.2086 29.0004 41.4086C28.5004 41.7086 27.9004 41.7086 27.5004 41.6086C27.3004 42.0086 27.3004 42.4086 27.5004 42.8086C27.6004 42.9086 27.6004 43.1086 27.7004 43.2086C27.9004 43.0086 28.1004 42.8086 28.4004 42.6086C28.6004 42.5086 29.4004 42.1086 29.8004 42.3086C30.0004 42.4086 30.1004 42.5086 30.1004 42.7086C30.2004 43.3086 29.7004 43.8086 29.3004 44.0086C28.8004 44.3086 28.2004 44.4086 27.7004 44.1086C27.5004 44.5086 27.4004 45.1086 27.4004 45.7086C27.4004 45.8086 27.4004 45.8086 27.4004 45.9086C27.8004 45.4086 28.4004 45.1086 29.0004 45.2086C29.1004 45.2086 29.3004 45.2086 29.4004 45.4086C29.6004 45.6086 29.6004 45.8086 29.6004 46.1086C29.5004 46.5086 29.2004 46.8086 28.8004 47.0086C28.4004 47.2086 28.0004 47.3086 27.6004 47.2086C27.6004 47.5086 27.6004 47.8086 27.6004 48.1086C27.6004 48.3086 27.7004 48.5086 27.8004 48.7086C28.0004 48.4086 28.4004 48.2086 28.7004 48.0086C29.0004 47.9086 29.4004 47.7086 29.7004 47.9086C29.9004 48.0086 30.0004 48.1086 30.0004 48.3086C30.1004 48.5086 30.0004 48.7086 29.9004 48.9086C29.7004 49.3086 29.2004 49.6086 28.9004 49.7086C28.5004 49.8086 28.1004 49.8086 27.8004 49.8086C27.7004 50.2086 27.6004 50.6086 27.6004 51.1086C27.6004 51.2086 27.6004 51.5086 27.7004 51.9086C28.1004 51.5086 28.6004 51.3086 29.1004 51.4086C29.5004 51.4086 29.8004 51.6086 30.0004 52.0086C30.2004 52.4086 30.1004 52.9086 29.7004 53.2086C29.3004 53.6086 28.6004 53.8086 28.0004 53.5086C27.9004 53.4086 27.7004 53.3086 27.6004 53.2086C27.5004 53.8086 27.6004 54.4086 28.0004 54.9086C28.6004 55.6086 29.6004 55.7086 30.4004 55.3086L30.7004 55.9086C30.8004 55.7086 30.3004 55.8086 29.9004 55.8086ZM28.3004 52.1086C28.4004 52.2086 28.5004 52.4086 28.7004 52.5086C29.0004 52.6086 29.4004 52.5086 29.6004 52.3086C29.7004 52.2086 29.8004 52.0086 29.7004 51.8086C29.7004 51.7086 29.6004 51.6086 29.3004 51.6086C29.0004 51.5086 28.5004 51.7086 28.3004 52.1086C28.3004 52.0086 28.3004 52.1086 28.3004 52.1086ZM28.4004 48.8086C28.6004 48.8086 28.8004 48.8086 28.9004 48.7086C29.1004 48.6086 29.4004 48.5086 29.5004 48.3086V48.2086C29.5004 48.2086 29.4004 48.2086 29.0004 48.3086C28.8004 48.4086 28.6004 48.6086 28.4004 48.8086ZM27.9004 46.2086C28.1004 46.3086 28.4004 46.1086 28.6004 46.1086C28.8004 46.0086 29.0004 45.8086 29.1004 45.6086V45.5086C28.6004 45.5086 28.2004 45.8086 27.9004 46.2086C28.0004 46.2086 27.9004 46.2086 27.9004 46.2086ZM28.2004 43.3086C28.5004 43.4086 28.8004 43.3086 29.0004 43.2086C29.3004 43.0086 29.5004 42.8086 29.5004 42.6086C29.4004 42.6086 29.0004 42.7086 28.7004 42.9086C28.5004 43.0086 28.3004 43.2086 28.2004 43.3086ZM29.0004 40.1086C28.8004 40.1086 28.6004 40.2086 28.4004 40.3086C28.2004 40.4086 28.1004 40.5086 28.0004 40.6086C28.2004 40.6086 28.5004 40.5086 28.7004 40.4086C28.8004 40.5086 28.9004 40.3086 29.0004 40.1086ZM27.0004 38.3086C27.3004 38.3086 27.7004 38.2086 27.9004 37.9086C28.1004 37.7086 28.1004 37.6086 28.1004 37.6086C28.1004 37.6086 28.1004 37.6086 28.0004 37.6086C27.8004 37.7086 27.6004 37.8086 27.4004 37.9086C27.3004 38.0086 27.2004 38.2086 27.0004 38.3086ZM26.8004 34.8086C27.1004 34.9086 27.5004 34.9086 27.7004 34.7086C27.8004 34.6086 27.8004 34.6086 27.8004 34.6086V34.5086C27.8004 34.4086 27.7004 34.4086 27.6004 34.4086C27.4004 34.4086 27.1004 34.6086 27.0004 34.7086C26.9004 34.7086 26.9004 34.8086 26.8004 34.8086ZM26.4004 32.1086C26.5004 32.2086 26.7004 32.3086 26.9004 32.3086C27.2004 32.3086 27.6004 32.2086 27.7004 31.9086C27.7004 31.8086 27.7004 31.6086 27.6004 31.5086C27.6004 31.5086 27.5004 31.4086 27.4004 31.4086C27.3004 31.4086 27.2004 31.5086 27.1004 31.5086C26.8004 31.6086 26.6004 31.8086 26.4004 32.1086ZM26.5004 28.4086C26.7004 28.5086 26.9004 28.5086 27.0004 28.5086C27.2004 28.5086 27.6004 28.3086 27.6004 28.1086C27.5004 28.0086 27.3004 28.0086 26.7004 28.2086C26.6004 28.3086 26.6004 28.4086 26.5004 28.4086ZM26.4004 25.9086C26.6004 25.9086 26.7004 25.9086 26.9004 25.9086C27.0004 25.9086 27.3004 25.6086 27.3004 25.5086C27.1004 25.4086 26.8004 25.6086 26.4004 25.9086ZM25.8004 22.7086C26.0004 22.7086 26.2004 22.8086 26.4004 22.7086C26.8004 22.6086 27.1004 22.5086 27.2004 22.2086C27.0004 22.2086 26.6004 22.3086 26.4004 22.4086C26.1004 22.4086 25.9004 22.5086 25.8004 22.7086ZM26.2004 19.0086C26.5004 19.1086 27.0004 19.1086 27.3004 18.9086C27.5004 18.8086 27.7004 18.7086 27.8004 18.6086C27.5004 18.6086 27.0004 18.6086 26.7004 18.7086C26.5004 18.9086 26.3004 19.0086 26.2004 19.0086ZM26.6004 16.1086C26.5004 16.1086 26.4004 16.1086 26.3004 16.2086C26.4004 16.2086 26.5004 16.2086 26.6004 16.1086ZM25.9004 13.6086C26.0004 13.6086 26.1004 13.7086 26.2004 13.7086C26.5004 13.8086 26.7004 13.8086 26.9004 13.6086C27.0004 13.5086 27.1004 13.4086 27.0004 13.3086C27.0004 13.3086 27.0004 13.3086 26.9004 13.2086C26.8004 13.2086 26.7004 13.2086 26.6004 13.2086C26.4004 13.3086 26.1004 13.4086 25.9004 13.6086ZM26.7004 10.2086C26.7004 10.3086 26.8004 10.4086 26.8004 10.4086C27.0004 10.6086 27.4004 10.5086 27.5004 10.5086C27.7004 10.5086 27.8004 10.4086 27.8004 10.3086C27.9004 10.2086 27.9004 10.2086 27.9004 10.2086C27.9004 10.2086 27.9004 10.1086 27.8004 10.1086C27.7004 10.1086 27.6004 10.1086 27.5004 10.1086C27.2004 10.0086 27.0004 10.1086 26.7004 10.2086Z" fill="#4B4225"/>
<path d="M58.5 66.0086L28 92.9086L0 76.7086L30.5 49.8086L58.5 66.0086Z" fill="#99653C"/>
<path d="M77.3 55.2078L58.5 66.0078L30.5 49.8078L49.3 39.0078L77.3 55.2078Z" fill="#BF7D4A"/>
<path d="M76.6 54.8094H54V45.6094H60.7L76.6 54.8094Z" fill="#CCA689" fill-opacity="0.34"/>
<path d="M77.3 57.909V55.209L58.5 66.009L28 92.909V95.609L58.5 68.809L77.3 57.909Z" fill="#593820"/>
<path d="M0 79.409V76.709L28 92.909V95.609L0 79.409Z" fill="#6B4326"/>
<path d="M60.6996 48.409H60.0996C59.7996 48.009 59.2996 47.609 58.6996 47.209C55.9996 45.709 51.6996 45.709 49.0996 47.209C48.4996 47.609 47.9996 48.009 47.6996 48.409H47.0996V50.809C47.0996 51.809 47.6996 52.909 49.0996 53.609C51.7996 55.109 56.0996 55.109 58.6996 53.609C59.9996 52.809 60.6996 51.809 60.6996 50.809V48.409Z" fill="url(#paint0_linear)"/>
<path d="M58.6992 51.4086C55.9992 52.9086 51.6992 52.9086 49.0992 51.4086C46.3992 49.9086 46.3992 47.4086 49.0992 45.8086C51.7992 44.3086 56.0992 44.3086 58.6992 45.8086C61.3992 47.4086 61.3992 49.9086 58.6992 51.4086Z" fill="#D98E54"/>
<path d="M60.1996 50.2082H53.5996V44.9082H55.9996C56.9996 45.1082 57.8996 45.4082 58.6996 45.9082C60.6996 47.0082 61.1996 48.7082 60.1996 50.2082Z" fill="#CCA689" fill-opacity="0.34"/>
<path d="M57.9996 42.6094H57.5996C57.3996 42.3094 57.0996 42.1094 56.6996 41.9094C55.0996 41.0094 52.4996 41.0094 50.7996 41.9094C50.3996 42.1094 50.0996 42.4094 49.8996 42.6094H49.5996V47.7094C49.5996 48.3094 49.9996 49.0094 50.7996 49.4094C52.3996 50.3094 54.9996 50.3094 56.6996 49.4094C57.4996 48.9094 57.8996 48.3094 57.8996 47.7094V42.6094H57.9996Z" fill="url(#paint1_linear)"/>
<path d="M57.9992 42.6094V46.1094C55.5992 47.2094 52.1992 47.2094 49.6992 46.1094V42.6094H49.9992C50.1992 42.3094 50.4992 42.1094 50.8992 41.9094C52.4992 41.0094 55.0992 41.0094 56.7992 41.9094C57.1992 42.1094 57.4992 42.4094 57.6992 42.6094H57.9992Z" fill="#CCA689" fill-opacity="0.34"/>
<path d="M56.7992 44.409C55.1992 45.309 52.5992 45.309 50.8992 44.409C49.2992 43.509 49.2992 41.909 50.8992 41.009C52.4992 40.109 55.0992 40.109 56.7992 41.009C58.3992 42.009 58.3992 43.509 56.7992 44.409Z" fill="#B37646"/>
<path d="M60.6996 40.0086H60.0996C59.7996 39.6086 59.2996 39.2086 58.6996 38.8086C55.9996 37.3086 51.6996 37.3086 49.0996 38.8086C48.4996 39.2086 47.9996 39.6086 47.6996 40.0086H47.0996V42.4086C47.0996 43.4086 47.6996 44.5086 49.0996 45.2086C51.7996 46.7086 56.0996 46.7086 58.6996 45.2086C59.9996 44.4086 60.6996 43.4086 60.6996 42.4086V40.0086Z" fill="url(#paint2_linear)"/>
<path d="M58.6992 43.0082C55.9992 44.5082 51.6992 44.5082 49.0992 43.0082C46.3992 41.5082 46.3992 39.0082 49.0992 37.4082C51.7992 35.9082 56.0992 35.9082 58.6992 37.4082C61.3992 38.9082 61.3992 41.4082 58.6992 43.0082Z" fill="#D98E54"/>
<path d="M60.3 41.6086H54V37.3086H58.5C58.5 37.3086 58.6 37.3086 58.6 37.4086C60.7 38.6086 61.2 40.2086 60.3 41.6086Z" fill="#CCA689" fill-opacity="0.34"/>
<path d="M56.702 36.8074H56.502C56.402 36.6074 56.202 36.5074 56.002 36.3074C55.002 35.7074 53.302 35.7074 52.302 36.3074C52.102 36.4074 51.902 36.6074 51.702 36.8074H51.502V40.0074C51.502 40.4074 51.702 40.8074 52.302 41.1074C53.302 41.7074 55.002 41.7074 56.002 41.1074C56.502 40.8074 56.802 40.4074 56.802 40.0074V36.8074H56.702Z" fill="url(#paint3_linear)"/>
<path d="M55.9012 37.9078C54.9012 38.5078 53.2012 38.5078 52.2012 37.9078C51.2012 37.3078 51.2012 36.3078 52.2012 35.7078C53.2012 35.1078 54.9012 35.1078 55.9012 35.7078C56.9012 36.4078 56.9012 37.3078 55.9012 37.9078Z" fill="#828282"/>
<path d="M55.9012 34.4086H55.7012C55.6012 34.3086 55.5012 34.2086 55.3012 34.1086C54.6012 33.7086 53.4012 33.7086 52.7012 34.1086C52.5012 34.2086 52.4012 34.3086 52.3012 34.4086H52.2012V36.6086C52.2012 36.9086 52.4012 37.2086 52.7012 37.4086C53.4012 37.8086 54.6012 37.8086 55.3012 37.4086C55.7012 37.2086 55.8012 36.9086 55.8012 36.7086V34.4086H55.9012Z" fill="url(#paint4_linear)"/>
<path d="M55.3008 35.2082C54.6008 35.6082 53.4008 35.6082 52.7008 35.2082C52.0008 34.8082 52.0008 34.1082 52.7008 33.7082C53.4008 33.3082 54.6008 33.3082 55.3008 33.7082C56.0008 34.1082 56.0008 34.8082 55.3008 35.2082Z" fill="#828282"/>
<path d="M55.3012 32.6086H55.2012C55.1012 32.5086 55.1012 32.4086 54.9012 32.4086C54.4012 32.1086 53.6012 32.1086 53.1012 32.4086C53.0012 32.5086 52.9012 32.5086 52.8012 32.6086H52.7012V34.2086C52.7012 34.4086 52.8012 34.6086 53.1012 34.7086C53.6012 35.0086 54.4012 35.0086 54.9012 34.7086C55.1012 34.6086 55.3012 34.4086 55.3012 34.2086V32.6086Z" fill="url(#paint5_linear)"/>
<path d="M54.9016 33.2094C54.4016 33.5094 53.6016 33.5094 53.1016 33.2094C52.6016 32.9094 52.6016 32.4094 53.1016 32.2094C53.6016 31.9094 54.4016 31.9094 54.9016 32.2094C55.4016 32.4094 55.4016 32.9094 54.9016 33.2094Z" fill="#828282"/>
<path d="M55.9012 32.0082H55.7012C55.6012 31.9082 55.5012 31.8082 55.3012 31.7082C54.6012 31.3082 53.4012 31.3082 52.7012 31.7082C52.5012 31.8082 52.4012 31.9082 52.3012 32.0082H52.2012V32.7082C52.2012 33.0082 52.4012 33.3082 52.7012 33.5082C53.4012 33.9082 54.6012 33.9082 55.3012 33.5082C55.7012 33.3082 55.8012 33.0082 55.8012 32.8082V32.0082H55.9012Z" fill="url(#paint6_linear)"/>
<path d="M55.3008 32.8078C54.6008 33.2078 53.4008 33.2078 52.7008 32.8078C52.0008 32.4078 52.0008 31.7078 52.7008 31.3078C53.4008 30.9078 54.6008 30.9078 55.3008 31.3078C56.0008 31.7078 56.0008 32.4078 55.3008 32.8078Z" fill="#828282"/>
<path d="M55.1 30.6098C55 30.5098 54.9 30.5098 54.8 30.4098C54.4 30.2098 53.7 30.2098 53.3 30.4098C53.2 30.5098 53.1 30.5098 53.1 30.6098H53V31.9098C53 32.1098 53.1 32.2098 53.3 32.3098C53.7 32.5098 54.4 32.5098 54.8 32.3098C55 32.2098 55.1 32.0098 55.1 31.9098V30.6098Z" fill="url(#paint7_linear)"/>
<path d="M54.8 31.009C54.4 31.209 53.7 31.209 53.3 31.009C52.9 30.809 52.9 30.409 53.3 30.109C53.7 29.909 54.4 29.909 54.8 30.109C55.2 30.409 55.2 30.809 54.8 31.009Z" fill="#828282"/>
<path d="M48.3008 28.0086C48.4008 27.9086 48.5008 27.9086 48.6008 27.8086C49.0008 27.6086 49.3008 27.0086 49.3008 26.5086C49.3008 26.4086 49.3008 26.3086 49.2008 26.2086V26.1086L49.0008 26.0086C48.9008 25.9086 48.7008 25.9086 48.5008 26.0086C48.1008 26.2086 47.8008 26.8086 47.8008 27.3086C47.8008 27.5086 47.9008 27.7086 48.0008 27.8086L48.3008 28.0086Z" fill="url(#paint8_linear)"/>
<path d="M48.1016 27.5093C48.1016 27.0093 48.4016 26.4093 48.8016 26.2093C49.2016 26.0093 49.5016 26.2093 49.5016 26.6093C49.5016 27.1093 49.2016 27.7093 48.8016 27.9093C48.4016 28.2093 48.1016 28.0093 48.1016 27.5093Z" fill="#383838"/>
<path d="M52.7004 30.2086C52.8004 30.1086 52.9004 30.1086 52.9004 30.1086C53.2004 29.9086 53.4004 29.5086 53.4004 29.2086C53.4004 29.1086 53.4004 29.1086 53.4004 29.0086V28.9086L49.3004 26.5086C49.2004 26.4086 49.1004 26.4086 48.9004 26.5086C48.6004 26.7086 48.4004 27.1086 48.4004 27.4086C48.4004 27.6086 48.5004 27.7086 48.6004 27.7086L52.7004 30.2086Z" fill="url(#paint9_linear)"/>
<path d="M52.5 29.8086C52.5 29.5086 52.7 29.1086 53 28.9086C53.3 28.7086 53.5 28.9086 53.5 29.2086C53.5 29.5086 53.3 29.9086 53 30.1086C52.8 30.3086 52.5 30.1086 52.5 29.8086Z" fill="#383838"/>
<path d="M54.6012 31.9094C54.8012 31.8094 54.9012 31.8094 55.0012 31.7094C55.5012 31.4094 55.9012 30.7094 55.9012 30.1094C55.9012 30.0094 55.9012 29.9094 55.8012 29.8094L55.9012 29.7094L53.7012 28.4094C53.5012 28.3094 53.3012 28.3094 53.1012 28.5094C52.6012 28.8094 52.2012 29.5094 52.2012 30.1094C52.2012 30.4094 52.3012 30.6094 52.5012 30.7094L54.6012 31.9094Z" fill="url(#paint10_linear)"/>
<path d="M54.3008 31.3101C54.3008 30.7101 54.7008 30.0101 55.2008 29.7101C55.7008 29.4101 56.1008 29.6101 56.1008 30.2101C56.1008 30.8101 55.7008 31.5101 55.2008 31.8101C54.7008 32.1101 54.3008 31.9101 54.3008 31.3101Z" fill="#383838"/>
<path d="M59.1008 33.9078C59.2008 33.8078 59.3008 33.8078 59.3008 33.8078C59.6008 33.6078 59.8008 33.2078 59.8008 32.9078C59.8008 32.8078 59.8008 32.8078 59.8008 32.7078V32.6078L55.7008 30.2078C55.6008 30.1078 55.5008 30.1078 55.3008 30.2078C55.0008 30.4078 54.8008 30.8078 54.8008 31.1078C54.8008 31.3078 54.9008 31.4078 55.0008 31.4078L59.1008 33.9078Z" fill="url(#paint11_linear)"/>
<path d="M58.9004 33.5079C58.9004 33.2079 59.1004 32.8078 59.4004 32.6078C59.7004 32.4078 59.9004 32.6079 59.9004 32.9079C59.9004 33.2079 59.7004 33.6079 59.4004 33.8079C59.1004 34.0079 58.9004 33.9079 58.9004 33.5079Z" fill="#383838"/>
<path d="M59.2016 34.4094C59.3016 34.3094 59.4016 34.3094 59.5016 34.2094C59.9016 34.0094 60.2016 33.4094 60.2016 32.9094C60.2016 32.8094 60.2016 32.7094 60.1016 32.6094V32.5094L59.8016 32.3094C59.7016 32.2094 59.5016 32.2094 59.3016 32.3094C58.9016 32.5094 58.6016 33.1094 58.6016 33.6094C58.6016 33.8094 58.7016 34.0094 58.8016 34.1094L59.2016 34.4094Z" fill="url(#paint12_linear)"/>
<path d="M59.002 33.9097C59.002 33.4097 59.302 32.8097 59.702 32.6097C60.102 32.4097 60.402 32.6097 60.402 33.0097C60.402 33.5097 60.102 34.1097 59.702 34.3097C59.302 34.5097 59.002 34.4097 59.002 33.9097Z" fill="#383838"/>
<path d="M39.4008 22.709L33.8008 22.809C29.6008 32.109 35.6008 36.209 35.6008 36.209L44.2008 27.109C39.3008 25.909 39.4008 22.709 39.4008 22.709Z" fill="#948658"/>
<path d="M39.4008 22.709H38.6008C38.0008 22.709 37.5008 22.709 37.0008 22.909C36.8008 23.009 36.6008 23.109 36.5008 23.309C36.3008 23.809 36.6008 24.709 36.9008 25.209C37.8008 26.909 39.6008 27.809 41.4008 28.209C40.3008 29.309 39.3008 30.509 38.2008 31.609C37.8008 32.109 37.3008 32.509 36.9008 33.009C36.7008 33.209 36.4008 33.409 36.3008 33.709C36.1008 33.909 36.2008 34.409 36.2008 34.609C36.2008 34.709 36.2008 34.809 36.3008 34.809C36.6008 35.409 37.1008 34.709 37.4008 34.409C37.7008 34.109 38.0008 33.709 38.3008 33.409C39.0008 32.609 39.7008 31.909 40.4008 31.109C41.6008 29.809 42.8008 28.609 43.9008 27.309C44.0008 27.109 44.2008 27.009 44.3008 26.809C39.3008 25.909 39.4008 22.709 39.4008 22.709Z" fill="#E5CE88"/>
<path d="M38.2996 39.5093L38.5996 39.0093C39.1996 38.9093 39.6996 38.7093 40.3996 38.4093C43.0996 36.8093 45.2996 33.0093 45.2996 29.9093C45.2996 29.2093 45.1996 28.5093 44.9996 28.0093L45.2996 27.5093L43.9996 26.7093C43.0996 26.2093 41.8996 26.2093 40.4996 27.0093C37.7996 28.6093 35.5996 32.4093 35.5996 35.5093C35.5996 37.1093 36.1996 38.2093 37.0996 38.7093L38.2996 39.5093Z" fill="url(#paint13_linear)"/>
<path d="M36.6992 36.2087C36.6992 33.1087 38.8992 29.3087 41.5992 27.7087C44.2992 26.1087 46.4992 27.4087 46.4992 30.5087C46.4992 33.6087 44.2992 37.4087 41.5992 39.0087C38.8992 40.6087 36.6992 39.3087 36.6992 36.2087Z" fill="#584E2E"/>
<path d="M39.3988 38.609C37.8988 38.609 37.7988 36.909 37.7988 36.209C37.7988 33.509 39.7988 30.009 42.1988 28.709C42.7988 28.409 43.3988 28.209 43.8988 28.209C45.3988 28.209 45.4988 29.909 45.4988 30.609C45.4988 33.309 43.4988 36.809 41.0988 38.109C40.4988 38.409 39.8988 38.609 39.3988 38.609Z" fill="#948658"/>
<path d="M40.8988 37.2086C39.8988 37.2086 39.7988 36.0086 39.7988 35.5086C39.7988 33.6086 41.1988 31.1086 42.8988 30.2086C43.2988 30.0086 43.6988 29.8086 44.0988 29.8086C45.0988 29.8086 45.1988 31.0086 45.1988 31.5086C45.1988 33.4086 43.7988 35.9086 42.0988 36.8086C41.5988 37.1086 41.1988 37.2086 40.8988 37.2086Z" fill="#E5CE88"/>
<path d="M28.7004 5.30902L28.8004 5.10902C29.0004 5.10902 29.1004 5.00902 29.3004 4.90902C30.1004 4.40902 30.8004 3.30902 30.8004 2.40902C30.8004 2.20902 30.8004 2.00902 30.7004 1.80902L30.8004 1.70902L27.9004 0.109017C27.6004 -0.090983 27.3004 0.00901699 26.9004 0.209017C26.1004 0.709017 25.4004 1.80902 25.4004 2.70902C25.4004 3.20902 25.6004 3.50902 25.8004 3.60902L28.7004 5.30902Z" fill="url(#paint14_linear)"/>
<path d="M28.3008 4.3086C28.3008 3.4086 29.0008 2.2086 29.8008 1.8086C30.6008 1.4086 31.3008 1.7086 31.3008 2.6086C31.3008 3.5086 30.6008 4.7086 29.8008 5.1086C28.9008 5.6086 28.3008 5.3086 28.3008 4.3086Z" fill="#594C24"/>
<path d="M33.6008 7.60826L33.7008 7.50826C33.8008 7.50826 34.0008 7.40826 34.1008 7.30826C34.7008 6.90826 35.3008 6.00826 35.3008 5.30826C35.3008 5.10826 35.3008 5.00826 35.2008 4.90826L35.3008 4.80826L30.8008 2.20826C30.6008 2.10826 30.3008 2.10826 30.0008 2.30826C29.4008 2.70826 28.8008 3.60826 28.8008 4.30826C28.8008 4.70826 28.9008 4.90826 29.1008 5.00826L33.6008 7.60826Z" fill="url(#paint15_linear)"/>
<path d="M33.3008 6.90883C33.3008 6.20883 33.8008 5.30883 34.5008 4.90883C35.1008 4.50883 35.7008 4.80883 35.7008 5.60883C35.7008 6.40883 35.2008 7.20883 34.5008 7.60883C33.8008 7.90883 33.3008 7.60883 33.3008 6.90883Z" fill="#393939"/>
<path d="M39.4004 19.3094H39.2004C39.1004 19.1094 38.9004 19.0094 38.6004 18.8094C37.5004 18.2094 35.8004 18.2094 34.7004 18.8094C34.4004 18.9094 34.3004 19.1094 34.1004 19.3094H33.9004V22.7094C33.9004 23.1094 34.2004 23.5094 34.7004 23.9094C35.8004 24.5094 37.5004 24.5094 38.6004 23.9094C39.1004 23.6094 39.4004 23.2094 39.4004 22.8094V19.3094Z" fill="url(#paint16_linear)"/>
<path d="M39.4008 19.3094V21.9094C37.6008 22.3094 35.6008 22.3094 33.8008 21.9094V19.3094H34.0008C34.1008 19.1094 34.3008 19.0094 34.6008 18.8094C35.7008 18.2094 37.4008 18.2094 38.5008 18.8094C38.8008 18.9094 38.9008 19.1094 39.1008 19.3094H39.4008Z" fill="#8D7F53"/>
<path d="M38.6 20.5098C37.5 21.1098 35.8 21.1098 34.7 20.5098C33.6 19.9098 33.6 18.9098 34.7 18.2098C35.8 17.6098 37.5 17.6098 38.6 18.2098C39.6 18.9098 39.6 19.9098 38.6 20.5098Z" fill="#828282"/>
<path d="M44 15.7098H43.3C42.9 15.2098 42.4 14.8098 41.7 14.4098C38.8 12.7098 34 12.7098 31.1 14.4098C30.4 14.8098 29.9 15.3098 29.5 15.7098H29V17.3098C29 18.4098 29.7 19.6098 31.2 20.4098C34.1 22.1098 38.9 22.1098 41.8 20.4098C43.3 19.6098 44 18.4098 44 17.3098V15.7098Z" fill="url(#paint17_linear)"/>
<path d="M41.9006 18.91C39.0006 20.61 34.2005 20.61 31.3005 18.91C28.4005 17.21 28.3005 14.41 31.3005 12.81C34.3005 11.21 39.0006 11.11 41.9006 12.81C44.8006 14.51 44.8006 17.31 41.9006 18.91Z" fill="#DEC884"/>
<path d="M42.2004 18.7098H36.9004V11.5098C38.7004 11.6098 40.4004 12.0098 41.8004 12.8098C44.7004 14.4098 44.8004 17.0098 42.2004 18.7098Z" fill="#8D7F53"/>
<path d="M41.9997 14.8086C41.4997 13.7086 40.0997 11.5086 36.4997 11.3086C32.9997 11.5086 31.4997 13.6086 30.9997 14.8086C30.6997 15.5086 30.6997 16.3086 31.1997 16.9086C31.9997 17.9086 33.6997 18.4086 34.9997 18.6086C35.9997 18.8086 36.9997 18.8086 37.9997 18.6086C39.2997 18.4086 40.9997 17.9086 41.7997 16.9086C42.2997 16.3086 42.2997 15.5086 41.9997 14.8086Z" fill="#FFE698"/>
<path d="M39.4008 9.50859H39.2008C39.0008 9.30859 38.8008 9.20859 38.5008 9.00859C37.4008 8.40859 35.7008 8.40859 34.6008 9.00859C34.3008 9.10859 34.2008 9.30859 34.0008 9.50859H33.8008V12.9086C33.8008 13.3086 34.1008 13.7086 34.6008 14.1086C35.7008 14.7086 37.4008 14.7086 38.5008 14.1086C39.0008 13.8086 39.3008 13.4086 39.3008 13.0086V9.50859H39.4008Z" fill="url(#paint18_linear)"/>
<path d="M39.4008 9.50859V10.9086C39.3008 11.0086 39.2008 11.1086 39.0008 11.2086C37.7008 12.0086 35.6008 12.0086 34.2008 11.2086C34.0008 11.1086 33.9008 11.0086 33.8008 10.9086V9.50859H34.0008C34.1008 9.30859 34.3008 9.20859 34.6008 9.00859C35.7008 8.40859 37.4008 8.40859 38.5008 9.00859C38.8008 9.10859 38.9008 9.30859 39.1008 9.50859H39.4008Z" fill="#8D7F53"/>
<path d="M38.6 10.709C37.5 11.309 35.8 11.309 34.7 10.709C33.6 10.109 33.6 9.10898 34.7 8.40898C35.8 7.80898 37.5 7.80898 38.6 8.40898C39.6 9.10898 39.6 10.109 38.6 10.709Z" fill="#828282"/>
<path d="M39.9992 5.1082H39.6992C39.4992 4.9082 39.2992 4.7082 38.9992 4.5082C37.6992 3.7082 35.4992 3.7082 34.1992 4.5082C33.8992 4.7082 33.6992 4.9082 33.4992 5.1082H33.1992V9.2082C33.1992 9.7082 33.4992 10.2082 34.1992 10.6082C35.4992 11.4082 37.6992 11.4082 38.9992 10.6082C39.6992 10.2082 39.9992 9.7082 39.9992 9.2082V5.1082Z" fill="url(#paint19_linear)"/>
<path d="M39.9842 5.21117C39.9899 4.16183 38.4722 3.3029 36.5945 3.29269C34.7167 3.28249 33.1899 4.12488 33.1842 5.17422C33.1784 6.22356 34.6961 7.08249 36.5738 7.09269C38.4516 7.10289 39.9785 6.26051 39.9842 5.21117Z" fill="#DEC884"/>
<path d="M39.8 5.80781H36.5V4.00781H39.3C40 4.50781 40.1 5.20781 39.8 5.80781Z" fill="#8D7F53"/>
<path d="M38.0012 4.40938H37.9012C37.8012 4.30938 37.7012 4.20938 37.6012 4.20938C37.1012 3.90937 36.2012 3.90937 35.6012 4.20938C35.5012 4.30938 35.4012 4.40938 35.3012 4.40938H35.2012V5.00938C35.2012 5.20938 35.3012 5.40938 35.6012 5.60938C36.1012 5.90938 37.0012 5.90938 37.6012 5.60938C37.8012 5.50938 38.0012 5.20938 38.0012 5.00938V4.40938Z" fill="url(#paint20_linear)"/>
<path d="M37.6016 5.00859C37.1016 5.30859 36.2016 5.30859 35.6016 5.00859C35.1016 4.70859 35.1016 4.20859 35.6016 3.90859C36.1016 3.60859 37.0016 3.60859 37.6016 3.90859C38.1016 4.20859 38.1016 4.70859 37.6016 5.00859Z" fill="#FFE698"/>
<path d="M42.3 12.909L42.4 12.809C42.5 12.809 42.7 12.709 42.8 12.609C43.4 12.209 44 11.309 44 10.609C44 10.409 44 10.309 43.9 10.209L44 10.109L39.5 7.50904C39.3 7.40904 39 7.40904 38.7 7.60904C38.1 8.00904 37.5 8.90905 37.5 9.60905C37.5 10.009 37.6 10.209 37.8 10.309L42.3 12.909Z" fill="url(#paint21_linear)"/>
<path d="M43.8536 11.9549C44.2996 11.1921 44.3133 10.3703 43.8842 10.1194C43.4551 9.86854 42.7457 10.2836 42.2997 11.0465C41.8537 11.8093 41.84 12.6311 42.2692 12.882C42.6983 13.1328 43.4077 12.7178 43.8536 11.9549Z" fill="#393939"/>
<path d="M43.2004 15.71L43.4004 15.41C43.7004 15.41 44.0004 15.31 44.3004 15.11C45.7004 14.31 46.8004 12.41 46.8004 10.81C46.8004 10.41 46.7004 10.11 46.6004 9.90998L46.7004 9.70998L45.7004 9.10998C45.2004 8.80998 44.6004 8.90998 43.9004 9.30998C42.5004 10.11 41.4004 12.01 41.4004 13.61C41.4004 14.41 41.7004 14.91 42.1004 15.21L43.2004 15.71Z" fill="url(#paint22_linear)"/>
<path d="M42.4004 14.1098C42.4004 12.5098 43.5004 10.6098 44.9004 9.80984C46.3004 9.00984 47.4004 9.60984 47.4004 11.2098C47.4004 12.8098 46.3004 14.7098 44.9004 15.5098C43.5004 16.3098 42.4004 15.7098 42.4004 14.1098Z" fill="#594C24"/>
<path d="M45.7004 16.7089L45.8004 16.5089C46.0004 16.5089 46.3004 16.4089 46.6004 16.2089C47.8004 15.5089 48.8004 13.8089 48.8004 12.5089C48.8004 12.2089 48.7004 11.9089 48.6004 11.7089L48.7004 11.5089L46.7004 10.4089C46.3004 10.2089 45.8004 10.2089 45.1004 10.5089C43.9004 11.2089 42.9004 12.9089 42.9004 14.2089C42.9004 14.9089 43.1004 15.4089 43.5004 15.6089L45.7004 16.7089Z" fill="url(#paint23_linear)"/>
<path d="M48.735 14.9317C49.599 13.4537 49.6038 11.8487 48.7456 11.347C47.8874 10.8453 46.4912 11.6367 45.6271 13.1148C44.763 14.5928 44.7582 16.1977 45.6164 16.6995C46.4747 17.2012 47.8709 16.4097 48.735 14.9317Z" fill="#393939"/>
<path d="M47.2008 18.3098L47.4008 18.0098C47.7008 18.0098 48.0008 17.9098 48.4008 17.7098C49.9008 16.9098 51.0008 14.8098 51.0008 13.1098C51.0008 12.7098 50.9008 12.4098 50.8008 12.1098L51.0008 11.8098L49.3008 10.9098C48.8008 10.6098 48.1008 10.6098 47.4008 11.1098C45.9008 11.9098 44.8008 14.0098 44.8008 15.7098C44.8008 16.5098 45.1008 17.1098 45.6008 17.4098L47.2008 18.3098Z" fill="url(#paint24_linear)"/>
<path d="M45.7004 16.7089L45.8004 16.5089C46.0004 16.5089 46.3004 16.4089 46.6004 16.2089C47.8004 15.5089 48.8004 13.8089 48.8004 12.5089C48.8004 12.2089 48.7004 11.9089 48.6004 11.7089L48.7004 11.5089L46.7004 10.4089C46.3004 10.2089 45.8004 10.2089 45.1004 10.5089C43.9004 11.2089 42.9004 12.9089 42.9004 14.2089C42.9004 14.9089 43.1004 15.4089 43.5004 15.6089L45.7004 16.7089Z" fill="url(#paint25_linear)"/>
<path d="M47.2008 18.3098L47.4008 18.0098C47.7008 18.0098 48.0008 17.9098 48.4008 17.7098C49.9008 16.9098 51.0008 14.8098 51.0008 13.1098C51.0008 12.7098 50.9008 12.4098 50.8008 12.1098L51.0008 11.8098L49.3008 10.9098C48.8008 10.6098 48.1008 10.6098 47.4008 11.1098C45.9008 11.9098 44.8008 14.0098 44.8008 15.7098C44.8008 16.5098 45.1008 17.1098 45.6008 17.4098L47.2008 18.3098Z" fill="url(#paint26_linear)"/>
<path d="M46.3008 16.6084C46.3008 14.9084 47.5008 12.9084 48.9008 12.0084C50.4008 11.2084 51.5008 11.8084 51.5008 13.5084C51.5008 15.2084 50.3008 17.2084 48.9008 18.1084C47.5008 18.9084 46.3008 18.3084 46.3008 16.6084Z" fill="#393939"/>
<path d="M60.8012 26.909L61.0012 26.609C61.3012 26.609 61.7012 26.409 62.1012 26.209C63.7012 25.209 65.1012 22.909 65.1012 21.109C65.1012 20.709 65.0012 20.309 64.9012 20.009L65.1012 19.709L51.3012 11.609C50.8012 11.309 50.0012 11.309 49.2012 11.809C47.6012 12.809 46.2012 15.109 46.2012 16.909C46.2012 17.809 46.5012 18.509 47.1012 18.809L60.8012 26.909Z" fill="url(#paint27_linear)"/>
<path d="M59.8008 24.91C59.8008 23.01 61.1008 20.71 62.8008 19.81C64.4008 18.81 65.8008 19.61 65.8008 21.51C65.8008 23.41 64.5008 25.71 62.8008 26.61C61.2008 27.51 59.8008 26.81 59.8008 24.91Z" fill="#4D2E17"/>
<path d="M62.9 27.6086L63.1 27.3086C63.4 27.3086 63.7 27.2086 64.1 27.0086C65.6 26.2086 66.7 24.1086 66.7 22.4086C66.7 22.0086 66.6 21.7086 66.5 21.4086L66.7 21.1086L65 20.2086C64.5 19.9086 63.8 19.9086 63.1 20.4086C61.6 21.2086 60.5 23.3086 60.5 25.0086C60.5 25.8086 60.8 26.4086 61.3 26.7086L62.9 27.6086Z" fill="url(#paint28_linear)"/>
<path d="M62.0996 25.8096C62.0996 24.1096 63.2996 22.1096 64.6996 21.2096C66.1996 20.4096 67.2996 21.0096 67.2996 22.7096C67.2996 24.4096 66.0996 26.4096 64.6996 27.3096C63.1996 28.2096 62.0996 27.5096 62.0996 25.8096Z" fill="#594C24"/>
<path d="M65.5012 28.4081L65.6012 28.2081C65.8012 28.2081 66.1012 28.1081 66.4012 27.9081C67.6012 27.2081 68.6012 25.5081 68.6012 24.2081C68.6012 23.9081 68.5012 23.6081 68.4012 23.4081L68.5012 23.2081L66.5012 22.1081C66.1012 21.9081 65.6012 21.9081 64.9012 22.2081C63.7012 22.9081 62.7012 24.6081 62.7012 25.9081C62.7012 26.6081 62.9012 27.1081 63.3012 27.3081L65.5012 28.4081Z" fill="url(#paint29_linear)"/>
<path d="M64.8008 26.9078C64.8008 25.5078 65.8008 23.9078 67.0008 23.2078C68.2008 22.5078 69.2008 23.1078 69.2008 24.4078C69.2008 25.8078 68.2008 27.4078 67.0008 28.1078C65.8008 28.9078 64.8008 28.3078 64.8008 26.9078Z" fill="#393939"/>
<path d="M66.3996 29.3096L66.5996 29.0096C66.8996 29.0096 67.1996 28.9096 67.4996 28.7096C68.8996 27.9096 69.9996 26.0096 69.9996 24.4096C69.9996 24.0096 69.8996 23.7096 69.7996 23.5096L69.8996 23.3096L68.8996 22.7096C68.3996 22.4096 67.7996 22.5096 67.0996 22.9096C65.6996 23.7096 64.5996 25.6096 64.5996 27.2096C64.5996 28.0096 64.8996 28.5096 65.2996 28.8096L66.3996 29.3096Z" fill="url(#paint30_linear)"/>
<path d="M65.5996 27.7095C65.5996 26.1095 66.6996 24.2095 68.0996 23.4095C69.4996 22.6095 70.5996 23.2094 70.5996 24.8094C70.5996 26.4094 69.4996 28.3095 68.0996 29.1095C66.6996 29.9095 65.5996 29.2095 65.5996 27.7095Z" fill="#594C24"/>
<path d="M81.0012 36.2105H80.5012C80.2012 35.8105 79.8012 35.4105 79.2012 35.1105C76.8012 33.7105 72.9012 33.7105 70.5012 35.1105C69.9012 35.4105 69.5012 35.8105 69.2012 36.2105H68.7012V39.4106C68.7012 40.3106 69.3012 41.3105 70.5012 42.0105C72.9012 43.4105 76.8012 43.4105 79.2012 42.0105C80.4012 41.3105 81.0012 40.4105 81.0012 39.5105V36.2105Z" fill="url(#paint31_linear)"/>
<path d="M81.0012 36.2102V38.1102C80.7012 38.6102 80.2012 39.0102 79.5012 39.4102C76.9012 40.9102 72.8012 40.9102 70.2012 39.4102C69.5012 39.0102 69.0012 38.6102 68.7012 38.1102V36.3102H69.2012C69.5012 35.9102 69.9012 35.5102 70.5012 35.2102C72.9012 33.8102 76.8012 33.8102 79.2012 35.2102C79.8012 35.5102 80.2012 35.9102 80.5012 36.3102H81.0012V36.2102Z" fill="#8D7F53"/>
<path d="M79.2012 38.8098C76.8012 40.2098 72.9012 40.2098 70.5012 38.8098C68.1012 37.4098 68.1012 35.2098 70.5012 33.8098C72.9012 32.4098 76.8012 32.4098 79.2012 33.8098C81.6012 35.2098 81.6012 37.5098 79.2012 38.8098Z" fill="#9B9B9B"/>
<path d="M81.5008 34.7098H80.9008C80.6008 34.3098 80.1008 33.9098 79.5008 33.5098C76.9008 32.0098 72.8008 32.0098 70.2008 33.5098C69.6008 33.8098 69.1008 34.2098 68.8008 34.7098H68.3008V36.0098C68.3008 37.0098 68.9008 38.0098 70.2008 38.7098C72.8008 40.2098 76.9008 40.2098 79.5008 38.7098C80.8008 38.0098 81.4008 37.0098 81.4008 36.0098V34.7098H81.5008Z" fill="url(#paint32_linear)"/>
<path d="M79.5 37.5094C76.9 39.0094 72.8 39.0094 70.2 37.5094C67.6 36.0094 67.6 33.6094 70.2 32.1094C72.8 30.6094 76.9 30.6094 79.5 32.1094C82.1 33.7094 82.1 36.1094 79.5 37.5094Z" fill="#DEC884"/>
<path d="M79.4992 37.5098C79.1992 37.7098 78.8992 37.8098 78.5992 37.9098H75.1992V31.0098C76.7992 31.0098 78.2992 31.4098 79.4992 32.1098C82.0992 33.7098 82.0992 36.1098 79.4992 37.5098Z" fill="#8D7F53"/>
<path d="M81.0012 32.2086H80.5012C80.2012 31.8086 79.8012 31.4086 79.2012 31.1086C76.8012 29.7086 72.9012 29.7086 70.5012 31.1086C69.9012 31.4086 69.5012 31.8086 69.2012 32.2086H68.7012V34.3086C68.7012 35.2086 69.3012 36.2086 70.5012 36.9086C72.9012 38.3086 76.8012 38.3086 79.2012 36.9086C80.4012 36.2086 81.0012 35.3086 81.0012 34.4086V32.2086Z" fill="url(#paint33_linear)"/>
<path d="M79.2012 34.9094C76.8012 36.3094 72.9012 36.3094 70.5012 34.9094C68.1012 33.5094 68.1012 31.3094 70.5012 29.9094C72.9012 28.5094 76.8012 28.5094 79.2012 29.9094C81.6012 31.3094 81.6012 33.5094 79.2012 34.9094Z" fill="#DEC884"/>
<path d="M80.8008 33.4102H74.8008V28.9102C76.4008 28.9102 78.0008 29.2102 79.2008 29.9102C80.8008 30.8102 81.4008 32.2102 80.8008 33.4102Z" fill="#8D7F53"/>
<path d="M72.1008 30.6083L72.2008 30.5083C72.3008 30.5083 72.5008 30.4083 72.6008 30.3083C73.2008 29.9083 73.8008 29.0083 73.8008 28.3083C73.8008 28.1083 73.8008 28.0083 73.7008 27.9083L73.8008 27.8083L69.3008 25.2083C69.1008 25.1083 68.8008 25.1083 68.5008 25.3083C67.9008 25.7083 67.3008 26.6083 67.3008 27.3083C67.3008 27.7083 67.4008 27.9083 67.6008 28.0083L72.1008 30.6083Z" fill="url(#paint34_linear)"/>
<path d="M73.7091 29.6717C74.1551 28.9089 74.1688 28.0871 73.7397 27.8362C73.3106 27.5853 72.6012 28.0004 72.1552 28.7633C71.7092 29.5261 71.6955 30.3479 72.1246 30.5988C72.5537 30.8496 73.2631 30.4346 73.7091 29.6717Z" fill="#393939"/>
<path d="M78.2 27.3074H78C77.8 27.1074 77.6 26.9074 77.3 26.7074C76 25.9074 73.8 25.9074 72.5 26.7074C72.2 26.9074 72 27.1074 71.8 27.3074H71.5V31.4074C71.5 31.9074 71.8 32.4074 72.5 32.8074C73.8 33.6074 76 33.6074 77.3 32.8074C78 32.4074 78.3 31.9074 78.3 31.4074V27.3074H78.2Z" fill="url(#paint35_linear)"/>
<path d="M77.3004 28.8082C76.0004 29.6082 73.9004 29.6082 72.5004 28.8082C71.2004 28.0082 71.2004 26.8082 72.5004 26.0082C73.8004 25.2082 75.9004 25.2082 77.3004 26.0082C78.7004 26.8082 78.6004 28.0082 77.3004 28.8082Z" fill="#DEC884"/>
<path d="M78.1004 28.0086H74.9004V26.3086H77.7004C78.3004 26.8086 78.4004 27.5086 78.1004 28.0086Z" fill="#8D7F53"/>
<path d="M76.3 26.6105H76.2C76.1 26.5105 76 26.4105 75.9 26.4105C75.4 26.1105 74.5 26.1105 73.9 26.4105C73.8 26.5105 73.7 26.6105 73.6 26.6105H73.5V27.2105C73.5 27.4105 73.6 27.6105 73.9 27.8105C74.4 28.1105 75.3 28.1105 75.9 27.8105C76.2 27.6105 76.3 27.4105 76.3 27.2105V26.6105Z" fill="url(#paint36_linear)"/>
<path d="M75.9004 27.2098C75.4004 27.5098 74.5004 27.5098 73.9004 27.2098C73.4004 26.9098 73.4004 26.4098 73.9004 26.1098C74.4004 25.8098 75.3004 25.8098 75.9004 26.1098C76.5004 26.4098 76.4004 26.9098 75.9004 27.2098Z" fill="#FFE698"/>
<path d="M48.1008 8.50902C47.9008 8.80902 47.7008 9.20902 47.6008 9.70902C47.5008 10.009 47.5008 10.409 47.4008 10.709L46.8008 10.409C46.8008 10.209 46.9008 10.109 46.9008 9.90902C47.1008 9.30902 47.3008 8.70902 47.7008 8.20902C47.9008 8.00902 48.1008 7.90902 48.2008 8.10902C48.3008 8.10902 48.3008 8.30902 48.1008 8.50902Z" fill="#9D8E5D"/>
<path d="M44.8 16.6082C43.9 17.0082 43 16.8082 42.7 16.1082C42.4 15.6082 42.4 14.9082 42.4 14.3082C42.4 13.8082 42.3 13.3082 42.2 12.9082C42.1 12.6082 41.9 12.4082 41.7 12.3082C41.6 12.3082 41.5 12.1082 41.6 11.9082C41.7 11.6082 41.9 11.4082 42.1 11.4082C42.4 11.5082 42.7 11.8082 42.9 12.2082C43.1 12.7082 43.1 13.2082 43.1 13.8082C43.1 14.4082 43.2 15.0082 43.4 15.4082C43.4 15.4082 43.4 15.5082 43.5 15.5082C43.7 15.8082 44 15.9082 44.4 15.9082L44.9 16.2082C44.7 16.3082 44.8 16.4082 44.8 16.6082Z" fill="#9D8E5D"/>
<path d="M65.4 34.3098C65 36.1098 63.7 37.3098 61.9 37.6098C61.7 37.6098 61.5 37.6098 61.3 37.6098C59.7 37.6098 58.3 36.7098 57.6 35.3098C57.1 34.2098 56.7 33.1098 56.5 32.3098L57.4 32.8098C57.6 33.5098 57.9 34.2098 58.2 34.9098C59 36.5098 60.6 36.9098 61.8 36.8098C63 36.6098 64.3 35.8098 64.7 34.1098C65 32.7098 65.1 30.9098 65.1 29.0098H65.8C65.9 31.0098 65.7 32.8098 65.4 34.3098Z" fill="#9D8E5D"/>
<path d="M65.9996 29.1086C65.8996 29.2086 65.7996 29.3086 65.5996 29.4086L65.3996 29.5086C64.4996 29.9086 63.6996 29.7086 63.2996 29.0086C62.9996 28.5086 62.9996 27.8086 62.9996 27.2086C62.9996 26.7086 62.8996 26.2086 62.7996 25.8086C62.6996 25.5086 62.4996 25.3086 62.2996 25.2086C62.1996 25.2086 62.0996 25.0086 62.1996 24.8086C62.2996 24.5086 62.4996 24.3086 62.6996 24.3086C62.9996 24.4086 63.2996 24.7086 63.4996 25.1086C63.6996 25.6086 63.6996 26.1086 63.6996 26.7086C63.6996 27.3086 63.7996 27.9086 63.9996 28.3086C63.9996 28.3086 63.9996 28.4086 64.0996 28.4086C64.3996 28.8086 64.7996 28.9086 65.2996 28.7086L65.9996 29.1086Z" fill="#9D8E5D"/>
<path d="M68.7992 21.4098C68.5992 21.7098 68.3992 22.1098 68.2992 22.5098C68.0992 22.5098 67.8992 22.5098 67.6992 22.6098C67.8992 22.0098 68.0992 21.5098 68.3992 21.0098C68.5992 20.8098 68.7992 20.7098 68.8992 20.9098C68.9992 21.0098 68.8992 21.2098 68.7992 21.4098Z" fill="#9D8E5D"/>
<path d="M51.4993 29.5082C50.7993 29.9082 48.9993 30.7082 47.2993 30.7082C46.5993 30.7082 45.9993 30.6082 45.3993 30.2082C44.1993 29.5082 43.4993 28.0082 43.5993 25.7082C43.6993 17.9082 43.6993 16.4082 43.6993 16.4082H44.3993C44.3993 16.4082 44.3993 17.9082 44.2993 25.7082C44.2993 27.7082 44.7993 29.0082 45.7993 29.6082C47.2993 30.5082 49.5993 29.6082 50.7993 29.0082L51.4993 29.5082Z" fill="#9D8E5D"/>
<path d="M29.7699 83.5781C38.5541 82.1981 44.883 76.0372 43.9058 69.8174C42.9287 63.5975 35.0156 59.674 26.2314 61.054C17.4472 62.434 11.1183 68.5949 12.0955 74.8148C13.0726 81.0347 20.9857 84.9581 29.7699 83.5781Z" fill="#333333"/>
<path d="M42.8993 77.6086C38.0993 82.9086 28.6993 84.9086 21.7993 82.0086C14.8993 79.1086 13.1993 72.5086 17.9993 67.2086C22.7993 61.9086 32.1993 59.9086 39.0993 62.8086C45.9993 65.7086 47.6993 72.3086 42.8993 77.6086Z" fill="#CCA689" fill-opacity="0.34"/>
<path d="M40.4989 77.1086C35.6989 82.4086 26.2989 84.4086 19.3989 81.5086C12.4989 78.6086 10.7989 72.0086 15.5989 66.7086C20.3989 61.4086 29.7989 59.4086 36.6989 62.3086C43.5989 65.1086 45.2989 71.8086 40.4989 77.1086Z" fill="url(#paint37_linear)"/>
<path d="M40.4989 75.2082C35.6989 80.5082 26.2989 82.5082 19.3989 79.6082C12.4989 76.7082 10.7989 70.1082 15.5989 64.8082C20.3989 59.5082 29.7989 57.5082 36.6989 60.4082C43.5989 63.2082 45.2989 69.9082 40.4989 75.2082Z" fill="#C8B477"/>
<path d="M33.798 72.4073C31.598 74.8073 27.198 75.7073 24.098 74.4073C20.898 73.1073 20.098 70.0073 22.298 67.6073C24.498 65.2073 28.898 64.3073 31.998 65.6073C35.198 66.9073 35.998 69.9073 33.798 72.4073Z" fill="#333333"/>
<path d="M33.3993 72.2082C31.2993 74.5082 27.1993 75.3082 24.2993 74.1082C21.2993 72.8082 20.5993 70.0082 22.6993 67.7082C24.7993 65.4082 28.8993 64.6082 31.7993 65.8082C34.7993 67.0082 35.4993 69.9082 33.3993 72.2082Z" fill="url(#paint38_linear)"/>
<path d="M28.7349 73.758C32.3359 73.1923 34.9284 70.6549 34.5256 68.0906C34.1227 65.5263 30.877 63.9061 27.276 64.4718C23.675 65.0375 21.0824 67.5749 21.4853 70.1392C21.8882 72.7036 25.1339 74.3238 28.7349 73.758Z" fill="#D8C381"/>
<path d="M33.399 71.0082C31.299 73.3082 27.199 74.1082 24.299 72.9082C22.499 72.2082 21.599 70.8082 21.499 69.4082C21.399 71.0082 22.399 72.4082 24.299 73.2082C27.299 74.5082 31.399 73.6082 33.399 71.3082C34.199 70.4082 34.599 69.3082 34.599 68.4082C34.499 69.3082 34.199 70.2082 33.399 71.0082Z" fill="#FFEDB5"/>
<path d="M37.3983 62.0082C37.1983 62.9082 36.1983 63.5082 34.9983 63.5082C33.7983 63.5082 32.9983 62.8082 33.0983 61.9082C33.2983 61.0082 34.2983 60.4082 35.4983 60.4082C36.6983 60.5082 37.4983 61.2082 37.3983 62.0082Z" fill="#675C39"/>
<path d="M37.0992 61.3074H36.8992C36.5992 60.9074 36.0992 60.7074 35.3992 60.6074C34.5992 60.6074 33.8992 60.9074 33.4992 61.4074H33.1992V62.2074C33.2992 62.8074 33.8992 63.3074 34.8992 63.3074C35.8992 63.3074 36.8992 62.7074 36.9992 61.9074C36.9992 61.8074 36.9992 61.8074 36.9992 61.7074L37.0992 61.3074Z" fill="url(#paint39_linear)"/>
<path d="M37.0975 61.4078C36.9975 62.2078 35.9975 62.8078 34.9975 62.8078C33.9975 62.8078 33.1975 62.2078 33.2975 61.4078C33.3975 60.6078 34.3975 60.0078 35.3975 60.0078C36.3975 60.0078 37.2975 60.6078 37.0975 61.4078Z" fill="#8B8B8B"/>
<path d="M37.0988 61.3078C36.9988 62.1078 35.9988 62.7078 34.9988 62.6078C34.0988 62.6078 33.3988 62.1078 33.2988 61.5078C33.2988 62.2078 33.9988 62.7078 34.9988 62.7078C35.9988 62.7078 36.9988 62.1078 37.0988 61.3078C37.0988 61.2078 37.0988 61.1078 37.0988 61.0078C37.0988 61.2078 37.0988 61.2078 37.0988 61.3078Z" fill="#E6E6E6"/>
<path d="M41.5994 65.2094C41.3994 66.1094 40.3994 66.7094 39.1994 66.7094C37.9994 66.7094 37.1994 66.0094 37.2994 65.1094C37.4994 64.2094 38.4994 63.6094 39.6994 63.6094C40.8994 63.7094 41.6994 64.4094 41.5994 65.2094Z" fill="#675C39"/>
<path d="M41.4 64.5086H41.2C40.9 64.1086 40.4 63.9086 39.7 63.8086C38.9 63.8086 38.2 64.1086 37.8 64.6086H37.5V65.4086C37.6 66.0086 38.2 66.5086 39.2 66.5086C40.2 66.5086 41.2 65.9086 41.3 65.1086C41.3 65.0086 41.3 65.0086 41.3 64.9086L41.4 64.5086Z" fill="url(#paint40_linear)"/>
<path d="M41.4003 64.609C41.3003 65.409 40.3003 66.009 39.3003 66.009C38.3003 66.009 37.5003 65.409 37.6003 64.609C37.7003 63.809 38.7003 63.209 39.7003 63.209C40.8003 63.209 41.5003 63.909 41.4003 64.609Z" fill="#8B8B8B"/>
<path d="M41.3996 64.5086C41.2996 65.3086 40.2996 65.9086 39.2996 65.9086C38.3996 65.9086 37.6996 65.4086 37.5996 64.8086C37.5996 65.5086 38.2996 66.0086 39.2996 66.0086C40.2996 66.0086 41.2996 65.4086 41.3996 64.6086C41.3996 64.5086 41.3996 64.4086 41.3996 64.3086C41.3996 64.4086 41.3996 64.4086 41.3996 64.5086Z" fill="#E6E6E6"/>
<path d="M42.699 69.809C42.499 70.709 41.499 71.309 40.299 71.309C39.099 71.309 38.299 70.609 38.399 69.709C38.599 68.809 39.599 68.209 40.799 68.209C41.999 68.209 42.899 68.909 42.699 69.809Z" fill="#675C39"/>
<path d="M42.4996 69.0086H42.2996C41.9996 68.6086 41.4996 68.4086 40.7996 68.3086C39.9996 68.3086 39.2996 68.6086 38.8996 69.1086H38.5996V70.0086C38.6996 70.6086 39.2996 71.1086 40.2996 71.1086C41.2996 71.1086 42.2996 70.5086 42.3996 69.7086C42.3996 69.6086 42.3996 69.6086 42.3996 69.5086L42.4996 69.0086Z" fill="url(#paint41_linear)"/>
<path d="M42.4999 69.109C42.3999 69.909 41.3999 70.509 40.3999 70.509C39.3999 70.509 38.5999 69.909 38.6999 69.109C38.7999 68.309 39.7999 67.709 40.7999 67.709C41.8999 67.809 42.5999 68.409 42.4999 69.109Z" fill="#8B8B8B"/>
<path d="M42.4992 69.0086C42.3992 69.8086 41.3992 70.4086 40.3992 70.4086C39.4992 70.4086 38.7992 69.9086 38.6992 69.3086C38.6992 70.0086 39.3992 70.5086 40.3992 70.5086C41.3992 70.5086 42.3992 69.9086 42.4992 69.1086C42.4992 69.0086 42.4992 68.9086 42.4992 68.8086C42.4992 68.9086 42.4992 69.0086 42.4992 69.0086Z" fill="#E6E6E6"/>
<path d="M40.4998 74.309C40.2998 75.209 39.2998 75.809 38.0998 75.809C36.8998 75.809 36.0998 75.109 36.1998 74.209C36.3998 73.309 37.3998 72.709 38.5998 72.709C39.7998 72.709 40.5998 73.409 40.4998 74.309Z" fill="#675C39"/>
<path d="M40.3004 73.5086H40.1004C39.8004 73.1086 39.3004 72.9086 38.6004 72.8086C37.8004 72.8086 37.1004 73.1086 36.7004 73.6086H36.4004V74.4086C36.5004 75.0086 37.1004 75.5086 38.1004 75.5086C39.1004 75.5086 40.1004 74.9086 40.2004 74.1086C40.2004 74.0086 40.2004 74.0086 40.2004 73.9086L40.3004 73.5086Z" fill="url(#paint42_linear)"/>
<path d="M40.1991 73.7086C40.0991 74.5086 39.0991 75.1086 38.0991 75.1086C37.0991 75.1086 36.2991 74.5086 36.3991 73.7086C36.4991 72.9086 37.4991 72.3086 38.4991 72.3086C39.5991 72.3086 40.3991 72.9086 40.1991 73.7086Z" fill="#8B8B8B"/>
<path d="M40.2004 73.6082C40.1004 74.4082 39.1004 75.0082 38.1004 75.0082C37.2004 75.0082 36.5004 74.5082 36.4004 73.9082C36.4004 74.6082 37.1004 75.1082 38.1004 75.1082C39.1004 75.1082 40.1004 74.5082 40.2004 73.7082C40.2004 73.6082 40.2004 73.5082 40.2004 73.4082C40.3004 73.4082 40.3004 73.5082 40.2004 73.6082Z" fill="#E6E6E6"/>
<path d="M35.4998 77.7094C35.2998 78.6094 34.2998 79.2094 33.0998 79.2094C31.8998 79.2094 31.0998 78.5094 31.1998 77.6094C31.3998 76.7094 32.3998 76.1094 33.5998 76.1094C34.7998 76.1094 35.5998 76.8094 35.4998 77.7094Z" fill="#675C39"/>
<path d="M35.2008 76.909H35.0008C34.7008 76.509 34.2008 76.309 33.5008 76.209C32.7008 76.209 32.0008 76.509 31.6008 77.009H31.3008V77.809C31.4008 78.409 32.0008 78.909 33.0008 78.909C34.0008 78.909 35.0008 78.309 35.1008 77.509C35.1008 77.409 35.1008 77.409 35.1008 77.309L35.2008 76.909Z" fill="url(#paint43_linear)"/>
<path d="M35.1991 77.109C35.0991 77.909 34.0991 78.509 33.0991 78.509C32.0991 78.509 31.2991 77.909 31.3991 77.109C31.4991 76.309 32.4991 75.709 33.4991 75.709C34.5991 75.709 35.3991 76.309 35.1991 77.109Z" fill="#8B8B8B"/>
<path d="M35.2004 77.0086C35.1004 77.8086 34.1004 78.4086 33.1004 78.4086C32.2004 78.4086 31.5004 77.9086 31.4004 77.3086C31.4004 78.0086 32.1004 78.5086 33.1004 78.5086C34.1004 78.5086 35.1004 77.9086 35.2004 77.1086C35.2004 77.0086 35.2004 76.9086 35.2004 76.8086C35.2004 76.8086 35.2004 76.9086 35.2004 77.0086Z" fill="#E6E6E6"/>
<path d="M28.9998 78.9086C28.7998 79.8086 27.7998 80.4086 26.5998 80.4086C25.3998 80.4086 24.5998 79.7086 24.6998 78.8086C24.8998 77.9086 25.8998 77.3086 27.0998 77.3086C28.3998 77.3086 29.1998 78.1086 28.9998 78.9086Z" fill="#675C39"/>
<path d="M28.8004 78.1082H28.6004C28.3004 77.7082 27.8004 77.5082 27.1004 77.4082C26.3004 77.4082 25.6004 77.7082 25.2004 78.2082H24.9004V79.0082C25.0004 79.6082 25.6004 80.1082 26.6004 80.1082C27.6004 80.1082 28.6004 79.5082 28.7004 78.7082C28.7004 78.6082 28.7004 78.6082 28.7004 78.5082L28.8004 78.1082Z" fill="url(#paint44_linear)"/>
<path d="M28.8006 78.3082C28.7006 79.1082 27.7006 79.7082 26.7006 79.7082C25.7006 79.7082 24.9006 79.1082 25.0006 78.3082C25.1006 77.5082 26.1006 76.9082 27.1006 76.9082C28.2006 76.9082 28.9006 77.5082 28.8006 78.3082Z" fill="#8B8B8B"/>
<path d="M28.8 78.2078C28.7 79.0078 27.7 79.6078 26.7 79.6078C25.8 79.6078 25.1 79.1078 25 78.5078C25 79.2078 25.7 79.7078 26.7 79.7078C27.7 79.7078 28.7 79.1078 28.8 78.3078C28.8 78.2078 28.8 78.1078 28.8 78.0078C28.8 78.1078 28.8 78.1078 28.8 78.2078Z" fill="#E6E6E6"/>
<path d="M22.8983 77.7094C22.6983 78.6094 21.6983 79.2094 20.4983 79.2094C19.2983 79.2094 18.4983 78.5094 18.5983 77.6094C18.7983 76.7094 19.7983 76.1094 20.9983 76.1094C22.2983 76.2094 23.0983 76.9094 22.8983 77.7094Z" fill="#675C39"/>
<path d="M22.6988 77.0086H22.4988C22.1988 76.6086 21.6988 76.4086 20.9988 76.3086C20.1988 76.3086 19.4988 76.6086 19.0988 77.1086H18.7988V78.0086C18.8988 78.6086 19.4988 79.1086 20.4988 79.1086C21.4988 79.1086 22.4988 78.5086 22.5988 77.7086C22.5988 77.6086 22.5988 77.6086 22.5988 77.5086L22.6988 77.0086Z" fill="url(#paint45_linear)"/>
<path d="M22.6991 77.109C22.5991 77.909 21.5991 78.509 20.5991 78.509C19.5991 78.509 18.7991 77.909 18.8991 77.109C18.9991 76.309 19.9991 75.709 20.9991 75.709C22.0991 75.709 22.7991 76.409 22.6991 77.109Z" fill="#8B8B8B"/>
<path d="M22.6984 77.0086C22.5984 77.8086 21.5984 78.4086 20.5984 78.4086C19.6984 78.4086 18.9984 77.9086 18.8984 77.3086C18.8984 78.0086 19.5984 78.5086 20.5984 78.5086C21.5984 78.5086 22.5984 77.9086 22.6984 77.1086C22.6984 77.0086 22.6984 76.9086 22.6984 76.8086C22.6984 76.9086 22.6984 76.9086 22.6984 77.0086Z" fill="#E6E6E6"/>
<path d="M18.7987 74.4086C18.5987 75.3086 17.5987 75.9086 16.3987 75.9086C15.1987 75.9086 14.3987 75.2086 14.4987 74.3086C14.5987 73.4086 15.6987 72.8086 16.8987 72.8086C18.1987 72.9086 18.9987 73.6086 18.7987 74.4086Z" fill="#675C39"/>
<path d="M18.5988 73.7078H18.3988C18.1988 73.3078 17.5988 73.0078 16.9988 73.0078C16.1988 73.0078 15.4988 73.3078 15.0988 73.8078H14.7988V74.6078C14.8988 75.2078 15.4988 75.7078 16.4988 75.7078C17.4988 75.7078 18.4988 75.1078 18.5988 74.3078C18.5988 74.2078 18.5988 74.2078 18.5988 74.1078V73.7078Z" fill="url(#paint46_linear)"/>
<path d="M18.5995 73.8082C18.4995 74.6082 17.4995 75.2082 16.4995 75.2082C15.4995 75.2082 14.6995 74.6082 14.7995 73.8082C14.8995 73.0082 15.8995 72.4082 16.8995 72.4082C17.9995 72.4082 18.6995 73.0082 18.5995 73.8082Z" fill="#8B8B8B"/>
<path d="M18.5988 73.7078C18.4988 74.5078 17.4988 75.1078 16.4988 75.1078C15.5988 75.1078 14.8988 74.6078 14.7988 74.0078C14.7988 74.7078 15.4988 75.2078 16.4988 75.2078C17.4988 75.2078 18.4988 74.6078 18.5988 73.8078C18.5988 73.7078 18.5988 73.6078 18.5988 73.5078C18.5988 73.6078 18.5988 73.6078 18.5988 73.7078Z" fill="#E6E6E6"/>
<path d="M17.8983 69.9086C17.6983 70.8086 16.6983 71.4086 15.4983 71.4086C14.2983 71.4086 13.4983 70.7086 13.5983 69.8086C13.7983 68.9086 14.7983 68.3086 15.9983 68.3086C17.1983 68.3086 17.9983 69.0086 17.8983 69.9086Z" fill="#675C39"/>
<path d="M17.5992 69.1082H17.3992C17.0992 68.7082 16.5992 68.5082 15.8992 68.4082C15.0992 68.4082 14.3992 68.7082 13.9992 69.2082H13.6992V70.0082C13.7992 70.6082 14.3992 71.1082 15.3992 71.1082C16.3992 71.1082 17.3992 70.5082 17.4992 69.7082C17.4992 69.6082 17.4992 69.6082 17.4992 69.5082L17.5992 69.1082Z" fill="url(#paint47_linear)"/>
<path d="M17.5975 69.3082C17.4975 70.1082 16.4975 70.7082 15.4975 70.7082C14.4975 70.7082 13.6975 70.1082 13.7975 69.3082C13.8975 68.5082 14.8975 67.9082 15.8975 67.9082C16.9975 67.9082 17.7975 68.5082 17.5975 69.3082Z" fill="#8B8B8B"/>
<path d="M17.5988 69.1082C17.4988 69.9082 16.4988 70.5082 15.4988 70.5082C14.5988 70.5082 13.8988 70.0082 13.7988 69.4082C13.7988 70.1082 14.4988 70.6082 15.4988 70.6082C16.4988 70.6082 17.4988 70.0082 17.5988 69.2082C17.5988 69.1082 17.5988 69.0082 17.5988 68.9082C17.5988 69.0082 17.5988 69.1082 17.5988 69.1082Z" fill="#E6E6E6"/>
<path d="M20.2987 65.4086C20.0987 66.3086 19.0987 66.9086 17.8987 66.9086C16.6987 66.9086 15.8987 66.2086 15.9987 65.3086C16.1987 64.4086 17.1987 63.8086 18.3987 63.8086C19.5987 63.8086 20.3987 64.5086 20.2987 65.4086Z" fill="#675C39"/>
<path d="M19.9996 64.6082H19.7996C19.4996 64.2082 18.9996 64.0082 18.2996 63.9082C17.4996 63.9082 16.7996 64.2082 16.3996 64.7082H16.0996V65.5082C16.1996 66.1082 16.7996 66.6082 17.7996 66.6082C18.7996 66.6082 19.7996 66.0082 19.8996 65.2082C19.8996 65.1082 19.8996 65.1082 19.8996 65.0082L19.9996 64.6082Z" fill="url(#paint48_linear)"/>
<path d="M19.9979 64.7086C19.8979 65.5086 18.8979 66.1086 17.8979 66.1086C16.8979 66.1086 16.0979 65.5086 16.1979 64.7086C16.2979 63.9086 17.2979 63.3086 18.2979 63.3086C19.3979 63.3086 20.1979 64.0086 19.9979 64.7086Z" fill="#8B8B8B"/>
<path d="M19.9992 64.6082C19.8992 65.4082 18.8992 66.0082 17.8992 66.0082C16.9992 66.0082 16.2992 65.5082 16.1992 64.9082C16.1992 65.6082 16.8992 66.1082 17.8992 66.1082C18.8992 66.1082 19.8992 65.5082 19.9992 64.7082C19.9992 64.6082 19.9992 64.5082 19.9992 64.4082C19.9992 64.5082 19.9992 64.6082 19.9992 64.6082Z" fill="#E6E6E6"/>
<path d="M25.3983 62.1078C25.1983 63.0078 24.1983 63.6078 22.9983 63.6078C21.7983 63.6078 20.9983 62.9078 21.0983 62.0078C21.2983 61.1078 22.2983 60.5078 23.4983 60.5078C24.6983 60.5078 25.4983 61.2078 25.3983 62.1078Z" fill="#675C39"/>
<path d="M25.1988 61.3074H24.9988C24.6988 60.9074 24.1988 60.7074 23.4988 60.6074C22.6988 60.6074 21.9988 60.9074 21.5988 61.4074H21.2988V62.2074C21.3988 62.8074 21.9988 63.3074 22.9988 63.3074C23.9988 63.3074 24.9988 62.7074 25.0988 61.9074C25.0988 61.8074 25.0988 61.8074 25.0988 61.7074L25.1988 61.3074Z" fill="url(#paint49_linear)"/>
<path d="M25.0975 61.4078C24.9975 62.2078 23.9975 62.8078 22.9975 62.8078C21.9975 62.8078 21.1975 62.2078 21.2975 61.4078C21.3975 60.6078 22.3975 60.0078 23.3975 60.0078C24.4975 60.1078 25.2975 60.7078 25.0975 61.4078Z" fill="#8B8B8B"/>
<path d="M25.0988 61.3074C24.9988 62.1074 23.9988 62.7074 22.9988 62.7074C22.0988 62.7074 21.3988 62.2074 21.2988 61.6074C21.2988 62.3074 21.9988 62.8074 22.9988 62.8074C23.9988 62.8074 24.9988 62.2074 25.0988 61.4074C25.0988 61.3074 25.0988 61.2074 25.0988 61.1074C25.0988 61.2074 25.0988 61.3074 25.0988 61.3074Z" fill="#E6E6E6"/>
<path d="M31.7987 60.9086C31.5987 61.8086 30.5987 62.4086 29.3987 62.4086C28.1987 62.4086 27.3987 61.7086 27.4987 60.8086C27.6987 59.9086 28.6987 59.3086 29.8987 59.3086C31.0987 59.4086 31.9987 60.1086 31.7987 60.9086Z" fill="#675C39"/>
<path d="M31.5992 60.2078H31.3992C31.0992 59.8078 30.5992 59.6078 29.8992 59.5078C29.0992 59.5078 28.3992 59.8078 27.9992 60.3078H27.6992V61.1078C27.7992 61.7078 28.3992 62.2078 29.3992 62.2078C30.3992 62.2078 31.3992 61.6078 31.4992 60.8078C31.4992 60.7078 31.4992 60.7078 31.4992 60.6078L31.5992 60.2078Z" fill="url(#paint50_linear)"/>
<path d="M31.5995 60.3082C31.4995 61.1082 30.4995 61.7082 29.4995 61.7082C28.4995 61.7082 27.6995 61.1082 27.7995 60.3082C27.8995 59.5082 28.8995 58.9082 29.8995 58.9082C30.9995 58.9082 31.6995 59.5082 31.5995 60.3082Z" fill="#8B8B8B"/>
<path d="M31.5988 60.2078C31.4988 61.0078 30.4988 61.6078 29.4988 61.6078C28.5988 61.6078 27.8988 61.1078 27.7988 60.5078C27.7988 61.2078 28.4988 61.7078 29.4988 61.7078C30.4988 61.7078 31.4988 61.1078 31.5988 60.3078C31.5988 60.2078 31.5988 60.1078 31.5988 60.0078C31.5988 60.1078 31.5988 60.1078 31.5988 60.2078Z" fill="#E6E6E6"/>
<defs>
<linearGradient id="paint0_linear" x1="47.0766" y1="50.4665" x2="60.7042" y2="50.4665" gradientUnits="userSpaceOnUse">
<stop stop-color="#99653C"/>
<stop offset="0.0630094" stop-color="#9F693E"/>
<stop offset="0.1477" stop-color="#B07445"/>
<stop offset="0.2441" stop-color="#CC8650"/>
<stop offset="0.2699" stop-color="#C5814D"/>
<stop offset="0.4232" stop-color="#9E673D"/>
<stop offset="0.5753" stop-color="#805230"/>
<stop offset="0.7238" stop-color="#6A4427"/>
<stop offset="0.8673" stop-color="#5D3B22"/>
<stop offset="1" stop-color="#593820"/>
</linearGradient>
<linearGradient id="paint1_linear" x1="49.7481" y1="45.6937" x2="58.031" y2="45.6937" gradientUnits="userSpaceOnUse">
<stop stop-color="#99653C"/>
<stop offset="0.0630094" stop-color="#9F693E"/>
<stop offset="0.1477" stop-color="#B07445"/>
<stop offset="0.2441" stop-color="#CC8650"/>
<stop offset="0.2699" stop-color="#C5814D"/>
<stop offset="0.4232" stop-color="#9E673D"/>
<stop offset="0.5753" stop-color="#805230"/>
<stop offset="0.7238" stop-color="#6A4427"/>
<stop offset="0.8673" stop-color="#5D3B22"/>
<stop offset="1" stop-color="#593820"/>
</linearGradient>
<linearGradient id="paint2_linear" x1="47.0766" y1="42.0396" x2="60.7042" y2="42.0396" gradientUnits="userSpaceOnUse">
<stop stop-color="#99653C"/>
<stop offset="0.0630094" stop-color="#9F693E"/>
<stop offset="0.1477" stop-color="#B07445"/>
<stop offset="0.2441" stop-color="#CC8650"/>
<stop offset="0.2699" stop-color="#C5814D"/>
<stop offset="0.4232" stop-color="#9E673D"/>
<stop offset="0.5753" stop-color="#805230"/>
<stop offset="0.7238" stop-color="#6A4427"/>
<stop offset="0.8673" stop-color="#5D3B22"/>
<stop offset="1" stop-color="#593820"/>
</linearGradient>
<linearGradient id="paint3_linear" x1="51.4015" y1="38.7439" x2="56.6816" y2="38.7439" gradientUnits="userSpaceOnUse">
<stop stop-color="#595959"/>
<stop offset="0.048063" stop-color="#5D5D5D"/>
<stop offset="0.0975289" stop-color="#696969"/>
<stop offset="0.1476" stop-color="#7E7E7E"/>
<stop offset="0.1979" stop-color="#9B9B9B"/>
<stop offset="0.2324" stop-color="#B3B3B3"/>
<stop offset="0.2524" stop-color="#A8A8A8"/>
<stop offset="0.3149" stop-color="#8C8C8C"/>
<stop offset="0.3819" stop-color="#757575"/>
<stop offset="0.4546" stop-color="#656565"/>
<stop offset="0.537" stop-color="#5C5C5C"/>
<stop offset="0.6504" stop-color="#595959"/>
<stop offset="1" stop-color="#333333"/>
</linearGradient>
<linearGradient id="paint4_linear" x1="52.2116" y1="35.7306" x2="55.8695" y2="35.7306" gradientUnits="userSpaceOnUse">
<stop stop-color="#595959"/>
<stop offset="0.048063" stop-color="#5D5D5D"/>
<stop offset="0.0975289" stop-color="#696969"/>
<stop offset="0.1476" stop-color="#7E7E7E"/>
<stop offset="0.1979" stop-color="#9B9B9B"/>
<stop offset="0.2324" stop-color="#B3B3B3"/>
<stop offset="0.2524" stop-color="#A8A8A8"/>
<stop offset="0.3149" stop-color="#8C8C8C"/>
<stop offset="0.3819" stop-color="#757575"/>
<stop offset="0.4546" stop-color="#656565"/>
<stop offset="0.537" stop-color="#5C5C5C"/>
<stop offset="0.6504" stop-color="#595959"/>
<stop offset="1" stop-color="#333333"/>
</linearGradient>
<linearGradient id="paint5_linear" x1="52.7695" y1="33.5692" x2="55.3111" y2="33.5692" gradientUnits="userSpaceOnUse">
<stop stop-color="#595959"/>
<stop offset="0.048063" stop-color="#5D5D5D"/>
<stop offset="0.0975289" stop-color="#696969"/>
<stop offset="0.1476" stop-color="#7E7E7E"/>
<stop offset="0.1979" stop-color="#9B9B9B"/>
<stop offset="0.2324" stop-color="#B3B3B3"/>
<stop offset="0.2524" stop-color="#A8A8A8"/>
<stop offset="0.3149" stop-color="#8C8C8C"/>
<stop offset="0.3819" stop-color="#757575"/>
<stop offset="0.4546" stop-color="#656565"/>
<stop offset="0.537" stop-color="#5C5C5C"/>
<stop offset="0.6504" stop-color="#595959"/>
<stop offset="1" stop-color="#333333"/>
</linearGradient>
<linearGradient id="paint6_linear" x1="52.2116" y1="32.5519" x2="55.8695" y2="32.5519" gradientUnits="userSpaceOnUse">
<stop stop-color="#595959"/>
<stop offset="0.048063" stop-color="#5D5D5D"/>
<stop offset="0.0975289" stop-color="#696969"/>
<stop offset="0.1476" stop-color="#7E7E7E"/>
<stop offset="0.1979" stop-color="#9B9B9B"/>
<stop offset="0.2324" stop-color="#B3B3B3"/>
<stop offset="0.2524" stop-color="#A8A8A8"/>
<stop offset="0.3149" stop-color="#8C8C8C"/>
<stop offset="0.3819" stop-color="#757575"/>
<stop offset="0.4546" stop-color="#656565"/>
<stop offset="0.537" stop-color="#5C5C5C"/>
<stop offset="0.6504" stop-color="#595959"/>
<stop offset="1" stop-color="#333333"/>
</linearGradient>
<linearGradient id="paint7_linear" x1="52.991" y1="31.3731" x2="55.0871" y2="31.3731" gradientUnits="userSpaceOnUse">
<stop stop-color="#595959"/>
<stop offset="0.048063" stop-color="#5D5D5D"/>
<stop offset="0.0975289" stop-color="#696969"/>
<stop offset="0.1476" stop-color="#7E7E7E"/>
<stop offset="0.1979" stop-color="#9B9B9B"/>
<stop offset="0.2324" stop-color="#B3B3B3"/>
<stop offset="0.2524" stop-color="#A8A8A8"/>
<stop offset="0.3149" stop-color="#8C8C8C"/>
<stop offset="0.3819" stop-color="#757575"/>
<stop offset="0.4546" stop-color="#656565"/>
<stop offset="0.537" stop-color="#5C5C5C"/>
<stop offset="0.6504" stop-color="#595959"/>
<stop offset="1" stop-color="#333333"/>
</linearGradient>
<linearGradient id="paint8_linear" x1="49.1122" y1="26.0125" x2="48.0537" y2="27.8457" gradientUnits="userSpaceOnUse">
<stop stop-color="#595959"/>
<stop offset="0.048063" stop-color="#5D5D5D"/>
<stop offset="0.0975289" stop-color="#696969"/>
<stop offset="0.1476" stop-color="#7E7E7E"/>
<stop offset="0.1979" stop-color="#9B9B9B"/>
<stop offset="0.2324" stop-color="#B3B3B3"/>
<stop offset="0.2524" stop-color="#A8A8A8"/>
<stop offset="0.3149" stop-color="#8C8C8C"/>
<stop offset="0.3819" stop-color="#757575"/>
<stop offset="0.4546" stop-color="#656565"/>
<stop offset="0.537" stop-color="#5C5C5C"/>
<stop offset="0.6504" stop-color="#595959"/>
<stop offset="1" stop-color="#333333"/>
</linearGradient>
<linearGradient id="paint9_linear" x1="51.3074" y1="27.6533" x2="50.568" y2="28.934" gradientUnits="userSpaceOnUse">
<stop stop-color="#595959"/>
<stop offset="0.048063" stop-color="#5D5D5D"/>
<stop offset="0.0975289" stop-color="#696969"/>
<stop offset="0.1476" stop-color="#7E7E7E"/>
<stop offset="0.1979" stop-color="#9B9B9B"/>
<stop offset="0.2324" stop-color="#B3B3B3"/>
<stop offset="0.2524" stop-color="#A8A8A8"/>
<stop offset="0.3149" stop-color="#8C8C8C"/>
<stop offset="0.3819" stop-color="#757575"/>
<stop offset="0.4546" stop-color="#656565"/>
<stop offset="0.537" stop-color="#5C5C5C"/>
<stop offset="0.6504" stop-color="#595959"/>
<stop offset="1" stop-color="#333333"/>
</linearGradient>
<linearGradient id="paint10_linear" x1="54.6238" y1="28.9619" x2="53.3478" y2="31.1719" gradientUnits="userSpaceOnUse">
<stop stop-color="#595959"/>
<stop offset="0.048063" stop-color="#5D5D5D"/>
<stop offset="0.0975289" stop-color="#696969"/>
<stop offset="0.1476" stop-color="#7E7E7E"/>
<stop offset="0.1979" stop-color="#9B9B9B"/>
<stop offset="0.2324" stop-color="#B3B3B3"/>
<stop offset="0.2524" stop-color="#A8A8A8"/>
<stop offset="0.3149" stop-color="#8C8C8C"/>
<stop offset="0.3819" stop-color="#757575"/>
<stop offset="0.4546" stop-color="#656565"/>
<stop offset="0.537" stop-color="#5C5C5C"/>
<stop offset="0.6504" stop-color="#595959"/>
<stop offset="1" stop-color="#333333"/>
</linearGradient>
<linearGradient id="paint11_linear" x1="57.6913" y1="31.3631" x2="56.952" y2="32.6437" gradientUnits="userSpaceOnUse">
<stop stop-color="#595959"/>
<stop offset="0.048063" stop-color="#5D5D5D"/>
<stop offset="0.0975289" stop-color="#696969"/>
<stop offset="0.1476" stop-color="#7E7E7E"/>
<stop offset="0.1979" stop-color="#9B9B9B"/>
<stop offset="0.2324" stop-color="#B3B3B3"/>
<stop offset="0.2524" stop-color="#A8A8A8"/>
<stop offset="0.3149" stop-color="#8C8C8C"/>
<stop offset="0.3819" stop-color="#757575"/>
<stop offset="0.4546" stop-color="#656565"/>
<stop offset="0.537" stop-color="#5C5C5C"/>
<stop offset="0.6504" stop-color="#595959"/>
<stop offset="1" stop-color="#333333"/>
</linearGradient>
<linearGradient id="paint12_linear" x1="60.0099" y1="32.396" x2="58.9515" y2="34.2293" gradientUnits="userSpaceOnUse">
<stop stop-color="#595959"/>
<stop offset="0.048063" stop-color="#5D5D5D"/>
<stop offset="0.0975289" stop-color="#696969"/>
<stop offset="0.1476" stop-color="#7E7E7E"/>
<stop offset="0.1979" stop-color="#9B9B9B"/>
<stop offset="0.2324" stop-color="#B3B3B3"/>
<stop offset="0.2524" stop-color="#A8A8A8"/>
<stop offset="0.3149" stop-color="#8C8C8C"/>
<stop offset="0.3819" stop-color="#757575"/>
<stop offset="0.4546" stop-color="#656565"/>
<stop offset="0.537" stop-color="#5C5C5C"/>
<stop offset="0.6504" stop-color="#595959"/>
<stop offset="1" stop-color="#333333"/>
</linearGradient>
<linearGradient id="paint13_linear" x1="43.9068" y1="26.5891" x2="37.1344" y2="38.4831" gradientUnits="userSpaceOnUse">
<stop stop-color="#928457"/>
<stop offset="0.0483383" stop-color="#968859"/>
<stop offset="0.0980867" stop-color="#A29361"/>
<stop offset="0.1485" stop-color="#B7A56D"/>
<stop offset="0.199" stop-color="#D4BF7E"/>
<stop offset="0.2324" stop-color="#EBD48C"/>
<stop offset="0.2485" stop-color="#E1CB86"/>
<stop offset="0.3037" stop-color="#C4B175"/>
<stop offset="0.3628" stop-color="#AE9D68"/>
<stop offset="0.4269" stop-color="#9E8F5E"/>
<stop offset="0.4996" stop-color="#958759"/>
<stop offset="0.5996" stop-color="#928457"/>
<stop offset="0.8564" stop-color="#5F5433"/>
<stop offset="1" stop-color="#473E22"/>
</linearGradient>
<linearGradient id="paint14_linear" x1="29.155" y1="0.785617" x2="27.1433" y2="4.31862" gradientUnits="userSpaceOnUse">
<stop stop-color="#928457"/>
<stop offset="0.0483383" stop-color="#968859"/>
<stop offset="0.0980867" stop-color="#A29361"/>
<stop offset="0.1485" stop-color="#B7A56D"/>
<stop offset="0.199" stop-color="#D4BF7E"/>
<stop offset="0.2324" stop-color="#EBD48C"/>
<stop offset="0.2485" stop-color="#E1CB86"/>
<stop offset="0.3037" stop-color="#C4B175"/>
<stop offset="0.3628" stop-color="#AE9D68"/>
<stop offset="0.4269" stop-color="#9E8F5E"/>
<stop offset="0.4996" stop-color="#958759"/>
<stop offset="0.5996" stop-color="#928457"/>
<stop offset="0.8564" stop-color="#5F5433"/>
<stop offset="1" stop-color="#473E22"/>
</linearGradient>
<linearGradient id="paint15_linear" x1="32.8374" y1="3.38056" x2="31.2374" y2="6.19066" gradientUnits="userSpaceOnUse">
<stop stop-color="#928457"/>
<stop offset="0.0483383" stop-color="#968859"/>
<stop offset="0.0980867" stop-color="#A29361"/>
<stop offset="0.1485" stop-color="#B7A56D"/>
<stop offset="0.199" stop-color="#D4BF7E"/>
<stop offset="0.2324" stop-color="#EBD48C"/>
<stop offset="0.2485" stop-color="#E1CB86"/>
<stop offset="0.3037" stop-color="#C4B175"/>
<stop offset="0.3628" stop-color="#AE9D68"/>
<stop offset="0.4269" stop-color="#9E8F5E"/>
<stop offset="0.4996" stop-color="#958759"/>
<stop offset="0.5996" stop-color="#928457"/>
<stop offset="0.8564" stop-color="#5F5433"/>
<stop offset="1" stop-color="#473E22"/>
</linearGradient>
<linearGradient id="paint16_linear" x1="33.8059" y1="21.3556" x2="39.3647" y2="21.3556" gradientUnits="userSpaceOnUse">
<stop stop-color="#928457"/>
<stop offset="0.0483383" stop-color="#968859"/>
<stop offset="0.0980867" stop-color="#A29361"/>
<stop offset="0.1485" stop-color="#B7A56D"/>
<stop offset="0.199" stop-color="#D4BF7E"/>
<stop offset="0.2324" stop-color="#EBD48C"/>
<stop offset="0.2485" stop-color="#E1CB86"/>
<stop offset="0.3037" stop-color="#C4B175"/>
<stop offset="0.3628" stop-color="#AE9D68"/>
<stop offset="0.4269" stop-color="#9E8F5E"/>
<stop offset="0.4996" stop-color="#958759"/>
<stop offset="0.5996" stop-color="#928457"/>
<stop offset="0.8564" stop-color="#5F5433"/>
<stop offset="1" stop-color="#473E22"/>
</linearGradient>
<linearGradient id="paint17_linear" x1="29.0041" y1="17.3761" x2="44.049" y2="17.3761" gradientUnits="userSpaceOnUse">
<stop stop-color="#928457"/>
<stop offset="0.0483383" stop-color="#968859"/>
<stop offset="0.0980867" stop-color="#A29361"/>
<stop offset="0.1485" stop-color="#B7A56D"/>
<stop offset="0.199" stop-color="#D4BF7E"/>
<stop offset="0.2324" stop-color="#EBD48C"/>
<stop offset="0.2485" stop-color="#E1CB86"/>
<stop offset="0.3037" stop-color="#C4B175"/>
<stop offset="0.3628" stop-color="#AE9D68"/>
<stop offset="0.4269" stop-color="#9E8F5E"/>
<stop offset="0.4996" stop-color="#958759"/>
<stop offset="0.5996" stop-color="#928457"/>
<stop offset="0.8564" stop-color="#5F5433"/>
<stop offset="1" stop-color="#473E22"/>
</linearGradient>
<linearGradient id="paint18_linear" x1="33.8063" y1="11.5792" x2="39.3651" y2="11.5792" gradientUnits="userSpaceOnUse">
<stop stop-color="#928457"/>
<stop offset="0.0483383" stop-color="#968859"/>
<stop offset="0.0980867" stop-color="#A29361"/>
<stop offset="0.1485" stop-color="#B7A56D"/>
<stop offset="0.199" stop-color="#D4BF7E"/>
<stop offset="0.2324" stop-color="#EBD48C"/>
<stop offset="0.2485" stop-color="#E1CB86"/>
<stop offset="0.3037" stop-color="#C4B175"/>
<stop offset="0.3628" stop-color="#AE9D68"/>
<stop offset="0.4269" stop-color="#9E8F5E"/>
<stop offset="0.4996" stop-color="#958759"/>
<stop offset="0.5996" stop-color="#928457"/>
<stop offset="0.8564" stop-color="#5F5433"/>
<stop offset="1" stop-color="#473E22"/>
</linearGradient>
<linearGradient id="paint19_linear" x1="33.216" y1="7.6038" x2="39.9526" y2="7.6038" gradientUnits="userSpaceOnUse">
<stop stop-color="#928457"/>
<stop offset="0.0483383" stop-color="#968859"/>
<stop offset="0.0980867" stop-color="#A29361"/>
<stop offset="0.1485" stop-color="#B7A56D"/>
<stop offset="0.199" stop-color="#D4BF7E"/>
<stop offset="0.2324" stop-color="#EBD48C"/>
<stop offset="0.2485" stop-color="#E1CB86"/>
<stop offset="0.3037" stop-color="#C4B175"/>
<stop offset="0.3628" stop-color="#AE9D68"/>
<stop offset="0.4269" stop-color="#9E8F5E"/>
<stop offset="0.4996" stop-color="#958759"/>
<stop offset="0.5996" stop-color="#928457"/>
<stop offset="0.8564" stop-color="#5F5433"/>
<stop offset="1" stop-color="#473E22"/>
</linearGradient>
<linearGradient id="paint20_linear" x1="35.2044" y1="4.90188" x2="37.967" y2="4.90188" gradientUnits="userSpaceOnUse">
<stop stop-color="#928457"/>
<stop offset="0.0483383" stop-color="#968859"/>
<stop offset="0.0980867" stop-color="#A29361"/>
<stop offset="0.1485" stop-color="#B7A56D"/>
<stop offset="0.199" stop-color="#D4BF7E"/>
<stop offset="0.2324" stop-color="#EBD48C"/>
<stop offset="0.2485" stop-color="#E1CB86"/>
<stop offset="0.3037" stop-color="#C4B175"/>
<stop offset="0.3628" stop-color="#AE9D68"/>
<stop offset="0.4269" stop-color="#9E8F5E"/>
<stop offset="0.4996" stop-color="#958759"/>
<stop offset="0.5996" stop-color="#928457"/>
<stop offset="0.8564" stop-color="#5F5433"/>
<stop offset="1" stop-color="#473E22"/>
</linearGradient>
<linearGradient id="paint21_linear" x1="41.4936" y1="8.70344" x2="39.8936" y2="11.5135" gradientUnits="userSpaceOnUse">
<stop stop-color="#928457"/>
<stop offset="0.0483383" stop-color="#968859"/>
<stop offset="0.0980867" stop-color="#A29361"/>
<stop offset="0.1485" stop-color="#B7A56D"/>
<stop offset="0.199" stop-color="#D4BF7E"/>
<stop offset="0.2324" stop-color="#EBD48C"/>
<stop offset="0.2485" stop-color="#E1CB86"/>
<stop offset="0.3037" stop-color="#C4B175"/>
<stop offset="0.3628" stop-color="#AE9D68"/>
<stop offset="0.4269" stop-color="#9E8F5E"/>
<stop offset="0.4996" stop-color="#958759"/>
<stop offset="0.5996" stop-color="#928457"/>
<stop offset="0.8564" stop-color="#5F5433"/>
<stop offset="1" stop-color="#473E22"/>
</linearGradient>
<linearGradient id="paint22_linear" x1="45.8218" y1="9.15618" x2="42.4094" y2="15.1492" gradientUnits="userSpaceOnUse">
<stop stop-color="#928457"/>
<stop offset="0.0483383" stop-color="#968859"/>
<stop offset="0.0980867" stop-color="#A29361"/>
<stop offset="0.1485" stop-color="#B7A56D"/>
<stop offset="0.199" stop-color="#D4BF7E"/>
<stop offset="0.2324" stop-color="#EBD48C"/>
<stop offset="0.2485" stop-color="#E1CB86"/>
<stop offset="0.3037" stop-color="#C4B175"/>
<stop offset="0.3628" stop-color="#AE9D68"/>
<stop offset="0.4269" stop-color="#9E8F5E"/>
<stop offset="0.4996" stop-color="#958759"/>
<stop offset="0.5996" stop-color="#928457"/>
<stop offset="0.8564" stop-color="#5F5433"/>
<stop offset="1" stop-color="#473E22"/>
</linearGradient>
<linearGradient id="paint23_linear" x1="47.4837" y1="10.6481" x2="44.5036" y2="15.8819" gradientUnits="userSpaceOnUse">
<stop stop-color="#595959"/>
<stop offset="0.048063" stop-color="#5D5D5D"/>
<stop offset="0.0975289" stop-color="#696969"/>
<stop offset="0.1476" stop-color="#7E7E7E"/>
<stop offset="0.1979" stop-color="#9B9B9B"/>
<stop offset="0.2324" stop-color="#B3B3B3"/>
<stop offset="0.2524" stop-color="#A8A8A8"/>
<stop offset="0.3149" stop-color="#8C8C8C"/>
<stop offset="0.3819" stop-color="#757575"/>
<stop offset="0.4546" stop-color="#656565"/>
<stop offset="0.537" stop-color="#5C5C5C"/>
<stop offset="0.6504" stop-color="#595959"/>
<stop offset="1" stop-color="#333333"/>
</linearGradient>
<linearGradient id="paint24_linear" x1="49.6817" y1="11.1492" x2="46.0348" y2="17.5542" gradientUnits="userSpaceOnUse">
<stop stop-color="#595959"/>
<stop offset="0.048063" stop-color="#5D5D5D"/>
<stop offset="0.0975289" stop-color="#696969"/>
<stop offset="0.1476" stop-color="#7E7E7E"/>
<stop offset="0.1979" stop-color="#9B9B9B"/>
<stop offset="0.2324" stop-color="#B3B3B3"/>
<stop offset="0.2524" stop-color="#A8A8A8"/>
<stop offset="0.3149" stop-color="#8C8C8C"/>
<stop offset="0.3819" stop-color="#757575"/>
<stop offset="0.4546" stop-color="#656565"/>
<stop offset="0.537" stop-color="#5C5C5C"/>
<stop offset="0.6504" stop-color="#595959"/>
<stop offset="1" stop-color="#333333"/>
</linearGradient>
<linearGradient id="paint25_linear" x1="47.4837" y1="10.6481" x2="44.5036" y2="15.8819" gradientUnits="userSpaceOnUse">
<stop stop-color="#928457"/>
<stop offset="0.0483383" stop-color="#968859"/>
<stop offset="0.0980867" stop-color="#A29361"/>
<stop offset="0.1485" stop-color="#B7A56D"/>
<stop offset="0.199" stop-color="#D4BF7E"/>
<stop offset="0.2324" stop-color="#EBD48C"/>
<stop offset="0.2485" stop-color="#E1CB86"/>
<stop offset="0.3037" stop-color="#C4B175"/>
<stop offset="0.3628" stop-color="#AE9D68"/>
<stop offset="0.4269" stop-color="#9E8F5E"/>
<stop offset="0.4996" stop-color="#958759"/>
<stop offset="0.5996" stop-color="#928457"/>
<stop offset="0.8564" stop-color="#5F5433"/>
<stop offset="1" stop-color="#473E22"/>
</linearGradient>
<linearGradient id="paint26_linear" x1="49.6817" y1="11.1492" x2="46.0348" y2="17.5542" gradientUnits="userSpaceOnUse">
<stop stop-color="#928457"/>
<stop offset="0.0483383" stop-color="#968859"/>
<stop offset="0.0980867" stop-color="#A29361"/>
<stop offset="0.1485" stop-color="#B7A56D"/>
<stop offset="0.199" stop-color="#D4BF7E"/>
<stop offset="0.2324" stop-color="#EBD48C"/>
<stop offset="0.2485" stop-color="#E1CB86"/>
<stop offset="0.3037" stop-color="#C4B175"/>
<stop offset="0.3628" stop-color="#AE9D68"/>
<stop offset="0.4269" stop-color="#9E8F5E"/>
<stop offset="0.4996" stop-color="#958759"/>
<stop offset="0.5996" stop-color="#928457"/>
<stop offset="0.8564" stop-color="#5F5433"/>
<stop offset="1" stop-color="#473E22"/>
</linearGradient>
<linearGradient id="paint27_linear" x1="57.6814" y1="15.2574" x2="53.4317" y2="22.6179" gradientUnits="userSpaceOnUse">
<stop stop-color="#99653C"/>
<stop offset="0.0630094" stop-color="#9F693E"/>
<stop offset="0.1477" stop-color="#B07445"/>
<stop offset="0.2441" stop-color="#CC8650"/>
<stop offset="0.2699" stop-color="#C5814D"/>
<stop offset="0.4232" stop-color="#9E673D"/>
<stop offset="0.5753" stop-color="#805230"/>
<stop offset="0.7238" stop-color="#6A4427"/>
<stop offset="0.8673" stop-color="#5D3B22"/>
<stop offset="1" stop-color="#593820"/>
</linearGradient>
<linearGradient id="paint28_linear" x1="65.4084" y1="20.3794" x2="61.7614" y2="26.7844" gradientUnits="userSpaceOnUse">
<stop stop-color="#928457"/>
<stop offset="0.0483383" stop-color="#968859"/>
<stop offset="0.0980867" stop-color="#A29361"/>
<stop offset="0.1485" stop-color="#B7A56D"/>
<stop offset="0.199" stop-color="#D4BF7E"/>
<stop offset="0.2324" stop-color="#EBD48C"/>
<stop offset="0.2485" stop-color="#E1CB86"/>
<stop offset="0.3037" stop-color="#C4B175"/>
<stop offset="0.3628" stop-color="#AE9D68"/>
<stop offset="0.4269" stop-color="#9E8F5E"/>
<stop offset="0.4996" stop-color="#958759"/>
<stop offset="0.5996" stop-color="#928457"/>
<stop offset="0.8564" stop-color="#5F5433"/>
<stop offset="1" stop-color="#473E22"/>
</linearGradient>
<linearGradient id="paint29_linear" x1="67.2927" y1="22.3176" x2="64.3127" y2="27.5514" gradientUnits="userSpaceOnUse">
<stop stop-color="#928457"/>
<stop offset="0.0483383" stop-color="#968859"/>
<stop offset="0.0980867" stop-color="#A29361"/>
<stop offset="0.1485" stop-color="#B7A56D"/>
<stop offset="0.199" stop-color="#D4BF7E"/>
<stop offset="0.2324" stop-color="#EBD48C"/>
<stop offset="0.2485" stop-color="#E1CB86"/>
<stop offset="0.3037" stop-color="#C4B175"/>
<stop offset="0.3628" stop-color="#AE9D68"/>
<stop offset="0.4269" stop-color="#9E8F5E"/>
<stop offset="0.4996" stop-color="#958759"/>
<stop offset="0.5996" stop-color="#928457"/>
<stop offset="0.8564" stop-color="#5F5433"/>
<stop offset="1" stop-color="#473E22"/>
</linearGradient>
<linearGradient id="paint30_linear" x1="68.9884" y1="22.7207" x2="65.576" y2="28.7138" gradientUnits="userSpaceOnUse">
<stop stop-color="#928457"/>
<stop offset="0.0483383" stop-color="#968859"/>
<stop offset="0.0980867" stop-color="#A29361"/>
<stop offset="0.1485" stop-color="#B7A56D"/>
<stop offset="0.199" stop-color="#D4BF7E"/>
<stop offset="0.2324" stop-color="#EBD48C"/>
<stop offset="0.2485" stop-color="#E1CB86"/>
<stop offset="0.3037" stop-color="#C4B175"/>
<stop offset="0.3628" stop-color="#AE9D68"/>
<stop offset="0.4269" stop-color="#9E8F5E"/>
<stop offset="0.4996" stop-color="#958759"/>
<stop offset="0.5996" stop-color="#928457"/>
<stop offset="0.8564" stop-color="#5F5433"/>
<stop offset="1" stop-color="#473E22"/>
</linearGradient>
<linearGradient id="paint31_linear" x1="68.7562" y1="38.5045" x2="81.0041" y2="38.5045" gradientUnits="userSpaceOnUse">
<stop stop-color="#928457"/>
<stop offset="0.0483383" stop-color="#968859"/>
<stop offset="0.0980867" stop-color="#A29361"/>
<stop offset="0.1485" stop-color="#B7A56D"/>
<stop offset="0.199" stop-color="#D4BF7E"/>
<stop offset="0.2324" stop-color="#EBD48C"/>
<stop offset="0.2485" stop-color="#E1CB86"/>
<stop offset="0.3037" stop-color="#C4B175"/>
<stop offset="0.3628" stop-color="#AE9D68"/>
<stop offset="0.4269" stop-color="#9E8F5E"/>
<stop offset="0.4996" stop-color="#958759"/>
<stop offset="0.5996" stop-color="#928457"/>
<stop offset="0.8564" stop-color="#5F5433"/>
<stop offset="1" stop-color="#473E22"/>
</linearGradient>
<linearGradient id="paint32_linear" x1="68.3072" y1="36.1672" x2="81.4526" y2="36.1672" gradientUnits="userSpaceOnUse">
<stop stop-color="#928457"/>
<stop offset="0.0483383" stop-color="#968859"/>
<stop offset="0.0980867" stop-color="#A29361"/>
<stop offset="0.1485" stop-color="#B7A56D"/>
<stop offset="0.199" stop-color="#D4BF7E"/>
<stop offset="0.2324" stop-color="#EBD48C"/>
<stop offset="0.2485" stop-color="#E1CB86"/>
<stop offset="0.3037" stop-color="#C4B175"/>
<stop offset="0.3628" stop-color="#AE9D68"/>
<stop offset="0.4269" stop-color="#9E8F5E"/>
<stop offset="0.4996" stop-color="#958759"/>
<stop offset="0.5996" stop-color="#928457"/>
<stop offset="0.8564" stop-color="#5F5433"/>
<stop offset="1" stop-color="#473E22"/>
</linearGradient>
<linearGradient id="paint33_linear" x1="68.7562" y1="34.0607" x2="81.0041" y2="34.0607" gradientUnits="userSpaceOnUse">
<stop stop-color="#928457"/>
<stop offset="0.0483383" stop-color="#968859"/>
<stop offset="0.0980867" stop-color="#A29361"/>
<stop offset="0.1485" stop-color="#B7A56D"/>
<stop offset="0.199" stop-color="#D4BF7E"/>
<stop offset="0.2324" stop-color="#EBD48C"/>
<stop offset="0.2485" stop-color="#E1CB86"/>
<stop offset="0.3037" stop-color="#C4B175"/>
<stop offset="0.3628" stop-color="#AE9D68"/>
<stop offset="0.4269" stop-color="#9E8F5E"/>
<stop offset="0.4996" stop-color="#958759"/>
<stop offset="0.5996" stop-color="#928457"/>
<stop offset="0.8564" stop-color="#5F5433"/>
<stop offset="1" stop-color="#473E22"/>
</linearGradient>
<linearGradient id="paint34_linear" x1="71.3367" y1="26.3651" x2="69.7368" y2="29.1751" gradientUnits="userSpaceOnUse">
<stop stop-color="#928457"/>
<stop offset="0.0483383" stop-color="#968859"/>
<stop offset="0.0980867" stop-color="#A29361"/>
<stop offset="0.1485" stop-color="#B7A56D"/>
<stop offset="0.199" stop-color="#D4BF7E"/>
<stop offset="0.2324" stop-color="#EBD48C"/>
<stop offset="0.2485" stop-color="#E1CB86"/>
<stop offset="0.3037" stop-color="#C4B175"/>
<stop offset="0.3628" stop-color="#AE9D68"/>
<stop offset="0.4269" stop-color="#9E8F5E"/>
<stop offset="0.4996" stop-color="#958759"/>
<stop offset="0.5996" stop-color="#928457"/>
<stop offset="0.8564" stop-color="#5F5433"/>
<stop offset="1" stop-color="#473E22"/>
</linearGradient>
<linearGradient id="paint35_linear" x1="71.5098" y1="29.7824" x2="78.2463" y2="29.7824" gradientUnits="userSpaceOnUse">
<stop stop-color="#928457"/>
<stop offset="0.0483383" stop-color="#968859"/>
<stop offset="0.0980867" stop-color="#A29361"/>
<stop offset="0.1485" stop-color="#B7A56D"/>
<stop offset="0.199" stop-color="#D4BF7E"/>
<stop offset="0.2324" stop-color="#EBD48C"/>
<stop offset="0.2485" stop-color="#E1CB86"/>
<stop offset="0.3037" stop-color="#C4B175"/>
<stop offset="0.3628" stop-color="#AE9D68"/>
<stop offset="0.4269" stop-color="#9E8F5E"/>
<stop offset="0.4996" stop-color="#958759"/>
<stop offset="0.5996" stop-color="#928457"/>
<stop offset="0.8564" stop-color="#5F5433"/>
<stop offset="1" stop-color="#473E22"/>
</linearGradient>
<linearGradient id="paint36_linear" x1="73.4962" y1="27.0824" x2="76.2587" y2="27.0824" gradientUnits="userSpaceOnUse">
<stop stop-color="#928457"/>
<stop offset="0.0483383" stop-color="#968859"/>
<stop offset="0.0980867" stop-color="#A29361"/>
<stop offset="0.1485" stop-color="#B7A56D"/>
<stop offset="0.199" stop-color="#D4BF7E"/>
<stop offset="0.2324" stop-color="#EBD48C"/>
<stop offset="0.2485" stop-color="#E1CB86"/>
<stop offset="0.3037" stop-color="#C4B175"/>
<stop offset="0.3628" stop-color="#AE9D68"/>
<stop offset="0.4269" stop-color="#9E8F5E"/>
<stop offset="0.4996" stop-color="#958759"/>
<stop offset="0.5996" stop-color="#928457"/>
<stop offset="0.8564" stop-color="#5F5433"/>
<stop offset="1" stop-color="#473E22"/>
</linearGradient>
<linearGradient id="paint37_linear" x1="12.865" y1="71.8408" x2="43.2277" y2="71.8408" gradientUnits="userSpaceOnUse">
<stop stop-color="#928457"/>
<stop offset="0.0483383" stop-color="#968859"/>
<stop offset="0.0980867" stop-color="#A29361"/>
<stop offset="0.1485" stop-color="#B7A56D"/>
<stop offset="0.199" stop-color="#D4BF7E"/>
<stop offset="0.2324" stop-color="#EBD48C"/>
<stop offset="0.2485" stop-color="#E1CB86"/>
<stop offset="0.3037" stop-color="#C4B175"/>
<stop offset="0.3628" stop-color="#AE9D68"/>
<stop offset="0.4269" stop-color="#9E8F5E"/>
<stop offset="0.4996" stop-color="#958759"/>
<stop offset="0.5996" stop-color="#928457"/>
<stop offset="0.8564" stop-color="#5F5433"/>
<stop offset="1" stop-color="#473E22"/>
</linearGradient>
<linearGradient id="paint38_linear" x1="21.488" y1="69.9504" x2="34.6055" y2="69.9504" gradientUnits="userSpaceOnUse">
<stop stop-color="#928457"/>
<stop offset="0.0483383" stop-color="#968859"/>
<stop offset="0.0980867" stop-color="#A29361"/>
<stop offset="0.1485" stop-color="#B7A56D"/>
<stop offset="0.199" stop-color="#D4BF7E"/>
<stop offset="0.2324" stop-color="#EBD48C"/>
<stop offset="0.2485" stop-color="#E1CB86"/>
<stop offset="0.3037" stop-color="#C4B175"/>
<stop offset="0.3628" stop-color="#AE9D68"/>
<stop offset="0.4269" stop-color="#9E8F5E"/>
<stop offset="0.4996" stop-color="#958759"/>
<stop offset="0.5996" stop-color="#928457"/>
<stop offset="0.8564" stop-color="#5F5433"/>
<stop offset="1" stop-color="#473E22"/>
</linearGradient>
<linearGradient id="paint39_linear" x1="33.3173" y1="62.0107" x2="37.1465" y2="62.0107" gradientUnits="userSpaceOnUse">
<stop stop-color="#3F3F3F"/>
<stop offset="0.0477922" stop-color="#434343"/>
<stop offset="0.0969803" stop-color="#4F4F4F"/>
<stop offset="0.1468" stop-color="#646464"/>
<stop offset="0.1968" stop-color="#818181"/>
<stop offset="0.2324" stop-color="#9A9A9A"/>
<stop offset="0.2541" stop-color="#8E8E8E"/>
<stop offset="0.3164" stop-color="#727272"/>
<stop offset="0.3831" stop-color="#5B5B5B"/>
<stop offset="0.4554" stop-color="#4B4B4B"/>
<stop offset="0.5375" stop-color="#424242"/>
<stop offset="0.6504" stop-color="#3F3F3F"/>
<stop offset="1" stop-color="#1A1A1A"/>
</linearGradient>
<linearGradient id="paint40_linear" x1="37.5436" y1="65.2143" x2="41.3729" y2="65.2143" gradientUnits="userSpaceOnUse">
<stop stop-color="#3F3F3F"/>
<stop offset="0.0477922" stop-color="#434343"/>
<stop offset="0.0969803" stop-color="#4F4F4F"/>
<stop offset="0.1468" stop-color="#646464"/>
<stop offset="0.1968" stop-color="#818181"/>
<stop offset="0.2324" stop-color="#9A9A9A"/>
<stop offset="0.2541" stop-color="#8E8E8E"/>
<stop offset="0.3164" stop-color="#727272"/>
<stop offset="0.3831" stop-color="#5B5B5B"/>
<stop offset="0.4554" stop-color="#4B4B4B"/>
<stop offset="0.5375" stop-color="#424242"/>
<stop offset="0.6504" stop-color="#3F3F3F"/>
<stop offset="1" stop-color="#1A1A1A"/>
</linearGradient>
<linearGradient id="paint41_linear" x1="38.6747" y1="69.7492" x2="42.504" y2="69.7492" gradientUnits="userSpaceOnUse">
<stop stop-color="#3F3F3F"/>
<stop offset="0.0477922" stop-color="#434343"/>
<stop offset="0.0969803" stop-color="#4F4F4F"/>
<stop offset="0.1468" stop-color="#646464"/>
<stop offset="0.1968" stop-color="#818181"/>
<stop offset="0.2324" stop-color="#9A9A9A"/>
<stop offset="0.2541" stop-color="#8E8E8E"/>
<stop offset="0.3164" stop-color="#727272"/>
<stop offset="0.3831" stop-color="#5B5B5B"/>
<stop offset="0.4554" stop-color="#4B4B4B"/>
<stop offset="0.5375" stop-color="#424242"/>
<stop offset="0.6504" stop-color="#3F3F3F"/>
<stop offset="1" stop-color="#1A1A1A"/>
</linearGradient>
<linearGradient id="paint42_linear" x1="36.4322" y1="74.2701" x2="40.2615" y2="74.2701" gradientUnits="userSpaceOnUse">
<stop stop-color="#3F3F3F"/>
<stop offset="0.0477922" stop-color="#434343"/>
<stop offset="0.0969803" stop-color="#4F4F4F"/>
<stop offset="0.1468" stop-color="#646464"/>
<stop offset="0.1968" stop-color="#818181"/>
<stop offset="0.2324" stop-color="#9A9A9A"/>
<stop offset="0.2541" stop-color="#8E8E8E"/>
<stop offset="0.3164" stop-color="#727272"/>
<stop offset="0.3831" stop-color="#5B5B5B"/>
<stop offset="0.4554" stop-color="#4B4B4B"/>
<stop offset="0.5375" stop-color="#424242"/>
<stop offset="0.6504" stop-color="#3F3F3F"/>
<stop offset="1" stop-color="#1A1A1A"/>
</linearGradient>
<linearGradient id="paint43_linear" x1="31.4186" y1="77.6755" x2="35.2478" y2="77.6755" gradientUnits="userSpaceOnUse">
<stop stop-color="#3F3F3F"/>
<stop offset="0.0477922" stop-color="#434343"/>
<stop offset="0.0969803" stop-color="#4F4F4F"/>
<stop offset="0.1468" stop-color="#646464"/>
<stop offset="0.1968" stop-color="#818181"/>
<stop offset="0.2324" stop-color="#9A9A9A"/>
<stop offset="0.2541" stop-color="#8E8E8E"/>
<stop offset="0.3164" stop-color="#727272"/>
<stop offset="0.3831" stop-color="#5B5B5B"/>
<stop offset="0.4554" stop-color="#4B4B4B"/>
<stop offset="0.5375" stop-color="#424242"/>
<stop offset="0.6504" stop-color="#3F3F3F"/>
<stop offset="1" stop-color="#1A1A1A"/>
</linearGradient>
<linearGradient id="paint44_linear" x1="24.9865" y1="78.8898" x2="28.8158" y2="78.8898" gradientUnits="userSpaceOnUse">
<stop stop-color="#3F3F3F"/>
<stop offset="0.0477922" stop-color="#434343"/>
<stop offset="0.0969803" stop-color="#4F4F4F"/>
<stop offset="0.1468" stop-color="#646464"/>
<stop offset="0.1968" stop-color="#818181"/>
<stop offset="0.2324" stop-color="#9A9A9A"/>
<stop offset="0.2541" stop-color="#8E8E8E"/>
<stop offset="0.3164" stop-color="#727272"/>
<stop offset="0.3831" stop-color="#5B5B5B"/>
<stop offset="0.4554" stop-color="#4B4B4B"/>
<stop offset="0.5375" stop-color="#424242"/>
<stop offset="0.6504" stop-color="#3F3F3F"/>
<stop offset="1" stop-color="#1A1A1A"/>
</linearGradient>
<linearGradient id="paint45_linear" x1="18.8956" y1="77.7158" x2="22.7248" y2="77.7158" gradientUnits="userSpaceOnUse">
<stop stop-color="#3F3F3F"/>
<stop offset="0.0477922" stop-color="#434343"/>
<stop offset="0.0969803" stop-color="#4F4F4F"/>
<stop offset="0.1468" stop-color="#646464"/>
<stop offset="0.1968" stop-color="#818181"/>
<stop offset="0.2324" stop-color="#9A9A9A"/>
<stop offset="0.2541" stop-color="#8E8E8E"/>
<stop offset="0.3164" stop-color="#727272"/>
<stop offset="0.3831" stop-color="#5B5B5B"/>
<stop offset="0.4554" stop-color="#4B4B4B"/>
<stop offset="0.5375" stop-color="#424242"/>
<stop offset="0.6504" stop-color="#3F3F3F"/>
<stop offset="1" stop-color="#1A1A1A"/>
</linearGradient>
<linearGradient id="paint46_linear" x1="14.8007" y1="74.4007" x2="18.63" y2="74.4007" gradientUnits="userSpaceOnUse">
<stop stop-color="#3F3F3F"/>
<stop offset="0.0477922" stop-color="#434343"/>
<stop offset="0.0969803" stop-color="#4F4F4F"/>
<stop offset="0.1468" stop-color="#646464"/>
<stop offset="0.1968" stop-color="#818181"/>
<stop offset="0.2324" stop-color="#9A9A9A"/>
<stop offset="0.2541" stop-color="#8E8E8E"/>
<stop offset="0.3164" stop-color="#727272"/>
<stop offset="0.3831" stop-color="#5B5B5B"/>
<stop offset="0.4554" stop-color="#4B4B4B"/>
<stop offset="0.5375" stop-color="#424242"/>
<stop offset="0.6504" stop-color="#3F3F3F"/>
<stop offset="1" stop-color="#1A1A1A"/>
</linearGradient>
<linearGradient id="paint47_linear" x1="13.8145" y1="69.8625" x2="17.6437" y2="69.8625" gradientUnits="userSpaceOnUse">
<stop stop-color="#3F3F3F"/>
<stop offset="0.0477922" stop-color="#434343"/>
<stop offset="0.0969803" stop-color="#4F4F4F"/>
<stop offset="0.1468" stop-color="#646464"/>
<stop offset="0.1968" stop-color="#818181"/>
<stop offset="0.2324" stop-color="#9A9A9A"/>
<stop offset="0.2541" stop-color="#8E8E8E"/>
<stop offset="0.3164" stop-color="#727272"/>
<stop offset="0.3831" stop-color="#5B5B5B"/>
<stop offset="0.4554" stop-color="#4B4B4B"/>
<stop offset="0.5375" stop-color="#424242"/>
<stop offset="0.6504" stop-color="#3F3F3F"/>
<stop offset="1" stop-color="#1A1A1A"/>
</linearGradient>
<linearGradient id="paint48_linear" x1="16.2048" y1="65.3348" x2="20.0341" y2="65.3348" gradientUnits="userSpaceOnUse">
<stop stop-color="#3F3F3F"/>
<stop offset="0.0477922" stop-color="#434343"/>
<stop offset="0.0969803" stop-color="#4F4F4F"/>
<stop offset="0.1468" stop-color="#646464"/>
<stop offset="0.1968" stop-color="#818181"/>
<stop offset="0.2324" stop-color="#9A9A9A"/>
<stop offset="0.2541" stop-color="#8E8E8E"/>
<stop offset="0.3164" stop-color="#727272"/>
<stop offset="0.3831" stop-color="#5B5B5B"/>
<stop offset="0.4554" stop-color="#4B4B4B"/>
<stop offset="0.5375" stop-color="#424242"/>
<stop offset="0.6504" stop-color="#3F3F3F"/>
<stop offset="1" stop-color="#1A1A1A"/>
</linearGradient>
<linearGradient id="paint49_linear" x1="21.3205" y1="62.0479" x2="25.1498" y2="62.0479" gradientUnits="userSpaceOnUse">
<stop stop-color="#3F3F3F"/>
<stop offset="0.0477922" stop-color="#434343"/>
<stop offset="0.0969803" stop-color="#4F4F4F"/>
<stop offset="0.1468" stop-color="#646464"/>
<stop offset="0.1968" stop-color="#818181"/>
<stop offset="0.2324" stop-color="#9A9A9A"/>
<stop offset="0.2541" stop-color="#8E8E8E"/>
<stop offset="0.3164" stop-color="#727272"/>
<stop offset="0.3831" stop-color="#5B5B5B"/>
<stop offset="0.4554" stop-color="#4B4B4B"/>
<stop offset="0.5375" stop-color="#424242"/>
<stop offset="0.6504" stop-color="#3F3F3F"/>
<stop offset="1" stop-color="#1A1A1A"/>
</linearGradient>
<linearGradient id="paint50_linear" x1="27.7724" y1="60.8974" x2="31.6017" y2="60.8974" gradientUnits="userSpaceOnUse">
<stop stop-color="#3F3F3F"/>
<stop offset="0.0477922" stop-color="#434343"/>
<stop offset="0.0969803" stop-color="#4F4F4F"/>
<stop offset="0.1468" stop-color="#646464"/>
<stop offset="0.1968" stop-color="#818181"/>
<stop offset="0.2324" stop-color="#9A9A9A"/>
<stop offset="0.2541" stop-color="#8E8E8E"/>
<stop offset="0.3164" stop-color="#727272"/>
<stop offset="0.3831" stop-color="#5B5B5B"/>
<stop offset="0.4554" stop-color="#4B4B4B"/>
<stop offset="0.5375" stop-color="#424242"/>
<stop offset="0.6504" stop-color="#3F3F3F"/>
<stop offset="1" stop-color="#1A1A1A"/>
</linearGradient>
</defs>
</svg>
