<svg width="142" height="101" viewBox="0 0 142 101" fill="none" xmlns="http://www.w3.org/2000/svg">
<path d="M104.101 65.6004L61.2006 40.9004L0.000587463 76.2004L42.9006 100.9L104.101 65.6004Z" fill="#EDEDED"/>
<path d="M43.2002 93.7008L12.2002 75.8008L10.4002 76.8008L41.4002 94.7008L43.2002 93.7008Z" fill="#1D1D1B"/>
<path d="M48.3008 90.7008L17.3008 72.8008L16.2008 73.5008L47.2008 91.4008L48.3008 90.7008Z" fill="#1D1D1B"/>
<path d="M51.4004 89L20.4004 71L19.2004 71.7L50.3004 89.6L51.4004 89Z" fill="#1D1D1B"/>
<path d="M54.501 87.2008L23.401 69.3008L22.301 69.9008L53.301 87.8008L54.501 87.2008Z" fill="#1D1D1B"/>
<path d="M60.6006 83.6012L29.6006 65.7012L28.4006 66.4012L59.5006 84.3012L60.6006 83.6012Z" fill="#1D1D1B"/>
<path d="M63.7002 81.9L32.6002 64L31.5002 64.6L62.5002 82.5L63.7002 81.9Z" fill="#1D1D1B"/>
<path d="M47.6006 69.1012L35.7006 62.2012L34.6006 62.9012L46.4006 69.7012L47.6006 69.1012Z" fill="#1D1D1B"/>
<path d="M69.8008 78.3004L38.8008 60.4004L37.6008 61.1004L68.7008 79.0004L69.8008 78.3004Z" fill="#1D1D1B"/>
<path d="M72.9004 76.6012L41.8004 58.7012L40.7004 59.3012L71.7004 77.2012L72.9004 76.6012Z" fill="#1D1D1B"/>
<path d="M68.7002 70.6004L44.9002 56.9004L43.8002 57.5004L67.5002 71.3004L68.7002 70.6004Z" fill="#1D1D1B"/>
<path d="M67.9004 59.5996L54.1004 51.5996L53.0004 52.1996L66.8004 60.1996L67.9004 59.5996Z" fill="#1D1D1B"/>
<path d="M71.001 57.8008L57.201 49.8008L56.001 50.5008L69.901 58.4008L71.001 57.8008Z" fill="#1D1D1B"/>
<path d="M103.43 37.8077C101.01 33.7787 95.2971 30.6774 90.6838 30.7655C88.3514 30.7667 86.7569 31.6078 86.0545 32.963C85.352 34.3182 85.4044 36.1532 86.5887 38.1248C89.0088 42.1538 94.7213 45.2551 99.3346 45.167C101.753 45.1144 103.433 44.2217 104.084 42.7808C104.701 41.4771 104.563 39.6936 103.43 37.8077Z" fill="#575756"/>
<path d="M101.084 46.3323C99.1819 48.9915 94.9452 47.5702 91.8231 46.0626C88.1689 43.4748 83.0226 40.7334 83.8789 38.4692C84.9068 36.102 90.7026 34.487 94.7325 33.8161C97.8214 37.7933 103.054 42.2325 101.084 46.3323Z" fill="#DADADA"/>
<path d="M101.871 42.01L99.2502 48.7169L83.5025 40.5615L86.9464 34.0599L101.871 42.01Z" fill="#F69A62"/>
<path d="M83.7933 38.522C87.8893 32.912 102.505 40.9308 101.084 46.3337L104.973 38.6315C104.302 32.8523 94.4546 26.7519 87.8706 29.7736L83.7933 38.522Z" fill="#EDEDED"/>
<path d="M116.677 20.6349L95.7492 9.87531L86.054 32.9639C86.8079 31.6944 88.4024 30.8533 90.6833 30.7664C95.2966 30.6783 101.061 33.8653 103.429 37.8086C104.562 39.6945 104.7 41.478 104.083 42.7817L116.677 20.6349Z" fill="#1D1D1B"/>
<path d="M115.646 15.4214C118.375 19.9648 116.336 23.7559 111.003 23.81C105.669 23.8642 99.2017 20.2831 96.4211 15.654C93.692 11.1107 95.7309 7.31952 101.065 7.2654C106.398 7.21128 112.917 10.8781 115.646 15.4214Z" fill="#1D1D1B"/>
<path d="M72.8578 51.9721C74.5734 53.2746 76.0149 55.0918 76.6507 57.5096L78.2291 58.7779L79.7046 59.8748L81.9009 62.1717C82.8614 62.4114 83.7874 62.2051 84.6104 61.8274L86.9434 62.9924C87.458 63.2665 88.161 63.0775 89.001 62.3397L91.3337 62.9216C92.7401 63.1267 94.8314 61.1706 97.4715 59.3514C97.5573 59.2999 97.643 59.2484 97.643 59.2484L100.967 54.1017C100.967 54.1017 102.013 52.5406 101.738 51.3059C101.24 49.5054 100.571 49.5572 100.33 48.7685C100.175 47.9282 100.895 46.7959 99.8654 45.0815C98.6296 43.0241 97.3437 43.7965 96.6573 43.0422C96.1082 42.3222 96.7767 41.6874 94.9408 39.9904C93.4481 38.6706 91.6479 39.752 90.7044 39.1522C89.8123 38.6382 88.5938 36.8037 86.484 36.2046C84.4258 35.6911 82.1979 38.7792 82.1979 38.7792L79.9875 42.6733L72.3575 46.09L71.792 46.8963C70.8838 48.4917 71.2794 50.7038 72.8578 51.9721Z" fill="#FCAF75"/>
<path opacity="0.5" d="M79.6631 43.6855L74.7087 47.4782C74.7087 47.4782 78.1072 53.1359 77.8497 52.7073C77.6953 52.4501 78.3796 49.1227 78.9957 46.6528C79.3208 45.0577 79.6631 43.6855 79.6631 43.6855Z" fill="#FCAF75"/>
<path d="M78.732 68.7417L83.4287 29.7577C83.5826 28.8487 82.8447 28.0087 81.9357 27.8549C81.0267 27.701 80.1867 28.4388 80.0328 29.3478L75.2846 68.2461C75.1307 69.1551 75.4927 72.6707 76.4874 72.7731C77.4479 73.0127 78.5781 69.6508 78.732 68.7417Z" fill="#1D1D1B"/>
<path opacity="0.5" d="M78.3156 58.727L79.7911 59.8238L81.9874 62.1208C82.9479 62.3604 83.8739 62.1542 84.6969 61.7765L87.0299 62.9415C87.5445 63.2156 88.2476 63.0266 89.0875 62.2888L91.4202 62.8707C92.8266 63.0758 94.9179 61.1196 97.5581 59.3004C93.5955 57.3645 90.2842 54.5707 87.7956 50.8162L88.0325 44.6078L78.6228 55.7428L78.3156 58.727Z" fill="#FCAF75"/>
<path d="M88.8366 42.2574L86.2336 49.7703L80.5431 56.2215C78.3149 58.7265 75.2438 56.1384 77.0773 53.1706C77.3172 52.7932 81.3448 47.4576 81.3448 47.4576L82.2497 39.4481C84.9753 36.9943 88.2521 39.3422 88.8366 42.2574Z" fill="#FCAF75"/>
<path opacity="0.5" d="M81.3768 42.0716L84.2568 39.875L81.2079 47.4225L80.4338 42.638L81.3768 42.0716Z" fill="#FCAF75"/>
<path d="M76.5908 73.5271C76.6765 73.4756 76.6765 73.4756 76.7107 73.3384L76.8304 72.5666C76.8646 72.4294 76.3158 72.2925 76.333 72.5154L76.2134 73.2872C76.1791 73.4244 76.2821 73.5959 76.3679 73.5444C76.5051 73.5786 76.5051 73.5786 76.5908 73.5271Z" fill="#B2B2B2"/>
</svg>
