<svg width="531" height="554" viewBox="0 0 531 554" fill="none" xmlns="http://www.w3.org/2000/svg">
<path d="M336.629 482.055V493.847L320.345 484.462V472.59L336.629 482.055Z" fill="#E04E39"/>
<path d="M427.748 429.434L336.624 482.055L320.34 472.59L411.384 419.969L427.748 429.434Z" fill="#F49678"/>
<path d="M336.624 482.057V493.848L427.748 441.227V429.436L336.624 482.057Z" fill="#E04E39"/>
<path d="M428.619 64.1319L438.887 58.196L422.523 48.7305L412.336 54.6666L428.619 64.1319Z" fill="#F49678"/>
<path d="M428.625 169.295V64.1333L412.341 54.668V159.83L428.625 169.295Z" fill="#E04E39"/>
<path d="M428.619 64.1331L438.887 58.1973V163.359L428.619 169.295V64.1331Z" fill="#F49678"/>
<path d="M439.779 541.733V553.605L423.496 544.139V532.348L439.779 541.733Z" fill="#E04E39"/>
<path d="M530.9 489.192L439.776 541.733L423.492 532.348L514.537 479.727L530.9 489.192Z" fill="#F49678"/>
<path d="M439.776 541.734V553.606L530.9 500.985V489.193L439.776 541.734Z" fill="#E04E39"/>
<path d="M514.139 136.647V520.717L344.805 422.935V38.8652L514.139 136.647Z" fill="white"/>
<path d="M432.072 122.609L361.483 81.8594V174.347L432.072 215.097V122.609Z" fill="#D8B89A"/>
<path d="M432.072 346.089L361.483 305.26V397.748L432.072 438.577V346.089Z" fill="#C39367"/>
<path d="M497.529 385.314L442.261 353.389V445.877L497.529 477.722V385.314Z" fill="#D8B89A"/>
<path d="M497.451 277.747V267.56L361.487 189.029V199.217L497.451 277.747Z" fill="#F49678"/>
<path d="M477.318 278.067L361.488 211.168V221.355L477.318 288.255V278.067Z" fill="#0B1017"/>
<path d="M497.451 322.026V311.839L361.487 233.309V243.496L497.451 322.026Z" fill="#F49678"/>
<path d="M497.451 344.163V333.896L361.487 255.445V265.633L497.451 344.163Z" fill="#0B1017"/>
<path d="M452.283 329.964L361.48 277.504V287.771L452.283 340.152V329.964Z" fill="#F49678"/>
<path d="M506.914 516.788V540.291L337.5 442.429V419.006L506.914 516.788Z" fill="#F49678"/>
<path d="M513.654 512.937L506.916 516.787L337.502 419.005L344.32 415.074L513.654 512.937Z" fill="#E04E39"/>
<path d="M506.916 516.788V540.291L513.654 536.36V512.938L506.916 516.788Z" fill="#E04E39"/>
<path d="M506.914 127.501V141.218L337.5 43.4355V29.7188L506.914 127.501Z" fill="#F49678"/>
<path d="M513.654 123.653L506.916 127.504L337.502 29.7215L344.32 25.791L513.654 123.653Z" fill="#E04E39"/>
<path d="M506.916 127.505V141.221L513.654 137.291V123.654L506.916 127.505Z" fill="#E04E39"/>
<path d="M493.285 203.789C493.285 217.907 481.895 222.719 467.777 214.537C453.659 206.436 442.268 188.387 442.268 174.269C442.268 160.151 453.659 155.339 467.777 163.521C481.895 171.702 493.285 189.671 493.285 203.789Z" fill="#F49678"/>
<path d="M197.503 83.3843L196.781 68.705C196.942 62.8493 192.77 61.6461 192.77 65.1756V61.6461C192.69 56.5925 188.359 56.031 188.038 61.6461L186.835 80.0152C185.15 77.2076 183.225 74.8013 180.818 73.1168C178.091 72.7157 175.364 72.7157 172.476 73.1168L168.144 77.9297C167.583 78.6517 167.422 79.2934 167.503 79.9351C167.102 80.256 166.62 80.8173 166.299 81.7799L163.652 88.6785C164.936 93.9727 166.701 98.7855 169.428 102.877C170.872 105.684 173.038 108.171 175.925 110.337L175.364 120.684L190.284 122.048L190.765 117.957L191.166 115.149L195.899 108.813L200.712 95.3363L201.514 93.0102V84.4271C201.033 77.8495 197.262 78.3308 197.503 83.3843ZM171.995 91.4861L169.428 88.8389L169.989 84.1865C170.15 83.4646 170.15 82.8228 170.07 82.1811L169.989 81.5393C170.471 81.4591 170.952 81.2987 171.513 80.8977L174.401 78.0901L178.332 78.7319L180.177 82.3415C177.931 85.8709 175.203 89.2401 171.995 91.4861Z" fill="#FFAE80"/>
<path d="M196.139 137.77C196.059 140.256 195.738 142.422 195.096 144.267C193.332 149.401 189.241 152.208 182.583 152.529C165.738 147.957 150.577 141.7 138.545 132.475C137.422 131.673 136.379 130.791 135.336 129.909C135.095 129.668 134.775 129.427 134.534 129.187L121.539 91.3251L126.512 78.1699C139.828 79.6138 149.133 88.277 156.753 100.229L175.684 115.39L175.925 110.978C179.695 115.069 184.829 116.593 191.086 115.951C192.289 126.7 197.022 130.069 196.139 137.77Z" fill="#F17757"/>
<path opacity="0.5" d="M195.089 144.267C193.324 149.401 189.233 152.209 182.575 152.53C165.73 147.957 150.569 141.701 138.537 132.476V127.102C161.639 141.781 180.81 148.198 195.089 144.267Z" fill="#E04E39"/>
<path opacity="0.5" d="M163.652 105.768C169.027 113.067 170.551 116.998 173.037 127.345L175.685 115.393L163.652 105.768Z" fill="#E04E39"/>
<path opacity="0.5" d="M182.572 105.123C180.005 97.5825 177.599 92.9302 171.984 91.4863C175.192 89.3205 177.92 85.9514 180.166 82.3417L178.321 78.7322L174.39 78.0903L171.503 80.8979C171.021 81.299 170.46 81.4593 169.979 81.5395L174.15 76.6465L179.925 78.2509L182.492 82.6626C186.503 89.5611 184.578 97.1815 182.572 105.123Z" fill="#FFAE80"/>
<path opacity="0.5" d="M201.433 87.638C201.433 87.638 201.112 90.9269 200.631 95.2585L195.818 108.735L191.085 115.072L190.684 117.879C188.759 118.2 187.155 118.361 187.155 118.361L185.631 116.435L185.952 112.665C188.599 111.462 192.449 109.296 193.171 106.649C195.096 104.483 196.54 101.034 198.144 97.1033C198.305 96.622 188.118 85.3118 188.278 84.9107C188.438 84.4294 199.107 94.8573 199.267 94.376C199.508 93.8145 199.749 93.253 200.07 92.6113L201.433 87.638Z" fill="#FFAE80"/>
<path d="M101.559 436.171C101.559 436.171 99.3934 448.123 100.436 453.257C101.559 458.391 115.116 461.679 115.116 461.679C115.116 461.679 134.207 479.647 150.41 478.364C159.956 477.642 163.164 475.075 164.689 472.268C166.213 469.46 164.769 465.851 162.924 463.284C161.079 460.637 141.266 452.294 136.292 444.353C133.886 440.503 129.875 432.401 129.875 432.401L128.191 417.32L101.88 416.197L103.164 434.005L101.559 436.171Z" fill="#0B1017"/>
<path d="M78.4531 247.425L95.1379 331.41C88.9613 364.94 90.3249 399.914 98.8277 436.251C103.962 450.048 122.331 446.198 133.721 436.251C130.352 408.978 129.791 377.373 130.433 343.924L133.721 321.944C133.721 321.944 136.449 310.715 136.288 268.2C136.208 246.382 123.775 198.814 123.775 198.814L78.4531 247.425Z" fill="url(#paint0_linear)"/>
<path d="M43.7225 465.529C41.7171 469.299 41.7171 475.716 41.5566 485.021C44.0433 490.155 47.8936 494.326 52.5461 495.851C52.5461 495.851 60.4072 515.343 82.707 515.904C103.563 516.386 103.403 507.963 103.322 508.043C103.322 508.043 103.322 503.23 98.5094 499.219C95.5414 496.733 80.1401 484.38 77.4128 480.85C74.6855 477.321 72.4395 471.625 72.4395 471.625L71.4769 456.545H43.4016L43.7225 465.529Z" fill="#0B1017"/>
<g filter="url(#filter0_d)">
<path d="M92.4111 265.473C92.4111 307.987 94.0154 333.175 82.7853 354.752C82.7853 354.752 80.4591 372.48 77.2505 383.389C73.9616 394.7 74.5231 444.192 75.8868 473.471C70.1113 483.017 56.3143 484.621 47.3302 478.444C43.881 476.118 41.1536 472.589 39.79 468.016C32.4102 422.053 27.3566 385.636 45.5655 351.705C39.7098 322.025 40.4317 292.746 42.2767 260.42C40.0306 241.088 42.5975 225.285 48.373 211.97C49.8169 208.601 51.4212 205.392 53.2661 202.344L128.909 220.312C121.048 247.425 107.331 262.184 92.4111 265.473Z" fill="url(#paint1_linear)"/>
</g>
<path opacity="0.5" d="M57.9186 354.593C34.7364 378.417 41.3943 424.621 47.3302 478.445C43.881 476.119 41.1536 472.59 39.79 468.017C32.4102 422.054 27.3566 385.637 45.5655 351.706C39.7098 322.026 40.4317 292.747 42.2767 260.421C40.0306 241.089 42.5975 225.286 48.373 211.971L74.5231 241.57C48.4532 257.934 43.5601 314.887 57.9186 354.593Z" fill="url(#paint2_linear)"/>
<path d="M130.688 210.125C130.447 226.971 131.57 231.061 133.335 242.211C118.976 256.73 66.1146 277.827 41.4084 247.024C41.649 232.906 42.1303 224.003 42.1303 224.003L40.6063 155.579L34.4297 113.627C42.6116 103.68 55.5263 93.8937 63.7082 89.562C83.5213 76.4068 102.292 71.3534 126.436 78.1716C126.436 78.1716 132.934 96.6212 136.303 114.589C136.704 116.595 136.864 119.563 136.945 123.172C136.945 124.696 136.945 126.381 136.945 128.145C136.463 158.788 130.768 201.863 130.688 210.125Z" fill="#F17757"/>
<path opacity="0.5" d="M60.5751 143.627L40.6016 155.499L42.1256 223.922C42.1256 223.922 41.7246 232.906 41.4037 246.944C66.11 277.747 118.892 256.65 133.33 242.131C111.271 255.607 88.49 201.382 69.7197 187.585L60.5751 143.627Z" fill="#E04E39"/>
<path d="M68.2754 89.2393L79.5055 65.8164L110.87 81.4585L104.212 99.0256C98.5165 120.283 64.746 107.208 68.2754 89.2393Z" fill="#FFAE80"/>
<g filter="url(#filter1_d)">
<path d="M94.2567 24.1074C79.0159 24.2679 70.2724 31.6476 69.7109 48.172C70.112 65.4984 75.8875 79.536 89.3636 88.9211C95.9413 94.456 103.08 96.5415 110.781 95.4185C120.086 95.8196 121.69 72.7177 123.054 56.1132C122.091 38.5461 111.423 28.6797 94.2567 24.1074Z" fill="#FFAE80"/>
</g>
<path d="M123.053 49.3744C119.604 57.797 104.603 63.8131 89.3625 59.8826L87.678 73.5993L81.1004 70.1501L75.0041 76.8882L72.758 73.5993C61.3675 50.4172 64.7365 33.3315 82.1432 24.1067C104.844 15.1226 127.705 37.0213 123.053 49.3744Z" fill="#0B1017"/>
<path d="M78.9489 76.0852C77.505 74.8017 76.0611 73.3579 75.259 71.5931C74.4568 69.8284 74.2964 67.6625 75.1788 65.978C76.1414 64.2935 78.3071 63.1706 80.0719 63.8926C81.3553 64.3739 82.2377 65.4968 82.719 66.7802C83.2003 68.0636 83.2805 69.4273 83.3607 70.7909C83.4409 71.9942 83.5211 73.2778 83.6014 74.481C83.6816 75.3634 83.6816 76.2457 83.1201 76.8874C82.5586 77.4489 81.6762 77.6093 80.9542 77.3686C80.1521 77.128 79.5906 76.5665 78.9489 76.0852Z" fill="#FFAE80"/>
<path d="M130.517 249.915C131.239 251.118 130.999 253.123 129.796 253.925L128.352 254.567C129.314 255.85 128.111 258.016 126.988 258.417C127.068 258.899 126.988 259.38 126.828 259.861C126.587 260.583 126.025 261.225 125.384 261.706C123.779 263.551 121.614 265.236 118.967 265.236C111.667 262.268 105.891 257.054 99.394 252L97.3886 250.556L91.6934 246.545L92.8966 243.096L96.3459 232.909L103.806 235.075C105.17 232.187 108.619 228.978 112.549 225.689C115.036 222 114.795 218.149 116.4 217.026C120.09 216.786 120.811 220.636 119.849 225.689C118.806 228.016 116.801 229.78 116.881 231.706C116.881 233.631 117.523 235.716 118.485 237.882C118.886 238.684 119.287 239.567 119.769 240.369C121.052 240.128 122.255 239.968 123.459 239.968C124.742 239.968 125.945 240.048 127.068 240.369C129.555 242.053 131.159 244.38 132.282 247.027C132.202 248.39 131.801 249.594 130.517 249.915Z" fill="#FFAE80"/>
<path d="M96.7497 245.821C96.5893 248.308 97.3112 250.554 99.1562 251.597C98.5145 251.276 97.8727 250.955 97.3112 250.634C72.605 237.479 50.2249 223.361 37.2301 205.633C36.3477 204.43 35.5456 203.227 34.7434 201.943C29.5295 179.483 26.7219 157.424 26 130.472C31.1338 99.4285 59.8508 108.974 60.5727 143.707C61.2946 162.718 62.8187 178.119 60.8134 191.836C77.8992 209.644 93.14 230.34 103.728 235.153C103.889 235.233 104.049 235.313 104.13 235.393C100.039 236.115 97.0706 241.409 96.7497 245.821Z" fill="#F17757"/>
<path opacity="0.5" d="M126.833 259.86C126.592 260.582 126.03 261.224 125.389 261.705C123.784 263.55 121.619 265.235 118.971 265.235C111.672 262.267 105.896 257.053 99.399 251.999L97.3936 250.555C72.6873 237.4 50.3073 223.282 37.3125 205.555C58.6497 221.598 79.9869 237.48 92.8213 243.095L96.8321 245.823C104.372 250.635 111.511 254.406 117.768 255.288C118.57 256.892 120.094 257.694 122.341 257.775L118.089 259.7C118.33 261.545 119.533 262.347 121.217 262.507C123.143 262.587 124.988 261.625 126.833 259.86Z" fill="#FFAE80"/>
<path opacity="0.5" d="M126.263 241.09L124.98 244.218H123.215C120.327 243.336 119.124 240.769 118.402 237.801C118.803 238.603 119.204 239.485 119.686 240.287C120.969 240.047 122.172 239.886 123.376 239.886L126.263 241.09Z" fill="#FFAE80"/>
<path opacity="0.5" d="M121.539 252.959C124.026 250.472 126.994 248.948 130.924 249.269C130.443 249.59 130.363 250.232 130.844 251.114C128.598 250.713 125.149 251.756 121.539 252.959Z" fill="#FFAE80"/>
<defs>
<filter id="filter0_d" x="0.99403" y="202.344" width="160.001" height="343.94" filterUnits="userSpaceOnUse" color-interpolation-filters="sRGB">
<feFlood flood-opacity="0" result="BackgroundImageFix"/>
<feColorMatrix in="SourceAlpha" type="matrix" values="0 0 0 0 0 0 0 0 0 0 0 0 0 0 0 0 0 0 127 0"/>
<feOffset dy="32.086"/>
<feGaussianBlur stdDeviation="16.043"/>
<feColorMatrix type="matrix" values="0 0 0 0 0 0 0 0 0 0 0 0 0 0 0 0 0 0 0.25 0"/>
<feBlend mode="normal" in2="BackgroundImageFix" result="effect1_dropShadow"/>
<feBlend mode="normal" in="SourceGraphic" in2="effect1_dropShadow" result="shape"/>
</filter>
<filter id="filter1_d" x="37.6249" y="0.0428858" width="117.515" height="135.777" filterUnits="userSpaceOnUse" color-interpolation-filters="sRGB">
<feFlood flood-opacity="0" result="BackgroundImageFix"/>
<feColorMatrix in="SourceAlpha" type="matrix" values="0 0 0 0 0 0 0 0 0 0 0 0 0 0 0 0 0 0 127 0"/>
<feOffset dy="8.02151"/>
<feGaussianBlur stdDeviation="16.043"/>
<feColorMatrix type="matrix" values="0 0 0 0 0 0 0 0 0 0 0 0 0 0 0 0 0 0 0.25 0"/>
<feBlend mode="normal" in2="BackgroundImageFix" result="effect1_dropShadow"/>
<feBlend mode="normal" in="SourceGraphic" in2="effect1_dropShadow" result="shape"/>
</filter>
<linearGradient id="paint0_linear" x1="123.07" y1="429.126" x2="111.494" y2="193.376" gradientUnits="userSpaceOnUse">
<stop offset="0.00505051" stop-color="#C39367"/>
<stop offset="1" stop-color="#704232"/>
</linearGradient>
<linearGradient id="paint1_linear" x1="106.999" y1="463.847" x2="97.9796" y2="195.826" gradientUnits="userSpaceOnUse">
<stop offset="0.00505051" stop-color="#C39367"/>
<stop offset="1" stop-color="#704232"/>
</linearGradient>
<linearGradient id="paint2_linear" x1="65.0478" y1="461.048" x2="46.2088" y2="206.87" gradientUnits="userSpaceOnUse">
<stop offset="0.00505051" stop-color="#C39367"/>
<stop offset="1" stop-color="#704232"/>
</linearGradient>
</defs>
</svg>
