<svg width="65" height="46" viewBox="0 0 65 46" fill="none" xmlns="http://www.w3.org/2000/svg">
<g filter="url(#filter0_iii)">
<mask id="mask0" mask-type="alpha" maskUnits="userSpaceOnUse" x="26" y="0" width="34" height="46">
<path d="M59.7339 8C59.7339 3.58172 56.1522 0 51.7339 0H39.8128L26.5321 19.9211V37.2375C26.5321 41.6558 30.1138 45.2375 34.5321 45.2375H51.7339C56.1522 45.2375 59.7339 41.6558 59.7339 37.2375V8Z" fill="white"/>
</mask>
<g mask="url(#mask0)">
<g clip-path="url(#clip0)">
<rect width="34.2729" height="44.9831" transform="translate(25.4611)" fill="#FDFDFD" fill-opacity="0.5"/>
<rect x="-34.8911" y="-39.2195" width="94.6251" height="94.6251" fill="#FDFDFD" fill-opacity="0.5"/>
</g>
<path d="M59.7339 8C59.7339 3.58172 56.1522 0 51.7339 0H39.8128L26.5321 19.9211V37.2375C26.5321 41.6558 30.1138 45.2375 34.5321 45.2375H51.7339C56.1522 45.2375 59.7339 41.6558 59.7339 37.2375V8Z" fill="url(#paint0_linear)"/>
<path d="M59.7339 8C59.7339 3.58172 56.1522 0 51.7339 0H39.8128L26.5321 19.9211V37.2375C26.5321 41.6558 30.1138 45.2375 34.5321 45.2375H51.7339C56.1522 45.2375 59.7339 41.6558 59.7339 37.2375V8Z" fill="url(#paint1_radial)"/>
</g>
</g>
<path d="M39.8128 0L40.784 1.61866C43.015 5.33701 41.8775 10.1559 38.2191 12.4839L26.5321 19.9211L39.8128 0Z" fill="#663A2A" fill-opacity="0.2"/>
<g filter="url(#filter1_b)">
<circle cx="44.5381" cy="28.4686" r="10.4524" transform="rotate(-60 44.5381 28.4686)" fill="url(#paint2_linear)"/>
</g>
<path fill-rule="evenodd" clip-rule="evenodd" d="M54.9061 32.0475C57.0991 27.9539 55.0046 31.9654 53.902 33.8752C50.9161 39.0468 44.3031 40.8188 39.1314 37.8329C33.9597 34.8471 30.7691 28.4393 33.755 23.2676C34.1582 22.5693 34.3648 22.3905 34.9326 21.813C38.5693 18.1138 45.4709 16.5219 49.9442 19.1046C51.8516 20.2058 51.4946 19.885 53.1216 21.813L59.0004 19.885C60.154 19.5759 63.6255 22.1139 63.9346 23.2675C64.2437 24.4212 61.5186 22.5273 60.3649 22.8364L54.9061 32.0475ZM49.4937 19.885C54.2344 22.622 55.8587 28.6839 53.1216 33.4246C50.3846 38.1653 44.3227 39.7896 39.582 37.0526C34.8413 34.3155 33.217 28.2536 35.954 23.5129C38.6911 18.7722 44.753 17.1479 49.4937 19.885Z" fill="#E84B37"/>
<path d="M33.755 23.2676C34.1582 22.5693 34.3648 22.3905 34.9326 21.813C34.9326 21.813 34.2503 19.646 32.5445 19.646C30.8388 19.646 30.1568 21.813 30.1568 21.813L31.1802 23.5129C31.5211 22.3752 32.5445 22.3752 32.5445 22.3752C32.5445 22.3752 33.2268 22.3752 33.755 23.2676Z" fill="#E84B37"/>
<g filter="url(#filter2_b)">
<circle r="10.4524" transform="matrix(-0.5 -0.866025 -0.866025 0.5 20.3972 28.3482)" fill="url(#paint3_linear)"/>
</g>
<path fill-rule="evenodd" clip-rule="evenodd" d="M10.0291 31.9271C7.83608 27.8335 9.93066 31.845 11.0333 33.7548C14.0191 38.9265 20.6321 40.6984 25.8038 37.7125C30.9755 34.7267 34.1661 28.3189 31.1803 23.1473C28.1944 17.9756 20.1627 15.9984 14.991 18.9842C13.0836 20.0855 13.4406 19.7646 11.8136 21.6926L5.93487 19.7646C4.78122 19.4555 1.30972 21.9935 1.0006 23.1471C0.691483 24.3008 3.41663 22.4069 4.57028 22.716L10.0291 31.9271ZM15.4415 19.7646C10.7008 22.5016 9.07656 28.5635 11.8136 33.3043C14.5506 38.045 20.6126 39.6692 25.3533 36.9322C30.094 34.1951 31.7183 28.1332 28.9812 23.3925C26.2442 18.6518 20.1823 17.0275 15.4415 19.7646Z" fill="#E84B37"/>
<defs>
<filter id="filter0_iii" x="25.5321" y="-1" width="35.2018" height="46.2375" filterUnits="userSpaceOnUse" color-interpolation-filters="sRGB">
<feFlood flood-opacity="0" result="BackgroundImageFix"/>
<feBlend mode="normal" in="SourceGraphic" in2="BackgroundImageFix" result="shape"/>
<feColorMatrix in="SourceAlpha" type="matrix" values="0 0 0 0 0 0 0 0 0 0 0 0 0 0 0 0 0 0 127 0" result="hardAlpha"/>
<feOffset dy="-3"/>
<feGaussianBlur stdDeviation="0.5"/>
<feComposite in2="hardAlpha" operator="arithmetic" k2="-1" k3="1"/>
<feColorMatrix type="matrix" values="0 0 0 0 0 0 0 0 0 0 0 0 0 0 0 0 0 0 0.4 0"/>
<feBlend mode="normal" in2="shape" result="effect1_innerShadow"/>
<feColorMatrix in="SourceAlpha" type="matrix" values="0 0 0 0 0 0 0 0 0 0 0 0 0 0 0 0 0 0 127 0" result="hardAlpha"/>
<feOffset dx="-1"/>
<feGaussianBlur stdDeviation="0.5"/>
<feComposite in2="hardAlpha" operator="arithmetic" k2="-1" k3="1"/>
<feColorMatrix type="matrix" values="0 0 0 0 1 0 0 0 0 1 0 0 0 0 1 0 0 0 0.3 0"/>
<feBlend mode="normal" in2="effect1_innerShadow" result="effect2_innerShadow"/>
<feColorMatrix in="SourceAlpha" type="matrix" values="0 0 0 0 0 0 0 0 0 0 0 0 0 0 0 0 0 0 127 0" result="hardAlpha"/>
<feOffset dx="1"/>
<feGaussianBlur stdDeviation="0.5"/>
<feComposite in2="hardAlpha" operator="arithmetic" k2="-1" k3="1"/>
<feColorMatrix type="matrix" values="0 0 0 0 1 0 0 0 0 1 0 0 0 0 1 0 0 0 0.3 0"/>
<feBlend mode="normal" in2="effect2_innerShadow" result="effect3_innerShadow"/>
</filter>
<filter id="filter1_b" x="20.2599" y="4.19043" width="48.5564" height="48.5564" filterUnits="userSpaceOnUse" color-interpolation-filters="sRGB">
<feFlood flood-opacity="0" result="BackgroundImageFix"/>
<feGaussianBlur in="BackgroundImage" stdDeviation="5"/>
<feComposite in2="SourceAlpha" operator="in" result="effect1_backgroundBlur"/>
<feBlend mode="normal" in="SourceGraphic" in2="effect1_backgroundBlur" result="shape"/>
</filter>
<filter id="filter2_b" x="-3.88098" y="4.07007" width="48.5564" height="48.5564" filterUnits="userSpaceOnUse" color-interpolation-filters="sRGB">
<feFlood flood-opacity="0" result="BackgroundImageFix"/>
<feGaussianBlur in="BackgroundImage" stdDeviation="5"/>
<feComposite in2="SourceAlpha" operator="in" result="effect1_backgroundBlur"/>
<feBlend mode="normal" in="SourceGraphic" in2="effect1_backgroundBlur" result="shape"/>
</filter>
<linearGradient id="paint0_linear" x1="43.1345" y1="-0.216259" x2="43.1345" y2="44.8827" gradientUnits="userSpaceOnUse">
<stop stop-color="white" stop-opacity="0.4"/>
<stop offset="0.833333" stop-color="white" stop-opacity="0"/>
<stop offset="1" stop-color="white" stop-opacity="0.3"/>
</linearGradient>
<radialGradient id="paint1_radial" cx="0" cy="0" r="1" gradientUnits="userSpaceOnUse" gradientTransform="translate(26.5321 5.93901) scale(25.4597 53.8389)">
<stop stop-color="white" stop-opacity="0.7"/>
<stop offset="1" stop-color="white" stop-opacity="0"/>
</radialGradient>
<linearGradient id="paint2_linear" x1="44.5381" y1="18.0162" x2="44.5381" y2="38.921" gradientUnits="userSpaceOnUse">
<stop stop-color="#A6A0BA" stop-opacity="0.15"/>
<stop offset="1" stop-color="white" stop-opacity="0.66"/>
</linearGradient>
<linearGradient id="paint3_linear" x1="10.4524" y1="0" x2="10.4524" y2="20.9047" gradientUnits="userSpaceOnUse">
<stop stop-color="#A6A0BA" stop-opacity="0.15"/>
<stop offset="1" stop-color="white" stop-opacity="0.66"/>
</linearGradient>
<clipPath id="clip0">
<rect width="34.2729" height="44.9831" fill="white" transform="translate(25.4611)"/>
</clipPath>
</defs>
</svg>
