<svg width="46" height="49" viewBox="0 0 46 49" fill="none" xmlns="http://www.w3.org/2000/svg">
<g clip-path="url(#clip0)" filter="url(#filter0_d)">
<circle cx="21.5" cy="20.5" r="20.5" fill="#E84B37"/>
<g filter="url(#filter1_d)">
<path fill-rule="evenodd" clip-rule="evenodd" d="M21.7143 9C18.5327 9 18.1344 9.01406 16.8845 9.07029C15.6381 9.12769 14.7865 9.32566 14.0414 9.615C13.2595 9.90885 12.5511 10.3698 11.9657 10.9657C11.3698 11.5511 10.9089 12.2595 10.615 13.0414C10.3257 13.7865 10.1277 14.6381 10.0703 15.8845C10.0129 17.1344 10 17.5327 10 20.7143C10 23.8959 10.0129 24.2942 10.0703 25.5441C10.1277 26.7905 10.3257 27.6421 10.615 28.3871C10.9089 29.1691 11.3698 29.8774 11.9657 30.4629C12.5511 31.0587 13.2595 31.5197 14.0414 31.8136C14.7865 32.1029 15.6381 32.3009 16.8845 32.3583C18.1344 32.4145 18.5327 32.4286 21.7143 32.4286C24.8959 32.4286 25.2942 32.4145 26.5441 32.3583C27.7905 32.3009 28.6421 32.1029 29.3871 31.8136C30.1691 31.5197 30.8775 31.0588 31.4629 30.4629C32.0588 29.8775 32.5197 29.1691 32.8136 28.3871C33.1029 27.6421 33.3009 26.7905 33.3583 25.5441C33.4145 24.2942 33.4286 23.8959 33.4286 20.7143C33.4286 17.5327 33.4145 17.1344 33.3583 15.8845C33.3009 14.6381 33.1029 13.7865 32.8136 13.0414C32.5197 12.2595 32.0588 11.5511 31.4629 10.9657C30.8775 10.3698 30.1691 9.90885 29.3871 9.615C28.6421 9.32566 27.7905 9.12769 26.5441 9.07029C25.2942 9.01406 24.8959 9 21.7143 9ZM21.7143 11.1109C24.842 11.1109 25.2122 11.1226 26.4469 11.1789C27.5902 11.2316 28.2099 11.4213 28.6234 11.5818C29.1693 11.795 29.5605 12.0492 29.9705 12.4581C30.3805 12.8681 30.6335 13.2593 30.8467 13.8052C31.0061 14.2187 31.1982 14.8384 31.2497 15.9805C31.3059 17.2164 31.3177 17.5854 31.3177 20.7143C31.3177 23.842 31.3059 24.2122 31.2497 25.4469C31.197 26.5902 31.0061 27.2099 30.8467 27.6234C30.6589 28.1322 30.3595 28.5925 29.9705 28.9705C29.5605 29.3805 29.1693 29.6335 28.6234 29.8467C28.2099 30.0061 27.5902 30.1982 26.448 30.2497C25.2133 30.3059 24.8432 30.3177 21.7143 30.3177C18.5866 30.3177 18.2152 30.3059 16.9817 30.2497C15.8384 30.197 15.2187 30.0061 14.8052 29.8467C14.2963 29.659 13.836 29.3596 13.4581 28.9705C13.069 28.5926 12.7696 28.1323 12.5818 27.6234C12.4213 27.2099 12.2304 26.5902 12.1789 25.448C12.1226 24.2122 12.1109 23.8432 12.1109 20.7143C12.1109 17.5866 12.1226 17.2164 12.1789 15.9817C12.2316 14.8384 12.4213 14.2187 12.5818 13.8052C12.795 13.2593 13.0492 12.8681 13.4581 12.4581C13.8681 12.0481 14.2593 11.795 14.8052 11.5818C15.2187 11.4213 15.8384 11.2304 16.9805 11.1789C18.2164 11.1226 18.5854 11.1109 21.7143 11.1109ZM21.7143 24.6187C20.6788 24.6187 19.6857 24.2073 18.9535 23.4751C18.2213 22.7429 17.8099 21.7498 17.8099 20.7143C17.8099 19.6788 18.2213 18.6857 18.9535 17.9535C19.6857 17.2213 20.6788 16.8099 21.7143 16.8099C22.7498 16.8099 23.7429 17.2213 24.4751 17.9535C25.2073 18.6857 25.6187 19.6788 25.6187 20.7143C25.6187 21.7498 25.2073 22.7429 24.4751 23.4751C23.7429 24.2073 22.7498 24.6187 21.7143 24.6187ZM21.7143 14.699C20.9243 14.699 20.1421 14.8546 19.4123 15.1569C18.6825 15.4592 18.0194 15.9023 17.4608 16.4608C16.9023 17.0194 16.4592 17.6825 16.1569 18.4123C15.8546 19.1421 15.699 19.9243 15.699 20.7143C15.699 21.5042 15.8546 22.2864 16.1569 23.0162C16.4592 23.746 16.9023 24.4092 17.4608 24.9677C18.0194 25.5263 18.6825 25.9694 19.4123 26.2717C20.1421 26.574 20.9243 26.7296 21.7143 26.7296C23.3096 26.7296 24.8396 26.0958 25.9677 24.9677C27.0958 23.8396 27.7296 22.3096 27.7296 20.7143C27.7296 19.1189 27.0958 17.5889 25.9677 16.4608C24.8396 15.3328 23.3096 14.699 21.7143 14.699ZM29.3731 14.4612C29.3731 14.6458 29.3367 14.8286 29.2661 14.9991C29.1954 15.1697 29.0919 15.3247 28.9614 15.4552C28.8308 15.5857 28.6759 15.6893 28.5053 15.7599C28.3348 15.8306 28.152 15.8669 27.9674 15.8669C27.7828 15.8669 27.6 15.8306 27.4294 15.7599C27.2589 15.6893 27.1039 15.5857 26.9734 15.4552C26.8428 15.3247 26.7393 15.1697 26.6687 14.9991C26.598 14.8286 26.5617 14.6458 26.5617 14.4612C26.5617 14.0884 26.7098 13.7308 26.9734 13.4672C27.237 13.2036 27.5946 13.0555 27.9674 13.0555C28.3402 13.0555 28.6977 13.2036 28.9614 13.4672C29.225 13.7308 29.3731 14.0884 29.3731 14.4612Z" fill="white"/>
</g>
</g>
<defs>
<filter id="filter0_d" x="-2.99414" y="0" width="49.2363" height="49" filterUnits="userSpaceOnUse" color-interpolation-filters="sRGB">
<feFlood flood-opacity="0" result="BackgroundImageFix"/>
<feColorMatrix in="SourceAlpha" type="matrix" values="0 0 0 0 0 0 0 0 0 0 0 0 0 0 0 0 0 0 127 0"/>
<feOffset dy="4"/>
<feGaussianBlur stdDeviation="2"/>
<feColorMatrix type="matrix" values="0 0 0 0 0.909804 0 0 0 0 0.294118 0 0 0 0 0.215686 0 0 0 0.4 0"/>
<feBlend mode="normal" in2="BackgroundImageFix" result="effect1_dropShadow"/>
<feBlend mode="normal" in="SourceGraphic" in2="effect1_dropShadow" result="shape"/>
</filter>
<filter id="filter1_d" x="6" y="9" width="31.4286" height="31.4286" filterUnits="userSpaceOnUse" color-interpolation-filters="sRGB">
<feFlood flood-opacity="0" result="BackgroundImageFix"/>
<feColorMatrix in="SourceAlpha" type="matrix" values="0 0 0 0 0 0 0 0 0 0 0 0 0 0 0 0 0 0 127 0"/>
<feOffset dy="4"/>
<feGaussianBlur stdDeviation="2"/>
<feColorMatrix type="matrix" values="0 0 0 0 0.988235 0 0 0 0 0.913725 0 0 0 0 0.901961 0 0 0 0.2 0"/>
<feBlend mode="normal" in2="BackgroundImageFix" result="effect1_dropShadow"/>
<feBlend mode="normal" in="SourceGraphic" in2="effect1_dropShadow" result="shape"/>
</filter>
<clipPath id="clip0">
<rect width="41.2363" height="41" fill="white" transform="translate(1.00586)"/>
</clipPath>
</defs>
</svg>
