<svg width="154" height="53" viewBox="0 0 154 53" fill="none" xmlns="http://www.w3.org/2000/svg">
<path d="M0 0H38.5083V43.0863C38.5083 45.7942 36.3131 47.9894 33.6052 47.9894H22.8549L19.3344 52.2991L15.6882 47.9894H6.53739C2.92689 47.9894 0 45.0625 0 41.452V0Z" fill="#E04E39"/>
<path d="M12.4202 5.20296C12.3849 5.3406 12.335 5.47341 12.2715 5.59879C12.2411 5.71708 12.1907 5.82833 12.1229 5.92697C11.9743 6.08259 11.8267 6.24273 11.678 6.39046C11.3441 6.70623 11.0499 7.00959 10.7139 7.31408V6.3431C10.7139 6.19875 10.5653 6.26303 10.4543 6.26303C10.4045 6.25714 10.354 6.26135 10.3056 6.27543V6.26303C10.2442 6.25283 10.1818 6.25283 10.1204 6.26303C9.93508 6.26303 9.86075 6.20664 9.86075 6.3758V7.36708C9.5645 7.06372 9.23267 6.74795 8.93328 6.43219C8.7612 6.28321 8.59987 6.12034 8.4507 5.94501C8.26542 5.77698 8.19109 5.46121 8.11677 5.2492C8.11023 5.56135 8.12247 5.87364 8.15341 6.18409C8.1732 6.32093 8.21055 6.45415 8.26437 6.57992C8.30101 6.71187 8.26437 6.90358 8.30101 7.05131C8.30101 7.31069 8.37533 7.55879 8.41197 7.83058C8.39997 8.07689 8.42507 8.32368 8.48629 8.56135C8.48629 8.52977 8.44966 8.49369 8.44966 8.46098C8.4863 8.98087 8.48629 9.48834 8.70926 9.95974C8.93486 10.4241 9.23627 10.8409 9.59905 11.1901C9.50672 11.1661 9.41023 11.1678 9.31867 11.195C9.22711 11.2222 9.14348 11.2741 9.07565 11.3457C9.00132 11.4134 8.89036 11.5814 8.7794 11.5498C8.69323 11.5377 8.60596 11.5377 8.51979 11.5498C8.14922 11.6423 8.0749 12.1498 7.96289 12.4847C8.11154 12.3844 8.25914 12.1814 8.44547 12.1566C8.48211 12.1487 8.59411 12.1363 8.59411 12.1926C8.59411 12.249 8.48315 12.328 8.48315 12.372C8.42303 12.4654 8.38782 12.5749 8.38136 12.6884C8.3749 12.8019 8.39744 12.9152 8.44652 13.0159C8.48316 13.0836 8.66948 13.1839 8.66948 13.2414C8.67534 13.3443 8.70064 13.4449 8.74381 13.5369C8.78771 13.7373 8.84977 13.9326 8.92909 14.1199C9.11956 14.5166 9.37044 14.8761 9.67128 15.1834C9.7456 15.2714 9.85657 15.3277 9.85657 15.4631V22.8046C9.56032 22.7245 9.11438 22.7245 8.92909 23.0448C8.81813 23.2444 8.81813 23.444 8.78045 23.6448C8.78045 23.7248 8.59516 23.8444 8.52084 23.9639C8.494 24.1525 8.50652 24.3451 8.55748 24.5278C8.55748 24.6879 8.40883 24.8469 8.40883 25.0071C8.33451 25.4063 8.51979 25.766 8.59411 26.1258C8.66844 25.8856 8.70508 25.6465 8.7794 25.4491C8.89036 25.1695 8.89036 25.5292 8.96468 25.6488C9.01349 25.7488 9.09036 25.8297 9.18435 25.8799C9.27833 25.9301 9.38462 25.9471 9.48809 25.9284C9.52473 25.9284 9.85866 25.8089 9.85866 25.9284V37.1178C9.85866 37.1979 9.67337 37.1979 9.59905 37.2779C9.4504 37.3975 9.48809 37.6377 9.63569 37.7572C9.48704 37.8768 9.4504 38.1564 9.63569 38.2771C9.74665 38.3572 9.85866 38.2771 9.85866 38.3966V38.8759L8.7459 38.1564C9.00551 39.7544 9.33944 41.3141 10.0439 42.7925C10.0806 42.832 10.1549 43.0722 10.1926 43.0722C10.3779 43.0722 10.3779 43.0722 10.4522 42.9527C10.5632 42.7531 10.6375 42.5535 10.7484 42.3527C10.9411 41.9276 11.1025 41.4868 11.231 41.0344C11.5273 40.0758 11.6759 39.1173 11.8246 38.1576L10.7118 38.8771V38.3978C10.7118 38.2782 10.8605 38.3583 10.9348 38.2782C10.9772 38.2519 11.0124 38.214 11.0369 38.1684C11.0614 38.1228 11.0742 38.071 11.0742 38.0183C11.0742 37.9656 11.0614 37.9138 11.0369 37.8682C11.0124 37.8225 10.9772 37.7847 10.9348 37.7583C10.973 37.736 11.0061 37.7046 11.0314 37.6665C11.0567 37.6284 11.0735 37.5845 11.0807 37.5383C11.0879 37.4921 11.0851 37.4447 11.0727 37.3997C11.0603 37.3548 11.0386 37.3135 11.0091 37.2791C10.9348 37.199 10.7129 37.199 10.7129 37.1189V26.1664C10.9589 26.2064 11.209 26.2064 11.455 26.1664C11.5797 26.173 11.7046 26.1597 11.8256 26.1269C11.8801 26.1038 11.9389 26.0953 11.9971 26.1021C12.0553 26.109 12.111 26.1311 12.1595 26.1664C12.9017 26.4855 13.7172 26.4461 14.4625 26.4066C14.5735 26.3671 14.5735 26.3671 14.6112 26.4461L14.7221 26.5656C14.7869 26.6436 14.862 26.7109 14.9451 26.7652C15.1681 26.8453 15.3533 26.8047 15.5732 26.8047C15.6098 26.8047 15.6475 26.7246 15.7218 26.7246C15.7585 26.7246 15.8328 26.7641 15.8705 26.7641C15.9814 26.8036 16.0558 26.8036 16.1667 26.8442C16.391 26.851 16.6144 26.8778 16.8346 26.9242C16.7236 26.8442 16.6493 26.7641 16.5383 26.684C16.8723 26.684 17.1319 26.4844 17.3915 26.2848C17.3714 26.2875 17.3511 26.2854 17.3319 26.2785C17.3127 26.2717 17.2951 26.2604 17.2805 26.2453C17.8741 26.2453 18.432 25.9262 18.9868 25.6815H18.4299C18.8748 25.5619 19.1721 25.2416 19.2087 24.7229C19.6588 25.2699 20.0455 25.874 20.3602 26.5216C19.952 26.3615 19.5437 26.8408 19.2841 27.0415C19.072 27.0265 18.8591 27.0537 18.656 27.1216C18.4533 27.1646 18.2605 27.2503 18.0886 27.3738C17.9167 27.4972 17.7691 27.656 17.6542 27.8411C17.5456 28.0291 17.4585 28.2305 17.3946 28.441C17.3761 28.4705 17.3662 28.5053 17.3662 28.5408C17.3662 28.5764 17.3761 28.6112 17.3946 28.6406C17.3598 28.66 17.3223 28.6733 17.2837 28.6801C17.2093 28.7602 17.135 28.7996 17.0607 28.8797C16.7268 29.1989 16.5781 29.5992 16.5038 30.039C16.5038 30.1586 16.4295 30.6029 16.5038 30.6784C16.5781 30.7179 16.5781 30.7179 16.5404 30.798C16.5237 30.8553 16.4986 30.9093 16.4661 30.9581C16.4295 31.0382 16.3918 31.1577 16.3551 31.2378C16.2808 31.6776 16.3918 32.0768 16.5404 32.4366C16.6147 32.6362 16.8 32.8764 16.7257 33.076C16.6897 33.2966 16.7291 33.5238 16.8367 33.7154C16.9253 33.9273 17.0512 34.1188 17.2072 34.2793C17.2439 34.3594 17.4668 34.4789 17.4668 34.559C17.442 34.68 17.4549 34.8064 17.5035 34.9187C17.6144 35.3585 18.097 35.5581 18.431 35.7578C18.3943 35.5581 18.2457 35.398 18.2823 35.1939C18.9868 35.6337 18.8758 36.6723 18.6906 37.3918C18.5912 37.817 18.4282 38.2219 18.208 38.5906L17.8761 39.194C17.8018 39.274 17.7652 39.3936 17.6532 39.3541C17.5412 39.3146 17.4679 39.3146 17.3936 39.2346C17.2135 39.1918 17.0548 39.0779 16.9487 38.9154C16.8 38.7553 16.7634 38.5162 16.6147 38.3154C16.3185 37.9162 15.7616 38.0358 15.4277 38.3549C15.279 38.5151 15.2424 38.7541 15.2424 39.0316C15.2424 39.1116 15.0937 39.071 15.0194 39.1116C14.9451 39.1116 14.8708 39.1917 14.7964 39.2312C14.4625 39.5108 14.5735 40.0702 14.6112 40.4717C14.6478 40.4322 14.6855 40.3521 14.7221 40.3115C14.6705 40.3937 14.6399 40.4892 14.6335 40.5882C14.627 40.6872 14.645 40.7863 14.6855 40.8754C14.7221 41.075 14.8708 41.3152 14.8708 41.4754C14.8341 41.7156 14.7964 41.8746 14.9451 42.1148C15.0194 42.2749 15.2413 42.3945 15.39 42.4745C15.4266 42.355 15.4643 42.1554 15.5009 41.9952C15.5751 42.0544 15.6603 42.0957 15.7506 42.1164C15.8409 42.137 15.9342 42.1364 16.0243 42.1148C16.2096 42.1148 16.3583 42.0347 16.5477 41.9952C16.9059 41.9966 17.2601 41.9146 17.5862 41.755C17.741 41.6448 17.8896 41.5247 18.0311 41.3953C18.142 41.3152 18.2907 41.1156 18.4016 41.0355C18.7418 40.8876 19.0653 40.6984 19.3658 40.4717C19.5232 40.3221 19.6718 40.162 19.8106 39.9924C19.885 39.9123 20.0336 39.5932 20.1446 39.5526C20.5151 39.4725 20.9611 39.2334 21.1087 38.7936C21.1458 38.677 21.1458 38.5504 21.1087 38.4339C21.1591 38.3444 21.2215 38.2634 21.294 38.1937C21.407 38.0023 21.5061 37.8017 21.5902 37.5937C21.606 37.528 21.6183 37.4613 21.6269 37.3941C21.6635 37.3546 21.5902 37.314 21.5902 37.2746C21.6269 37.1945 21.7012 37.0749 21.7389 36.9949C21.8126 36.7763 21.8126 36.5368 21.7389 36.3182L21.9241 36.4378C21.8503 36.2956 21.7633 36.1619 21.6645 36.0386C21.7429 36.1283 21.8299 36.2088 21.9241 36.2788C22.5522 36.8426 23.3342 37.1178 24.1497 37.2373C24.4836 37.2768 25.0771 37.1979 25.1514 37.7166C25.1881 37.9162 25.1148 38.1564 25.0771 38.356C25.0103 38.5506 24.9606 38.7515 24.9285 38.956C24.8211 39.3408 24.6583 39.705 24.4459 40.0352C24.3716 40.1153 24.3349 40.2348 24.2606 40.1954C24.17 40.1874 24.0818 40.1602 24.001 40.1153C23.9013 40.0682 23.8217 39.9825 23.778 39.8751C23.7037 39.795 23.7414 39.6755 23.7037 39.5954C23.5551 39.1962 23.0756 38.8759 22.6653 38.956C22.1084 39.0361 22.1084 39.556 22.1084 40.0747C21.8121 40.0747 21.4405 40.1942 21.4039 40.554C21.3782 40.7362 21.4179 40.9221 21.5148 41.0739C21.5892 41.234 21.5515 41.1934 21.4782 41.3141C21.448 41.3898 21.4355 41.4722 21.4416 41.5543C21.4049 41.7539 21.4782 41.914 21.5525 42.0742C21.5892 42.1543 21.7012 42.2738 21.6635 42.3539V42.6335C21.6635 43.0733 22.0717 43.2335 22.4057 43.3925C22.3314 43.2324 22.1827 42.9933 22.1827 42.7925C22.2648 42.8941 22.3657 42.9759 22.479 43.0328C22.5744 43.0944 22.6874 43.1162 22.7968 43.0942C22.9061 43.0722 23.0042 43.0078 23.0725 42.9132C23.158 42.893 23.2466 42.893 23.3321 42.9132H23.6283C23.9963 42.8587 24.3499 42.7228 24.6668 42.514C24.9943 42.3062 25.2937 42.0508 25.5566 41.755C25.7052 41.5949 25.8905 41.4754 26.0391 41.3152C26.1947 41.1608 26.3318 40.9862 26.4474 40.7953C26.5927 40.6335 26.7063 40.4417 26.7813 40.2315C26.8557 40.0713 26.8923 39.7522 27.0043 39.6676C27.3005 39.468 27.7088 39.0282 27.6722 38.629C27.6722 38.5895 27.8208 38.4688 27.8574 38.4293C27.9207 38.3454 27.9709 38.2509 28.0061 38.1497C28.0596 38.0364 28.097 37.9151 28.1171 37.7899C28.1228 37.7336 28.1098 37.6768 28.0804 37.6298C28.0438 37.6298 28.1171 37.5497 28.1171 37.5103C28.3767 37.0704 28.3023 36.5911 28.228 36.1119C28.1914 36.1513 28.1914 36.2314 28.1537 36.272C28.228 35.8728 28.1171 35.5525 28.0427 35.1928L27.9621 35.3134C27.9984 35.0542 27.9596 34.7892 27.8512 34.5545C27.8145 34.4744 27.7402 34.3943 27.7025 34.3143C27.6282 34.2342 27.5172 34.3537 27.4429 34.2342C27.4063 34.0346 27.109 33.9545 26.9195 33.9545C26.73 33.9545 26.5489 34.074 26.326 34.074C26.1101 34.1123 25.8885 34.0701 25.6979 33.9545C25.6057 33.9148 25.522 33.8553 25.4519 33.7797C25.3817 33.7041 25.3265 33.614 25.2896 33.5147C25.253 33.2745 25.2153 33.0749 25.1787 32.838C25.1043 32.4284 25.1043 32.0072 25.1787 31.5975C25.3273 31.8377 25.5869 31.9167 25.8068 32.0768C25.6958 31.4374 25.6581 30.8363 25.992 30.2781C26.326 29.7582 26.6965 29.3195 26.8085 28.6801C27.5507 29.244 28.4039 29.4391 29.2937 29.5597C29.2937 29.3601 29.2937 29.1605 29.1827 28.9959C29.6581 28.9586 30.1172 28.7938 30.5184 28.5166C30.9267 28.2764 31.2606 27.9166 31.5945 27.558H30.9665C31.9306 26.3592 32.6727 24.9642 32.7837 23.3222C32.858 22.3434 32.6728 21.36 32.3755 20.4375C32.0792 19.5353 31.6333 18.7109 31.2627 17.8561C30.4839 16.142 29.7794 14.3917 29.0738 12.6449C29.0015 12.8181 28.9146 12.9838 28.8142 13.1399C28.6536 12.4397 28.6033 11.7154 28.6656 10.9973C28.7751 10.3146 29.0016 9.65995 29.3334 9.06657C28.4437 9.09026 27.4042 9.19062 26.885 10.1255C26.9216 10.0376 26.9216 9.95748 26.9593 9.86952C26.4767 10.2732 25.9952 10.6443 25.8078 11.2882C25.7279 11.5188 25.7023 11.7672 25.7335 12.0111C25.7335 12.1351 25.8078 12.2592 25.6591 12.2908C25.5482 12.3144 25.5482 12.4509 25.5482 12.5749C25.468 13.0426 25.4431 13.5193 25.4739 13.9936C25.5247 14.2011 25.5618 14.4121 25.5848 14.6252C25.3995 14.7289 25.3995 15.0086 25.3619 15.2251C25.3246 15.4489 25.3246 15.678 25.3619 15.9018C25.3985 16.0145 25.3985 16.142 25.4728 16.2401C25.4728 16.2841 25.5471 16.3641 25.5471 16.4081C25.5471 16.4521 25.4728 16.5006 25.4728 16.5434C25.4986 16.7429 25.5616 16.9348 25.6581 17.1073C25.7253 17.291 25.8124 17.4655 25.9177 17.6272C25.992 17.7197 26.0287 17.8065 26.103 17.8866C26.0771 17.9409 26.0389 17.9875 25.992 18.0219C25.992 18.0535 26.0664 18.1459 26.0664 18.1775C26.1383 18.3871 26.2523 18.577 26.4003 18.7335C26.2893 18.6974 26.1773 18.6658 26.0664 18.6297C26.2516 18.8451 26.4003 19.1056 26.6233 19.2613H26.4003C26.8829 20.0721 27.3644 20.8954 27.8836 21.7107C28.3285 22.5216 28.8477 23.241 28.8477 24.2402C28.8477 25.1593 28.5138 26.198 27.6962 26.5983C27.6219 26.6378 27.1027 26.7979 27.1027 26.7584C27.0661 26.5182 27.0284 26.2386 26.9917 25.9995C26.915 25.5393 26.8033 25.0867 26.6578 24.6462C26.0626 22.7576 25.0577 21.0492 23.7267 19.6627C23.3928 19.3154 23.0589 18.9861 22.6883 18.6602C22.6567 18.5822 22.6441 18.4968 22.6517 18.4121C22.6124 18.3353 22.5871 18.2511 22.5774 18.164C22.4847 17.9604 22.3728 17.7677 22.2434 17.5888C22.0204 17.2257 21.6499 16.9697 21.5389 16.5299C21.428 16.1104 21.6132 15.7022 21.8729 15.3875C22.0215 15.7394 22.3963 15.9074 22.6517 16.0788C22.5407 15.5916 22.4287 15.2071 22.726 14.7684C23.0222 14.3523 23.3939 13.979 23.7278 13.6091C23.9508 13.9925 24.2104 14.0692 24.6176 14.0252C24.4689 13.6655 24.358 13.3384 24.3946 12.9426C24.4074 12.5912 24.4963 12.2478 24.6542 11.94C24.9138 12.1193 25.2111 11.9524 25.4707 11.8047C25.2854 11.5893 25.1002 11.3886 25.0258 11.0931C24.9273 10.828 24.9015 10.5379 24.9515 10.2575C25.0258 9.74209 25.0258 9.19852 24.7662 8.72713C24.7296 8.65946 24.6176 8.54782 24.6553 8.47902C24.6919 8.36625 24.7662 8.26363 24.8039 8.15085C24.8718 7.92697 24.9215 7.69719 24.9526 7.46407C24.9975 7.02014 24.9063 6.57257 24.6929 6.18973C24.5443 5.98561 24.3967 5.81757 24.2481 5.64616L24.0251 5.44204C23.8764 5.34167 23.8764 5.3101 23.7655 5.39806C23.4429 5.61929 23.1957 5.94736 23.061 6.33295C22.9867 6.09725 22.9123 5.86156 22.727 5.68112C22.6161 5.55707 22.3188 5.2616 22.1701 5.30897C21.5421 5.50068 21.2804 5.99576 21.3536 6.67127C20.8302 6.63969 20.2775 6.67127 19.796 6.95546C19.5964 7.08228 19.4193 7.24606 19.2726 7.43925C19.2333 7.52553 19.1863 7.60749 19.1323 7.68397C19.058 7.72795 18.9093 7.72006 18.8361 7.75164C18.6468 7.81975 18.4609 7.89842 18.2792 7.98733C18.1719 8.03759 18.0599 8.07539 17.9452 8.10011C17.8343 8.12379 17.7599 8.07981 17.649 8.07981C17.1664 8.07981 16.8702 8.5433 17.1256 9.00342C17.3109 9.37557 17.5338 9.7387 17.8678 9.9868C17.9421 10.0308 17.8678 10.2123 17.9044 10.315C17.9044 10.3905 17.9787 10.4593 18.0154 10.527C18.164 10.6623 18.3859 10.7627 18.5388 10.8653C18.8732 11.0715 19.2373 11.216 19.6159 11.2927C19.9122 11.3491 20.58 11.3491 20.6177 11.7878C20.6921 12.2513 19.8389 12.2073 19.5793 12.1836C19.394 12.1712 19.171 12.1396 19.0224 12.2276C18.9858 12.2513 18.9114 12.284 18.9114 12.3314C18.8371 12.399 18.8371 12.3753 18.7628 12.3629C18.6766 12.351 18.5894 12.351 18.5032 12.3629C18.3545 12.3866 17.9798 12.4554 17.9096 12.611C17.8395 12.7667 17.8353 12.7712 17.6867 12.7903C17.5954 12.8093 17.5077 12.8444 17.4271 12.8941C17.3215 12.9621 17.2223 13.0411 17.1308 13.1298C17.1308 13.1659 17.0565 13.2223 17.0565 13.2651C17.0199 13.2967 17.0931 13.4129 17.0565 13.4444C17.0199 13.476 16.7969 13.5008 16.7603 13.5245C16.6598 13.5567 16.5609 13.5944 16.464 13.6373C16.0558 13.8414 15.7595 14.2011 15.4622 14.5722C15.5732 14.5519 15.6475 14.5406 15.7585 14.5282C15.1304 14.8879 15.0906 15.6108 15.0163 16.2863C15.1649 16.151 15.2759 16.0066 15.4245 15.8826C15.3647 15.9698 15.3381 16.0783 15.3502 16.186C15.3868 16.3213 15.1649 16.5457 15.0906 16.6697C15.0271 16.7552 14.977 16.8512 14.9419 16.9539C14.8676 17.0893 14.831 17.202 14.6823 17.1456C14.2876 16.9805 13.9029 16.7884 13.5309 16.5705C12.7962 16.1391 12.1619 15.5337 11.6759 14.8C11.4163 14.4278 11.2677 13.997 11.4529 13.5448C11.6759 13.1411 12.081 12.9494 12.1574 12.4543C12.1891 12.2542 12.1492 12.0487 12.0459 11.879C11.9426 11.7094 11.7835 11.5881 11.6005 11.5397C11.491 11.5133 11.3787 11.5027 11.2666 11.5081C11.1556 11.5081 11.1923 11.6209 11.1923 11.7337C11.1622 11.8313 11.1498 11.9343 11.1556 12.037C11.1556 12.1611 11.119 12.1498 11.007 12.1848C11.0436 11.993 11.0436 11.7889 11.0813 11.5848C11.0813 11.4292 11.118 11.3931 11.007 11.3728C10.9563 11.3568 10.9027 11.3546 10.851 11.3664C10.7993 11.3782 10.7511 11.4036 10.7108 11.4405C10.7108 11.348 10.9337 11.1923 11.007 11.1247C11.118 11.0209 11.1923 10.9093 11.3032 10.7965C11.4854 10.5814 11.6471 10.3472 11.7858 10.0973C12.0454 9.57744 12.0821 9.05079 12.0821 8.46324C12.0842 8.48012 12.0819 8.4973 12.0754 8.51285C12.0689 8.52839 12.0585 8.54168 12.0454 8.5512C12.1198 8.28393 12.1198 8.01214 12.1564 7.74036C12.1564 7.49226 12.2307 7.26897 12.2674 7.00959C12.2611 6.84619 12.2734 6.68259 12.304 6.52241C12.3406 6.39836 12.3406 6.28671 12.3783 6.16266C12.409 5.84427 12.4213 5.52412 12.415 5.20409L12.4202 5.20296ZM9.04424 11.6649C9.1552 11.6649 9.41481 11.6333 9.41481 11.8442C9.37818 11.9964 9.08298 11.6919 9.04424 11.6683V11.6649ZM10.7139 17.3035C11.0342 17.7169 11.3812 18.1054 11.7523 18.4662C11.8226 18.496 11.8859 18.5422 11.9376 18.6016C11.9376 18.6331 11.901 18.7369 11.901 18.7696C11.9004 18.8897 11.9398 19.0062 12.0119 19.0978C12.0863 19.3459 12.3082 19.5139 12.4945 19.6932V19.5049C12.6432 19.9999 12.9771 20.3924 13.2733 20.7871C13.2367 20.663 13.199 20.5277 13.1624 20.4037C13.2367 20.4713 13.5706 20.7318 13.6858 20.6755C13.7601 20.6439 13.982 20.9236 14.0564 21.0036C14.4269 21.263 14.7985 21.3871 15.2078 21.5235C15.1335 21.4434 15.0969 21.3521 15.0226 21.2754C15.1278 21.3444 15.2398 21.4007 15.3565 21.4434C15.5632 21.4889 15.7754 21.4969 15.9846 21.4671C16.0589 21.4434 16.1699 21.4074 16.2808 21.3634C16.4295 21.307 16.4295 21.3318 16.5038 21.4671C16.5778 21.5836 16.665 21.6897 16.7634 21.7829C16.8377 21.8833 16.8744 21.8957 16.8 22.0084C16.6514 22.2238 16.5038 22.4077 16.3551 22.6479C15.8076 23.3732 15.0502 23.8798 14.204 24.0868C13.8334 24.1669 13.4618 24.2064 13.0912 24.247H12.5678C12.3814 24.2552 12.1947 24.2419 12.0109 24.2075C11.677 24.088 11.454 23.5681 11.3828 23.2489C11.3462 23.1689 11.3828 23.0087 11.3462 22.8892C11.3462 22.7697 11.2718 22.6896 11.2352 22.57C11.1819 22.4704 11.1058 22.387 11.0142 22.3278C10.9226 22.2686 10.8186 22.2355 10.7118 22.2317V17.3069L10.7139 17.3035ZM9.30385 23.4497C9.31414 23.4467 9.32497 23.4467 9.33526 23.4497C9.34554 23.4527 9.35492 23.4585 9.36245 23.4666C9.36998 23.4747 9.37539 23.4848 9.37815 23.4959C9.38091 23.507 9.38092 23.5187 9.37817 23.5297C9.41481 23.6899 9.26721 23.6098 9.19289 23.6098C9.09315 23.5807 8.98679 23.5949 8.89664 23.6493C8.89664 23.6098 9.15625 23.4497 9.3049 23.4497H9.30385ZM9.0076 24.3688C9.08193 24.3688 9.11857 24.3688 9.11857 24.4488C8.99047 24.4366 8.86181 24.4644 8.748 24.5289C8.77736 24.483 8.81594 24.4447 8.86088 24.417C8.90581 24.3893 8.95596 24.3728 9.0076 24.3688ZM17.5024 33.9545C17.5391 34.0346 17.6134 34.1541 17.5391 34.2342C17.5091 34.1466 17.4963 34.0533 17.5014 33.9601L17.5024 33.9545ZM15.7229 38.9098C15.9082 38.9492 15.8338 39.0293 15.8338 39.1894L15.3889 39.0699C15.4988 38.9943 15.5732 38.9143 15.7208 38.9143L15.7229 38.9098ZM22.5868 39.7533C22.5787 39.8876 22.591 40.0225 22.6234 40.1525C22.5041 40.1068 22.3793 40.0798 22.2528 40.0725C22.324 39.9134 22.435 39.7533 22.5868 39.7533ZM15.0194 39.9134H15.0498C15.1241 39.9529 14.9754 40.033 14.9754 40.033C14.899 40.063 14.8339 40.1193 14.7902 40.1931C14.831 40.1537 14.9053 39.954 15.0163 39.9134H15.0194ZM15.2424 40.9126C15.3167 40.9521 15.0937 41.1122 15.0937 41.1122C15.0937 41.1122 15.1649 40.9126 15.2392 40.9126H15.2424ZM21.9158 40.9521C21.911 40.9713 21.9017 40.9888 21.8886 41.0029C21.8756 41.017 21.8593 41.0271 21.8414 41.0322C21.8557 40.9961 21.8823 40.9674 21.9158 40.9521ZM22.0267 41.8712C22.0634 41.9513 21.9901 41.9513 21.9158 41.9513C21.9601 41.9396 21.9994 41.9117 22.0267 41.8723V41.8712Z" fill="#E04E39"/>
<path d="M29.1123 9.23122C28.4078 10.4977 28.3335 11.9378 28.7784 13.5268C28.8894 13.3474 28.9637 13.167 29.0746 12.9832C29.9644 15.1856 30.8542 17.387 31.8937 19.5849C33.3037 22.7697 32.6725 25.4491 30.67 27.7249H31.2635C30.9617 28.0819 30.5955 28.3689 30.1873 28.5685C29.7792 28.768 29.3375 28.8758 28.8894 28.8853C29.0746 29.085 29.149 29.2451 29.149 29.4052C28.2654 29.34 27.4168 29.0078 26.7005 28.4467C26.6262 29.1233 26.3299 29.606 25.996 30.0447C25.8105 30.2856 25.6801 30.5701 25.6152 30.8753C25.5503 31.1804 25.5527 31.4977 25.6223 31.8017C25.3769 31.6705 25.189 31.441 25.0989 31.1622C24.9147 31.9958 24.9532 32.8684 25.2098 33.6793C25.6181 34.2793 26.0996 34.2793 26.6199 34.1992C26.8429 34.0391 27.1025 34.0797 27.3244 34.2387C27.3992 34.5015 27.4611 34.7684 27.5097 35.0383C27.5892 34.8635 27.6153 34.6661 27.584 34.4744C27.9922 34.9142 27.8436 35.513 27.584 36.2325C27.7574 36.0654 27.8965 35.8611 27.9922 35.6326C28.1409 36.2325 27.8813 36.7919 27.5097 37.2712C27.8436 37.2317 28.0666 36.9915 28.1378 36.5517C28.2121 37.1516 28.0268 37.6309 27.4333 37.9907C27.6184 37.9627 27.7964 37.8948 27.9567 37.7911C27.8823 38.1508 27.7337 38.55 27.1401 38.7496C27.1951 38.7889 27.2595 38.8099 27.3254 38.8099C27.3913 38.8099 27.4558 38.7889 27.5107 38.7496C27.4364 39.0293 27.2511 39.3135 26.8428 39.5887C26.6418 40.4077 26.1707 41.1197 25.5176 41.5915C24.8131 42.3505 24.0343 42.9098 23.0325 42.7508C22.8095 43.07 22.4756 42.991 22.216 42.5907C21.9564 42.6708 22.0307 42.8704 22.1416 43.1106C21.6591 42.9504 21.6591 42.152 22.1783 42.0313C22.2526 41.5114 21.8077 41.7122 21.7334 42.1509C21.4371 41.587 21.5481 41.2318 22.0673 41.1122C22.1783 40.7525 21.7711 40.6724 21.6591 41.0728C21.1765 40.2732 22.0673 39.9935 22.8106 40.4333C22.7362 40.1142 22.6996 39.8334 22.7739 39.6744C22.4777 39.5943 22.329 39.7138 22.2505 39.8345C22.1762 39.115 22.7331 38.9154 23.2889 39.3146C23.3897 39.3827 23.473 39.4769 23.5314 39.5886C23.5897 39.7003 23.6212 39.8259 23.6229 39.954C23.7102 40.0801 23.8219 40.1842 23.9502 40.2591C24.0785 40.3341 24.2204 40.3781 24.3661 40.3882C24.8895 39.7488 25.0706 38.9492 25.2559 38.1508C25.4412 37.3918 25.0706 37.1516 24.4394 37.1122C22.9927 37.0321 21.9543 36.3532 21.2121 35.274C21.2017 35.3885 21.2128 35.5041 21.2446 35.6139C21.2764 35.7237 21.3284 35.8256 21.3974 35.9134C20.5809 35.3495 20.2846 34.8341 20.7693 34.3549C20.584 34.1552 20.5097 33.9556 20.5463 33.7154C20.4202 33.9437 20.3805 34.2154 20.4354 34.4744C20.1391 34.0752 20.1014 33.7154 20.2501 33.3557C20.1014 33.3952 20.0271 33.5553 19.9538 33.6748C19.9172 33.1955 19.9905 32.7557 20.3244 32.5155C20.3244 32.2753 20.361 32.0362 20.361 31.7566C20.0648 31.8761 19.9528 32.1964 19.9161 32.5561C19.5456 31.8366 19.8418 31.4769 20.361 30.9976C20.1381 30.9976 19.9528 31.1171 19.8041 31.3968C19.9151 30.5972 20.2867 30.0785 20.7316 29.6387C20.5463 29.6387 20.3233 29.7988 20.1381 30.0379C20.1747 29.4379 20.4343 28.9992 21.0655 28.9192C20.9134 28.848 20.7434 28.8341 20.5829 28.8797C20.7656 28.6237 20.9946 28.4102 21.256 28.2522C21.5174 28.0942 21.8059 27.995 22.104 27.9606C21.881 27.8005 21.6214 27.8411 21.3618 28.0407C21.5847 27.6009 21.8443 27.161 22.7341 27.364C22.6442 27.2791 22.534 27.223 22.416 27.2019C22.298 27.1807 22.1769 27.1955 22.0663 27.2445C22.5112 26.8848 22.9937 26.8848 23.513 26.8848C22.8451 26.6851 22.1772 26.4855 21.2875 27.6843C21.2508 28.0035 21.1388 28.2042 20.9535 28.3237C20.7306 26.6457 20.0637 25.4864 19.2106 24.5278C19.3434 24.4537 19.4797 24.3871 19.6188 24.3282C19.8785 24.4883 20.0637 24.3677 20.3233 24.2086C20.7682 24.009 20.9514 23.7688 20.9514 23.4891C21.434 23.3696 21.6193 23.1294 21.7303 22.8125C22.3238 22.3614 22.3238 21.8776 22.1008 21.3983C22.0265 21.8054 21.8412 22.1054 21.5439 22.2498C21.6629 22.2392 21.7772 22.1948 21.875 22.1211C21.9729 22.0474 22.0508 21.947 22.1008 21.8303C22.1008 22.4934 21.6559 22.773 20.9493 22.9332C21.0386 22.989 21.1387 23.0217 21.2418 23.0285C21.3448 23.0354 21.4479 23.0163 21.5429 22.9726C21.3612 23.1825 21.1336 23.3401 20.8809 23.4309C20.6282 23.5217 20.3584 23.5429 20.0962 23.4925C20.2448 23.6921 20.4301 23.8117 20.7243 23.6921C20.4647 23.9323 20.1674 24.0914 19.8711 23.8523C19.8711 23.9718 19.9821 24.0925 20.1307 24.1714C19.6073 24.132 19.2776 24.0519 19.0923 23.8523C19.1646 24.031 19.297 24.1737 19.4629 24.2515C19.1289 24.2515 18.8348 24.2515 18.5731 24.0519C18.6097 24.212 18.7217 24.2921 18.9437 24.371C18.702 24.5863 18.4411 24.7752 18.1648 24.9349C18.4611 25.095 18.7584 24.9349 19.0923 24.6158C19.0923 25.5743 18.3135 25.6544 17.5347 25.5743C17.7624 25.7494 18.0337 25.8468 18.3135 25.854C17.7199 26.1337 17.0898 26.2938 16.3842 25.854C16.3842 26.1732 16.6072 26.3333 17.0521 26.3739C16.6815 26.6536 16.2733 26.6141 15.9006 26.2544C15.9372 26.4145 16.0859 26.5735 16.3088 26.7336C15.8798 26.7135 15.4715 26.5291 15.1574 26.2137C15.194 26.3739 15.306 26.4934 15.5279 26.693C15.1574 26.693 14.7857 26.6536 14.6748 26.2532C13.7107 26.3333 12.7832 26.3728 12.0044 25.9341C11.2622 26.1337 10.5211 26.1337 9.77886 25.7345C9.29664 25.8946 9.03703 25.7348 9.00004 25.2552C8.70379 25.0556 8.66611 25.3352 8.59179 25.5743C8.36882 24.8548 8.70275 24.4951 9.21987 24.6552C9.33083 24.0914 8.81162 24.1759 8.66297 24.415C8.51432 23.8951 8.9969 23.576 9.36747 23.8511C9.77572 23.4113 9.29315 23.1745 8.95922 23.4113C8.99585 22.7719 9.81236 22.7719 10.2949 23.4113C10.4802 23.2918 10.5179 23.1711 10.4802 22.9715C10.4059 22.6918 10.2573 22.6524 10.1097 22.6524C10.3326 22.2013 11.2611 22.1889 11.2224 23.2523C11.3203 23.7065 11.5714 24.1052 11.9269 24.371C12.6332 24.451 13.3468 24.4107 14.0415 24.2515C15.5991 23.9718 16.3779 22.9332 17.0458 21.8539C17.2965 21.5343 17.5076 21.181 17.6739 20.8029C17.9655 20.7426 18.2431 20.6203 18.4904 20.4431C18.8986 20.1996 19.2326 19.8793 19.4179 19.4079C20.0857 19.2117 20.271 18.6331 20.3453 17.9734C20.6793 17.4817 20.6049 17.0498 20.16 16.6743C20.3453 17.0126 20.4563 17.3577 20.3453 17.7332C20.271 17.5077 20.16 17.4016 20.0491 17.4141C20.2721 17.8415 20.16 18.2373 20.0124 18.6286C20.0109 18.5272 19.9904 18.4272 19.9521 18.3345C19.9138 18.2419 19.8585 18.1586 19.7895 18.0896C19.8795 18.2637 19.915 18.4645 19.8909 18.6621C19.8668 18.8597 19.7842 19.0437 19.6555 19.1868C19.673 19.0504 19.6621 18.9115 19.6236 18.7802C19.585 18.6489 19.5197 18.5286 19.4325 18.4279C19.5068 19.2827 19.1729 19.7744 18.6903 20.1657C18.76 20.0253 18.7994 19.8698 18.8058 19.7107C18.8121 19.5516 18.7852 19.393 18.727 19.2466C18.5783 20.0902 18.3187 20.7251 17.5032 20.5999C17.6885 20.3958 17.8372 20.1883 17.8372 19.9842C17.6142 20.2041 17.3546 20.4352 16.9474 20.4195C16.9827 20.5184 17.0431 20.6046 17.1218 20.6683C17.2005 20.7319 17.2942 20.7704 17.3923 20.7792C17.3142 21.155 17.176 21.5133 16.984 21.8381C16.3559 21.1232 15.9456 20.3958 15.9456 19.6447C15.7226 19.877 15.7226 20.2165 15.8346 20.5999C15.1301 19.9684 15.2777 19.3368 15.6494 18.7053C15.3897 18.8248 15.2045 19.0775 15.0558 19.4643C14.9449 18.4493 15.2045 17.8054 15.7237 17.3701C15.4274 17.3622 15.1668 17.5257 14.9815 17.8697C15.0181 17.3498 15.1301 16.919 15.6494 16.7904C15.5293 16.7905 15.4108 16.8192 15.3022 16.8744C15.1936 16.9295 15.0977 17.0098 15.0213 17.1096C15.2442 16.7058 15.4295 16.2074 15.9111 16.1702C15.7258 15.8984 15.6148 16.0348 15.5028 16.0901C15.6514 15.6548 15.9477 15.4822 16.3193 15.4349C15.9111 15.339 15.5405 15.5477 15.2066 15.9142C15.2809 14.7549 15.9487 14.4199 16.9128 14.456C16.5531 14.3342 16.1716 14.3068 15.8001 14.3759C16.357 13.6688 17.1358 13.4929 17.989 13.5572C17.8403 13.2099 17.5064 13.2775 17.2101 13.3215C17.4331 12.9618 17.8037 12.7982 18.3972 13.0621C18.3972 12.8625 18.2863 12.743 18.0267 12.7024C18.3972 12.4701 18.8055 12.4103 19.2504 12.7227C19.287 12.6223 19.2504 12.5231 18.9908 12.4227C19.2137 12.1746 19.9182 12.5186 20.4741 12.2434C21.0676 11.9592 20.7703 11.2927 19.9507 11.2081C19.3226 11.1202 18.7636 10.9048 18.3553 10.5484C17.9848 10.3962 17.9471 10.1966 18.0957 9.96876C17.7821 9.75819 17.5259 9.46164 17.3536 9.10942C16.9087 8.56586 17.3536 8.07078 17.8361 8.27377C18.3187 8.25799 18.7259 7.82268 19.2085 7.83396C19.6168 6.99493 20.4322 6.71863 21.545 6.83479C21.3597 5.95967 21.6559 5.59428 22.173 5.46008C22.7666 5.70029 23.0628 6.28333 23.0262 7.21483C23.1005 6.35212 23.3968 5.78036 23.8793 5.50068C24.9555 6.37242 25.0664 7.39865 24.4729 8.53428C24.8435 8.9335 24.9178 9.52556 24.8435 10.2484C24.7325 11.0074 24.9544 11.4314 25.2517 11.763C25.0287 11.8825 24.8068 11.9592 24.5838 11.7032C24.2499 12.434 24.1013 13.1693 24.4352 13.8967C24.1389 13.9451 23.9118 13.7365 23.7307 13.361C23.3968 13.7568 23.0628 14.156 22.7289 14.5564C22.395 14.9567 22.3207 15.3672 22.4327 15.7709C22.0621 15.5555 21.9878 15.3356 21.9501 15.1157C21.2822 15.7924 21.1336 16.469 21.7271 17.1456C22.1354 17.5618 22.4693 18.0602 22.5803 18.7403C24.9879 20.8942 26.5864 23.5636 26.9946 26.9208C28.7742 26.9208 29.5174 24.4037 28.6266 22.6851C27.9587 21.5867 27.2909 20.5029 26.6607 19.4146C26.8847 19.4226 27.1088 19.4025 27.3286 19.3549C26.958 19.3154 26.6607 19.1665 26.4754 18.9151C26.6607 18.9748 26.846 19.0154 27.0323 18.9151C26.5089 18.7955 26.3278 18.4437 26.1792 18.0557C26.4021 18.3038 26.6618 18.4516 26.9214 18.3749C26.1049 17.9035 25.8086 17.2471 25.6233 16.5604C25.8522 16.8165 26.1311 17.0145 26.4398 17.14C25.3271 16.3562 25.3637 15.5691 25.5867 14.7864C25.6976 15.3097 25.9206 15.8014 26.4765 16.1611C25.5867 14.9781 25.4747 13.723 25.6976 12.4329C25.8102 12.9904 26.0676 13.502 26.4398 13.9079C25.4014 11.7652 25.9164 10.9262 26.6994 10.2789C26.5961 10.5876 26.5559 10.9167 26.5815 11.2437C26.6072 11.5707 26.6981 11.8878 26.8481 12.1735C26.4775 10.0872 27.3715 9.23235 29.1113 9.21994L29.1123 9.23122Z" fill="#FDFDFD"/>
<path d="M16.2382 21.2333C15.4594 20.895 15.1255 20.3063 15.0145 19.5789C14.8509 19.1753 14.812 18.7258 14.9036 18.2967C14.7805 17.9969 14.7419 17.6647 14.7926 17.3415C13.1638 16.7381 12.0845 15.8021 11.3842 14.6406C11.1246 14.1455 11.1612 13.6775 11.4952 13.2422C12.4593 12.4347 11.9777 11.6442 11.3099 11.6633C11.3162 11.8668 11.3039 12.0704 11.2732 12.2712C11.1246 12.3152 11.0136 12.3637 10.865 12.411C10.9081 12.1173 10.933 11.8208 10.9393 11.5235C10.8283 11.4874 10.754 11.5878 10.6797 11.8269V17.0223C11.0861 17.5975 11.5601 18.1134 12.0897 18.5572C12.0154 18.8165 12.0531 19.085 12.3493 19.3725C12.3442 19.2808 12.3622 19.1892 12.4014 19.1076C12.4407 19.026 12.4997 18.9574 12.5723 18.909C12.5357 19.2925 12.6466 19.6984 12.9806 20.1439C12.9062 19.9116 12.9439 19.7244 13.0915 19.58C12.9806 19.9838 13.1282 20.3108 13.6484 20.5352C13.4255 20.224 13.3522 19.9161 13.4255 19.6037C13.5741 20.3435 13.9489 20.9468 14.7978 21.2344C14.5749 20.9311 14.4273 20.6266 14.4273 20.3232C14.8721 21.2254 15.4657 21.5344 16.2445 21.2344L16.2382 21.2333Z" fill="#FDFDFD"/>
<path d="M9.97145 15.2798V11.8225C9.78616 11.2427 9.37791 11.2066 9.08166 11.5225C9.45223 11.5101 9.60506 11.6544 9.52655 11.9466C9.49046 11.9906 9.44243 12.0213 9.38925 12.0342C9.33608 12.0472 9.28047 12.0418 9.23031 12.0188C8.78542 11.5349 8.37716 11.6229 8.22852 12.0989C8.37716 11.9861 8.82205 11.9274 8.75192 12.3245C8.52895 12.3482 8.38135 12.9764 8.78856 13.1141C8.86288 13.8371 9.23345 14.5567 9.97563 15.2764L9.97145 15.2798Z" fill="#FDFDFD"/>
<path d="M19.3933 27.2044C20.4694 25.9256 20.84 27.5642 20.729 28.3637C20.3584 28.843 19.9125 29.717 19.9125 30.2414C19.6162 31.0004 19.6162 31.7999 19.7272 32.5589C19.7272 33.2356 19.6529 33.9122 20.3207 34.5573C20.3207 35.1211 20.5804 35.6365 21.1373 36.0763C21.3225 36.0763 21.3602 36.3955 21.2482 36.753C21.4712 36.6729 21.5078 36.3537 21.5445 36.153C21.7674 36.7169 21.6931 37.2717 20.9164 37.6315C21.176 37.7115 21.3246 37.5514 21.4733 37.3912C21.3623 37.8311 21.177 38.2303 20.5458 38.7445C20.8054 38.7445 20.9164 38.6645 20.9907 38.5449C20.9541 38.9847 20.6945 39.3039 19.9889 39.4246C19.655 40.1012 19.0614 40.5839 18.2826 40.9436C17.8 41.5075 17.2065 41.9022 16.3533 41.8627C16.0194 42.0623 15.6855 42.0229 15.4259 41.7432C15.3892 41.9428 15.3516 42.1029 15.3149 42.2631C14.6868 41.9033 14.981 41.3045 15.3892 41.0643C15.3892 40.585 14.981 40.7451 14.9443 41.1838C14.6847 40.7045 14.6847 40.2647 15.2406 40.0651C15.204 39.6659 14.9067 39.7054 14.7172 40.0651C14.5685 39.146 15.2741 38.9859 16.0896 39.5012C15.8666 39.261 16.0896 38.9013 15.9043 38.8246C15.8198 38.7789 15.7245 38.7621 15.6309 38.7764C15.5374 38.7907 15.4501 38.8355 15.3809 38.9047C15.3065 38.228 16.457 37.7454 16.7532 38.9441C17.0044 39.2738 17.3625 39.4882 17.755 39.5441C18.3119 38.7851 18.7935 37.9856 18.9421 36.8263C19.0164 36.0267 18.9055 35.3478 18.1999 34.988C18.1256 35.0681 18.1256 35.3478 18.1633 35.4279C17.7184 35.1877 17.3845 34.7884 17.7184 34.2291C17.6817 33.9494 17.6074 33.7092 17.3845 33.7092C17.3469 33.9071 17.3469 34.1112 17.3845 34.3092C16.7909 33.6697 16.7166 33.1104 17.0505 32.7506C17.0505 32.1868 17.0139 31.871 16.8652 31.9917C16.8043 32.2109 16.7792 32.4398 16.7909 32.6683C16.457 31.9488 16.1974 31.2699 16.9762 30.5098C17.0259 30.4508 17.0563 30.3759 17.0629 30.2965C17.0695 30.2172 17.0519 30.1376 17.0128 30.07C16.8276 30.1501 16.7166 30.3892 16.6046 30.5899C16.6046 29.8704 16.7532 28.9919 17.7173 28.6727C17.9403 28.5532 18.0879 28.4325 18.1622 28.2329C17.9234 28.2454 17.6923 28.3285 17.4944 28.4731C17.754 27.7536 18.1622 27.1548 19.3859 27.1943L19.3933 27.2044Z" fill="#FDFDFD"/>
<path d="M25.1413 29.1627C25.1777 29.4574 25.1118 29.7563 24.956 30.0018C25.2287 29.8953 25.4627 29.6977 25.6238 29.4379C25.7725 29.1187 25.7725 28.6789 25.5495 28.0395L25.6982 27.9594C25.7725 28.2391 25.8468 28.4793 25.8834 28.6789C25.997 28.4295 26.0601 28.157 26.0687 27.8794C26.0562 27.4676 25.9409 27.0671 25.7348 26.72L25.8834 26.6005C26.0018 26.8256 26.0892 27.0679 26.143 27.32C26.2438 27.1523 26.2956 26.9559 26.2917 26.7561C26.2376 26.4941 26.0913 26.2648 25.8834 26.1167L25.9944 25.9566C26.1517 26.0986 26.2782 26.2761 26.365 26.4765C26.3914 26.3025 26.3788 26.1242 26.3283 25.9566C26.254 25.7164 26.0687 25.4773 25.7348 25.2799L25.8091 25.1198C25.9386 25.2035 26.0624 25.297 26.1797 25.3995C26.1431 25.2799 26.1054 25.1198 26.0687 25.0003C26.0029 24.8872 25.9162 24.7899 25.8141 24.7143C25.7121 24.6386 25.5967 24.5863 25.4752 24.5604L25.516 24.4071C25.6585 24.4277 25.794 24.486 25.9105 24.5767C26.0271 24.6674 26.121 24.7877 26.1839 24.927C26.3132 25.1572 26.3896 25.4174 26.4068 25.6859H26.3702L26.4812 25.9261C26.5921 26.2453 26.5555 26.5655 26.4812 26.9253H26.4445C26.4445 27.1249 26.3336 27.3651 26.2216 27.5647V27.8839C26.2247 28.2736 26.1072 28.6533 25.8876 28.9631C25.9021 29.1641 25.8493 29.3641 25.739 29.527C25.5537 29.8867 25.1821 30.1269 24.7749 30.3265L24.4692 30.4416L24.6545 30.1619C24.9141 29.8424 25.0254 29.5228 24.9884 29.2033L25.1371 29.1638L25.1413 29.1627ZM23.8055 5.87277C24.0138 6.16938 24.1499 6.51733 24.2016 6.88501C24.2534 7.2527 24.2191 7.62848 24.1018 7.97825C23.8791 7.64571 23.5692 7.39242 23.212 7.25086C23.212 6.63512 23.3606 6.15583 23.8055 5.87164V5.87277ZM21.6543 6.84375C22.0072 6.83393 22.3588 6.89198 22.6928 7.01517C22.7009 6.76222 22.6509 6.51103 22.5474 6.28383C22.4439 6.05664 22.2899 5.86045 22.0992 5.71263C21.7653 5.92014 21.6543 6.33627 21.6543 6.84375ZM21.7653 11.9682C21.6217 12.0666 21.4525 12.1128 21.2827 12.1001C21.4099 12.2126 21.5643 12.2834 21.7276 12.3042C21.9506 12.3042 22.1725 12.1915 22.3955 11.8689L22.4698 11.9332C22.3967 12.0467 22.3093 12.1488 22.2102 12.2366C22.3533 12.2402 22.4946 12.2012 22.6185 12.1238C22.8192 12.0031 22.9859 11.8262 23.101 11.6118L23.1754 11.6682C23.111 11.8026 23.0228 11.9221 22.9157 12.02C22.9797 12.0259 23.0441 12.018 23.1052 11.9967C23.1663 11.9755 23.2228 11.9413 23.2716 11.8963C23.3203 11.8513 23.3602 11.7963 23.389 11.7344C23.4177 11.6726 23.4348 11.6052 23.4391 11.5362L23.5501 11.5565C23.5119 11.6801 23.4621 11.7991 23.4015 11.9118C23.4808 11.864 23.5555 11.8077 23.6244 11.7438C23.6868 11.6748 23.7354 11.5927 23.7673 11.5028C23.7992 11.4128 23.8136 11.3167 23.8097 11.2205H23.884C23.8917 11.3181 23.8792 11.4163 23.8474 11.5081C23.9128 11.4496 23.9747 11.3867 24.0327 11.3197C24.0853 11.1819 24.0981 11.0302 24.0693 10.8844L24.1437 10.8607C24.1761 10.9436 24.1897 11.0336 24.1834 11.1232C24.177 11.2129 24.1508 11.2996 24.107 11.3761C24.021 11.5098 23.9065 11.6192 23.7731 11.6953V11.6874C23.7691 11.7124 23.7605 11.7363 23.7478 11.7576C23.735 11.7789 23.7183 11.7972 23.6988 11.8114C23.5662 11.9526 23.3967 12.0466 23.213 12.0809V12.0685C23.0827 12.1203 22.9425 12.137 22.8048 12.117C22.7696 12.1514 22.7326 12.1834 22.6938 12.2129C22.499 12.3151 22.2808 12.3543 22.0657 12.3257C21.9616 12.3792 21.8471 12.4051 21.7318 12.4012C21.4921 12.3714 21.2697 12.2516 21.1037 12.0629L20.9551 11.9276L21.1404 11.9761C21.2341 12.0048 21.3325 12.0111 21.4287 11.9946C21.5249 11.978 21.6165 11.939 21.6973 11.8802L21.7716 11.9682H21.7653ZM29.2217 26.8847C29.1364 27.1755 28.9484 27.4185 28.6983 27.5613C29.0322 27.5613 29.2918 27.5219 29.5148 27.3617C29.8111 27.1621 29.9974 26.7618 30.0382 26.0829H30.2266C30.2029 26.3281 30.153 26.5695 30.078 26.8024C30.298 26.6549 30.4784 26.4481 30.6014 26.2024C30.7618 25.8132 30.8256 25.3857 30.7867 24.9619H30.972C30.9803 25.2156 30.9681 25.4695 30.9353 25.7209C31.0747 25.6186 31.1893 25.4816 31.2693 25.3217C31.3108 25.1904 31.3256 25.0511 31.3128 24.9132C31.3 24.7752 31.2598 24.6419 31.1949 24.5221L31.3436 24.442C31.4455 24.636 31.4846 24.8609 31.4545 25.0815C31.5534 24.9414 31.6172 24.7764 31.6398 24.6022C31.6765 24.3225 31.6032 24.0383 31.4169 23.7225L31.5278 23.603C31.6228 23.7363 31.698 23.8847 31.7508 24.0428C31.7932 23.9143 31.8183 23.7798 31.8251 23.6436C31.7976 23.3805 31.6782 23.1386 31.4912 22.967L31.6021 22.8068C31.8618 23.0865 31.9727 23.3707 31.9727 23.6064C31.9591 23.8792 31.9091 24.1485 31.8241 24.4059V24.3665C31.833 24.4615 31.8204 24.5575 31.7874 24.6461C31.7508 24.9653 31.6021 25.2461 31.3425 25.5258C31.2165 25.7117 31.0511 25.8625 30.86 25.9656C30.8298 26.0618 30.7927 26.1553 30.749 26.2453C30.5905 26.616 30.3143 26.9135 29.9702 27.0843C29.8879 27.2659 29.7594 27.4184 29.5996 27.5241C29.3034 27.7237 28.8574 27.7643 28.4125 27.7237L28.0786 27.6843L28.3748 27.5241C28.5399 27.4797 28.6914 27.3902 28.8149 27.2641C28.9383 27.1381 29.0294 26.9798 29.0793 26.8046L29.228 26.8847H29.2217Z" fill="#FDFDFD"/>
<path d="M10.6014 26.1257V37.3151H10.7867C10.8253 37.3178 10.8617 37.3355 10.8891 37.365C10.9164 37.3944 10.9329 37.4336 10.9354 37.4752C10.9398 37.5229 10.9267 37.5705 10.8989 37.6078C10.8711 37.6451 10.8308 37.6692 10.7867 37.6749H10.6014V37.8745H10.7867C10.8067 37.8724 10.8269 37.8751 10.8458 37.8824C10.8647 37.8897 10.8819 37.9014 10.8961 37.9167C10.9103 37.932 10.9212 37.9505 10.928 37.9709C10.9348 37.9913 10.9373 38.0131 10.9354 38.0346C10.9329 38.0762 10.9164 38.1154 10.8891 38.1449C10.8617 38.1744 10.8253 38.1921 10.7867 38.1947H10.6014V39.1138C10.972 38.8736 11.6399 38.4744 11.6399 38.4744C11.4169 39.9529 11.083 41.4313 10.3041 42.9098H10.2675C9.48866 41.4313 9.15473 39.9529 8.93176 38.4744C8.93176 38.4744 9.59963 38.8736 10.0079 39.1138V38.1947H9.8226C9.7784 38.1995 9.73423 38.1854 9.69958 38.1555C9.66493 38.1255 9.64257 38.0821 9.63731 38.0346C9.63731 37.9151 9.71163 37.8745 9.8226 37.8745H10.0079V37.6749H9.8226C9.79787 37.6765 9.77309 37.6725 9.74992 37.663C9.72675 37.6536 9.7057 37.6389 9.68818 37.6201C9.67066 37.6012 9.65706 37.5785 9.64829 37.5535C9.63952 37.5286 9.63578 37.5019 9.63731 37.4752C9.64257 37.4277 9.66493 37.3843 9.69958 37.3544C9.73423 37.3244 9.7784 37.3103 9.8226 37.3151H10.0079V25.925C10.1961 26.021 10.3959 26.0881 10.6014 26.1246V26.1257ZM10.6757 8.38651C11.9319 7.34787 12.2334 6.62048 12.2711 5.98895C12.2711 6.00474 11.084 7.20352 10.6757 7.55199V8.38764V8.38651ZM10.6757 11.2476C11.6775 10.3082 11.8995 9.63265 11.9319 9.03721C11.9319 9.053 11.1531 9.92812 10.6757 10.3995V11.2464V11.2476ZM10.6757 10.3048C11.7142 9.32929 11.9738 8.6425 12.0115 8.03466C12.0115 8.04706 11.1217 9.01015 10.6757 9.45786V10.3048ZM10.6757 9.32929C11.8272 8.32223 12.0858 7.61514 12.1224 6.9915C12.1224 7.00729 11.1206 8.08202 10.6757 8.49026V9.32929ZM9.85924 8.38651C8.60307 7.34787 8.30159 6.62048 8.30159 5.98895C8.26495 6.00474 9.48867 7.20352 9.85924 7.55199V8.38764V8.38651ZM9.85924 11.2476C8.89513 10.3082 8.63552 9.63265 8.60307 9.03721C8.60307 9.053 9.41958 9.92812 9.85924 10.3995V11.2464V11.2476ZM9.85924 10.3048C8.8208 9.32929 8.56119 8.6425 8.56119 8.03466C8.52455 8.04706 9.41434 9.01015 9.85924 9.45786V10.3048ZM9.85924 9.32929C8.70775 8.32223 8.44919 7.61514 8.41255 6.9915C8.41255 7.00729 9.45098 8.08202 9.85924 8.49026V9.32929ZM10.0079 6.41636H10.1565V6.65206H10.4528V6.41636H10.6014V22.2046C10.5003 22.2071 10.4003 22.2273 10.3052 22.2644C10.1894 22.3067 10.0869 22.3828 10.0089 22.4843V6.41636H10.0079Z" fill="#FDFDFD"/>
<path d="M10.8627 39.2336C11.1265 39.1104 11.3565 38.9162 11.5305 38.6696C11.3384 40.0137 10.9634 41.3201 10.4178 42.5464C10.7952 41.4269 11.0926 40.2779 11.3075 39.1095C11.17 39.1864 11.0176 39.2273 10.8627 39.229V39.2336ZM10.1581 38.3943C10.0281 39.4557 10.0281 40.5308 10.1581 41.5922C10.1021 40.5271 10.1018 39.4595 10.1571 38.3943H10.1581ZM9.74989 39.1941C9.49506 39.0552 9.26812 38.8635 9.08203 38.6301C9.27402 39.9609 9.64906 41.2535 10.1948 42.4652C9.79566 41.3533 9.49767 40.2022 9.305 39.0283C9.44726 39.0994 9.5965 39.1532 9.74989 39.1884V39.1941Z" fill="#FDFDFD"/>
<path d="M20.691 7.99029C20.8051 7.99029 20.9146 8.03914 20.9953 8.12608C21.0759 8.21302 21.1213 8.33093 21.1213 8.45389C21.1213 8.57684 21.0759 8.69476 20.9953 8.7817C20.9146 8.86864 20.8051 8.91748 20.691 8.91748C20.6401 8.92052 20.5891 8.91268 20.5409 8.8944C20.4928 8.87613 20.4485 8.84778 20.4105 8.81099C20.3726 8.77419 20.3418 8.72968 20.3198 8.68002C20.2979 8.63035 20.2853 8.5765 20.2828 8.52157C20.263 8.47349 20.238 8.42806 20.2085 8.38621C20.0975 8.30274 19.8745 8.27341 19.8379 8.24634C20.0609 8.22265 20.2085 8.23393 20.4314 8.09068C20.4314 8.08279 20.4314 8.07038 20.4681 8.0591C20.5358 8.01649 20.6126 7.99319 20.691 7.99142V7.99029Z" fill="#E04E39"/>
<path d="M20.692 8.04248C20.7425 8.03837 20.7931 8.04552 20.8409 8.0635C20.8887 8.08148 20.9325 8.10988 20.9696 8.14695C21.0067 8.18401 21.0362 8.22892 21.0565 8.27888C21.0767 8.32884 21.0872 8.38276 21.0872 8.43727C21.0872 8.49178 21.0767 8.5457 21.0565 8.59566C21.0362 8.64562 21.0067 8.69053 20.9696 8.7276C20.9325 8.76466 20.8887 8.79307 20.8409 8.81104C20.7931 8.82902 20.7425 8.83617 20.692 8.83206C20.6416 8.83617 20.5909 8.82902 20.5431 8.81104C20.4954 8.79307 20.4516 8.76466 20.4145 8.7276C20.3774 8.69053 20.3478 8.64562 20.3276 8.59566C20.3073 8.5457 20.2969 8.49178 20.2969 8.43727C20.2969 8.38276 20.3073 8.32884 20.3276 8.27888C20.3478 8.22892 20.3774 8.18401 20.4145 8.14695C20.4516 8.10988 20.4954 8.08148 20.5431 8.0635C20.5909 8.04552 20.6416 8.03837 20.692 8.04248Z" fill="#FDFDFD"/>
<path d="M21.5381 8.67412C21.2042 8.3143 21.1299 7.93078 20.3144 7.96237C20.1381 7.98354 19.9633 8.01708 19.791 8.06276C19.9194 8.02351 20.0436 7.96982 20.1616 7.90258C20.267 7.85275 20.3804 7.82555 20.4955 7.8225C21.0242 7.77851 21.3204 8.16653 21.5381 8.67412Z" fill="#E04E39"/>
<path d="M20.6543 8.18714C20.6952 8.18327 20.7362 8.19283 20.7719 8.21455C20.8076 8.23628 20.8364 8.26915 20.8545 8.30885C20.8725 8.34855 20.879 8.39321 20.873 8.43694C20.8671 8.48068 20.8489 8.52144 20.8211 8.55387C20.7932 8.58629 20.7568 8.60885 20.7168 8.61859C20.6768 8.62832 20.635 8.62476 20.5969 8.60838C20.5588 8.59201 20.5262 8.56358 20.5033 8.52684C20.4805 8.49011 20.4686 8.44679 20.469 8.40258C20.4676 8.37521 20.4714 8.34782 20.48 8.32203C20.4886 8.29624 20.502 8.27259 20.5193 8.25249C20.5365 8.23238 20.5574 8.21623 20.5806 8.20501C20.6038 8.19378 20.6289 8.1877 20.6543 8.18714Z" fill="#E04E39"/>
<path d="M20.2084 32.0802C20.2084 32.1603 20.1717 32.2798 20.1717 32.3994C20.1717 32.4794 20.1351 32.4794 20.0608 32.5595C20.0974 32.3994 20.0974 32.1997 20.2094 32.0802H20.2084ZM19.0956 24.4116L19.059 24.4511C19.059 24.4071 19.059 24.4071 19.0956 24.4071V24.4116ZM17.427 20.4747L17.3161 20.6067C17.2771 20.5928 17.2398 20.5739 17.2051 20.5503C17.2813 20.533 17.3554 20.5065 17.426 20.4713L17.427 20.4747ZM15.906 20.3788C15.9963 20.6254 16.1082 20.8621 16.2399 21.0859C16.0913 21.0138 16.0913 20.9732 16.017 20.7939C15.9803 20.6585 15.9426 20.5176 15.906 20.3777V20.3788ZM15.3826 20.3225C15.5687 20.562 15.7794 20.7781 16.0107 20.9664C15.7519 20.8157 15.5351 20.5934 15.3826 20.3225ZM15.1973 19.4834V19.815C15.1605 19.7067 15.1616 19.5876 15.2005 19.48L15.1973 19.4834ZM15.1638 17.7975C15.0952 17.9274 15.0451 18.0677 15.0152 18.2136C14.944 18.0817 15.0895 17.8978 15.1638 17.7975Z" fill="#FDFDFD"/>
<path d="M63.4647 12.3737H61.7814V3.13897H57.4996V12.3737H55.8163V1.63428H63.4647V12.3737Z" fill="#E04E39"/>
<path d="M71.681 8.46441C71.681 9.69865 71.4272 10.6846 70.9195 11.4222C70.4118 12.1548 69.7305 12.5212 68.8755 12.5212C68.0828 12.5212 67.4482 12.2335 66.9717 11.6582V15.4421H65.3485V4.39288H66.8448L66.9116 5.20424C67.3881 4.56499 68.036 4.24536 68.8554 4.24536C69.7372 4.24536 70.4274 4.60925 70.9262 5.33701C71.4294 6.05985 71.681 7.06544 71.681 8.35377V8.46441ZM70.0645 8.30951C70.0645 7.51291 69.9197 6.88104 69.6303 6.4139C69.3453 5.94675 68.9356 5.71318 68.4012 5.71318C67.7376 5.71318 67.2612 6.01559 66.9717 6.62042V10.1609C67.2656 10.7805 67.7466 11.0902 68.4145 11.0902C68.9311 11.0902 69.3341 10.8616 69.6236 10.4043C69.9175 9.94206 70.0645 9.2438 70.0645 8.30951Z" fill="#E04E39"/>
<path d="M77.379 12.3737C77.3077 12.2212 77.2454 11.9729 77.1919 11.6287C76.6753 12.2237 76.043 12.5212 75.2948 12.5212C74.569 12.5212 73.9767 12.2925 73.518 11.8352C73.0593 11.3779 72.83 10.8124 72.83 10.1388C72.83 9.28806 73.115 8.63652 73.685 8.18412C74.2595 7.72681 75.0789 7.49816 76.1432 7.49816H77.1385V6.97447C77.1385 6.56141 77.0338 6.23195 76.8245 5.98609C76.6152 5.73531 76.2968 5.60992 75.8693 5.60992C75.4997 5.60992 75.1969 5.71318 74.9608 5.91971C74.7248 6.12132 74.6068 6.37947 74.6068 6.69418H72.9836C72.9836 6.25654 73.115 5.84841 73.3777 5.46977C73.6404 5.08622 73.9967 4.78627 74.4465 4.56991C74.9007 4.35355 75.4062 4.24536 75.9628 4.24536C76.8089 4.24536 77.4836 4.4814 77.9868 4.95346C78.4901 5.4206 78.7483 6.07952 78.7617 6.93021V10.5297C78.7617 11.2476 78.853 11.8205 79.0356 12.2483V12.3737H77.379ZM75.5954 11.0829C75.9161 11.0829 76.2167 10.9968 76.4972 10.8247C76.7822 10.6526 76.996 10.4215 77.1385 10.1314V8.62668H76.2634C75.6622 8.62668 75.2102 8.74224 74.9074 8.97335C74.6046 9.20446 74.4532 9.53146 74.4532 9.95435C74.4532 10.2986 74.5556 10.5739 74.7604 10.7805C74.9697 10.9821 75.2481 11.0829 75.5954 11.0829Z" fill="#E04E39"/>
<path d="M80.5853 12.3737V4.39288H83.5178C84.5064 4.39288 85.259 4.58466 85.7756 4.96821C86.2922 5.34684 86.5505 5.89266 86.5505 6.60567C86.5505 6.97447 86.4458 7.30639 86.2365 7.60142C86.0317 7.89154 85.7266 8.11528 85.3214 8.27263C85.7934 8.38082 86.1675 8.59964 86.4436 8.92909C86.7197 9.25855 86.8577 9.64702 86.8577 10.0945C86.8577 10.837 86.6083 11.4025 86.1096 11.791C85.6153 12.1794 84.9028 12.3737 83.972 12.3737H80.5853ZM82.2085 8.97335V10.9575H83.9854C84.8181 10.9575 85.2345 10.628 85.2345 9.9691C85.2345 9.30527 84.8115 8.97335 83.9653 8.97335H82.2085ZM82.2085 7.68993H83.5445C84.4663 7.68993 84.9272 7.38998 84.9272 6.79007C84.9272 6.16065 84.4908 5.83611 83.618 5.81644H82.2085V7.68993Z" fill="#E04E39"/>
<path d="M92.7761 4.39288H94.3927V12.3737H92.7761V7.04823L89.9438 12.3737H88.3273V4.39288H89.9438V9.71832L92.7761 4.39288Z" fill="#E04E39"/>
<path d="M101.807 5.81644H99.4627V12.3737H97.8395V5.81644H95.5216V4.39288H101.807V5.81644Z" fill="#E04E39"/>
<path d="M105.648 12.5212C104.62 12.5212 103.785 12.1647 103.143 11.4517C102.506 10.7337 102.188 9.77979 102.188 8.5898V8.36852C102.188 7.57192 102.326 6.86137 102.602 6.23687C102.883 5.60746 103.275 5.11819 103.778 4.76906C104.281 4.41993 104.842 4.24536 105.461 4.24536C106.445 4.24536 107.205 4.59203 107.739 5.28537C108.278 5.97871 108.547 6.95972 108.547 8.22838V8.95122H103.825C103.874 9.61014 104.072 10.1314 104.419 10.5149C104.771 10.8985 105.212 11.0902 105.742 11.0902C106.485 11.0902 107.091 10.7583 107.559 10.0945L108.434 11.0165C108.144 11.4935 107.757 11.8647 107.271 12.1303C106.791 12.3909 106.249 12.5212 105.648 12.5212ZM105.455 5.68368C105.009 5.68368 104.649 5.85578 104.372 6.19999C104.101 6.5442 103.927 7.02364 103.851 7.6383H106.944V7.50554C106.909 6.90563 106.764 6.45323 106.51 6.14836C106.256 5.83857 105.904 5.68368 105.455 5.68368Z" fill="#E04E39"/>
<path d="M115.955 4.39288V12.3737H114.332V5.83857H112.288L112.154 8.61931C112.07 9.95681 111.836 10.9181 111.453 11.5033C111.075 12.0835 110.493 12.3737 109.71 12.3737H109.209L109.202 10.8837L109.536 10.8468C109.892 10.7928 110.151 10.5543 110.311 10.1314C110.476 9.70357 110.58 8.92664 110.625 7.80057L110.758 4.39288H115.955Z" fill="#E04E39"/>
<path d="M119.429 6.93021H121.019C121.611 6.93021 122.128 7.04331 122.568 7.26951C123.009 7.4957 123.343 7.81287 123.57 8.221C123.802 8.62914 123.918 9.10366 123.918 9.64456C123.918 10.4658 123.655 11.1247 123.13 11.6213C122.604 12.118 121.905 12.3687 121.032 12.3737H117.806V4.39288H119.429V6.93021ZM119.429 8.36852V10.9427H121.012C121.408 10.9427 121.72 10.8345 121.947 10.6182C122.179 10.3969 122.295 10.0847 122.295 9.68144C122.295 9.27822 122.181 8.96106 121.954 8.72994C121.731 8.49391 121.428 8.37344 121.045 8.36852H119.429Z" fill="#E04E39"/>
<path d="M128.186 11.0902C128.591 11.0902 128.928 10.9599 129.195 10.6993C129.462 10.4387 129.605 10.1166 129.622 9.73307H131.152C131.134 10.2297 130.994 10.6944 130.731 11.1271C130.469 11.5549 130.112 11.8942 129.662 12.145C129.213 12.3958 128.727 12.5212 128.206 12.5212C127.195 12.5212 126.394 12.1598 125.802 11.4369C125.209 10.7141 124.913 9.71586 124.913 8.44228V8.25788C124.913 7.04331 125.207 6.07214 125.795 5.34438C126.383 4.6117 127.184 4.24536 128.2 4.24536C129.059 4.24536 129.758 4.52319 130.297 5.07885C130.84 5.62959 131.125 6.35489 131.152 7.25475H129.622C129.605 6.79744 129.462 6.42127 129.195 6.12623C128.932 5.83119 128.596 5.68368 128.186 5.68368C127.661 5.68368 127.256 5.89512 126.97 6.31801C126.685 6.73598 126.541 7.37277 126.536 8.22838V8.51604C126.536 9.38149 126.677 10.0281 126.957 10.4559C127.242 10.8788 127.652 11.0902 128.186 11.0902Z" fill="#E04E39"/>
<path d="M138.066 5.81644H135.721V12.3737H134.098V5.81644H131.78V4.39288H138.066V5.81644Z" fill="#E04E39"/>
<path d="M139.275 12.3737V4.39288H142.207C143.196 4.39288 143.949 4.58466 144.465 4.96821C144.982 5.34684 145.24 5.89266 145.24 6.60567C145.24 6.97447 145.135 7.30639 144.926 7.60142C144.721 7.89154 144.416 8.11528 144.011 8.27263C144.483 8.38082 144.857 8.59964 145.133 8.92909C145.409 9.25855 145.547 9.64702 145.547 10.0945C145.547 10.837 145.298 11.4025 144.799 11.791C144.305 12.1794 143.592 12.3737 142.662 12.3737H139.275ZM140.898 8.97335V10.9575H142.675C143.508 10.9575 143.924 10.628 143.924 9.9691C143.924 9.30527 143.501 8.97335 142.655 8.97335H140.898ZM140.898 7.68993H142.234C143.156 7.68993 143.617 7.38998 143.617 6.79007C143.617 6.16065 143.18 5.83611 142.308 5.81644H140.898V7.68993Z" fill="#E04E39"/>
<path d="M146.649 8.30951C146.649 7.52766 146.79 6.82449 147.07 6.19999C147.351 5.57058 147.745 5.08868 148.253 4.75431C148.76 4.41501 149.344 4.24536 150.003 4.24536C150.978 4.24536 151.768 4.59203 152.374 5.28537C152.984 5.97871 153.314 6.89825 153.363 8.04398L153.369 8.46441C153.369 9.25118 153.231 9.95435 152.955 10.5739C152.684 11.1935 152.292 11.6729 151.78 12.0122C151.272 12.3515 150.684 12.5212 150.016 12.5212C148.996 12.5212 148.179 12.1475 147.565 11.4C146.955 10.6477 146.649 9.64702 146.649 8.39803V8.30951ZM148.273 8.46441C148.273 9.2856 148.426 9.92977 148.734 10.3969C149.041 10.8591 149.468 11.0902 150.016 11.0902C150.564 11.0902 150.989 10.8542 151.292 10.3822C151.599 9.9101 151.753 9.21922 151.753 8.30951C151.753 7.50308 151.595 6.86383 151.279 6.39177C150.967 5.91971 150.542 5.68368 150.003 5.68368C149.473 5.68368 149.052 5.91725 148.74 6.38439C148.429 6.84662 148.273 7.53996 148.273 8.46441Z" fill="#E04E39"/>
<path d="M63.1909 25.494C63.0929 26.6397 62.7099 27.5347 62.0419 28.1789C61.3739 28.8181 60.4855 29.1377 59.3766 29.1377C58.6018 29.1377 57.9182 28.9361 57.3259 28.5329C56.7381 28.1248 56.2839 27.547 55.9632 26.7996C55.6426 26.0521 55.4756 25.1842 55.4622 24.1958V23.1927C55.4622 22.1797 55.6248 21.2873 55.9499 20.5152C56.275 19.7432 56.7403 19.1482 57.346 18.7303C57.9561 18.3123 58.6597 18.1033 59.4568 18.1033C60.53 18.1033 61.394 18.4254 62.0486 19.0696C62.7032 19.7137 63.084 20.6234 63.1909 21.7987H61.5075C61.4274 21.0266 61.2225 20.471 60.893 20.1317C60.5679 19.7875 60.0892 19.6154 59.4568 19.6154C58.722 19.6154 58.1565 19.9129 57.7601 20.5079C57.3682 21.0979 57.1678 21.9658 57.1589 23.1116V24.0631C57.1589 25.2236 57.346 26.1087 57.72 26.7184C58.0986 27.3282 58.6508 27.633 59.3766 27.633C60.0402 27.633 60.539 27.4683 60.8729 27.1388C61.2069 26.8094 61.4185 26.2611 61.5075 25.494H63.1909Z" fill="#E04E39"/>
<path d="M64.6738 28.9902V21.0094H67.6063C68.5949 21.0094 69.3475 21.2012 69.8641 21.5848C70.3807 21.9634 70.6389 22.5092 70.6389 23.2222C70.6389 23.591 70.5343 23.9229 70.325 24.218C70.1201 24.5081 69.8151 24.7318 69.4098 24.8892C69.8819 24.9974 70.256 25.2162 70.5321 25.5456C70.8082 25.8751 70.9462 26.2636 70.9462 26.711C70.9462 27.4536 70.6968 28.019 70.1981 28.4075C69.7038 28.796 68.9912 28.9902 68.0605 28.9902H64.6738ZM66.297 25.5899V27.574H68.0739C68.9066 27.574 69.323 27.2446 69.323 26.5857C69.323 25.9218 68.9 25.5899 68.0538 25.5899H66.297ZM66.297 24.3065H67.633C68.5548 24.3065 69.0157 24.0065 69.0157 23.4066C69.0157 22.7772 68.5793 22.4527 67.7065 22.433H66.297V24.3065Z" fill="#E04E39"/>
<path d="M75.5353 29.1377C74.5066 29.1377 73.6716 28.7812 73.0304 28.0682C72.3935 27.3503 72.0751 26.3963 72.0751 25.2063V24.9851C72.0751 24.1885 72.2132 23.4779 72.4893 22.8534C72.7698 22.224 73.1617 21.7347 73.6649 21.3856C74.1682 21.0365 74.7293 20.8619 75.3483 20.8619C76.3324 20.8619 77.0917 21.2086 77.6261 21.9019C78.165 22.5953 78.4344 23.5763 78.4344 24.8449V25.5678H73.7117C73.7607 26.2267 73.9589 26.7479 74.3062 27.1315C74.658 27.515 75.0989 27.7068 75.6288 27.7068C76.3725 27.7068 76.9782 27.3749 77.4458 26.711L78.3208 27.633C78.0314 28.11 77.6439 28.4813 77.1585 28.7468C76.6776 29.0074 76.1365 29.1377 75.5353 29.1377ZM75.3416 22.3002C74.8963 22.3002 74.5356 22.4723 74.2595 22.8165C73.9878 23.1608 73.8141 23.6402 73.7384 24.2549H76.8312V24.1221C76.7956 23.5222 76.6509 23.0698 76.397 22.7649C76.1432 22.4551 75.7914 22.3002 75.3416 22.3002Z" fill="#E04E39"/>
<path d="M86.0294 25.081C86.0294 26.3152 85.7756 27.3011 85.2679 28.0387C84.7602 28.7714 84.0789 29.1377 83.2239 29.1377C82.4312 29.1377 81.7966 28.8501 81.3201 28.2747V32.0586H79.6969V21.0094H81.1932L81.26 21.8208C81.7365 21.1815 82.3844 20.8619 83.2038 20.8619C84.0856 20.8619 84.7758 21.2258 85.2746 21.9536C85.7778 22.6764 86.0294 23.682 86.0294 24.9703V25.081ZM84.4129 24.9261C84.4129 24.1295 84.2682 23.4976 83.9787 23.0304C83.6937 22.5633 83.284 22.3297 82.7496 22.3297C82.0861 22.3297 81.6096 22.6321 81.3201 23.237V26.7774C81.614 27.397 82.095 27.7068 82.763 27.7068C83.2795 27.7068 83.6826 27.4781 83.972 27.0208C84.2659 26.5586 84.4129 25.8603 84.4129 24.9261Z" fill="#E04E39"/>
<path d="M87.3186 27.5593C87.7684 27.0036 88.069 26.4775 88.2204 25.9808C88.3763 25.4793 88.4698 24.84 88.501 24.0631L88.5945 21.0094H93.6111V27.5593H94.6131V31.3653H92.9966V28.9902H88.3607V31.3653H86.7175L86.7241 27.5593H87.3186ZM89.2224 27.5593H91.9946V22.551H90.171L90.1242 24.0778C90.0619 25.5432 89.7613 26.7037 89.2224 27.5593Z" fill="#E04E39"/>
<path d="M101.914 21.0094V28.9902H100.291V22.4551H98.247L98.1134 25.2359C98.0287 26.5734 97.7949 27.5347 97.412 28.1199C97.0334 28.7001 96.4523 28.9902 95.6685 28.9902H95.1675L95.1608 27.5003L95.4948 27.4634C95.8511 27.4093 96.1094 27.1708 96.2697 26.7479C96.4345 26.3201 96.5391 25.5432 96.5837 24.4171L96.7173 21.0094H101.914Z" fill="#E04E39"/>
<path d="M103.337 24.9261C103.337 24.1442 103.477 23.441 103.758 22.8165C104.038 22.1871 104.433 21.7052 104.94 21.3709C105.448 21.0316 106.031 20.8619 106.69 20.8619C107.666 20.8619 108.456 21.2086 109.062 21.9019C109.672 22.5953 110.001 23.5148 110.05 24.6605L110.057 25.081C110.057 25.8677 109.919 26.5709 109.643 27.1905C109.371 27.8101 108.979 28.2895 108.467 28.6288C107.96 28.9681 107.372 29.1377 106.704 29.1377C105.684 29.1377 104.867 28.764 104.252 28.0166C103.642 27.2642 103.337 26.2636 103.337 25.0146V24.9261ZM104.96 25.081C104.96 25.9021 105.114 26.5463 105.421 27.0135C105.728 27.4757 106.156 27.7068 106.704 27.7068C107.251 27.7068 107.677 27.4708 107.98 26.9987C108.287 26.5266 108.44 25.8358 108.44 24.9261C108.44 24.1196 108.282 23.4804 107.966 23.0083C107.654 22.5363 107.229 22.3002 106.69 22.3002C106.16 22.3002 105.74 22.5338 105.428 23.0009C105.116 23.4632 104.96 24.1565 104.96 25.081Z" fill="#E04E39"/>
<path d="M111.553 28.9902V21.0094H114.486C115.474 21.0094 116.227 21.2012 116.744 21.5848C117.26 21.9634 117.518 22.5092 117.518 23.2222C117.518 23.591 117.414 23.9229 117.204 24.218C117 24.5081 116.695 24.7318 116.289 24.8892C116.761 24.9974 117.135 25.2162 117.412 25.5456C117.688 25.8751 117.826 26.2636 117.826 26.711C117.826 27.4536 117.576 28.019 117.078 28.4075C116.583 28.796 115.871 28.9902 114.94 28.9902H111.553ZM113.177 25.5899V27.574H114.953C115.786 27.574 116.203 27.2446 116.203 26.5857C116.203 25.9218 115.779 25.5899 114.933 25.5899H113.177ZM113.177 24.3065H114.512C115.434 24.3065 115.895 24.0065 115.895 23.4066C115.895 22.7772 115.459 22.4527 114.586 22.433H113.177V24.3065Z" fill="#E04E39"/>
<path d="M122.201 27.7068C122.606 27.7068 122.943 27.5765 123.21 27.3159C123.477 27.0553 123.619 26.7332 123.637 26.3496H125.167C125.149 26.8463 125.009 27.311 124.746 27.7437C124.483 28.1715 124.127 28.5108 123.677 28.7616C123.228 29.0123 122.742 29.1377 122.221 29.1377C121.21 29.1377 120.409 28.7763 119.816 28.0535C119.224 27.3306 118.928 26.3324 118.928 25.0588V24.8744C118.928 23.6599 119.222 22.6887 119.81 21.9609C120.397 21.2283 121.199 20.8619 122.214 20.8619C123.074 20.8619 123.773 21.1397 124.312 21.6954C124.855 22.2461 125.14 22.9714 125.167 23.8713H123.637C123.619 23.414 123.477 23.0378 123.21 22.7428C122.947 22.4477 122.611 22.3002 122.201 22.3002C121.676 22.3002 121.27 22.5117 120.985 22.9346C120.7 23.3525 120.556 23.9893 120.551 24.8449V25.1326C120.551 25.998 120.691 26.6447 120.972 27.0725C121.257 27.4954 121.667 27.7068 122.201 27.7068Z" fill="#E04E39"/>
<path d="M128.961 25.8333H128.139V28.9902H126.516V21.0094H128.139V24.1958H128.854L130.852 21.0094H132.855L130.244 24.8302L133.076 28.9902H130.965L128.961 25.8333Z" fill="#E04E39"/>
<path d="M133.276 24.9261C133.276 24.1442 133.417 23.441 133.697 22.8165C133.978 22.1871 134.372 21.7052 134.879 21.3709C135.387 21.0316 135.971 20.8619 136.63 20.8619C137.605 20.8619 138.395 21.2086 139.001 21.9019C139.611 22.5953 139.941 23.5148 139.99 24.6605L139.996 25.081C139.996 25.8677 139.858 26.5709 139.582 27.1905C139.31 27.8101 138.919 28.2895 138.406 28.6288C137.899 28.9681 137.311 29.1377 136.643 29.1377C135.623 29.1377 134.806 28.764 134.191 28.0166C133.581 27.2642 133.276 26.2636 133.276 25.0146V24.9261ZM134.9 25.081C134.9 25.9021 135.053 26.5463 135.36 27.0135C135.668 27.4757 136.095 27.7068 136.643 27.7068C137.191 27.7068 137.616 27.4708 137.919 26.9987C138.226 26.5266 138.38 25.8358 138.38 24.9261C138.38 24.1196 138.222 23.4804 137.905 23.0083C137.594 22.5363 137.168 22.3002 136.63 22.3002C136.1 22.3002 135.679 22.5338 135.367 23.0009C135.055 23.4632 134.9 24.1565 134.9 25.081Z" fill="#E04E39"/>
<path d="M145.881 21.0094H147.498V28.9902H145.881V23.6648L143.049 28.9902H141.432V21.0094H143.049V26.3349L145.881 21.0094ZM146.643 17.9484C146.643 18.568 146.447 19.0696 146.055 19.4531C145.663 19.8367 145.14 20.0284 144.485 20.0284C143.831 20.0284 143.307 19.8367 142.915 19.4531C142.524 19.0696 142.328 18.568 142.328 17.9484H143.543C143.543 18.273 143.626 18.5262 143.79 18.7081C143.96 18.8852 144.191 18.9737 144.485 18.9737C144.779 18.9737 145.008 18.8852 145.173 18.7081C145.338 18.5262 145.42 18.273 145.42 17.9484H146.643Z" fill="#E04E39"/>
<path d="M55.3086 41.5426C55.3086 40.7608 55.4489 40.0576 55.7294 39.4331C56.01 38.8037 56.4041 38.3218 56.9118 37.9874C57.4194 37.6481 58.0028 37.4785 58.6619 37.4785C59.6372 37.4785 60.4276 37.8251 61.0333 38.5185C61.6434 39.2118 61.9729 40.1313 62.0219 41.2771L62.0286 41.6975C62.0286 42.4843 61.8905 43.1874 61.6144 43.807C61.3428 44.4266 60.9509 44.906 60.4388 45.2453C59.9311 45.5846 59.3432 45.7543 58.6753 45.7543C57.6555 45.7543 56.8383 45.3806 56.2237 44.6331C55.6136 43.8808 55.3086 42.8801 55.3086 41.6311V41.5426ZM56.9318 41.6975C56.9318 42.5187 57.0854 43.1629 57.3927 43.63C57.7 44.0922 58.1275 44.3233 58.6753 44.3233C59.223 44.3233 59.6483 44.0873 59.9511 43.6153C60.2584 43.1432 60.412 42.4523 60.412 41.5426C60.412 40.7362 60.2539 40.0969 59.9378 39.6249C59.626 39.1528 59.2007 38.9168 58.6619 38.9168C58.132 38.9168 57.7111 39.1503 57.3994 39.6175C57.0877 40.0797 56.9318 40.7731 56.9318 41.6975Z" fill="#E04E39"/>
<path d="M66.8047 38.0685C67.7132 38.0685 68.4413 38.4054 68.989 39.079C69.5368 39.7478 69.8106 40.6575 69.8106 41.8081V41.8967C69.8106 43.0473 69.5123 43.9791 68.9155 44.6921C68.3233 45.4052 67.5172 45.7617 66.4974 45.7617C65.5043 45.7617 64.7028 45.3978 64.0927 44.67C63.4826 43.9423 63.1775 42.949 63.1775 41.6901V41.1738C63.1775 39.4528 63.4536 38.0907 64.0058 37.0875C64.558 36.0844 65.3819 35.4574 66.4774 35.2067C67.0919 35.069 67.4883 34.9239 67.6664 34.7715C67.849 34.6141 67.9403 34.4027 67.9403 34.1372H69.2495C69.2495 34.6338 69.1761 35.037 69.0291 35.3468C68.8821 35.6566 68.6572 35.9098 68.3544 36.1065C68.0516 36.2983 67.5306 36.4802 66.7913 36.6524C66.1144 36.8097 65.5979 37.09 65.2416 37.4932C64.8898 37.8964 64.6538 38.4545 64.5335 39.1676C65.1792 38.4349 65.9363 38.0685 66.8047 38.0685ZM66.4841 39.5068C65.9586 39.5068 65.5466 39.7035 65.2483 40.0969C64.9499 40.4854 64.8007 41.0853 64.8007 41.8967C64.8007 42.6638 64.9477 43.2612 65.2416 43.689C65.5355 44.1168 65.9541 44.3307 66.4974 44.3307C67.0363 44.3307 67.4526 44.1168 67.7466 43.689C68.0449 43.2563 68.1941 42.6072 68.1941 41.7418C68.1941 41.0533 68.0449 40.51 67.7466 40.1117C67.4526 39.7085 67.0318 39.5068 66.4841 39.5068Z" fill="#E04E39"/>
<path d="M77.2253 37.626V45.6068H75.6021V39.0717H73.5581L73.4245 41.8524C73.3399 43.1899 73.1061 44.1512 72.7231 44.7364C72.3445 45.3166 71.7634 45.6068 70.9796 45.6068H70.4786L70.472 44.1168L70.8059 44.0799C71.1622 44.0258 71.4205 43.7874 71.5808 43.3645C71.7456 42.9367 71.8502 42.1597 71.8948 41.0337L72.0284 37.626H77.2253Z" fill="#E04E39"/>
<path d="M83.2706 45.6068C83.1994 45.4543 83.137 45.206 83.0836 44.8618C82.567 45.4568 81.9347 45.7543 81.1865 45.7543C80.4606 45.7543 79.8683 45.5256 79.4097 45.0683C78.951 44.611 78.7216 44.0455 78.7216 43.3718C78.7216 42.5212 79.0066 41.8696 79.5766 41.4172C80.1511 40.9599 80.9705 40.7313 82.0348 40.7313H83.0302V40.2076C83.0302 39.7945 82.9255 39.465 82.7162 39.2192C82.5069 38.9684 82.1885 38.843 81.761 38.843C81.3914 38.843 81.0885 38.9463 80.8525 39.1528C80.6165 39.3544 80.4985 39.6126 80.4985 39.9273H78.8753C78.8753 39.4896 79.0066 39.0815 79.2694 38.7029C79.5321 38.3193 79.8884 38.0194 80.3382 37.803C80.7924 37.5866 81.2978 37.4785 81.8545 37.4785C82.7006 37.4785 83.3753 37.7145 83.8785 38.1866C84.3817 38.6537 84.64 39.3126 84.6534 40.1633V43.7628C84.6534 44.4807 84.7447 45.0536 84.9272 45.4814V45.6068H83.2706ZM81.4871 44.316C81.8077 44.316 82.1083 44.2299 82.3889 44.0578C82.6739 43.8857 82.8876 43.6546 83.0302 43.3645V41.8598H82.1551C81.5539 41.8598 81.1019 41.9753 80.7991 42.2064C80.4962 42.4376 80.3448 42.7646 80.3448 43.1874C80.3448 43.5317 80.4473 43.807 80.6521 44.0136C80.8614 44.2152 81.1397 44.316 81.4871 44.316Z" fill="#E04E39"/>
<path d="M89.3226 44.3233C89.7279 44.3233 90.0641 44.193 90.3313 43.9324C90.5985 43.6718 90.741 43.3497 90.7588 42.9662H92.2885C92.2707 43.4628 92.1304 43.9275 91.8677 44.3602C91.6049 44.788 91.2486 45.1273 90.7989 45.3781C90.3491 45.6289 89.8637 45.7543 89.3427 45.7543C88.3318 45.7543 87.5302 45.3929 86.9379 44.67C86.3456 43.9472 86.0495 42.949 86.0495 41.6754V41.491C86.0495 40.2764 86.3434 39.3052 86.9312 38.5775C87.519 37.8448 88.3206 37.4785 89.336 37.4785C90.1955 37.4785 90.8946 37.7563 91.4335 38.3119C91.9768 38.8627 92.2618 39.588 92.2885 40.4878H90.7588C90.741 40.0305 90.5985 39.6544 90.3313 39.3593C90.0685 39.0643 89.7323 38.9168 89.3226 38.9168C88.7971 38.9168 88.3919 39.1282 88.1069 39.5511C87.8219 39.9691 87.6771 40.6059 87.6727 41.4615V41.7491C87.6727 42.6146 87.813 43.2612 88.0935 43.689C88.3785 44.1119 88.7882 44.3233 89.3226 44.3233Z" fill="#E04E39"/>
<path d="M99.2022 39.0495H96.8575V45.6068H95.2343V39.0495H92.9164V37.626H99.2022V39.0495Z" fill="#E04E39"/>
<path d="M104.8 37.626H106.416V45.6068H104.8V40.2813L101.968 45.6068H100.351V37.626H101.968V42.9514L104.8 37.626Z" fill="#E04E39"/>
</svg>
