<svg width="221" height="188" viewBox="0 0 221 188" fill="none" xmlns="http://www.w3.org/2000/svg">
<path d="M0.0722706 28.4338C1.57631 23.5115 5.26804 21.4605 9.95107 20.1616C20.0691 17.2902 30.0847 14.077 40.1344 11.0006C50.6968 7.78743 61.2593 4.64262 71.7875 1.36109C75.1374 0.301424 78.0772 1.49782 81.1194 2.38657C91.4084 5.46301 101.663 8.64199 111.952 11.7868C120.498 14.3847 129.009 17.0168 137.555 19.6146C140.153 20.4008 142.751 21.2212 145.417 21.9391C148.699 22.7936 149.451 23.6824 149.451 27.0323C149.451 73.008 149.451 118.984 149.451 164.925C149.451 166.908 149.485 168.925 149.451 170.907C149.416 173.437 148.083 175.077 146.135 175.043C144.186 174.975 142.99 173.471 142.99 170.941C142.99 156.414 142.99 141.886 142.99 127.358C142.99 122.06 142.956 116.762 143.024 111.464C143.058 110.13 142.58 109.583 141.349 109.207C128.121 105.242 114.892 101.209 101.697 97.2093C94.143 94.9191 86.5886 92.5947 79.0343 90.2702C78.8292 90.2019 78.5899 90.2019 78.1797 90.1335C78.1455 90.8172 78.0772 91.3983 78.0772 92.0136C78.0772 114.403 78.0772 136.793 78.0088 159.183C78.0088 160.618 78.6583 161.028 79.7863 161.37C89.5967 164.31 99.373 167.318 109.149 170.292C117.797 172.924 126.446 175.556 135.094 178.188C138.136 179.111 141.144 180.137 144.255 180.923C145.554 181.23 147.092 181.299 148.357 180.923C158.338 177.983 168.285 174.872 178.232 171.864C189.444 168.446 200.656 165.062 211.834 161.644C213.748 161.063 214.466 159.935 214.466 157.61C214.466 139.083 214.466 120.59 214.466 102.063C214.466 72.6662 214.466 43.2691 214.466 13.8719C214.466 9.87257 212.928 8.71037 209.134 9.87258C195.255 14.0429 181.377 18.2473 167.499 22.4518C165.106 23.1696 162.748 23.99 160.321 24.6737C158.338 25.2548 156.697 24.4002 156.15 22.5543C155.603 20.7085 156.595 19.1019 158.509 18.4866C174.062 13.7352 189.581 8.94964 205.134 4.23243C208.006 3.37786 210.843 2.24983 213.953 3.27531C217.167 4.33498 219.286 6.4543 220.448 9.56493C220.585 9.94094 220.756 10.2828 220.892 10.6588C220.892 60.5655 220.892 110.472 220.892 160.379C219.457 164.857 216.278 167.181 211.834 168.446C201.955 171.283 192.111 174.36 182.266 177.334C171.293 180.683 160.287 183.999 149.314 187.383C147.16 188.033 145.109 187.999 142.956 187.349C130.992 183.692 119.028 180.102 107.064 176.445C96.8776 173.368 86.7254 170.189 76.5389 167.181C75.4109 166.839 74.0094 166.839 72.9156 167.181C61.4644 170.6 50.0474 174.086 38.6303 177.573C29.9479 180.205 21.2313 182.871 12.5148 185.469C8.82304 186.563 5.43895 185.777 2.84107 182.905C1.61049 181.572 0.961021 179.726 0.00390625 178.12C0.0722716 128.247 0.0722706 78.3405 0.0722706 28.4338ZM71.5483 8.33436C70.7279 8.50527 70.181 8.60781 69.6682 8.74454C61.9429 11.1031 54.2176 13.4618 46.4924 15.7862C34.255 19.5121 22.0176 23.2722 9.78015 26.9639C7.25063 27.7159 6.56698 28.5705 6.56698 31.2368C6.56698 36.5351 6.56698 41.8334 6.56698 47.1317C6.56698 89.8601 6.56698 132.588 6.56698 175.317C6.56698 178.701 8.3103 179.966 11.5577 179.008C14.429 178.154 17.3345 177.299 20.2059 176.445C36.5452 171.488 52.8503 166.498 69.1897 161.61C71.0014 161.063 71.6166 160.242 71.6166 158.294C71.5483 123.53 71.5483 88.8004 71.5483 54.0366C71.5483 52.9428 71.5141 51.8489 71.685 50.7892C71.9243 49.1143 73.0523 48.1914 74.7614 48.1572C76.4706 48.123 77.5644 48.9434 77.9062 50.6525C78.043 51.4387 78.043 52.2249 78.043 53.0453C78.043 62.5481 78.0772 72.0851 78.0088 81.5878C78.0088 82.7501 78.3506 83.3653 79.4786 83.6388C81.1878 84.0832 82.8627 84.6301 84.5377 85.1428C92.5364 87.604 100.501 90.0651 108.5 92.4921C117.045 95.09 125.591 97.6879 134.103 100.286C136.974 101.14 139.811 101.995 142.853 102.918C142.888 102.097 142.956 101.619 142.956 101.106C142.956 77.2808 142.956 53.4897 143.024 29.6644C143.024 28.3996 142.614 27.8185 141.452 27.4767C135.47 25.665 129.488 23.8191 123.506 21.9732C111.439 18.3157 99.3388 14.6582 87.2723 11.0006C84.2984 10.1119 81.3245 9.2231 78.0088 8.2318C78.0088 9.18892 78.0088 9.83839 78.0088 10.522C78.0088 19.3412 78.0088 28.1945 77.9746 37.0136C77.9746 37.7998 78.0772 38.7911 77.7011 39.338C77.0517 40.2268 76.1287 41.2523 75.1375 41.4574C74.3171 41.6625 72.9839 41.0472 72.4028 40.3293C71.7875 39.6115 71.5825 38.3468 71.5483 37.3213C71.4799 28.3654 71.5141 19.4437 71.5141 10.4879C71.5483 9.87257 71.5483 9.18893 71.5483 8.33436Z" fill="#C39367" fill-opacity="0.6"/>
<path d="M191.393 44.0215C194.606 43.5088 197.751 42.996 200.896 42.5859C202.058 42.4491 203.288 42.5175 204.451 42.7226C207.254 43.2695 208.826 45.5939 207.595 48.1576C206.194 51.1657 204.245 53.9003 202.4 56.7033C201.477 58.1048 200.349 59.4379 199.186 60.6685C198.434 61.4547 198.537 62.1725 198.674 63.1297C199.152 66.7188 199.699 70.3422 199.733 73.9656C199.768 77.7598 197.58 79.845 193.751 79.5373C190.572 79.2981 187.393 78.4435 184.249 77.6915C183.018 77.3838 182.3 77.6915 181.377 78.4435C177.959 81.2807 174.643 84.1862 170.952 86.6473C167.499 88.9718 164.286 87.2284 164.012 83.0582C163.876 80.4603 163.944 77.7598 164.559 75.2645C165.414 71.7437 164.97 69.3167 161.38 67.7101C159.774 66.9581 158.406 65.4199 157.244 63.9842C155.022 61.2496 155.433 58.1732 158.441 56.3957C161.688 54.4814 165.14 52.8065 168.661 51.405C170.883 50.5162 172.182 49.2857 173.037 46.9954C174.37 43.4062 175.976 39.8512 177.856 36.5013C180.01 32.6729 183.702 32.4678 186.436 35.9886C188.111 38.1763 189.342 40.7058 190.777 43.0986C190.983 43.4062 191.188 43.7481 191.393 44.0215ZM163.192 60.9078C164.047 61.5914 164.559 62.1042 165.175 62.5144C166.508 63.3689 167.841 64.2235 169.242 65.0097C172.216 66.7188 172.524 67.4367 171.874 70.7866C171.362 73.4186 171.02 76.1191 170.575 78.7853C170.746 78.8879 170.917 78.9904 171.088 79.093C173.584 76.8369 176.181 74.6492 178.574 72.2564C180.318 70.5131 181.993 70.0345 184.385 70.9233C187.222 71.983 190.231 72.5641 193.683 73.487C193.273 70.4447 193.341 67.8469 192.555 65.5566C191.119 61.4547 191.905 58.1732 195.119 55.336C195.324 55.1651 195.529 54.9258 195.7 54.7207C197.033 52.9774 198.366 51.2683 199.699 49.5249C199.597 49.3882 199.494 49.2173 199.391 49.0806C196.589 49.73 193.786 50.3795 190.983 51.0632C188.624 51.6443 187.393 50.9948 186.334 48.8071C185.206 46.3801 183.975 43.9873 182.574 41.1844C182.027 42.1757 181.685 42.6884 181.446 43.2695C180.215 46.3801 178.95 49.4908 177.856 52.6697C177.275 54.3789 176.284 55.5069 174.575 56.088C172.592 56.7717 170.61 57.4553 168.661 58.2757C166.884 59.0277 165.14 59.9848 163.192 60.9078Z" fill="#C39367" fill-opacity="0.6"/>
<path d="M90.4856 106.474C91.9213 106.884 93.5621 107.294 95.2028 107.772C107.269 111.464 119.336 115.19 131.402 118.848C133.043 119.36 133.932 120.386 133.932 122.061C133.932 123.667 133.111 124.795 131.539 125.171C130.855 125.342 130.069 125.206 129.386 125.001C118.071 121.548 106.791 118.061 95.4763 114.575C93.2886 113.891 91.1009 113.31 88.9816 112.558C87.4092 112.011 86.7597 110.473 87.1699 108.798C87.4775 107.431 88.7765 106.439 90.4856 106.474Z" fill="#C39367" fill-opacity="0.6"/>
<path d="M161.859 144.722C160.184 144.722 158.749 143.526 158.441 142.09C158.133 140.62 158.988 139.048 160.629 138.501C163.705 137.475 166.816 136.553 169.892 135.595C180.147 132.451 190.436 129.306 200.691 126.195C202.981 125.511 204.861 126.332 205.374 128.246C205.886 130.092 204.758 131.699 202.537 132.382C189.547 136.347 176.592 140.313 163.602 144.244C162.953 144.449 162.304 144.585 161.859 144.722Z" fill="#C39367" fill-opacity="0.6"/>
<path d="M161.859 125.376C160.184 125.376 158.612 124.043 158.372 122.573C158.133 121.138 159.124 119.497 160.663 119.018C167.602 116.865 174.541 114.711 181.514 112.592C187.94 110.644 194.367 108.729 200.759 106.781C202.81 106.166 204.622 106.918 205.271 108.627C205.921 110.37 204.963 112.148 202.844 112.831C196.281 114.882 189.718 116.899 183.155 118.916C176.729 120.864 170.336 122.813 163.91 124.761C163.192 125 162.406 125.205 161.859 125.376Z" fill="#C39367" fill-opacity="0.6"/>
<path d="M201.887 145.305C203.87 145.339 204.895 146.228 205.374 147.732C205.818 149.167 205.135 150.706 203.596 151.389C202.195 152.004 200.725 152.415 199.255 152.859C187.36 156.482 175.464 160.106 163.568 163.729C162.064 164.174 160.56 164.447 159.296 163.114C157.552 161.234 158.304 158.67 161.005 157.781C165.004 156.482 169.038 155.286 173.037 154.055C181.822 151.355 190.641 148.689 199.426 145.988C200.315 145.681 201.272 145.476 201.887 145.305Z" fill="#C39367" fill-opacity="0.6"/>
<path d="M90.5884 125.889C92.6052 126.47 94.7929 127.051 96.9806 127.735C107.851 131.051 118.721 134.367 129.591 137.682C130.309 137.887 130.992 138.161 131.676 138.434C133.59 139.221 134.342 140.793 133.727 142.673C133.214 144.245 131.539 145.066 129.693 144.519C126.207 143.493 122.72 142.434 119.233 141.374C109.355 138.366 99.4417 135.358 89.5629 132.35C87.7512 131.803 86.7941 130.401 87.0676 128.624C87.3069 126.915 88.7084 125.787 90.5884 125.889Z" fill="#C39367" fill-opacity="0.6"/>
<path d="M90.7927 145.339C92.9462 145.989 95.5441 146.741 98.1762 147.527C107.166 150.227 116.122 152.962 125.112 155.697C127.129 156.312 129.146 156.927 131.128 157.611C133.521 158.397 134.444 159.935 133.795 161.952C133.248 163.73 131.641 164.482 129.317 163.798C122.309 161.713 115.302 159.525 108.294 157.406C102.107 155.526 95.8859 153.68 89.6989 151.8C87.7163 151.185 86.7933 149.817 87.101 148.006C87.3745 146.262 88.5708 145.271 90.7927 145.339Z" fill="#C39367" fill-opacity="0.6"/>
<path d="M161.926 105.925C160.32 105.96 158.679 104.626 158.405 103.225C158.132 101.721 159.157 100.08 160.798 99.5674C165.823 97.995 170.882 96.4226 175.941 94.9186C184.213 92.4232 192.451 89.9279 200.723 87.4326C202.945 86.7489 204.723 87.5009 205.338 89.3468C205.919 91.1243 204.894 92.8676 202.638 93.5513C194.229 96.1492 185.82 98.7129 177.377 101.277C172.865 102.644 168.352 104.011 163.84 105.378C163.157 105.584 162.439 105.789 161.926 105.925Z" fill="#C39367" fill-opacity="0.6"/>
<path d="M20.9572 110.438C21.3332 107.669 21.6067 104.901 22.1878 102.166C22.4613 100.833 22.0169 100.286 21.0256 99.5681C18.8379 97.9957 16.5477 96.4233 14.6676 94.509C11.933 91.6377 12.4799 88.1852 16.0007 86.271C19.4874 84.3568 23.1107 82.6818 26.7683 81.212C28.3749 80.5625 29.1611 79.6737 29.7764 78.1355C31.2462 74.4438 32.887 70.8204 34.5961 67.2654C35.0405 66.3083 35.8267 65.4537 36.6471 64.8043C38.6297 63.1977 41.1592 63.3686 42.8683 65.5563C44.68 67.8465 46.2866 70.376 47.6197 72.9739C48.3717 74.4096 49.0896 74.3754 50.3885 74.1362C53.6701 73.5892 57.02 72.9739 60.3357 72.9056C64.2667 72.8372 66.2151 75.7086 64.3692 79.2294C62.455 82.8527 59.9255 86.2026 57.396 89.4842C56.1654 91.0908 55.4476 92.3555 55.9603 94.509C56.6098 97.3804 56.9174 100.354 56.9516 103.294C57.02 108.216 54.4904 110.438 49.5681 109.789C46.8677 109.447 44.2015 108.797 41.6036 108.045C40.2704 107.669 39.4501 107.909 38.4246 108.797C35.2456 111.532 31.9982 114.198 28.6141 116.694C27.657 117.411 26.1872 117.719 24.9566 117.787C23.1449 117.89 21.8118 116.625 21.3674 114.745C21.2649 114.369 21.1965 113.959 21.1965 113.549C21.1623 112.523 21.1965 111.498 21.1965 110.472C21.1281 110.438 21.0256 110.438 20.9572 110.438ZM50.4569 103.67C50.4569 102.303 50.5594 101.448 50.4227 100.628C49.9783 97.9273 49.534 95.2269 48.9528 92.5606C48.5768 90.8515 48.8503 89.45 50.0125 88.1511C51.2431 86.8179 52.4053 85.4164 53.5333 83.9808C54.6272 82.6135 55.6185 81.1436 56.6781 79.7079C56.5756 79.5712 56.473 79.4686 56.3705 79.3319C53.6701 79.9472 50.9696 80.5283 48.235 81.1436C45.2269 81.8273 44.2356 81.212 43.0051 78.3406C42.0138 76.0504 40.8516 73.8627 39.7577 71.6408C39.5526 71.6408 39.3475 71.6066 39.1424 71.6066C37.6726 75.4693 36.1343 79.2977 34.767 83.1946C34.1859 84.8011 33.1946 85.6557 31.6564 86.271C27.8279 87.7067 24.102 89.3133 20.3078 90.8515C20.3078 91.0566 20.2736 91.2617 20.2736 91.4668C22.5296 92.8683 24.7173 94.3381 27.0076 95.7054C29.1611 97.0044 29.5713 97.9273 29.0927 100.491C28.5458 103.362 28.0672 106.268 27.5545 109.139C27.7254 109.242 27.8621 109.31 28.033 109.413C30.6309 107.088 33.3997 104.901 35.8267 102.405C37.6042 100.594 39.245 100.457 41.501 101.243C44.3382 102.166 47.2779 102.781 50.4569 103.67Z" fill="#C39367" fill-opacity="0.6"/>
</svg>
