<svg width="207" height="205" viewBox="0 0 207 205" fill="none" xmlns="http://www.w3.org/2000/svg">
<path d="M204.678 25.3521C204.555 25.2372 180.405 2.2057 180.405 2.2057C179.482 1.31986 178.527 0.404297 176.744 0.404297H79.5183C76.6784 0.404297 74.3679 2.71448 74.3679 5.55431V21.369L40.1007 27.243C37.354 27.7249 35.5068 30.3535 35.9827 33.0974L37.7218 43.2376C26.5837 46.9857 15.1485 50.8496 4.10918 54.815C1.50064 55.7687 0.131717 58.6692 1.06253 61.2934L23.0219 122.337C23.4636 123.565 24.6213 124.33 25.8561 124.33C26.1942 124.33 26.5388 124.273 26.8753 124.152C28.4405 123.589 29.2529 121.864 28.6899 120.298L7.05543 60.1573C17.4559 56.4337 28.2265 52.7891 38.7526 49.2461L49.1013 109.579L61.0091 179.061C61.4392 181.514 63.5952 183.259 66.0286 183.259C66.3041 183.259 66.5836 183.237 66.8639 183.191L99.1157 177.656L124.318 173.336L86.4139 186.96L56.5237 197.707L33.3103 133.14C32.7477 131.575 31.023 130.763 29.4573 131.325C27.892 131.888 27.0797 133.613 27.6422 135.178L51.185 200.662C51.9379 202.721 53.8887 204.002 55.9507 204.002C56.5205 204.002 57.0991 203.904 57.6629 203.698L88.451 192.628L158.36 167.501L171.716 165.212H201.219C204.059 165.212 206.369 162.896 206.369 160.05V28.7457C206.37 26.943 205.392 26.0235 204.678 25.3521ZM196.698 26.0652H181.628L181.254 26.0668C180.533 26.0717 178.843 26.0841 178.415 25.6585C178.316 25.5601 178.2 25.2316 178.2 24.6216L178.165 8.39254L196.698 26.0652ZM200.346 159.187H80.3913V100.493C80.3913 98.8292 79.0428 97.4808 77.3796 97.4808C75.7163 97.4808 74.3679 98.8292 74.3679 100.493V160.049C74.3679 162.895 76.6784 165.211 79.5183 165.211H136.063L98.0973 171.719L66.7828 177.093L55.0379 108.56L42.08 33.0146L74.3675 27.4799V86.5182C74.3675 88.1815 75.7159 89.5299 77.3792 89.5299C79.0424 89.5299 80.3909 88.1815 80.3909 86.5182V6.42731H172.137L172.177 24.6285C172.177 26.8346 172.848 28.6192 174.171 29.9331C176.204 31.9517 179.078 32.0923 180.862 32.0923C181.016 32.0923 181.161 32.0911 181.297 32.0903L200.346 32.0891V159.187Z" fill="#C39367" fill-opacity="0.6"/>
<path d="M94.9092 47.168C94.9092 48.8312 96.2576 50.1797 97.9209 50.1797H184.03C185.693 50.1797 187.042 48.8312 187.042 47.168C187.042 45.5047 185.693 44.1562 184.03 44.1562H97.9209C96.2576 44.1562 94.9092 45.5047 94.9092 47.168Z" fill="#C39367" fill-opacity="0.6"/>
<path d="M184.03 65.5527H97.9209C96.2576 65.5527 94.9092 66.9012 94.9092 68.5644C94.9092 70.2277 96.2576 71.5761 97.9209 71.5761H184.03C185.693 71.5761 187.042 70.2277 187.042 68.5644C187.042 66.9012 185.693 65.5527 184.03 65.5527Z" fill="#C39367" fill-opacity="0.6"/>
<path d="M184.03 86.9492H97.9209C96.2576 86.9492 94.9092 88.2977 94.9092 89.9609C94.9092 91.6242 96.2576 92.9726 97.9209 92.9726H184.03C185.693 92.9726 187.042 91.6242 187.042 89.9609C187.042 88.2977 185.693 86.9492 184.03 86.9492Z" fill="#C39367" fill-opacity="0.6"/>
<path d="M184.03 108.346H97.9209C96.2576 108.346 94.9092 109.694 94.9092 111.357C94.9092 113.021 96.2576 114.369 97.9209 114.369H184.03C185.693 114.369 187.042 113.021 187.042 111.357C187.042 109.694 185.693 108.346 184.03 108.346Z" fill="#C39367" fill-opacity="0.6"/>
<path d="M184.03 129.74H97.9209C96.2576 129.74 94.9092 131.089 94.9092 132.752C94.9092 134.415 96.2576 135.764 97.9209 135.764H184.03C185.693 135.764 187.042 134.415 187.042 132.752C187.042 131.089 185.693 129.74 184.03 129.74Z" fill="#C39367" fill-opacity="0.6"/>
</svg>
