<svg width="175" height="175" viewBox="0 0 175 175" fill="none" xmlns="http://www.w3.org/2000/svg">
<g clip-path="url(#clip0)">
<path d="M157.934 15.1492H141.664V10.3707C141.664 4.72443 137.071 0.130859 131.424 0.130859C125.778 0.130859 121.185 4.72443 121.185 10.3707V15.1492H63.8416V10.3707C63.8416 4.72443 59.2481 0.130859 53.6018 0.130859C47.9556 0.130859 43.362 4.72443 43.362 10.3707V15.2755C43.0719 15.1953 42.7678 15.1492 42.4521 15.1492H28.8522C19.4419 15.1492 11.7859 22.8052 11.7859 32.2156V90.3548C11.7859 92.2399 13.3144 93.768 15.1992 93.768C17.084 93.768 18.6124 92.2399 18.6124 90.3548V50.3059H141.664C143.549 50.3059 145.077 48.7778 145.077 46.8926C145.077 45.0075 143.549 43.4793 141.664 43.4793H18.6124V32.2156C18.6124 26.5693 23.206 21.9758 28.8522 21.9758H42.4521C42.7678 21.9758 43.0719 21.9293 43.362 21.8495V26.2423C43.362 31.8886 47.9556 36.4821 53.6018 36.4821C59.2481 36.4821 63.8416 31.8886 63.8416 26.2423V21.9758H121.185V26.2423C121.185 31.8886 125.778 36.4821 131.424 36.4821C137.071 36.4821 141.664 31.8886 141.664 26.2423V21.9758H157.934C163.58 21.9758 168.174 26.5693 168.174 32.2156V161.918C168.174 165.306 165.417 168.064 162.028 168.064C158.639 168.064 155.882 165.306 155.882 161.918V153.088C155.882 151.203 154.354 149.675 152.469 149.675H112.765C110.881 149.675 109.352 151.203 109.352 153.088C109.352 154.973 110.881 156.501 112.765 156.501H149.056V161.918C149.056 164.14 149.618 166.233 150.607 168.064H13.2116C9.82396 168.064 7.06774 165.307 7.06774 161.92V156.501H83.4652C85.35 156.501 86.8784 154.973 86.8784 153.088C86.8784 151.203 85.35 149.675 83.4652 149.675H49.3612C55.3255 144.538 59.1129 136.94 59.1129 128.47C59.1129 113.037 46.5572 100.481 31.1241 100.481C15.691 100.481 3.13532 113.037 3.13532 128.47C3.13532 136.94 6.92268 144.538 12.887 149.675H3.65448C1.76967 149.675 0.241211 151.203 0.241211 153.088V161.92C0.241211 169.072 6.05981 174.89 13.2116 174.89H162.028C169.181 174.89 175 169.071 175 161.918V32.2156C175 22.8052 167.344 15.1492 157.934 15.1492ZM57.0151 26.2423C57.0151 28.1244 55.4839 29.6556 53.6018 29.6556C51.7198 29.6556 50.1886 28.1244 50.1886 26.2423V10.3707C50.1886 8.48858 51.7198 6.95739 53.6018 6.95739C55.4839 6.95739 57.0151 8.48858 57.0151 10.3707V26.2423ZM134.838 26.2423C134.838 28.1244 133.306 29.6556 131.424 29.6556C129.542 29.6556 128.011 28.1244 128.011 26.2423V10.3707C128.011 8.48858 129.542 6.95739 131.424 6.95739C133.306 6.95739 134.838 8.48858 134.838 10.3707V26.2423ZM9.96185 128.47C9.96185 116.801 19.4552 107.307 31.1241 107.307C42.793 107.307 52.2864 116.801 52.2864 128.47C52.2864 140.139 42.793 149.632 31.1241 149.632C19.4552 149.632 9.96185 140.139 9.96185 128.47Z" fill="#C39367" fill-opacity="0.6"/>
<path d="M160.089 44.4786C159.454 43.8437 158.574 43.4785 157.676 43.4785C156.778 43.4785 155.898 43.8437 155.263 44.4786C154.628 45.1135 154.263 45.9941 154.263 46.8918C154.263 47.7895 154.628 48.6701 155.263 49.305C155.898 49.9398 156.778 50.305 157.676 50.305C158.574 50.305 159.454 49.9398 160.089 49.305C160.724 48.6701 161.089 47.7895 161.089 46.8918C161.089 45.9941 160.724 45.1135 160.089 44.4786Z" fill="#C39367" fill-opacity="0.6"/>
<path d="M102.18 150.672C101.545 150.038 100.664 149.676 99.7668 149.676C98.8691 149.676 97.9885 150.038 97.3536 150.672C96.7187 151.311 96.3535 152.188 96.3535 153.086C96.3535 153.987 96.7184 154.864 97.3536 155.502C97.9885 156.137 98.8691 156.499 99.7668 156.499C100.664 156.499 101.545 156.137 102.18 155.502C102.814 154.864 103.18 153.983 103.18 153.086C103.18 152.188 102.815 151.311 102.18 150.672Z" fill="#C39367" fill-opacity="0.6"/>
<path d="M77.4655 103.896C70.3137 103.896 64.4951 109.715 64.4951 116.867C64.4951 124.019 70.3137 129.837 77.4655 129.837C84.6173 129.837 90.4359 124.019 90.4359 116.867C90.4359 109.715 84.6173 103.896 77.4655 103.896ZM77.4655 123.011C74.0779 123.011 71.3217 120.255 71.3217 116.867C71.3217 113.479 74.0779 110.723 77.4655 110.723C80.8532 110.723 83.6094 113.479 83.6094 116.867C83.6094 120.255 80.8532 123.011 77.4655 123.011Z" fill="#C39367" fill-opacity="0.6"/>
<path d="M109.322 103.896C102.17 103.896 96.3516 109.715 96.3516 116.867C96.3516 124.019 102.17 129.837 109.322 129.837C116.474 129.837 122.292 124.019 122.292 116.867C122.292 109.715 116.474 103.896 109.322 103.896ZM109.322 123.011C105.934 123.011 103.178 120.255 103.178 116.867C103.178 113.479 105.934 110.723 109.322 110.723C112.71 110.723 115.466 113.479 115.466 116.867C115.466 120.255 112.71 123.011 109.322 123.011Z" fill="#C39367" fill-opacity="0.6"/>
<path d="M141.18 103.896C134.029 103.896 128.21 109.715 128.21 116.867C128.21 124.019 134.029 129.837 141.18 129.837C148.332 129.837 154.151 124.019 154.151 116.867C154.151 109.715 148.332 103.896 141.18 103.896ZM141.18 123.011C137.793 123.011 135.036 120.255 135.036 116.867C135.036 113.479 137.793 110.723 141.18 110.723C144.568 110.723 147.324 113.479 147.324 116.867C147.324 120.255 144.568 123.011 141.18 123.011Z" fill="#C39367" fill-opacity="0.6"/>
<path d="M45.6081 68.3984C38.4563 68.3984 32.6377 74.217 32.6377 81.3689C32.6377 88.5207 38.4563 94.3393 45.6081 94.3393C52.7599 94.3393 58.5785 88.5207 58.5785 81.3689C58.5785 74.217 52.7599 68.3984 45.6081 68.3984ZM45.6081 87.5127C42.2204 87.5127 39.4642 84.7565 39.4642 81.3689C39.4642 77.9812 42.2204 75.225 45.6081 75.225C48.9958 75.225 51.752 77.9812 51.752 81.3689C51.752 84.7565 48.9958 87.5127 45.6081 87.5127Z" fill="#C39367" fill-opacity="0.6"/>
<path d="M109.322 68.3984C102.17 68.3984 96.3516 74.217 96.3516 81.3689C96.3516 88.5207 102.17 94.3393 109.322 94.3393C116.474 94.3393 122.292 88.5207 122.292 81.3689C122.292 74.217 116.474 68.3984 109.322 68.3984ZM109.322 87.5127C105.934 87.5127 103.178 84.7565 103.178 81.3689C103.178 77.9812 105.934 75.225 109.322 75.225C112.71 75.225 115.466 77.9812 115.466 81.3689C115.466 84.7565 112.71 87.5127 109.322 87.5127Z" fill="#C39367" fill-opacity="0.6"/>
<path d="M141.18 68.3984C134.029 68.3984 128.21 74.217 128.21 81.3689C128.21 88.5207 134.029 94.3393 141.18 94.3393C148.332 94.3393 154.151 88.5207 154.151 81.3689C154.151 74.217 148.332 68.3984 141.18 68.3984ZM141.18 87.5127C137.793 87.5127 135.036 84.7565 135.036 81.3689C135.036 77.9812 137.793 75.225 141.18 75.225C144.568 75.225 147.324 77.9812 147.324 81.3689C147.324 84.7565 144.568 87.5127 141.18 87.5127Z" fill="#C39367" fill-opacity="0.6"/>
<path d="M77.4655 68.3984C70.3137 68.3984 64.4951 74.217 64.4951 81.3689C64.4951 88.5207 70.3137 94.3393 77.4655 94.3393C84.6173 94.3393 90.4359 88.5207 90.4359 81.3689C90.4359 74.217 84.6173 68.3984 77.4655 68.3984ZM77.4655 87.5127C74.0779 87.5127 71.3217 84.7565 71.3217 81.3689C71.3217 77.9812 74.0779 75.225 77.4655 75.225C80.8532 75.225 83.6094 77.9812 83.6094 81.3689C83.6094 84.7565 80.8532 87.5127 77.4655 87.5127Z" fill="#C39367" fill-opacity="0.6"/>
<path d="M43.2855 120.152C41.9523 118.819 39.7917 118.819 38.4581 120.152L27.3425 131.268L23.5438 127.469C22.2106 126.136 20.05 126.136 18.7165 127.469C17.3836 128.802 17.3836 130.964 18.7165 132.297L24.9289 138.509C25.5693 139.149 26.4373 139.508 27.3425 139.508C28.2477 139.508 29.1157 139.149 29.756 138.509L43.2855 124.979C44.6184 123.646 44.6184 121.485 43.2855 120.152Z" fill="#C39367" fill-opacity="0.6"/>
</g>
<defs>
<clipPath id="clip0">
<rect width="174.759" height="174.759" fill="white" transform="translate(0.241211 0.130859)"/>
</clipPath>
</defs>
</svg>
