<svg width="197" height="197" viewBox="0 0 197 197" fill="none" xmlns="http://www.w3.org/2000/svg">
<g clip-path="url(#clip0)">
<path d="M191.312 71.8316L181.483 63.3375C180.264 62.2831 178.42 62.4178 177.366 63.6378C176.312 64.8574 176.446 66.7007 177.666 67.7547L187.494 76.2488C190.998 79.2766 191.385 84.5903 188.357 88.0938L124.517 161.963C123.463 163.182 123.597 165.026 124.817 166.08C125.369 166.557 126.048 166.791 126.724 166.791C127.544 166.791 128.357 166.448 128.934 165.781L192.774 91.911C197.907 85.972 197.251 76.9641 191.312 71.8316Z" fill="#C39367" fill-opacity="0.6"/>
<path d="M174.007 56.878L128.54 17.5849C125.663 15.0984 121.99 13.8826 118.198 14.1573C114.405 14.4331 110.947 16.17 108.461 19.0467L104.129 24.0594C103.075 25.2794 103.208 27.1227 104.428 28.1768C105.649 29.2316 107.492 29.0965 108.546 27.8769L112.878 22.8642C114.345 21.1674 116.384 20.1427 118.622 19.9798C120.859 19.8154 123.026 20.5349 124.723 22.0017L170.19 61.2948C170.742 61.772 171.421 62.0055 172.097 62.0055C172.916 62.0055 173.73 61.6629 174.307 60.9953C175.361 59.7754 175.227 57.932 174.007 56.878Z" fill="#C39367" fill-opacity="0.6"/>
<path d="M146.297 46.5564L67.6397 20.1738C60.1965 17.6774 52.1118 21.7016 49.6157 29.1436L48.5781 32.2371C48.0654 33.7653 48.889 35.4201 50.4176 35.9329C51.9462 36.4456 53.6003 35.6223 54.1134 34.0934L55.1511 30.9999C56.6236 26.6094 61.3925 24.2355 65.7834 25.7084L144.441 52.0906C148.831 53.5635 151.205 58.3328 149.732 62.7229L113.136 171.835C112.623 173.363 113.447 175.017 114.975 175.53C115.283 175.633 115.596 175.683 115.904 175.683C117.124 175.683 118.261 174.912 118.671 173.691L155.268 64.5799C157.763 57.1383 153.74 49.0524 146.297 46.5564Z" fill="#C39367" fill-opacity="0.6"/>
<path d="M98.113 39.2383H15.1493C7.29949 39.2383 0.913086 45.6243 0.913086 53.4741V168.559C0.913086 176.409 7.29949 182.796 15.1493 182.796H98.1134C105.963 182.796 112.35 176.409 112.35 168.559V53.4741C112.349 45.6243 105.963 39.2383 98.113 39.2383ZM106.511 168.559C106.511 173.19 102.743 176.957 98.113 176.957H15.1493C10.5184 176.957 6.7513 173.19 6.7513 168.559V53.4741C6.7513 48.8433 10.5188 45.0761 15.1493 45.0761H98.1134C102.744 45.0761 106.511 48.8436 106.511 53.4741V168.559H106.511Z" fill="#C39367" fill-opacity="0.6"/>
<path d="M99.6323 119.805H13.63C12.0179 119.805 10.7109 121.112 10.7109 122.724C10.7109 124.336 12.0179 125.643 13.63 125.643H99.6326C101.245 125.643 102.552 124.336 102.552 122.724C102.551 121.112 101.244 119.805 99.6323 119.805Z" fill="#C39367" fill-opacity="0.6"/>
<path d="M86.0241 136.498H49.8771C48.265 136.498 46.958 137.805 46.958 139.417C46.958 141.029 48.265 142.336 49.8771 142.336H86.0241C87.6363 142.336 88.9432 141.029 88.9432 139.417C88.9432 137.805 87.6363 136.498 86.0241 136.498Z" fill="#C39367" fill-opacity="0.6"/>
<path d="M40.1465 136.498H27.2375C25.6253 136.498 24.3184 137.805 24.3184 139.417C24.3184 141.029 25.6253 142.336 27.2375 142.336H40.1465C41.7586 142.336 43.0656 141.029 43.0656 139.417C43.0656 137.805 41.7586 136.498 40.1465 136.498Z" fill="#C39367" fill-opacity="0.6"/>
<path d="M86.024 147.658H27.2375C25.6253 147.658 24.3184 148.965 24.3184 150.577C24.3184 152.189 25.6253 153.496 27.2375 153.496H86.024C87.6361 153.496 88.9431 152.189 88.9431 150.577C88.9431 148.965 87.6361 147.658 86.024 147.658Z" fill="#C39367" fill-opacity="0.6"/>
<path d="M86.024 158.814H27.2375C25.6253 158.814 24.3184 160.121 24.3184 161.734C24.3184 163.346 25.6253 164.653 27.2375 164.653H86.024C87.6361 164.653 88.9431 163.346 88.9431 161.734C88.9431 160.121 87.6361 158.814 86.024 158.814Z" fill="#C39367" fill-opacity="0.6"/>
<path d="M88.714 73.1086C88.3707 72.0519 87.4574 71.2816 86.3579 71.1222L67.626 68.4003L59.249 51.4262C58.7569 50.4298 57.7425 49.7988 56.6313 49.7988C55.5204 49.7988 54.5057 50.4298 54.0135 51.4262L45.6362 68.4003L26.9042 71.1222C25.8048 71.2816 24.8911 72.0519 24.5482 73.1086C24.2049 74.1653 24.4914 75.325 25.2867 76.1005L38.8416 89.3128L35.6417 107.97C35.454 109.064 35.9042 110.171 36.8029 110.824C37.3115 111.194 37.9138 111.382 38.5189 111.382C38.9831 111.382 39.4497 111.271 39.8769 111.047L56.6313 102.238L73.3856 111.047C74.3691 111.564 75.5608 111.477 76.4596 110.824C77.3588 110.171 77.8085 109.064 77.6208 107.97L74.421 89.3128L87.9754 76.1005C88.7708 75.325 89.0573 74.1653 88.714 73.1086ZM69.2473 86.2037C68.5591 86.8744 68.2451 87.8407 68.4076 88.7875L70.8671 103.127L57.9894 96.3565C57.1386 95.9098 56.1228 95.9098 55.2728 96.3565L42.3951 103.127L44.8545 88.7875C45.0167 87.8407 44.7031 86.8744 44.0149 86.2037L33.597 76.0487L47.9945 73.9562C48.9452 73.8181 49.7669 73.2211 50.1922 72.3593L56.6309 59.3126L63.0696 72.3593C63.4945 73.2207 64.3166 73.8181 65.2673 73.9562L79.6652 76.0487L69.2473 86.2037Z" fill="#C39367" fill-opacity="0.6"/>
</g>
<defs>
<clipPath id="clip0">
<rect width="195.319" height="195.319" fill="white" transform="translate(0.913086 0.796875)"/>
</clipPath>
</defs>
</svg>
