<svg width="50" height="47" viewBox="0 0 50 47" fill="none" xmlns="http://www.w3.org/2000/svg">
<g filter="url(#filter0_i)">
<mask id="mask0" mask-type="alpha" maskUnits="userSpaceOnUse" x="0" y="4" width="42" height="43">
<path d="M7.99999 46.1461C3.58172 46.1461 0 42.5644 0 38.1461V12.3562C0 7.94314 3.57356 4.36358 7.98659 4.35618L33.8332 4.31287C38.2567 4.30545 41.8466 7.88934 41.8466 12.3129V38.1461C41.8466 42.5644 38.2649 46.1461 33.8466 46.1461H7.99999Z" fill="white"/>
</mask>
<g mask="url(#mask0)">
<g clip-path="url(#clip0)">
<rect width="48" height="46" fill="#E84B37" fill-opacity="0.99"/>
<path d="M-55.05 -25.5312C-58.2188 -28.7 -63.8438 -29.6375 -73.3125 -27.1438C-63.7125 -30.4438 -58.1625 -29.45 -55.05 -25.5312ZM67.3125 37.0375V37.9937C59.7937 36.9812 52.8375 33.2875 45.5812 30.1187C59.5312 37.7125 63.6 41.7812 67.3125 41.9688V60.0063C41.6813 69.2688 5.83125 52.0563 21.2625 44.95C27.9375 41.875 57.9563 52.6188 45.75 37C47.8125 40.75 48.1875 44.6875 41.1 43.5625C43.5 43.1687 46.3125 42.25 44.2313 39.1C42.15 35.95 44.325 44.275 29.625 40C18 36.625 1.125 45.8125 12.1875 34.75C-11.8125 52.1875 36.1875 73.0188 63.8625 65.1625C60.5437 66.0438 55.2562 66.325 49.275 65.95C55.5 65.8563 61.5375 64.4875 67.2938 62.1437V67.8813C46.4438 81.55 27 84.7 -8.34375 71.125C22.1062 90.0625 -13.0875 81.1938 -13.875 80.9688C-11.0813 81.7375 2.8125 83.7062 1.5 81.2687C0.1875 78.8312 -10.2 79.6375 -18.1875 76.5063C-14.8875 76.1687 -9.05625 78.3625 -16.3125 72.1C-2.19375 83.7625 -13.1437 71.0688 -20.8875 65.35C-21.975 64.45 -23.0062 63.4938 -24 62.4813C-22.9875 63.3063 -22.1438 63.4937 -21.5813 62.8375C-23.6625 59.2375 -25.4812 55.8438 -27.075 52.6375C-26.625 53.2375 -26.1562 53.8562 -25.65 54.4562C-54.8062 -5.73125 18.375 -29.4875 21.6562 -50.3188C21.3938 -49.4938 20.9812 -48.6688 20.4 -47.8625C21.3 -50.2625 21.7875 -52.0063 21.5063 -53.7312H26.1938C26.2875 -53.4875 26.4 -53.225 26.475 -52.9625C26.7188 -53.225 26.925 -53.4875 27.1125 -53.7312H33.45C33.4688 -50.1125 30.8438 -45.8188 23.3438 -40.325C29.1 -43.9813 33.9375 -48.425 35.025 -53.75H38.1C30.5063 -45.875 19.725 -34.1562 13.4438 -31.925C-7.44375 -22.1187 -20.6063 -1.30625 -23.7375 19.1125C-21.075 10.2625 -15.975 1.15 -9.03751 -7.53125C-19.2375 6.4 -25.2375 22.4688 -23.9062 36.25C-23.3063 40.3375 -22.2188 44.2562 -20.625 47.8937C-15.45 58.1687 -4.2 65.7812 15.1125 67.975C-8.38125 55.0938 -10.0312 22.675 20.25 18.9625C29.9062 17.3687 38.9437 20.1438 47.8312 23.2563C36.4312 20.3875 20.9062 15.6813 11.775 23.3125C21.7687 22.1312 32.0813 23.2375 41.7 26.4625C31.0313 24.325 16.5375 18.9437 8.08125 28.6187C10.3125 27.25 13.3125 24.625 19.3125 24.625C10.5 26.3125 11.0625 28.75 19.4625 28.225C4.96875 29.1625 -9.1875 40.1875 4.66875 55.3C18.525 70.4125 32.625 70.525 27.7687 73.6938C19.125 79.375 -8.53125 66.8125 -17.175 54.4C-17.4563 54.1 -17.7188 53.8 -18 53.5C-6.7125 70.7312 23.4562 83.0312 41.3625 74.275C48.9375 70.5625 -17.25 54.4375 6.13126 33.55C12.45 27.9062 28.95 27.85 37.3125 35.0875C31.875 31.5625 12.375 29.6125 18.375 35.125C22.875 39.25 42.8625 41.6687 39.7687 36.1562C37.9875 33.8125 35.7 32.0312 33.1313 30.7375C33.1688 30.7562 33.2062 30.7562 33.2437 30.775C11.475 18.5125 36.1125 25.6 58.8 34.9937C61.7437 36.5125 64.5938 37.1125 67.3125 37.0375ZM-16.4625 55.1313C-16.4625 55.1313 -8.34375 64.5813 5.0625 69.25C15.6 72.9062 24.8812 72.2688 24.9375 71.875C24.9938 71.4437 13.8 71.5188 0.5625 65.6875C-10.2937 60.9062 -16.4625 55.1313 -16.4625 55.1313ZM10.5938 -32.3C14.3438 -34.85 18.0938 -37.3813 21.8438 -39.9313C18.7125 -38.675 12.9 -34.7375 10.5938 -32.3ZM-24.5625 39.25C-24.7125 37.375 -25.8187 31.3562 -25.6687 29.4062C-26.9812 10.0375 -18.15 -11.2625 1.35001 -24.65C-22.7625 -9.66875 -31.125 11.875 -24.5625 39.25ZM-26.7563 8.78125C-24.3188 3.94375 -21.7687 -1.1375 -19.1812 -6.275C-21.7687 -3.2 -26.925 7 -26.7563 8.78125ZM-1.16251 71.575C-12.4688 66.1375 -22.7812 57.7937 -28.1062 46.1875C-25.8187 56.1062 -10.7625 70.9938 -1.16251 71.575ZM46.6125 35.1625C48.15 37.45 49.125 38.3125 51.3563 42.325C59.2875 56.5938 15.4313 39.1562 20.175 51.1C23.0625 58.375 43.3125 61.9375 49.3125 61.9375C32.8125 58.9375 21.8625 54.5875 23.0063 49.7875C24.75 42.625 76.5 67.5625 46.6125 35.1625ZM-37.5 30.625C-37.6125 27.2688 -37.9313 20.0875 -37.3125 16.75C-38.3625 19.45 -37.9313 26.7812 -37.5 30.625ZM-24 62.4625C-24.7125 61.75 -25.3875 61.0188 -26.0437 60.25C-25.3125 61.2063 -24.6188 61.9562 -24 62.4625ZM-26.0437 60.2687C-30.4688 54.475 -36.0938 44.0875 -37.3125 33.4375C-36.975 44.2562 -33.15 52.0375 -26.0437 60.2687ZM3.88126 -51.1062C4.8375 -49.5312 5.26875 -47.8063 5.4375 -46.1562C5.49375 -47.9938 5.04375 -49.7 3.88126 -51.1062ZM1.53751 -53.75H-0.356247C1.575 -53.1125 2.94375 -52.2125 3.8625 -51.1062C3.3 -52.0437 2.55 -52.9437 1.53751 -53.75ZM-28.6875 50.125C-33 41.3875 -33.6375 38.1062 -34.875 31.5625C-34.6312 39.325 -33.9375 42.0625 -28.6875 50.125ZM-34.5 66.4375C-27.75 74.125 -11.625 78.625 -20.25 69.625C-17.8125 75.8125 -29.25 71.125 -34.5 66.4375ZM-8.77499 -48.5188C-8.86874 -50.3375 -9.28125 -52.0813 -10.0688 -53.75H-14.1375C-12.9187 -53.225 -11.775 -52.55 -10.7063 -51.6687C-12.5813 -52.3625 -14.4562 -53.0375 -16.4062 -53.75H-18.4125C-13.7625 -52.6063 -10.0125 -50.8625 -8.77499 -48.5188ZM67.3125 -53.75V-46.3813C54.825 -51.5375 44.25 -47.225 38.25 -42.125C32.25 -37.025 23.85 -36.05 17.3062 -32.075C24.2062 -36.9312 33.75 -38.9375 39.45 -44.75C45.15 -50.5625 42.9938 -51.4062 44.1375 -53.75H67.3125ZM57.8625 -51.35C53.8312 -51.2938 50.3813 -49.7188 47.0063 -47.8813C50.5688 -49.2125 54.2062 -50.375 57.8625 -51.35ZM48.3563 64.075C43.9313 63.7938 39.1313 63.1562 34.4813 62.1437C39.1688 63.55 43.8 64.15 48.3563 64.075ZM35.4188 64.0375C32.7188 63.2313 30.0188 62.1812 27.2812 60.8312C-0.375 45.4375 23.8125 41.5 35.4562 43.4688C28.5 40.5625 8.0625 36.9813 13.8562 51.7563C12.5812 50.1625 9.9375 47.875 10.5 43.5625C6.75 53.875 22.9688 61.3188 35.4188 64.0375ZM14.0625 -29.5625C3.975 -23.4312 -1.9125 -17.2625 -9.01875 -7.55C-1.9125 -16.4375 3.84375 -22.3625 14.0625 -29.5625ZM67.3125 30.625V29.05C64.575 28.6 56.3438 26.2 53.625 25.375C57.3938 26.8562 66.45 30.0625 67.3125 30.625ZM-7.06876 -53.75H-0.5625C12.225 -46.9625 -4.55625 -35.5813 -7.35001 -27.7063C-2.49375 -30.125 5.175 -39.1625 5.4375 -46.1375C6.20625 -38.3375 1.05 -31.7937 16.8188 -46.025C19.5188 -47.8062 20.025 -50.7125 18.9937 -53.75H19.95C21.6375 -37.6063 -10.8375 -29.3937 -14.1 -21.4437C-6.13126 -23.2062 -19.4062 -17.15 -17.4375 -15.8938C-8.925 -21.4813 -2.34375 -29.4688 6.33749 -34.8125C-13.9125 -20.6375 -36 4.975 -35.1937 29.9125C-41.1 -1.2125 -1.93124 -34.925 -3.89999 -47.3375C-4.875 -53.375 -6.16875 -52.1562 -7.06876 -53.75ZM-10.875 -27.95C-11.9625 -28.2312 -13.9875 -26.3375 -14.025 -24.3313C-12.825 -25.7 -11.85 -26.825 -10.875 -27.95ZM-0.393753 -46.475C-0.637505 -47.225 -0.862503 -47.9 -1.14375 -48.7812C-2.0625 -47.1875 -1.8375 -46.475 -0.393753 -46.475ZM1.63126 -45.6875C1.06876 -46.6438 1.25625 -48.8375 0.206253 -48.4438C0.618752 -47.6 -0.787498 -46.1562 1.63126 -45.6875ZM-4.91251 -53.2437C-3.09375 -47.075 -2.19375 -53.2812 1.875 -49.1938C1.5 -51.4625 -1.66875 -53.5437 -4.91251 -53.2437ZM-45.75 58.5625C-40.8563 67.975 -37.6312 73.6562 -23.0625 76.9375C-31.95 73.0563 -38.85 68.0687 -45.75 58.5625ZM-75.375 59.7437V61.3375C-66.9562 70.6375 -58.1063 81.3625 -48.3375 85.6375C-46.5 86.8 -44.6438 87.9062 -42.7688 88.9375H-40.1062C-46.6875 85.7688 -52.6125 81.9625 -57.5812 77.5562C-63.4875 73.5812 -69.3563 66.4 -75.375 59.7437ZM-75.375 -29.3938V-30.8187C-31.125 -48.5 -47.25 2.125 -49.3125 14.6687C-51.375 27.2125 -46.5 51.4375 -42.5625 45.5688C-38.625 39.7 -52.3125 31.5625 -26.0063 -19.3812C-37.4813 -3.21875 -44.625 25.1875 -47.5687 25.2625C-50.5125 25.3375 -48.9375 15.625 -47.25 11.875C-49.3125 49.1875 -18.3 -58.9625 -73.6875 -35.3563C-74.1375 -35.1125 -74.7 -34.8687 -75.375 -34.6063V-39.1625C-59.025 -47.6375 -49.5 -52.7375 -35.9062 -52.7375C-22.3125 -52.7375 -11.5312 -49.8687 -8.86874 -45.8375C-11.55 -21.0687 -64.0875 16.6562 -28.3688 62.5562C-20.7938 70.9375 -24.375 71.5 -32.4375 65.3125C-40.5 59.125 -49.0687 44.6688 -52.4437 27.175C-52.2 37.5813 -50.7563 47.875 -46.275 56.4625C-51.0188 49.9375 -53.0625 44.5 -54.3187 32.1625C-55.575 19.825 -51.7875 1.91875 -51.4125 -11.9938C-50.8125 -7.625 -50.8312 -4.90625 -51 -1.0625C-42.45 -30.5 -59.0812 -35.5813 -75.375 -29.3938ZM-55.3312 -46.4937C-58.3125 -45.9125 -64.2 -43.925 -66.4125 -42.125C-62.7188 -43.5875 -59.025 -45.0312 -55.3312 -46.4937ZM-16.6125 -46.7938C-13.8563 -44.1688 -14.7188 -39.7625 -16.2563 -36.125C-16.05 -36.425 -15.825 -36.7437 -15.5813 -37.0625C-13.0312 -40.7375 -13.875 -44.5063 -16.6125 -46.7938ZM-16.8 -44.4688C-16.575 -41.3938 -16.9125 -38.6937 -17.9062 -35.6C-15.3563 -39.3875 -14.9625 -42.5375 -16.8 -44.4688ZM-34.4437 -49.6625C-31.4625 -49.6625 -28.5 -49.6625 -25.5188 -49.6625C-28.05 -49.9063 -31.875 -49.9063 -34.4437 -49.6625ZM-17.475 -43.6625C-20.4188 -50.6187 -32.2687 -49.3063 -38.625 -48.3125C-31.65 -48.3313 -22.2375 -49.9813 -17.475 -43.6625ZM-18.5625 -35.9188C-20.5875 -31.7188 -24.75 -29.3 -27.15 -25.4375C-24.5625 -25.5875 -18.8438 -33.0125 -18.5625 -35.9188ZM62.6812 -4.11875C58.9312 -8.15 58.7437 -8.88125 60.7125 -11.5062C56.85 -9.59375 60.0938 -5.61875 62.6812 -4.11875ZM54.3375 -47.4688C58.65 -47.6937 63.0188 -46.5312 67.3125 -45.5375V-45.7062C63.0938 -47.3562 58.9125 -49.0437 54.3375 -47.4688ZM67.3125 22.7125V20.4625C62.5688 19.0187 57.9375 17.725 53.2687 17.1812C57.6937 18.6062 62.5125 21.85 67.3125 22.7125ZM-75.375 67.5063C-67.875 74.9688 -60.3375 82.4688 -52.3312 88.9375H-48.5062C-57.9187 80.875 -66.5812 70.9938 -75.375 63.5688V67.5063ZM-75.375 68.8563V77.7062C-69.975 80.3875 -64.05 84.1 -57.5812 88.9375H-54.675C-61.8375 84.3813 -68.625 76.2438 -75.375 68.8563ZM67.3125 -2.09375V-13.0625C66.1125 -12.3688 64.8187 -11.6937 63.4312 -11.0375C62.2312 -7.5875 64.1438 -4.34375 67.3125 -2.09375ZM57.975 -11.525C53.6438 -9.40625 56.8125 -7.25 58.8563 -4.9625C57.075 -8.45 55.1062 -8.80625 57.975 -11.525ZM46.9875 -37.1937C56.625 -39.875 61.1062 -37.3063 67.3125 -34.1188V-34.5687C60.9375 -37.6812 57.75 -41 46.9875 -37.1937ZM67.3125 -20.0375V-20.0563C67.2375 -20.0187 67.1625 -19.9813 67.0875 -19.9437C67.1625 -19.9813 67.2375 -20.0187 67.3125 -20.0375ZM66.075 88.9375C66.4875 88.7125 66.9 88.5063 67.3125 88.2812V87.25C66.4875 87.8313 65.6437 88.375 64.8 88.9375H66.075ZM-75.1313 -53.75C-75.1875 -53.7312 -75.2438 -53.7125 -75.2812 -53.6937C-75.225 -53.7125 -75.1688 -53.7312 -75.1125 -53.75H-75.1313ZM-75.375 -53.675C-75.3375 -53.675 -75.3188 -53.6937 -75.2812 -53.6937C-75.3188 -53.6937 -75.3375 -53.675 -75.375 -53.675ZM-69.15 -53.75C-71.475 -52.8312 -73.5563 -52.1 -75.375 -51.5375V-45.5C-67.3875 -48.725 -59.175 -51.4625 -51.3 -53.75H-69.15ZM-17.9438 88.9375H-14.7937C-19.2188 87.325 -31.0125 80.7063 -32.4938 79.8813C-26.925 83.8375 -21.825 86.9312 -17.9438 88.9375ZM-75.375 -20.6V-23.7875C-34.9688 -34.1 -73.6875 39.1937 -42.6 72.1187C-71.25 54.0625 -59.0625 15.0625 -61.8563 -11.5813C-62.775 -20.375 -68.625 -21.275 -75.375 -20.6ZM-64.6875 -21.6875C-55.125 -11.1875 -61.4062 10.75 -60.825 26.5188C-60.8813 15.2125 -48.75 -18.125 -64.6875 -21.6875ZM36.3 88.9375C46.5187 86.275 56.1938 82.0375 64.5 76.1313C65.4563 75.1938 66.3938 74.275 67.2938 73.3937V69.8312C54.075 78.0437 40.4062 85.0188 26.8687 88.9375H36.3ZM-41.5312 73.1875C-39.3375 75.325 -36.7125 77.2188 -33.5625 78.8125L-41.5312 73.1875ZM42.1875 20.5C31.0312 12.7 58.8375 27.4188 67.3125 28.3938V25.1125C53.775 21.3063 18.8438 10.45 42.1875 20.5ZM-60.8438 54.1187C-58.5 59.875 -56.0625 68.875 -41.25 76.75C-52.6875 67.375 -56.625 61.375 -60.8438 54.1187ZM-70.875 32.875C-70.3125 40.75 -66.0938 46.0563 -62.25 50.6875C-71.775 22.3375 -52.7625 -18.65 -75.375 -19.0813V-16.5687C-73.5563 -16.8312 -73.3125 -18.875 -69.8438 -17.1687C-61.0688 -12.3312 -64.2375 2.44375 -66.3375 9.64375C-66.825 2.875 -63.15 -6.85625 -69.5625 -11.4875C-75.75 -13.4938 -68.4187 -3.66875 -69.6187 -0.649998C-70.9312 -4.68125 -72.9187 -7.30625 -75.375 -8.84375V-4.15625C-68.4375 2.425 -70.0875 20.7812 -69.8438 28.6562C-72.6562 23.05 -73.7625 16.6 -75.375 10.45V40.1125C-71.25 47.5938 -67.8187 55.6375 -65.25 61.7313C-68.7 57.4 -71.9812 52.1125 -75.375 46.9188V56.0875C-66.6562 64.45 -57.7875 75.4375 -48.1687 82.7313C-53.0625 79.7875 -57.7313 76.4125 -62.1188 72.6063C-56.1188 78.1938 -49.4625 82.825 -42.375 86.575C-41.3812 87.1375 -40.3875 87.6438 -39.375 88.0938C-38.7938 88.375 -38.2313 88.6375 -37.65 88.9188H-19.2563C-58.3125 79.9375 -72.1875 43.1875 -70.875 32.875ZM62.4562 88.9375C64.1062 88.15 65.7375 87.3062 67.3125 86.4062V76.4125C58.3687 81.9625 49.7437 86.0688 41.4562 88.9375H62.4562ZM52.65 30.4937C58.1438 33.4 62.8125 35.6875 67.3125 35.6313V30.85C66.8438 30.8313 65.4937 30.4938 62.9625 29.725C72.5813 38.8563 59.325 33.9437 52.65 30.4937ZM-75.375 88.9375H-63.45C-67.4625 86.6313 -71.475 84.2875 -75.375 82.225V88.9375ZM-10.3125 10.3375C-10.3125 10.3187 -10.2937 10.3 -10.2937 10.2812C-10.2937 10.3 -10.2937 10.3187 -10.3125 10.3375ZM-10.0875 9.8875C-10.1625 10.0187 -10.2188 10.15 -10.2937 10.2812C-10.2188 10.15 -10.1625 10.0187 -10.0875 9.8875ZM-10.0125 9.75625C-10.0312 9.79375 -10.05 9.8125 -10.0688 9.85C-10.05 9.8125 -10.0312 9.79375 -10.0125 9.75625ZM-10.0688 9.85C-10.0688 9.86875 -10.0875 9.86875 -10.0875 9.8875C-10.0875 9.86875 -10.0688 9.86875 -10.0688 9.85ZM-8.625 10.9375C-20.0625 22.1875 -14.8125 49.5625 -11.2125 40.6C-4.18124 23.1438 12.375 7.375 33.1875 16.375C22.5 10.1875 42.1688 14.05 54.1313 16.1313C40.9688 13.1125 27.3 9.00625 14.2875 13.0562C18.3563 11.1812 20.7562 10.3938 25.3125 10.375C14.6438 9.2875 5.83125 11.6875 -3.2625 18.625C-12.3562 25.5625 0.75 2.5 -1.125 1.375C-2.86875 0.325001 -7.6875 5.275 -10.0125 9.75625C-6.99375 4.0375 -2.79375 5.2 -8.625 10.9375ZM-10.5 10.75C-10.4437 10.6 -10.3688 10.4688 -10.3125 10.3375C-10.3688 10.4688 -10.4437 10.6188 -10.5 10.75ZM29.25 10.375C40.6312 11.5375 47.5312 14.575 58.5 15.8125C47.325 13.4688 40.125 10.3 29.25 10.375ZM52.65 30.4937C52.35 30.3438 52.0687 30.175 51.7687 30.025C52.0312 30.1937 52.3312 30.3438 52.65 30.4937ZM-57 -51.0125C-55.2563 -51.65 -53.5125 -52.2875 -51.7687 -52.925C-53.8125 -53.6 -55.425 -51.95 -57 -51.0125ZM-44.2125 -53.75H-47.3063C-59.9438 -48.4812 -84.7313 -39.0687 -44.2125 -53.75ZM5.79375 80.0312C14.4187 83.9875 5.64375 85.0188 0.862503 84.8875C8.04375 85.9938 16.4062 83.2937 5.79375 80.0312ZM15.0375 82.0375C20.4938 85.8625 13.1437 86.2375 9.73125 86.6125C13.5187 86.3687 24.1313 85.8438 15.0375 82.0375ZM25.2938 81.8125C37.3125 86.8938 24.7125 87.8125 18 88.9375H20.4563C28.2188 88.075 39.8063 85.4125 25.2938 81.8125ZM67.3125 17.7812V17.0688C65.325 17.05 63.3 16.9188 61.2375 16.6938C63.3 17.1063 65.325 17.4812 67.3125 17.7812ZM-15.75 51.8125C-13.3125 55.9375 -8.625 59.125 -6.5625 59.5C-9.1875 58.1875 -12.9375 55.1875 -15.75 51.8125ZM5.625 64.375C-18.15 40.0375 4.5 17.875 20.625 15.0625C9.5625 15.4375 -13.5 32.3125 -7.875 48.625C-11.8125 48.1937 -16.3125 41.6875 -17.55 35.2188C-16.6875 44.875 -9.9375 55.1875 5.625 64.375ZM-8.625 55.375C-16.125 48.625 -19.425 38.425 -19.4625 31.675C-20.2687 38.7063 -18.5625 47.875 -8.625 55.375ZM67.3125 18.9625V18.4563C65.9438 18.325 64.5562 18.1562 63.15 17.9312C64.65 18.2687 66.0375 18.6062 67.3125 18.9625ZM67.3125 -44.0562V-40.325C62.5125 -42.05 62.25 -44 50.1375 -42.1063C38.025 -40.2125 4.21875 -22.7938 -3.13126 -9.33125C9.1875 -24.3125 58.1625 -48.4625 67.3125 -30.9313V-22.2312C54.9563 -14.2062 17.5875 -10.8313 21.6 -3.8C23.3813 -1.5125 28.875 0.831253 34.125 -2.73125C23.8125 -4.98125 42.2812 -11.6937 45.0938 -12.875C22.1062 -2.43125 41.8125 -4.23125 51.975 -3.03125C62.1375 -1.83125 63.0188 0.399998 67.3125 2.0125V2.48125C58.1062 -0.0125008 56.625 -2.9 39 -2.24375C58.875 -1.04375 49.6875 5.33125 67.3125 5.7625V14.1625C48.375 14.3313 42.9375 8.85625 28.8375 8.85625C14.7375 8.85625 6.3 9.98125 0.618744 13.4312C-9.375 19.9375 5.0625 -1.0625 6.41251 -4.175C15.2063 -23.3938 -16.8 8.59375 -19.4625 31.675C-19.5562 11.9313 -2.0625 -12.875 18.1875 -14C24.5625 -14.375 -14.0625 16.75 5.25 10.9375C-10.5 10 42.1875 -17.9375 26.2687 -17.675C-0.900002 -17.225 -13.275 3.5875 -20.8687 22.3C-23.5125 -7.49375 37.3125 -49.2125 67.3125 -44.0562ZM34.7437 -1.4375C36.4688 -0.349998 40.0687 -0.818748 42.8062 -0.574997C40.125 -1.04375 37.4812 -2.09375 34.7437 -1.4375ZM19.2188 7.975C13.2562 7.58125 0.5625 11.5 10.125 2.5C-1.5 12.25 12.525 8.70625 19.2188 7.975Z" fill="#BD93B9"/>
<path d="M-55.05 -25.5312C-58.2188 -28.7 -63.8438 -29.6375 -73.3125 -27.1438C-63.7125 -30.4438 -58.1625 -29.45 -55.05 -25.5312ZM67.3125 37.0375V37.9937C59.7937 36.9812 52.8375 33.2875 45.5812 30.1187C59.5312 37.7125 63.6 41.7812 67.3125 41.9688V60.0063C41.6813 69.2688 5.83125 52.0563 21.2625 44.95C27.9375 41.875 57.9563 52.6188 45.75 37C47.8125 40.75 48.1875 44.6875 41.1 43.5625C43.5 43.1687 46.3125 42.25 44.2313 39.1C42.15 35.95 44.325 44.275 29.625 40C18 36.625 1.125 45.8125 12.1875 34.75C-11.8125 52.1875 36.1875 73.0188 63.8625 65.1625C60.5437 66.0438 55.2562 66.325 49.275 65.95C55.5 65.8563 61.5375 64.4875 67.2938 62.1437V67.8813C46.4438 81.55 27 84.7 -8.34375 71.125C22.1062 90.0625 -13.0875 81.1938 -13.875 80.9688C-11.0813 81.7375 2.8125 83.7062 1.5 81.2687C0.1875 78.8312 -10.2 79.6375 -18.1875 76.5063C-14.8875 76.1687 -9.05625 78.3625 -16.3125 72.1C-2.19375 83.7625 -13.1437 71.0688 -20.8875 65.35C-21.975 64.45 -23.0062 63.4938 -24 62.4813C-22.9875 63.3063 -22.1438 63.4937 -21.5813 62.8375C-23.6625 59.2375 -25.4812 55.8438 -27.075 52.6375C-26.625 53.2375 -26.1562 53.8562 -25.65 54.4562C-54.8062 -5.73125 18.375 -29.4875 21.6562 -50.3188C21.3938 -49.4938 20.9812 -48.6688 20.4 -47.8625C21.3 -50.2625 21.7875 -52.0063 21.5063 -53.7312H26.1938C26.2875 -53.4875 26.4 -53.225 26.475 -52.9625C26.7188 -53.225 26.925 -53.4875 27.1125 -53.7312H33.45C33.4688 -50.1125 30.8438 -45.8188 23.3438 -40.325C29.1 -43.9813 33.9375 -48.425 35.025 -53.75H38.1C30.5063 -45.875 19.725 -34.1562 13.4438 -31.925C-7.44375 -22.1187 -20.6063 -1.30625 -23.7375 19.1125C-21.075 10.2625 -15.975 1.15 -9.03751 -7.53125C-19.2375 6.4 -25.2375 22.4688 -23.9062 36.25C-23.3063 40.3375 -22.2188 44.2562 -20.625 47.8937C-15.45 58.1687 -4.2 65.7812 15.1125 67.975C-8.38125 55.0938 -10.0312 22.675 20.25 18.9625C29.9062 17.3687 38.9437 20.1438 47.8312 23.2563C36.4312 20.3875 20.9062 15.6813 11.775 23.3125C21.7687 22.1312 32.0813 23.2375 41.7 26.4625C31.0313 24.325 16.5375 18.9437 8.08125 28.6187C10.3125 27.25 13.3125 24.625 19.3125 24.625C10.5 26.3125 11.0625 28.75 19.4625 28.225C4.96875 29.1625 -9.1875 40.1875 4.66875 55.3C18.525 70.4125 32.625 70.525 27.7687 73.6938C19.125 79.375 -8.53125 66.8125 -17.175 54.4C-17.4563 54.1 -17.7188 53.8 -18 53.5C-6.7125 70.7312 23.4562 83.0312 41.3625 74.275C48.9375 70.5625 -17.25 54.4375 6.13126 33.55C12.45 27.9062 28.95 27.85 37.3125 35.0875C31.875 31.5625 12.375 29.6125 18.375 35.125C22.875 39.25 42.8625 41.6687 39.7687 36.1562C37.9875 33.8125 35.7 32.0312 33.1313 30.7375C33.1688 30.7562 33.2062 30.7562 33.2437 30.775C11.475 18.5125 36.1125 25.6 58.8 34.9937C61.7437 36.5125 64.5938 37.1125 67.3125 37.0375ZM-16.4625 55.1313C-16.4625 55.1313 -8.34375 64.5813 5.0625 69.25C15.6 72.9062 24.8812 72.2688 24.9375 71.875C24.9938 71.4437 13.8 71.5188 0.5625 65.6875C-10.2937 60.9062 -16.4625 55.1313 -16.4625 55.1313ZM10.5938 -32.3C14.3438 -34.85 18.0938 -37.3813 21.8438 -39.9313C18.7125 -38.675 12.9 -34.7375 10.5938 -32.3ZM-24.5625 39.25C-24.7125 37.375 -25.8187 31.3562 -25.6687 29.4062C-26.9812 10.0375 -18.15 -11.2625 1.35001 -24.65C-22.7625 -9.66875 -31.125 11.875 -24.5625 39.25ZM-26.7563 8.78125C-24.3188 3.94375 -21.7687 -1.1375 -19.1812 -6.275C-21.7687 -3.2 -26.925 7 -26.7563 8.78125ZM-1.16251 71.575C-12.4688 66.1375 -22.7812 57.7937 -28.1062 46.1875C-25.8187 56.1062 -10.7625 70.9938 -1.16251 71.575ZM46.6125 35.1625C48.15 37.45 49.125 38.3125 51.3563 42.325C59.2875 56.5938 15.4313 39.1562 20.175 51.1C23.0625 58.375 43.3125 61.9375 49.3125 61.9375C32.8125 58.9375 21.8625 54.5875 23.0063 49.7875C24.75 42.625 76.5 67.5625 46.6125 35.1625ZM-37.5 30.625C-37.6125 27.2688 -37.9313 20.0875 -37.3125 16.75C-38.3625 19.45 -37.9313 26.7812 -37.5 30.625ZM-24 62.4625C-24.7125 61.75 -25.3875 61.0188 -26.0437 60.25C-25.3125 61.2063 -24.6188 61.9562 -24 62.4625ZM-26.0437 60.2687C-30.4688 54.475 -36.0938 44.0875 -37.3125 33.4375C-36.975 44.2562 -33.15 52.0375 -26.0437 60.2687ZM3.88126 -51.1062C4.8375 -49.5312 5.26875 -47.8063 5.4375 -46.1562C5.49375 -47.9938 5.04375 -49.7 3.88126 -51.1062ZM1.53751 -53.75H-0.356247C1.575 -53.1125 2.94375 -52.2125 3.8625 -51.1062C3.3 -52.0437 2.55 -52.9437 1.53751 -53.75ZM-28.6875 50.125C-33 41.3875 -33.6375 38.1062 -34.875 31.5625C-34.6312 39.325 -33.9375 42.0625 -28.6875 50.125ZM-34.5 66.4375C-27.75 74.125 -11.625 78.625 -20.25 69.625C-17.8125 75.8125 -29.25 71.125 -34.5 66.4375ZM-8.77499 -48.5188C-8.86874 -50.3375 -9.28125 -52.0813 -10.0688 -53.75H-14.1375C-12.9187 -53.225 -11.775 -52.55 -10.7063 -51.6687C-12.5813 -52.3625 -14.4562 -53.0375 -16.4062 -53.75H-18.4125C-13.7625 -52.6063 -10.0125 -50.8625 -8.77499 -48.5188ZM67.3125 -53.75V-46.3813C54.825 -51.5375 44.25 -47.225 38.25 -42.125C32.25 -37.025 23.85 -36.05 17.3062 -32.075C24.2062 -36.9312 33.75 -38.9375 39.45 -44.75C45.15 -50.5625 42.9938 -51.4062 44.1375 -53.75H67.3125ZM57.8625 -51.35C53.8312 -51.2938 50.3813 -49.7188 47.0063 -47.8813C50.5688 -49.2125 54.2062 -50.375 57.8625 -51.35ZM48.3563 64.075C43.9313 63.7938 39.1313 63.1562 34.4813 62.1437C39.1688 63.55 43.8 64.15 48.3563 64.075ZM35.4188 64.0375C32.7188 63.2313 30.0188 62.1812 27.2812 60.8312C-0.375 45.4375 23.8125 41.5 35.4562 43.4688C28.5 40.5625 8.0625 36.9813 13.8562 51.7563C12.5812 50.1625 9.9375 47.875 10.5 43.5625C6.75 53.875 22.9688 61.3188 35.4188 64.0375ZM14.0625 -29.5625C3.975 -23.4312 -1.9125 -17.2625 -9.01875 -7.55C-1.9125 -16.4375 3.84375 -22.3625 14.0625 -29.5625ZM67.3125 30.625V29.05C64.575 28.6 56.3438 26.2 53.625 25.375C57.3938 26.8562 66.45 30.0625 67.3125 30.625ZM-7.06876 -53.75H-0.5625C12.225 -46.9625 -4.55625 -35.5813 -7.35001 -27.7063C-2.49375 -30.125 5.175 -39.1625 5.4375 -46.1375C6.20625 -38.3375 1.05 -31.7937 16.8188 -46.025C19.5188 -47.8062 20.025 -50.7125 18.9937 -53.75H19.95C21.6375 -37.6063 -10.8375 -29.3937 -14.1 -21.4437C-6.13126 -23.2062 -19.4062 -17.15 -17.4375 -15.8938C-8.925 -21.4813 -2.34375 -29.4688 6.33749 -34.8125C-13.9125 -20.6375 -36 4.975 -35.1937 29.9125C-41.1 -1.2125 -1.93124 -34.925 -3.89999 -47.3375C-4.875 -53.375 -6.16875 -52.1562 -7.06876 -53.75ZM-10.875 -27.95C-11.9625 -28.2312 -13.9875 -26.3375 -14.025 -24.3313C-12.825 -25.7 -11.85 -26.825 -10.875 -27.95ZM-0.393753 -46.475C-0.637505 -47.225 -0.862503 -47.9 -1.14375 -48.7812C-2.0625 -47.1875 -1.8375 -46.475 -0.393753 -46.475ZM1.63126 -45.6875C1.06876 -46.6438 1.25625 -48.8375 0.206253 -48.4438C0.618752 -47.6 -0.787498 -46.1562 1.63126 -45.6875ZM-4.91251 -53.2437C-3.09375 -47.075 -2.19375 -53.2812 1.875 -49.1938C1.5 -51.4625 -1.66875 -53.5437 -4.91251 -53.2437ZM-45.75 58.5625C-40.8563 67.975 -37.6312 73.6562 -23.0625 76.9375C-31.95 73.0563 -38.85 68.0687 -45.75 58.5625ZM-75.375 59.7437V61.3375C-66.9562 70.6375 -58.1063 81.3625 -48.3375 85.6375C-46.5 86.8 -44.6438 87.9062 -42.7688 88.9375H-40.1062C-46.6875 85.7688 -52.6125 81.9625 -57.5812 77.5562C-63.4875 73.5812 -69.3563 66.4 -75.375 59.7437ZM-75.375 -29.3938V-30.8187C-31.125 -48.5 -47.25 2.125 -49.3125 14.6687C-51.375 27.2125 -46.5 51.4375 -42.5625 45.5688C-38.625 39.7 -52.3125 31.5625 -26.0063 -19.3812C-37.4813 -3.21875 -44.625 25.1875 -47.5687 25.2625C-50.5125 25.3375 -48.9375 15.625 -47.25 11.875C-49.3125 49.1875 -18.3 -58.9625 -73.6875 -35.3563C-74.1375 -35.1125 -74.7 -34.8687 -75.375 -34.6063V-39.1625C-59.025 -47.6375 -49.5 -52.7375 -35.9062 -52.7375C-22.3125 -52.7375 -11.5312 -49.8687 -8.86874 -45.8375C-11.55 -21.0687 -64.0875 16.6562 -28.3688 62.5562C-20.7938 70.9375 -24.375 71.5 -32.4375 65.3125C-40.5 59.125 -49.0687 44.6688 -52.4437 27.175C-52.2 37.5813 -50.7563 47.875 -46.275 56.4625C-51.0188 49.9375 -53.0625 44.5 -54.3187 32.1625C-55.575 19.825 -51.7875 1.91875 -51.4125 -11.9938C-50.8125 -7.625 -50.8312 -4.90625 -51 -1.0625C-42.45 -30.5 -59.0812 -35.5813 -75.375 -29.3938ZM-55.3312 -46.4937C-58.3125 -45.9125 -64.2 -43.925 -66.4125 -42.125C-62.7188 -43.5875 -59.025 -45.0312 -55.3312 -46.4937ZM-16.6125 -46.7938C-13.8563 -44.1688 -14.7188 -39.7625 -16.2563 -36.125C-16.05 -36.425 -15.825 -36.7437 -15.5813 -37.0625C-13.0312 -40.7375 -13.875 -44.5063 -16.6125 -46.7938ZM-16.8 -44.4688C-16.575 -41.3938 -16.9125 -38.6937 -17.9062 -35.6C-15.3563 -39.3875 -14.9625 -42.5375 -16.8 -44.4688ZM-34.4437 -49.6625C-31.4625 -49.6625 -28.5 -49.6625 -25.5188 -49.6625C-28.05 -49.9063 -31.875 -49.9063 -34.4437 -49.6625ZM-17.475 -43.6625C-20.4188 -50.6187 -32.2687 -49.3063 -38.625 -48.3125C-31.65 -48.3313 -22.2375 -49.9813 -17.475 -43.6625ZM-18.5625 -35.9188C-20.5875 -31.7188 -24.75 -29.3 -27.15 -25.4375C-24.5625 -25.5875 -18.8438 -33.0125 -18.5625 -35.9188ZM62.6812 -4.11875C58.9312 -8.15 58.7437 -8.88125 60.7125 -11.5062C56.85 -9.59375 60.0938 -5.61875 62.6812 -4.11875ZM54.3375 -47.4688C58.65 -47.6937 63.0188 -46.5312 67.3125 -45.5375V-45.7062C63.0938 -47.3562 58.9125 -49.0437 54.3375 -47.4688ZM67.3125 22.7125V20.4625C62.5688 19.0187 57.9375 17.725 53.2687 17.1812C57.6937 18.6062 62.5125 21.85 67.3125 22.7125ZM-75.375 67.5063C-67.875 74.9688 -60.3375 82.4688 -52.3312 88.9375H-48.5062C-57.9187 80.875 -66.5812 70.9938 -75.375 63.5688V67.5063ZM-75.375 68.8563V77.7062C-69.975 80.3875 -64.05 84.1 -57.5812 88.9375H-54.675C-61.8375 84.3813 -68.625 76.2438 -75.375 68.8563ZM67.3125 -2.09375V-13.0625C66.1125 -12.3688 64.8187 -11.6937 63.4312 -11.0375C62.2312 -7.5875 64.1438 -4.34375 67.3125 -2.09375ZM57.975 -11.525C53.6438 -9.40625 56.8125 -7.25 58.8563 -4.9625C57.075 -8.45 55.1062 -8.80625 57.975 -11.525ZM46.9875 -37.1937C56.625 -39.875 61.1062 -37.3063 67.3125 -34.1188V-34.5687C60.9375 -37.6812 57.75 -41 46.9875 -37.1937ZM67.3125 -20.0375V-20.0563C67.2375 -20.0187 67.1625 -19.9813 67.0875 -19.9437C67.1625 -19.9813 67.2375 -20.0187 67.3125 -20.0375ZM66.075 88.9375C66.4875 88.7125 66.9 88.5063 67.3125 88.2812V87.25C66.4875 87.8313 65.6437 88.375 64.8 88.9375H66.075ZM-75.1313 -53.75C-75.1875 -53.7312 -75.2438 -53.7125 -75.2812 -53.6937C-75.225 -53.7125 -75.1688 -53.7312 -75.1125 -53.75H-75.1313ZM-75.375 -53.675C-75.3375 -53.675 -75.3188 -53.6937 -75.2812 -53.6937C-75.3188 -53.6937 -75.3375 -53.675 -75.375 -53.675ZM-69.15 -53.75C-71.475 -52.8312 -73.5563 -52.1 -75.375 -51.5375V-45.5C-67.3875 -48.725 -59.175 -51.4625 -51.3 -53.75H-69.15ZM-17.9438 88.9375H-14.7937C-19.2188 87.325 -31.0125 80.7063 -32.4938 79.8813C-26.925 83.8375 -21.825 86.9312 -17.9438 88.9375ZM-75.375 -20.6V-23.7875C-34.9688 -34.1 -73.6875 39.1937 -42.6 72.1187C-71.25 54.0625 -59.0625 15.0625 -61.8563 -11.5813C-62.775 -20.375 -68.625 -21.275 -75.375 -20.6ZM-64.6875 -21.6875C-55.125 -11.1875 -61.4062 10.75 -60.825 26.5188C-60.8813 15.2125 -48.75 -18.125 -64.6875 -21.6875ZM36.3 88.9375C46.5187 86.275 56.1938 82.0375 64.5 76.1313C65.4563 75.1938 66.3938 74.275 67.2938 73.3937V69.8312C54.075 78.0437 40.4062 85.0188 26.8687 88.9375H36.3ZM-41.5312 73.1875C-39.3375 75.325 -36.7125 77.2188 -33.5625 78.8125L-41.5312 73.1875ZM42.1875 20.5C31.0312 12.7 58.8375 27.4188 67.3125 28.3938V25.1125C53.775 21.3063 18.8438 10.45 42.1875 20.5ZM-60.8438 54.1187C-58.5 59.875 -56.0625 68.875 -41.25 76.75C-52.6875 67.375 -56.625 61.375 -60.8438 54.1187ZM-70.875 32.875C-70.3125 40.75 -66.0938 46.0563 -62.25 50.6875C-71.775 22.3375 -52.7625 -18.65 -75.375 -19.0813V-16.5687C-73.5563 -16.8312 -73.3125 -18.875 -69.8438 -17.1687C-61.0688 -12.3312 -64.2375 2.44375 -66.3375 9.64375C-66.825 2.875 -63.15 -6.85625 -69.5625 -11.4875C-75.75 -13.4938 -68.4187 -3.66875 -69.6187 -0.649998C-70.9312 -4.68125 -72.9187 -7.30625 -75.375 -8.84375V-4.15625C-68.4375 2.425 -70.0875 20.7812 -69.8438 28.6562C-72.6562 23.05 -73.7625 16.6 -75.375 10.45V40.1125C-71.25 47.5938 -67.8187 55.6375 -65.25 61.7313C-68.7 57.4 -71.9812 52.1125 -75.375 46.9188V56.0875C-66.6562 64.45 -57.7875 75.4375 -48.1687 82.7313C-53.0625 79.7875 -57.7313 76.4125 -62.1188 72.6063C-56.1188 78.1938 -49.4625 82.825 -42.375 86.575C-41.3812 87.1375 -40.3875 87.6438 -39.375 88.0938C-38.7938 88.375 -38.2313 88.6375 -37.65 88.9188H-19.2563C-58.3125 79.9375 -72.1875 43.1875 -70.875 32.875ZM62.4562 88.9375C64.1062 88.15 65.7375 87.3062 67.3125 86.4062V76.4125C58.3687 81.9625 49.7437 86.0688 41.4562 88.9375H62.4562ZM52.65 30.4937C58.1438 33.4 62.8125 35.6875 67.3125 35.6313V30.85C66.8438 30.8313 65.4937 30.4938 62.9625 29.725C72.5813 38.8563 59.325 33.9437 52.65 30.4937ZM-75.375 88.9375H-63.45C-67.4625 86.6313 -71.475 84.2875 -75.375 82.225V88.9375ZM-10.3125 10.3375C-10.3125 10.3187 -10.2937 10.3 -10.2937 10.2812C-10.2937 10.3 -10.2937 10.3187 -10.3125 10.3375ZM-10.0875 9.8875C-10.1625 10.0187 -10.2188 10.15 -10.2937 10.2812C-10.2188 10.15 -10.1625 10.0187 -10.0875 9.8875ZM-10.0125 9.75625C-10.0312 9.79375 -10.05 9.8125 -10.0688 9.85C-10.05 9.8125 -10.0312 9.79375 -10.0125 9.75625ZM-10.0688 9.85C-10.0688 9.86875 -10.0875 9.86875 -10.0875 9.8875C-10.0875 9.86875 -10.0688 9.86875 -10.0688 9.85ZM-8.625 10.9375C-20.0625 22.1875 -14.8125 49.5625 -11.2125 40.6C-4.18124 23.1438 12.375 7.375 33.1875 16.375C22.5 10.1875 42.1688 14.05 54.1313 16.1313C40.9688 13.1125 27.3 9.00625 14.2875 13.0562C18.3563 11.1812 20.7562 10.3938 25.3125 10.375C14.6438 9.2875 5.83125 11.6875 -3.2625 18.625C-12.3562 25.5625 0.75 2.5 -1.125 1.375C-2.86875 0.325001 -7.6875 5.275 -10.0125 9.75625C-6.99375 4.0375 -2.79375 5.2 -8.625 10.9375ZM-10.5 10.75C-10.4437 10.6 -10.3688 10.4688 -10.3125 10.3375C-10.3688 10.4688 -10.4437 10.6188 -10.5 10.75ZM29.25 10.375C40.6312 11.5375 47.5312 14.575 58.5 15.8125C47.325 13.4688 40.125 10.3 29.25 10.375ZM52.65 30.4937C52.35 30.3438 52.0687 30.175 51.7687 30.025C52.0312 30.1937 52.3312 30.3438 52.65 30.4937ZM-57 -51.0125C-55.2563 -51.65 -53.5125 -52.2875 -51.7687 -52.925C-53.8125 -53.6 -55.425 -51.95 -57 -51.0125ZM-44.2125 -53.75H-47.3063C-59.9438 -48.4812 -84.7313 -39.0687 -44.2125 -53.75ZM5.79375 80.0312C14.4187 83.9875 5.64375 85.0188 0.862503 84.8875C8.04375 85.9938 16.4062 83.2937 5.79375 80.0312ZM15.0375 82.0375C20.4938 85.8625 13.1437 86.2375 9.73125 86.6125C13.5187 86.3687 24.1313 85.8438 15.0375 82.0375ZM25.2938 81.8125C37.3125 86.8938 24.7125 87.8125 18 88.9375H20.4563C28.2188 88.075 39.8063 85.4125 25.2938 81.8125ZM67.3125 17.7812V17.0688C65.325 17.05 63.3 16.9188 61.2375 16.6938C63.3 17.1063 65.325 17.4812 67.3125 17.7812ZM-15.75 51.8125C-13.3125 55.9375 -8.625 59.125 -6.5625 59.5C-9.1875 58.1875 -12.9375 55.1875 -15.75 51.8125ZM5.625 64.375C-18.15 40.0375 4.5 17.875 20.625 15.0625C9.5625 15.4375 -13.5 32.3125 -7.875 48.625C-11.8125 48.1937 -16.3125 41.6875 -17.55 35.2188C-16.6875 44.875 -9.9375 55.1875 5.625 64.375ZM-8.625 55.375C-16.125 48.625 -19.425 38.425 -19.4625 31.675C-20.2687 38.7063 -18.5625 47.875 -8.625 55.375ZM67.3125 18.9625V18.4563C65.9438 18.325 64.5562 18.1562 63.15 17.9312C64.65 18.2687 66.0375 18.6062 67.3125 18.9625ZM67.3125 -44.0562V-40.325C62.5125 -42.05 62.25 -44 50.1375 -42.1063C38.025 -40.2125 4.21875 -22.7938 -3.13126 -9.33125C9.1875 -24.3125 58.1625 -48.4625 67.3125 -30.9313V-22.2312C54.9563 -14.2062 17.5875 -10.8313 21.6 -3.8C23.3813 -1.5125 28.875 0.831253 34.125 -2.73125C23.8125 -4.98125 42.2812 -11.6937 45.0938 -12.875C22.1062 -2.43125 41.8125 -4.23125 51.975 -3.03125C62.1375 -1.83125 63.0188 0.399998 67.3125 2.0125V2.48125C58.1062 -0.0125008 56.625 -2.9 39 -2.24375C58.875 -1.04375 49.6875 5.33125 67.3125 5.7625V14.1625C48.375 14.3313 42.9375 8.85625 28.8375 8.85625C14.7375 8.85625 6.3 9.98125 0.618744 13.4312C-9.375 19.9375 5.0625 -1.0625 6.41251 -4.175C15.2063 -23.3938 -16.8 8.59375 -19.4625 31.675C-19.5562 11.9313 -2.0625 -12.875 18.1875 -14C24.5625 -14.375 -14.0625 16.75 5.25 10.9375C-10.5 10 42.1875 -17.9375 26.2687 -17.675C-0.900002 -17.225 -13.275 3.5875 -20.8687 22.3C-23.5125 -7.49375 37.3125 -49.2125 67.3125 -44.0562ZM34.7437 -1.4375C36.4688 -0.349998 40.0687 -0.818748 42.8062 -0.574997C40.125 -1.04375 37.4812 -2.09375 34.7437 -1.4375ZM19.2188 7.975C13.2562 7.58125 0.5625 11.5 10.125 2.5C-1.5 12.25 12.525 8.70625 19.2188 7.975Z" fill="url(#paint0_linear)"/>
<rect x="-75.375" y="-53.75" width="142.688" height="142.688" fill="#E84B37" fill-opacity="0.99"/>
</g>
<path d="M7.99999 46.1461C3.58172 46.1461 0 42.5644 0 38.1461V12.3562C0 7.94314 3.57356 4.36358 7.98659 4.35618L33.8332 4.31287C38.2567 4.30545 41.8466 7.88934 41.8466 12.3129V38.1461C41.8466 42.5644 38.2649 46.1461 33.8466 46.1461H7.99999Z" fill="url(#paint1_linear)"/>
<path d="M7.99999 46.1461C3.58172 46.1461 0 42.5644 0 38.1461V12.3562C0 7.94314 3.57356 4.36358 7.98659 4.35618L33.8332 4.31287C38.2567 4.30545 41.8466 7.88934 41.8466 12.3129V38.1461C41.8466 42.5644 38.2649 46.1461 33.8466 46.1461H7.99999Z" fill="url(#paint2_radial)"/>
</g>
</g>
<g filter="url(#filter1_bi)">
<path d="M48 4.875C48 2.18261 45.8174 0 43.125 0H21.5625C18.8701 0 16.6875 2.18261 16.6875 4.875C16.6875 7.56739 18.8701 9.75 21.5625 9.75H43.125C45.8174 9.75 48 7.56739 48 4.875Z" fill="url(#paint3_linear)"/>
</g>
<g filter="url(#filter2_bi)">
<path d="M48 16.125C48 13.4326 45.8174 11.25 43.125 11.25H21.5625C18.8701 11.25 16.6875 13.4326 16.6875 16.125C16.6875 18.8174 18.8701 21 21.5625 21H43.125C45.8174 21 48 18.8174 48 16.125Z" fill="url(#paint4_linear)"/>
</g>
<g filter="url(#filter3_bi)">
<path d="M48 30.5C48 26.0817 44.4183 22.5 40 22.5H24.6875C20.2692 22.5 16.6875 26.0817 16.6875 30.5V32.125C16.6875 36.5433 20.2692 40.125 24.6875 40.125H40C44.4183 40.125 48 36.5433 48 32.125V30.5Z" fill="url(#paint5_linear)"/>
</g>
<g filter="url(#filter4_biii)">
<path d="M12 3.75C12 1.67893 10.3211 0 8.25 0C6.17893 0 4.5 1.67893 4.5 3.75V25.5C4.5 27.5711 6.17893 29.25 8.25 29.25C10.3211 29.25 12 27.5711 12 25.5V3.75Z" fill="url(#paint6_linear)"/>
</g>
<defs>
<filter id="filter0_i" x="0" y="3.31287" width="41.8466" height="42.8332" filterUnits="userSpaceOnUse" color-interpolation-filters="sRGB">
<feFlood flood-opacity="0" result="BackgroundImageFix"/>
<feBlend mode="normal" in="SourceGraphic" in2="BackgroundImageFix" result="shape"/>
<feColorMatrix in="SourceAlpha" type="matrix" values="0 0 0 0 0 0 0 0 0 0 0 0 0 0 0 0 0 0 127 0" result="hardAlpha"/>
<feOffset dy="-3"/>
<feGaussianBlur stdDeviation="0.5"/>
<feComposite in2="hardAlpha" operator="arithmetic" k2="-1" k3="1"/>
<feColorMatrix type="matrix" values="0 0 0 0 0 0 0 0 0 0 0 0 0 0 0 0 0 0 0.4 0"/>
<feBlend mode="normal" in2="shape" result="effect1_innerShadow"/>
</filter>
<filter id="filter1_bi" x="6.6875" y="-10" width="51.3125" height="29.75" filterUnits="userSpaceOnUse" color-interpolation-filters="sRGB">
<feFlood flood-opacity="0" result="BackgroundImageFix"/>
<feGaussianBlur in="BackgroundImage" stdDeviation="5"/>
<feComposite in2="SourceAlpha" operator="in" result="effect1_backgroundBlur"/>
<feBlend mode="normal" in="SourceGraphic" in2="effect1_backgroundBlur" result="shape"/>
<feColorMatrix in="SourceAlpha" type="matrix" values="0 0 0 0 0 0 0 0 0 0 0 0 0 0 0 0 0 0 127 0" result="hardAlpha"/>
<feOffset dy="-4"/>
<feGaussianBlur stdDeviation="0.5"/>
<feComposite in2="hardAlpha" operator="arithmetic" k2="-1" k3="1"/>
<feColorMatrix type="matrix" values="0 0 0 0 0.920833 0 0 0 0 0.920833 0 0 0 0 0.920833 0 0 0 0.1 0"/>
<feBlend mode="normal" in2="shape" result="effect2_innerShadow"/>
</filter>
<filter id="filter2_bi" x="6.6875" y="1.25" width="51.3125" height="29.75" filterUnits="userSpaceOnUse" color-interpolation-filters="sRGB">
<feFlood flood-opacity="0" result="BackgroundImageFix"/>
<feGaussianBlur in="BackgroundImage" stdDeviation="5"/>
<feComposite in2="SourceAlpha" operator="in" result="effect1_backgroundBlur"/>
<feBlend mode="normal" in="SourceGraphic" in2="effect1_backgroundBlur" result="shape"/>
<feColorMatrix in="SourceAlpha" type="matrix" values="0 0 0 0 0 0 0 0 0 0 0 0 0 0 0 0 0 0 127 0" result="hardAlpha"/>
<feOffset dy="-4"/>
<feGaussianBlur stdDeviation="0.5"/>
<feComposite in2="hardAlpha" operator="arithmetic" k2="-1" k3="1"/>
<feColorMatrix type="matrix" values="0 0 0 0 0.920833 0 0 0 0 0.920833 0 0 0 0 0.920833 0 0 0 0.1 0"/>
<feBlend mode="normal" in2="shape" result="effect2_innerShadow"/>
</filter>
<filter id="filter3_bi" x="6.6875" y="12.5" width="51.3125" height="37.625" filterUnits="userSpaceOnUse" color-interpolation-filters="sRGB">
<feFlood flood-opacity="0" result="BackgroundImageFix"/>
<feGaussianBlur in="BackgroundImage" stdDeviation="5"/>
<feComposite in2="SourceAlpha" operator="in" result="effect1_backgroundBlur"/>
<feBlend mode="normal" in="SourceGraphic" in2="effect1_backgroundBlur" result="shape"/>
<feColorMatrix in="SourceAlpha" type="matrix" values="0 0 0 0 0 0 0 0 0 0 0 0 0 0 0 0 0 0 127 0" result="hardAlpha"/>
<feOffset dy="-4"/>
<feGaussianBlur stdDeviation="0.5"/>
<feComposite in2="hardAlpha" operator="arithmetic" k2="-1" k3="1"/>
<feColorMatrix type="matrix" values="0 0 0 0 0.920833 0 0 0 0 0.920833 0 0 0 0 0.920833 0 0 0 0.1 0"/>
<feBlend mode="normal" in2="shape" result="effect2_innerShadow"/>
</filter>
<filter id="filter4_biii" x="-5.5" y="-10" width="27.5" height="49.25" filterUnits="userSpaceOnUse" color-interpolation-filters="sRGB">
<feFlood flood-opacity="0" result="BackgroundImageFix"/>
<feGaussianBlur in="BackgroundImage" stdDeviation="5"/>
<feComposite in2="SourceAlpha" operator="in" result="effect1_backgroundBlur"/>
<feBlend mode="normal" in="SourceGraphic" in2="effect1_backgroundBlur" result="shape"/>
<feColorMatrix in="SourceAlpha" type="matrix" values="0 0 0 0 0 0 0 0 0 0 0 0 0 0 0 0 0 0 127 0" result="hardAlpha"/>
<feOffset dy="-4"/>
<feGaussianBlur stdDeviation="0.5"/>
<feComposite in2="hardAlpha" operator="arithmetic" k2="-1" k3="1"/>
<feColorMatrix type="matrix" values="0 0 0 0 0.920833 0 0 0 0 0.920833 0 0 0 0 0.920833 0 0 0 0.1 0"/>
<feBlend mode="normal" in2="shape" result="effect2_innerShadow"/>
<feColorMatrix in="SourceAlpha" type="matrix" values="0 0 0 0 0 0 0 0 0 0 0 0 0 0 0 0 0 0 127 0" result="hardAlpha"/>
<feOffset dx="-1"/>
<feGaussianBlur stdDeviation="0.5"/>
<feComposite in2="hardAlpha" operator="arithmetic" k2="-1" k3="1"/>
<feColorMatrix type="matrix" values="0 0 0 0 0.920833 0 0 0 0 0.920833 0 0 0 0 0.920833 0 0 0 0.1 0"/>
<feBlend mode="normal" in2="effect2_innerShadow" result="effect3_innerShadow"/>
<feColorMatrix in="SourceAlpha" type="matrix" values="0 0 0 0 0 0 0 0 0 0 0 0 0 0 0 0 0 0 127 0" result="hardAlpha"/>
<feOffset dx="1"/>
<feGaussianBlur stdDeviation="0.5"/>
<feComposite in2="hardAlpha" operator="arithmetic" k2="-1" k3="1"/>
<feColorMatrix type="matrix" values="0 0 0 0 0.920833 0 0 0 0 0.920833 0 0 0 0 0.920833 0 0 0 0.1 0"/>
<feBlend mode="normal" in2="effect3_innerShadow" result="effect4_innerShadow"/>
</filter>
<linearGradient id="paint0_linear" x1="-4.03125" y1="-53.75" x2="-4.03125" y2="88.9375" gradientUnits="userSpaceOnUse">
<stop stop-color="white" stop-opacity="0.48"/>
<stop offset="1" stop-color="white" stop-opacity="0"/>
</linearGradient>
<linearGradient id="paint1_linear" x1="20.9252" y1="4.09939" x2="20.9252" y2="45.8178" gradientUnits="userSpaceOnUse">
<stop stop-color="white" stop-opacity="0.4"/>
<stop offset="0.833333" stop-color="white" stop-opacity="0"/>
<stop offset="1" stop-color="white" stop-opacity="0.3"/>
</linearGradient>
<radialGradient id="paint2_radial" cx="0" cy="0" r="1" gradientUnits="userSpaceOnUse" gradientTransform="translate(-1.22306e-08 9.79328) scale(32.0887 49.8033)">
<stop stop-color="white" stop-opacity="0.7"/>
<stop offset="1" stop-color="white" stop-opacity="0"/>
</radialGradient>
<linearGradient id="paint3_linear" x1="32.3438" y1="0" x2="32.3438" y2="9.75" gradientUnits="userSpaceOnUse">
<stop stop-color="white" stop-opacity="0.2"/>
<stop offset="1" stop-color="white" stop-opacity="0.6"/>
</linearGradient>
<linearGradient id="paint4_linear" x1="32.3438" y1="11.25" x2="32.3438" y2="21" gradientUnits="userSpaceOnUse">
<stop stop-color="white" stop-opacity="0.8"/>
<stop offset="1" stop-color="white" stop-opacity="0.2"/>
</linearGradient>
<linearGradient id="paint5_linear" x1="32.3438" y1="22.5" x2="32.3438" y2="40.125" gradientUnits="userSpaceOnUse">
<stop stop-color="white" stop-opacity="0.8"/>
<stop offset="1" stop-color="white" stop-opacity="0.2"/>
</linearGradient>
<linearGradient id="paint6_linear" x1="8.25" y1="0" x2="8.25" y2="29.25" gradientUnits="userSpaceOnUse">
<stop stop-color="white" stop-opacity="0.8"/>
<stop offset="1" stop-color="white" stop-opacity="0.2"/>
</linearGradient>
<clipPath id="clip0">
<rect width="48" height="46" fill="white"/>
</clipPath>
</defs>
</svg>
