<svg width="73" height="88" viewBox="0 0 73 88" fill="none" xmlns="http://www.w3.org/2000/svg">
<path fill-rule="evenodd" clip-rule="evenodd" d="M38.8723 4.12313C46.2455 11.0164 57.1942 15.2507 67.6552 15.2554L69.9922 15.2564C70.5475 15.2566 70.9963 15.7093 70.9917 16.2646L70.8636 31.8435C70.7359 47.3396 70.6778 48.6077 69.9759 51.131C68.6808 55.7857 67.0936 59.4297 64.8541 62.8891C61.4763 68.1068 58.3823 70.8816 47.8036 78.1793C42.6721 81.7194 38.0423 84.9273 37.5152 85.3079L37.1291 85.5867C36.7859 85.8345 36.324 85.8394 35.9756 85.599L26.7499 79.2319C21.3561 75.5093 15.8779 71.5486 14.5764 70.43C9.19159 65.8026 5.0656 58.9585 3.04387 51.2992C2.33767 48.6235 2.27666 47.312 2.14317 31.8435L2.0087 16.265C2.00391 15.7096 2.45275 15.2566 3.00824 15.2564L5.34478 15.2554C15.8406 15.2507 26.8848 10.9759 34.0947 4.12708C35.319 2.96404 36.3809 2.00685 36.4544 2.00004C36.5276 1.99322 37.616 2.94862 38.8723 4.12313Z" stroke="#C39367" stroke-width="4"/>
<path fill-rule="evenodd" clip-rule="evenodd" d="M35.9355 14.1419C35.7544 14.2111 34.865 15.0177 33.9592 15.9347C32.038 17.879 30.1535 19.2397 27.7008 20.4526C23.9256 22.3196 20.3862 23.0279 15.8916 22.8152C13.1085 22.6836 13.0571 22.6895 12.5325 23.2083L12 23.735L12.0013 34.2237C12.0026 45.6305 12.1217 47.2385 13.2194 50.6855C14.7517 55.4975 17.8429 60.0134 21.7719 63.179C22.255 63.5684 25.663 65.9493 29.3451 68.4703C33.8316 71.5418 36.2272 73.0538 36.6068 73.0538C36.9865 73.0538 39.4506 71.4986 44.0756 68.34C49.9135 64.3528 51.3362 63.273 53.3031 61.336C54.5822 60.0764 56.0546 58.4189 56.575 57.6525C57.8915 55.7142 59.2786 52.8688 59.9714 50.6855C61.0668 47.2337 61.186 45.6222 61.1873 34.2576C61.1886 24.3337 61.1676 23.7771 60.7743 23.2967C60.3685 22.8011 60.2758 22.7903 56.3275 22.7738C52.1718 22.7564 51.0646 22.5974 48.2327 21.6119C44.8708 20.4415 41.9908 18.6502 39.3972 16.116C37.2138 13.9825 36.8684 13.7857 35.9355 14.1419ZM38.046 19.6186C42.558 23.793 49.258 26.3572 55.6595 26.36L57.7064 26.3609L57.6229 36.4053C57.5447 45.7893 57.5092 46.5572 57.0796 48.0852C56.2871 50.904 55.3159 53.1107 53.9454 55.2056C51.8784 58.3653 49.985 60.0456 43.5115 64.4649C40.3713 66.6087 37.5381 68.5513 37.2156 68.7817L36.629 69.2009L30.6278 65.1023C27.3271 62.848 23.9748 60.4495 23.1783 59.7722C19.8831 56.9699 17.3583 52.8253 16.1211 48.1871C15.6889 46.5667 15.6516 45.7725 15.5699 36.4053L15.4823 26.3609L17.5291 26.36C23.952 26.3572 30.7104 23.7684 35.1224 19.621C35.8716 18.9167 36.5214 18.3371 36.5664 18.3329C36.6112 18.3288 37.2772 18.9074 38.046 19.6186Z" fill="#C39367"/>
</svg>
