<svg width="91" height="90" viewBox="0 0 91 90" fill="none" xmlns="http://www.w3.org/2000/svg">
<path fill-rule="evenodd" clip-rule="evenodd" d="M21.7725 0.419766C21.539 0.650742 21.2977 1.10549 21.236 1.43051C21.1743 1.75553 21.1491 4.03857 21.1798 6.50391L21.2357 10.9863L24.301 16.2626L27.3664 21.539V40.5547V59.5703L26.7445 60.9203C26.4024 61.663 26.1225 62.2993 26.1225 62.3347C26.1225 62.4387 28.4616 63.457 28.7008 63.457C28.8213 63.457 29.23 62.7683 29.6092 61.9267L30.2986 60.3963V40.4374V20.4785L27.8551 16.2851C26.5113 13.9787 25.4117 12.0604 25.4117 12.0224C25.4117 11.9842 39.206 11.9531 56.0657 11.9531C74.6466 11.9531 86.7196 12.0169 86.7196 12.1152C86.7196 12.2043 85.6401 14.1296 84.3206 16.3939L81.9216 20.5107V40.4534V60.3962L84.4084 65.9155C85.776 68.9511 86.9409 71.5778 86.997 71.7525C87.0923 72.049 86.9263 72.0703 84.5102 72.0703H81.9216V73.5645V75.0586H84.9426H87.9636V77.5383C87.9636 79.8304 87.9401 80.0086 87.6526 79.8931C86.4776 79.4208 86.3107 79.4352 84.8328 80.1364C83.8735 80.5917 83.3079 80.7694 83.1446 80.6671C82.6802 80.3762 82.531 80.5112 81.8827 81.807L81.2328 83.1064L82.293 83.577C83.4842 84.1057 83.6651 84.0818 85.4743 83.1556L86.4502 82.656L87.825 83.3398C88.5809 83.7158 89.3674 84.0234 89.5727 84.0234C89.7778 84.0234 90.1829 83.7888 90.4728 83.5019L91 82.9805L90.9478 77.9208L90.8957 72.8613L87.9191 66.2912L84.9426 59.721L84.943 40.5392L84.9433 21.3574L87.9195 16.2598L90.8957 11.1621L90.9478 6.1026L91 1.04291L90.4728 0.521543C90.1829 0.234668 89.7632 0 89.54 0C89.317 0 88.5111 0.289336 87.7493 0.643008L86.3642 1.28584L84.9792 0.643008C84.2174 0.289336 83.4812 0 83.3433 0C83.2054 0 82.4691 0.289336 81.7073 0.643008L80.3223 1.28584L78.9373 0.643008C78.1754 0.289336 77.4392 0 77.3013 0C77.1634 0 76.4272 0.289336 75.6654 0.643008L74.2803 1.28584L72.8953 0.643008C72.1335 0.289336 71.3973 0 71.2594 0C71.1215 0 70.3853 0.289336 69.6234 0.643008L68.2384 1.28584L66.8534 0.643008C66.0916 0.289336 65.3553 0 65.2174 0C65.0795 0 64.3433 0.289336 63.5815 0.643008L62.1965 1.28584L60.8114 0.643008C60.0496 0.289336 59.3134 0 59.1755 0C59.0376 0 58.3014 0.289336 57.5396 0.643008L56.1545 1.28584L54.7695 0.643008C54.0077 0.289336 53.2715 0 53.1336 0C52.9957 0 52.2594 0.289336 51.4976 0.643008L50.1126 1.28584L48.7276 0.643008C47.9657 0.289336 47.2039 0 47.0349 0C46.8657 0 46.1716 0.276855 45.4923 0.615234C44.8129 0.953613 44.1332 1.23047 43.9818 1.23047C43.8304 1.23047 43.1507 0.953613 42.4713 0.615234C41.7919 0.276855 41.0978 0 40.9286 0C40.7597 0 39.9978 0.289336 39.236 0.643008L37.851 1.28584L36.466 0.643008C35.7041 0.289336 34.9679 0 34.83 0C34.6921 0 33.9559 0.289336 33.1941 0.643008L31.809 1.28584L30.424 0.643008C29.6622 0.289336 28.926 0 28.7881 0C28.6502 0 27.909 0.291621 27.1409 0.648281L25.7444 1.29639L24.4201 0.648281C22.8721 -0.109336 22.3527 -0.15416 21.7725 0.419766ZM30.0567 3.7916C30.7496 4.13684 31.5274 4.42494 31.7849 4.4318C32.0426 4.43883 32.833 4.15547 33.5417 3.80215L34.83 3.15967L36.1049 3.79459C36.8059 4.14387 37.6319 4.42969 37.9404 4.42969C38.2487 4.42969 39.0542 4.15371 39.7306 3.81656L40.9599 3.20344L42.1907 3.81656C42.8676 4.15371 43.6738 4.42969 43.9823 4.42969C44.2906 4.42969 45.0962 4.15371 45.7725 3.81656L47.0019 3.20344L48.2326 3.81656C48.9095 4.15371 49.7158 4.42969 50.0243 4.42969C50.3326 4.42969 51.1337 4.156 51.8045 3.82148L53.0239 3.21346L54.3371 3.83027C55.0595 4.16953 55.8746 4.44094 56.1487 4.4332C56.4229 4.42547 57.2159 4.13578 57.9113 3.78949L59.1755 3.15967L60.4638 3.80215C61.1725 4.15547 61.963 4.43883 62.2206 4.4318C62.4781 4.42494 63.2579 4.13578 63.9532 3.78949L65.2174 3.15967L66.4569 3.77701C67.1386 4.11662 67.9404 4.39453 68.2384 4.39453C68.5364 4.39453 69.3382 4.11662 70.0199 3.77701L71.2594 3.15967L72.5236 3.78949C73.2189 4.13578 73.9987 4.42494 74.2562 4.4318C74.5139 4.43883 75.3043 4.15547 76.013 3.80215L77.3013 3.15967L78.5762 3.79459C79.2772 4.14387 80.1032 4.42969 80.4117 4.42969C80.72 4.42969 81.5255 4.15371 82.2019 3.81656L83.4312 3.20344L84.662 3.81656C85.9278 4.44709 86.7584 4.57453 87.3972 4.23633C87.5982 4.12998 87.8077 4.04297 87.863 4.04297C87.9183 4.04297 87.9636 5.15039 87.9636 6.50391V8.96484H56.1545H24.3455V6.4851C24.3455 4.18922 24.3686 4.01537 24.6565 4.14053C25.5141 4.51318 26.2478 4.42547 27.4727 3.80391C28.1473 3.46148 28.7213 3.17742 28.7481 3.17268C28.7749 3.16793 29.3638 3.44654 30.0567 3.7916ZM72.4145 25.5415L69.5712 26.9824L57.665 27.0703L45.7588 27.1582L44.3372 27.6518C39.1043 29.4685 35.618 33.7435 34.9951 39.1071C34.8833 40.0695 34.8322 44.3 34.8648 49.8639L34.9189 59.0344L35.3496 59.4879C36.0471 60.2221 36.6163 60.0956 39.8315 58.4912L42.7379 57.041L54.5552 56.9463L66.3725 56.8515L67.7337 56.3989C71.382 55.186 74.211 52.7792 75.8639 49.4824C77.2313 46.7552 77.1862 47.2106 77.2553 35.4637L77.317 24.9604L76.8731 24.5213C76.155 23.811 75.5612 23.9469 72.4145 25.5415ZM74.0081 45.8276C73.2443 49.262 70.4411 52.3385 67.0446 53.4697C65.8488 53.868 65.7459 53.8719 53.8444 53.962L41.8493 54.0527L39.8381 55.0709L37.827 56.089L37.8972 47.4244C37.9743 37.9171 37.9622 38.0336 39.1154 35.6915C39.858 34.1829 42.1182 31.9409 43.6264 31.2163C45.9356 30.1069 45.2161 30.1635 58.287 30.063L70.282 29.9707L72.2367 28.9804L74.1915 27.99L74.2407 36.2753C74.2825 43.3169 74.2477 44.7507 74.0081 45.8276ZM1.11421 63.0482C0.606327 63.1517 0 63.9116 0 64.4446C0 64.6717 0.294811 65.4471 0.655373 66.1676L1.31057 67.4775L0.655373 68.859C0.294811 69.6187 0 70.3519 0 70.4883C0 70.6247 0.292501 71.353 0.650042 72.1065L1.29991 73.4766L0.650042 74.8466C0.292501 75.6002 0 76.3284 0 76.4648C0 76.6012 0.292501 77.3295 0.650042 78.0831L1.29991 79.4531L0.650042 80.8232C0.292501 81.5767 0 82.305 0 82.4414C0 82.5778 0.292501 83.3061 0.650042 84.0596L1.29991 85.4297L0.650042 86.7997C0.292501 87.5533 0 88.3505 0 88.5711C0 88.7919 0.233681 89.2035 0.519429 89.4862L1.03886 90H6.01067H10.9825L14.0283 88.5059L17.0742 87.0117H39.4503H61.8265L64.8723 88.5059L67.9182 90H72.8523C77.5274 90 77.8104 89.9814 78.241 89.6463C79.0156 89.0436 79.0112 88.4519 78.2202 86.8959L77.519 85.5163L78.0955 84.3743C78.9803 82.6211 78.9842 82.5057 78.2101 80.9225L77.5268 79.5247L78.0992 78.3902C78.9799 76.6452 78.9837 76.5281 78.2101 74.9459L77.5268 73.5481L78.0992 72.4136C78.9828 70.663 78.9856 70.5554 78.1902 68.9284L77.4868 67.4896L78.2298 66.0074C78.9707 64.5302 78.9721 64.5233 78.6776 63.9125C78.2241 62.9719 77.7219 62.8956 72.4145 62.9608L67.7941 63.0176L64.9086 64.4678L62.023 65.918H39.4503H16.8776L13.9921 64.4678L11.1065 63.0176L6.3085 62.9924C3.66959 62.9787 1.33207 63.0039 1.11421 63.0482ZM9.06291 76.4648V87.0117H6.57505C5.20673 87.0117 4.0872 86.9669 4.0872 86.9122C4.0872 86.8576 4.17516 86.6503 4.28267 86.4515C4.62475 85.8194 4.49574 84.9969 3.85831 83.7462L3.23848 82.5302L3.85831 81.3127C4.19915 80.6432 4.47815 79.8458 4.47815 79.541C4.47815 79.2362 4.1892 78.4194 3.8361 77.7259L3.19423 76.4648L3.84374 75.1904C4.20093 74.4894 4.48739 73.7075 4.48028 73.4527C4.47335 73.198 4.18351 72.4314 3.83628 71.7493L3.2049 70.5092L3.92424 69.0265C4.63541 67.5603 4.64039 67.5362 4.3653 66.8851C4.2123 66.5228 4.0872 66.1572 4.0872 66.0723C4.0872 65.9874 5.20673 65.918 6.57505 65.918H9.06291V76.4648ZM74.7509 66.1377C74.1979 67.4569 74.2052 67.5896 74.9114 69.0783L75.5902 70.509L75.0479 71.5973C74.1943 73.3099 74.1837 73.5555 74.8989 75.0289C75.2428 75.7378 75.5243 76.4235 75.5243 76.5527C75.5243 76.6819 75.2444 77.3655 74.9023 78.0715C74.5602 78.7776 74.2803 79.4403 74.2803 79.5442C74.2803 79.6481 74.5871 80.3619 74.962 81.1306L75.6435 82.5282L74.9425 83.9732C74.215 85.4731 74.216 85.4606 74.7255 86.7041C74.8419 86.9883 74.6617 87.0117 72.3446 87.0117H69.8377V76.4648V65.918H72.3404C74.2732 65.918 74.8222 65.9681 74.7509 66.1377ZM14.2638 67.9834L16.2599 68.9941H39.4503H62.6407L64.6399 67.982L66.6391 66.9697V76.4634C66.6391 81.6848 66.5978 85.957 66.5472 85.957C66.4967 85.957 65.5785 85.522 64.5066 84.9902L62.5577 84.0234H39.4503H16.3429L14.394 84.9902C13.3221 85.522 12.3639 85.957 12.2646 85.957C12.1443 85.957 12.0839 82.7794 12.0839 76.4648C12.0839 71.2441 12.1251 66.9727 12.1758 66.9727C12.2262 66.9727 13.1657 67.4274 14.2638 67.9834ZM20.1614 72.5019C19.7273 72.9311 19.7252 72.9506 19.7252 76.4471C19.7252 79.908 19.7316 79.9683 20.154 80.454L20.5829 80.9473H39.4301H58.277L58.6818 80.5474C59.0678 80.1661 59.0893 80.0023 59.143 77.0344C59.2069 73.5075 59.1373 72.9156 58.6006 72.4212C58.2251 72.0751 57.962 72.0703 39.4087 72.0703H20.5975L20.1614 72.5019ZM56.1545 76.5527V78.0469H39.4503H22.7461V76.5527V75.0586H39.4503H56.1545V76.5527Z" fill="#C39367"/>
</svg>
