<svg width="77" height="92" viewBox="0 0 77 92" fill="none" xmlns="http://www.w3.org/2000/svg">
<path fill-rule="evenodd" clip-rule="evenodd" d="M27.8165 0.142434C25.0708 0.831486 22.9387 3.31894 22.6731 6.1431L22.5617 7.32921H19.5957C16.2375 7.32921 15.6061 7.48273 15.0174 8.44197C14.7341 8.90326 14.6519 9.35016 14.6514 10.4302L14.6507 11.8234H8.98209H3.31368L2.3322 12.3178C1.23092 12.8724 0.426081 13.8618 0.164379 14.9827C-0.0547928 15.9219 -0.0547928 87.9015 0.164379 88.8408C0.426081 89.9616 1.23092 90.9511 2.3322 91.5056L3.31368 92H8.89992H14.4862L14.9303 91.5587C15.1746 91.316 15.3746 90.9079 15.3746 90.6517C15.3746 90.3956 15.1746 89.9875 14.9303 89.7448L14.4862 89.3035H9.15366C6.22082 89.3035 3.6894 89.2531 3.52832 89.1918C2.66919 88.8643 2.70575 90.5185 2.70575 51.9117C2.70575 13.3049 2.66919 14.9591 3.52832 14.6316C3.6894 14.5703 6.25792 14.5199 9.23601 14.5199H14.6507L14.6514 15.9131C14.6519 16.9932 14.7341 17.4401 15.0174 17.9014C15.7188 19.0445 15.3267 19.0141 29.3889 19.0141C43.3502 19.0141 42.8814 19.0485 43.6986 17.9657C43.9753 17.599 44.0756 17.1372 44.1244 16.003L44.1881 14.5199H49.5748C54.7502 14.5199 54.98 14.5345 55.4381 14.8926L55.915 15.2651V22.2352V29.2054L54.3314 30.1731L52.7478 31.1408L50.576 31.1505C47.4049 31.1647 46.8624 31.5143 45.2024 34.6139C44.5621 35.8093 44.4728 35.8931 43.0566 36.6248C41.3215 37.5214 40.2682 38.4958 40.0013 39.4511C39.8958 39.8282 39.8091 40.9919 39.8085 42.0369L39.8074 43.9366L39.0777 45.0929C37.9502 46.8791 37.7484 47.4083 37.7453 48.586C37.7422 49.7351 38.055 50.5136 39.1532 52.0915C39.6963 52.8718 39.7193 52.9829 39.8071 55.2374C39.8894 57.3549 39.943 57.6504 40.3781 58.3834C40.8533 59.1839 41.146 59.4061 43.4177 60.69C44.4902 61.2961 44.6469 61.466 45.3539 62.7877C46.2354 64.4363 47.0086 65.3217 47.8835 65.6848L48.4947 65.9385L48.4957 73.1716C48.4963 77.5508 48.5698 80.6663 48.682 81.0676C48.9504 82.0274 49.7749 82.6521 50.7736 82.6521C51.3942 82.6521 52.0704 82.4065 53.7459 81.572L55.915 80.4921V84.5252V88.5583L55.4381 88.9308C54.9632 89.302 54.8915 89.3035 37.4546 89.3035C20.0178 89.3035 19.9461 89.3049 19.4712 89.6761C18.8479 90.1631 18.8211 91.0566 19.4131 91.6092L19.8321 92H37.4675C48.4054 92 55.3371 91.9333 55.7195 91.8244C56.7122 91.5416 57.6405 90.7907 58.1527 89.8559L58.6297 88.9851V84.7401C58.6297 82.4052 58.6717 80.4948 58.7229 80.4948C58.7744 80.4948 59.7911 80.9802 60.9825 81.5734C63.2881 82.7215 64.0173 82.8689 64.9701 82.3793C66.0448 81.8273 66.0501 81.7847 66.0501 73.5103V65.9689L66.5753 65.7869C67.4786 65.4741 68.5191 64.3626 69.2948 62.8813C70.0811 61.3801 70.3421 61.1343 72.1615 60.1819C73.5015 59.4807 74.4577 58.4955 74.7243 57.5422C74.8298 57.1644 74.9166 56.0027 74.9172 54.9604L74.9183 53.0655L75.8087 51.6649C77.3851 49.1853 77.3938 47.9942 75.854 45.5783L75.0209 44.2716L74.9192 41.9346C74.7751 38.6211 74.4343 38.1001 71.3326 36.4516C70.2272 35.8642 70.094 35.7238 69.321 34.3324C67.7866 31.57 66.8296 31.0207 63.6953 31.1032L61.9779 31.1485L60.3122 30.1598L58.6462 29.171L58.6363 21.9803L58.6263 14.7896L58.0861 13.8541C57.7114 13.2049 57.2823 12.7645 56.6853 12.4159L55.8245 11.9133L49.9878 11.8592L44.151 11.8049V10.508C44.151 8.96132 43.7842 8.14302 42.8729 7.65764C42.3468 7.37738 41.8162 7.32921 39.2581 7.32921H36.2598L36.0665 5.99658C35.7159 3.57942 34.3779 1.68215 32.3109 0.671312C31.0522 0.0557862 29.0845 -0.175755 27.8165 0.142434ZM30.5914 2.86035C31.5173 3.13593 32.4942 3.96502 32.9648 4.87483C33.2603 5.44613 33.3709 6.05537 33.4361 7.46978C33.557 10.1005 33.4254 10.0257 37.9315 10.0257H41.4363V13.1717V16.3176H29.4009H17.3654V13.1717V10.0257H20.9028C24.4173 10.0257 24.4432 10.0229 24.8844 9.5844C25.2846 9.18711 25.3289 8.99494 25.3298 7.65189C25.3311 5.68379 25.5693 4.91869 26.476 3.9688C27.6071 2.78413 29.0389 2.39852 30.5914 2.86035ZM8.76057 25.7474C8.51624 25.99 8.31625 26.3981 8.31625 26.6543C8.31625 26.9104 8.51624 27.3185 8.76057 27.5612L9.2047 28.0025H29.314C43.1426 28.0025 49.5355 27.943 49.7822 27.8118C50.6502 27.3503 50.5685 25.9246 49.6502 25.5092C49.3254 25.3621 43.6808 25.306 29.203 25.306H9.2047L8.76057 25.7474ZM59.0869 32.5516C61.0522 33.7566 61.3802 33.8497 63.5149 33.808C64.8699 33.7814 65.522 33.8412 65.7915 34.0167C65.9992 34.1519 66.5576 34.9497 67.0321 35.7896C68.0586 37.6061 68.4534 38.0023 70.1222 38.8907C72.2413 40.0191 72.2028 39.9548 72.2075 42.3703C72.2119 44.6554 72.3239 45.0408 73.5236 46.9001C74.4816 48.3847 74.496 48.5935 73.7272 49.8444C72.3353 52.1089 72.2071 52.5217 72.2053 54.7511C72.2032 57.1404 72.1749 57.1874 70.0714 58.2852C68.525 59.0924 67.7276 59.9166 66.8842 61.5802C66.0155 63.2939 65.9466 63.3342 63.9876 63.2748C61.8328 63.2094 60.9458 63.4402 59.2402 64.5099C58.4647 64.9963 57.6199 65.3943 57.3629 65.3943C57.1059 65.3943 56.261 64.9963 55.4855 64.5099C53.7787 63.4393 52.8933 63.2094 50.7298 63.275C48.7428 63.3353 48.6993 63.3072 47.5809 61.2433C46.6892 59.5977 46.0521 58.9728 44.46 58.1827C42.5533 57.2364 42.5224 57.1854 42.5211 54.9814C42.52 52.629 42.3959 52.1779 41.2587 50.3891C40.7592 49.6033 40.3504 48.7931 40.3504 48.5887C40.3504 48.3843 40.7257 47.6181 41.1844 46.8861C42.362 45.0065 42.5222 44.4447 42.5222 42.1945C42.5222 39.9395 42.4793 40.0125 44.3832 39.0198C46.0734 38.1384 46.8332 37.3636 47.7796 35.5568C48.6898 33.8193 48.9424 33.6735 50.7712 33.8328C52.5235 33.9854 53.5964 33.7145 55.3865 32.6681C56.2241 32.1784 57.1154 31.7777 57.3672 31.7777C57.6188 31.7777 58.3927 32.1259 59.0869 32.5516ZM8.69143 33.6895C8.48511 33.95 8.31625 34.3392 8.31625 34.5544C8.31625 35.0324 8.90698 35.6934 9.45247 35.8261C9.67363 35.8798 15.8995 35.901 23.2878 35.8731L36.7208 35.8225L37.1178 35.428C37.6543 34.895 37.647 33.985 37.1028 33.5473C36.7103 33.2316 36.0319 33.2158 22.8786 33.2158H9.06643L8.69143 33.6895ZM54.6134 37.2691C53.3057 37.584 51.3658 38.4535 50.8683 38.9477C50.3085 39.5037 50.3537 40.4572 50.9624 40.9327C51.5819 41.4168 51.7448 41.4052 52.9792 40.7862C55.8674 39.3384 58.9447 39.3168 61.6024 40.7255C62.8885 41.4071 64.6323 43.1761 65.2858 44.4619C66.0412 45.9483 66.2492 46.8313 66.2486 48.5488C66.2463 56.5283 56.6641 60.4654 51.0252 54.804C49.6732 53.4466 48.9596 52.1256 48.5562 50.2341C48.2514 48.805 48.3316 47.2025 48.7699 45.9686C49.1469 44.9072 49.1046 44.4116 48.5933 43.9039C48.0364 43.3506 47.3351 43.3396 46.7956 43.8755C45.8621 44.803 45.3839 48.8914 45.9401 51.1926C46.0715 51.7364 46.5064 52.8645 46.9065 53.6993C48.3455 56.7016 51.5947 59.2205 54.9196 59.9116C59.4816 60.8597 64.1369 59.0435 66.86 55.2531C68.3417 53.1906 68.9661 51.1898 68.9592 48.5258C68.9505 45.1884 67.9464 42.8223 65.5113 40.4008C63.8059 38.7052 62.1562 37.7584 60.0456 37.2642C58.637 36.9343 55.993 36.9367 54.6134 37.2691ZM8.76057 41.3872C8.51624 41.6299 8.31625 42.0379 8.31625 42.2941C8.31625 42.5503 8.51624 42.9584 8.76057 43.201L9.2047 43.6424H20.3119H31.419L31.8127 43.2264C32.3346 42.6743 32.3142 41.9358 31.7618 41.3872L31.3177 40.9459H20.2612H9.2047L8.76057 41.3872ZM8.69143 49.3293C8.04821 50.1413 8.29906 50.99 9.29302 51.3654C9.61481 51.4869 13.487 51.5522 20.3725 51.5522C29.3082 51.5522 31.037 51.5112 31.4691 51.2892C32.2935 50.8658 32.4781 49.8449 31.8441 49.2152C31.49 48.8634 31.2409 48.8556 20.2744 48.8556H9.06643L8.69143 49.3293ZM8.76057 57.027C8.51624 57.2697 8.31625 57.6778 8.31625 57.9339C8.31625 58.1901 8.51624 58.5982 8.76057 58.8409L9.2047 59.2822H20.2286C31.107 59.2822 31.2587 59.2773 31.7292 58.9095C32.3527 58.4226 32.3665 57.6274 31.7618 57.027L31.3177 56.5857H20.2612H9.2047L8.76057 57.027ZM8.69143 64.9692C8.26033 65.5133 8.23408 65.7377 8.5271 66.3762C8.66066 66.6674 8.97557 66.9044 9.38677 67.0228C9.81787 67.1472 14.5119 67.1918 23.3783 67.156L36.7208 67.1021L37.1178 66.7077C37.6054 66.2232 37.6373 65.3533 37.1853 64.8573C36.8603 64.5007 36.6554 64.4955 22.9611 64.4955H9.06643L8.69143 64.9692ZM53.7557 66.6584C55.4064 67.6865 56.0572 67.9557 57.1198 68.0499C58.1621 68.1423 59.3692 67.6934 60.9098 66.6405C61.4238 66.2894 62.0626 66.0293 62.5444 65.9753L63.3353 65.8869V72.8319V79.7768L60.7413 78.428C57.3402 76.6597 57.3916 76.6597 53.9736 78.4275C52.5398 79.1691 51.3314 79.7758 51.2881 79.7758C51.158 79.7758 51.1996 66.1831 51.3301 66.0535C51.6559 65.7298 52.6707 65.9829 53.7557 66.6584ZM8.76057 72.6668C8.51624 72.9095 8.31625 73.3176 8.31625 73.5738C8.31625 73.8299 8.51624 74.238 8.76057 74.4807L9.2047 74.922H24.3333H39.4619L39.9061 74.4807C40.1504 74.238 40.3504 73.8299 40.3504 73.5738C40.3504 73.3176 40.1504 72.9095 39.9061 72.6668L39.4619 72.2255H24.3333H9.2047L8.76057 72.6668ZM8.69143 80.609C8.20295 81.2256 8.21798 81.6197 8.75296 82.2375L9.18968 82.7419L23.8199 82.7946C31.8664 82.8237 38.7194 82.7989 39.0484 82.7398C40.2488 82.5235 40.7723 81.2734 39.9884 80.4948C39.6322 80.1411 39.3852 80.1353 24.3465 80.1353H9.06643L8.69143 80.609Z" fill="#C39367"/>
</svg>
