<svg width="48" height="71" viewBox="0 0 48 71" fill="none" xmlns="http://www.w3.org/2000/svg">
<path fill-rule="evenodd" clip-rule="evenodd" d="M21.687 0.181623C17.4856 0.943422 14.023 3.61582 12.1998 7.50332C11.3004 9.42113 11.0828 10.5723 11.0004 13.8475L10.929 16.6911L10.4385 17.6806C9.97945 18.6071 9.95155 18.74 10.0006 19.7613C10.0619 21.0429 10.3859 21.8156 11.2295 22.6928C11.8837 23.3732 12.3381 23.6305 13.3359 23.8856L14.0606 24.0709L14.3061 25.0684C14.7761 26.9795 15.9488 28.9159 17.3418 30.0812L18.0303 30.6573V32.0054V33.3534L11.6795 35.8118C8.18651 37.1639 4.99514 38.471 4.58744 38.7162C2.81046 39.7853 1.23935 41.6667 0.607322 43.4825C0.0205482 45.1685 -0.0323407 46.4689 0.0120802 58.1071L0.0537253 69.007L0.470172 69.6788C0.743639 70.1199 1.09665 70.4614 1.49838 70.6733C2.10875 70.9956 2.12291 70.9963 7.54546 70.9963C12.8234 70.9963 12.9894 70.9881 13.2844 70.7134C13.6928 70.3332 13.6928 69.5786 13.2844 69.1984C13.0238 68.9558 12.797 68.9156 11.688 68.9156H10.3955V58.5061V48.0964L10.0547 47.756C9.59105 47.2926 8.97707 47.3031 8.60102 47.781C8.31575 48.1433 8.31325 48.2352 8.31325 58.531V68.9156L5.43283 68.9135C3.84866 68.9123 2.4587 68.8521 2.34418 68.7798C2.16178 68.6645 2.13596 67.2136 2.13596 57.0955C2.13596 46.2995 2.15262 45.4884 2.38985 44.7106C2.89611 43.0507 3.94334 41.6483 5.37244 40.7164C6.36928 40.0664 13.6428 37.1648 13.832 37.3415C13.8888 37.3947 14.6849 38.9497 15.6011 40.7969C16.9812 43.5796 17.3478 44.2093 17.7385 44.4679C18.3246 44.8557 19.0628 44.8687 19.6648 44.502C19.9148 44.3497 20.146 44.2251 20.1786 44.2251C20.2113 44.2251 20.4209 44.4908 20.6444 44.8153L21.0508 45.4056L19.4604 54.7678C18.1071 62.7334 17.8921 64.2025 18.0187 64.6156C18.1121 64.9203 18.8155 65.811 19.9087 67.0083L21.6498 68.9156H19.4424C17.4193 68.9156 17.2044 68.9396 16.8691 69.2031C16.3622 69.6015 16.3633 70.3112 16.8715 70.7107L17.2396 71L31.7002 70.9635L46.1609 70.9269L46.7379 70.5453C47.0553 70.3354 47.4567 69.8985 47.63 69.5743C47.9382 68.998 47.9461 68.8745 47.9894 63.9948C48.0138 61.2503 47.9946 58.7969 47.9469 58.5428C47.7805 57.6563 46.9396 57.2614 46.2793 57.7597C46.0124 57.9611 45.999 58.174 45.9323 63.3088C45.8733 67.8524 45.8318 68.6681 45.6546 68.7799C45.5401 68.8522 44.1503 68.9123 42.566 68.9135L39.6856 68.9156V58.531C39.6856 48.2352 39.6831 48.1433 39.3978 47.781C39.0217 47.3031 38.4078 47.2926 37.9441 47.756L37.6033 48.0964V58.5061V68.9156H31.972H26.3405L28.0857 67.0083C29.1931 65.7981 29.8844 64.9236 29.9775 64.6156C30.1019 64.2046 29.8803 62.6933 28.5348 54.7698L26.9452 45.4096L27.3531 44.8173C27.5772 44.4916 27.7875 44.2251 27.8202 44.2251C27.8528 44.2251 28.0841 44.3497 28.3341 44.502C28.9117 44.8539 29.635 44.8553 30.2092 44.5055C30.5804 44.2792 30.9603 43.6284 32.4032 40.7465C33.8799 37.7973 34.1885 37.2717 34.4096 37.3295C34.5533 37.3671 36.2521 38.0085 38.1847 38.7551C42.8042 40.5393 43.8361 41.2144 44.9567 43.1848C45.7687 44.613 45.8255 45.0126 45.8974 49.8104L45.9634 54.2166L46.3136 54.4919C46.7742 54.8538 47.0822 54.8391 47.5556 54.4326L47.9451 54.098L47.9878 50.6527C48.0366 46.7333 47.8837 44.897 47.3915 43.4825C46.7708 41.6995 45.3749 39.9904 43.6056 38.8477C43.0871 38.5129 40.4457 37.4129 36.3784 35.8381L29.9685 33.3562L29.9693 31.9592L29.9703 30.5621L30.9929 29.491C32.3712 28.0476 33.165 26.5087 33.6331 24.3729C33.6986 24.074 33.8139 23.9932 34.2826 23.9183C35.4888 23.7257 36.7585 22.7898 37.3095 21.6874C37.4863 21.3336 37.6987 20.6497 37.7813 20.1679C37.9151 19.3868 37.8975 19.1886 37.6183 18.3383C37.4462 17.8138 37.2005 17.2691 37.0725 17.1279C36.8755 16.9104 36.8269 16.3998 36.7554 13.7988C36.687 11.3061 36.6164 10.5251 36.3812 9.65874C35.2415 5.45984 32.1067 2.07169 28.0928 0.700817C26.0642 0.00795798 23.7011 -0.183463 21.687 0.181623ZM26.7509 2.4666C29.9765 3.38861 32.5356 5.63503 33.8325 8.68319C34.4561 10.1484 34.6882 11.4735 34.6882 13.5669V15.3786L34.3065 15.2875C33.7595 15.1568 33.7165 15.1171 33.7165 14.7446C33.7165 14.3889 32.8638 13.3382 31.0603 11.4715C30.2061 10.5875 29.9431 10.3977 29.4617 10.3173C28.8337 10.2126 28.861 10.2021 26.4981 11.461C23.4386 13.091 20.4164 13.847 16.9555 13.8481C15.119 13.8486 14.5264 14.06 14.2407 14.8163C14.0962 15.1988 13.8033 15.3674 13.2759 15.3714C13.0599 15.3731 13.0334 15.2155 13.0373 13.9516C13.0396 13.1695 13.0986 12.0916 13.1683 11.556C13.7856 6.81129 17.3858 3.05002 22.1271 2.19625C23.2247 1.99873 25.5995 2.13744 26.7509 2.4666ZM30.4196 13.8124L31.6343 15.1403L31.6326 19.5222C31.6313 22.9218 31.5855 24.0748 31.4281 24.6658C30.7199 27.3252 28.6011 29.4408 25.9366 30.1495C24.9354 30.4157 22.9308 30.4082 21.8678 30.1344C19.4481 29.511 17.4624 27.6951 16.5225 25.2466C16.1744 24.3393 16.1659 24.2332 16.1162 20.1242L16.0655 15.9282L17.3603 15.9257C20.8336 15.9189 24.9636 14.8088 27.8862 13.0965C28.4589 12.761 28.9898 12.4861 29.0662 12.4855C29.1425 12.4848 29.7516 13.082 30.4196 13.8124ZM14.0047 19.604C14.0047 22.1344 14.0009 22.143 13.161 21.5773C11.7829 20.6495 11.6543 18.7905 12.9061 17.8972C13.1667 17.7112 13.7516 17.3974 13.97 17.3265C13.989 17.3204 14.0047 18.3452 14.0047 19.604ZM34.8413 17.7415C35.2972 18.066 35.7998 19.0518 35.7957 19.6132C35.7885 20.574 34.9975 21.6016 34.0898 21.8292L33.7165 21.9228V19.604V17.2852L34.0898 17.3788C34.2951 17.4303 34.6332 17.5935 34.8413 17.7415ZM23.5242 32.4001C24.9077 32.455 25.3928 32.4175 26.3006 32.1856C26.9055 32.0309 27.5098 31.8612 27.6433 31.808C27.8613 31.7215 27.8862 31.8151 27.8862 32.7189V33.7265L25.9988 36.0628C24.9607 37.3479 24.0605 38.3993 23.9983 38.3993C23.9361 38.3993 23.0369 37.3537 22 36.0759L20.1147 33.7525L20.1137 32.7614L20.1126 31.7703L20.9802 32.0519C21.5769 32.2457 22.371 32.3543 23.5242 32.4001ZM20.6366 37.7063C21.6506 38.9529 22.4316 40.0154 22.3722 40.0676C22.0489 40.3512 18.8295 42.5725 18.7956 42.5354C18.5867 42.3059 15.8147 36.5442 15.8811 36.477C16.0293 36.3272 18.507 35.3708 18.6546 35.4065C18.7308 35.4248 19.6227 36.4598 20.6366 37.7063ZM30.6626 35.8506C31.3879 36.1278 32.0325 36.4006 32.0951 36.4572C32.1797 36.5335 29.4517 42.264 29.2001 42.5384C29.1763 42.5643 28.3411 42.0049 27.3443 41.2953C25.7282 40.1447 25.5503 39.9782 25.7025 39.7593C26.0619 39.2431 29.2085 35.3635 29.2744 35.3554C29.3126 35.3507 29.9372 35.5735 30.6626 35.8506ZM25.1099 42.2584C25.6062 42.6025 26.0325 42.8992 26.0574 42.9178C26.0822 42.9362 25.9332 43.2067 25.7265 43.5188L25.3506 44.0864H23.9994H22.6482L22.2671 43.511C21.9646 43.0543 21.9251 42.9133 22.0751 42.8266C22.1791 42.7667 22.639 42.4408 23.0971 42.1023C23.5552 41.7638 23.9925 41.5197 24.0688 41.5598C24.1452 41.5998 24.6137 41.9142 25.1099 42.2584ZM25.0262 46.5485C25.0687 46.7583 25.7328 50.6752 26.5018 55.2526C27.271 59.8301 27.9265 63.6689 27.9584 63.7833C28.0135 63.9804 24.2275 68.2914 23.9994 68.2914C23.9433 68.2914 23.0177 67.3239 21.9426 66.1414C20.4917 64.5455 20.0037 63.9198 20.05 63.714C20.0843 63.5614 20.7379 59.7226 21.5027 55.1833C22.2675 50.644 22.9284 46.7583 22.9715 46.5485C23.0477 46.1772 23.0749 46.1671 23.9994 46.1671C24.9242 46.1671 24.9511 46.1771 25.0262 46.5485Z" fill="#C39367"/>
</svg>
