<svg width="81" height="81" viewBox="0 0 81 81" fill="none" xmlns="http://www.w3.org/2000/svg">
<path fill-rule="evenodd" clip-rule="evenodd" d="M64.0492 2.59553C61.7452 4.05768 59.8772 5.32919 59.8979 5.4211C59.9777 5.77366 60.9227 7.18597 61.0789 7.18597C61.1693 7.18597 62.4257 6.4418 63.8712 5.53206C65.3168 4.62248 66.5955 3.8545 66.713 3.82561C66.8707 3.78687 67.5611 6.1448 69.3469 12.8212C70.6781 17.7977 71.7432 21.8937 71.7141 21.9235C71.6585 21.9801 58.5683 21.528 54.8816 21.3421L52.7486 21.2344L51.763 17.5114C51.2209 15.4636 50.836 13.7492 50.9078 13.7016C50.9794 13.654 52.7385 12.5509 54.8167 11.2505C56.895 9.94995 58.6824 8.80655 58.7886 8.7094C58.9383 8.57256 58.8421 8.3108 58.3625 7.54885L57.7429 6.56498L53.5848 9.19181C51.2981 10.6367 49.249 11.909 49.0317 12.0191C48.8143 12.1294 46.8225 12.703 44.6055 13.2938C42.3884 13.8845 40.5194 14.418 40.4523 14.4793C40.3437 14.5782 43.2171 25.6871 43.3984 25.8693C43.4387 25.9097 44.1453 25.7584 44.9689 25.5331C45.7923 25.3079 46.5688 25.1236 46.6945 25.1236C46.842 25.1236 47.4931 26.4606 48.5344 28.9021C49.4207 30.9803 50.3194 32.9371 50.5314 33.2503C51.0115 33.9598 52.3329 34.6483 53.2122 34.647C54.6982 34.645 56.034 33.8025 56.5395 32.5483C57.0716 31.2285 56.9369 30.5553 55.4359 27.0332C54.6835 25.2677 54.092 23.799 54.1212 23.7697C54.1504 23.7403 58.797 23.89 64.4469 24.1022C70.0968 24.3146 74.7625 24.4707 74.8152 24.4488C74.9141 24.4078 68.4574 0.113793 68.3173 0.000770263C68.2738 -0.0343112 66.3532 1.13338 64.0492 2.59553ZM73.9634 3.34161L72.2664 5.05108L73.1016 5.87922L73.9367 6.70753L75.6337 4.99822L77.3307 3.28875L76.4955 2.4606L75.6604 1.6323L73.9634 3.34161ZM62.4222 9.26118C61.5781 9.79153 60.8876 10.2758 60.8876 10.3378C60.8876 10.473 61.9937 12.2656 62.0772 12.2656C62.1268 12.2656 65.1391 10.3966 65.2847 10.2755C65.3544 10.2176 64.1489 8.29715 64.043 8.29715C63.9956 8.29715 63.2662 8.73099 62.4222 9.26118ZM77.5847 9.34023C76.5521 9.63231 75.6778 9.90122 75.6414 9.93757C75.6052 9.97408 75.6939 10.477 75.8386 11.0554C76.0286 11.815 76.1731 12.1064 76.3591 12.105C76.5006 12.1039 77.2567 11.9242 78.0392 11.7056C78.8217 11.4872 79.7366 11.233 80.0722 11.1411C80.7423 10.9576 80.7439 10.9468 80.3229 9.37722C80.1235 8.6332 80.0852 8.63273 77.5847 9.34023ZM57.726 12.1993C57.2478 12.5076 56.8795 12.845 56.9073 12.9492C56.9459 13.093 57.6878 14.3572 57.9827 14.7818C58.0498 14.8783 59.9391 13.6559 59.9391 13.516C59.9391 13.3132 58.8387 11.6301 58.7091 11.6348C58.6467 11.637 58.2042 11.891 57.726 12.1993ZM49.5115 18.2692C50.1773 20.8047 50.3145 21.5219 50.1533 21.6221C49.9797 21.7297 45.59 22.9138 45.179 22.9638C45.0696 22.9771 43.142 16.203 43.2363 16.137C43.2504 16.1273 44.4355 15.8019 45.8701 15.4138C47.5714 14.9536 48.5108 14.7666 48.5715 14.876C48.6226 14.9682 49.0456 16.4951 49.5115 18.2692ZM76.1478 16.6592C76.0045 17.1675 75.8558 17.6926 75.8175 17.8263C75.7625 18.0179 76.2176 18.1947 77.9801 18.6665C79.2079 18.9949 80.2559 19.2202 80.309 19.1669C80.4856 18.9894 80.945 17.1088 80.8348 17.014C80.7752 16.9626 79.8373 16.6837 78.7505 16.394C77.6637 16.1043 76.6922 15.8376 76.5915 15.8013C76.4823 15.7617 76.3032 16.1081 76.1478 16.6592ZM7.61498 19.1515C6.32205 19.4396 5.57956 19.8531 4.59773 20.8322C3.9926 21.4356 3.59424 22.0126 3.3331 22.6642C2.9575 23.6009 2.95086 23.7054 2.90486 29.4492L2.85807 35.2829H4.05093H5.2438L5.24538 29.7667C5.2468 24.2899 5.24965 24.2446 5.6235 23.4382C5.83138 22.99 6.2525 22.4326 6.56328 22.1947C7.68406 21.3362 7.93683 21.3138 16.4995 21.3138H24.3853L24.3388 20.163L24.2923 19.0121L16.3884 18.9849C10.6605 18.9653 8.24509 19.0111 7.61498 19.1515ZM26.7425 20.1214V21.3138H32.7565H38.7705L38.724 20.163L38.6775 19.0121L32.71 18.9705L26.7425 18.9289V20.1214ZM52.9607 27.3062C53.7582 29.2053 54.4098 30.9552 54.4086 31.1954C54.4038 32.1351 53.1955 32.6215 52.5734 31.934C52.4078 31.751 51.585 29.9831 50.7448 28.0052L49.2174 24.4092L50.1125 24.1443C50.6049 23.9987 51.1209 23.8737 51.2592 23.8665C51.4408 23.8573 51.9143 24.8144 52.9607 27.3062ZM9.19577 45.6002V65.9197H34.3303H59.4649V64.7292V63.5386H35.5153H11.5655L11.6058 45.6407L11.646 27.7428L26.0777 27.7023L40.5092 27.6617L40.4629 26.5118L40.4164 25.3617L24.8061 25.3212L9.19577 25.2807V45.6002ZM69.2658 45.2042V63.5386H65.5509H61.8361V64.7314V65.9242L66.7761 65.8823L71.716 65.8403L71.7562 46.355L71.7963 26.8697H70.5311H69.2658V45.2042ZM75.747 31.0763V35.2829H76.9326H78.1182V31.0763V26.8697H76.9326H75.747V31.0763ZM2.87261 53.7761V69.8882H1.43631H0L0.0531146 73.2654L0.106229 76.6426L0.62378 77.6977C1.2719 79.0189 2.52531 80.2117 3.74853 80.6712L4.62334 81H40.5694H76.5155L77.6644 80.4047C79.0164 79.7042 79.9496 78.6635 80.4979 77.2449C80.8169 76.4197 80.8645 75.9619 80.9282 73.1027L81 69.8882H79.5591H78.1182V53.7761V37.664H76.9334H75.7486L75.7083 53.7364L75.668 69.8088L63.0612 69.8495L50.4544 69.8901V70.6525C50.4544 72.1461 51.2932 72.0253 40.5838 72.0745L31.1616 72.1179L30.7701 71.7247C30.4681 71.4213 30.3784 71.1661 30.3784 70.6097V69.8882H21.7631H13.1477V71.0788V72.2693H20.7355C25.7993 72.2693 28.3233 72.3233 28.3233 72.4315C28.3233 72.5209 28.6177 72.9146 28.9776 73.3067C30.0986 74.5277 29.8918 74.5077 40.829 74.4567L50.3754 74.4123L51.0559 74.0475C51.4301 73.8469 51.9595 73.3646 52.2323 72.976L52.7284 72.2693H65.6821H78.6359L78.5567 74.1345C78.4663 76.268 78.2716 76.8713 77.3977 77.7235C76.2303 78.8619 79.0578 78.785 40.0945 78.7394L5.00668 78.6983L4.37436 78.3565C2.87973 77.5488 2.40659 76.5173 2.40185 74.0551L2.39837 72.2693H6.58747H10.7766V71.0788V69.8882H8.01018H5.2438V53.7761V37.664H4.0582H2.87261V53.7761ZM6.03419 75.5305V76.728L7.18026 76.6813L8.32634 76.6347L8.37281 75.4838L8.41929 74.3329H7.22674H6.03419V75.5305ZM10.7766 75.5268V76.7207L13.8986 76.6777L17.0207 76.6347L17.0672 75.4838L17.1136 74.3329H13.9451H10.7766V75.5268Z" fill="#C39367"/>
</svg>
