<svg width="108" height="67" viewBox="0 0 108 67" fill="none" xmlns="http://www.w3.org/2000/svg">
<path fill-rule="evenodd" clip-rule="evenodd" d="M18.3432 0.472838C17.8818 0.776411 17.5297 1.23736 17.3558 1.7653C17.1993 2.24051 16.3311 12.6741 15.2917 26.5738C14.3051 39.7672 13.3049 52.6226 13.0694 55.1413C12.5843 60.3296 12.6544 60.8331 13.972 61.62C14.5915 61.9902 15.0336 62.0375 17.8719 62.0381L21.073 62.039L21.8104 63.0231C25.4485 67.8782 32.8594 68.3338 37.2281 63.9708C37.6657 63.5339 38.1803 62.9203 38.372 62.6076L38.7203 62.039H55.9669H73.2135L73.6644 62.7536C73.9124 63.147 74.5691 63.868 75.1237 64.3563C79.3858 68.1098 85.6771 67.8358 89.5178 63.7295C90.2056 62.9943 90.7683 62.3132 90.7683 62.2158C90.7683 62.1186 94.0691 62.0385 98.1037 62.0381C107.582 62.0371 107.045 62.3043 107.749 57.2395C107.951 55.794 108.051 54.328 107.974 53.9818C107.804 53.2244 106.726 52.1128 106.162 52.1128C105.938 52.1128 105.754 52.0432 105.751 51.9577C105.748 51.8723 106.191 48.368 106.736 44.1701C107.817 35.8276 107.816 35.4266 106.719 34.0171C105.16 32.0147 95.4562 21.7416 94.707 21.3005L93.8291 20.7835L83.0644 20.6801L72.2999 20.5767L72.4021 19.0258C72.4583 18.1728 72.5053 16.6944 72.5066 15.7402C72.5089 14.0882 72.4817 13.9856 71.9291 13.5807C71.4687 13.2432 71.2335 13.1956 70.7896 13.3505C69.5108 13.7968 69.6083 13.0838 68.1487 32.6742L66.8006 50.7687L52.481 50.8218L38.1611 50.875L36.9167 49.7463C32.9088 46.1111 26.9134 46.103 23.0345 49.7275L21.8095 50.8721H19.2429C17.4976 50.8721 16.676 50.7982 16.676 50.6417C16.676 50.2292 20.0385 5.7252 20.1702 4.3951L20.2981 3.10264H45.3253H70.3524L70.203 5.60774C70.059 8.01958 70.071 8.13146 70.5264 8.60626C71.1786 9.2864 72.233 9.27399 72.7903 8.57979C73.1147 8.17592 73.2454 7.56505 73.3771 5.83977C73.6243 2.60137 73.5865 1.83127 73.1496 1.1778C72.3151 -0.0697891 73.9817 0.000727385 45.3204 0.000727385H19.0605L18.3432 0.472838ZM0.518224 4.85108C-0.142274 5.49794 -0.142274 6.29078 0.518224 6.93763L1.03624 7.44531H6.71686C12.144 7.44531 12.4222 7.42629 12.9535 7.01663C13.6805 6.45643 13.7117 5.42866 13.0212 4.79297C12.5442 4.35416 12.3956 4.3434 6.78441 4.3434H1.03624L0.518224 4.85108ZM0.91085 11.5826C-0.0363073 11.9565 -0.259429 13.0635 0.437588 13.9314L0.874965 14.4763H6.54376H12.2126L12.6499 13.9314C12.8906 13.6318 13.0875 13.2639 13.0875 13.114C13.0875 12.5672 12.6062 11.8281 12.1045 11.6039C11.483 11.3266 1.60723 11.3078 0.91085 11.5826ZM0.458908 19.0907C-0.455953 20.0449 0.0933014 21.3514 1.51858 21.6115C1.90234 21.6816 4.33852 21.7102 6.93217 21.6748C11.5968 21.6113 11.6523 21.6053 12.0511 21.1225C12.5739 20.4895 12.5653 19.5481 12.0321 19.0258C11.6321 18.6339 11.3285 18.6122 6.26386 18.6122C0.948846 18.6122 0.915283 18.6149 0.458908 19.0907ZM94.2735 25.0745C97.4795 28.389 104.191 35.8297 104.348 36.2439C104.46 36.5394 104.174 39.3665 103.557 44.0623C103.025 48.1081 102.589 51.5278 102.589 51.662C102.589 51.8436 101.089 51.906 96.7196 51.906H90.8496L90.2096 51.0164C88.5616 48.7262 84.9754 46.9477 82.0081 46.9496C80.712 46.9504 78.3379 47.5034 77.1161 48.089C73.8867 49.6369 71.8949 53.0374 71.882 57.0242L71.8759 58.937H70.5565C69.831 58.937 69.2372 58.892 69.2372 58.8368C69.2372 58.7815 69.3785 57.2693 69.5509 55.4763C69.826 52.6182 71.9814 24.7472 71.9814 24.0484C71.9814 23.8348 74.0613 23.782 82.5023 23.782H93.0234L94.2735 25.0745ZM0.518224 26.1509C0.233253 26.43 0 26.8995 0 27.1942C0 27.4888 0.233253 27.9583 0.518224 28.2374L1.03624 28.7451H5.8725C10.4455 28.7451 10.7389 28.7217 11.2648 28.3164C11.9833 27.7628 12.0287 26.6761 11.3589 26.0648C10.9213 25.6655 10.6366 25.6432 5.96665 25.6432H1.03624L0.518224 26.1509ZM76.2735 26.4904C75.5416 26.6981 74.5736 27.6905 74.4117 28.3991C74.3553 28.6463 74.1717 30.6536 74.0036 32.8597C73.6547 37.4456 73.7681 38.1067 75.0356 38.8741C75.6881 39.2691 76.0732 39.2916 82.1835 39.2916H88.6418L90.6396 41.6267C91.7383 42.9109 92.8961 44.0975 93.2123 44.2634C93.6301 44.4823 94.5251 44.5649 96.4842 44.5649C99.4551 44.5649 99.9634 44.3889 100.726 43.0956C101.133 42.4055 101.68 38.03 101.465 37.1885C101.321 36.6277 93.6898 28.1071 92.3283 26.9874C91.5905 26.3804 91.5236 26.367 89.2531 26.367C87.0688 26.367 86.9084 26.3957 86.5282 26.8552C86.0032 27.4897 86.0144 28.3445 86.5548 28.9128C86.9278 29.3053 87.2161 29.3671 88.7184 29.3771L90.4517 29.3889L94.4318 33.7363L98.4121 38.0837L98.2757 39.2562C97.9878 41.7338 98.1309 41.568 96.2927 41.5546L94.6735 41.543L92.7737 39.3032C91.7288 38.0713 90.5889 36.8901 90.2406 36.6784C89.6665 36.3291 89.0173 36.2871 83.2973 36.2298L76.987 36.1667L77.1286 33.7483C77.2065 32.4182 77.3272 30.8881 77.3971 30.3478L77.5242 29.3655H79.2758C80.9168 29.3655 81.0553 29.331 81.465 28.8206C81.7056 28.5209 81.9026 28.1531 81.9026 28.0031C81.9026 27.4564 81.4213 26.7173 80.9195 26.4931C80.3108 26.2214 77.2282 26.2197 76.2735 26.4904ZM0.91085 32.8824C-0.0363073 33.2563 -0.259429 34.3633 0.437588 35.2312L0.874965 35.7761H5.67788C10.4255 35.7761 10.4861 35.7705 10.9399 35.2976C11.5487 34.6625 11.5248 33.813 10.8806 33.1819L10.3626 32.6742L5.86722 32.6872C3.39495 32.6945 1.16458 32.7823 0.91085 32.8824ZM0.430411 40.3647C-0.466085 41.3072 0.109555 42.6533 1.52026 42.9126C1.90487 42.9833 3.95011 43.0118 6.06501 42.9759C9.69659 42.9142 9.93618 42.8853 10.3731 42.4568C10.9414 41.8995 10.9781 40.8986 10.4514 40.3283C10.0884 39.9354 9.80868 39.912 5.46383 39.912C1.00035 39.912 0.847734 39.9256 0.430411 40.3647ZM74.9521 41.4909C74.3823 42.2004 74.3998 42.6537 75.0245 43.3642C75.4994 43.9048 75.6436 43.9445 77.1294 43.9445C78.4903 43.9445 78.7926 43.8779 79.1878 43.4908C79.7564 42.9335 79.7936 41.9328 79.2665 41.3622C78.9402 41.009 78.6176 40.946 77.1358 40.946C75.5007 40.946 75.3616 40.9807 74.9521 41.4909ZM0.518224 47.4507C0.233253 47.7298 0 48.1993 0 48.4939C0 48.7886 0.233253 49.2581 0.518224 49.5372C1.03307 50.0416 1.06241 50.0449 5.17168 50.0449C9.28096 50.0449 9.3103 50.0416 9.82514 49.5372C10.4584 48.917 10.4863 48.2106 9.90578 47.4879L9.4684 46.943H5.25232C1.05756 46.943 1.0337 46.9455 0.518224 47.4507ZM32.9118 50.7809C38.2244 53.1621 38.2612 60.6735 32.9728 63.2177C31.3349 64.0054 28.7577 64.0418 27.0701 63.3008C25.5863 62.6494 23.8054 60.7661 23.3203 59.3359C21.3512 53.5279 27.2672 48.2512 32.9118 50.7809ZM83.7053 50.3634C87.0945 51.2218 89.3057 54.219 89.0273 57.578C88.8318 59.9359 87.2187 62.2027 84.9634 63.2886C83.4207 64.0312 80.8007 64.0178 79.1487 63.2588C77.5012 62.5018 76.5234 61.585 75.7884 60.1083C74.4777 57.475 74.8351 54.6357 76.7387 52.5616C77.9107 51.2844 78.7369 50.767 80.231 50.3733C81.7194 49.9814 82.1909 49.98 83.7053 50.3634ZM28.4728 52.5926C24.9336 53.8888 24.0851 58.1303 26.8833 60.5374C28.9927 62.3516 32.3446 61.8673 33.9307 59.519C34.447 58.7549 34.5131 58.4656 34.5131 56.97C34.5131 55.4412 34.455 55.2007 33.8946 54.4085C32.7197 52.7475 30.2803 51.9305 28.4728 52.5926ZM80.425 52.5914C80.0186 52.7175 79.2562 53.243 78.7303 53.7591C76.8639 55.5921 76.7643 58.1467 78.4865 60.018C80.041 61.7073 82.2055 62.094 84.2499 61.0476C87.1522 59.5624 87.6275 55.7189 85.1709 53.6005C83.7771 52.3986 82.1559 52.0537 80.425 52.5914ZM0.518224 54.4817C-0.115044 55.1018 -0.142907 55.8082 0.437588 56.531L0.874965 57.0759H4.87046C8.58436 57.0759 8.89551 57.0467 9.28792 56.6623C9.91655 56.0465 9.8509 54.9397 9.15388 54.4027C8.63819 54.0052 8.32219 53.974 4.81705 53.974C1.08436 53.974 1.02969 53.9804 0.518224 54.4817ZM19.9319 55.0597C19.8432 55.6567 19.786 56.7736 19.8048 57.5412L19.8392 58.937H17.8212C15.9989 58.937 15.8137 58.9019 15.9113 58.5752C15.9708 58.3762 16.0841 57.3292 16.1633 56.2487C16.2425 55.1682 16.3482 54.2145 16.3985 54.1291C16.4487 54.0437 17.3007 53.974 18.2915 53.974H20.0932L19.9319 55.0597ZM66.4089 55.2664C66.3324 55.9774 66.213 57.0939 66.1433 57.748L66.0164 58.937H53.0617H40.1069V57.2295C40.1069 56.2905 40.0206 55.2274 39.9151 54.8671C39.8097 54.5067 39.7781 54.1584 39.8448 54.0929C39.9115 54.0275 45.9469 53.974 53.257 53.974H66.5475L66.4089 55.2664ZM104.738 55.114C104.836 55.2094 104.7 56.3887 104.375 58.265L104.259 58.937L98.1997 58.9368L92.1404 58.9366V56.9721V55.0077L98.3851 55.008C101.82 55.008 104.679 55.0557 104.738 55.114ZM30.8961 55.8502C31.9686 56.6766 31.3955 58.5235 30.0663 58.5235C28.8263 58.5235 28.0561 57.4984 28.5025 56.4425C28.9264 55.4402 30.0146 55.1709 30.8961 55.8502ZM83.0731 55.9292C84.0853 56.9206 83.414 58.5235 81.9866 58.5235C81.1919 58.5235 80.425 57.7436 80.425 56.9353C80.425 56.2777 81.3204 55.4215 82.0081 55.4215C82.3089 55.4215 82.7881 55.65 83.0731 55.9292Z" fill="#C39367"/>
</svg>
