<svg width="71" height="96" viewBox="0 0 71 96" fill="none" xmlns="http://www.w3.org/2000/svg">
<path fill-rule="evenodd" clip-rule="evenodd" d="M23.0817 0.172684C22.8501 0.265163 21.8949 0.852112 20.9589 1.47695L19.2572 2.61296L17.3686 1.67204C15.8033 0.892067 15.3066 0.731121 14.4655 0.731121C13.2327 0.731121 12.3713 1.23816 11.7479 2.33121C11.3258 3.07085 11.323 3.12956 11.3197 11.0732L11.3167 19.0702L8.24658 19.1567C5.65631 19.2295 5.0062 19.3085 4.0878 19.6619C2.84897 20.1387 1.36377 21.4578 0.774493 22.6045C-0.0405612 24.1907 -0.043017 24.2882 0.0287773 53.2545C0.104539 83.844 0.017442 81.6992 1.31578 84.9269C3.19661 89.6028 7.23749 93.4344 11.9884 95.0469C14.7215 95.9745 15.8107 96.0525 24.9707 95.9791C33.0866 95.9141 33.5922 95.8897 35.0277 95.4963C36.8405 94.9992 39.2026 93.905 40.8291 92.8086C43.1796 91.2243 45.6231 88.3295 46.7549 85.7879C47.2526 84.671 48.0446 82.0164 48.2485 80.7824L48.3646 80.079H51.8115C55.699 80.079 56.9329 79.8633 58.4032 78.9265C59.3255 78.3388 60.4491 76.997 60.8276 76.0311C60.9456 75.7297 61.0987 75.1033 61.1676 74.6391L61.2931 73.7949L64.2197 73.6841C68.1392 73.5357 69.2398 73.0639 70.363 71.0506L70.9249 70.0433L70.9776 54.8685C71.0369 37.7123 71.0849 38.3602 69.6401 36.7988C68.4293 35.4906 67.9881 35.3598 64.4088 35.2491L61.2937 35.1527L61.1504 34.1617C60.875 32.2559 59.5387 30.4359 57.6996 29.4626C56.7784 28.9748 56.6518 28.9602 52.5984 28.8687L48.4419 28.7749L48.3452 26.3363C48.2672 24.3723 48.1687 23.7255 47.839 23.0129C47.2229 21.6814 45.8874 20.3738 44.5186 19.7619C43.4205 19.271 43.1329 19.2295 40.2706 19.1505L37.2004 19.0655L37.1959 11.5397C37.1935 7.40047 37.1141 3.68275 37.0196 3.27794C36.6656 1.76302 35.425 0.731121 33.9572 0.731121C33.2285 0.731121 32.6406 0.928646 31.1312 1.68067L29.2252 2.6304L27.4976 1.50322C26.5475 0.883251 25.5307 0.28711 25.2382 0.178499C24.604 -0.0572932 23.6638 -0.0597317 23.0817 0.172684ZM29.031 5.98346C29.4036 5.98346 30.4743 5.57284 31.7246 4.95025L33.7997 3.91685V11.5157V19.1143H24.1641H14.5286V11.5172C14.5286 7.33875 14.5724 3.92004 14.6263 3.92004C14.6799 3.92004 15.6561 4.38431 16.7958 4.95175C17.9354 5.51919 19.1155 5.98346 19.4181 5.98346C19.785 5.98346 20.6783 5.52013 22.0964 4.59422L24.2246 3.20479L26.3185 4.59422C27.8574 5.61505 28.5766 5.98346 29.031 5.98346ZM18.4797 11.4763C17.6131 12.137 17.536 13.1251 18.2927 13.8764L18.8449 14.4247H24.0646C30.3212 14.4247 30.5878 14.3548 30.5878 12.7127C30.5878 12.3724 30.4078 11.9779 30.124 11.6963L29.6603 11.2358L24.2199 11.2418C20.2413 11.2461 18.6991 11.3091 18.4797 11.4763ZM43.3407 22.7075C44.0751 23.1097 44.6814 23.7634 44.934 24.4257C45.0734 24.791 45.1356 33.4239 45.1356 52.4305C45.1356 76.827 45.102 80.0692 44.8348 81.3527C43.9264 85.7195 40.9904 89.4297 36.917 91.3588C34.067 92.7086 34.0553 92.7099 25.05 92.7891C19.701 92.836 16.5031 92.7895 15.6078 92.6514C9.88575 91.77 5.3357 87.6985 3.70597 82.0015L3.29013 80.548L3.23647 53.0111C3.19944 33.9452 3.24497 25.2457 3.3844 24.7315C3.65703 23.7259 4.67595 22.7489 5.68994 22.5208C6.1874 22.4088 13.4843 22.3501 24.6364 22.368C41.1249 22.3944 42.8255 22.4252 43.3407 22.7075ZM8.37373 25.8611C7.64898 26.1523 6.83639 27.144 6.61855 28.0033C6.29094 29.2947 6.34157 41.6846 6.67825 42.6215C7.01398 43.5563 7.46213 44.0382 8.38828 44.4604C9.10131 44.7855 9.99741 44.8052 24.2762 44.8091L39.4081 44.8133L40.2309 44.3813C40.797 44.0841 41.1913 43.691 41.4949 43.1209L41.936 42.2925L41.8828 34.9376C41.831 27.8116 41.817 27.5661 41.434 27.0532C41.2166 26.7621 40.7577 26.334 40.4142 26.1018L39.7896 25.6797L24.2779 25.6916C15.7464 25.6981 8.58949 25.7745 8.37373 25.8611ZM38.7119 35.2476V41.6266L24.2114 41.5786L9.7108 41.5306L9.66111 35.1996L9.61123 28.8687H24.1617H38.7119V35.2476ZM17.6909 33.8451C14.4403 35.9743 13.9659 36.6541 14.9537 37.7686C15.8373 38.7658 16.2448 38.6564 19.4085 36.5748C22.3655 34.629 22.8008 34.1698 22.5663 33.2425C22.4016 32.5901 21.7101 32.0576 21.0284 32.0576C20.5765 32.0576 19.7174 32.5177 17.6909 33.8451ZM28.9819 33.8509C27.5271 34.8241 26.2307 35.7635 26.1007 35.9383C25.9709 36.1131 25.8645 36.5279 25.8645 36.8601C25.8645 37.6812 26.8266 38.5165 27.5963 38.3636C28.1532 38.2529 33.1575 35.0398 33.5635 34.5322C33.9621 34.0338 33.8541 32.924 33.3625 32.4654C32.5416 31.6997 31.889 31.9062 28.9819 33.8509ZM56.4863 32.4841C57.3121 33.0366 57.983 34.0351 57.983 34.7115V35.2465H53.1652H48.3475V33.652V32.0576H52.0981C55.6865 32.0576 55.8764 32.076 56.4863 32.4841ZM54.7711 54.38V70.3246H51.5593H48.3475V54.38V38.4354H51.5593H54.7711V54.38ZM61.3838 54.38V70.3246H59.6834H57.983V54.38V38.4354H59.6834H61.3838V54.38ZM67.1829 38.8881L67.713 39.3407L67.768 53.8479C67.7982 61.8267 67.7721 68.6341 67.7102 68.9752C67.5256 69.9907 67.0353 70.3246 65.7292 70.3246H64.5956V54.38V38.4354H65.6242C66.439 38.4354 66.7629 38.5294 67.1829 38.8881ZM8.33594 48.3065C6.89892 49.0268 6.40657 50.1697 6.40657 52.7856C6.40657 54.7858 6.61873 55.659 7.3004 56.4632C8.08088 57.3842 8.75235 57.569 11.3167 57.569C13.8828 57.569 14.5524 57.3842 15.3353 56.4605C16.0663 55.598 16.2785 54.5729 16.1923 52.3191C16.1067 50.0754 15.8658 49.4443 14.7804 48.6216C14.1093 48.1129 14.0049 48.0943 11.5212 48.0459C9.43666 48.0054 8.83888 48.0542 8.33594 48.3065ZM21.217 48.3595C20.7911 48.5516 20.2385 48.993 19.9889 49.3402C19.5727 49.9197 19.5302 50.1823 19.4743 52.5243C19.4036 55.4815 19.5708 56.0932 20.6806 56.9346C21.3755 57.4613 21.4607 57.4767 24.013 57.5363C26.5379 57.5954 26.6622 57.5802 27.4583 57.1169C28.7348 56.3742 29.0765 55.4954 29.0752 52.9608C29.0741 50.4873 28.8937 49.7634 28.0864 48.9902C27.195 48.1365 26.6624 48.0016 24.1991 48.0063C22.456 48.0095 21.8285 48.084 21.217 48.3595ZM33.981 48.4342C32.6245 49.1465 32.2882 50.0088 32.2882 52.7753C32.2882 55.5091 32.6309 56.4414 33.8941 57.143C34.5686 57.5176 34.914 57.5628 37.106 57.5628C39.3059 57.5628 39.6405 57.5187 40.3141 57.14C40.7356 56.9029 41.2529 56.3893 41.4917 55.9707C41.8707 55.3065 41.9179 54.9636 41.9207 52.8619C41.9234 50.7544 41.8769 50.4117 41.4886 49.6829C40.7705 48.3346 39.9039 48.0022 37.106 48.0022C35.067 48.0022 34.7098 48.0515 33.981 48.4342ZM12.9774 52.8325L13.0324 54.38H11.3243H9.61633V52.9107C9.61633 52.1024 9.67623 51.3819 9.74934 51.3093C9.82246 51.2365 10.5663 51.2014 11.4025 51.2311L12.9226 51.2849L12.9774 52.8325ZM25.8645 52.7856V54.38H24.2586H22.6527V52.7856V51.1911H24.2586H25.8645V52.7856ZM38.7119 52.7856V54.38H37.106H35.5001V52.7856V51.1911H37.106H38.7119V52.7856ZM8.62274 61.0166C7.04497 61.5966 6.56243 62.4617 6.44303 64.9254C6.29963 67.8816 6.69884 69.072 8.1232 69.9341C8.69 70.2772 9.06805 70.3233 11.3167 70.3233C13.5654 70.3233 13.9434 70.2772 14.5102 69.9341C15.9373 69.0703 16.334 67.8831 16.1897 64.9082C16.1101 63.267 16.0329 62.9226 15.5976 62.2696C14.8103 61.0886 14.2187 60.8725 11.6001 60.8097C10.0093 60.7716 9.12095 60.8333 8.62274 61.0166ZM21.6918 60.9372C20.8733 61.1833 20.2884 61.6564 19.8544 62.4231C19.4858 63.0744 19.4408 63.4285 19.4408 65.6797C19.4408 67.9966 19.4763 68.2582 19.8704 68.8386C20.1066 69.1868 20.5954 69.6692 20.9566 69.9108C21.5824 70.3297 21.7416 70.3473 24.3529 70.2905C26.8915 70.2352 27.1392 70.1978 27.7287 69.7805C28.7661 69.0457 29.0675 68.1252 29.0722 65.6759C29.0799 61.6997 28.1521 60.7556 24.2586 60.7781C23.1155 60.7847 21.9604 60.8564 21.6918 60.9372ZM34.2642 61.1105C33.3228 61.535 32.5308 62.4403 32.3738 63.2713C32.3086 63.6157 32.284 64.9074 32.319 66.1417C32.3793 68.2639 32.4114 68.4231 32.9121 69.074C33.7743 70.1954 34.2079 70.3246 37.106 70.3246C40.0038 70.3246 40.4376 70.1954 41.2999 69.074C41.8045 68.4179 41.8323 68.2753 41.893 66.0277C41.9285 64.706 41.8684 63.3777 41.7562 63.0055C41.5138 62.2025 40.5508 61.2606 39.6757 60.9706C38.607 60.6166 35.1617 60.7057 34.2642 61.1105ZM12.9774 65.5882L13.0324 67.1357H11.3243H9.61633V65.6664C9.61633 64.8581 9.67623 64.1376 9.74934 64.065C9.82246 63.9922 10.5663 63.9571 11.4025 63.9868L12.9226 64.0406L12.9774 65.5882ZM25.8645 65.5413V67.1357H24.2586H22.6527V65.5413V63.9468H24.2586H25.8645V65.5413ZM38.7119 65.5413V67.1357H37.106H35.5001V65.5413V63.9468H37.106H38.7119V65.5413ZM14.5138 74.1277C14.1632 74.3622 13.6829 74.839 13.4467 75.1872C13.0528 75.7676 13.0171 76.0294 13.0171 78.3433C13.0171 81.2797 13.2134 81.8937 14.4022 82.6748C15.0878 83.1252 15.3644 83.1799 17.2575 83.2396C19.7624 83.3186 20.7953 83.0862 21.6324 82.255C22.4696 81.4238 22.7037 80.3983 22.6241 77.9113C22.5641 76.0317 22.5089 75.7571 22.0553 75.0763C21.2685 73.896 20.6502 73.7012 17.6926 73.7012C15.3621 73.7012 15.0984 73.7366 14.5138 74.1277ZM27.3741 74.1232C26.1096 74.9777 25.9656 75.3528 25.8953 77.9796C25.8222 80.7173 25.9866 81.454 26.8515 82.2632C27.7223 83.0781 28.4659 83.2685 30.7577 83.2638C32.934 83.2593 33.89 82.9809 34.6844 82.1203C35.3557 81.3932 35.5001 80.738 35.5001 78.4183C35.5001 76.5104 35.4438 76.1086 35.075 75.3838C34.8411 74.9242 34.361 74.3577 34.0079 74.1247C33.4169 73.7347 33.1528 73.7012 30.6823 73.7012C28.2103 73.7012 27.9494 73.7344 27.3741 74.1232ZM57.9822 74.1232C57.9815 74.6276 57.3586 75.6894 56.7872 76.1602C56.0956 76.7304 54.6631 76.9175 51.4648 76.8552L48.4419 76.7963L48.3871 75.2487L48.3321 73.7012H53.1577H57.983L57.9822 74.1232ZM19.4011 78.4376L19.3463 79.9852L17.7877 80.0396L16.229 80.0942V78.492V76.8901H17.8424H19.4561L19.4011 78.4376ZM32.2882 78.4845V80.079H30.6823H29.0764V78.4845V76.8901H30.6823H32.2882V78.4845Z" fill="#C39367"/>
</svg>
