<svg width="61" height="61" viewBox="0 0 61 61" fill="none" xmlns="http://www.w3.org/2000/svg">
<path fill-rule="evenodd" clip-rule="evenodd" d="M45.7914 0.0888752C45.5156 0.158283 45.0981 0.311403 44.8637 0.42929C44.6291 0.547045 42.5172 2.55483 40.1705 4.89085L35.9038 9.13822L35.3996 8.78933C34.652 8.27235 33.8432 8.03233 32.848 8.03233C30.9453 8.03233 32.2525 6.8675 16.3675 22.7181C1.43339 37.62 1.36554 37.6924 0.652678 39.513C0.16339 40.7625 -0.068399 42.2752 0.0176108 43.6584C0.115018 45.2266 0.371722 46.2074 1.04297 47.5761C1.73078 48.9788 2.75521 50.1282 7.54419 54.8708C12.3317 59.612 13.2353 60.2531 15.9062 60.8045C18.4666 61.3331 21.2667 60.7748 23.3948 59.3115C23.8268 59.0144 30.3483 52.5888 38.3581 44.5681C54.1472 28.7576 53.0614 29.9755 53.0418 28.0996C53.0313 27.1043 52.6551 26.0036 52.1778 25.5718C52.0387 25.4461 51.925 25.2799 51.925 25.2026C51.925 25.1253 53.8551 23.1228 56.2141 20.7527C61.0647 15.8791 61.0061 15.961 60.9992 14.0591C60.9927 12.2878 61.0008 12.2981 54.8595 6.15051C50.239 1.52498 49.3668 0.710099 48.7242 0.417899C47.884 0.0358922 46.5826 -0.110076 45.7914 0.0888752ZM47.2448 2.8726C47.7835 3.07287 58.1255 13.4304 58.2212 13.8656C58.2629 14.056 58.2323 14.386 58.1529 14.599C58.0725 14.8152 56.2108 16.7864 53.9404 19.0595L49.8721 23.1327L43.8748 17.1396L37.8774 11.1464L41.8862 7.1258C45.3536 3.64826 46.3398 2.76438 46.7809 2.73921C46.8309 2.73643 47.0396 2.79643 47.2448 2.8726ZM46.5355 6.80962C46.1442 6.87254 45.5931 7.40555 45.4884 7.82239C45.3395 8.41527 45.5599 8.86748 46.4139 9.7209C47.1641 10.4707 47.2944 10.549 47.7925 10.549C48.213 10.549 48.4446 10.458 48.7753 10.1625C49.1446 9.83282 49.2082 9.68699 49.2082 9.17041C49.2082 8.60667 49.153 8.50971 48.4116 7.76861C47.6286 6.98605 47.1045 6.71809 46.5355 6.80962ZM41.8186 19.193L50.2021 27.5722V28.1656V28.759L36.32 42.6499C27.3131 51.6625 22.1604 56.7233 21.6482 57.0607C19.5881 58.4168 16.7646 58.5246 14.4862 57.3341C13.6208 56.882 4.68188 48.0585 3.9298 46.9141C2.46697 44.6883 2.46763 41.5739 3.93112 39.3529C4.26867 38.841 9.33211 33.691 18.3495 24.6888L32.2477 10.8139H32.8414H33.4351L41.8186 19.193ZM51.3138 11.8649C50.8352 12.0686 50.4672 12.6595 50.4672 13.224C50.4672 13.6693 50.5667 13.8491 51.1611 14.4772C51.8971 15.2551 52.3982 15.5824 52.8527 15.5824C53.3487 15.5824 53.9273 15.1829 54.1286 14.7013C54.406 14.0377 54.203 13.5444 53.2741 12.6257C52.4715 11.8319 51.9063 11.6125 51.3138 11.8649Z" fill="#C39367"/>
</svg>
