<svg width="92" height="91" viewBox="0 0 92 91" fill="none" xmlns="http://www.w3.org/2000/svg">
<path fill-rule="evenodd" clip-rule="evenodd" d="M55.9061 0.104546C55.6997 0.191636 55.3565 0.484542 55.1434 0.755232C54.7622 1.24009 54.757 1.3302 54.8079 6.65086L54.8596 12.0543L55.3583 12.483C56.0902 13.1122 57.1243 13.0738 57.8059 12.3922L58.3254 11.8727V6.52982V1.18695L57.8366 0.650368C57.312 0.0746867 56.5127 -0.151391 55.9061 0.104546ZM40.3605 3.47812C39.9503 3.88851 39.841 4.15565 39.841 4.74874C39.841 5.48759 39.8997 5.55904 43.4361 9.12225C47.0444 12.7583 47.5387 13.1316 48.5011 12.9476C49.2474 12.8049 49.7941 12.0554 49.7941 11.1749C49.7941 10.3771 49.7861 10.3669 46.6394 7.17766C44.9043 5.41916 43.1727 3.75041 42.7914 3.46941C41.8588 2.78211 41.0537 2.78496 40.3605 3.47812ZM70.3047 3.46781C69.9234 3.74792 68.1918 5.4204 66.4567 7.18477C63.3219 10.3723 63.302 10.3975 63.302 11.1834C63.302 12.055 63.852 12.8056 64.595 12.9476C65.5574 13.1316 66.0517 12.7583 69.66 9.12225C73.1964 5.55904 73.2551 5.48759 73.2551 4.74874C73.2551 4.15565 73.1458 3.88851 72.7356 3.47812C72.0431 2.78585 71.2378 2.78229 70.3047 3.46781ZM43.2112 18.0356C42.9905 18.2144 41.3955 20.7539 39.6668 23.6787L36.5238 28.9967L31.4285 29.0438L26.3332 29.0911V27.5963C26.3332 24.9221 25.434 23.02 23.53 21.6664C21.3829 20.1398 18.2513 20.1967 16.1627 21.7999C14.3568 23.1864 13.5363 24.9952 13.5363 27.5906V29.0856H10.7299C8.81784 29.0856 7.59965 29.17 6.90737 29.3502C3.56721 30.2202 1.07715 32.7472 0.296188 36.0599C-0.10247 37.7506 -0.0969607 82.2958 0.302231 83.9889C1.01317 87.0053 3.31376 89.4569 6.42696 90.5157C7.37002 90.8365 8.74977 90.8482 45.5285 90.8482H83.6525L84.8272 90.4423C86.3328 89.9217 87.3281 89.2831 88.5084 88.0799C89.5565 87.0113 90.5234 85.1842 90.8335 83.6857C90.9692 83.0304 91.0278 75.8103 91.0258 59.9582C91.023 34.8541 91.0719 36.0072 89.9164 33.812C89.2457 32.538 87.7228 30.9447 86.5599 30.3002C84.7755 29.3113 84.2524 29.2112 80.2898 29.1005L76.5714 28.9967L73.4289 23.6787C71.7004 20.7539 70.1056 18.2144 69.8849 18.0356C69.504 17.7273 68.8162 17.7106 56.548 17.7106C44.2799 17.7106 43.5921 17.7273 43.2112 18.0356ZM70.1245 25.0693C71.3574 27.1616 72.3664 28.9212 72.3664 28.9794C72.3664 29.0379 65.2481 29.0856 56.548 29.0856C47.848 29.0856 40.7297 29.0379 40.7297 28.9794C40.7297 28.9212 41.7387 27.1616 42.9716 25.0693L45.2138 21.2652H56.548H67.8823L70.1245 25.0693ZM21.3584 24.5089C22.4547 25.255 22.6831 25.7452 22.7517 27.4987L22.8139 29.0856H19.9348H17.0557L17.1179 27.4987C17.1674 26.2315 17.2547 25.8108 17.5517 25.4104C18.1823 24.5597 19.0077 24.109 19.9348 24.109C20.5092 24.109 20.9548 24.2341 21.3584 24.5089ZM84.3484 33.159C85.4249 33.6889 86.4312 34.7032 86.974 35.8052L87.385 36.6393V60.0113V83.3834L86.912 84.2792C86.3045 85.4302 85.1119 86.525 83.9975 86.9548C83.1437 87.2841 82.0743 87.2936 45.5285 87.2936C8.98278 87.2936 7.91335 87.2841 7.05951 86.9548C5.94512 86.525 4.75252 85.4302 4.14503 84.2792L3.67207 83.3834L3.62142 60.4557C3.58552 44.1864 3.62782 37.2956 3.76698 36.7281C4.1708 35.08 5.59552 33.5261 7.26657 32.9111C7.83266 32.7026 13.8452 32.669 45.7063 32.6966L83.4748 32.7291L84.3484 33.159ZM52.9452 37.8743C51.3881 38.1486 49.4015 38.7198 48.1625 39.2495C47.3624 39.5914 46.7714 40.3448 46.7734 41.0206C46.7746 41.49 47.4502 42.3586 47.9866 42.5807C48.472 42.7819 48.7169 42.7448 50.2303 42.2406C55.4888 40.4888 60.6649 40.8779 65.3653 43.3782C73.5515 47.7331 77.3609 57.4374 74.3096 66.1633C72.2877 71.945 67.6378 76.3504 61.7555 78.0572C52.184 80.8347 42.0833 75.6043 38.7858 66.1633C37.3506 62.0537 37.4144 57.1594 38.9541 53.253C39.6087 51.5922 38.9826 50.3328 37.5022 50.3328C36.4751 50.3328 35.9126 51.0286 35.2535 53.114C34.4334 55.708 34.2436 57.0069 34.2454 60.0113C34.2483 64.7901 35.376 68.5202 38.0335 72.5416C39.0816 74.1275 41.5011 76.6467 43.2213 77.9433C45.6952 79.8077 49.2156 81.3581 52.4113 81.9903C54.5174 82.4071 58.5735 82.4082 60.6733 81.9925C67.6046 80.6207 73.4227 76.1939 76.6009 69.8733C79.9553 63.2031 79.6395 54.9587 75.7853 48.5752C72.4807 43.1019 67.4021 39.466 61.0803 38.0476C59.3539 37.6602 54.7199 37.5615 52.9452 37.8743ZM14.3125 43.9747C13.4032 44.7113 13.3039 45.7044 14.055 46.5451L14.5736 47.1256H19.9348H25.2959L25.8146 46.5451C26.3714 45.922 26.459 45.3746 26.1208 44.6323C25.701 43.7106 25.367 43.6594 19.8104 43.6637C15.2289 43.6672 14.6518 43.6999 14.3125 43.9747ZM41.0407 43.8517C40.6325 44.0895 40.1965 44.948 40.1965 45.5144C40.1965 45.762 40.4283 46.2241 40.7116 46.541C41.1378 47.0181 41.3553 47.1176 41.9738 47.1176C43.7501 47.1176 44.396 44.7194 42.8367 43.913C42.2682 43.6191 41.4861 43.5924 41.0407 43.8517ZM53.7043 45.703C49.3971 46.5698 45.7071 49.3514 43.6733 53.2644C42.6521 55.229 42.1628 57.0046 42.0341 59.2115C41.4556 69.133 51.004 76.7241 60.5741 73.9507C69.3449 71.4089 73.6287 61.6017 69.5294 53.4485C66.6057 47.6336 60.0516 44.4256 53.7043 45.703ZM59.301 49.3467C63.1925 50.3421 66.4788 53.746 67.3028 57.6348C68.5039 63.3044 65.122 68.9135 59.4807 70.6084C57.9662 71.0636 54.8989 71.0318 53.4068 70.5455C47.8654 68.7397 44.6102 63.2196 45.7933 57.6348C46.3992 54.7756 48.6243 51.7979 51.2366 50.3504C53.6177 49.0309 56.6101 48.6586 59.301 49.3467ZM55.9061 53.0761C55.6997 53.1595 55.3521 53.4544 55.1338 53.7314C54.8208 54.1285 54.7568 54.3852 54.8317 54.9455C54.9571 55.8867 55.5392 56.3713 56.7338 56.5299C57.2487 56.5981 57.8857 56.7655 58.1491 56.9017C58.9043 57.2922 59.719 58.3389 59.8404 59.0745C60.096 60.6226 60.3514 61.157 61.0021 61.5054C61.7626 61.9126 62.4188 61.7993 63.0695 61.1487C63.482 60.7361 63.5119 60.5995 63.4468 59.4229C63.2744 56.2997 60.8995 53.6778 57.7151 53.095C56.5006 52.8726 56.4119 52.8717 55.9061 53.0761Z" fill="#C39367"/>
</svg>
