<svg width="61" height="65" viewBox="0 0 61 65" fill="none" xmlns="http://www.w3.org/2000/svg">
<g style="mix-blend-mode:luminosity">
<path d="M25.1411 32.9028H18.9228C18.8537 32.9028 18.8191 32.936 18.8191 33.0025C18.6464 35.6953 18.1282 38.6208 17.3682 40.9811V41.0808C17.4027 41.1141 17.4373 41.1141 17.4718 41.1141H19.6137C19.6482 41.1141 19.7173 41.0808 19.7173 41.0476C20.3046 39.2192 20.7883 36.8256 20.961 34.7977H22.9992V41.0144C22.9992 41.0808 23.0338 41.1141 23.1029 41.1141H25.1411C25.2102 41.1141 25.2448 41.0808 25.2448 41.0144V33.0358C25.2448 32.9693 25.2102 32.9028 25.1411 32.9028ZM51.4309 32.9028H49.3927C49.3236 32.9028 49.289 32.936 49.289 33.0025V39.1859C48.8399 39.3189 48.3908 39.3521 47.9072 39.3521C46.5599 39.3521 46.249 38.9532 46.249 37.2245V33.0358C46.249 32.9693 46.2144 32.936 46.1453 32.936H44.1071C44.038 32.936 44.0034 32.9693 44.0034 33.0358V37.4905C44.0034 40.283 44.9707 41.38 47.4926 41.38C48.909 41.38 50.5327 41.0144 51.4655 40.6819C51.5 40.6819 51.5346 40.6154 51.5346 40.5822V33.0358C51.5346 32.9693 51.5 32.9028 51.4309 32.9028ZM8.42068 32.936H6.34789C6.2788 32.936 6.24426 32.9693 6.24426 33.0025C5.93334 34.2325 5.27696 36.2937 4.37875 38.4546L2.30597 32.9693C2.30597 32.936 2.23688 32.9028 2.20233 32.9028H0.129547C0.0950009 32.9028 0.0604562 32.936 0.0259098 32.936C-0.00863659 32.9693 -0.00863659 33.0025 0.0259098 33.0358L3.13508 41.2138C2.82417 41.8455 2.51325 42.3774 2.23688 42.876C2.0296 43.2417 1.82232 43.6074 1.61504 44.0063C1.5805 44.0396 1.61504 44.0728 1.61504 44.1061C1.64959 44.1393 1.68414 44.1726 1.71868 44.1726H3.9642C3.99874 44.1726 4.03329 44.1393 4.06783 44.1061C4.44784 43.4079 4.93149 42.4106 5.3806 41.4133C6.69336 38.4213 7.7643 35.6288 8.55886 33.069C8.55886 33.0358 8.55886 33.0025 8.52432 32.9693C8.48977 32.936 8.45522 32.936 8.42068 32.936ZM15.8136 39.2192C15.8136 39.1859 15.7791 39.1527 15.7445 39.1527H15.6409C15.1572 39.3189 14.2245 39.4851 13.5681 39.4851C12.1517 39.4851 11.4953 39.1194 11.4953 37.0251C11.4953 35.3628 11.7026 34.565 13.5681 34.565C14.0863 34.565 14.6045 34.6315 15.2263 34.8309C15.2954 34.8309 15.33 34.8309 15.3645 34.7644C15.6063 34.3323 15.8827 33.8336 16.1936 33.1687V33.069C16.1936 33.0358 16.1591 33.0025 16.1245 33.0025C15.2954 32.7366 14.2936 32.6036 13.4299 32.6036C10.4589 32.6036 9.14615 33.9333 9.14615 36.9586C9.14615 40.017 10.4589 41.38 13.4299 41.38C14.1554 41.38 15.6409 41.2138 16.3318 40.9479C16.4009 40.9146 16.4009 40.8814 16.4009 40.8149L15.8136 39.2192ZM35.125 32.936H33.0522C33.0177 32.936 32.9486 32.9693 32.9486 33.0025C32.6377 34.2325 31.9813 36.2937 31.0831 38.4546L29.0103 32.9693C29.0103 32.936 28.9412 32.9028 28.9067 32.9028H26.8339C26.7993 32.9028 26.7648 32.936 26.7303 32.936C26.6957 32.9693 26.6957 33.0025 26.7303 33.0358L29.8394 41.2138C29.5285 41.8455 29.2176 42.3441 28.9412 42.876C28.7339 43.2417 28.5267 43.6074 28.3194 44.0063C28.2848 44.0396 28.3194 44.0728 28.3194 44.1061C28.3539 44.1393 28.3885 44.1726 28.423 44.1726H30.6685C30.7031 44.1726 30.7376 44.1393 30.7722 44.1061C31.1522 43.4079 31.6358 42.4106 32.0849 41.4133C33.3977 38.4213 34.4686 35.6288 35.2287 33.069C35.2287 33.0358 35.2287 33.0025 35.1941 32.9693C35.1941 32.936 35.1596 32.936 35.125 32.936ZM42.7252 32.9028H36.7142C36.6451 32.9028 36.6105 32.936 36.6105 33.0025V41.0144C36.6105 41.0808 36.6451 41.1141 36.7142 41.1141H38.7524C38.8215 41.1141 38.856 41.0808 38.856 41.0144V34.8309H41.9997C42.0343 34.8309 42.1034 34.7977 42.1034 34.7644C42.3452 34.2325 42.587 33.6341 42.8289 33.069V32.9693C42.7943 32.936 42.7598 32.9028 42.7252 32.9028Z" fill="#EE3F58"/>
<path d="M10.588 27.4406C9.26872 27.4406 8.86279 27.0462 8.86279 24.7156C8.86279 22.2058 9.30254 21.9907 10.588 21.9907C11.8734 21.9907 12.347 22.2058 12.347 24.7156C12.347 27.082 11.9073 27.4406 10.588 27.4406ZM10.588 20.0187C7.71265 20.0187 6.59635 21.3095 6.59635 24.6798C6.59635 28.0859 7.71265 29.4126 10.588 29.4126C13.4633 29.4126 14.6135 28.0859 14.6135 24.6798C14.6135 21.3453 13.4633 20.0187 10.588 20.0187ZM22.5291 27.082C22.5291 27.0462 22.4952 27.0103 22.4614 27.0103H22.3599C21.8863 27.1896 20.973 27.3689 20.3303 27.3689C18.9434 27.3689 18.3006 26.9745 18.3006 24.7156C18.3006 22.9229 18.5036 22.0624 20.3303 22.0624C20.8377 22.0624 21.3451 22.1341 21.954 22.3493C21.9878 22.3493 22.0555 22.3493 22.0893 22.2776C22.3261 21.8114 22.5967 21.2736 22.9012 20.5565V20.449C22.9012 20.4131 22.8673 20.3773 22.8335 20.3773C22.0555 20.1263 21.0745 19.9829 20.2288 19.9829C17.3196 19.9829 16.0342 21.4171 16.0342 24.6798C16.0342 27.9784 17.3196 29.4484 20.2288 29.4484C20.9392 29.4484 22.3938 29.2691 23.0703 28.9823C23.138 28.9464 23.138 28.9106 23.138 28.8389L22.5291 27.082ZM5.98746 20.2697H0.101482C0.0338274 20.2697 0 20.3414 0 20.4131V29.054C0 29.1257 0.0338274 29.1616 0.101482 29.1616H2.0973C2.16496 29.1616 2.19878 29.1257 2.19878 29.054V22.3493H5.27708C5.31091 22.3493 5.34473 22.3134 5.37856 22.2776C5.61535 21.7039 5.85215 21.0585 6.08894 20.449V20.3414C6.05511 20.3056 6.02128 20.2697 5.98746 20.2697Z" fill="#0065B1"/>
<path d="M3.17647 14.8808C4.63782 11.2966 17.3577 4.86472 19.0795 3.81362C25.0538 0.166442 30.0154 -1.0269 35.9709 0.942032C41.1071 3.10097 53.8401 9.3269 57.5058 14.533C61.1715 19.739 61.0317 25.875 60.9858 32.299C60.9399 38.723 61.2455 44.6538 57.5058 49.804C53.7661 54.9543 40.6431 61.714 34.66 63.593C28.677 65.472 22.9502 62.2329 18.2433 59.8815C14.4072 57.4147 5.46866 53.3836 3.15503 48.9206L3.75671 48.1451H7.00177C13.234 53.3433 18.5486 55.4592 22.4963 57.8144C26.9262 59.9832 28.6306 61.0388 33.7417 59.4336C38.8528 57.8284 51.2114 51.6285 54.4062 47.2287C57.6009 42.8289 56.8634 37.5772 56.9026 32.0894C56.9418 26.6015 57.6487 21.4033 54.5172 16.9559C51.365 13.5633 47.9111 11.8001 40.3764 7.20923C36.2298 4.68265 31.0056 2.60775 25.9351 4.34353C20.9921 6.99959 10.5692 12.2816 6.91581 15.9079H3.58479L3.17647 14.8808Z" fill="#C4C4C4"/>
<path d="M3.17647 14.8808C4.63782 11.2966 17.3577 4.86472 19.0795 3.81362C25.0538 0.166442 30.0154 -1.0269 35.9709 0.942032C41.1071 3.10097 53.8401 9.3269 57.5058 14.533C61.1715 19.739 61.0317 25.875 60.9858 32.299C60.9399 38.723 61.2455 44.6538 57.5058 49.804C53.7661 54.9543 40.6431 61.714 34.66 63.593C28.677 65.472 22.9502 62.2329 18.2433 59.8815C14.4072 57.4147 5.46866 53.3836 3.15503 48.9206L3.75671 48.1451H7.00177C13.234 53.3433 18.5486 55.4592 22.4963 57.8144C26.9262 59.9832 28.6306 61.0388 33.7417 59.4336C38.8528 57.8284 51.2114 51.6285 54.4062 47.2287C57.6009 42.8289 56.8634 37.5772 56.9026 32.0894C56.9418 26.6015 57.6487 21.4033 54.5172 16.9559C51.365 13.5633 47.9111 11.8001 40.3764 7.20923C36.2298 4.68265 31.0056 2.60775 25.9351 4.34353C20.9921 6.99959 10.5692 12.2816 6.91581 15.9079H3.58479L3.17647 14.8808Z" fill="url(#paint0_linear)"/>
</g>
<defs>
<linearGradient id="paint0_linear" x1="32.0775" y1="1.52588e-05" x2="32.0775" y2="64.1553" gradientUnits="userSpaceOnUse">
<stop stop-color="#155DA9"/>
<stop offset="0.463542" stop-color="#81497A"/>
<stop offset="1" stop-color="#E73350"/>
</linearGradient>
</defs>
</svg>
