<svg width="160" height="196" viewBox="0 0 160 196" fill="none" xmlns="http://www.w3.org/2000/svg">
<path d="M71.1063 65.5157C71.1063 65.5157 74.8614 64.9792 77.879 65.1133C81.0977 65.3145 82.5729 65.1133 83.5117 65.3145C84.4505 65.7168 84.8528 67.3932 83.3105 66.9909C81.0306 66.4545 80.4942 66.9909 79.7566 67.7285C79.2201 68.1309 81.433 69.0696 83.7129 70.0084C86.194 70.9472 87.1328 68.6673 87.8704 69.472C88.8092 70.0084 86.7304 74.1659 82.0365 74.3671C78.4825 74.5683 75.2638 73.026 72.9839 72.6907C69.2287 71.9531 66.01 70.6119 66.01 70.6119L71.1063 65.5157Z" fill="#FFC9B6"/>
<path d="M67.2843 61.3583C64.8032 60.956 62.188 60.8218 62.188 60.8218C62.188 60.8218 61.9868 59.8831 62.188 58.9443C62.3891 57.8043 59.9081 58.2066 59.9081 58.2066C59.9081 58.2066 57.6952 47.6117 57.6952 47.2094C57.2929 45.1307 56.7564 38.1568 52.1966 30.5794C47.6367 23.2032 43.4792 26.8243 43.4792 26.8243C43.4792 26.8243 46.4968 51.7692 49.112 60.8218C49.3131 60.6207 49.6484 60.2854 49.8496 60.0842C50.9896 63.5041 52.1295 69.1368 52.3307 69.338C54.9459 72.7579 59.5057 72.3555 62.5232 72.7579C66.4796 73.2943 72.3135 73.6967 72.3135 73.6967C72.3135 73.6967 71.5759 69.7403 71.777 68.0639C72.1794 64.6441 74.2581 64.3088 74.2581 64.3088C74.2581 64.3088 69.5642 61.7606 67.2843 61.3583Z" fill="#623B2A"/>
<path d="M51.794 156.51C51.794 156.51 51.5928 158.589 50.8552 160.667C50.3187 162.746 51.0563 165.764 51.0563 165.764C51.0563 165.764 51.4587 167.105 53.5374 167.44C55.415 167.842 56.9573 167.44 56.9573 167.44C56.9573 167.44 58.8349 169.72 61.1148 171.396C63.5959 173.073 68.8263 174.414 70.1674 174.213C72.4473 173.81 73.7214 172.134 73.5873 170.793C73.3861 169.653 70.7709 166.434 68.491 164.959C66.9487 164.02 63.797 161.003 62.8583 159.863C61.1818 158.186 60.0419 156.107 60.0419 156.107L51.794 156.51Z" fill="#2C2A29"/>
<path d="M48.6425 64.5762C48.6425 64.5762 55.4151 81.7426 56.3539 88.5823C57.4939 95.5562 59.5726 105.95 60.7126 114.667C62.0537 123.385 62.0537 131.834 61.2491 140.35C61.0479 143.77 59.7068 152.621 60.5114 157.315C59.7738 160.534 52.3976 160.869 51.66 157.114C51.1235 154.834 45.4238 134.851 44.8873 128.615C44.3509 122.379 45.8261 117.886 45.8261 117.886C45.8261 117.886 36.7735 98.6408 33.5548 90.8623C30.3361 83.1508 32.616 73.6958 32.616 73.6958L48.6425 64.5762Z" fill="url(#paint0_linear)"/>
<path d="M17.4613 174.078C17.4613 174.078 16.1202 178.638 16.3213 181.253C16.5225 183.868 17.059 184.472 17.8636 185.411C18.6013 186.349 19.5401 185.947 19.5401 185.947C19.5401 185.947 19.9424 191.446 22.5576 193.659C25.1728 195.938 29.9338 196.14 32.0125 195.335C34.0913 194.597 32.7502 190.641 30.6714 186.819C28.5927 183.064 25.7763 178.906 25.1728 175.285C20.1436 174.615 17.4613 174.078 17.4613 174.078Z" fill="#2C2A29"/>
<path d="M24.6363 71.5483C24.6363 71.5483 21.4176 76.2422 18.8024 84.356C16.9248 89.9888 17.2601 103.802 17.2601 103.802C17.2601 103.802 16.7237 117.415 17.6624 122.109C18.6012 126.803 18.4001 127.741 18.4001 127.741C18.4001 127.741 14.6449 139.074 15.1814 152.284C15.7178 165.494 16.8578 175.15 16.8578 175.15C16.8578 175.15 17.5954 177.631 21.0153 177.967C24.0328 178.369 26.5139 176.089 26.5139 176.089C26.5139 176.089 32.1466 147.993 34.2254 141.555C36.3041 135.118 37.0417 127.741 37.0417 127.741L41.4004 96.0238C41.4004 96.0238 44.0156 91.3299 45.5579 76.3763C42.9427 67.7931 24.6363 71.5483 24.6363 71.5483Z" fill="url(#paint1_linear)"/>
<path d="M31.4091 27.9638C33.0855 27.4273 40.1264 25.1474 40.864 25.4827C45.7591 27.9638 51.4589 37.5529 52.1965 44.1914C52.5989 46.8066 51.7942 53.9817 50.319 58.3403C51.9954 60.9555 50.5201 63.0343 50.5201 63.8389C50.319 65.1801 52.3977 71.014 53.0012 72.1539C53.94 74.635 54.1412 78.189 52.5989 80.0666C49.7825 83.8217 46.5638 84.9617 39.5899 85.9005C31.4761 87.0404 26.1787 81.2065 23.5635 77.7867C23.027 77.0491 20.5459 70.6116 22.4235 69.4717C21.0824 65.3142 19.6071 60.2179 18.266 55.1216C16.1873 47.5443 14.5109 40.3692 18.8025 34.7365C20.4789 32.2554 27.4527 29.1038 31.4091 27.9638Z" fill="#EDDCDA"/>
<path d="M30.4702 18.9102C30.4702 18.9102 37.1088 24.0064 39.3217 27.4263C41.4004 30.8462 42.3392 32.1203 41.1993 40.1C35.1642 38.0212 27.3856 34.2661 26.1116 30.1086C28.2574 28.7004 30.4702 18.9102 30.4702 18.9102Z" fill="#FFB9A4"/>
<path d="M45.6249 52.7069C45.0885 49.6893 44.0826 46.8729 43.5462 45.1295C43.345 44.7271 44.485 41.1732 44.485 41.1732L41.2662 40.0332L39.3887 42.3131C39.3887 42.3131 40.5286 44.9283 41.6686 45.5318C41.6686 48.9517 41.4674 54.9868 41.4674 60.6195C41.2662 69.4709 41.4674 75.9084 41.4674 75.9084C41.4674 75.9084 43.5462 78.9259 45.6249 80.267C47.1672 77.6518 47.7037 74.2319 47.7037 74.2319C47.7037 74.2319 46.5637 57.8031 45.6249 52.7069Z" fill="#E04E39"/>
<path d="M27.1172 30.5781C27.1172 30.5781 32.6158 33.0592 34.8287 34.9368C37.8462 37.4179 39.3885 38.1555 40.8637 39.6307C41.0649 39.2284 41.4002 32.2545 41.4002 32.2545C41.4002 32.2545 44.0154 32.6569 43.8813 32.6569C43.8813 32.6569 45.4236 33.998 45.96 36.8144C46.4965 39.6307 45.5577 42.8494 45.5577 42.8494L41.199 40.2342L38.3827 45.5317C38.3827 45.5317 32.7499 40.6366 30.0677 37.619C27.6536 34.7356 27.1172 30.5781 27.1172 30.5781Z" fill="white"/>
<path d="M43.5462 26.8242C43.5462 26.8242 47.9048 27.3607 50.1847 32.6581C52.6658 38.1567 53.4034 44.1918 53.4034 52.5068C53.4034 58.5419 53.8058 66.6557 54.9457 71.0144C55.8845 74.7695 60.7796 88.382 60.7796 88.382C60.7796 88.382 60.3773 94.0147 58.4997 96.2946C56.2198 99.111 53.6046 98.9098 53.6046 98.9098C53.6046 98.9098 50.5871 81.9445 50.1847 79.2623C49.7824 76.6471 48.8436 62.4311 49.0448 58.1395C49.246 53.982 46.966 40.0343 46.0272 36.8156C45.0885 33.7981 39.3887 27.3607 39.3887 27.3607L43.5462 26.8242Z" fill="url(#paint2_linear)"/>
<path d="M42.6075 31.1821C42.6075 31.1821 44.2839 33.2609 45.625 36.6807C46.9662 39.8994 47.3015 47.0745 47.7038 51.232C48.1061 55.3895 49.0449 59.5469 49.0449 59.5469C49.0449 59.5469 50.5872 54.9871 50.9225 51.9696C51.3248 48.9521 51.6601 46.471 51.6601 46.471L49.5814 44.7946L51.6601 39.8994C51.6601 39.8994 46.3627 28.3657 44.0827 27.8293C41.8028 27.1587 42.6075 31.1821 42.6075 31.1821Z" fill="#623B2A"/>
<path d="M47.0999 16.2266C46.6976 13.2091 45.5576 9.45395 43.1436 7.50931C40.6625 5.63174 36.7062 5.8329 33.6887 6.36935C29.1288 7.10697 26.3125 12.6056 27.8548 18.4395C29.1959 23.9381 33.6887 31.8508 39.9249 32.3872C43.1436 32.5884 45.2224 30.1073 46.3623 26.8886C47.5023 23.2005 47.3011 18.7077 47.0999 16.2266Z" fill="#FFC9B6"/>
<path d="M51.9954 8.31499C51.7942 5.29745 49.179 3.95633 47.1003 4.55983C47.6367 0.40234 42.4063 -0.134112 40.6629 2.27992C39.5229 1.87758 38.0477 0 35.1643 0C31.7444 0 27.7881 1.13996 26.8493 5.63273C23.2953 7.17503 24.1 12.6737 25.0388 16.0265C25.7764 18.3064 28.5927 25.4814 28.7939 25.4814C30.135 24.1403 32.0126 18.7087 32.2138 18.1052C34.2925 18.3064 38.2489 16.7641 38.9865 15.8253C41.2664 16.9653 45.6251 18.6417 47.8379 17.1664C51.2578 15.2888 52.1966 11.1314 51.9954 8.31499Z" fill="#2C2A29"/>
<path d="M32.3479 19.8492C32.3479 19.8492 31.0068 17.5693 29.1292 19.1116C27.4528 20.6539 31.2079 24.4091 31.2079 24.4091L32.3479 19.8492Z" fill="#FFC9B6"/>
<path d="M46.1616 27.0227C46.1616 27.0227 45.4239 26.6203 43.144 27.2238C40.8641 27.6262 38.5842 29.5038 36.9078 28.9003C35.2314 28.3638 34.2926 27.2239 33.8902 26.0839C33.4879 24.5416 33.1526 22.1276 32.9515 19.6465C32.2138 20.0488 32.0127 20.7864 32.0127 21.5241C31.8115 24.0051 32.2138 27.0227 32.7503 28.4979C33.4879 30.7778 36.5054 33.5942 40.8641 34.533C44.6193 35.2706 45.4239 33.1919 45.9604 30.979C46.3627 28.6991 46.1616 28.1626 46.1616 27.0227Z" fill="#2C2A29"/>
<path d="M44.8203 29.1029C44.8203 29.1029 43.6804 29.1029 43.278 28.3652C42.5404 29.5052 40.9981 29.7064 40.4617 30.0416C40.9981 30.5781 41.8028 31.1816 43.278 30.7793C44.6192 30.3769 44.8203 29.1029 44.8203 29.1029Z" fill="#FFC9B6"/>
<path d="M26.1786 30.041C26.1786 30.041 32.4148 38.356 34.2924 49.6885C36.17 61.021 34.2924 72.6889 34.2924 81.0038C34.2924 89.1177 35.2312 105.345 35.2312 105.345C35.2312 105.345 27.6538 106.686 22.0211 105.546C15.986 104.205 12.365 99.9137 12.365 99.9137C12.365 99.9137 15.919 81.205 18.6012 69.7384C19.7412 64.6421 16.7237 53.3096 14.6449 47.2745C13.5049 43.5193 12.7673 38.6242 15.7849 35.2044C18.0648 32.455 23.1611 31.5163 26.1786 30.041Z" fill="url(#paint3_linear)"/>
<path d="M3.7146 71.1469L12.7672 87.4416L35.9687 74.2315L26.9161 58.0039L25.2397 58.9427L3.7146 71.1469Z" fill="#FF9C7D"/>
<path d="M1.97144 72.1535L11.024 88.3811L34.2255 75.171L25.1729 58.9434L1.97144 72.1535Z" fill="#F49678"/>
<path d="M26.5137 58.1387L35.3652 73.964L34.4264 74.5004L25.575 58.6751L26.5137 58.1387Z" fill="white"/>
<path d="M26.3127 58.7409L29.3303 64.0383L32.7502 62.1607L29.9338 57.0645L26.3127 58.7409Z" fill="#EDDCDA"/>
<path d="M28.0564 62.6992L36.3714 63.1016L32.9515 71.2154L28.0564 62.6992Z" fill="#E04E39"/>
<path d="M22.1553 78.7239C22.1553 78.7239 24.6364 78.7239 26.514 79.4616C27.4528 78.7239 29.3304 77.7852 29.3304 77.7852C29.3304 77.7852 30.6715 81.5403 28.1904 84.4237C25.7093 87.0389 22.5577 85.5637 20.613 83.8873C18.6013 82.4791 22.1553 78.7239 22.1553 78.7239Z" fill="#FFC9B6"/>
<path d="M18.4001 33.2598C18.4001 33.2598 12.365 34.9362 9.14633 40.9712C6.12879 46.8052 2.17247 58.3389 1.03251 63.0328C-0.509787 69.4702 -0.107449 71.7501 0.83134 73.4265C2.70892 76.4441 5.39117 78.724 8.94516 80.8027C14.5779 84.2226 19.8753 85.1614 19.8753 85.1614C19.8753 85.1614 23.8317 84.4238 23.8317 77.9864C22.8929 77.0476 21.0153 77.2487 18.1989 74.4324C14.4438 71.0125 11.7615 68.1961 11.7615 68.1961C11.7615 68.1961 16.1202 61.9599 20.4789 55.1872C26.1786 41.5077 18.4001 33.2598 18.4001 33.2598Z" fill="#623B2A"/>
<path d="M27.1175 28.2988C27.1175 28.2988 23.3623 29.9752 23.1611 31.3164C23.6976 32.6575 25.2399 34.5351 25.9775 38.0891C26.7151 41.643 26.3798 45.4653 26.3798 45.4653L30.3362 47.3428L28.0562 51.2992L35.0301 60.3518C35.0301 60.3518 36.1701 48.4828 33.3537 39.7655C30.6714 31.3164 27.1175 28.2988 27.1175 28.2988Z" fill="#623B2A"/>
<path d="M76.3367 64.9766C77.4767 64.9766 78.4155 64.4401 79.3543 64.5743C80.8966 64.7754 81.9695 64.9766 83.1094 65.1107C84.2494 65.3119 84.2494 67.3906 82.3718 67.3906C79.3543 67.1895 78.9519 68.5306 77.2755 68.3294C76.0015 68.1282 76.3367 64.9766 76.3367 64.9766Z" fill="#FFC9B6"/>
<path d="M151.798 159.871C153.002 160.903 153.863 163.309 154.207 165.372C154.379 166.06 154.207 168.123 150.765 169.842C145.431 172.592 138.204 178.093 133.042 176.546C132.525 176.374 131.321 175.686 130.805 174.999C130.288 174.311 130.116 172.764 130.633 172.076C132.009 170.185 136.139 168.81 137.86 167.779C140.097 166.403 147.496 161.762 148.873 160.559C149.389 160.043 151.626 159.871 151.798 159.871Z" fill="#E58D2E"/>
<path d="M134.418 168.121C135.451 167.261 138.376 165.198 139.753 164.167C140.957 163.307 141.99 162.104 141.99 162.104C145.087 160.901 148.184 159.354 151.11 158.322C151.97 159.697 152.83 161.417 153.002 161.417C153.691 162.792 154.035 164.167 153.346 165.714C152.83 167.089 151.626 167.949 150.421 168.637C149.217 169.324 148.184 170.012 147.152 170.527C145.431 171.387 143.022 172.59 141.817 173.278C135.795 176.2 132.698 176.544 130.633 174.309C130.116 173.794 129.944 173.106 130.116 172.418C130.461 171.043 132.181 170.012 134.418 168.121Z" fill="#232020"/>
<path d="M138.548 95.4044C138.548 95.4044 138.204 110.016 138.204 131.332C140.785 135.974 149.905 151.617 152.142 159.181C153.518 161.931 143.71 167.776 141.473 165.197L123.577 135.286C122.889 134.083 122.373 132.879 122.029 131.504C120.824 126.347 120.136 109.329 120.996 92.1382C120.996 91.6225 120.996 89.2158 120.996 89.2158C122.201 78.7297 138.892 88.3563 138.548 95.4044Z" fill="#774625"/>
<path d="M136.828 155.915C138.72 150.586 139.753 144.054 142.162 138.725C145.776 145.257 150.422 154.196 151.97 159.181C153.347 161.932 143.539 167.776 141.302 165.198L136.484 157.118C136.484 156.603 136.656 156.259 136.828 155.915Z" fill="#623B2A"/>
<path d="M140.613 180.669C140.613 181.529 140.441 184.795 139.753 185.482C138.032 187.03 137.172 187.029 134.419 188.405C132.87 189.264 127.88 192.187 125.987 192.53C117.899 194.765 116.179 192.53 116.007 189.952C115.835 188.405 118.244 187.03 118.416 186.858C119.62 185.998 125.471 185.482 128.052 184.279C130.805 183.076 133.558 181.872 136.139 180.497C137.688 179.81 140.613 180.325 140.613 180.669Z" fill="#E58D2E"/>
<path d="M117.555 186.859C120.48 184.108 126.847 181.014 128.74 179.295L140.613 178.092C140.957 180.327 140.957 182.561 139.409 183.765C138.548 184.452 137.516 184.968 136.655 185.484C134.246 186.515 132.354 187.718 129.945 189.094C127.363 190.469 123.234 191.5 119.964 191.672C117.555 191.672 113.942 190.297 117.555 186.859Z" fill="#232020"/>
<path d="M144.227 135.457C144.055 137.864 144.743 138.895 144.915 141.302C145.776 151.444 140.441 165.712 140.785 178.089C140.958 183.418 127.88 183.762 128.052 178.433C128.396 165.197 128.568 144.052 128.224 141.646C128.224 141.474 127.364 138.036 127.536 135.801C128.568 124.111 131.493 90.762 131.838 90.2463C132.354 89.3868 147.668 93.5125 152.142 96.4349C152.831 96.7787 153.175 97.6382 153.003 98.3258C152.659 101.248 151.626 110.187 149.733 116.032C147.152 123.596 144.399 132.535 144.227 135.457Z" fill="url(#paint4_linear)"/>
<path d="M95.7014 171.731C95.7014 171.387 95.8734 171.215 96.2176 171.043C96.9059 170.699 98.1104 170.699 98.7987 171.043C99.1429 171.215 99.3149 171.559 99.3149 171.731V174.137C99.3149 174.481 99.1429 174.653 98.7987 174.825C98.1104 175.169 96.9059 175.169 96.2176 174.825C95.8734 174.653 95.7014 174.309 95.7014 174.137V171.731Z" fill="#232020"/>
<path d="M98.9707 105.031V171.558C98.9707 171.73 98.7986 171.902 98.6266 172.074C98.1103 172.418 97.0779 172.418 96.5617 172.074C96.2175 171.902 96.2175 171.73 96.2175 171.558V105.031H98.9707Z" fill="#BCBCBC"/>
<path d="M99.1436 105.373V113.109C99.1436 113.453 98.9715 113.624 98.6273 113.796C98.2832 113.968 97.939 113.968 97.5949 113.968C97.2507 113.968 96.9066 113.796 96.5624 113.796C96.2183 113.624 96.0462 113.281 96.0462 112.937V105.201H99.1436V105.373Z" fill="#774625"/>
<path d="M101.208 98.6685C102.757 97.809 104.133 97.1214 105.682 96.6057C106.026 96.4338 106.198 96.6057 106.37 96.6057L108.435 97.809C108.607 97.9809 108.779 98.3247 108.779 98.6685C108.779 99.5281 108.091 100.559 107.403 100.903C107.403 100.903 107.231 100.903 107.231 101.075C106.026 101.591 104.822 102.107 103.617 102.794C101.724 103.826 100.003 105.201 97.9386 106.576C97.7665 106.748 97.4224 106.748 97.2503 106.576L95.7016 105.717C95.5295 105.717 95.5295 105.545 95.5295 105.373V103.654C95.5295 102.966 95.8737 102.45 96.3899 101.935C98.1107 100.731 99.6593 99.7 101.208 98.6685Z" fill="#774625"/>
<path d="M96.9066 98.1534C97.4228 96.9501 98.2832 96.4344 99.3156 96.2624C100.864 95.9186 102.757 95.5748 104.134 94.1996C106.371 92.4806 110.328 97.4658 108.608 99.0129C108.091 99.5286 107.059 100.904 106.543 101.42C105.854 102.279 105.166 102.451 104.134 103.139C103.101 103.998 102.241 105.03 102.069 105.201C100.864 105.717 100.52 103.998 102.413 102.279C103.445 101.42 102.757 100.56 101.553 100.044C101.036 99.8724 100.52 99.5286 100.004 99.7005C99.1436 99.7005 98.4553 100.216 97.767 100.732C97.5949 100.904 95.8742 102.279 95.8742 102.451C95.8742 102.623 96.3904 99.3567 96.9066 98.1534Z" fill="#FBBD9E"/>
<path d="M118.76 49.5073C119.448 57.243 126.159 70.3077 125.987 75.2929C125.815 78.0434 112.909 93.5147 109.984 98.1561C108.435 100.391 102.585 95.2338 103.961 93.6866C110.156 82.341 114.458 74.0896 114.458 74.0896C111.532 65.1506 103.101 52.2578 107.059 43.4906C108.091 41.084 112.221 40.0526 114.63 41.7716C117.211 43.4906 118.588 46.413 118.76 49.5073Z" fill="url(#paint5_linear)"/>
<path d="M135.796 51.568C138.377 52.9432 140.098 54.1465 141.818 57.0689C143.539 59.8194 144.744 63.6012 145.604 66.6955C150.25 85.9488 151.971 88.6992 152.143 96.7787C152.315 100.389 144.227 102.452 135.624 101.592C121.514 100.217 120.137 95.5754 119.965 94.0283C119.965 94.0283 117.556 84.0578 117.9 74.775C117.9 73.3998 109.812 63.945 106.543 56.2094C102.929 47.4423 107.231 38.5032 115.147 41.0818C120.997 42.9727 130.806 48.8175 135.796 51.568Z" fill="#726859"/>
<path d="M122.718 58.1015C122.89 53.632 122.202 50.1939 120.997 48.9906C119.448 47.2716 117.555 47.4435 116.007 47.6154C111.017 48.4749 111.361 54.3196 111.361 54.3196C111.533 56.2106 112.049 58.2734 112.565 60.1644C113.082 61.8834 115.491 68.072 117.9 68.4158C121.341 68.7596 122.546 63.6025 122.718 58.1015Z" fill="white"/>
<path d="M112.221 52.428C113.081 50.5371 115.835 47.9585 116.695 47.7866C117.9 47.4428 119.448 48.3023 120.137 51.0528C120.825 53.8033 121.169 60.8513 118.76 62.3985C118.072 62.9142 117.039 62.7423 116.351 62.3985C114.286 61.0232 111.533 59.9918 111.361 59.8199C111.017 58.1009 111.705 53.6314 112.221 52.428Z" fill="#F2A883"/>
<path d="M156.445 116.033C157.133 116.721 160.574 117.408 159.886 118.44C159.714 118.612 159.542 118.783 159.198 118.783C158.337 118.612 157.477 118.44 156.961 118.268C156.789 118.268 155.584 117.58 155.584 117.58C157.133 121.018 161.091 123.081 159.714 124.112C159.198 124.456 158.337 123.597 157.993 123.253C157.133 122.565 156.445 121.706 155.756 120.846C155.412 120.502 155.24 120.159 154.896 119.987C154.724 119.815 154.38 118.955 154.036 119.299C153.863 119.471 154.208 120.159 154.208 120.331C154.38 120.846 154.724 121.362 154.896 121.878C155.756 123.253 157.305 124.972 156.445 125.66C155.412 126.347 153.691 123.253 153.347 122.737C152.831 121.878 152.659 121.018 152.143 120.331C151.971 119.987 151.627 119.987 151.627 120.502C151.627 122.05 153.347 125.66 151.799 126.003C150.766 126.175 150.078 120.502 149.562 119.127C149.562 119.643 148.185 120.159 148.013 119.299C148.013 118.955 148.357 118.612 148.529 118.268C149.217 116.893 147.669 115.173 147.841 113.283C148.013 112.079 148.529 110.704 149.562 110.016C150.766 109.329 152.487 109.329 153.519 110.36C155.24 111.392 156.1 115.689 156.445 116.033Z" fill="#FBBD9E"/>
<path d="M143.023 61.3666C146.636 67.727 150.938 79.4165 151.97 84.4017C152.659 86.9803 154.38 107.265 154.896 111.047C155.412 113.797 147.497 114.829 147.152 112.938C144.227 100.561 141.646 85.2613 141.646 85.2613C135.623 71.5089 127.88 63.0856 129.773 58.6161C130.805 56.2095 133.731 53.9747 136.656 55.0061C140.097 56.0376 141.646 58.788 143.023 61.3666Z" fill="url(#paint6_linear)"/>
<path d="M99.833 45.8961C99.661 44.8647 100.349 43.8333 101.21 43.6614C104.651 42.63 111.878 41.0828 113.427 41.5985C114.804 41.7704 116.696 43.4895 117.729 45.3804C120.31 49.678 111.362 62.9146 106.2 63.0865C104.307 63.0865 103.619 60.8518 103.102 59.3047C101.554 54.3194 100.349 49.1623 99.833 45.8961Z" fill="#FBBD9E"/>
<path d="M117.04 48.3021C117.212 48.3021 117.556 48.474 117.556 48.6459C117.728 48.8178 117.728 48.9897 117.556 49.1616C117.556 49.3335 116.868 52.7716 116.868 52.7716C117.9 51.0526 118.761 49.3335 119.277 47.2707C119.965 44.3483 120.309 40.5664 118.417 37.9879C118.073 37.4721 117.556 36.9564 117.212 36.6126C112.394 31.7993 105.339 32.6588 100.865 37.8159C98.8001 40.2226 99.4884 44.5202 99.6605 46.0673C99.6605 45.5516 99.6605 44.5202 100.521 44.6921C104.651 45.3797 111.534 47.2707 112.566 51.9121C112.738 52.5997 113.254 54.3187 114.115 54.1468C114.975 54.1468 114.631 52.9435 114.803 52.084C114.803 51.5683 114.975 50.8807 115.147 50.3649C115.319 49.5054 116.008 48.474 117.04 48.3021Z" fill="#A8A8A8"/>
<path d="M118.072 49.1616C117.728 47.2706 115.147 48.4739 115.147 50.7087C115.147 52.2558 115.319 53.9749 115.147 55.522C116.179 53.803 118.416 51.912 118.072 49.1616Z" fill="#FBBD9E"/>
<path d="M102.241 56.8947C102.241 56.379 103.962 56.0352 104.134 56.2071C104.994 56.5509 106.199 57.4104 106.887 58.0981C107.747 58.7857 108.264 59.6452 109.468 59.4733C110.157 59.4733 110.845 58.9576 111.361 58.6138C112.393 57.9262 114.286 56.8947 114.975 55.6914C114.114 57.7543 111.361 60.8485 109.64 62.0519C107.92 63.2552 106.715 63.599 105.51 63.4271C103.446 63.2552 102.241 56.8947 102.241 56.8947ZM104.478 58.9576C105.338 58.9576 105.855 58.6138 106.199 58.27C106.027 58.0981 104.306 56.8947 103.962 56.8947C103.79 56.8947 102.757 57.0666 102.585 57.2385C102.929 58.0981 103.618 58.7857 104.478 58.9576Z" fill="#A8A8A8"/>
<defs>
<linearGradient id="paint0_linear" x1="48.5861" y1="153.805" x2="45.2474" y2="62.6035" gradientUnits="userSpaceOnUse">
<stop offset="0.00505051" stop-color="#C39367"/>
<stop offset="1" stop-color="#704232"/>
</linearGradient>
<linearGradient id="paint1_linear" x1="32.6208" y1="171.335" x2="28.6075" y2="68.5488" gradientUnits="userSpaceOnUse">
<stop offset="0.00505051" stop-color="#C39367"/>
<stop offset="1" stop-color="#704232"/>
</linearGradient>
<linearGradient id="paint2_linear" x1="51.455" y1="94.3943" x2="48.7636" y2="25.3303" gradientUnits="userSpaceOnUse">
<stop offset="0.00505051" stop-color="#C39367"/>
<stop offset="1" stop-color="#704232"/>
</linearGradient>
<linearGradient id="paint3_linear" x1="24.572" y1="101.242" x2="21.7826" y2="28.4842" gradientUnits="userSpaceOnUse">
<stop offset="0.00505051" stop-color="#C39367"/>
<stop offset="1" stop-color="#704232"/>
</linearGradient>
<linearGradient id="paint4_linear" x1="133.351" y1="176.247" x2="137.02" y2="88.0373" gradientUnits="userSpaceOnUse">
<stop offset="0.00505051" stop-color="#C39367"/>
<stop offset="1" stop-color="#704232"/>
</linearGradient>
<linearGradient id="paint5_linear" x1="98.8934" y1="95.9274" x2="119.838" y2="52.6342" gradientUnits="userSpaceOnUse">
<stop stop-color="#877B6A"/>
<stop offset="1" stop-color="#726859"/>
</linearGradient>
<linearGradient id="paint6_linear" x1="152.662" y1="112.884" x2="136.617" y2="57.6231" gradientUnits="userSpaceOnUse">
<stop stop-color="#877B6A"/>
<stop offset="1" stop-color="#726859"/>
</linearGradient>
</defs>
</svg>
