<svg width="41" height="40" viewBox="0 0 41 40" fill="none" xmlns="http://www.w3.org/2000/svg">
<path d="M40.7111 0H0.860596V40H11.0002V5H37.0002V40H40.7111V0Z" fill="#4460A0"/>
<path fill-rule="evenodd" clip-rule="evenodd" d="M22.146 40H3.06015C1.84503 40 0.860596 39.0112 0.860596 37.7922V2.20781C0.860596 0.988125 1.84503 0 3.06015 0H38.5118C39.7263 0 40.7111 0.988125 40.7111 2.20781V37.7922C40.7111 39.0116 39.7263 40 38.5118 40H28.3568V24.5097H33.5367L34.3123 18.4728H28.3568V14.6187C28.3568 12.8709 28.8403 11.68 31.3372 11.68L34.5218 11.6788V6.27938C33.971 6.20594 32.0806 6.04156 29.8811 6.04156C25.2892 6.04156 22.1457 8.855 22.1457 14.0212V18.4731H16.9527V24.51H22.146V40Z" fill="#4460A0"/>
</svg>
