<svg width="40" height="40" viewBox="0 0 40 40" fill="none" xmlns="http://www.w3.org/2000/svg">
<path fill-rule="evenodd" clip-rule="evenodd" d="M0.133745 0H39.961C39.9674 0 39.9727 0.00524666 39.9727 0.0117188V39.9883C39.9727 39.9948 39.9674 40 39.961 40H0.133745C0.127297 40 0.12207 39.9948 0.12207 39.9883V0.0117188C0.12207 0.00524666 0.127297 0 0.133745 0ZM22.0562 11.5383C21.5234 11.0036 20.8009 10.7031 20.0474 10.7031C19.2939 10.7031 18.5714 11.0036 18.0386 11.5383C17.5058 12.0731 17.2065 12.7984 17.2065 13.5547C17.2065 14.311 17.5058 15.0363 18.0386 15.571C18.5714 16.1058 19.2939 16.4062 20.0474 16.4062C20.8009 16.4062 21.5234 16.1058 22.0562 15.571C22.589 15.0363 22.8883 14.311 22.8883 13.5547C22.8883 12.7984 22.589 12.0731 22.0562 11.5383ZM26.8967 13.5547C26.8967 17.3437 23.8301 20.4297 20.0474 20.4297C16.2725 20.4297 13.1981 17.3437 13.1981 13.5547C13.1981 9.76562 16.2725 6.67969 20.0474 6.67969C23.8223 6.67969 26.8967 9.76562 26.8967 13.5547ZM26.7877 24.4062C25.5658 25.1731 24.2238 25.7277 22.8182 26.0469L22.7949 26.0391L26.6321 29.8906C26.8187 30.0778 26.9667 30.3001 27.0677 30.5447C27.1687 30.7894 27.2207 31.0516 27.2207 31.3164C27.2207 31.5812 27.1687 31.8434 27.0677 32.0881C26.9667 32.3327 26.8187 32.555 26.6321 32.7422C26.4456 32.9295 26.2241 33.0781 25.9804 33.1795C25.7367 33.2809 25.4754 33.3331 25.2116 33.3331C24.9478 33.3331 24.6865 33.2809 24.4428 33.1795C24.1991 33.0781 23.9776 32.9295 23.7912 32.7422L20.024 28.9609L16.2569 32.75C15.8802 33.1281 15.3693 33.3406 14.8365 33.3406C14.3037 33.3406 13.7928 33.1281 13.416 32.75C13.0393 32.3719 12.8277 31.859 12.8277 31.3242C12.8277 30.7894 13.0393 30.2766 13.416 29.8984L17.2298 26.0469C15.8289 25.7344 14.4979 25.1875 13.2604 24.4062C13.0375 24.2647 12.8447 24.0804 12.6928 23.864C12.5409 23.6476 12.433 23.4033 12.3752 23.1451C12.3173 22.8868 12.3108 22.6196 12.3558 22.3588C12.4009 22.098 12.4966 21.8487 12.6377 21.625C12.7788 21.4013 12.9623 21.2077 13.1779 21.0553C13.3935 20.9028 13.6369 20.7945 13.8942 20.7365C14.1515 20.6784 14.4176 20.6718 14.6775 20.717C14.9373 20.7623 15.1857 20.8584 15.4086 21C16.7927 21.8682 18.3919 22.3285 20.024 22.3285C21.6562 22.3285 23.2554 21.8682 24.6395 21C24.8624 20.8584 25.1108 20.7623 25.3706 20.717C25.6305 20.6718 25.8966 20.6784 26.1539 20.7365C26.4112 20.7945 26.6546 20.9028 26.8702 21.0553C27.0858 21.2077 27.2693 21.4013 27.4104 21.625C27.5514 21.8487 27.6472 22.098 27.6923 22.3588C27.7373 22.6196 27.7308 22.8868 27.6729 23.1451C27.6151 23.4033 27.5072 23.6476 27.3553 23.864C27.2034 24.0804 27.0106 24.2647 26.7877 24.4062Z" fill="#EE8208"/>
</svg>
