<svg width="44" height="46" viewBox="0 0 44 46" fill="none" xmlns="http://www.w3.org/2000/svg">
<g filter="url(#filter0_ii)">
<mask id="mask0" mask-type="alpha" maskUnits="userSpaceOnUse" x="0" y="0" width="33" height="44">
<path d="M32.4826 8C32.4826 3.58172 28.9009 0 24.4826 0H13.2727L0.466064 19.2099V35.6225C0.466064 40.0408 4.04779 43.6225 8.46606 43.6225H24.4826C28.9009 43.6225 32.4826 40.0408 32.4826 35.6225V8Z" fill="white"/>
</mask>
<g mask="url(#mask0)">
<g clip-path="url(#clip0)">
<rect width="33.0493" height="43.3772" transform="translate(-0.566772)" fill="#FDFDFD" fill-opacity="0.5"/>
<rect x="-58.7644" y="-37.8195" width="91.2469" height="91.2469" fill="#FDFDFD" fill-opacity="0.5"/>
</g>
<path d="M32.4826 8C32.4826 3.58172 28.9009 0 24.4826 0H13.2727L0.466064 19.2099V35.6225C0.466064 40.0408 4.04779 43.6225 8.46606 43.6225H24.4826C28.9009 43.6225 32.4826 40.0408 32.4826 35.6225V8Z" fill="url(#paint0_linear)"/>
<path d="M32.4826 8C32.4826 3.58172 28.9009 0 24.4826 0H13.2727L0.466064 19.2099V35.6225C0.466064 40.0408 4.04779 43.6225 8.46606 43.6225H24.4826C28.9009 43.6225 32.4826 40.0408 32.4826 35.6225V8Z" fill="url(#paint1_radial)"/>
</g>
</g>
<path d="M13.2727 0L14.0661 1.32234C16.2971 5.04069 15.1595 9.85954 11.5011 12.1876L0.466064 19.2099L13.2727 0Z" fill="#663A2A" fill-opacity="0.2"/>
<g filter="url(#filter1_biii)">
<circle cx="24.5543" cy="27.293" r="13.1841" fill="url(#paint2_linear)"/>
</g>
<path fill-rule="evenodd" clip-rule="evenodd" d="M32.0797 38.6694C29.9228 40.099 27.3357 40.9317 24.5542 40.9317C17.0217 40.9317 10.9154 34.8254 10.9154 27.2929C10.9154 19.7605 17.0217 13.6542 24.5542 13.6542C32.0866 13.6542 38.1929 19.7605 38.1929 27.2929C38.1929 30.071 37.3623 32.6551 35.9359 34.8104L42.469 41.3434C43.5342 42.4087 43.5342 44.1358 42.469 45.201C41.4037 46.2663 39.6766 46.2663 38.6113 45.201L32.0797 38.6694ZM37.0564 27.2929C37.0564 34.1977 31.4589 39.7951 24.5542 39.7951C17.6494 39.7951 12.052 34.1977 12.052 27.2929C12.052 20.3882 17.6494 14.7907 24.5542 14.7907C31.4589 14.7907 37.0564 20.3882 37.0564 27.2929Z" fill="#E84B37"/>
<defs>
<filter id="filter0_ii" x="0.466064" y="-1" width="33.0165" height="44.6225" filterUnits="userSpaceOnUse" color-interpolation-filters="sRGB">
<feFlood flood-opacity="0" result="BackgroundImageFix"/>
<feBlend mode="normal" in="SourceGraphic" in2="BackgroundImageFix" result="shape"/>
<feColorMatrix in="SourceAlpha" type="matrix" values="0 0 0 0 0 0 0 0 0 0 0 0 0 0 0 0 0 0 127 0" result="hardAlpha"/>
<feOffset dy="-3"/>
<feGaussianBlur stdDeviation="0.5"/>
<feComposite in2="hardAlpha" operator="arithmetic" k2="-1" k3="1"/>
<feColorMatrix type="matrix" values="0 0 0 0 0 0 0 0 0 0 0 0 0 0 0 0 0 0 0.4 0"/>
<feBlend mode="normal" in2="shape" result="effect1_innerShadow"/>
<feColorMatrix in="SourceAlpha" type="matrix" values="0 0 0 0 0 0 0 0 0 0 0 0 0 0 0 0 0 0 127 0" result="hardAlpha"/>
<feOffset dx="1"/>
<feGaussianBlur stdDeviation="0.5"/>
<feComposite in2="hardAlpha" operator="arithmetic" k2="-1" k3="1"/>
<feColorMatrix type="matrix" values="0 0 0 0 1 0 0 0 0 1 0 0 0 0 1 0 0 0 0.3 0"/>
<feBlend mode="normal" in2="effect1_innerShadow" result="effect2_innerShadow"/>
</filter>
<filter id="filter1_biii" x="1.37012" y="4.10889" width="46.3683" height="46.3683" filterUnits="userSpaceOnUse" color-interpolation-filters="sRGB">
<feFlood flood-opacity="0" result="BackgroundImageFix"/>
<feGaussianBlur in="BackgroundImage" stdDeviation="5"/>
<feComposite in2="SourceAlpha" operator="in" result="effect1_backgroundBlur"/>
<feBlend mode="normal" in="SourceGraphic" in2="effect1_backgroundBlur" result="shape"/>
<feColorMatrix in="SourceAlpha" type="matrix" values="0 0 0 0 0 0 0 0 0 0 0 0 0 0 0 0 0 0 127 0" result="hardAlpha"/>
<feOffset dy="-4"/>
<feGaussianBlur stdDeviation="0.5"/>
<feComposite in2="hardAlpha" operator="arithmetic" k2="-1" k3="1"/>
<feColorMatrix type="matrix" values="0 0 0 0 0.920833 0 0 0 0 0.920833 0 0 0 0 0.920833 0 0 0 0.1 0"/>
<feBlend mode="normal" in2="shape" result="effect2_innerShadow"/>
<feColorMatrix in="SourceAlpha" type="matrix" values="0 0 0 0 0 0 0 0 0 0 0 0 0 0 0 0 0 0 127 0" result="hardAlpha"/>
<feOffset dx="-1"/>
<feGaussianBlur stdDeviation="0.5"/>
<feComposite in2="hardAlpha" operator="arithmetic" k2="-1" k3="1"/>
<feColorMatrix type="matrix" values="0 0 0 0 0.920833 0 0 0 0 0.920833 0 0 0 0 0.920833 0 0 0 0.1 0"/>
<feBlend mode="normal" in2="effect2_innerShadow" result="effect3_innerShadow"/>
<feColorMatrix in="SourceAlpha" type="matrix" values="0 0 0 0 0 0 0 0 0 0 0 0 0 0 0 0 0 0 127 0" result="hardAlpha"/>
<feOffset dx="1"/>
<feGaussianBlur stdDeviation="0.5"/>
<feComposite in2="hardAlpha" operator="arithmetic" k2="-1" k3="1"/>
<feColorMatrix type="matrix" values="0 0 0 0 0.920833 0 0 0 0 0.920833 0 0 0 0 0.920833 0 0 0 0.1 0"/>
<feBlend mode="normal" in2="effect3_innerShadow" result="effect4_innerShadow"/>
</filter>
<linearGradient id="paint0_linear" x1="16.4757" y1="-0.208538" x2="16.4757" y2="43.2803" gradientUnits="userSpaceOnUse">
<stop stop-color="white" stop-opacity="0.4"/>
<stop offset="0.833333" stop-color="white" stop-opacity="0"/>
<stop offset="1" stop-color="white" stop-opacity="0.3"/>
</linearGradient>
<radialGradient id="paint1_radial" cx="0" cy="0" r="1" gradientUnits="userSpaceOnUse" gradientTransform="translate(0.466064 5.72699) scale(24.5508 51.9168)">
<stop stop-color="white" stop-opacity="0.7"/>
<stop offset="1" stop-color="white" stop-opacity="0"/>
</radialGradient>
<linearGradient id="paint2_linear" x1="24.5543" y1="14.1089" x2="24.5543" y2="40.4772" gradientUnits="userSpaceOnUse">
<stop stop-color="#A6A0BA" stop-opacity="0.15"/>
<stop offset="1" stop-color="white" stop-opacity="0.66"/>
</linearGradient>
<clipPath id="clip0">
<rect width="33.0493" height="43.3772" fill="white" transform="translate(-0.566772)"/>
</clipPath>
</defs>
</svg>
