<svg width="60" height="80" viewBox="0 0 60 80" fill="none" xmlns="http://www.w3.org/2000/svg">
<g clip-path="url(#clip0)">
<path d="M29.273 -7.79625C29.273 -7.79625 21.2584 -9.22799 13.855 -3.56186C5.03065 3.19197 2.66121 11.7963 4.52655 17.0141C6.39189 22.232 5.94927 25.1736 3.13545 32.9439C0.976787 38.9037 5.47152 44.8357 10.0558 47.8642C14.6401 50.8927 55.5582 41.9062 56.3767 40.5787C57.1952 39.2512 56.0939 27.0397 48.8451 23.5212C41.5945 20.001 43.1384 -10.7831 29.273 -7.79625Z" fill="#2C2A29"/>
<path d="M17.0459 58.6854C16.5102 59.5959 15.9797 60.4508 15.4651 61.2344C13.6191 64.0579 12.0172 65.9431 11.3497 66.1395C8.51133 66.97 7.31168 66.1395 7.31168 66.1395C6.61262 62.9841 6.99552 58.9999 7.944 54.8385C8.53065 52.2652 9.33334 49.6224 10.2309 47.0647C13.4504 37.8749 17.8854 29.7588 17.8854 29.7588C29.0406 32.7161 22.7859 48.9222 17.0459 58.6854Z" fill="#FFAE80"/>
<path d="M28.0033 34.966C28.0279 35.0129 32.5736 36.3925 35.953 34.7836C39.1321 33.2719 40.7902 31.2633 40.6286 29.3746C40.6286 29.3746 38.2381 26.7075 36.7311 18.4229L36.1128 18.6644L25.7305 22.732C25.7305 22.732 26.5981 26.042 27.1918 29.1991C27.6924 31.8523 27.5414 34.1146 28.0033 34.966Z" fill="#FFAE80"/>
<path d="M21.2421 28.4955C29.3691 27.8491 43.635 27.7865 52.5313 33.8697C52.5313 33.8697 48.4722 73.5951 56.7134 93.3354C59.6642 100.402 20.3042 93.4066 21.827 88.9533C25.2187 79.0406 10.9142 61.1752 13.5946 49.3686C14.9698 43.3115 15.3317 38.2743 15.351 34.7506C15.3686 31.4701 17.9365 28.7596 21.2421 28.4955Z" fill="#FFAE80"/>
<path opacity="0.2" d="M15.5117 39.68C15.596 39.3308 18.784 34.9435 18.9508 35.5603C19.1194 36.1771 16.8677 41.5027 17.1118 43.6104C17.3577 45.7197 15.5117 39.68 15.5117 39.68Z" fill="#D1D3D4"/>
<path opacity="0.2" d="M25.7305 22.7314C25.7305 22.7314 26.3241 25.0354 26.9986 28.2064C32.9969 26.9432 35.3663 21.9148 36.1128 18.6621L25.7305 22.7314Z" fill="#D1D3D4"/>
<path d="M59.0387 101.969C54.8461 104.127 42.0979 97.655 38.5481 94.1713C34.9983 90.6875 21.8268 88.9552 19.6172 88.3522C17.4076 87.7493 19.7876 84.7138 20.4585 83.5514C21.1295 82.3907 13.8508 55.4275 13.8508 55.4275C10.3045 55.3858 6.11719 50.3643 6.11719 50.3643C6.2015 42.8981 15.8163 32.4207 15.8163 32.4207C15.8163 32.4207 15.2595 51.0281 23.8133 49.8674C32.3672 48.7067 43.7384 30.0003 43.7384 30.0003C44.8906 29.599 55.5241 35.3016 54.9287 45.4471C54.9023 45.9423 54.8461 46.4462 54.76 46.9605C52.5803 60.2405 52.8034 71.4772 52.6629 73.18C52.5083 75.0705 54.6863 80.7609 56.7062 86.6043C59.1283 93.5927 61.3221 100.795 59.0387 101.969Z" fill="#D2BEB6"/>
<path d="M24.2729 26.0901C24.2729 26.0901 38.5809 23.7305 36.9579 14.9386C35.335 6.14658 36.0903 -0.0772945 26.8865 1.05732C17.6828 2.19194 16.5323 5.86684 16.3531 8.93013C16.1722 11.9952 20.5089 26.4758 24.2729 26.0901Z" fill="#FFAE80"/>
<path opacity="0.2" d="M17.0489 58.6855C16.5132 59.596 15.9828 60.4509 15.4681 61.2345C15.3364 61.2467 15.1941 61.2362 15.0431 61.2032C11.6075 60.463 8.69004 56.0462 7.94531 54.8386C8.53196 52.2653 9.33466 49.6225 10.2322 47.0648C10.58 46.9884 10.9681 46.9519 11.4037 46.9658C15.3276 47.0822 17.5214 54.611 17.0489 58.6855Z" fill="#D1D3D4"/>
<path d="M21.6317 48.6072C22.0488 45.4579 19.8061 42.5704 16.6225 42.1578C13.4389 41.7452 10.52 43.9637 10.1029 47.1131C9.68578 50.2624 11.9285 53.1499 15.1121 53.5625C18.2956 53.9751 21.2146 51.7566 21.6317 48.6072Z" fill="#EEE2D6"/>
<path opacity="0.2" d="M35.2963 41.5059C35.2963 41.5059 23.3138 44.7776 24.4871 51.1388C25.6604 57.4999 35.2963 41.5059 35.2963 41.5059Z" fill="#D1D3D4"/>
<path d="M17.9002 42.7822C16.8832 41.0238 14.5541 40.4921 12.8715 41.6441C10.9868 42.9333 9.08634 44.796 9.08985 47.0669C9.09687 51.5706 12.8205 54.7955 17.3328 53.4316C17.3328 53.4316 19.2438 51.6106 18.406 49.5377C17.5682 47.4631 18.7028 43.8664 18.1127 43.1071C18.0459 43.0202 17.9739 42.9107 17.9002 42.7822Z" fill="#0B0754"/>
<path d="M24.4894 51.1396C24.4894 51.1396 22.4765 53.242 22.9244 54.7902C23.3723 56.3383 26.5585 54.8458 28.74 52.6877C30.9197 50.5314 30.4876 43.5205 30.1943 43.3954C29.901 43.2702 28.0567 43.3119 27.7616 44.1008C27.4665 44.8896 26.3758 50.0901 24.4894 51.1396Z" fill="#EEE2D6"/>
<path d="M56.7089 86.6041C50.1293 84.6789 43.3828 63.4183 43.3828 63.0864C43.3828 63.0864 46.5128 44.8335 52.4408 43.3427C53.3014 43.1255 54.141 43.9266 54.9279 45.4469C54.9015 45.9421 54.8453 46.446 54.7593 46.9603C52.5795 60.2403 52.8026 71.477 52.6621 73.1798C52.5093 75.0703 54.6873 80.7625 56.7089 86.6041Z" fill="#AE8E81"/>
<path d="M27.7574 44.1022C27.7574 44.1022 26.2311 42.0137 26.6456 41.654C27.0584 41.2944 27.3113 42.1527 27.5063 42.111C27.7012 42.0693 27.926 39.9669 28.6251 39.9113C29.3242 39.8557 30.833 41.8747 30.1901 43.3951C29.5455 44.9171 27.7574 44.1022 27.7574 44.1022Z" fill="#EEE2D6"/>
<path d="M15.8672 53.6131C15.8672 53.6131 25.7419 67.4561 33.6248 67.0408C41.5077 66.6255 46.2044 55.6738 44.6113 53.269C43.0182 50.8625 37.0305 50.6419 35.0633 51.5819C33.0944 52.5219 22.287 43.2486 15.8672 53.6131Z" fill="#BED2FA"/>
<path d="M15.8207 53.5229C15.8207 53.5229 20.2048 51.0191 22.8518 52.6351C25.4987 54.2527 25.2318 57.2308 27.696 58.3429C30.1603 59.4549 38.8828 56.4907 38.8828 56.4907C38.8828 56.4907 37.0842 66.247 36.8857 66.5058C36.6873 66.7682 15.3325 57.0084 15.8207 53.5229Z" fill="#93B3F4"/>
<path d="M34.8673 75.4298C26.5225 74.1023 15.0195 57.5922 15.0195 57.5922L16.2666 54.5289C16.2666 54.5289 33.0195 64.8482 33.8134 64.5545C33.8134 64.5545 33.8134 64.5545 33.8152 64.5528C33.8942 64.525 33.9873 64.4433 34.098 64.313C35.3293 62.8813 38.4733 55.5818 41.3538 48.5135C44.3503 41.1672 47.0675 34.0728 47.0675 34.0728C68.7051 28.3511 43.2104 76.7573 34.8673 75.4298Z" fill="#FFAE80"/>
<path d="M16.2937 58.3428C16.2937 58.3428 10.6432 55.1388 9.19941 53.3926C8.51089 52.5603 7.94531 49.9106 7.94531 48.9254C7.94531 47.7143 9.21171 44.4686 9.58407 44.3191C9.95819 44.1697 10.2902 46.253 10.053 47.5753C9.96346 48.0774 10.3323 48.9844 10.8259 49.2346C11.3247 49.4883 11.7814 50.3641 11.9799 50.404C13.0249 50.6143 11.7111 47.789 12.4857 47.372C13.2603 46.955 14.1157 50.5482 14.5109 50.9427C14.9061 51.3388 15.6543 52.8731 15.8229 53.5194C15.9916 54.1658 17.4002 55.4672 17.4002 55.4672L16.2937 58.3428Z" fill="#FFAE80"/>
<path d="M41.8199 77.7493C41.5969 77.0248 36.2292 78.142 35.6706 77.7493C35.1121 77.3567 38.7339 77.8049 38.5758 76.9466C38.4177 76.0883 34.2163 76.1942 33.6577 76.1386C33.0992 76.083 31.4218 76.4705 30.8053 76.7468C30.1905 77.023 28.283 76.7555 28.283 76.7555C28.283 76.7555 17.913 61.9082 15.0465 61.201C12.18 60.4938 7.31641 66.1356 7.31641 66.1356C7.31641 66.1356 16.0951 76.4236 26.718 79.4104C26.718 79.4104 32.7865 81.7492 35.0682 81.7648C37.348 81.7804 42.0447 78.4756 41.8199 77.7493Z" fill="#FFAE80"/>
<path opacity="0.2" d="M44.9208 49.3855C44.747 54.9474 35.8155 62.8445 34.0977 64.3145C35.3289 62.8828 38.4729 55.5833 41.3535 48.515C43.3752 47.1041 44.9929 47.1302 44.9208 49.3855Z" fill="#D1D3D4"/>
<path d="M43.7426 30C43.7426 30 51.7731 31.7254 54.4007 34.4915C57.0284 37.2577 56.8738 48.9827 56.8738 48.9827C56.8738 48.9827 52.6724 53.2327 40.8164 49.8358L43.7426 30Z" fill="#D2BEB6"/>
<path d="M21.2305 2.39695C21.2305 2.39695 25.3827 8.32892 29.7439 8.88319C34.1052 9.43573 35.7896 11.2619 36.9594 14.9403C38.1309 18.6186 38.5033 -2.95295 33.0618 -2.39867C27.6186 -1.84787 21.2305 2.39695 21.2305 2.39695Z" fill="#2C2A29"/>
<path d="M21.2273 2.39708C21.2273 2.39708 17.2718 5.97815 18.1114 9.29686C18.951 12.6156 17.112 20.332 17.112 20.332C17.112 20.332 8.4949 11.0952 11.7373 6.00595C14.9797 0.918429 21.2273 2.39708 21.2273 2.39708Z" fill="#2C2A29"/>
<path d="M7.28038 45.7226C7.21715 45.6844 0.885185 41.8096 0.0842487 37.471C-0.175705 36.0653 0.166801 34.7517 1.09947 33.5633C5.47476 27.9962 5.49935 21.2406 5.4976 21.1729L6.11762 21.7758C6.11762 21.8435 5.99818 28.3159 1.59479 33.9195C0.684951 35.0767 0.210712 36.0879 0.461883 37.4554C1.25228 41.7367 7.2839 45.5749 7.34713 45.6131L7.28038 45.7226Z" fill="#2C2A29"/>
</g>
<defs>
<clipPath id="clip0">
<rect width="60" height="80" fill="white"/>
</clipPath>
</defs>
</svg>
