<svg width="92" height="106" viewBox="0 0 92 106" fill="none" xmlns="http://www.w3.org/2000/svg">
<g filter="url(#filter0_d)">
<path d="M45.528 97.0369C34.9301 97.0369 4.31643 97.0369 4.31643 97.0369C4.31643 97.0369 4.31643 59.1579 4.31643 48.56C4.31643 40.4115 3.60447 13.5487 4.31643 10.1286C5.02839 6.7086 5.32368 5.75171 8.79672 2.32829C12.2698 -1.09514 30.3484 0.267825 44.5631 0.267828V21.1791C34.6326 21.4886 29.0521 20.5277 27.5389 21.913C26.0257 23.2984 26.6328 33.8238 26.6328 38.8351C26.6328 43.8464 26.6328 75.3631 26.6328 75.3631H45.528V97.0369Z" fill="#E04E39"/>
<path d="M45.528 88.8883C56.1258 88.8883 85.9609 88.8883 85.9609 88.8883C85.9609 88.8883 86.9224 59.9333 86.9224 49.3354C86.9224 41.1869 87.8673 14.1989 87.1553 10.7789C86.4433 7.35889 86.5616 6.91852 83.0885 3.49509C79.6155 0.0716709 58.7113 0.357925 44.4966 0.357928V21.112C54.4271 21.4215 62.596 20.6484 64.1092 22.0338C65.6223 23.4191 65.0682 34.2853 65.0682 39.2966C65.0682 44.3079 65.0682 67.0604 65.0682 67.0604H45.528V88.8883Z" fill="#C28E6B"/>
<circle cx="44.4967" cy="34.5504" r="6.65893" fill="#C28E6B"/>
</g>
<defs>
<filter id="filter0_d" x="0" y="0" width="91.4209" height="105.037" filterUnits="userSpaceOnUse" color-interpolation-filters="sRGB">
<feFlood flood-opacity="0" result="BackgroundImageFix"/>
<feColorMatrix in="SourceAlpha" type="matrix" values="0 0 0 0 0 0 0 0 0 0 0 0 0 0 0 0 0 0 127 0"/>
<feOffset dy="4"/>
<feGaussianBlur stdDeviation="2"/>
<feColorMatrix type="matrix" values="0 0 0 0 0.486275 0 0 0 0 0.101961 0 0 0 0 0.101961 0 0 0 0.6 0"/>
<feBlend mode="normal" in2="BackgroundImageFix" result="effect1_dropShadow"/>
<feBlend mode="normal" in="SourceGraphic" in2="effect1_dropShadow" result="shape"/>
</filter>
</defs>
</svg>
