<svg width="99" height="100" viewBox="0 0 99 100" fill="none" xmlns="http://www.w3.org/2000/svg">
<g filter="url(#filter0_d)">
<path d="M49.7379 14.332C41.0581 14.332 19.1305 14.7298 19.1305 14.7298L10.2376 47.2484C10.2376 47.2484 0.845445 76.5896 6.98299 82.8844C15.4522 93.5782 41.0581 91.905 49.7379 91.905V70.4214C46.1737 70.4214 36.211 69.9459 36.211 69.9459C36.211 69.9459 27.5667 69.799 26.281 68.5305C22.7574 65.0539 33.9603 35.3698 33.9603 35.3698C33.9603 35.3698 46.1737 35.3698 49.7379 35.3698V14.332Z" fill="#E04E39"/>
<path d="M49.5083 14.2441C58.1881 14.2441 82.0085 14.7298 82.0085 14.7298L90.9014 47.2484C90.9014 47.2484 98.3591 67.1822 92.2215 73.477C85.5347 83.5062 50.3943 81.7091 49.7572 81.7091L49.6154 62.277C53.1796 62.277 62.9926 61.6005 62.9926 61.6005C62.9926 61.6005 72.5526 61.6005 73.7882 59.7879C75.5017 57.2742 67.1787 35.3697 67.1787 35.3697C67.1787 35.3697 53.0725 35.3697 49.5083 35.3697V14.2441Z" fill="#C39367"/>
<ellipse cx="42.8026" cy="6.24272" rx="5.96215" ry="6.24272" fill="#E04E39"/>
<ellipse cx="57.1057" cy="6.24272" rx="5.96215" ry="6.24272" fill="#C39367"/>
</g>
<defs>
<filter id="filter0_d" x="0.901855" y="0" width="97.7428" height="100" filterUnits="userSpaceOnUse" color-interpolation-filters="sRGB">
<feFlood flood-opacity="0" result="BackgroundImageFix"/>
<feColorMatrix in="SourceAlpha" type="matrix" values="0 0 0 0 0 0 0 0 0 0 0 0 0 0 0 0 0 0 127 0"/>
<feOffset dy="4"/>
<feGaussianBlur stdDeviation="2"/>
<feColorMatrix type="matrix" values="0 0 0 0 0.486275 0 0 0 0 0.101961 0 0 0 0 0.101961 0 0 0 0.6 0"/>
<feBlend mode="normal" in2="BackgroundImageFix" result="effect1_dropShadow"/>
<feBlend mode="normal" in="SourceGraphic" in2="effect1_dropShadow" result="shape"/>
</filter>
</defs>
</svg>
