<svg width="67" height="80" viewBox="0 0 67 80" fill="none" xmlns="http://www.w3.org/2000/svg">
<g clip-path="url(#clip0)">
<path d="M20.4286 17.6885C20.186 17.6885 16.9014 18.2361 16.9014 18.2361L12.4622 23.8287L11.7927 24.888L17.7866 28.7122L20.4331 24.7983L22.6797 23.3395C22.6797 23.3395 21.7047 22.4867 20.3073 23.0971C18.9099 23.7031 17.508 23.6447 17.508 23.6447L18.2988 21.396L20.7341 20.9112L20.4286 17.6885Z" fill="#EB996E"/>
<path d="M20.1433 13.7702C19.7479 13.6715 19.3525 13.9273 19.2851 14.3313C18.9211 16.6249 17.8203 23.5282 17.4743 25.566C17.4159 25.8982 17.6226 26.2169 17.9506 26.3111L23.2616 27.7789C23.648 27.8866 24.0434 27.6263 24.0928 27.2268L25.5216 15.7676C25.5666 15.422 25.3419 15.0943 25.0049 15.0091L20.1433 13.7702Z" fill="#263238"/>
<path d="M23.7021 26.3606L18.3147 24.8614L19.7436 15.3279C19.8245 14.7848 20.3636 14.4302 20.8938 14.5738L25.2118 15.7184L23.7021 26.3606Z" fill="#EBEBEB"/>
<path d="M18.4174 19.3857L20.8438 21.2035C20.8438 21.2035 20.6416 21.8409 20.2731 21.8858C19.9047 21.9307 17.9501 21.392 17.9501 21.392L18.4174 19.3857Z" fill="#EB996E"/>
<path d="M18.7147 17.9402L21.2534 19.0489C21.2534 19.0489 21.4197 19.8748 20.4671 19.7626L21.3208 20.373C21.3208 20.373 21.1096 20.7411 20.0492 20.786C18.9888 20.8308 17.9599 19.3586 17.9599 19.3586L18.7147 17.9402Z" fill="#EB996E"/>
<path d="M16.1961 20.7585C16.2006 20.7944 16.5061 20.7316 16.8431 20.4219C17.0139 20.2738 17.1936 20.0808 17.4272 19.9326C17.6564 19.78 17.9395 19.7082 18.2315 19.8294C19.4087 20.4264 20.4062 20.9381 20.4332 20.8707C20.4557 20.8169 19.548 20.2334 18.3124 19.6095C18.1417 19.5421 17.9485 19.5152 17.7687 19.5511C17.589 19.5825 17.4362 19.6678 17.3104 19.7531C17.0543 19.9326 16.8836 20.1436 16.7353 20.3007C16.4387 20.6239 16.1871 20.7271 16.1961 20.7585Z" fill="#D1734A"/>
<path d="M16.6916 27.0785C16.7275 27.1234 17.3521 26.3783 17.4689 25.2338C17.5992 24.0892 17.1454 23.2319 17.096 23.2678C17.0286 23.2903 17.3566 24.1341 17.2352 25.2113C17.1274 26.2841 16.6287 27.0426 16.6916 27.0785Z" fill="#D1734A"/>
<path d="M17.0302 19.053C17.0616 19.0754 17.1964 18.8869 17.5199 18.7837C17.8434 18.667 18.3287 18.6939 18.805 18.9318C19.2858 19.1607 19.7036 19.4525 20.0451 19.5916C20.3821 19.7442 20.6202 19.7622 20.6247 19.7352C20.6337 19.7038 20.4225 19.6275 20.1215 19.448C19.8115 19.2774 19.4205 18.9677 18.9038 18.7208C18.6432 18.5996 18.3736 18.5233 18.1175 18.5099C17.8614 18.4964 17.6323 18.5503 17.457 18.6311C17.1021 18.7971 17.0032 19.0485 17.0302 19.053Z" fill="#D1734A"/>
<path d="M17.2192 34.9426L4.01373 43.4124L7.51393 53.4128C7.51393 53.4128 16.5498 50.6255 16.3835 50.3337C16.2128 50.0419 17.2192 34.9426 17.2192 34.9426Z" fill="url(#paint0_linear)"/>
<path d="M39.1391 11.1047L37.2025 33.5248L25.9605 32.6271C25.8887 31.3164 25.983 26.2444 25.983 26.2444C25.983 26.2444 21.3056 25.5173 21.2472 20.8447C21.2202 18.5781 21.5437 13.8876 21.8852 9.66389C22.2671 4.98238 26.3245 1.45891 31.0199 1.73271C35.886 2.01548 39.557 6.25712 39.1391 11.1047Z" fill="#EB996E"/>
<path d="M25.9805 26.1818C25.9805 26.1818 28.937 26.4197 32.0778 24.4492C32.0778 24.4492 30.6354 27.8111 25.9715 27.3892L25.9805 26.1818Z" fill="#D1734A"/>
<path d="M34.0611 5.98288C34.0701 5.99185 34.0791 5.99634 34.0881 6.00532C34.834 6.59331 35.3237 7.44164 35.454 8.37974C35.4585 8.41116 35.463 8.44257 35.4675 8.47399C35.6517 9.80708 35.6158 11.1626 35.8135 12.4912C36.0112 13.8198 36.4695 15.1753 37.4535 16.091C37.8579 16.468 38.5768 16.7284 38.9093 16.284C39.0396 16.1134 39.0576 15.8845 39.0755 15.6736C39.3227 12.4553 40.2033 9.60061 40.1988 6.23872C40.1988 5.32307 39.7675 4.46576 39.0216 3.93163C38.3162 3.42892 37.4535 2.90376 36.6717 3.27182C35.8854 3.64437 34.8744 5.10762 34.2633 5.72703" fill="#263238"/>
<path d="M37.5636 13.2182C37.6445 13.1823 40.7763 12.2667 40.6729 15.4625C40.5696 18.6583 37.3839 17.8953 37.3794 17.8055C37.3794 17.7112 37.5636 13.2182 37.5636 13.2182Z" fill="#EB996E"/>
<path d="M38.3947 16.625C38.4081 16.616 38.4486 16.6654 38.5429 16.7103C38.6328 16.7552 38.7901 16.7911 38.9608 16.7327C39.3023 16.6205 39.6033 16.0909 39.6393 15.5164C39.6573 15.2246 39.6033 14.9463 39.509 14.7129C39.4191 14.475 39.2708 14.3089 39.1046 14.273C38.9383 14.2282 38.8125 14.3269 38.7721 14.4167C38.7272 14.5064 38.7451 14.5693 38.7272 14.5738C38.7182 14.5827 38.6598 14.5199 38.6912 14.3853C38.7047 14.3224 38.7451 14.2461 38.8215 14.1878C38.9024 14.1294 39.0147 14.098 39.1315 14.1159C39.3787 14.1429 39.5943 14.3763 39.6977 14.6276C39.8145 14.8835 39.8819 15.1977 39.8639 15.5253C39.8235 16.1672 39.473 16.7597 39.0057 16.8764C38.7811 16.9257 38.5924 16.8539 38.498 16.7776C38.3992 16.7013 38.3857 16.6295 38.3947 16.625Z" fill="#D1734A"/>
<path d="M36.7814 3.77007C37.5678 2.49085 35.411 0.65954 33.8339 0.161316C32.2568 -0.336908 30.1764 0.430626 28.6083 0.951292C27.6153 1.27895 26.6313 1.73678 25.5889 1.69638C24.888 1.66945 24.223 1.41361 23.5625 1.18021C22.902 0.946804 22.2145 0.731356 21.5181 0.776241C20.8216 0.825614 20.1027 1.19367 19.8376 1.84002C19.5725 2.48636 19.9544 3.37508 20.6464 3.46934C19.7612 2.98458 18.4807 3.62195 18.3369 4.6184C18.1931 5.61485 19.24 6.58885 20.2285 6.3734C19.7747 6.02779 19.0783 6.59783 19.1322 7.16338C19.1861 7.72893 19.7028 8.14187 20.224 8.37079C21.5585 8.95429 23.1131 8.77026 24.4926 8.30346C25.872 7.84114 27.1525 7.1185 28.5185 6.62027C29.8844 6.12205 32.1759 5.22884 33.5508 5.71359C34.5618 6.06819 35.2672 7.28457 35.8379 7.01975C36.3905 6.75942 36.741 6.18489 36.8488 5.58343C36.9567 4.99094 36.8668 4.37153 36.7814 3.77007Z" fill="#263238"/>
<path d="M20.2504 3.3843C20.2774 3.36635 20.4166 3.62219 20.7581 3.99474C21.1041 4.36279 21.6837 4.84306 22.5329 5.13931C23.3687 5.43106 24.5099 5.52532 25.5838 5.01812C26.6712 4.53336 27.6013 3.55935 28.6751 2.63921C29.7445 1.71458 31.0071 1.02784 32.2697 0.915624C33.5278 0.794434 34.687 1.25675 35.3251 1.97491C35.9721 2.69307 36.0979 3.51896 36.053 4.03064C36.0305 4.29547 35.9631 4.48847 35.9137 4.61864C35.8553 4.74432 35.8193 4.80716 35.8103 4.80267C35.7789 4.79369 35.9137 4.52887 35.9272 4.02616C35.9361 3.53691 35.7789 2.76938 35.1633 2.11854C34.5567 1.47669 33.4694 1.07272 32.2966 1.1984C31.1194 1.31959 29.9242 1.97042 28.8773 2.87261C27.8259 3.77031 26.8689 4.77125 25.7051 5.27396C24.5459 5.8036 23.3282 5.67793 22.461 5.34129C21.5759 5.00465 20.9918 4.47052 20.6683 4.07104C20.5065 3.86457 20.3942 3.6985 20.3358 3.57282C20.2729 3.45612 20.2414 3.38879 20.2504 3.3843Z" fill="#455A64"/>
<path d="M38.3773 13.0795C38.3638 13.0884 38.238 12.9897 38.1167 12.7383C37.9954 12.487 37.901 12.0785 37.9595 11.5803C38.0313 10.5524 38.939 9.44826 39.0558 8.0254C39.1277 7.3252 39.0019 6.63846 38.7008 6.11779C38.4043 5.60161 37.9325 5.26049 37.5146 5.09441C37.0878 4.91936 36.7014 4.91487 36.4452 4.95078C36.1891 4.99118 36.0498 5.04953 36.0364 5.02708C36.0274 5.01362 36.1487 4.91487 36.4183 4.82959C36.6834 4.75329 37.1102 4.71738 37.5865 4.88345C38.0583 5.04504 38.593 5.39065 38.948 5.96967C39.3029 6.5442 39.4422 7.29827 39.3658 8.05233C39.3029 8.81089 39.0243 9.49763 38.7503 10.0632C38.4762 10.6377 38.247 11.1494 38.1751 11.6072C38.0134 12.5498 38.4267 13.066 38.3773 13.0795Z" fill="#455A64"/>
<path d="M41.5141 180.114L28.066 97.4226V79.5853L47.544 80.9767C47.7776 81.6724 52.6842 180.222 52.6842 180.222L50.7881 180.114H41.5141Z" fill="#263238"/>
<path d="M17.4907 78.3281L9.86572 129.852L26.9084 125.722L33.8594 80.0023L17.4907 78.3281Z" fill="#263238"/>
<path d="M14.5514 100.52C14.5514 100.52 11.5904 97.9792 11.2938 96.0581C10.9973 94.1371 14.8524 63.2831 14.8524 63.2831L16.8159 37.7794C16.8159 38.2283 16.762 34.5656 17.3551 34.3457C19.1704 33.6679 22.8458 32.4381 22.8458 32.4381L24.9531 30.5439C24.9531 30.5439 21.1609 46.7385 20.424 51.1641L14.5514 100.52Z" fill="url(#paint1_linear)"/>
<path d="M38.9027 28.7981L42.0928 30.9167L54.0582 35.6206L48.7473 55.6438L49.4572 67.2556L50.1401 74.6392C50.1401 74.6392 53.6988 92.9208 56.844 104.03C56.844 104.03 53.3348 110.673 50.4502 111.602L49.2505 112.316L44.973 81.0263L41.302 76.0755C40.9516 75.5997 40.6191 75.115 40.309 74.6077C39.4059 73.14 37.3525 69.805 35.7125 67.2331C33.5468 63.8353 30.7655 56.1151 31.5922 52.8206C32.4145 49.517 38.9027 28.7981 38.9027 28.7981Z" fill="url(#paint2_linear)"/>
<path d="M38.9025 28.7982L36.0224 47.2549C36.0583 49.1267 36.4178 51.7255 37.1906 54.2166L42.3308 70.8106C42.3308 70.8106 46.3702 79.8639 44.9773 81.0175C43.5844 82.1755 32.7109 81.0175 32.7109 81.0175L18.0002 78.8854C17.3172 78.7867 16.832 78.1718 16.8994 77.485L19.0831 54.9438C19.8199 53.3862 20.121 50.2039 20.4265 49.0683L24.9557 30.5443L25.8813 30.4231L27.8942 31.8055L28.9546 31.8908L37.8601 27.5908L38.9025 28.7982Z" fill="#EBEBEB"/>
<path d="M41.5825 68.4092C39.2056 61.0077 36.1278 48.9785 36.1278 48.9785C35.1708 55.2714 36.2177 61.7034 38.5586 67.6238C40.4682 72.4579 42.7867 76.1115 44.3773 81.0578L44.4267 81.2643C44.4267 81.2643 45.3254 81.3092 45.2625 79.9896C45.1996 78.6655 43.928 74.7291 43.0563 72.5432C42.1846 70.3528 41.5825 68.4092 41.5825 68.4092Z" fill="#E0E0E0"/>
<path d="M27.3834 33.3809H29.3829L29.9805 36.1144L28.2326 38.2284L26.4713 38.0534L25.8962 36.0919L26.3679 34.9967L27.3834 33.3809Z" fill="url(#paint3_linear)"/>
<path d="M15.723 49.3417C15.0895 49.4674 8.14303 54.1354 5.61786 53.6327C3.09268 53.13 1.04828 50.7511 0.778688 50.4324C-0.65464 48.7358 0.243998 45.2123 0.65737 43.8837C0.760714 43.556 0.89551 43.2463 1.07074 42.9546L11.796 24.5427L18.1179 28.3804L11.5579 40.3423L15.723 49.3417Z" fill="url(#paint4_linear)"/>
<path d="M67.4526 71.5913C68.3242 69.4099 68.1265 66.9413 67.0616 64.8451C65.6059 61.968 63.3008 57.3179 62.8156 55.7963C62.0922 53.5296 55.3749 36.1367 54.0539 35.6205L48.1992 55.316L54.9839 69.594L47.031 84.5586L53.6764 91.6953C53.6764 91.6953 66.2169 74.2261 67.2504 72.0626C67.3223 71.91 67.3897 71.7529 67.4526 71.5913Z" fill="url(#paint5_linear)"/>
<path d="M15.7663 49.8898C15.7843 49.8943 15.8382 49.6968 15.9325 49.3377C16.0269 48.9786 16.1437 48.4535 16.274 47.8026C16.5346 46.501 16.8267 44.6831 17.0064 42.6633C17.1861 40.6435 17.2221 38.8032 17.1951 37.4746C17.1816 36.8103 17.1592 36.2717 17.1322 35.9036C17.1053 35.5311 17.0828 35.3291 17.0693 35.3291C17.0513 35.3291 17.0424 35.5356 17.0424 35.9081C17.0379 36.3255 17.0334 36.8507 17.0289 37.4791C17.0109 38.8032 16.948 40.6345 16.7728 42.6454C16.593 44.6562 16.3279 46.4696 16.1123 47.7757C16.0044 48.3906 15.9146 48.9113 15.8472 49.3242C15.7798 49.6833 15.7528 49.8898 15.7663 49.8898Z" fill="#263238"/>
<path d="M10.2502 50.9577C10.2547 50.9667 10.3041 50.9532 10.3985 50.9218C10.4929 50.8904 10.6321 50.8276 10.7984 50.7333C11.1309 50.5403 11.5712 50.1677 11.9397 49.5753C12.3261 48.9918 12.5462 48.1838 12.7574 47.3131C12.9641 46.4333 13.1663 45.4638 13.2966 44.427C13.4853 42.3533 13.6426 40.4905 13.7459 39.1305C13.7909 38.4887 13.8268 37.95 13.8538 37.5236C13.8762 37.1421 13.8762 36.9312 13.8627 36.9312C13.8448 36.9312 13.8133 37.1376 13.7639 37.5147C13.7145 37.9366 13.6561 38.4752 13.5797 39.1126C13.4359 40.4636 13.2517 42.3398 13.063 44.3955C12.9372 45.4144 12.7395 46.3839 12.5462 47.2592C12.3485 48.1345 12.1508 48.9155 11.8004 49.4855C11.4634 50.0645 11.059 50.4371 10.7535 50.6525C10.4434 50.8635 10.2412 50.9353 10.2502 50.9577Z" fill="#263238"/>
<g opacity="0.3">
<g opacity="0.3">
<path opacity="0.3" d="M13.89 36.9668C14.4382 39.036 14.8156 41.1456 15.0223 43.2731C15.1481 44.5479 15.2065 45.8585 14.8201 47.0839C14.4382 48.3048 13.5305 49.4314 12.2904 49.759C12.8566 45.5937 13.3553 41.4239 13.7866 37.2451" fill="black"/>
</g>
</g>
<g opacity="0.3">
<g opacity="0.3">
<path opacity="0.3" d="M50.6797 77.3236C50.6797 77.3236 48.5769 81.6281 47.4131 83.8813C44.9868 73.8675 48.0647 63.3285 47.0627 53.0723L48.815 56.6047L49.3093 64.7783L49.6867 69.572C49.6867 69.5765 50.0461 74.7338 50.6797 77.3236Z" fill="black"/>
</g>
</g>
<path d="M48.9802 35.8C48.9667 35.7911 48.8409 35.993 48.6253 36.3611C48.5129 36.5451 48.3871 36.7695 48.2523 37.0433C48.1175 37.3127 47.9513 37.6179 47.803 37.9725C47.484 38.6682 47.156 39.521 46.8549 40.486C46.5674 41.4555 46.3068 42.5418 46.1315 43.6953C45.9653 44.8533 45.9024 45.9665 45.8979 46.9764C45.9069 47.9863 45.9743 48.8975 46.0821 49.656C46.1226 50.0376 46.1945 50.3742 46.2439 50.6749C46.2933 50.9757 46.3517 51.227 46.4056 51.438C46.509 51.8509 46.5719 52.0798 46.5854 52.0753C46.5988 52.0708 46.5674 51.8374 46.4955 51.42C46.4551 51.2091 46.4101 50.9532 46.3742 50.657C46.3337 50.3562 46.2753 50.0196 46.2484 49.6426C46.163 48.8885 46.1181 47.9863 46.1181 46.9854C46.1315 45.9844 46.2034 44.8803 46.3652 43.7357C46.5404 42.5911 46.7876 41.5184 47.0616 40.5534C47.3492 39.5928 47.6547 38.74 47.9513 38.0443C48.0861 37.6897 48.2433 37.3845 48.3647 37.1062C48.486 36.8279 48.6028 36.599 48.7017 36.4105C48.8949 36.0245 48.9937 35.809 48.9802 35.8Z" fill="#263238"/>
<path d="M55.0636 69.7106C55.095 69.7286 55.3916 69.2349 55.9802 68.5212C56.5643 67.812 57.4585 66.8649 58.6357 66.1153C59.2243 65.7518 59.8803 65.5767 60.4689 65.6755C61.053 65.7652 61.5428 66.039 61.9202 66.2904C62.6796 66.8155 63.0929 67.2195 63.1244 67.1881C63.1334 67.1746 63.0435 67.0669 62.8548 66.8829C62.6706 66.6988 62.3965 66.434 62.0146 66.1557C61.6371 65.8774 61.1384 65.5722 60.5004 65.4645C59.8623 65.3388 59.1299 65.5363 58.5144 65.9178C57.2877 66.6988 56.4116 67.6729 55.8454 68.4224C55.5623 68.7995 55.3646 69.1181 55.2343 69.3471C55.1085 69.567 55.0501 69.7017 55.0636 69.7106Z" fill="#263238"/>
<path d="M56.5342 64.9885C56.4848 64.9571 55.9007 65.8862 55.4873 67.1654C55.0694 68.4447 54.993 69.5399 55.0515 69.5443C55.1189 69.5533 55.2986 68.494 55.7075 67.2372C56.1119 65.985 56.5926 65.0244 56.5342 64.9885Z" fill="#263238"/>
<path d="M50.8205 77.0491C50.807 77.0401 50.6857 77.2466 50.4835 77.6236C50.2633 78.0366 49.9757 78.5797 49.6298 79.235C48.9154 80.604 47.9403 82.5116 46.8575 84.6526L46.8215 84.7244L46.8799 84.7828C47.0237 84.9309 47.172 85.088 47.3293 85.2496C49.0951 87.0854 50.6991 88.7417 51.8719 89.9311C52.438 90.5011 52.9098 90.9724 53.2693 91.3315C53.6018 91.6592 53.7905 91.8342 53.8039 91.8208C53.8174 91.8118 53.6467 91.6143 53.3367 91.2687C52.9907 90.8961 52.5414 90.4069 51.9932 89.8189C50.8519 88.6025 49.2658 86.9283 47.5 85.0925C47.3472 84.9309 47.1945 84.7738 47.0507 84.6257L47.0686 84.7604C48.147 82.6193 49.0996 80.6983 49.778 79.3113C50.0971 78.6425 50.3622 78.0904 50.5688 77.6685C50.7396 77.2735 50.8339 77.0536 50.8205 77.0491Z" fill="#263238"/>
<path d="M42.0655 68.0139C42.0745 68.0139 42.079 67.8792 42.079 67.6279C42.0745 67.3541 42.07 66.986 42.0655 66.5192C42.043 65.5317 42.0116 64.1448 41.9711 62.4392C41.9217 60.7156 41.8813 58.6688 41.7869 56.3887C41.6791 54.1175 41.4949 51.5905 40.7804 49.041C40.4255 47.7797 39.9582 46.5768 39.3606 45.4906L39.2752 45.6567C39.8504 45.5714 40.3491 45.2482 40.7086 44.8442C41.0725 44.4403 41.3196 43.9465 41.4589 43.4483C41.7375 42.4429 41.6836 41.4554 41.6926 40.5398C41.6926 38.7085 41.6881 37.0791 41.6881 35.7101C41.6791 34.3681 41.6746 33.2819 41.6701 32.5098C41.6656 32.1508 41.6566 31.868 41.6566 31.648C41.6521 31.4506 41.6431 31.3518 41.6386 31.3518C41.6297 31.3518 41.6252 31.455 41.6162 31.648C41.6117 31.8635 41.6027 32.1508 41.5937 32.5098C41.5802 33.2819 41.5668 34.3636 41.5443 35.7101C41.5308 37.0791 41.5128 38.7085 41.4949 40.5398C41.4814 41.4554 41.5218 42.4339 41.2522 43.3855C41.1174 43.8613 40.8838 44.3146 40.5468 44.6916C40.2098 45.0687 39.756 45.3559 39.2438 45.4277L39.082 45.4502L39.1584 45.5938C39.7425 46.6666 40.2053 47.8515 40.5513 49.0949C41.2567 51.6174 41.4454 54.1265 41.5668 56.3932C41.6746 58.6643 41.7285 60.7156 41.8004 62.4392C41.8723 64.1448 41.9262 65.5318 41.9666 66.5147C41.9891 66.9815 42.0116 67.3496 42.0251 67.6234C42.0475 67.8792 42.0565 68.0139 42.0655 68.0139Z" fill="#263238"/>
<path d="M22.8066 32.7258C22.7977 32.7213 22.7662 32.8065 22.7033 32.9726C22.6359 33.1566 22.5505 33.399 22.4427 33.6953C22.218 34.3506 21.9035 35.2662 21.5171 36.3884C21.1262 37.5419 20.6679 38.9109 20.1512 40.4415C19.904 41.218 19.5985 42.0035 19.3693 42.8832C19.266 43.3231 19.2076 43.8034 19.3109 44.2792C19.4098 44.746 19.6614 45.2262 20.1107 45.5L20.0748 45.3384C19.6929 45.8995 19.2975 46.4965 18.92 47.1204C18.3674 48.0495 17.9046 49.0235 17.6619 50.0289C17.4148 51.0344 17.4148 52.0398 17.4597 52.9734C17.5676 54.8406 17.6934 56.5148 17.7877 57.9242C17.8911 59.3111 17.9765 60.4422 18.0349 61.2592C18.0663 61.6317 18.0933 61.9324 18.1157 62.1658C18.1382 62.3723 18.1517 62.48 18.1607 62.48C18.1697 62.48 18.1697 62.3723 18.1652 62.1614C18.1562 61.9324 18.1427 61.6272 18.1292 61.2547C18.0888 60.4378 18.0304 59.3067 17.9585 57.9152C17.8776 56.4969 17.7832 54.8226 17.6799 52.9689C17.644 52.0443 17.6485 51.0613 17.8911 50.0918C18.1292 49.1178 18.583 48.1707 19.1267 47.2505C19.4952 46.6311 19.8906 46.0386 20.2725 45.4776L20.3399 45.3788L20.2365 45.316C19.8591 45.0871 19.63 44.6697 19.5401 44.2432C19.4457 43.8124 19.4952 43.368 19.5895 42.9461C19.8052 42.1022 20.1107 41.2898 20.3534 40.5178C20.8521 38.9827 21.2969 37.6048 21.6699 36.4467C22.0293 35.3156 22.3214 34.3955 22.5281 33.7312C22.6179 33.4304 22.6943 33.1836 22.7482 32.9951C22.7932 32.8155 22.8156 32.7258 22.8066 32.7258Z" fill="#263238"/>
<path d="M38.5787 31.7785C38.5698 31.765 38.39 31.8817 38.08 32.0971C37.7295 32.3395 37.2847 32.6447 36.759 33.0128C35.6402 33.7803 34.0721 34.8037 32.2748 35.8316C31.6008 36.2176 30.9448 36.5767 30.3337 36.8998L30.4955 36.9716C30.1181 35.486 29.7856 34.2067 29.5429 33.3001C29.4261 32.8826 29.3273 32.528 29.2464 32.2408C29.1745 31.9939 29.1296 31.8637 29.1161 31.8682C29.1026 31.8727 29.1251 32.0074 29.1745 32.2587C29.2374 32.5505 29.3138 32.9051 29.4081 33.3315C29.6148 34.2471 29.9204 35.5308 30.2798 37.0255L30.3113 37.1646L30.4371 37.0973C31.0526 36.7786 31.7131 36.424 32.3916 36.0335C34.1979 35.0057 35.757 33.9509 36.8578 33.1474C37.406 32.748 37.8419 32.4068 38.1384 32.169C38.4305 31.9311 38.5877 31.7919 38.5787 31.7785Z" fill="#263238"/>
<path d="M23.7362 35.0817C23.7092 35.1221 24.536 35.6787 25.7222 36.4237L25.821 36.4866L25.8749 36.3789C26.0681 36.0063 26.2703 35.6113 26.4815 35.1984C26.9443 34.2827 27.3577 33.4479 27.6408 32.8374C27.9283 32.227 28.0901 31.8455 28.0586 31.8275C28.0317 31.8141 27.816 32.1686 27.4925 32.7611C27.169 33.3536 26.7376 34.175 26.2703 35.0907C26.0636 35.5081 25.8615 35.9031 25.6772 36.2756L25.83 36.2307C24.6303 35.5216 23.7586 35.0413 23.7362 35.0817Z" fill="#263238"/>
<path d="M26.6779 34.6467C26.6689 34.6557 26.8217 34.7769 27.0733 34.9564C27.3249 35.136 27.6754 35.3828 28.0618 35.6521C28.4527 35.917 28.8077 36.1549 29.0683 36.3254C29.3289 36.4915 29.4906 36.5902 29.4996 36.5813C29.5086 36.5723 29.3558 36.4511 29.1042 36.2716C28.8526 36.092 28.5021 35.8452 28.1157 35.5803C27.7248 35.3155 27.3698 35.0776 27.1092 34.9115C26.8486 34.732 26.6824 34.6333 26.6779 34.6467Z" fill="#263238"/>
<path d="M28.0259 35.5713C28.0439 35.5892 28.4348 35.2212 28.8976 34.7454C29.3649 34.2696 29.7244 33.8701 29.7064 33.8522C29.6884 33.8342 29.2975 34.2068 28.8347 34.6781C28.3674 35.1539 28.008 35.5533 28.0259 35.5713Z" fill="#263238"/>
<path d="M36.4897 75.3934C36.4133 75.3799 36.4358 76.9599 35.5596 78.6296C34.7104 80.3128 33.4073 81.2105 33.4658 81.2644C33.4792 81.2868 33.8207 81.0983 34.288 80.6764C34.7553 80.2589 35.3259 79.5902 35.7663 78.7328C36.2066 77.8755 36.4178 77.0227 36.4852 76.3988C36.5571 75.7794 36.5121 75.3889 36.4897 75.3934Z" fill="#263238"/>
<path d="M33.877 81.3043C33.8815 81.3627 34.897 81.2594 36.0158 80.7298C37.1435 80.2046 37.867 79.491 37.8265 79.4506C37.7816 79.3967 37.0088 80.0116 35.9169 80.5188C34.8296 81.035 33.8635 81.2325 33.877 81.3043Z" fill="#263238"/>
<path d="M25.0949 66.9369C25.0814 66.9324 25.023 67.103 24.9287 67.4172C24.8343 67.7314 24.713 68.1892 24.5782 68.7548C24.3041 69.8903 23.9761 71.4748 23.711 73.2388C23.4504 75.0072 23.3021 76.6141 23.2347 77.7811C23.2033 78.3646 23.1853 78.8359 23.1808 79.1636C23.1763 79.4912 23.1853 79.6708 23.1988 79.6708C23.2168 79.6708 23.2392 79.4913 23.2707 79.1681C23.3066 78.791 23.3471 78.3332 23.3965 77.7901C23.5043 76.6276 23.6751 75.0252 23.9357 73.2657C24.1963 71.5062 24.4973 69.9263 24.731 68.7817C24.8388 68.2476 24.9332 67.7987 25.0095 67.4262C25.0814 67.1209 25.1084 66.9414 25.0949 66.9369Z" fill="#263238"/>
<path d="M28.0857 38.6904C28.6698 43.354 29.1012 53.5115 29.2629 58.2109C29.3977 62.1429 29.3843 66.0793 29.3708 70.0157C29.3663 71.2815 29.3528 72.5966 28.8316 73.7501C27.8925 75.8283 25.5965 76.8696 23.4847 77.7359L28.0857 38.6904Z" fill="#E0E0E0"/>
<path d="M22.8349 77.0638L20.422 71.1569L26.4699 38.0542L28.2312 38.2293C28.2312 38.2293 27.9841 72.6291 28.065 72.9388L22.8349 77.0638Z" fill="url(#paint6_linear)"/>
<path d="M26.5345 38.0576C26.53 38.0846 26.903 38.1609 27.3703 38.1923C27.8376 38.2282 28.2195 38.2057 28.2195 38.1788C28.2195 38.1519 27.8421 38.1339 27.3793 38.098C26.9165 38.0666 26.539 38.0307 26.5345 38.0576Z" fill="#263238"/>
</g>
<defs>
<linearGradient id="paint0_linear" x1="33.0386" y1="31.5542" x2="31.9774" y2="53.6655" gradientUnits="userSpaceOnUse">
<stop offset="0.015625" stop-color="#EEE2D6"/>
<stop offset="1" stop-color="#F17757"/>
</linearGradient>
<linearGradient id="paint1_linear" x1="41.3356" y1="17.7066" x2="27.0347" y2="99.1593" gradientUnits="userSpaceOnUse">
<stop offset="0.015625" stop-color="#EEE2D6"/>
<stop offset="1" stop-color="#F17757"/>
</linearGradient>
<linearGradient id="paint2_linear" x1="87.2726" y1="13.4764" x2="76.1088" y2="112.429" gradientUnits="userSpaceOnUse">
<stop offset="0.015625" stop-color="#EEE2D6"/>
<stop offset="1" stop-color="#F17757"/>
</linearGradient>
<linearGradient id="paint3_linear" x1="26.83" y1="37.912" x2="26.8936" y2="33.2635" gradientUnits="userSpaceOnUse">
<stop offset="0.00505051" stop-color="#C39367"/>
<stop offset="1" stop-color="#704232"/>
</linearGradient>
<linearGradient id="paint4_linear" x1="39.8249" y1="19.1991" x2="37.9031" y2="54.0434" gradientUnits="userSpaceOnUse">
<stop offset="0.015625" stop-color="#EEE2D6"/>
<stop offset="1" stop-color="#F17757"/>
</linearGradient>
<linearGradient id="paint5_linear" x1="93.1195" y1="25.3333" x2="86.9972" y2="92.0555" gradientUnits="userSpaceOnUse">
<stop offset="0.015625" stop-color="#EEE2D6"/>
<stop offset="1" stop-color="#F17757"/>
</linearGradient>
<linearGradient id="paint6_linear" x1="22.2075" y1="74.517" x2="24.3547" y2="37.2268" gradientUnits="userSpaceOnUse">
<stop offset="0.00505051" stop-color="#C39367"/>
<stop offset="1" stop-color="#704232"/>
</linearGradient>
<clipPath id="clip0">
<rect width="67" height="80" rx="8" transform="matrix(-1 0 0 1 67 0)" fill="white"/>
</clipPath>
</defs>
</svg>
