<svg width="114" height="102" viewBox="0 0 114 102" fill="none" xmlns="http://www.w3.org/2000/svg">
<g filter="url(#filter0_d)">
<path d="M56.7061 93.5C47.0228 93.5 20.8756 93.5 20.8756 93.5C20.8756 93.5 12.6659 58.3805 10.8415 48.8024C9.01707 39.2244 4 12.7707 4 12.7707C28.1637 25.2571 43.1729 27.3229 56.4512 0V24.1732V34.2073C48.9399 38.6366 39.8187 42.4728 29.0854 41.0488L35.9268 73.6821H56.7061V93.5Z" fill="#E04E39"/>
<path d="M56.4511 87.5707C66.1344 87.5707 92.2816 87.5707 92.2816 87.5707C92.2816 87.5707 100.237 52.9073 102.316 42.8732C104.395 32.839 109.359 12.7707 109.359 12.7707C89.4623 25.135 72.7666 27.178 56.4512 0V18.2439L56.4511 33.7512C63.9625 38.1805 72.6276 42.0167 83.361 40.5927L77.8878 66.5902H56.4511V87.5707Z" fill="#C39367"/>
</g>
<defs>
<filter id="filter0_d" x="0" y="0" width="113.359" height="101.5" filterUnits="userSpaceOnUse" color-interpolation-filters="sRGB">
<feFlood flood-opacity="0" result="BackgroundImageFix"/>
<feColorMatrix in="SourceAlpha" type="matrix" values="0 0 0 0 0 0 0 0 0 0 0 0 0 0 0 0 0 0 127 0"/>
<feOffset dy="4"/>
<feGaussianBlur stdDeviation="2"/>
<feColorMatrix type="matrix" values="0 0 0 0 0.486275 0 0 0 0 0.101961 0 0 0 0 0.101961 0 0 0 0.6 0"/>
<feBlend mode="normal" in2="BackgroundImageFix" result="effect1_dropShadow"/>
<feBlend mode="normal" in="SourceGraphic" in2="effect1_dropShadow" result="shape"/>
</filter>
</defs>
</svg>
