<svg width="1195" height="301" viewBox="0 0 1195 301" fill="none" xmlns="http://www.w3.org/2000/svg">
<mask id="mask0" mask-type="alpha" maskUnits="userSpaceOnUse" x="0" y="0" width="1195" height="301">
<rect width="1195" height="301" rx="9" fill="#C4C4C4"/>
</mask>
<g mask="url(#mask0)">
<path opacity="0.2" d="M303.783 -190.467C303.847 -190.486 303.831 -190.48 303.895 -190.497C481.908 -237.002 686.365 -113.96 630.979 13.1317C588.053 111.725 449.738 32.5086 381.441 116.572C276.484 245.925 59.2453 332.908 -11.6376 234.892C-82.5206 136.876 -49.2597 -62.3114 19.8022 -95.7449C88.5304 -129.017 301.724 -189.88 303.783 -190.467Z" fill="#E3CCB7"/>
<path d="M248.027 60.9264C248.617 62.0342 248.934 63.2672 248.989 64.521C250.448 97.6149 249.807 115.789 236.333 129.806C226.838 139.685 205.488 141.04 193.221 140.937C188.191 140.894 183.684 144.658 182.384 149.516C178.471 164.135 165.882 191.656 126.435 193.237C72.622 195.396 64.8479 130.311 107.05 113.638C147.183 97.7461 159.955 93.1529 173.837 53.7899C186.508 17.8717 226.086 24.7154 235.526 39.7349C242.439 50.7005 246.401 57.8726 248.027 60.9264Z" fill="#303C60"/>
<path d="M232.036 246.268C231.633 242.008 235.401 238.534 239.618 239.263C247.142 240.564 257.129 242.232 257.939 242.062C259.252 241.832 287.016 230.625 289.894 232.279C292.771 233.932 309.531 240.363 313.216 241.832C316.901 243.256 311.096 243.762 308.219 243.762C305.341 243.762 288.834 237.561 287.016 238.755C285.199 239.949 301.404 242.338 301.404 243.302C301.404 244.267 257.939 253.315 255.314 253.315C253.571 253.315 244.108 252.586 237.943 252.097C234.818 251.848 232.332 249.389 232.036 246.268Z" fill="#F8B79E"/>
<path d="M222.963 129.018C218.049 122.688 223.028 116.786 227.694 123.3C231.071 128.012 233.34 133.507 234.515 138.67C235.824 144.556 229.498 137.438 222.963 129.018Z" fill="#AE8E81"/>
<path d="M189.073 100.594C187.562 101.587 186.399 103.112 184.853 104.051C178.075 108.167 158.305 120.12 146.729 126.591C132.594 134.445 151.827 219.188 156.572 250.651C160.392 276.245 215.221 262.083 235.543 255.91C239.862 254.597 242.421 250.192 241.948 245.703C240.812 234.909 239.808 213.424 244.612 184.51C249.66 154.012 231.134 134.95 220.532 121.722C201.257 97.7556 192.488 98.349 189.073 100.594Z" fill="#D2BEB6"/>
<path d="M158.063 145.148C159.364 137.76 168.65 135.082 173.728 140.603C194.222 162.882 200.613 170.33 194.282 189.516C188.376 207.384 186.407 213.814 185.246 219.923C184.407 224.302 214.097 220.294 230.648 217.73C236.246 216.863 241.323 221.24 241.207 226.904L241.146 229.865C241.074 233.379 238.981 236.521 235.74 237.881C223.169 243.156 191.251 256.115 173.837 259.24C161.525 261.45 151.803 260.957 145.626 260.094C141.233 259.48 138.664 255.283 139.433 250.915L158.063 145.148Z" fill="#AE8E81"/>
<path d="M540.181 261.583H182.166C179.592 261.583 177.472 259.654 177.472 257.311C177.472 254.969 179.592 253.04 182.166 253.04H540.181C542.755 253.04 544.875 254.969 544.875 257.311C544.825 259.654 542.755 261.583 540.181 261.583Z" fill="#2E5B9A"/>
<path d="M205.829 73.108C201.049 70.7801 195.303 73.0818 193.452 78.0661L184.494 102.185C183.712 104.293 183.739 106.611 184.671 108.658C188.664 117.43 200.519 140.795 210.79 134.077C214.193 131.855 211.214 117.415 209.835 111.532C209.452 109.896 209.487 108.194 209.982 106.588L216.142 86.6027C217.449 82.3627 215.47 77.8028 211.481 75.8603L205.829 73.108Z" fill="#FCD9C9"/>
<path d="M153.392 125.534C134.562 127.417 132.947 150.566 124.315 189.195C115.682 227.823 118.257 253.315 122.346 258.183C132.19 269.988 242.593 228.879 256.324 229.201C261.729 229.331 261.485 224.679 260.273 220.649C259.195 217.065 255.436 215.257 251.729 215.773L167.015 227.566C160.399 228.487 155.048 222.123 156.928 215.713C161.343 200.657 167.577 176.779 167.577 162.003C167.577 139.084 160.459 124.799 153.392 125.534Z" fill="#FCD9C9"/>
<path d="M250.255 216.408C250.927 215.879 251.707 215.51 252.538 215.312C263.474 212.705 278.502 207.477 281.514 209.864C284.644 212.344 297.617 230.257 301.959 235.264C306.3 240.27 299.99 236.32 295.295 232.416C294.059 231.376 292.875 230.463 291.802 229.683C288.811 227.508 284.819 227.943 281.812 230.095C279.851 231.498 277.518 233.036 275.254 234.207C269.752 237.055 267.783 231.36 258.343 229.936C257.723 229.842 257.042 229.787 256.311 229.766C249.916 229.58 245.224 220.361 250.255 216.408Z" fill="#FCD9C9"/>
<path d="M161.971 125.699C158.517 123.018 152.209 122.572 148.146 124.189C140.263 127.326 134.361 134.988 131.938 145.514C129.357 156.723 122.659 188.006 120.387 198.645C119.892 200.961 120.504 203.113 122.789 203.737C125.233 204.404 129.504 205.315 136.935 206.511C148.869 208.43 159.467 207.776 165.753 207.013C169.407 206.569 172.147 203.674 172.624 200.024C173.716 191.672 175.379 176.284 174.645 164.575C173.585 147.673 169.395 131.689 162.58 126.177C162.371 126.011 162.168 125.851 161.971 125.699Z" fill="#D2BEB6"/>
<path d="M209.825 111.566C209.447 109.943 209.484 108.248 209.975 106.655L216.141 86.6491C217.448 82.4091 215.47 77.8492 211.481 75.9067L204.249 72.385C200.315 70.469 195.585 72.3619 194.059 76.4635C193.772 77.2347 193.614 78.0625 193.601 78.8852C193.157 107.49 201.328 117.181 206.852 120.758C207.462 121.154 208.042 121.31 208.592 121.266C210.914 121.081 211.178 117.865 210.708 115.583C210.389 114.036 210.079 112.654 209.825 111.566Z" fill="#F8B79E"/>
<path d="M252.841 72.2543C252.841 88.1924 250.771 107.759 235.526 107.3C211.951 106.565 197.109 89.8918 197.109 73.9537C197.109 58.0156 209.427 45.063 224.622 45.063C239.867 45.063 252.841 56.3161 252.841 72.2543Z" fill="#FCD9C9"/>
<path d="M431.254 248.06C429.731 251.111 426.613 253.039 423.203 253.039H354.932C348.243 253.039 343.891 246 346.881 240.017L376.722 180.284C377.782 178.171 380.104 176.793 382.678 176.793H462.893C464.761 176.793 465.973 178.538 465.216 180.054L431.254 248.06Z" fill="#9BD6E8"/>
<path d="M428.618 248.354C428.618 250.942 426.52 253.039 423.933 253.039H274.562C269.592 253.039 265.623 248.249 269.754 245.485C271.46 244.343 273.571 243.669 275.861 243.669H423.933C426.52 243.669 428.618 245.767 428.618 248.354Z" fill="#9BD6E8"/>
<path d="M462.893 176.793H392.219C389.645 176.793 387.323 178.171 386.263 180.284L356.422 240.017C353.432 246.001 357.784 253.039 364.473 253.039H423.203C426.613 253.039 429.731 251.111 431.254 248.06L465.216 180.054C466.023 178.538 464.761 176.793 462.893 176.793Z" fill="#7BCEE8"/>
<path d="M226.106 39.712C226.634 39.5699 227.172 39.484 227.719 39.4652C243.929 38.9092 253.544 52.5224 256.374 64.4922C257.877 70.8648 257.756 73.5051 257.577 74.4728C257.514 74.8103 257.324 75.0986 257.038 75.2883C256.018 75.965 252.625 77.5099 242.491 78.0419C235.04 78.4607 231.311 78.5513 229.481 78.5518C228.495 78.5521 227.76 77.8041 227.703 76.8197C227.564 74.4485 224.227 74.0662 223.556 76.3446L223.188 77.5926C223.101 77.8892 222.955 78.1694 222.695 78.3361C221.81 78.9028 219.129 79.8586 212.859 77.0773C205.511 73.8382 201.794 63.8035 201.148 61.9088C201.078 61.7014 201.021 61.4943 200.985 61.2783C200.727 59.7541 199.979 53.1169 205.488 48.5081C210.977 43.9897 222.931 40.5658 226.106 39.712Z" fill="#303C60"/>
<path d="M214.475 75.3774C212.859 85.023 204.429 91.8667 195.595 90.6266C186.76 89.4324 180.904 80.6136 182.52 70.9681C184.135 61.3225 192.566 54.4788 201.4 55.7189C210.184 56.959 216.09 65.7319 214.475 75.3774Z" fill="#E04E39"/>
<path d="M208.063 75.148C206.599 84.0587 199.633 90.535 192.566 89.5704C185.498 88.6059 180.955 80.5679 182.419 71.6572C183.883 62.7466 190.849 56.2703 197.917 57.2348C205.034 58.1994 209.578 66.1914 208.063 75.148Z" fill="#F8B79E"/>
<path d="M197.261 73.127C196.453 78.0416 193.525 81.7161 190.698 81.3027C187.871 80.9353 186.256 76.6177 187.063 71.7031C187.871 66.7884 190.799 63.114 193.626 63.5273C196.453 63.9407 198.068 68.2582 197.261 73.127Z" fill="#FCD9C9"/>
<path d="M203.636 57.8725C199.647 59.2488 197.524 53.0289 199.512 49.3075C209.392 30.8137 231.573 34.2053 237.595 37.4843C240.787 39.1955 238.239 41.9699 234.664 41.3887C231.81 40.9246 228.354 40.798 224.369 41.4344C212.607 43.3176 205.64 49.6102 204.631 56.5917C204.539 57.2929 204.169 57.6884 203.636 57.8725Z" fill="#E04E39"/>
<path d="M79.2855 139.636H79.235C78.8816 139.59 78.6797 139.36 78.6797 139.039C79.3864 132.47 82.9706 125.764 88.8265 120.069C95.4395 113.639 104.88 108.586 116.036 105.417C140.974 98.3894 162.731 89.4787 176.412 51.1721C176.513 50.8965 176.866 50.7128 177.169 50.8047C177.472 50.8965 177.674 51.218 177.573 51.4936C171.313 69.0853 162.731 81.9001 151.423 90.6729C141.428 98.3894 130.221 102.569 116.389 106.473C105.384 109.551 96.1463 114.511 89.6846 120.804C84.0307 126.316 80.5475 132.838 79.8912 139.13C79.8408 139.452 79.5884 139.636 79.2855 139.636Z" fill="#303C60"/>
<path d="M90.5433 113.179C90.3414 113.179 90.1899 113.087 90.089 112.949C89.887 112.72 89.9375 112.352 90.1899 112.169C90.2909 112.077 100.942 104.682 116.39 101.559C145.972 95.6334 165.862 79.4197 173.838 54.7546C173.939 54.479 174.292 54.2953 174.595 54.3872C174.898 54.479 175.1 54.8006 174.999 55.0761C170.051 70.3253 160.763 82.3593 147.385 90.8565C138.753 96.3224 128.404 100.272 116.642 102.661C103.072 105.377 93.2711 111.523 91.3077 112.805C91.0643 112.964 90.8339 113.179 90.5433 113.179Z" fill="#303C60"/>
<path d="M469.86 105.279H390.099C389.342 105.279 388.989 104.728 389.241 104.039L405.445 63.5736C405.698 62.8847 406.556 62.3335 407.313 62.3335H487.124C487.882 62.3335 488.235 62.8847 487.983 63.5736L471.778 104.039C471.475 104.728 470.617 105.279 469.86 105.279Z" fill="#9EC8FF"/>
<path d="M468.901 103.396H392.573C391.866 103.396 391.513 102.891 391.765 102.248L406.506 65.411C406.758 64.7679 407.515 64.2627 408.222 64.2627H484.6C485.307 64.2627 485.66 64.7679 485.408 65.411L470.667 102.248C470.364 102.891 469.607 103.396 468.901 103.396Z" fill="white"/>
<path d="M467.539 101.008H395.855C395.047 101.008 394.643 100.411 394.946 99.7218L407.668 67.9374C407.97 67.2026 408.829 66.6514 409.586 66.6514H481.27C482.077 66.6514 482.481 67.2485 482.178 67.9374L469.457 99.7218C469.204 100.411 468.346 101.008 467.539 101.008Z" fill="#9EC8FF"/>
<path d="M445.593 91.4804C452.251 86.4258 454.505 78.9021 450.629 74.6756C446.753 70.4491 438.214 71.1204 431.556 76.175C424.899 81.2296 422.644 88.7534 426.52 92.9799C430.397 97.2064 438.936 96.535 445.593 91.4804Z" fill="white"/>
<path d="M449.87 83.8294C447.598 89.479 440.733 94.0721 434.473 94.0721C428.264 94.0721 425.033 89.479 427.304 83.8294C429.576 78.1799 436.442 73.5868 442.701 73.5868C448.91 73.5408 452.091 78.134 449.87 83.8294Z" fill="#9EC8FF"/>
<path d="M441.085 81.1197C442.494 82.0465 442.309 84.1674 440.761 84.836L439.369 85.4373L438.636 85.7536C437.063 86.4331 435.454 84.8708 436.087 83.2785L436.386 82.5405C437.141 80.6767 439.424 79.9863 441.085 81.1197Z" fill="white"/>
<path d="M349.058 59.7617H342.748C341.435 59.7617 340.324 59.2565 339.668 58.4297C338.961 57.5111 338.861 56.3169 339.365 55.0767L341.637 49.3353C342.546 47.1306 345.12 45.3853 347.594 45.3853H353.904C355.217 45.3853 356.327 45.8905 356.983 46.7173C357.69 47.6359 357.791 48.8301 357.286 50.0702L355.015 55.8116C354.156 58.0163 351.531 59.7617 349.058 59.7617ZM347.644 47.59C346.231 47.59 344.514 48.7382 343.959 50.0702L341.687 55.8116C341.486 56.3628 341.486 56.8221 341.738 57.1436C341.99 57.4652 342.445 57.557 342.798 57.557H349.108C350.572 57.557 352.238 56.4087 352.793 55.0767L355.065 49.3353C355.267 48.7842 355.267 48.3249 355.015 48.0033C354.762 47.6818 354.308 47.59 353.954 47.59H347.644Z" fill="#9CD499"/>
<path d="M339.365 84.0591H333.055C331.743 84.0591 330.632 83.5538 329.976 82.7271C329.269 81.8084 329.168 80.6142 329.673 79.3741L331.945 73.6327C332.853 71.428 335.428 69.6826 337.901 69.6826H344.212C345.524 69.6826 346.635 70.1879 347.291 71.0146C347.998 71.9332 348.099 73.1275 347.594 74.3676L345.322 80.109C344.413 82.3596 341.788 84.0591 339.365 84.0591ZM337.901 71.9332C336.488 71.9332 334.772 73.0815 334.216 74.4135L331.945 80.1549C331.743 80.7061 331.743 81.1654 331.995 81.4869C332.247 81.8085 332.702 81.9003 333.055 81.9003H339.365C340.829 81.9003 342.495 80.752 343.05 79.42L345.322 73.6786C345.524 73.1275 345.524 72.6682 345.272 72.3466C345.019 72.0251 344.565 71.9332 344.212 71.9332H337.901Z" fill="#9CD499"/>
<path d="M329.623 108.403H323.313C322 108.403 320.89 107.898 320.234 107.071C319.527 106.152 319.426 104.958 319.931 103.718L322.253 97.9765C323.162 95.7718 325.736 94.0264 328.21 94.0264H334.52C335.832 94.0264 336.943 94.5316 337.599 95.3584C338.306 96.277 338.407 97.4712 337.902 98.7114L335.63 104.453C334.722 106.657 332.097 108.403 329.623 108.403ZM328.21 96.2311C326.746 96.2311 325.08 97.3793 324.525 98.7114L322.253 104.453C322.051 105.004 322.051 105.463 322.303 105.785C322.556 106.106 323.01 106.198 323.363 106.198H329.674C331.138 106.198 332.803 105.05 333.359 103.718L335.63 97.9765C335.832 97.4253 335.832 96.966 335.58 96.6445C335.328 96.3229 334.873 96.2311 334.52 96.2311H328.21Z" fill="#9EC8FF"/>
<path d="M400.802 55.0767H366.222C365.566 55.0767 365.212 54.5715 365.465 54.0203C365.717 53.4232 366.424 52.9639 367.08 52.9639H401.66C402.316 52.9639 402.67 53.4691 402.417 54.0203C402.165 54.6174 401.458 55.0767 400.802 55.0767Z" fill="#9EC8FF"/>
<path d="M399.085 59.3941H364.505C363.849 59.3941 363.495 58.8888 363.748 58.3377C364 57.7406 364.707 57.2812 365.363 57.2812H399.943C400.599 57.2812 400.953 57.7865 400.7 58.3377C400.448 58.8888 399.741 59.3941 399.085 59.3941Z" fill="#9EC8FF"/>
<path d="M391.815 77.6289H357.236C356.579 77.6289 356.226 77.1237 356.478 76.5725C356.731 75.9754 357.437 75.5161 358.094 75.5161H392.674C393.33 75.5161 393.683 76.0213 393.431 76.5725C393.178 77.1237 392.421 77.6289 391.815 77.6289Z" fill="#9EC8FF"/>
<path d="M390.099 81.9004H355.52C354.863 81.9004 354.51 81.3952 354.763 80.844C355.015 80.2469 355.722 79.7876 356.378 79.7876H390.958C391.614 79.7876 391.967 80.2929 391.715 80.844C391.462 81.3952 390.705 81.9004 390.099 81.9004Z" fill="#9EC8FF"/>
<path d="M381.77 102.615H347.191C346.534 102.615 346.181 102.11 346.433 101.559C346.686 100.962 347.393 100.502 348.049 100.502H382.629C383.285 100.502 383.638 101.008 383.386 101.559C383.133 102.156 382.427 102.615 381.77 102.615Z" fill="#9EC8FF"/>
<path d="M380.054 106.933H345.474C344.818 106.933 344.464 106.428 344.717 105.877C344.969 105.28 345.676 104.82 346.332 104.82H380.912C381.568 104.82 381.921 105.326 381.669 105.877C381.417 106.428 380.71 106.933 380.054 106.933Z" fill="#9EC8FF"/>
<path d="M347.594 56.5464C347.388 56.5464 347.185 56.4852 347.003 56.3893C346.777 56.2701 346.592 56.0872 346.483 55.8574L344.111 50.4834C343.858 49.9323 344.161 49.2892 344.767 49.0596C345.373 48.8299 346.08 49.1055 346.332 49.6567C347.247 51.726 349.824 52.4442 351.678 51.1462L362.133 43.8234C362.637 43.456 363.445 43.5478 363.849 44.0071C364.253 44.4664 364.152 45.2013 363.647 45.5688L348.351 56.3167C348.149 56.4545 347.897 56.5464 347.594 56.5464Z" fill="#F49678"/>
<path d="M337.902 80.8442C337.696 80.8442 337.493 80.783 337.311 80.6872C337.085 80.568 336.899 80.3851 336.791 80.1552L334.418 74.7813C334.166 74.2301 334.469 73.5871 335.075 73.3574C335.68 73.1278 336.387 73.4034 336.64 73.9545C337.555 76.0239 340.132 76.742 341.985 75.444L352.44 68.1213C352.945 67.7538 353.753 67.8457 354.157 68.305C354.56 68.7643 354.46 69.4992 353.955 69.8666L338.659 80.6146C338.406 80.7524 338.154 80.8442 337.902 80.8442Z" fill="#F49678"/>
<path d="M567.612 24.1281C566.96 25.7592 565.381 26.8289 563.624 26.8289H440.057C437.019 26.8289 434.942 23.7613 436.069 20.9405C436.721 19.3094 438.301 18.2397 440.057 18.2397H563.624C566.662 18.2397 568.739 21.3073 567.612 24.1281Z" fill="#9EC8FF"/>
<path d="M562.46 37.0107C561.809 38.6292 560.24 39.6897 558.496 39.6897H434.886C431.861 39.6897 429.795 36.6322 430.923 33.8255C431.573 32.207 433.142 31.1465 434.886 31.1465H558.496C561.521 31.1465 563.587 34.204 562.46 37.0107Z" fill="#9EC8FF"/>
<path d="M414.179 142.622H316.649C315.387 142.622 314.731 141.657 315.185 140.509C315.639 139.361 317.053 138.396 318.365 138.396H415.896C417.158 138.396 417.814 139.361 417.359 140.509C416.855 141.657 415.441 142.622 414.179 142.622Z" fill="#9EC8FF"/>
<path d="M410.443 151.991H312.863C311.601 151.991 310.945 151.027 311.399 149.878C311.853 148.73 313.267 147.766 314.579 147.766H412.109C413.371 147.766 414.028 148.73 413.573 149.878C413.119 151.027 411.705 151.991 410.443 151.991Z" fill="#9EC8FF"/>
<path d="M501.487 231.466C501.633 231.309 501.724 231.113 501.781 230.906C503.018 226.393 520.948 179.06 508.075 148.27C504.615 140 502.236 131.112 500.612 123.2C498.932 115.015 489.832 113.326 488.285 121.537C486.424 131.408 486.33 144.16 491.366 159.018C498.938 181.294 502.017 187.449 502.674 194.017C503.219 199.475 500.837 223.009 500.015 230.811C499.93 231.622 500.931 232.063 501.487 231.466Z" fill="#9CD499"/>
<path d="M499.746 233.84C499.645 233.84 499.595 233.84 499.494 233.794C499.241 233.702 499.09 233.472 499.14 233.243C499.191 232.921 502.724 200.448 502.068 194.017C501.664 189.746 500.2 185.704 497.02 176.839C495.405 172.292 493.385 166.642 490.811 159.11C484.45 140.278 486.368 124.891 489.145 115.291C492.123 104.865 496.616 98.9857 496.768 98.756C496.919 98.5723 497.171 98.4804 497.424 98.5264C497.895 98.6121 497.889 99.2681 497.922 99.7459C498.228 104.148 500.283 128.005 508.631 147.994C513.628 159.936 514.638 175.645 511.609 194.752C509.186 210.001 504.946 223.046 503.078 228.604C502.783 229.544 502.514 230.361 502.372 230.823C502.299 231.056 502.299 231.333 502.119 231.497L500.524 233.172C500.279 233.428 500.101 233.84 499.746 233.84ZM498.865 116.899C497.987 111.721 491.77 110.569 490.306 115.613C487.58 125.075 485.662 140.232 491.972 158.788C494.546 166.321 496.566 171.97 498.181 176.472C501.412 185.428 502.876 189.47 503.28 193.88C503.816 199.42 501.437 222.921 500.589 230.753C500.562 231.008 500.876 231.148 501.052 230.96C501.089 230.921 501.113 230.872 501.125 230.819C501.2 230.473 501.451 229.807 501.917 228.282C513.275 193.65 515.193 166.78 507.47 148.362C503.098 137.841 500.444 126.215 498.865 116.899Z" fill="#74B570"/>
<path d="M506.03 236.274C506.016 236.274 506.005 236.263 506.004 236.249C503.082 181.148 517.469 151.068 546.946 127.233C549.255 125.366 569.291 136.479 568.245 139.258C565.174 147.418 561.206 154.914 556.134 159.707C539.121 175.783 514.234 187.725 510.599 196.038C507.217 203.927 508.195 229.279 508.316 232.112C508.324 232.289 508.29 232.454 508.217 232.616L506.444 236.56C506.354 236.759 506.056 236.695 506.056 236.477V236.3C506.056 236.286 506.044 236.274 506.03 236.274Z" fill="#9CD499"/>
<path d="M505.576 236.879C504.201 238.67 502.643 238.068 503.008 235.84C505.168 222.665 513.122 188.95 532.509 186.531C556.386 183.545 561.99 188.598 578.346 186.255C586.192 185.112 591.193 191.995 584.377 196.047C580.872 198.131 576.615 200.041 571.48 201.458C556.437 205.638 536.8 198.794 525.34 200.586C514.767 202.239 508.921 221.372 508.08 224.319C508.006 224.581 507.952 224.834 507.906 225.103L506.124 235.625C506.046 236.081 505.858 236.512 505.576 236.879Z" fill="#9CD499"/>
<path d="M505.67 233.555C505.641 233.563 505.635 233.564 505.606 233.562C505.324 233.54 505.094 233.32 505.046 233.059C504.996 232.691 501.614 197.141 518.222 169.903C526.804 155.848 536.143 147.673 545.229 139.772C553.66 132.423 561.636 125.488 567.694 114.51C567.845 114.235 568.199 114.143 568.501 114.281C568.804 114.418 568.905 114.74 568.754 115.015C562.595 126.177 554.569 133.158 546.088 140.599C537.102 148.407 527.813 156.537 519.333 170.454C502.926 197.37 506.258 232.645 506.308 233.013C506.355 233.309 506.144 233.527 505.834 233.596C505.786 233.606 505.717 233.54 505.67 233.555Z" fill="#74B570"/>
<path d="M504.037 226.399C503.936 226.399 503.833 226.389 503.747 226.337C503.525 226.204 503.397 225.941 503.481 225.71C509.741 206.051 516.96 194.568 526.097 189.608C534.275 185.153 542.756 186.53 551.742 187.954C553.963 188.322 556.234 188.689 558.456 188.919C577.941 191.261 587.482 186.944 587.583 186.898C587.886 186.76 588.24 186.852 588.391 187.128C588.543 187.403 588.442 187.725 588.139 187.862C587.735 188.046 578.244 192.364 558.304 190.021C556.033 189.746 553.761 189.378 551.54 189.011C542.806 187.587 534.527 186.255 526.703 190.526C517.818 195.349 510.801 206.602 504.592 225.985C504.541 226.215 504.289 226.399 504.037 226.399Z" fill="#74B570"/>
<path d="M535.285 149.969C535.083 149.969 534.931 149.877 534.78 149.739C534.578 149.51 534.628 149.142 534.881 148.959C534.982 148.867 546.643 140.783 562.797 137.981C563.15 137.935 563.453 138.119 563.504 138.44C563.554 138.762 563.352 139.038 562.999 139.083C548.507 141.595 537.746 148.418 535.876 149.642C535.686 149.767 535.512 149.969 535.285 149.969Z" fill="#74B570"/>
<path d="M516.809 173.945C516.708 173.945 516.607 173.899 516.506 173.854C516.43 173.819 516.367 173.77 516.318 173.712C516.039 173.383 516.424 172.932 516.664 172.574C525.118 159.935 535.136 156.634 556.588 150.52C556.891 150.429 557.245 150.612 557.346 150.888C557.447 151.164 557.245 151.485 556.942 151.577C535.487 157.686 525.643 160.947 517.314 173.67C517.213 173.854 517.011 173.945 516.809 173.945Z" fill="#74B570"/>
<path d="M511.508 254.601H496.868C491.719 254.601 487.277 251.248 486.318 246.655L483.895 235.085C482.723 229.494 486.991 224.24 492.703 224.24H515.724C521.436 224.24 525.704 229.494 524.532 235.085L522.109 246.655C521.1 251.248 516.657 254.601 511.508 254.601Z" fill="#F8B79E"/>
<path d="M525.642 229.936H483.087C482.43 229.936 481.875 229.43 481.875 228.833C481.875 228.236 482.43 227.731 483.087 227.731H525.642C526.299 227.731 526.854 228.236 526.854 228.833C526.854 229.43 526.299 229.936 525.642 229.936Z" fill="#E04E39"/>
</g>
</svg>
