<svg width="208" height="180" viewBox="0 0 208 180" fill="none" xmlns="http://www.w3.org/2000/svg">
<rect x="0.0170898" y="179.98" width="154.559" height="25.4208" rx="12.7104" transform="rotate(-90 0.0170898 179.98)" fill="#C39367"/>
<path d="M9.45918 163.938V168.153L13.1228 168.428V168.332C12.8015 168.102 12.5444 167.845 12.3515 167.561C12.1587 167.267 12.0623 166.867 12.0623 166.362C12.0623 165.949 12.1312 165.568 12.2689 165.219C12.4066 164.87 12.6041 164.567 12.8612 164.31C13.1091 164.053 13.4167 163.856 13.784 163.718C14.1512 163.571 14.569 163.497 15.0373 163.497C15.5056 163.497 15.9372 163.571 16.332 163.718C16.7177 163.865 17.0528 164.081 17.3374 164.365C17.6129 164.641 17.8287 164.98 17.9848 165.384C18.1409 165.779 18.2189 166.229 18.2189 166.734C18.2189 167.138 18.173 167.496 18.0812 167.808C17.9894 168.111 17.8654 168.382 17.7093 168.621C17.5532 168.86 17.3788 169.071 17.1859 169.255C16.9931 169.429 16.7911 169.59 16.5799 169.737L15.9188 168.869C16.1116 168.75 16.2861 168.626 16.4422 168.497C16.5983 168.359 16.7314 168.212 16.8416 168.056C16.9518 167.891 17.039 167.703 17.1033 167.492C17.1584 167.281 17.1859 167.028 17.1859 166.734C17.1859 166.073 17.0115 165.573 16.6626 165.233C16.3136 164.893 15.8224 164.723 15.1888 164.723H15.0511C14.4175 164.723 13.9263 164.893 13.5774 165.233C13.2284 165.573 13.054 166.073 13.054 166.734C13.054 167.175 13.1366 167.524 13.3019 167.781C13.458 168.029 13.6462 168.254 13.8666 168.456L13.7289 169.434L8.43996 169.089V163.938H9.45918ZM18.0536 160.868H17.0344V158.182H9.2939V158.278L11.5527 160.702L10.8227 161.377L8.43996 158.829V157.025H17.0344V154.546H18.0536V160.868ZM18.0536 146.021V152.329H16.8692L13.9768 149.189C13.5636 148.739 13.1274 148.362 12.6683 148.059C12.2 147.756 11.7318 147.605 11.2635 147.605H11.0982C10.5656 147.605 10.1341 147.752 9.80351 148.046C9.47295 148.339 9.30767 148.785 9.30767 149.382C9.30767 149.675 9.34899 149.932 9.43163 150.153C9.51427 150.373 9.62905 150.566 9.77596 150.731C9.92287 150.887 10.0973 151.021 10.2993 151.131C10.4922 151.232 10.7034 151.314 10.9329 151.379L10.5335 152.412C10.2488 152.32 9.97338 152.196 9.7071 152.04C9.43163 151.874 9.1883 151.672 8.97712 151.434C8.76593 151.186 8.59606 150.892 8.46751 150.552C8.33896 150.203 8.27468 149.795 8.27468 149.326C8.27468 148.858 8.34355 148.44 8.48128 148.073C8.61901 147.706 8.81184 147.398 9.05975 147.15C9.30767 146.902 9.6015 146.714 9.94124 146.586C10.281 146.448 10.6574 146.379 11.0706 146.379C11.4471 146.379 11.796 146.434 12.1174 146.544C12.4388 146.645 12.7464 146.788 13.0402 146.971C13.3249 147.155 13.6049 147.38 13.8804 147.646C14.1558 147.903 14.4313 148.183 14.7068 148.486L17.0344 151.076V146.021H18.0536Z" fill="#2C2A29"/>
<rect x="60.8712" y="179.98" width="142.357" height="25.4208" rx="12.7104" transform="rotate(-90 60.8712 179.98)" fill="#C39367"/>
<path d="M78.9078 165.632H77.0208V170.274H76.0016L69.2941 166.252V164.53H76.0567V163.139H77.0208V164.53H78.9078V165.632ZM76.0567 169.186V165.632H70.1893V165.701L76.0567 169.186ZM79.0731 157.948C79.0731 158.499 79.0042 158.981 78.8665 159.394C78.7195 159.807 78.5221 160.156 78.2742 160.441C78.0263 160.716 77.7325 160.927 77.3927 161.074C77.053 161.212 76.6857 161.281 76.2909 161.281C75.6298 161.281 75.1064 161.102 74.7207 160.744C74.3351 160.386 74.0642 159.917 73.9081 159.339H73.7979C73.6235 159.844 73.3434 160.248 72.9578 160.551C72.5629 160.845 72.09 160.992 71.5391 160.992C70.8045 160.992 70.2215 160.725 69.7899 160.193C69.3492 159.66 69.1288 158.912 69.1288 157.948C69.1288 156.984 69.3492 156.235 69.7899 155.703C70.2215 155.17 70.8045 154.904 71.5391 154.904C72.09 154.904 72.5629 155.055 72.9578 155.358C73.3434 155.652 73.6235 156.052 73.7979 156.557H73.9081C74.0642 155.978 74.3351 155.51 74.7207 155.152C75.1064 154.794 75.6298 154.615 76.2909 154.615C76.6857 154.615 77.053 154.688 77.3927 154.835C77.7325 154.973 78.0263 155.184 78.2742 155.468C78.5221 155.744 78.7195 156.088 78.8665 156.501C79.0042 156.915 79.0731 157.397 79.0731 157.948ZM78.0676 157.948C78.0676 157.277 77.9207 156.759 77.6269 156.391C77.3239 156.024 76.8969 155.84 76.346 155.84H76.0567C75.5058 155.84 75.0834 156.024 74.7896 156.391C74.4866 156.759 74.3351 157.277 74.3351 157.948C74.3351 158.618 74.4866 159.137 74.7896 159.504C75.0834 159.871 75.5058 160.055 76.0567 160.055H76.346C76.8969 160.055 77.3239 159.871 77.6269 159.504C77.9207 159.137 78.0676 158.618 78.0676 157.948ZM73.371 157.948C73.371 157.342 73.2424 156.883 72.9853 156.57C72.7282 156.258 72.3517 156.102 71.8559 156.102H71.6493C71.1535 156.102 70.777 156.258 70.5199 156.57C70.2628 156.883 70.1343 157.342 70.1343 157.948C70.1343 158.554 70.2628 159.013 70.5199 159.325C70.777 159.637 71.1535 159.793 71.6493 159.793H71.8559C72.3517 159.793 72.7282 159.637 72.9853 159.325C73.2424 159.013 73.371 158.554 73.371 157.948ZM79.0731 149.23C79.0731 150.378 78.6369 151.218 77.7646 151.751C76.8923 152.274 75.6711 152.536 74.1009 152.536C72.5308 152.536 71.3096 152.274 70.4373 151.751C69.565 151.218 69.1288 150.378 69.1288 149.23C69.1288 148.082 69.565 147.247 70.4373 146.723C71.3096 146.191 72.5308 145.924 74.1009 145.924C75.6711 145.924 76.8923 146.191 77.7646 146.723C78.6369 147.247 79.0731 148.082 79.0731 149.23ZM78.0676 149.23C78.0676 148.854 77.9896 148.532 77.8335 148.266C77.6774 148 77.457 147.784 77.1724 147.619C76.8877 147.453 76.5526 147.334 76.1669 147.26C75.7813 147.178 75.3543 147.136 74.886 147.136H73.3159C72.8476 147.136 72.4206 147.178 72.035 147.26C71.6493 147.334 71.3142 147.453 71.0295 147.619C70.7449 147.784 70.5245 148 70.3684 148.266C70.2123 148.532 70.1343 148.854 70.1343 149.23C70.1343 149.606 70.2123 149.928 70.3684 150.194C70.5245 150.46 70.7449 150.676 71.0295 150.841C71.3142 151.007 71.6493 151.131 72.035 151.213C72.4206 151.287 72.8476 151.324 73.3159 151.324H74.886C75.3543 151.324 75.7813 151.287 76.1669 151.213C76.5526 151.131 76.8877 151.007 77.1724 150.841C77.457 150.676 77.6774 150.46 77.8335 150.194C77.9896 149.928 78.0676 149.606 78.0676 149.23Z" fill="#2C2A29"/>
<rect x="30.4442" y="179.98" width="77.2794" height="25.4208" rx="12.7104" transform="rotate(-90 30.4442 179.98)" fill="#E04E39"/>
<path d="M48.4807 163.456V169.764H47.2962L44.4038 166.624C43.9907 166.174 43.5545 165.798 43.0954 165.495C42.6271 165.192 42.1588 165.04 41.6905 165.04H41.5253C40.9927 165.04 40.5611 165.187 40.2306 165.481C39.9 165.775 39.7347 166.22 39.7347 166.817C39.7347 167.111 39.7761 167.368 39.8587 167.588C39.9413 167.808 40.0561 168.001 40.203 168.167C40.3499 168.323 40.5244 168.456 40.7264 168.566C40.9192 168.667 41.1304 168.75 41.36 168.814L40.9605 169.847C40.6759 169.755 40.4004 169.631 40.1342 169.475C39.8587 169.31 39.6154 169.108 39.4042 168.869C39.193 168.621 39.0231 168.327 38.8946 167.988C38.766 167.639 38.7017 167.23 38.7017 166.762C38.7017 166.293 38.7706 165.876 38.9083 165.508C39.0461 165.141 39.2389 164.833 39.4868 164.586C39.7347 164.338 40.0286 164.149 40.3683 164.021C40.708 163.883 41.0845 163.814 41.4977 163.814C41.8742 163.814 42.2231 163.869 42.5445 163.98C42.8658 164.081 43.1734 164.223 43.4673 164.406C43.7519 164.59 44.032 164.815 44.3074 165.081C44.5829 165.338 44.8584 165.619 45.1338 165.922L47.4615 168.511V163.456H48.4807ZM48.4807 156.915H46.5938V161.556H45.5746L38.867 157.534V155.813H45.6297V154.422H46.5938V155.813H48.4807V156.915ZM45.6297 160.468V156.915H39.7623V156.984L45.6297 160.468ZM48.646 149.23C48.646 150.378 48.2098 151.218 47.3375 151.751C46.4652 152.274 45.244 152.536 43.6739 152.536C42.1037 152.536 40.8825 152.274 40.0102 151.751C39.1379 151.218 38.7017 150.378 38.7017 149.23C38.7017 148.082 39.1379 147.247 40.0102 146.723C40.8825 146.191 42.1037 145.924 43.6739 145.924C45.244 145.924 46.4652 146.191 47.3375 146.723C48.2098 147.247 48.646 148.082 48.646 149.23ZM47.6405 149.23C47.6405 148.854 47.5625 148.532 47.4064 148.266C47.2503 148 47.0299 147.784 46.7453 147.619C46.4606 147.453 46.1255 147.334 45.7398 147.26C45.3542 147.178 44.9272 147.136 44.4589 147.136H42.8888C42.4205 147.136 41.9935 147.178 41.6079 147.26C41.2222 147.334 40.8871 147.453 40.6024 147.619C40.3178 147.784 40.0974 148 39.9413 148.266C39.7852 148.532 39.7072 148.854 39.7072 149.23C39.7072 149.606 39.7852 149.928 39.9413 150.194C40.0974 150.46 40.3178 150.676 40.6024 150.841C40.8871 151.007 41.2222 151.131 41.6079 151.213C41.9935 151.287 42.4205 151.324 42.8888 151.324H44.4589C44.9272 151.324 45.3542 151.287 45.7398 151.213C46.1255 151.131 46.4606 151.007 46.7453 150.841C47.0299 150.676 47.2503 150.46 47.4064 150.194C47.5625 149.928 47.6405 149.606 47.6405 149.23Z" fill="white"/>
<rect x="91.2983" y="179.98" width="103.717" height="25.4208" rx="12.7104" transform="rotate(-90 91.2983 179.98)" fill="#C39367"/>
<path d="M103.798 167.202C103.798 166.551 103.651 166.064 103.357 165.742C103.054 165.412 102.669 165.247 102.2 165.247H102.104C101.599 165.247 101.222 165.407 100.975 165.729C100.717 166.041 100.589 166.454 100.589 166.968C100.589 167.464 100.699 167.868 100.919 168.18C101.131 168.493 101.42 168.75 101.787 168.952L101.126 169.806C100.933 169.686 100.745 169.544 100.561 169.379C100.368 169.204 100.199 169.002 100.052 168.773C99.9048 168.543 99.7854 168.277 99.6936 167.974C99.6018 167.671 99.5559 167.326 99.5559 166.941C99.5559 166.537 99.611 166.156 99.7212 165.798C99.8222 165.439 99.9782 165.132 100.189 164.875C100.391 164.609 100.644 164.402 100.947 164.255C101.25 164.099 101.594 164.021 101.98 164.021C102.292 164.021 102.572 164.071 102.82 164.172C103.068 164.264 103.284 164.393 103.467 164.558C103.651 164.723 103.807 164.921 103.936 165.15C104.064 165.371 104.161 165.609 104.225 165.866H104.28C104.335 165.609 104.427 165.361 104.556 165.123C104.675 164.875 104.836 164.659 105.038 164.475C105.23 164.283 105.469 164.131 105.754 164.021C106.029 163.901 106.346 163.842 106.704 163.842C107.117 163.842 107.498 163.92 107.847 164.076C108.187 164.232 108.481 164.452 108.729 164.737C108.968 165.022 109.156 165.366 109.294 165.77C109.431 166.174 109.5 166.619 109.5 167.106C109.5 167.519 109.454 167.887 109.362 168.208C109.271 168.529 109.147 168.814 108.991 169.062C108.834 169.31 108.66 169.53 108.467 169.723C108.274 169.907 108.072 170.072 107.861 170.219L107.2 169.351C107.393 169.232 107.567 169.103 107.723 168.965C107.879 168.819 108.013 168.658 108.123 168.483C108.233 168.309 108.32 168.111 108.384 167.891C108.44 167.671 108.467 167.414 108.467 167.12C108.467 166.44 108.316 165.926 108.013 165.577C107.7 165.228 107.26 165.054 106.69 165.054H106.58C106.011 165.054 105.575 165.228 105.272 165.577C104.96 165.926 104.803 166.44 104.803 167.12V168.249H103.798V167.202ZM109.5 157.934C109.5 158.43 109.417 158.88 109.252 159.284C109.078 159.678 108.834 160.018 108.522 160.303C108.201 160.578 107.811 160.79 107.351 160.936C106.892 161.083 106.378 161.157 105.809 161.157C105.093 161.157 104.422 161.051 103.798 160.84C103.164 160.629 102.591 160.358 102.076 160.027C101.553 159.688 101.094 159.316 100.699 158.912C100.295 158.508 99.9691 158.113 99.7212 157.727V156.24C100.098 156.754 100.465 157.213 100.823 157.617C101.181 158.021 101.558 158.375 101.952 158.678C102.338 158.981 102.756 159.238 103.206 159.449C103.647 159.66 104.147 159.83 104.707 159.959L104.735 159.89C104.34 159.66 104.014 159.366 103.757 159.008C103.49 158.641 103.357 158.163 103.357 157.576C103.357 157.163 103.426 156.782 103.564 156.433C103.702 156.084 103.899 155.785 104.156 155.537C104.413 155.289 104.725 155.097 105.093 154.959C105.46 154.812 105.869 154.739 106.319 154.739C106.787 154.739 107.218 154.817 107.613 154.973C107.999 155.12 108.334 155.335 108.619 155.62C108.894 155.895 109.11 156.231 109.266 156.625C109.422 157.02 109.5 157.456 109.5 157.934ZM108.495 157.948C108.495 157.314 108.32 156.823 107.971 156.474C107.622 156.116 107.122 155.937 106.47 155.937H106.36C105.708 155.937 105.207 156.116 104.859 156.474C104.51 156.823 104.335 157.314 104.335 157.948C104.335 158.581 104.51 159.077 104.859 159.435C105.207 159.784 105.708 159.959 106.36 159.959H106.47C107.122 159.959 107.622 159.784 107.971 159.435C108.32 159.077 108.495 158.581 108.495 157.948ZM109.5 149.23C109.5 150.378 109.064 151.218 108.192 151.751C107.319 152.274 106.098 152.536 104.528 152.536C102.958 152.536 101.737 152.274 100.864 151.751C99.992 151.218 99.5559 150.378 99.5559 149.23C99.5559 148.082 99.992 147.247 100.864 146.723C101.737 146.191 102.958 145.924 104.528 145.924C106.098 145.924 107.319 146.191 108.192 146.723C109.064 147.247 109.5 148.082 109.5 149.23ZM108.495 149.23C108.495 148.854 108.417 148.532 108.261 148.266C108.104 148 107.884 147.784 107.599 147.619C107.315 147.453 106.98 147.334 106.594 147.26C106.208 147.178 105.781 147.136 105.313 147.136H103.743C103.275 147.136 102.848 147.178 102.462 147.26C102.076 147.334 101.741 147.453 101.457 147.619C101.172 147.784 100.952 148 100.795 148.266C100.639 148.532 100.561 148.854 100.561 149.23C100.561 149.606 100.639 149.928 100.795 150.194C100.952 150.46 101.172 150.676 101.457 150.841C101.741 151.007 102.076 151.131 102.462 151.213C102.848 151.287 103.275 151.324 103.743 151.324H105.313C105.781 151.324 106.208 151.287 106.594 151.213C106.98 151.131 107.315 151.007 107.599 150.841C107.884 150.676 108.104 150.46 108.261 150.194C108.417 149.928 108.495 149.606 108.495 149.23Z" fill="#2C2A29"/>
<rect x="121.725" y="179.98" width="126.087" height="25.4208" rx="12.7104" transform="rotate(-90 121.725 179.98)" fill="#C39367"/>
<path d="M139.762 165.632H137.875V170.274H136.856L130.148 166.252V164.53H136.911V163.139H137.875V164.53H139.762V165.632ZM136.911 169.186V165.632H131.043V165.701L136.911 169.186ZM139.762 156.915H137.875V161.556H136.856L130.148 157.534V155.813H136.911V154.422H137.875V155.813H139.762V156.915ZM136.911 160.468V156.915H131.043V156.984L136.911 160.468ZM139.927 149.23C139.927 150.378 139.491 151.218 138.619 151.751C137.746 152.274 136.525 152.536 134.955 152.536C133.385 152.536 132.164 152.274 131.291 151.751C130.419 151.218 129.983 150.378 129.983 149.23C129.983 148.082 130.419 147.247 131.291 146.723C132.164 146.191 133.385 145.924 134.955 145.924C136.525 145.924 137.746 146.191 138.619 146.723C139.491 147.247 139.927 148.082 139.927 149.23ZM138.922 149.23C138.922 148.854 138.844 148.532 138.688 148.266C138.531 148 138.311 147.784 138.026 147.619C137.742 147.453 137.407 147.334 137.021 147.26C136.635 147.178 136.208 147.136 135.74 147.136H134.17C133.702 147.136 133.275 147.178 132.889 147.26C132.503 147.334 132.168 147.453 131.884 147.619C131.599 147.784 131.379 148 131.222 148.266C131.066 148.532 130.988 148.854 130.988 149.23C130.988 149.606 131.066 149.928 131.222 150.194C131.379 150.46 131.599 150.676 131.884 150.841C132.168 151.007 132.503 151.131 132.889 151.213C133.275 151.287 133.702 151.324 134.17 151.324H135.74C136.208 151.324 136.635 151.287 137.021 151.213C137.407 151.131 137.742 151.007 138.026 150.841C138.311 150.676 138.531 150.46 138.688 150.194C138.844 149.928 138.922 149.606 138.922 149.23Z" fill="#2C2A29"/>
<rect x="182.579" y="179.98" width="154.559" height="25.4208" rx="12.7104" transform="rotate(-90 182.579 179.98)" fill="#C39367"/>
<path d="M200.616 165.632H198.729V170.274H197.71L191.002 166.252V164.53H197.765V163.139H198.729V164.53H200.616V165.632ZM197.765 169.186V165.632H191.898V165.701L197.765 169.186ZM200.781 157.948C200.781 158.499 200.712 158.981 200.575 159.394C200.428 159.807 200.23 160.156 199.982 160.441C199.734 160.716 199.441 160.927 199.101 161.074C198.761 161.212 198.394 161.281 197.999 161.281C197.338 161.281 196.815 161.102 196.429 160.744C196.043 160.386 195.772 159.917 195.616 159.339H195.506C195.332 159.844 195.052 160.248 194.666 160.551C194.271 160.845 193.798 160.992 193.247 160.992C192.513 160.992 191.93 160.725 191.498 160.193C191.057 159.66 190.837 158.912 190.837 157.948C190.837 156.984 191.057 156.235 191.498 155.703C191.93 155.17 192.513 154.904 193.247 154.904C193.798 154.904 194.271 155.055 194.666 155.358C195.052 155.652 195.332 156.052 195.506 156.557H195.616C195.772 155.978 196.043 155.51 196.429 155.152C196.815 154.794 197.338 154.615 197.999 154.615C198.394 154.615 198.761 154.688 199.101 154.835C199.441 154.973 199.734 155.184 199.982 155.468C200.23 155.744 200.428 156.088 200.575 156.501C200.712 156.915 200.781 157.397 200.781 157.948ZM199.776 157.948C199.776 157.277 199.629 156.759 199.335 156.391C199.032 156.024 198.605 155.84 198.054 155.84H197.765C197.214 155.84 196.792 156.024 196.498 156.391C196.195 156.759 196.043 157.277 196.043 157.948C196.043 158.618 196.195 159.137 196.498 159.504C196.792 159.871 197.214 160.055 197.765 160.055H198.054C198.605 160.055 199.032 159.871 199.335 159.504C199.629 159.137 199.776 158.618 199.776 157.948ZM195.079 157.948C195.079 157.342 194.951 156.883 194.693 156.57C194.436 156.258 194.06 156.102 193.564 156.102H193.357C192.862 156.102 192.485 156.258 192.228 156.57C191.971 156.883 191.842 157.342 191.842 157.948C191.842 158.554 191.971 159.013 192.228 159.325C192.485 159.637 192.862 159.793 193.357 159.793H193.564C194.06 159.793 194.436 159.637 194.693 159.325C194.951 159.013 195.079 158.554 195.079 157.948ZM200.781 149.23C200.781 150.378 200.345 151.218 199.473 151.751C198.6 152.274 197.379 152.536 195.809 152.536C194.239 152.536 193.018 152.274 192.145 151.751C191.273 151.218 190.837 150.378 190.837 149.23C190.837 148.082 191.273 147.247 192.145 146.723C193.018 146.191 194.239 145.924 195.809 145.924C197.379 145.924 198.6 146.191 199.473 146.723C200.345 147.247 200.781 148.082 200.781 149.23ZM199.776 149.23C199.776 148.854 199.698 148.532 199.542 148.266C199.386 148 199.165 147.784 198.881 147.619C198.596 147.453 198.261 147.334 197.875 147.26C197.489 147.178 197.062 147.136 196.594 147.136H195.024C194.556 147.136 194.129 147.178 193.743 147.26C193.357 147.334 193.022 147.453 192.738 147.619C192.453 147.784 192.233 148 192.077 148.266C191.92 148.532 191.842 148.854 191.842 149.23C191.842 149.606 191.92 149.928 192.077 150.194C192.233 150.46 192.453 150.676 192.738 150.841C193.022 151.007 193.357 151.131 193.743 151.213C194.129 151.287 194.556 151.324 195.024 151.324H196.594C197.062 151.324 197.489 151.287 197.875 151.213C198.261 151.131 198.596 151.007 198.881 150.841C199.165 150.676 199.386 150.46 199.542 150.194C199.698 149.928 199.776 149.606 199.776 149.23Z" fill="#2C2A29"/>
<rect x="152.152" y="179.98" width="179.98" height="25.4208" rx="12.7104" transform="rotate(-90 152.152 179.98)" fill="#C39367"/>
<path d="M170.354 166.652C170.354 167.147 170.272 167.597 170.106 168.001C169.932 168.396 169.688 168.736 169.376 169.021C169.055 169.296 168.665 169.507 168.206 169.654C167.746 169.801 167.232 169.874 166.663 169.874C165.947 169.874 165.276 169.769 164.652 169.558C164.019 169.346 163.445 169.076 162.93 168.745C162.407 168.405 161.948 168.033 161.553 167.629C161.149 167.225 160.823 166.831 160.575 166.445V164.957C160.952 165.472 161.319 165.931 161.677 166.335C162.035 166.739 162.412 167.092 162.806 167.395C163.192 167.698 163.61 167.955 164.06 168.167C164.501 168.378 165.001 168.548 165.561 168.676L165.589 168.607C165.194 168.378 164.868 168.084 164.611 167.726C164.344 167.359 164.211 166.881 164.211 166.293C164.211 165.88 164.28 165.499 164.418 165.15C164.556 164.801 164.753 164.503 165.01 164.255C165.267 164.007 165.579 163.814 165.947 163.677C166.314 163.53 166.723 163.456 167.173 163.456C167.641 163.456 168.072 163.534 168.467 163.69C168.853 163.837 169.188 164.053 169.473 164.338C169.748 164.613 169.964 164.948 170.12 165.343C170.276 165.738 170.354 166.174 170.354 166.652ZM169.349 166.665C169.349 166.032 169.174 165.54 168.825 165.192C168.476 164.833 167.976 164.654 167.324 164.654H167.214C166.562 164.654 166.062 164.833 165.713 165.192C165.364 165.54 165.189 166.032 165.189 166.665C165.189 167.299 165.364 167.795 165.713 168.153C166.062 168.502 166.562 168.676 167.214 168.676H167.324C167.976 168.676 168.476 168.502 168.825 168.153C169.174 167.795 169.349 167.299 169.349 166.665ZM170.189 156.915H168.302V161.556H167.283L160.575 157.534V155.813H167.338V154.422H168.302V155.813H170.189V156.915ZM167.338 160.468V156.915H161.47V156.984L167.338 160.468ZM170.354 149.23C170.354 150.378 169.918 151.218 169.046 151.751C168.173 152.274 166.952 152.536 165.382 152.536C163.812 152.536 162.591 152.274 161.718 151.751C160.846 151.218 160.41 150.378 160.41 149.23C160.41 148.082 160.846 147.247 161.718 146.723C162.591 146.191 163.812 145.924 165.382 145.924C166.952 145.924 168.173 146.191 169.046 146.723C169.918 147.247 170.354 148.082 170.354 149.23ZM169.349 149.23C169.349 148.854 169.271 148.532 169.115 148.266C168.958 148 168.738 147.784 168.453 147.619C168.169 147.453 167.834 147.334 167.448 147.26C167.062 147.178 166.635 147.136 166.167 147.136H164.597C164.129 147.136 163.702 147.178 163.316 147.26C162.93 147.334 162.595 147.453 162.311 147.619C162.026 147.784 161.806 148 161.65 148.266C161.493 148.532 161.415 148.854 161.415 149.23C161.415 149.606 161.493 149.928 161.65 150.194C161.806 150.46 162.026 150.676 162.311 150.841C162.595 151.007 162.93 151.131 163.316 151.213C163.702 151.287 164.129 151.324 164.597 151.324H166.167C166.635 151.324 167.062 151.287 167.448 151.213C167.834 151.131 168.169 151.007 168.453 150.841C168.738 150.676 168.958 150.46 169.115 150.194C169.271 149.928 169.349 149.606 169.349 149.23Z" fill="#2C2A29"/>
</svg>
