<svg width="209" height="101" viewBox="0 0 209 101" fill="none" xmlns="http://www.w3.org/2000/svg">
<rect width="15.578" height="23.3669" rx="0.627994" transform="matrix(-1 0 0 1 209 76.7769)" fill="#D8B89A"/>
<rect width="15.578" height="32.2686" rx="0.627994" transform="matrix(-1 0 0 1 191.416 67.8755)" fill="#D8B89A"/>
<rect width="15.578" height="44.5084" rx="0.627994" transform="matrix(-1 0 0 1 156.248 55.6357)" fill="#D8B89A"/>
<rect width="15.578" height="63.4245" rx="0.627994" transform="matrix(-1 0 0 1 138.664 36.7192)" fill="#D8B89A"/>
<rect width="15.578" height="85.6787" rx="0.627994" transform="matrix(-1 0 0 1 121.08 14.4653)" fill="#D8B89A"/>
<rect width="15.578" height="90.1296" rx="0.627994" transform="matrix(-1 0 0 1 50.7449 10.0142)" fill="#D8B89A"/>
<rect width="15.578" height="95.6931" rx="0.627994" transform="matrix(-1 0 0 1 33.1609 4.45068)" fill="#D8B89A"/>
<rect width="15.578" height="100.144" rx="0.627994" transform="matrix(-1 0 0 1 15.5779 0)" fill="#D8B89A"/>
<rect width="15.578" height="81.2279" rx="0.627994" transform="matrix(-1 0 0 1 103.496 18.916)" fill="#D8B89A"/>
<rect width="15.578" height="79.0025" rx="0.627994" transform="matrix(-1 0 0 1 85.9129 21.1416)" fill="#D8B89A"/>
<rect width="15.578" height="83.4533" rx="0.627994" transform="matrix(-1 0 0 1 68.3289 16.6904)" fill="#D8B89A"/>
<rect width="15.578" height="14.4652" rx="0.627994" transform="matrix(-1 0 0 1 209 85.6787)" fill="#E3CCB7"/>
<rect width="15.578" height="21.1415" rx="0.627994" transform="matrix(-1 0 0 1 191.416 79.0024)" fill="#E3CCB7"/>
<rect width="15.578" height="16.6907" rx="0.627994" transform="matrix(-1 0 0 1 173.832 83.4531)" fill="#E3CCB7"/>
<rect width="15.578" height="27.8178" rx="0.627994" transform="matrix(-1 0 0 1 156.248 72.3262)" fill="#E3CCB7"/>
<rect width="15.578" height="42.283" rx="0.627994" transform="matrix(-1 0 0 1 138.664 57.8608)" fill="#E3CCB7"/>
<rect width="15.578" height="37.8322" rx="0.627994" transform="matrix(-1 0 0 1 121.08 62.312)" fill="#E3CCB7"/>
<rect width="15.578" height="35.6067" rx="0.627994" transform="matrix(-1 0 0 1 50.7449 64.5371)" fill="#E3CCB7"/>
<rect width="15.578" height="48.9593" rx="0.627994" transform="matrix(-1 0 0 1 33.1609 51.1846)" fill="#E3CCB7"/>
<rect width="15.578" height="51.1847" rx="0.627994" transform="matrix(-1 0 0 1 15.5779 48.9595)" fill="#E3CCB7"/>
<rect width="15.578" height="41.1703" rx="0.627994" transform="matrix(-1 0 0 1 103.496 58.9736)" fill="#E3CCB7"/>
<rect width="15.578" height="32.2686" rx="0.627994" transform="matrix(-1 0 0 1 85.9129 67.8755)" fill="#E3CCB7"/>
<rect width="15.578" height="36.7195" rx="0.627994" transform="matrix(-1 0 0 1 68.3289 63.4243)" fill="#E3CCB7"/>
<rect width="15.578" height="7.78898" rx="0.627994" transform="matrix(-1 0 0 1 209 92.355)" fill="#C39367"/>
<rect width="15.578" height="8.90169" rx="0.627994" transform="matrix(-1 0 0 1 191.416 91.2422)" fill="#C39367"/>
<rect width="15.578" height="5.56355" rx="0.627994" transform="matrix(-1 0 0 1 173.832 94.5806)" fill="#C39367"/>
<rect width="15.578" height="13.3525" rx="0.627994" transform="matrix(-1 0 0 1 156.248 86.7915)" fill="#C39367"/>
<rect width="15.578" height="18.9161" rx="0.627994" transform="matrix(-1 0 0 1 138.664 81.228)" fill="#C39367"/>
<rect width="15.578" height="22.2542" rx="0.627994" transform="matrix(-1 0 0 1 121.08 77.8896)" fill="#C39367"/>
<rect width="15.578" height="27.8178" rx="0.627994" transform="matrix(-1 0 0 1 50.7449 72.3262)" fill="#C39367"/>
<rect width="15.578" height="32.2686" rx="0.627994" transform="matrix(-1 0 0 1 33.1609 67.8755)" fill="#C39367"/>
<rect width="15.578" height="33.3813" rx="0.627994" transform="matrix(-1 0 0 1 15.5779 66.7627)" fill="#C39367"/>
<rect width="15.578" height="17.8034" rx="0.627994" transform="matrix(-1 0 0 1 103.496 82.3408)" fill="#C39367"/>
<rect width="15.578" height="24.4796" rx="0.627994" transform="matrix(-1 0 0 1 85.9129 75.6646)" fill="#C39367"/>
<rect width="15.578" height="21.1415" rx="0.627994" transform="matrix(-1 0 0 1 68.3289 79.0024)" fill="#C39367"/>
</svg>
