<svg width="41" height="43" viewBox="0 0 41 43" fill="none" xmlns="http://www.w3.org/2000/svg">
<g filter="url(#filter0_iii)">
<mask id="mask0" mask-type="alpha" maskUnits="userSpaceOnUse" x="2" y="0" width="29" height="42">
<path d="M25.6943 11.0377C25.7864 11.5437 26.1247 11.9462 26.4965 12.2551C27.2775 12.904 27.8049 14.1374 27.8049 15.5521C27.8049 17.1762 27.1099 18.5613 26.1339 19.0975C25.6775 19.3482 25.2222 19.6952 25.0394 20.2237C24.3798 22.1311 23.4077 23.7775 22.2188 25.0257L27.977 28.2434C34.1967 31.7189 29.1219 40.599 22.0148 41.1024C20.4712 41.2118 18.7534 41.2764 16.8492 41.2764C14.945 41.2764 13.2271 41.2118 11.6835 41.1024C4.57646 40.599 -0.498394 31.7189 5.72129 28.2434L11.3812 25.0806C10.1683 23.826 9.17715 22.1592 8.50784 20.2237C8.32507 19.6952 7.86969 19.3482 7.41332 19.0975C6.43735 18.5613 5.74232 17.1762 5.74232 15.5521C5.74232 14.1374 6.26968 12.904 7.05072 12.2551C7.42251 11.9462 7.76085 11.5437 7.85294 11.0377C7.85692 11.0159 7.86093 10.994 7.86499 10.9722C7.90956 10.7324 7.89973 10.4841 7.83607 10.2496C7.21843 7.97466 6.96382 5.24347 8.31125 3.69887C9.07024 2.82882 9.86058 2.48295 10.5957 2.4408C10.9822 2.41864 11.3655 2.28578 11.6587 2.00459C12.8704 0.84222 14.5767 0 16.9247 0C22.1603 0 25.3173 5.13926 26.4903 8.31436C26.6398 8.7189 26.4123 9.16055 26.0282 9.25402C25.6486 9.34642 25.4233 9.78108 25.5207 10.1997C25.5848 10.4751 25.6428 10.7545 25.6943 11.0377Z" fill="#EE9C2D"/>
</mask>
<g mask="url(#mask0)">
<g clip-path="url(#clip0)">
<rect width="32.827" height="42" transform="translate(2)" fill="#E84B37"/>
<path d="M-70.3957 -17.0646C-73.1206 -20.0844 -77.9576 -20.9778 -86.1001 -18.6013C-77.8448 -21.7461 -73.0722 -20.7991 -70.3957 -17.0646ZM34.827 42.5629V43.4742C28.3614 42.5093 22.3796 38.9892 16.1397 35.9694C28.1357 43.2062 31.6345 47.0837 34.827 47.2624V64.4519C12.786 73.279 -18.0423 56.8757 -4.77258 50.1035C0.967415 47.173 26.7813 57.4117 16.2848 42.5272C18.0584 46.1009 18.3809 49.8533 12.2862 48.7812C14.35 48.4059 16.7686 47.5304 14.9788 44.5285C13.1891 41.5265 15.0594 49.4602 2.41854 45.3861C-7.57809 42.1698 -22.0893 50.9254 -12.5764 40.3829C-33.2146 57.0007 8.0618 76.8527 31.8602 69.3658C29.0064 70.2056 24.4595 70.4736 19.3161 70.1163C24.6691 70.0269 29.8609 68.7225 34.8109 66.4889V71.9567C16.8814 84.9829 0.161232 87.9849 -30.2318 75.048C-4.04703 93.0953 -34.311 84.6434 -34.9882 84.429C-32.5858 85.1616 -20.6382 87.0378 -21.7669 84.7149C-22.8955 82.392 -31.828 83.1603 -38.6967 80.1763C-35.8589 79.8547 -30.8445 81.9453 -37.0843 75.9772C-24.9432 87.0914 -34.3594 74.9944 -41.0185 69.5445C-41.9536 68.6868 -42.8404 67.7755 -43.695 66.8106C-42.8243 67.5968 -42.0987 67.7755 -41.615 67.1501C-43.4048 63.7193 -44.9687 60.4851 -46.3392 57.4296C-45.9523 58.0014 -45.5492 58.591 -45.1138 59.1628C-70.1861 1.80466 -7.25562 -20.8348 -4.434 -40.6868C-4.65973 -39.9006 -5.01445 -39.1144 -5.51427 -38.3461C-4.74035 -40.6332 -4.32113 -42.295 -4.56298 -43.9389H-0.532082C-0.451462 -43.7066 -0.354721 -43.4565 -0.29023 -43.2063C-0.0806198 -43.4565 0.0967331 -43.7066 0.257973 -43.9389H5.70776C5.72388 -40.4903 3.46658 -36.3984 -2.98287 -31.1629C1.96708 -34.6473 6.12697 -38.8821 7.06213 -43.9568H9.70641C3.17635 -36.452 -6.09473 -25.2841 -11.4961 -23.1578C-29.4578 -13.8125 -40.7766 6.02165 -43.4692 25.4805C-41.1797 17.0466 -36.7941 8.36244 -30.8283 0.0892792C-39.5996 13.3656 -44.7591 28.679 -43.6144 41.8124C-43.0984 45.7078 -42.1632 49.4423 -40.7927 52.9088C-36.3426 62.7008 -26.6684 69.9555 -10.0611 72.0461C-30.264 59.7704 -31.6829 28.8756 -5.64326 25.3376C2.66039 23.8188 10.432 26.4633 18.0746 29.4295C8.2714 26.6956 -5.07894 22.2106 -12.9311 29.4831C-4.33726 28.3574 4.53073 29.4116 12.8021 32.485C3.62782 30.448 -8.83574 25.3197 -16.1075 34.5399C-14.1888 33.2355 -11.609 30.7339 -6.44945 30.7339C-14.0275 32.3421 -13.5438 34.665 -6.32046 34.1647C-18.784 35.0581 -30.9573 45.5648 -19.042 59.9669C-7.12664 74.369 4.99831 74.4762 0.822296 77.496C-6.61069 82.9102 -30.393 70.9382 -37.826 59.1092C-38.0678 58.8233 -38.2936 58.5374 -38.5354 58.2515C-28.829 74.6728 -2.88613 86.3946 12.5119 78.0499C19.0258 74.5119 -37.8905 59.145 -17.7843 39.2394C-12.3507 33.8609 1.83809 33.8073 9.02921 40.7046C4.35337 37.3453 -12.4152 35.487 -7.25562 40.7403C-3.38596 44.6714 13.8018 46.9765 11.1414 41.7231C9.60966 39.4895 7.64259 37.792 5.43365 36.5591C5.4659 36.5769 5.49815 36.5769 5.5304 36.5948C-13.1891 24.9087 7.9973 31.6631 27.5069 40.6152C30.0383 42.0626 32.4891 42.6344 34.827 42.5629ZM-37.2133 59.8061C-37.2133 59.8061 -30.2318 68.8119 -18.7034 73.2611C-9.64192 76.7455 -1.66074 76.138 -1.61237 75.7627C-1.564 75.3518 -11.1898 75.4232 -22.5731 69.8661C-31.9086 65.3096 -37.2133 59.8061 -37.2133 59.8061ZM-13.9469 -23.5151C-10.7222 -25.9453 -7.49748 -28.3575 -4.27276 -30.7876C-6.9654 -29.5904 -11.9637 -25.838 -13.9469 -23.5151ZM-44.1787 44.6714C-44.3077 42.8845 -45.259 37.1487 -45.13 35.2904C-46.2586 16.8321 -38.6644 -3.46657 -21.8959 -16.2247C-42.6308 -1.94774 -49.8219 18.5833 -44.1787 44.6714ZM-46.0651 15.635C-43.9691 11.0249 -41.7763 6.18247 -39.5512 1.28648C-41.7763 4.21692 -46.2103 13.9374 -46.0651 15.635ZM-24.0564 75.4769C-33.779 70.295 -42.6469 62.3434 -47.226 51.2828C-45.259 60.7353 -32.3117 74.9229 -24.0564 75.4769ZM17.0265 40.7761C18.3487 42.956 19.1871 43.778 21.1058 47.6019C27.9261 61.1999 -9.78703 44.5821 -5.70776 55.9644C-3.22472 62.8974 14.1888 66.2924 19.3483 66.2924C5.15955 63.4334 -4.25663 59.2879 -3.27309 54.7136C-1.7736 47.8878 42.7276 71.653 17.0265 40.7761ZM-55.304 36.4519C-55.4007 33.2534 -55.6748 26.4097 -55.1427 23.2291C-56.0457 25.8022 -55.6748 32.7888 -55.304 36.4519ZM-43.695 66.7927C-44.3077 66.1137 -44.8881 65.4168 -45.4524 64.6842C-44.8236 65.5955 -44.2271 66.3103 -43.695 66.7927ZM-45.4524 64.7021C-49.2576 59.1807 -54.0947 49.2815 -55.1427 39.1321C-54.8525 49.4423 -51.5633 56.8578 -45.4524 64.7021ZM-19.7192 -41.4373C-18.8969 -39.9364 -18.526 -38.2924 -18.3809 -36.72C-18.3325 -38.4711 -18.7195 -40.0972 -19.7192 -41.4373ZM-21.7346 -43.9568H-23.3631C-21.7024 -43.3493 -20.5254 -42.4916 -19.7353 -41.4373C-20.219 -42.3307 -20.8639 -43.1884 -21.7346 -43.9568ZM-47.7259 55.0352C-51.4343 46.7084 -51.9825 43.5814 -53.0467 37.3453C-52.8371 44.7429 -52.2405 47.3517 -47.7259 55.0352ZM-52.7242 70.5809C-46.9197 77.907 -33.0534 82.1954 -40.4703 73.6185C-38.3742 79.5152 -48.2096 75.048 -52.7242 70.5809ZM-30.6026 -38.9715C-30.6832 -40.7047 -31.0379 -42.3665 -31.7151 -43.9568H-35.214C-34.1659 -43.4565 -33.1824 -42.8132 -32.2633 -41.9734C-33.8757 -42.6345 -35.4881 -43.2778 -37.1649 -43.9568H-38.8901C-34.8915 -42.8668 -31.6668 -41.205 -30.6026 -38.9715ZM34.827 -43.9568V-36.9344C24.0887 -41.8483 14.9949 -37.7385 9.8354 -32.8783C4.67584 -28.018 -2.54753 -27.0888 -8.17467 -23.3007C-2.24119 -27.9287 5.96574 -29.8406 10.8673 -35.3799C15.7689 -40.9191 13.9147 -41.7232 14.8982 -43.9568H34.827ZM26.7007 -41.6696C23.2341 -41.616 20.2674 -40.115 17.3651 -38.3639C20.4286 -39.6326 23.5566 -40.7404 26.7007 -41.6696ZM18.526 68.3294C14.7209 68.0614 10.5932 67.4538 6.59456 66.4889C10.6255 67.8291 14.608 68.4009 18.526 68.3294ZM7.40073 68.2937C5.07893 67.5253 2.75713 66.5247 0.403084 65.2381C-23.3792 50.568 -2.57978 46.8156 7.43298 48.6918C1.45112 45.9222 -16.1236 42.5093 -11.1414 56.5898C-12.2378 55.0709 -14.5112 52.891 -14.0275 48.7812C-17.2523 58.6089 -3.30534 65.7027 7.40073 68.2937ZM-10.9641 -20.9063C-19.6386 -15.0633 -24.7014 -9.18452 -30.8122 0.0714111C-24.7014 -8.3983 -19.7514 -14.0448 -10.9641 -20.9063ZM34.827 36.4519V34.9509C32.4729 34.522 25.3947 32.2349 23.0568 31.4487C26.2976 32.8603 34.0853 35.9158 34.827 36.4519ZM-29.1354 -43.9568H-23.5405C-12.5442 -37.4884 -26.9748 -26.6421 -29.3772 -19.1373C-25.2012 -21.4424 -18.6066 -30.055 -18.3809 -36.7021C-17.7198 -29.2688 -22.1538 -23.0327 -8.59388 -36.5949C-6.27209 -38.2924 -5.83675 -41.0621 -6.72355 -43.9568H-5.90125C-4.45012 -28.5719 -32.3762 -20.7455 -35.1817 -13.1692C-28.3292 -14.8489 -39.7447 -9.0773 -38.0517 -7.88011C-30.7316 -13.2049 -25.0722 -20.817 -17.607 -25.9095C-35.0205 -12.4009 -54.0141 12.0076 -53.3208 35.7729C-58.3997 6.111 -24.7175 -26.0167 -26.4105 -37.8457C-27.2489 -43.5994 -28.3614 -42.438 -29.1354 -43.9568ZM-32.4085 -19.3696C-33.3436 -19.6376 -35.085 -17.8329 -35.1172 -15.921C-34.0853 -17.2254 -33.2469 -18.2975 -32.4085 -19.3696ZM-23.3954 -37.0238C-23.605 -37.7385 -23.7984 -38.3818 -24.0403 -39.2216C-24.8304 -37.7028 -24.6369 -37.0238 -23.3954 -37.0238ZM-21.654 -36.2733C-22.1377 -37.1846 -21.9765 -39.2752 -22.8794 -38.9C-22.5247 -38.0959 -23.7339 -36.72 -21.654 -36.2733ZM-27.2811 -43.4743C-25.7172 -37.5956 -24.9432 -43.5101 -21.4444 -39.6147C-21.7669 -41.7768 -24.4918 -43.7602 -27.2811 -43.4743ZM-62.3984 63.076C-58.1901 72.0461 -55.4168 77.4603 -42.8888 80.5873C-50.5314 76.8885 -56.4649 72.1354 -62.3984 63.076ZM-87.8737 64.2018V65.7206C-80.6342 74.5834 -73.0238 84.8043 -64.6234 88.8783C-63.0433 89.9861 -61.4471 91.0404 -59.8347 92.0232H-57.5452C-63.2045 89.0034 -68.2996 85.3761 -72.5724 81.1769C-77.6513 77.3888 -82.698 70.5451 -87.8737 64.2018ZM-87.8737 -20.7455V-22.1035C-49.8219 -38.9536 -63.6882 9.2916 -65.4618 21.2457C-67.2354 33.1998 -63.0433 56.286 -59.6573 50.6931C-56.2714 45.1003 -68.0416 37.3453 -45.4202 -11.2037C-55.2878 4.19905 -61.4309 31.27 -63.9623 31.3414C-66.4938 31.4129 -65.1394 22.157 -63.6882 18.5833C-65.4618 54.1418 -38.7934 -48.9243 -86.4225 -26.4277C-86.8095 -26.1954 -87.2932 -25.9631 -87.8737 -25.713V-30.055C-73.8139 -38.1316 -65.6231 -42.9919 -53.9335 -42.9919C-42.2439 -42.9919 -32.9728 -40.258 -30.6832 -36.4162C-32.9889 -12.8118 -78.1672 23.1398 -47.4518 66.8821C-40.9378 74.8693 -44.0174 75.4054 -50.9506 69.5087C-57.8837 63.6121 -65.2522 49.8354 -68.1545 33.164C-67.9449 43.0811 -66.7034 52.891 -62.8498 61.0748C-66.9291 54.8565 -68.6866 49.6746 -69.7668 37.9171C-70.8471 26.1596 -67.5902 9.09505 -67.2677 -4.16344C-66.7517 -6.10352e-05 -66.7679 2.59088 -66.913 6.25394C-59.5606 -21.7997 -73.8622 -26.6421 -87.8737 -20.7455ZM-70.6375 -37.0416C-73.2012 -36.4877 -78.264 -34.5936 -80.1666 -32.8783C-76.9902 -34.272 -73.8139 -35.6479 -70.6375 -37.0416ZM-37.3423 -37.3275C-34.9721 -34.8259 -35.7138 -30.6268 -37.0359 -27.1603C-36.8586 -27.4462 -36.6651 -27.75 -36.4555 -28.0537C-34.2627 -31.556 -34.9882 -35.1476 -37.3423 -37.3275ZM-37.5035 -35.1118C-37.31 -32.1814 -37.6003 -29.6083 -38.4548 -26.66C-36.262 -30.2694 -35.9234 -33.2714 -37.5035 -35.1118ZM-52.6758 -40.0614C-50.1122 -40.0614 -47.5646 -40.0614 -45.001 -40.0614C-47.1777 -40.2937 -50.4669 -40.2937 -52.6758 -40.0614ZM-38.084 -34.3435C-40.6154 -40.9727 -50.8055 -39.7219 -56.2714 -38.7749C-50.2734 -38.7928 -42.1794 -40.3652 -38.084 -34.3435ZM-39.0191 -26.9638C-40.7605 -22.9612 -44.3399 -20.6561 -46.4037 -16.9752C-44.1787 -17.1182 -39.261 -24.1941 -39.0191 -26.9638ZM30.8445 3.34137C27.6197 -0.500381 27.4585 -1.19726 29.1515 -3.69886C25.83 -1.87626 28.6194 1.91188 30.8445 3.34137ZM23.6694 -37.9708C27.3779 -38.1852 31.1347 -37.0774 34.827 -36.1303V-36.2912C31.1992 -37.8636 27.6036 -39.4718 23.6694 -37.9708ZM34.827 28.9113V26.7671C30.7477 25.3912 26.7652 24.1583 22.7504 23.6401C26.5556 24.9981 30.6993 28.0894 34.827 28.9113ZM-87.8737 71.5994C-81.4242 78.7111 -74.9425 85.8585 -68.0577 92.0232H-64.7685C-72.8626 84.3397 -80.3117 74.9229 -87.8737 67.847V71.5994ZM-87.8737 72.8859V81.3199C-83.2301 83.8751 -78.135 87.4131 -72.5724 92.0232H-70.0732C-76.2324 87.6811 -82.0692 79.9261 -87.8737 72.8859ZM34.827 5.27117V-5.18195C33.7951 -4.52081 32.6825 -3.87754 31.4894 -3.25214C30.4575 0.035675 32.1021 3.12694 34.827 5.27117ZM26.7974 -3.71673C23.0729 -1.69758 25.7978 0.357311 27.5552 2.53728C26.0235 -0.786278 24.3305 -1.12578 26.7974 -3.71673ZM17.349 -28.1788C25.6365 -30.734 29.4901 -28.286 34.827 -25.2484V-25.6772C29.345 -28.6434 26.6039 -31.8061 17.349 -28.1788ZM34.827 -11.8291V-11.8469C34.7625 -11.8112 34.698 -11.7755 34.6335 -11.7397C34.698 -11.7755 34.7625 -11.8112 34.827 -11.8291ZM33.7628 92.0232C34.1176 91.8087 34.4723 91.6122 34.827 91.3978V90.415C34.1175 90.9689 33.392 91.4871 32.6664 92.0232H33.7628ZM-87.6641 -43.9568C-87.7124 -43.9389 -87.7608 -43.921 -87.793 -43.9032C-87.7447 -43.921 -87.6963 -43.9389 -87.6479 -43.9568H-87.6641ZM-87.8737 -43.8853C-87.8414 -43.8853 -87.8253 -43.9032 -87.793 -43.9032C-87.8253 -43.9032 -87.8414 -43.8853 -87.8737 -43.8853ZM-82.5206 -43.9568C-84.5199 -43.0812 -86.3097 -42.3844 -87.8737 -41.8483V-36.0946C-81.005 -39.168 -73.9429 -41.7768 -67.1709 -43.9568H-82.5206ZM-38.4871 92.0232H-35.7783C-39.5835 90.4865 -49.7252 84.1788 -50.999 83.3926C-46.2103 87.1629 -41.8246 90.1112 -38.4871 92.0232ZM-87.8737 -12.3651V-15.4028C-53.1273 -25.2305 -86.4225 44.6178 -59.6896 75.995C-84.3265 58.7876 -73.8461 21.6209 -76.2485 -3.77034C-77.0386 -12.1507 -82.0692 -13.0084 -87.8737 -12.3651ZM-78.6832 -13.4015C-70.4602 -3.39509 -75.8616 17.5112 -75.3617 32.5386C-75.4101 21.7639 -64.9781 -10.0065 -78.6832 -13.4015ZM8.15854 92.0232C16.9459 89.4858 25.2657 85.4475 32.4084 79.8189C33.2308 78.9255 34.0369 78.0499 34.8109 77.2101V73.8151C23.4437 81.6415 11.6896 88.2886 0.0483627 92.0232H8.15854ZM-58.7705 77.0135C-56.8841 79.0506 -54.6268 80.8553 -51.918 82.3741L-58.7705 77.0135ZM13.2214 26.8028C3.62781 19.3695 27.5391 33.3963 34.827 34.3255V31.1985C23.1857 27.5712 -6.85254 17.2253 13.2214 26.8028ZM-75.3779 58.8412C-73.3624 64.3269 -71.2663 72.9038 -58.5287 80.4086C-68.3641 71.4743 -71.7501 65.7563 -75.3779 58.8412ZM-84.004 38.5961C-83.5203 46.1009 -79.8925 51.1577 -76.5871 55.5712C-84.7779 28.5539 -68.4286 -10.5068 -87.8737 -10.9178V-8.52338C-86.3097 -8.77354 -86.1001 -10.7212 -83.1172 -9.09517C-75.5713 -4.48508 -78.2962 9.59537 -80.1021 16.4569C-80.5213 10.0063 -77.3611 0.732548 -82.8753 -3.68099C-88.1961 -5.59293 -81.8918 3.77021 -82.9237 6.64705C-84.0524 2.80531 -85.7615 0.303703 -87.8737 -1.16152V3.30563C-81.9079 9.5775 -83.3268 27.0708 -83.1172 34.5757C-85.5357 29.2329 -86.487 23.0862 -87.8737 17.2253V45.4934C-84.3265 52.6229 -81.3758 60.2886 -79.1669 66.0958C-82.1337 61.9682 -84.9553 56.9293 -87.8737 51.9797V60.7174C-80.3762 68.6868 -72.7497 79.1578 -64.4783 86.1087C-68.6866 83.3033 -72.7013 80.087 -76.4743 76.4596C-71.3147 81.7845 -65.5908 86.198 -59.4961 89.7717C-58.6416 90.3078 -57.787 90.7902 -56.9163 91.2191C-56.4165 91.4871 -55.9328 91.7373 -55.433 92.0053H-39.6157C-73.2012 83.4462 -85.1326 48.4238 -84.004 38.5961ZM30.651 92.0232C32.0698 91.2727 33.4726 90.4686 34.827 89.6109V80.087C27.136 85.3761 19.7192 89.2893 12.5925 92.0232H30.651ZM22.2183 36.3268C26.9425 39.0964 30.9573 41.2764 34.827 41.2228V36.6663C34.4239 36.6484 33.263 36.3268 31.0863 35.5942C39.3577 44.2962 27.9583 39.6146 22.2183 36.3268ZM-87.8737 92.0232H-77.619C-81.0695 89.8253 -84.5199 87.5918 -87.8737 85.6262V92.0232ZM-31.9247 17.118C-31.9247 17.1002 -31.9086 17.0823 -31.9086 17.0644C-31.9086 17.0823 -31.9086 17.1002 -31.9247 17.118ZM-31.7313 16.6892C-31.7958 16.8143 -31.8441 16.9394 -31.9086 17.0644C-31.8441 16.9394 -31.7958 16.8143 -31.7313 16.6892ZM-31.6668 16.5641C-31.6829 16.5999 -31.699 16.6177 -31.7151 16.6535C-31.699 16.6177 -31.6829 16.5999 -31.6668 16.5641ZM-31.7151 16.6535C-31.7151 16.6713 -31.7313 16.6713 -31.7313 16.6892C-31.7313 16.6713 -31.7151 16.6713 -31.7151 16.6535ZM-30.4736 17.6898C-40.309 28.411 -35.7944 54.4991 -32.6987 45.9579C-26.6523 29.3223 -12.4152 14.2948 5.48203 22.8717C-3.70844 16.9751 13.2052 20.656 23.4921 22.6394C12.1733 19.7626 0.419212 15.8494 -10.7706 19.709C-7.27174 17.9221 -5.20793 17.1716 -1.28989 17.1538C-10.4642 16.1174 -18.0423 18.4046 -25.8623 25.016C-33.6822 31.6273 -22.4118 9.64898 -24.0242 8.57686C-25.5237 7.57622 -29.6674 12.2935 -31.6668 16.5641C-29.0709 11.1142 -25.4592 12.222 -30.4736 17.6898ZM-32.086 17.5112C-32.0376 17.3682 -31.9731 17.2431 -31.9247 17.118C-31.9731 17.2431 -32.0376 17.3861 -32.086 17.5112ZM2.09607 17.1538C11.8831 18.2616 17.8166 21.1563 27.2489 22.3357C17.6392 20.1021 11.4478 17.0823 2.09607 17.1538ZM22.2183 36.3268C21.9604 36.1838 21.7185 36.023 21.4605 35.8801C21.6862 36.0409 21.9442 36.1838 22.2183 36.3268ZM-72.0725 -41.348C-70.573 -41.9555 -69.0735 -42.563 -67.574 -43.1706C-69.3315 -43.8138 -70.7181 -42.2414 -72.0725 -41.348ZM-61.0762 -43.9568H-63.7366C-74.6039 -38.9357 -95.9193 -29.9657 -61.0762 -43.9568ZM-18.0746 83.5356C-10.6577 87.3059 -18.2036 88.2886 -22.3151 88.1636C-16.1397 89.2178 -8.94861 86.6447 -18.0746 83.5356ZM-10.1256 85.4475C-5.43365 89.0927 -11.7541 89.4501 -14.6886 89.8074C-11.4316 89.5752 -2.30568 89.0748 -10.1256 85.4475ZM-1.30602 85.2331C9.02922 90.0755 -1.80585 90.951 -7.57809 92.0232H-5.4659C1.20927 91.2012 11.1737 88.6639 -1.30602 85.2331ZM34.827 24.2119V23.5329C33.1179 23.515 31.3765 23.3899 29.6029 23.1755C31.3765 23.5686 33.1179 23.926 34.827 24.2119ZM-36.6006 56.6434C-34.5045 60.5744 -30.4736 63.6121 -28.7 63.9695C-30.9573 62.7187 -34.182 59.8597 -36.6006 56.6434ZM-18.2197 68.6153C-38.6644 45.4219 -19.1871 24.3012 -5.32079 21.6209C-14.8337 21.9783 -34.6658 38.06 -29.8287 53.6057C-33.2146 53.1947 -37.0843 46.9943 -38.1485 40.8297C-37.4068 50.032 -31.6023 59.8597 -18.2197 68.6153ZM-30.4736 60.0384C-36.9231 53.6057 -39.7608 43.8852 -39.7931 37.4525C-40.4864 44.1532 -39.0191 52.891 -30.4736 60.0384ZM34.827 25.3376V24.8551C33.65 24.7301 32.4568 24.5692 31.2475 24.3548C32.5374 24.6765 33.7306 24.9981 34.827 25.3376ZM34.827 -34.7187V-31.1629C30.6993 -32.8068 30.4736 -34.6651 20.0578 -32.8604C9.64191 -31.0557 -19.4289 -14.4558 -25.7494 -1.62611C-15.1562 -15.9031 26.9587 -38.9178 34.827 -22.2107V-13.9197C24.2015 -6.27193 -7.93282 -3.05559 -4.48236 3.64513C-2.95062 5.8251 1.77359 8.05867 6.2882 4.66364C-2.57978 2.51941 13.302 -3.87754 15.7205 -5.00327C-4.04703 4.94954 12.8989 3.23415 21.6379 4.37774C30.3769 5.52133 31.1347 7.64769 34.827 9.18439V9.6311C26.9103 7.25458 25.6365 4.50282 10.4803 5.12822C27.5714 6.27181 19.6708 12.3471 34.827 12.7581V20.7632C18.5421 20.9241 13.8663 15.7064 1.74134 15.7064C-10.3836 15.7064 -17.6392 16.7785 -22.5247 20.0664C-31.1186 26.2668 -18.7034 6.25394 -17.5425 3.28776C-9.98051 -15.0275 -37.5035 15.4563 -39.7931 37.4525C-39.8737 18.6369 -24.8304 -5.00327 -7.41686 -6.07538C-1.93484 -6.43275 -35.1495 23.2291 -18.5422 17.6898C-32.086 16.7964 13.2214 -9.82779 -0.46759 -9.57763C-23.8307 -9.14878 -34.4723 10.6854 -41.0023 28.5182C-43.2758 0.125019 9.02921 -39.6326 34.827 -34.7187ZM6.82028 5.89657C8.30365 6.93295 11.3994 6.48624 13.7534 6.71853C11.4478 6.27181 9.17432 5.27117 6.82028 5.89657ZM-6.53006 14.8666C-11.6574 14.4914 -22.5731 18.2259 -14.35 9.64898C-24.3466 18.9406 -12.2862 15.5635 -6.53006 14.8666Z" fill="#BD93B9"/>
<path d="M-70.3957 -17.0646C-73.1206 -20.0844 -77.9576 -20.9778 -86.1001 -18.6013C-77.8448 -21.7461 -73.0722 -20.7991 -70.3957 -17.0646ZM34.827 42.5629V43.4742C28.3614 42.5093 22.3796 38.9892 16.1397 35.9694C28.1357 43.2062 31.6345 47.0837 34.827 47.2624V64.4519C12.786 73.279 -18.0423 56.8757 -4.77258 50.1035C0.967415 47.173 26.7813 57.4117 16.2848 42.5272C18.0584 46.1009 18.3809 49.8533 12.2862 48.7812C14.35 48.4059 16.7686 47.5304 14.9788 44.5285C13.1891 41.5265 15.0594 49.4602 2.41854 45.3861C-7.57809 42.1698 -22.0893 50.9254 -12.5764 40.3829C-33.2146 57.0007 8.0618 76.8527 31.8602 69.3658C29.0064 70.2056 24.4595 70.4736 19.3161 70.1163C24.6691 70.0269 29.8609 68.7225 34.8109 66.4889V71.9567C16.8814 84.9829 0.161232 87.9849 -30.2318 75.048C-4.04703 93.0953 -34.311 84.6434 -34.9882 84.429C-32.5858 85.1616 -20.6382 87.0378 -21.7669 84.7149C-22.8955 82.392 -31.828 83.1603 -38.6967 80.1763C-35.8589 79.8547 -30.8445 81.9453 -37.0843 75.9772C-24.9432 87.0914 -34.3594 74.9944 -41.0185 69.5445C-41.9536 68.6868 -42.8404 67.7755 -43.695 66.8106C-42.8243 67.5968 -42.0987 67.7755 -41.615 67.1501C-43.4048 63.7193 -44.9687 60.4851 -46.3392 57.4296C-45.9523 58.0014 -45.5492 58.591 -45.1138 59.1628C-70.1861 1.80466 -7.25562 -20.8348 -4.434 -40.6868C-4.65973 -39.9006 -5.01445 -39.1144 -5.51427 -38.3461C-4.74035 -40.6332 -4.32113 -42.295 -4.56298 -43.9389H-0.532082C-0.451462 -43.7066 -0.354721 -43.4565 -0.29023 -43.2063C-0.0806198 -43.4565 0.0967331 -43.7066 0.257973 -43.9389H5.70776C5.72388 -40.4903 3.46658 -36.3984 -2.98287 -31.1629C1.96708 -34.6473 6.12697 -38.8821 7.06213 -43.9568H9.70641C3.17635 -36.452 -6.09473 -25.2841 -11.4961 -23.1578C-29.4578 -13.8125 -40.7766 6.02165 -43.4692 25.4805C-41.1797 17.0466 -36.7941 8.36244 -30.8283 0.0892792C-39.5996 13.3656 -44.7591 28.679 -43.6144 41.8124C-43.0984 45.7078 -42.1632 49.4423 -40.7927 52.9088C-36.3426 62.7008 -26.6684 69.9555 -10.0611 72.0461C-30.264 59.7704 -31.6829 28.8756 -5.64326 25.3376C2.66039 23.8188 10.432 26.4633 18.0746 29.4295C8.2714 26.6956 -5.07894 22.2106 -12.9311 29.4831C-4.33726 28.3574 4.53073 29.4116 12.8021 32.485C3.62782 30.448 -8.83574 25.3197 -16.1075 34.5399C-14.1888 33.2355 -11.609 30.7339 -6.44945 30.7339C-14.0275 32.3421 -13.5438 34.665 -6.32046 34.1647C-18.784 35.0581 -30.9573 45.5648 -19.042 59.9669C-7.12664 74.369 4.99831 74.4762 0.822296 77.496C-6.61069 82.9102 -30.393 70.9382 -37.826 59.1092C-38.0678 58.8233 -38.2936 58.5374 -38.5354 58.2515C-28.829 74.6728 -2.88613 86.3946 12.5119 78.0499C19.0258 74.5119 -37.8905 59.145 -17.7843 39.2394C-12.3507 33.8609 1.83809 33.8073 9.02921 40.7046C4.35337 37.3453 -12.4152 35.487 -7.25562 40.7403C-3.38596 44.6714 13.8018 46.9765 11.1414 41.7231C9.60966 39.4895 7.64259 37.792 5.43365 36.5591C5.4659 36.5769 5.49815 36.5769 5.5304 36.5948C-13.1891 24.9087 7.9973 31.6631 27.5069 40.6152C30.0383 42.0626 32.4891 42.6344 34.827 42.5629ZM-37.2133 59.8061C-37.2133 59.8061 -30.2318 68.8119 -18.7034 73.2611C-9.64192 76.7455 -1.66074 76.138 -1.61237 75.7627C-1.564 75.3518 -11.1898 75.4232 -22.5731 69.8661C-31.9086 65.3096 -37.2133 59.8061 -37.2133 59.8061ZM-13.9469 -23.5151C-10.7222 -25.9453 -7.49748 -28.3575 -4.27276 -30.7876C-6.9654 -29.5904 -11.9637 -25.838 -13.9469 -23.5151ZM-44.1787 44.6714C-44.3077 42.8845 -45.259 37.1487 -45.13 35.2904C-46.2586 16.8321 -38.6644 -3.46657 -21.8959 -16.2247C-42.6308 -1.94774 -49.8219 18.5833 -44.1787 44.6714ZM-46.0651 15.635C-43.9691 11.0249 -41.7763 6.18247 -39.5512 1.28648C-41.7763 4.21692 -46.2103 13.9374 -46.0651 15.635ZM-24.0564 75.4769C-33.779 70.295 -42.6469 62.3434 -47.226 51.2828C-45.259 60.7353 -32.3117 74.9229 -24.0564 75.4769ZM17.0265 40.7761C18.3487 42.956 19.1871 43.778 21.1058 47.6019C27.9261 61.1999 -9.78703 44.5821 -5.70776 55.9644C-3.22472 62.8974 14.1888 66.2924 19.3483 66.2924C5.15955 63.4334 -4.25663 59.2879 -3.27309 54.7136C-1.7736 47.8878 42.7276 71.653 17.0265 40.7761ZM-55.304 36.4519C-55.4007 33.2534 -55.6748 26.4097 -55.1427 23.2291C-56.0457 25.8022 -55.6748 32.7888 -55.304 36.4519ZM-43.695 66.7927C-44.3077 66.1137 -44.8881 65.4168 -45.4524 64.6842C-44.8236 65.5955 -44.2271 66.3103 -43.695 66.7927ZM-45.4524 64.7021C-49.2576 59.1807 -54.0947 49.2815 -55.1427 39.1321C-54.8525 49.4423 -51.5633 56.8578 -45.4524 64.7021ZM-19.7192 -41.4373C-18.8969 -39.9364 -18.526 -38.2924 -18.3809 -36.72C-18.3325 -38.4711 -18.7195 -40.0972 -19.7192 -41.4373ZM-21.7346 -43.9568H-23.3631C-21.7024 -43.3493 -20.5254 -42.4916 -19.7353 -41.4373C-20.219 -42.3307 -20.8639 -43.1884 -21.7346 -43.9568ZM-47.7259 55.0352C-51.4343 46.7084 -51.9825 43.5814 -53.0467 37.3453C-52.8371 44.7429 -52.2405 47.3517 -47.7259 55.0352ZM-52.7242 70.5809C-46.9197 77.907 -33.0534 82.1954 -40.4703 73.6185C-38.3742 79.5152 -48.2096 75.048 -52.7242 70.5809ZM-30.6026 -38.9715C-30.6832 -40.7047 -31.0379 -42.3665 -31.7151 -43.9568H-35.214C-34.1659 -43.4565 -33.1824 -42.8132 -32.2633 -41.9734C-33.8757 -42.6345 -35.4881 -43.2778 -37.1649 -43.9568H-38.8901C-34.8915 -42.8668 -31.6668 -41.205 -30.6026 -38.9715ZM34.827 -43.9568V-36.9344C24.0887 -41.8483 14.9949 -37.7385 9.8354 -32.8783C4.67584 -28.018 -2.54753 -27.0888 -8.17467 -23.3007C-2.24119 -27.9287 5.96574 -29.8406 10.8673 -35.3799C15.7689 -40.9191 13.9147 -41.7232 14.8982 -43.9568H34.827ZM26.7007 -41.6696C23.2341 -41.616 20.2674 -40.115 17.3651 -38.3639C20.4286 -39.6326 23.5566 -40.7404 26.7007 -41.6696ZM18.526 68.3294C14.7209 68.0614 10.5932 67.4538 6.59456 66.4889C10.6255 67.8291 14.608 68.4009 18.526 68.3294ZM7.40073 68.2937C5.07893 67.5253 2.75713 66.5247 0.403084 65.2381C-23.3792 50.568 -2.57978 46.8156 7.43298 48.6918C1.45112 45.9222 -16.1236 42.5093 -11.1414 56.5898C-12.2378 55.0709 -14.5112 52.891 -14.0275 48.7812C-17.2523 58.6089 -3.30534 65.7027 7.40073 68.2937ZM-10.9641 -20.9063C-19.6386 -15.0633 -24.7014 -9.18452 -30.8122 0.0714111C-24.7014 -8.3983 -19.7514 -14.0448 -10.9641 -20.9063ZM34.827 36.4519V34.9509C32.4729 34.522 25.3947 32.2349 23.0568 31.4487C26.2976 32.8603 34.0853 35.9158 34.827 36.4519ZM-29.1354 -43.9568H-23.5405C-12.5442 -37.4884 -26.9748 -26.6421 -29.3772 -19.1373C-25.2012 -21.4424 -18.6066 -30.055 -18.3809 -36.7021C-17.7198 -29.2688 -22.1538 -23.0327 -8.59388 -36.5949C-6.27209 -38.2924 -5.83675 -41.0621 -6.72355 -43.9568H-5.90125C-4.45012 -28.5719 -32.3762 -20.7455 -35.1817 -13.1692C-28.3292 -14.8489 -39.7447 -9.0773 -38.0517 -7.88011C-30.7316 -13.2049 -25.0722 -20.817 -17.607 -25.9095C-35.0205 -12.4009 -54.0141 12.0076 -53.3208 35.7729C-58.3997 6.111 -24.7175 -26.0167 -26.4105 -37.8457C-27.2489 -43.5994 -28.3614 -42.438 -29.1354 -43.9568ZM-32.4085 -19.3696C-33.3436 -19.6376 -35.085 -17.8329 -35.1172 -15.921C-34.0853 -17.2254 -33.2469 -18.2975 -32.4085 -19.3696ZM-23.3954 -37.0238C-23.605 -37.7385 -23.7984 -38.3818 -24.0403 -39.2216C-24.8304 -37.7028 -24.6369 -37.0238 -23.3954 -37.0238ZM-21.654 -36.2733C-22.1377 -37.1846 -21.9765 -39.2752 -22.8794 -38.9C-22.5247 -38.0959 -23.7339 -36.72 -21.654 -36.2733ZM-27.2811 -43.4743C-25.7172 -37.5956 -24.9432 -43.5101 -21.4444 -39.6147C-21.7669 -41.7768 -24.4918 -43.7602 -27.2811 -43.4743ZM-62.3984 63.076C-58.1901 72.0461 -55.4168 77.4603 -42.8888 80.5873C-50.5314 76.8885 -56.4649 72.1354 -62.3984 63.076ZM-87.8737 64.2018V65.7206C-80.6342 74.5834 -73.0238 84.8043 -64.6234 88.8783C-63.0433 89.9861 -61.4471 91.0404 -59.8347 92.0232H-57.5452C-63.2045 89.0034 -68.2996 85.3761 -72.5724 81.1769C-77.6513 77.3888 -82.698 70.5451 -87.8737 64.2018ZM-87.8737 -20.7455V-22.1035C-49.8219 -38.9536 -63.6882 9.2916 -65.4618 21.2457C-67.2354 33.1998 -63.0433 56.286 -59.6573 50.6931C-56.2714 45.1003 -68.0416 37.3453 -45.4202 -11.2037C-55.2878 4.19905 -61.4309 31.27 -63.9623 31.3414C-66.4938 31.4129 -65.1394 22.157 -63.6882 18.5833C-65.4618 54.1418 -38.7934 -48.9243 -86.4225 -26.4277C-86.8095 -26.1954 -87.2932 -25.9631 -87.8737 -25.713V-30.055C-73.8139 -38.1316 -65.6231 -42.9919 -53.9335 -42.9919C-42.2439 -42.9919 -32.9728 -40.258 -30.6832 -36.4162C-32.9889 -12.8118 -78.1672 23.1398 -47.4518 66.8821C-40.9378 74.8693 -44.0174 75.4054 -50.9506 69.5087C-57.8837 63.6121 -65.2522 49.8354 -68.1545 33.164C-67.9449 43.0811 -66.7034 52.891 -62.8498 61.0748C-66.9291 54.8565 -68.6866 49.6746 -69.7668 37.9171C-70.8471 26.1596 -67.5902 9.09505 -67.2677 -4.16344C-66.7517 -6.10352e-05 -66.7679 2.59088 -66.913 6.25394C-59.5606 -21.7997 -73.8622 -26.6421 -87.8737 -20.7455ZM-70.6375 -37.0416C-73.2012 -36.4877 -78.264 -34.5936 -80.1666 -32.8783C-76.9902 -34.272 -73.8139 -35.6479 -70.6375 -37.0416ZM-37.3423 -37.3275C-34.9721 -34.8259 -35.7138 -30.6268 -37.0359 -27.1603C-36.8586 -27.4462 -36.6651 -27.75 -36.4555 -28.0537C-34.2627 -31.556 -34.9882 -35.1476 -37.3423 -37.3275ZM-37.5035 -35.1118C-37.31 -32.1814 -37.6003 -29.6083 -38.4548 -26.66C-36.262 -30.2694 -35.9234 -33.2714 -37.5035 -35.1118ZM-52.6758 -40.0614C-50.1122 -40.0614 -47.5646 -40.0614 -45.001 -40.0614C-47.1777 -40.2937 -50.4669 -40.2937 -52.6758 -40.0614ZM-38.084 -34.3435C-40.6154 -40.9727 -50.8055 -39.7219 -56.2714 -38.7749C-50.2734 -38.7928 -42.1794 -40.3652 -38.084 -34.3435ZM-39.0191 -26.9638C-40.7605 -22.9612 -44.3399 -20.6561 -46.4037 -16.9752C-44.1787 -17.1182 -39.261 -24.1941 -39.0191 -26.9638ZM30.8445 3.34137C27.6197 -0.500381 27.4585 -1.19726 29.1515 -3.69886C25.83 -1.87626 28.6194 1.91188 30.8445 3.34137ZM23.6694 -37.9708C27.3779 -38.1852 31.1347 -37.0774 34.827 -36.1303V-36.2912C31.1992 -37.8636 27.6036 -39.4718 23.6694 -37.9708ZM34.827 28.9113V26.7671C30.7477 25.3912 26.7652 24.1583 22.7504 23.6401C26.5556 24.9981 30.6993 28.0894 34.827 28.9113ZM-87.8737 71.5994C-81.4242 78.7111 -74.9425 85.8585 -68.0577 92.0232H-64.7685C-72.8626 84.3397 -80.3117 74.9229 -87.8737 67.847V71.5994ZM-87.8737 72.8859V81.3199C-83.2301 83.8751 -78.135 87.4131 -72.5724 92.0232H-70.0732C-76.2324 87.6811 -82.0692 79.9261 -87.8737 72.8859ZM34.827 5.27117V-5.18195C33.7951 -4.52081 32.6825 -3.87754 31.4894 -3.25214C30.4575 0.035675 32.1021 3.12694 34.827 5.27117ZM26.7974 -3.71673C23.0729 -1.69758 25.7978 0.357311 27.5552 2.53728C26.0235 -0.786278 24.3305 -1.12578 26.7974 -3.71673ZM17.349 -28.1788C25.6365 -30.734 29.4901 -28.286 34.827 -25.2484V-25.6772C29.345 -28.6434 26.6039 -31.8061 17.349 -28.1788ZM34.827 -11.8291V-11.8469C34.7625 -11.8112 34.698 -11.7755 34.6335 -11.7397C34.698 -11.7755 34.7625 -11.8112 34.827 -11.8291ZM33.7628 92.0232C34.1176 91.8087 34.4723 91.6122 34.827 91.3978V90.415C34.1175 90.9689 33.392 91.4871 32.6664 92.0232H33.7628ZM-87.6641 -43.9568C-87.7124 -43.9389 -87.7608 -43.921 -87.793 -43.9032C-87.7447 -43.921 -87.6963 -43.9389 -87.6479 -43.9568H-87.6641ZM-87.8737 -43.8853C-87.8414 -43.8853 -87.8253 -43.9032 -87.793 -43.9032C-87.8253 -43.9032 -87.8414 -43.8853 -87.8737 -43.8853ZM-82.5206 -43.9568C-84.5199 -43.0812 -86.3097 -42.3844 -87.8737 -41.8483V-36.0946C-81.005 -39.168 -73.9429 -41.7768 -67.1709 -43.9568H-82.5206ZM-38.4871 92.0232H-35.7783C-39.5835 90.4865 -49.7252 84.1788 -50.999 83.3926C-46.2103 87.1629 -41.8246 90.1112 -38.4871 92.0232ZM-87.8737 -12.3651V-15.4028C-53.1273 -25.2305 -86.4225 44.6178 -59.6896 75.995C-84.3265 58.7876 -73.8461 21.6209 -76.2485 -3.77034C-77.0386 -12.1507 -82.0692 -13.0084 -87.8737 -12.3651ZM-78.6832 -13.4015C-70.4602 -3.39509 -75.8616 17.5112 -75.3617 32.5386C-75.4101 21.7639 -64.9781 -10.0065 -78.6832 -13.4015ZM8.15854 92.0232C16.9459 89.4858 25.2657 85.4475 32.4084 79.8189C33.2308 78.9255 34.0369 78.0499 34.8109 77.2101V73.8151C23.4437 81.6415 11.6896 88.2886 0.0483627 92.0232H8.15854ZM-58.7705 77.0135C-56.8841 79.0506 -54.6268 80.8553 -51.918 82.3741L-58.7705 77.0135ZM13.2214 26.8028C3.62781 19.3695 27.5391 33.3963 34.827 34.3255V31.1985C23.1857 27.5712 -6.85254 17.2253 13.2214 26.8028ZM-75.3779 58.8412C-73.3624 64.3269 -71.2663 72.9038 -58.5287 80.4086C-68.3641 71.4743 -71.7501 65.7563 -75.3779 58.8412ZM-84.004 38.5961C-83.5203 46.1009 -79.8925 51.1577 -76.5871 55.5712C-84.7779 28.5539 -68.4286 -10.5068 -87.8737 -10.9178V-8.52338C-86.3097 -8.77354 -86.1001 -10.7212 -83.1172 -9.09517C-75.5713 -4.48508 -78.2962 9.59537 -80.1021 16.4569C-80.5213 10.0063 -77.3611 0.732548 -82.8753 -3.68099C-88.1961 -5.59293 -81.8918 3.77021 -82.9237 6.64705C-84.0524 2.80531 -85.7615 0.303703 -87.8737 -1.16152V3.30563C-81.9079 9.5775 -83.3268 27.0708 -83.1172 34.5757C-85.5357 29.2329 -86.487 23.0862 -87.8737 17.2253V45.4934C-84.3265 52.6229 -81.3758 60.2886 -79.1669 66.0958C-82.1337 61.9682 -84.9553 56.9293 -87.8737 51.9797V60.7174C-80.3762 68.6868 -72.7497 79.1578 -64.4783 86.1087C-68.6866 83.3033 -72.7013 80.087 -76.4743 76.4596C-71.3147 81.7845 -65.5908 86.198 -59.4961 89.7717C-58.6416 90.3078 -57.787 90.7902 -56.9163 91.2191C-56.4165 91.4871 -55.9328 91.7373 -55.433 92.0053H-39.6157C-73.2012 83.4462 -85.1326 48.4238 -84.004 38.5961ZM30.651 92.0232C32.0698 91.2727 33.4726 90.4686 34.827 89.6109V80.087C27.136 85.3761 19.7192 89.2893 12.5925 92.0232H30.651ZM22.2183 36.3268C26.9425 39.0964 30.9573 41.2764 34.827 41.2228V36.6663C34.4239 36.6484 33.263 36.3268 31.0863 35.5942C39.3577 44.2962 27.9583 39.6146 22.2183 36.3268ZM-87.8737 92.0232H-77.619C-81.0695 89.8253 -84.5199 87.5918 -87.8737 85.6262V92.0232ZM-31.9247 17.118C-31.9247 17.1002 -31.9086 17.0823 -31.9086 17.0644C-31.9086 17.0823 -31.9086 17.1002 -31.9247 17.118ZM-31.7313 16.6892C-31.7958 16.8143 -31.8441 16.9394 -31.9086 17.0644C-31.8441 16.9394 -31.7958 16.8143 -31.7313 16.6892ZM-31.6668 16.5641C-31.6829 16.5999 -31.699 16.6177 -31.7151 16.6535C-31.699 16.6177 -31.6829 16.5999 -31.6668 16.5641ZM-31.7151 16.6535C-31.7151 16.6713 -31.7313 16.6713 -31.7313 16.6892C-31.7313 16.6713 -31.7151 16.6713 -31.7151 16.6535ZM-30.4736 17.6898C-40.309 28.411 -35.7944 54.4991 -32.6987 45.9579C-26.6523 29.3223 -12.4152 14.2948 5.48203 22.8717C-3.70844 16.9751 13.2052 20.656 23.4921 22.6394C12.1733 19.7626 0.419212 15.8494 -10.7706 19.709C-7.27174 17.9221 -5.20793 17.1716 -1.28989 17.1538C-10.4642 16.1174 -18.0423 18.4046 -25.8623 25.016C-33.6822 31.6273 -22.4118 9.64898 -24.0242 8.57686C-25.5237 7.57622 -29.6674 12.2935 -31.6668 16.5641C-29.0709 11.1142 -25.4592 12.222 -30.4736 17.6898ZM-32.086 17.5112C-32.0376 17.3682 -31.9731 17.2431 -31.9247 17.118C-31.9731 17.2431 -32.0376 17.3861 -32.086 17.5112ZM2.09607 17.1538C11.8831 18.2616 17.8166 21.1563 27.2489 22.3357C17.6392 20.1021 11.4478 17.0823 2.09607 17.1538ZM22.2183 36.3268C21.9604 36.1838 21.7185 36.023 21.4605 35.8801C21.6862 36.0409 21.9442 36.1838 22.2183 36.3268ZM-72.0725 -41.348C-70.573 -41.9555 -69.0735 -42.563 -67.574 -43.1706C-69.3315 -43.8138 -70.7181 -42.2414 -72.0725 -41.348ZM-61.0762 -43.9568H-63.7366C-74.6039 -38.9357 -95.9193 -29.9657 -61.0762 -43.9568ZM-18.0746 83.5356C-10.6577 87.3059 -18.2036 88.2886 -22.3151 88.1636C-16.1397 89.2178 -8.94861 86.6447 -18.0746 83.5356ZM-10.1256 85.4475C-5.43365 89.0927 -11.7541 89.4501 -14.6886 89.8074C-11.4316 89.5752 -2.30568 89.0748 -10.1256 85.4475ZM-1.30602 85.2331C9.02922 90.0755 -1.80585 90.951 -7.57809 92.0232H-5.4659C1.20927 91.2012 11.1737 88.6639 -1.30602 85.2331ZM34.827 24.2119V23.5329C33.1179 23.515 31.3765 23.3899 29.6029 23.1755C31.3765 23.5686 33.1179 23.926 34.827 24.2119ZM-36.6006 56.6434C-34.5045 60.5744 -30.4736 63.6121 -28.7 63.9695C-30.9573 62.7187 -34.182 59.8597 -36.6006 56.6434ZM-18.2197 68.6153C-38.6644 45.4219 -19.1871 24.3012 -5.32079 21.6209C-14.8337 21.9783 -34.6658 38.06 -29.8287 53.6057C-33.2146 53.1947 -37.0843 46.9943 -38.1485 40.8297C-37.4068 50.032 -31.6023 59.8597 -18.2197 68.6153ZM-30.4736 60.0384C-36.9231 53.6057 -39.7608 43.8852 -39.7931 37.4525C-40.4864 44.1532 -39.0191 52.891 -30.4736 60.0384ZM34.827 25.3376V24.8551C33.65 24.7301 32.4568 24.5692 31.2475 24.3548C32.5374 24.6765 33.7306 24.9981 34.827 25.3376ZM34.827 -34.7187V-31.1629C30.6993 -32.8068 30.4736 -34.6651 20.0578 -32.8604C9.64191 -31.0557 -19.4289 -14.4558 -25.7494 -1.62611C-15.1562 -15.9031 26.9587 -38.9178 34.827 -22.2107V-13.9197C24.2015 -6.27193 -7.93282 -3.05559 -4.48236 3.64513C-2.95062 5.8251 1.77359 8.05867 6.2882 4.66364C-2.57978 2.51941 13.302 -3.87754 15.7205 -5.00327C-4.04703 4.94954 12.8989 3.23415 21.6379 4.37774C30.3769 5.52133 31.1347 7.64769 34.827 9.18439V9.6311C26.9103 7.25458 25.6365 4.50282 10.4803 5.12822C27.5714 6.27181 19.6708 12.3471 34.827 12.7581V20.7632C18.5421 20.9241 13.8663 15.7064 1.74134 15.7064C-10.3836 15.7064 -17.6392 16.7785 -22.5247 20.0664C-31.1186 26.2668 -18.7034 6.25394 -17.5425 3.28776C-9.98051 -15.0275 -37.5035 15.4563 -39.7931 37.4525C-39.8737 18.6369 -24.8304 -5.00327 -7.41686 -6.07538C-1.93484 -6.43275 -35.1495 23.2291 -18.5422 17.6898C-32.086 16.7964 13.2214 -9.82779 -0.46759 -9.57763C-23.8307 -9.14878 -34.4723 10.6854 -41.0023 28.5182C-43.2758 0.125019 9.02921 -39.6326 34.827 -34.7187ZM6.82028 5.89657C8.30365 6.93295 11.3994 6.48624 13.7534 6.71853C11.4478 6.27181 9.17432 5.27117 6.82028 5.89657ZM-6.53006 14.8666C-11.6574 14.4914 -22.5731 18.2259 -14.35 9.64898C-24.3466 18.9406 -12.2862 15.5635 -6.53006 14.8666Z" fill="url(#paint0_linear)"/>
<rect x="-87.8737" y="-43.9568" width="122.701" height="135.98" fill="#E84B37"/>
</g>
<path d="M25.6943 11.0377C25.7864 11.5437 26.1247 11.9462 26.4965 12.2551C27.2775 12.904 27.8049 14.1374 27.8049 15.5521C27.8049 17.1762 27.1099 18.5613 26.1339 19.0975C25.6775 19.3482 25.2222 19.6952 25.0394 20.2237C24.3798 22.1311 23.4077 23.7775 22.2188 25.0257L27.977 28.2434C31.4845 30.2033 33.6983 38.5637 33.6983 38.5637C33.6983 38.5637 29.1837 41.2764 16.8492 41.2764C4.51461 41.2764 0 38.5637 0 38.5637C0 38.5637 2.21386 30.2033 5.72129 28.2434L11.3812 25.0806C10.1683 23.826 9.17715 22.1592 8.50784 20.2237C8.32507 19.6952 7.86969 19.3482 7.41332 19.0975C6.43735 18.5613 5.74232 17.1762 5.74232 15.5521C5.74232 14.1374 6.26968 12.904 7.05072 12.2551C7.42251 11.9462 7.76085 11.5437 7.85294 11.0377C7.85692 11.0159 7.86093 10.994 7.86499 10.9722C7.90956 10.7324 7.89973 10.4841 7.83607 10.2496C7.21843 7.97466 6.96382 5.24347 8.31125 3.69887C9.07024 2.82882 9.86058 2.48295 10.5957 2.4408C10.9822 2.41864 11.3655 2.28578 11.6587 2.00459C12.8704 0.84222 14.5767 0 16.9247 0C22.1603 0 25.3173 5.13926 26.4903 8.31436C26.6398 8.7189 26.4123 9.16055 26.0282 9.25402C25.6486 9.34642 25.4233 9.78108 25.5207 10.1997C25.5848 10.4751 25.6428 10.7545 25.6943 11.0377Z" fill="url(#paint1_linear)"/>
<path d="M25.6943 11.0377C25.7864 11.5437 26.1247 11.9462 26.4965 12.2551C27.2775 12.904 27.8049 14.1374 27.8049 15.5521C27.8049 17.1762 27.1099 18.5613 26.1339 19.0975C25.6775 19.3482 25.2222 19.6952 25.0394 20.2237C24.3798 22.1311 23.4077 23.7775 22.2188 25.0257L27.977 28.2434C31.4845 30.2033 33.6983 38.5637 33.6983 38.5637C33.6983 38.5637 29.1837 41.2764 16.8492 41.2764C4.51461 41.2764 0 38.5637 0 38.5637C0 38.5637 2.21386 30.2033 5.72129 28.2434L11.3812 25.0806C10.1683 23.826 9.17715 22.1592 8.50784 20.2237C8.32507 19.6952 7.86969 19.3482 7.41332 19.0975C6.43735 18.5613 5.74232 17.1762 5.74232 15.5521C5.74232 14.1374 6.26968 12.904 7.05072 12.2551C7.42251 11.9462 7.76085 11.5437 7.85294 11.0377C7.85692 11.0159 7.86093 10.994 7.86499 10.9722C7.90956 10.7324 7.89973 10.4841 7.83607 10.2496C7.21843 7.97466 6.96382 5.24347 8.31125 3.69887C9.07024 2.82882 9.86058 2.48295 10.5957 2.4408C10.9822 2.41864 11.3655 2.28578 11.6587 2.00459C12.8704 0.84222 14.5767 0 16.9247 0C22.1603 0 25.3173 5.13926 26.4903 8.31436C26.6398 8.7189 26.4123 9.16055 26.0282 9.25402C25.6486 9.34642 25.4233 9.78108 25.5207 10.1997C25.5848 10.4751 25.6428 10.7545 25.6943 11.0377Z" fill="url(#paint2_radial)"/>
</g>
</g>
<g filter="url(#filter1_biii)">
<path d="M33.4938 15.2551C33.5783 15.7194 33.8889 16.0887 34.2302 16.3721C34.9472 16.9675 35.4314 18.0991 35.4314 19.3972C35.4314 20.8874 34.7933 22.1582 33.8974 22.6502C33.4784 22.8803 33.0604 23.1986 32.8926 23.6835C32.2871 25.4336 31.3947 26.9442 30.3033 28.0895L35.5894 31.0418C41.2972 34.2296 36.6412 42.378 30.1199 42.8401C28.7018 42.9406 27.1236 43 25.3739 43C23.6242 43 22.046 42.9406 20.6279 42.8401C14.1066 42.378 9.45067 34.2296 15.1584 31.0418L20.3542 28.1399C19.2408 26.9887 18.3309 25.4594 17.7165 23.6835C17.5487 23.1986 17.1307 22.8803 16.7117 22.6502C15.8158 22.1582 15.1777 20.8874 15.1777 19.3972C15.1777 18.0991 15.6619 16.9675 16.3789 16.3721C16.7202 16.0887 17.0308 15.7194 17.1153 15.2551C17.119 15.2351 17.1226 15.215 17.1264 15.195C17.1673 14.9749 17.1583 14.7471 17.0998 14.532C16.5328 12.4447 16.2991 9.93872 17.536 8.52151C18.2328 7.72321 18.9583 7.40586 19.6332 7.36719C19.988 7.34686 20.3399 7.22495 20.609 6.96696C21.7214 5.90045 23.2878 5.12769 25.4433 5.12769C30.2496 5.12769 33.1478 9.8431 34.2246 12.7564C34.3618 13.1275 34.1529 13.5328 33.8004 13.6185C33.4518 13.7033 33.245 14.1021 33.3345 14.4862C33.3933 14.7389 33.4465 14.9953 33.4938 15.2551Z" fill="url(#paint3_linear)"/>
</g>
<defs>
<filter id="filter0_iii" x="1.91626" y="-1" width="29.8659" height="42.2764" filterUnits="userSpaceOnUse" color-interpolation-filters="sRGB">
<feFlood flood-opacity="0" result="BackgroundImageFix"/>
<feBlend mode="normal" in="SourceGraphic" in2="BackgroundImageFix" result="shape"/>
<feColorMatrix in="SourceAlpha" type="matrix" values="0 0 0 0 0 0 0 0 0 0 0 0 0 0 0 0 0 0 127 0" result="hardAlpha"/>
<feOffset dy="-4"/>
<feGaussianBlur stdDeviation="0.5"/>
<feComposite in2="hardAlpha" operator="arithmetic" k2="-1" k3="1"/>
<feColorMatrix type="matrix" values="0 0 0 0 0 0 0 0 0 0 0 0 0 0 0 0 0 0 0.4 0"/>
<feBlend mode="normal" in2="shape" result="effect1_innerShadow"/>
<feColorMatrix in="SourceAlpha" type="matrix" values="0 0 0 0 0 0 0 0 0 0 0 0 0 0 0 0 0 0 127 0" result="hardAlpha"/>
<feOffset dx="-1"/>
<feGaussianBlur stdDeviation="0.5"/>
<feComposite in2="hardAlpha" operator="arithmetic" k2="-1" k3="1"/>
<feColorMatrix type="matrix" values="0 0 0 0 1 0 0 0 0 1 0 0 0 0 1 0 0 0 0.3 0"/>
<feBlend mode="normal" in2="effect1_innerShadow" result="effect2_innerShadow"/>
<feColorMatrix in="SourceAlpha" type="matrix" values="0 0 0 0 0 0 0 0 0 0 0 0 0 0 0 0 0 0 127 0" result="hardAlpha"/>
<feOffset dx="1"/>
<feGaussianBlur stdDeviation="0.5"/>
<feComposite in2="hardAlpha" operator="arithmetic" k2="-1" k3="1"/>
<feColorMatrix type="matrix" values="0 0 0 0 1 0 0 0 0 1 0 0 0 0 1 0 0 0 0.3 0"/>
<feBlend mode="normal" in2="effect2_innerShadow" result="effect3_innerShadow"/>
</filter>
<filter id="filter1_biii" x="2.58398" y="-4.87231" width="45.5799" height="57.8723" filterUnits="userSpaceOnUse" color-interpolation-filters="sRGB">
<feFlood flood-opacity="0" result="BackgroundImageFix"/>
<feGaussianBlur in="BackgroundImage" stdDeviation="5"/>
<feComposite in2="SourceAlpha" operator="in" result="effect1_backgroundBlur"/>
<feBlend mode="normal" in="SourceGraphic" in2="effect1_backgroundBlur" result="shape"/>
<feColorMatrix in="SourceAlpha" type="matrix" values="0 0 0 0 0 0 0 0 0 0 0 0 0 0 0 0 0 0 127 0" result="hardAlpha"/>
<feOffset dy="-4"/>
<feGaussianBlur stdDeviation="0.5"/>
<feComposite in2="hardAlpha" operator="arithmetic" k2="-1" k3="1"/>
<feColorMatrix type="matrix" values="0 0 0 0 0.920833 0 0 0 0 0.920833 0 0 0 0 0.920833 0 0 0 0.1 0"/>
<feBlend mode="normal" in2="shape" result="effect2_innerShadow"/>
<feColorMatrix in="SourceAlpha" type="matrix" values="0 0 0 0 0 0 0 0 0 0 0 0 0 0 0 0 0 0 127 0" result="hardAlpha"/>
<feOffset dx="-1"/>
<feGaussianBlur stdDeviation="0.5"/>
<feComposite in2="hardAlpha" operator="arithmetic" k2="-1" k3="1"/>
<feColorMatrix type="matrix" values="0 0 0 0 0.920833 0 0 0 0 0.920833 0 0 0 0 0.920833 0 0 0 0.1 0"/>
<feBlend mode="normal" in2="effect2_innerShadow" result="effect3_innerShadow"/>
<feColorMatrix in="SourceAlpha" type="matrix" values="0 0 0 0 0 0 0 0 0 0 0 0 0 0 0 0 0 0 127 0" result="hardAlpha"/>
<feOffset dx="1"/>
<feGaussianBlur stdDeviation="0.5"/>
<feComposite in2="hardAlpha" operator="arithmetic" k2="-1" k3="1"/>
<feColorMatrix type="matrix" values="0 0 0 0 0.920833 0 0 0 0 0.920833 0 0 0 0 0.920833 0 0 0 0.1 0"/>
<feBlend mode="normal" in2="effect3_innerShadow" result="effect4_innerShadow"/>
</filter>
<linearGradient id="paint0_linear" x1="-26.5233" y1="-43.9568" x2="-26.5233" y2="92.0232" gradientUnits="userSpaceOnUse">
<stop stop-color="white" stop-opacity="0.48"/>
<stop offset="1" stop-color="white" stop-opacity="0"/>
</linearGradient>
<linearGradient id="paint1_linear" x1="16.8507" y1="-0.197323" x2="16.8507" y2="40.9527" gradientUnits="userSpaceOnUse">
<stop stop-color="white" stop-opacity="0.4"/>
<stop offset="0.833333" stop-color="white" stop-opacity="0"/>
<stop offset="1" stop-color="white" stop-opacity="0.3"/>
</linearGradient>
<radialGradient id="paint2_radial" cx="0" cy="0" r="1" gradientUnits="userSpaceOnUse" gradientTransform="translate(-9.84909e-09 5.41898) scale(25.8404 49.1246)">
<stop stop-color="white" stop-opacity="0.7"/>
<stop offset="1" stop-color="white" stop-opacity="0"/>
</radialGradient>
<linearGradient id="paint3_linear" x1="25.3739" y1="5.12769" x2="25.3739" y2="43" gradientUnits="userSpaceOnUse">
<stop stop-color="white" stop-opacity="0.57"/>
<stop offset="1" stop-color="white" stop-opacity="0.49"/>
</linearGradient>
<clipPath id="clip0">
<rect width="32.827" height="42" fill="white" transform="translate(2)"/>
</clipPath>
</defs>
</svg>
