<svg width="102" height="139" viewBox="0 0 102 139" fill="none" xmlns="http://www.w3.org/2000/svg">
<g clip-path="url(#clip0)">
<path d="M53.7998 36.0996L51.6998 37.4996L49.3998 37.9996L46.8998 39.1996C45.7998 39.3996 45.4998 40.5996 47.1998 40.0996L49.0998 39.5996L49.1998 40.3996L48.2998 41.9996L46.0998 44.7996C45.6998 45.4996 46.1998 45.8996 46.9998 45.2996C46.8998 45.7996 47.0998 46.2996 47.8998 45.7996L48.6998 45.2996C48.3998 45.7996 48.7998 46.3996 49.5998 45.7996L50.3998 45.0996C50.2998 45.5996 50.9998 45.5996 51.5998 44.9996C53.3998 43.1996 53.2998 42.1996 54.2998 40.4996L56.3998 38.5996L53.7998 36.0996Z" fill="#FCAF75"/>
<path d="M54.2988 40.2988C58.3988 37.2988 59.7988 35.9988 63.5988 32.3988L67.6988 24.9988L68.9988 22.6988L67.5988 10.7988C63.5988 11.7988 61.5988 20.2988 59.0988 27.6988L51.7988 37.4988C53.1988 37.2988 54.6988 39.3988 54.2988 40.2988Z" fill="#8E6455"/>
<path opacity="0.25" d="M54.2988 40.2996C58.3988 37.2996 59.7988 35.9996 63.5988 32.3996L67.6988 24.9996L67.5988 24.5996L65.4988 21.5996C64.8988 25.2996 63.5988 28.7996 61.0988 31.6996C59.5988 34.0996 57.8988 37.0996 54.2988 40.2996Z" fill="#623B2A"/>
<path d="M72.3988 83.5992C72.3988 83.5992 72.7988 85.9992 72.5988 87.0992C72.3988 88.0992 69.5988 88.7992 69.5988 88.7992C69.5988 88.7992 65.6988 92.4992 62.3988 92.1992C60.4988 92.0992 59.7988 91.4992 59.4988 90.9992C59.1988 90.3992 59.4988 89.6992 59.8988 89.1992C60.2988 88.6992 64.2988 86.9992 65.2988 85.3992C65.7988 84.5992 66.5988 82.9992 66.5988 82.9992L66.8988 79.8992L72.1988 79.6992L71.8988 83.2992L72.3988 83.5992Z" fill="#623B2A"/>
<path d="M77.1995 45.2984L73.7995 62.3984C75.0995 69.1984 74.7995 76.2984 73.0995 83.6984C72.0995 86.4984 68.2995 85.6984 65.9995 83.6984C66.6995 78.1984 66.7995 71.6984 66.6995 64.8984L65.9995 60.3984C65.9995 60.3984 65.3995 58.0984 65.4995 49.4984C65.4995 45.0984 67.9995 35.3984 67.9995 35.3984L77.1995 45.2984Z" fill="#704232"/>
<path d="M84.1996 89.5988C84.5996 90.3988 84.5996 91.6988 84.5996 93.5988C84.0996 94.5988 83.2996 95.4988 82.3996 95.7988C82.3996 95.7988 80.7996 99.7988 76.2996 99.8988C72.0996 99.9988 72.0996 98.2988 72.0996 98.2988C72.0996 98.2988 72.0996 97.2988 73.0996 96.4988C73.6996 95.9988 76.7996 93.4988 77.3996 92.7988C77.9996 92.0988 78.3996 90.8988 78.3996 90.8988L78.5996 87.7988H84.2996L84.1996 89.5988Z" fill="#623B2A"/>
<path d="M74.3004 48.9C74.3004 57.6 74.0004 62.7 76.3004 67.1C76.3004 67.1 76.8004 70.7 77.4004 72.9C78.1004 75.2 78.0004 85.3 77.7004 91.2C78.9004 93.1 81.7004 93.5 83.5004 92.2C84.2004 91.7 84.8004 91 85.0004 90.1C86.5004 80.7 87.5004 73.3 83.8004 66.5C85.0004 60.5 84.8004 54.5 84.5004 47.9C85.0004 44 84.4004 40.8 83.3004 38C83.0004 37.3 82.7004 36.7 82.3004 36L66.9004 39.6C68.5004 45.3 71.3004 48.3 74.3004 48.9Z" fill="#8E6455"/>
<path opacity="0.25" d="M81.2992 67.0996C85.9992 71.8996 84.6992 81.2996 83.4992 92.2996C84.1992 91.7996 84.7992 91.0996 84.9992 90.1996C86.4992 80.7996 87.4992 73.3996 83.7992 66.5996C84.9992 60.5996 84.7992 54.5996 84.4992 47.9996C84.9992 44.0996 84.3992 40.8996 83.2992 38.0996L74.1992 52.0996C79.4992 55.3996 84.1992 58.9996 81.2992 67.0996Z" fill="#623B2A"/>
<path d="M65.2992 20.9989C65.3992 27.1989 66.8992 39.6989 66.8992 39.6989C82.1992 48.9989 84.1992 40.8989 84.1992 40.8989L84.7992 26.5989L85.1992 17.1989C83.4992 15.1989 81.7992 14.0989 80.0992 13.1989C76.0992 10.4989 72.3992 9.39887 67.4992 10.7989C67.4992 10.7989 65.9992 14.6989 65.2992 18.2989C65.1992 18.6989 65.1992 19.2989 65.1992 20.0989C65.2992 20.2989 65.2992 20.6989 65.2992 20.9989Z" fill="#EDEDED"/>
<path d="M79.0004 12.4992L76.7004 7.69922L70.4004 10.9992L71.8004 14.5992C72.9004 18.7992 79.7004 16.1992 79.0004 12.4992Z" fill="#FCAF75"/>
<path d="M71.4004 12.2996C71.4004 14.8996 71.9004 16.2996 73.4004 16.4996C75.4004 16.4996 77.5004 13.4996 76.7004 11.6996V9.59961L71.4004 12.2996Z" fill="#C39367"/>
<path d="M72.3992 18.9984V17.0984L73.3992 16.3984L73.8992 17.5984L73.3992 19.2984C73.0992 22.7984 73.0992 27.5984 73.3992 31.2984L71.7992 32.7984L70.6992 30.2984C70.8992 26.6984 71.5992 22.3984 72.3992 18.9984Z" fill="#E04E39"/>
<path d="M73.2996 16.3997L71.3996 17.6997C71.3996 17.6997 70.0996 12.8997 71.2996 11.5997C72.6996 10.2997 73.2996 16.3997 73.2996 16.3997Z" fill="#C6C6C6"/>
<path d="M72.1004 9.5C70.8004 14.7 70.7004 20.4 71.6004 26.4L71.2004 47.5C71.2004 49.2 69.4004 50.4 67.8004 49.5C66.3004 48.7 65.0004 47.5 63.9004 46.1L64.8004 22.6C64.8004 20.1 64.6004 16.7 65.5004 14.4L67.4004 10.8L72.1004 9.5Z" fill="#8E6455"/>
<path d="M72.3003 9.09961L70.9003 9.79961L69.3003 12.7996L70.4003 13.6996C70.4003 13.6996 69.8003 13.7996 69.0003 13.9996C68.9003 15.7996 70.6003 23.9996 71.6003 25.8996C70.9003 19.5996 70.8003 13.7996 72.3003 9.09961Z" fill="#623B2A"/>
<path d="M78.5004 11.3984L79.7004 12.8984C79.7004 12.8984 77.7004 18.4984 74.2004 18.4984C73.9004 17.3984 73.4004 16.4984 73.4004 16.4984C75.9004 15.9984 78.5004 13.2984 78.5004 11.3984Z" fill="#C6C6C6"/>
<path d="M73.6988 0.398438C76.7988 0.398438 78.5988 1.89844 78.6988 5.29844C78.5988 8.79844 77.3988 11.6984 74.6988 13.5984C73.3988 14.6984 71.8988 15.1984 70.2988 14.8984C68.3988 14.9984 68.0988 10.2984 67.7988 6.89844C68.0988 3.39844 70.1988 1.39844 73.6988 0.398438Z" fill="#FCAF75"/>
<path d="M67.8995 5.59919C68.5995 7.29919 71.6995 8.49919 74.6995 7.69919L74.9995 10.4992L76.2995 9.79919L77.4995 11.1992L77.9995 10.4992C80.2995 5.79919 79.5995 2.29919 76.0995 0.39919C71.5995 -1.40081 66.8995 2.99919 67.8995 5.59919Z" fill="#623B2A"/>
<path d="M76.8 10.9999C77.1 10.6999 77.4 10.4999 77.6 10.0999C77.8 9.69991 77.8 9.29991 77.6 8.99991C77.4 8.69991 77 8.39991 76.6 8.59991C76.3 8.69991 76.2 8.89991 76.1 9.19991C76 9.39991 76 9.59991 76 9.89991C76 10.0999 76 10.3999 76 10.5999C76 10.7999 76 10.9999 76.1 11.0999C76.2 11.1999 76.4 11.1999 76.5 11.1999C76.6 11.1999 76.7 11.0999 76.8 10.9999Z" fill="#FCAF75"/>
<path d="M71.2988 26.5992V47.3992C71.2988 50.0992 73.8988 52.4992 76.4988 53.1992C76.5988 53.1992 76.6988 53.2992 76.8988 53.2992C80.2988 53.8992 83.0988 53.2992 85.2988 50.7992L85.6988 28.1992L85.8988 17.6992C84.1988 15.5992 81.6988 13.5992 78.7988 11.6992C78.9988 14.5992 74.6988 20.3992 71.2988 26.5992Z" fill="#8E6455"/>
<path opacity="0.25" d="M76.5 53.1C76.6 53.1 76.7 53.2 76.9 53.2C80.3 53.8 83.1 53.2 85.3 50.7L85.7 28.1L79.9 23.5C82.7 35.5 82.2 45.7 76.5 53.1Z" fill="#623B2A"/>
<path d="M79.7992 12.3988V17.6988H77.9992L78.9992 19.6988L71.1992 26.4988C74.6992 20.6988 78.1992 14.7988 78.6992 11.7988L79.7992 12.3988Z" fill="#623B2A"/>
<path d="M71.5996 30.1996C71.5996 30.4996 71.7996 30.7996 71.9996 30.7996C72.1996 30.7996 72.3996 30.5996 72.3996 30.1996C72.3996 29.8996 72.1996 29.5996 71.9996 29.5996C71.6996 29.6996 71.5996 29.8996 71.5996 30.1996Z" fill="#623B2A"/>
<path d="M71.5996 36.9984C71.5996 37.2984 71.7996 37.5984 71.9996 37.5984C72.1996 37.5984 72.3996 37.3984 72.3996 36.9984C72.3996 36.6984 72.1996 36.3984 71.9996 36.3984C71.6996 36.4984 71.5996 36.6984 71.5996 36.9984Z" fill="#623B2A"/>
<path d="M71.5996 43.7992C71.5996 44.0992 71.7996 44.3992 71.9996 44.3992C72.1996 44.3992 72.3996 44.1992 72.3996 43.7992C72.3996 43.4992 72.1996 43.1992 71.9996 43.1992C71.6996 43.2992 71.5996 43.4992 71.5996 43.7992Z" fill="#623B2A"/>
<path d="M78.5 61.5987C78.5 60.7987 79 59.7987 79.6 59.3987L98 47.4987C98.7 47.0987 99.2 47.3987 99.3 48.1987L99.6 53.0987L100.1 62.6987C100.1 63.4987 99.6 64.4987 99 64.8987L80.6 76.7987C79.9 77.1987 79.4 76.8987 79.3 76.0987L78.8 66.4987L78.5 61.5987Z" fill="#D2BEB6"/>
<path d="M98.9996 47.3984L100.3 48.4984L80.9996 77.8984L79.5996 76.7984L98.9996 47.3984Z" fill="#D2BEB6"/>
<path d="M80 62.7983L80.8 77.2983C80.8 78.0983 81.4 78.3983 82.1 77.9983L100.4 65.9983C101.1 65.5983 101.6 64.5983 101.5 63.7983L100.7 49.2983C100.7 48.4983 100.1 48.1983 99.4 48.5983L81.2 60.5983C80.5 60.9983 80 61.9983 80 62.7983Z" fill="#8E6455"/>
<path d="M80 62.7979L80.3 67.6979C80.4 69.2979 81.5 69.7979 82.8 68.9979L98.8 58.5979C100.1 57.7979 101.1 55.7979 101 54.2979L100.7 49.3979C100.7 48.5979 100.1 48.2979 99.4 48.6979L81.2 60.5979C80.5 60.9979 80 61.9979 80 62.7979Z" fill="#704232"/>
<path d="M90.4992 66.4984L91.3992 65.8984C91.6992 65.6984 91.8992 65.1984 91.8992 64.8984L91.6992 60.8984L89.6992 62.1984L89.8992 66.1984C89.9992 66.5984 90.1992 66.6984 90.4992 66.4984Z" fill="white"/>
<path d="M89.4 64.1989L92.3 62.2989C92.5 62.1989 92.7 61.7989 92.7 61.5989V60.7989C92.7 60.4989 92.5 60.4989 92.3 60.5989L89.4 62.4989C89.2 62.5989 89 62.9989 89 63.1989V63.9989C89 64.2989 89.2 64.3989 89.4 64.1989Z" fill="white"/>
<path d="M92.0996 49.4984L92.1996 51.8984L93.3996 51.7984L93.2996 50.1984C93.2996 49.8984 93.1996 49.6984 92.9996 49.3984L92.0996 49.4984Z" fill="#704232"/>
<path d="M92.3004 51.5979C92.1004 51.6979 92.1004 51.9979 92.3004 52.0979C92.5004 52.1979 92.9004 52.1979 93.2004 52.0979C93.4004 51.9979 93.4004 51.6979 93.2004 51.5979C93.0004 51.3979 92.6004 51.4979 92.3004 51.5979Z" fill="#8E6455"/>
<path d="M91.1992 51.9973L93.0992 50.6973L92.1992 49.1973L90.1992 50.4973L91.1992 51.9973Z" fill="#8E6455"/>
<path d="M90.0995 50.8984C90.0995 51.2984 90.3995 51.7984 90.7995 51.9984C91.1995 52.1984 91.3995 51.9984 91.3995 51.5984C91.3995 51.1984 91.0995 50.6984 90.6995 50.4984C90.2995 50.2984 89.9995 50.4984 90.0995 50.8984Z" fill="#3D5A55"/>
<path d="M92 49.598C92 49.698 92 49.898 92.1 49.998C92.2 50.298 92.4 50.598 92.7 50.698C92.9 50.798 93 50.798 93.1 50.698C93.2 50.598 93.3 50.498 93.3 50.298C93.3 49.998 93.2 49.798 93 49.498C92.9 49.398 92.8 49.298 92.6 49.198C92.4 49.098 92.3 49.098 92.2 49.198H92.1C92 49.298 92 49.398 92 49.598Z" fill="#704232"/>
<path d="M91.7988 47.7981L93.3988 51.4981L92.8988 53.5981C92.1988 54.3981 90.9988 54.9981 89.6988 55.4981L87.3988 54.3981L86.7988 52.4981L87.5988 48.4981C88.8988 47.4981 90.3988 47.1981 91.7988 47.7981Z" fill="#FCAF75"/>
<path opacity="0.1" d="M87.6988 51.3984L88.8988 52.7984V54.0984L88.2988 53.5984C87.9988 54.0984 87.6988 54.1984 87.3988 54.0984L87.2988 53.5984L87.6988 51.3984Z" fill="#704232"/>
<path d="M88.7996 50.0977L87.9996 51.7977V53.2977C87.9996 53.9977 87.0996 54.5977 86.8996 53.6977L86.5996 51.2977L87.5996 48.5977L88.7996 50.0977Z" fill="#FCAF75"/>
<path d="M86.7988 54.8977L88.6988 53.5977L87.7988 52.0977L85.7988 53.3977L86.7988 54.8977Z" fill="#AE8E81"/>
<path d="M85.5996 53.7988C85.5996 54.1988 85.8996 54.6988 86.2996 54.8988C86.6996 55.0988 86.8996 54.8988 86.8996 54.4988C86.8996 54.0988 86.5996 53.5988 86.1996 53.3988C85.8996 53.1988 85.5996 53.3988 85.5996 53.7988Z" fill="#AE8E81"/>
<path d="M87.5995 52.498C87.5995 52.898 87.8995 53.398 88.2995 53.598C88.6995 53.798 88.8995 53.598 88.8995 53.198C88.8995 52.798 88.5995 52.298 88.1995 52.098C87.7995 51.898 87.4995 52.098 87.5995 52.498Z" fill="#AE8E81"/>
<path d="M86.7988 54.8977L88.6988 53.5977L87.7988 52.0977L85.7988 53.3977L86.7988 54.8977Z" fill="#704232"/>
<path d="M85.5996 53.7988C85.5996 54.1988 85.8996 54.6988 86.2996 54.8988C86.6996 55.0988 86.8996 54.8988 86.8996 54.4988C86.8996 54.0988 86.5996 53.5988 86.1996 53.3988C85.8996 53.1988 85.5996 53.3988 85.5996 53.7988Z" fill="#704232"/>
<path d="M87.5995 52.498C87.5995 52.898 87.8995 53.398 88.2995 53.598C88.6995 53.798 88.8995 53.598 88.8995 53.198C88.8995 52.798 88.5995 52.298 88.1995 52.098C87.7995 51.898 87.4995 52.098 87.5995 52.498Z" fill="#704232"/>
<path d="M86.837 53.7671L85.6387 53.8301L85.7646 56.2267L86.9629 56.1638L86.837 53.7671Z" fill="#704232"/>
<path d="M85.9 55.9C85.7 56 85.7 56.3 85.9 56.4C86.1 56.5 86.5 56.5 86.8 56.4C87 56.3 87 56 86.8 55.9C86.5 55.7 86.1 55.7 85.9 55.9Z" fill="#704232"/>
<path d="M85.7005 17.3997C89.0005 20.8997 90.6005 24.9997 93.1005 31.0997C93.7005 36.0997 93.3005 42.5997 92.0005 49.1997C91.1005 49.6997 88.8005 49.3997 87.5005 48.7997C87.6005 43.8997 87.1005 38.5997 87.6005 33.6997C85.0005 32.0997 82.4005 27.2997 79.6005 23.1997C78.8005 17.3997 82.2005 14.2997 85.7005 17.3997Z" fill="#8E6455"/>
<path d="M44.1973 48.1263L45.2973 50.8263L45.3973 51.0263L45.6973 50.9263C45.8973 50.8263 49.7973 48.6263 49.7973 48.5263C50.5973 47.6263 51.0973 46.4263 51.5973 45.1263L51.2973 42.4263C51.2973 42.4263 50.8973 41.2263 50.2973 41.5263L49.8973 42.8263L48.3973 43.5263L47.4973 43.8263L48.0973 42.8263C48.8973 41.2263 47.9973 40.5263 47.5973 41.0263L46.8973 42.5263L45.1973 44.5263L44.1973 48.1263Z" fill="#FCAF75"/>
<path opacity="0.3" d="M51.4973 45.127L49.4973 46.927C47.9973 48.327 46.4973 49.027 45.1973 48.527V50.727L45.2973 50.927L45.5973 50.827C45.7973 50.727 49.6973 48.527 49.6973 48.427C50.8973 47.127 51.1973 45.927 51.4973 45.127Z" fill="#FCAF75"/>
<path d="M6.49609 61.6273L6.69609 64.0273L7.19609 65.4273L8.19609 67.3273C8.49609 67.8273 8.99609 67.7273 8.99609 67.2273L9.49609 68.1273C9.99609 68.8273 10.5961 68.2273 10.2961 67.5273L9.49609 65.7273L10.7961 68.0273C11.2961 68.7273 11.8961 68.2273 11.6961 67.3273L10.6961 64.7273L11.7961 66.7273C12.0961 67.2273 12.8961 66.9273 12.6961 66.0273L11.5961 62.7273C11.5961 62.7273 11.3961 62.0273 11.6961 61.4273C11.8961 61.0273 13.5961 61.9273 13.5961 61.9273C14.1961 62.2273 14.6961 62.6273 15.1961 62.8273C15.7961 62.9273 15.9961 62.7273 15.8961 62.4273L14.6961 61.2273L13.3961 60.0273L12.6961 59.4273C11.6961 58.8273 10.7961 58.3273 10.0961 58.2273L9.99609 58.0273L9.89609 57.5273L8.59609 57.7273L6.69609 58.0273L6.79609 59.5273L6.69609 60.2273L6.49609 61.6273Z" fill="#FCAF75"/>
<path opacity="0.3" d="M11.6973 61.227L9.09727 60.627L7.69727 62.927L8.89727 67.127C8.89727 66.027 8.79727 64.627 9.49727 64.427L10.7973 64.227L9.69727 63.527L9.89727 62.527L12.0973 62.127L11.6973 61.227Z" fill="#FCAF75"/>
<path d="M12.2968 30.1263L11.4968 39.3263L10.8968 47.0263C10.2968 51.5263 9.69676 55.0263 10.0968 57.4263C10.0968 57.6263 10.0968 57.9263 10.0968 58.0263C9.89676 58.6263 9.39676 59.0263 8.69676 59.4263C8.09676 59.7263 7.49676 60.0263 6.69676 60.1263C5.59676 55.5263 4.69676 51.1263 5.09676 47.6263L5.79676 38.5263C5.99676 33.3263 7.29676 29.4263 12.2968 30.1263Z" fill="#EDEDED"/>
<path opacity="0.3" d="M13.2977 59.9273L8.59766 59.4273C9.29766 59.0273 9.79766 58.6273 9.99766 58.0273L10.0977 58.2273C10.7977 58.3273 11.6977 58.8273 12.6977 59.4273L13.2977 59.9273Z" fill="#FCAF75"/>
<path opacity="0.15" d="M10.8966 47.0258C10.2966 51.5258 9.69655 55.0258 10.0966 57.4258C10.0966 57.6258 10.0966 57.9258 10.0966 58.0258C9.89655 58.6258 9.39655 59.0258 8.69655 59.4258C8.69655 58.8258 8.69655 58.3258 8.69655 57.7258C8.39655 49.1258 5.79655 41.9258 8.79655 37.9258L11.5966 39.3258L10.8966 47.0258Z" fill="#3C3C3B"/>
<path d="M33.9975 114.027C33.9975 112.327 32.6975 111.727 30.7975 111.527C29.0975 111.527 26.8975 112.227 23.9975 112.927L20.6975 114.727C20.0975 116.427 20.0975 117.927 20.4975 119.327C21.3975 120.127 22.5975 120.627 23.6975 120.327L27.4975 118.727L27.7975 118.227C30.5975 118.027 33.9975 116.627 33.9975 114.027Z" fill="#1D1D1B"/>
<path d="M21.7977 107.427C21.7977 106.027 20.5977 105.827 18.7977 105.727C15.4977 105.727 15.3977 107.327 12.3977 107.327L9.39766 109.127C8.79766 110.827 8.89766 112.727 9.29766 114.127C10.1977 114.927 11.5977 115.127 12.5977 114.927L15.5977 113.127L15.8977 112.527C18.6977 112.027 21.7977 109.927 21.7977 107.427Z" fill="#1D1D1B"/>
<path d="M11.0976 61.2266L21.9976 65.7266C21.9976 67.6266 21.9976 69.4266 21.7976 70.8266C21.0976 75.8266 18.9976 83.4266 18.9976 83.4266C17.4976 89.8266 16.9976 97.9266 16.5976 106.327C16.4976 109.327 11.9976 112.027 9.0976 109.127C8.2976 98.8266 8.2976 88.8266 10.6976 82.2266C9.5976 77.0266 10.6976 71.2266 10.9976 65.1266C10.7976 65.0266 11.3976 61.3266 11.0976 61.2266Z" fill="#1D1D1B"/>
<path d="M19.1963 72.0273C19.1963 78.0273 19.0963 82.9273 20.5963 88.1273C18.4963 94.7273 19.0963 104.627 20.4963 114.827C22.2963 116.727 24.7963 116.827 26.3963 115.627C27.3963 114.927 27.9963 113.627 27.7963 112.127L28.8963 89.2273C28.8963 89.2273 30.4963 81.6273 30.8963 76.6273C31.2963 71.6273 29.4963 60.1273 29.4963 60.1273C28.4963 60.4273 27.4963 60.6273 26.5963 60.7273C20.0963 61.5273 14.1963 59.2273 12.2963 55.5273C12.1963 55.8273 12.0963 56.0273 11.9963 56.3273C11.2963 58.5273 10.8963 60.9273 10.7963 63.3273C10.6963 68.7273 15.8963 70.6273 19.1963 72.0273Z" fill="#3C3C3B"/>
<path d="M30.9973 41.1258C30.4973 44.5258 30.3973 47.7258 30.3973 50.7258C30.3973 51.9258 30.3973 53.0258 30.2973 54.1258C30.1973 56.2258 29.9973 58.3258 29.4973 60.2258C28.5973 60.6258 27.5973 61.0258 26.6973 61.2258C21.0973 63.0258 15.9973 62.1258 11.9973 56.3258C11.0973 53.9258 8.29727 45.8258 7.69727 37.4258C7.69727 33.6258 8.99727 30.8258 12.1973 29.9258C17.9973 31.3258 23.9973 34.9258 29.9973 40.1258C30.3973 40.5258 30.6973 40.8258 30.9973 41.1258Z" fill="#EDEDED"/>
<path d="M24.7977 30.527L24.1977 35.727C20.7977 35.727 15.4977 33.327 16.1977 31.527L17.9977 28.127L24.7977 30.527Z" fill="#FCAF75"/>
<path d="M26.3977 31.1267C25.0977 32.6267 22.9977 32.4267 20.9977 31.9267C17.9977 30.5267 15.7977 28.4267 16.0977 24.5267C15.8977 21.6267 17.1977 18.7267 21.9977 18.8267C25.0977 18.9267 27.6977 20.0267 27.8977 23.3267C27.8977 23.4267 28.0977 29.6267 26.3977 31.1267Z" fill="#FCAF75"/>
<path d="M24.3967 33.9273L25.5967 36.7273C19.7967 36.0273 14.5967 33.9273 15.8967 31.2273L16.9967 30.0273C16.1967 31.9273 21.8967 34.2273 24.3967 33.9273Z" fill="#C6C6C6"/>
<path d="M27.8962 22.6264C27.6962 23.7264 26.8962 24.6264 25.8962 25.4264C25.8962 25.4264 26.0962 28.0264 25.9962 28.0264C25.8962 28.0264 24.4962 29.2264 24.4962 29.2264L23.7962 31.1264C21.4962 32.8264 17.9962 31.5264 16.9962 30.0264C16.3962 29.2264 15.6962 26.1264 15.8962 23.1264C16.2962 20.6264 18.0962 18.1264 21.9962 18.0264C25.7962 17.7264 28.1962 20.0264 27.8962 22.6264Z" fill="black"/>
<path d="M25.5965 28.3255C25.9965 27.9255 25.3965 26.9255 24.9965 26.8255C24.3965 26.6255 24.0965 27.5255 23.9965 27.9255C23.8965 28.5255 23.9965 29.0255 24.2965 29.5255C24.6965 30.1255 25.2965 29.5255 25.4965 29.0255C25.6965 28.7255 25.2965 28.6255 25.5965 28.3255Z" fill="#FCAF75"/>
<path d="M26.696 49.0258C26.796 49.7258 26.996 50.3258 27.196 51.1258C28.196 52.3258 29.196 53.3258 30.396 54.2258C32.396 55.7258 34.696 56.8258 37.196 57.4258C41.196 55.8258 42.396 54.7258 45.796 50.8258C46.296 49.8258 45.996 48.7258 44.396 47.5258C40.996 48.7258 39.796 48.6258 37.596 49.7258C35.096 45.6258 32.596 41.4258 30.096 40.4258C26.896 41.9258 25.896 44.9258 26.696 49.0258Z" fill="#EDEDED"/>
<path opacity="0.25" d="M30.9961 76.7264C30.5961 81.7264 28.9961 89.3264 28.9961 89.3264L27.8961 112.226C28.0961 113.726 27.4961 114.926 26.4961 115.726C27.4961 106.126 27.8961 97.1264 26.4961 90.1264C28.6961 82.2264 29.5961 73.9264 27.1961 67.8264C27.1961 65.4264 27.4961 63.1264 26.9961 61.4264C27.8961 61.1264 28.7961 60.8264 29.7961 60.4264C29.5961 60.2264 31.3961 71.7264 30.9961 76.7264Z" fill="black"/>
<path opacity="0.15" d="M45.7969 50.7258C42.6969 54.0258 41.3969 55.6258 37.1969 57.3258C34.5969 56.7258 32.3969 55.6258 30.3969 54.1258C30.2969 56.2258 30.0969 58.3258 29.5969 60.2258C28.6969 60.6258 27.6969 61.0258 26.7969 61.2258C26.7969 61.0258 26.6969 60.9258 26.5969 60.7258C26.0969 59.3258 24.9969 58.3258 22.7969 57.6258C25.1969 56.2258 25.8969 53.1258 26.5969 48.8258C26.6969 47.9258 26.8969 46.9258 26.9969 45.9258C28.0969 48.0258 29.1969 49.4258 30.3969 50.5258C32.1969 52.2258 34.3969 53.3258 37.5969 55.0258C38.8969 55.9258 41.7969 52.1258 45.7969 50.7258Z" fill="#3C3C3B"/>
</g>
<defs>
<clipPath id="clip0">
<rect width="101.6" height="138.1" fill="white"/>
</clipPath>
</defs>
</svg>
