<svg width="70" height="80" viewBox="0 0 70 80" fill="none" xmlns="http://www.w3.org/2000/svg">
<path d="M68.9757 54.3093C58.0764 47.0749 47.1518 39.5863 36.5799 32.2987C35.651 31.6581 34.349 31.6581 33.4201 32.2987C22.8482 39.5864 11.9236 47.075 1.02434 54.3093C-0.322124 55.203 -0.345632 56.886 0.980215 57.7523C11.7117 64.7679 22.6418 72.1421 33.392 79.4194C34.3366 80.0589 35.6633 80.0589 36.6077 79.4194C47.3579 72.1421 58.288 64.7679 69.0195 57.7523C70.3457 56.8858 70.3222 55.203 68.9757 54.3093Z" fill="#E84B37" fill-opacity="0.6"/>
<path d="M68.9757 44.4103C58.0764 37.1758 47.1518 29.6872 36.5799 22.3996C35.651 21.7591 34.349 21.7591 33.4201 22.3996C22.8482 29.6874 11.9236 37.176 1.02434 44.4103C-0.322124 45.304 -0.345632 46.9869 0.980215 47.8532C11.7117 54.8689 22.6418 62.2431 33.392 69.5203C34.3366 70.1599 35.6633 70.1599 36.6077 69.5203C47.3579 62.2431 58.288 54.8689 69.0195 47.8532C70.3457 46.9868 70.3222 45.304 68.9757 44.4103Z" fill="#E84B37"/>
<path d="M68.9757 33.8249C58.0764 26.5838 47.1518 19.0883 36.5799 11.794C35.651 11.1528 34.349 11.1528 33.4201 11.794C22.8482 19.0884 11.9236 26.5839 1.02434 33.8249C-0.322124 34.7194 -0.345632 36.4039 0.980215 37.271C11.7117 44.2931 22.6418 51.6741 33.392 58.958C34.3366 59.5982 35.6633 59.5982 36.6077 58.958C47.3579 51.6741 58.288 44.2931 69.0195 37.271C70.3457 36.4037 70.3222 34.7194 68.9757 33.8249Z" fill="url(#paint0_linear)"/>
<defs>
<linearGradient id="paint0_linear" x1="35" y1="11.3131" x2="35" y2="59.4381" gradientUnits="userSpaceOnUse">
<stop stop-color="#A6A0BA" stop-opacity="0.15"/>
<stop offset="1" stop-opacity="0.2"/>
</linearGradient>
</defs>
</svg>
