<svg width="40" height="47" viewBox="0 0 40 47" fill="none" xmlns="http://www.w3.org/2000/svg">
<g filter="url(#filter0_biii)">
<circle cx="19.3463" cy="34.6048" r="9.67074" transform="rotate(20 19.3463 34.6048)" fill="url(#paint0_linear)"/>
</g>
<g filter="url(#filter1_iii)">
<mask id="mask0" mask-type="alpha" maskUnits="userSpaceOnUse" x="1" y="6" width="38" height="37">
<path fill-rule="evenodd" clip-rule="evenodd" d="M29.1184 7.59333C23.12 5.41009 16.443 8.12543 13.6708 13.8754L10.6571 20.1264C10.6571 20.1264 10.0129 22.2571 8.80259 22.7713C6.46264 22.2427 3.99304 23.1008 2.49017 25.0305C0.765836 27.2445 1.48544 30.472 4.01394 31.6893C7.92587 33.5726 13.4721 36.1352 17.8073 37.7131C22.3064 39.3506 28.4865 41.0141 32.7155 42.0841C35.2578 42.7273 37.7514 40.9625 38.0425 38.3564C38.2981 36.0672 37.2539 33.8775 35.4243 32.6169C34.6487 31.1392 35.1722 29.1499 35.1722 29.1499L36.9098 22.3514C38.4921 16.1607 35.1229 9.77876 29.1184 7.59333Z" fill="#C4C4C4"/>
</mask>
<g mask="url(#mask0)">
<g clip-path="url(#clip0)">
<rect width="38" height="37" transform="translate(1 6)" fill="#E84B37"/>
<path d="M-63.8546 -12.3529C-66.6266 -15.127 -71.5473 -15.9477 -79.8306 -13.7646C-71.4325 -16.6535 -66.5774 -15.7836 -63.8546 -12.3529ZM43.1876 42.422V43.2591C36.6103 42.3727 30.525 39.1391 24.1772 36.365C36.3806 43.0129 39.94 46.5748 43.1876 46.739V62.5296C20.7655 70.6384 -10.5959 55.5699 2.90328 49.3489C8.74255 46.6569 35.0028 56.0623 24.3248 42.3891C26.1291 45.672 26.4572 49.119 20.257 48.1342C22.3566 47.7895 24.8169 46.9852 22.9963 44.2276C21.1756 41.4699 23.0783 48.7579 10.2188 45.0154C0.0492554 42.0609 -14.7129 50.1039 -5.03549 40.4194C-26.0306 55.6848 15.9596 73.9212 40.1696 67.0436C37.2664 67.8151 32.6409 68.0613 27.4085 67.733C32.8541 67.6509 38.1357 66.4527 43.1712 64.4009V69.4237C24.9317 81.3898 7.92242 84.1474 -22.9962 72.2634C3.64139 88.8419 -27.146 81.0779 -27.8349 80.881C-25.3909 81.5539 -13.2367 83.2775 -14.3849 81.1436C-15.5331 79.0097 -24.62 79.7155 -31.6074 76.9743C-28.7206 76.6789 -23.6194 78.5993 -29.9672 73.1169C-17.6162 83.3267 -27.1952 72.2141 -33.9694 67.2077C-34.9207 66.4198 -35.8228 65.5827 -36.6922 64.6963C-35.8064 65.4186 -35.0683 65.5827 -34.5763 65.0082C-36.3969 61.8566 -37.988 58.8856 -39.3822 56.0788C-38.9885 56.604 -38.5785 57.1457 -38.1356 57.671C-63.6414 4.98068 0.377304 -15.8164 3.24773 -34.0528C3.0181 -33.3306 2.65724 -32.6083 2.14877 -31.9025C2.93608 -34.0036 3.36255 -35.5301 3.11652 -37.0402H7.21712C7.29913 -36.8268 7.39754 -36.597 7.46316 -36.3672C7.67638 -36.597 7.8568 -36.8268 8.02083 -37.0402H13.5649C13.5813 -33.8722 11.2849 -30.1133 4.72395 -25.3039C9.75949 -28.5047 13.9913 -32.3949 14.9427 -37.0566H17.6327C10.9897 -30.1626 1.55828 -19.9036 -3.93653 -17.9503C-22.2088 -9.36552 -33.7233 8.85448 -36.4625 26.7298C-34.1334 18.9822 -29.6719 11.0048 -23.603 3.4049C-32.526 15.6008 -37.7747 29.668 -36.6102 41.7326C-36.0853 45.3109 -35.1339 48.7415 -33.7397 51.9259C-29.2127 60.921 -19.3712 67.5853 -2.47672 69.5058C-23.029 58.2291 -24.4724 29.8485 2.01755 26.5985C10.4648 25.2032 18.3708 27.6326 26.1455 30.3574C16.1728 27.846 2.59163 23.7259 -5.39635 30.4066C3.34615 29.3725 12.3675 30.341 20.7819 33.1642C11.4489 31.293 -1.23013 26.5821 -8.62762 35.0519C-6.67574 33.8536 -4.05135 31.5556 1.19743 31.5556C-6.51171 33.0329 -6.01965 35.1668 1.32864 34.7072C-11.3504 35.5279 -23.7343 45.1796 -11.6129 58.4096C0.508522 71.6396 12.8431 71.7381 8.59492 74.5122C1.0334 79.4857 -23.1602 68.4881 -30.7217 57.6217C-30.9677 57.3591 -31.1974 57.0965 -31.4434 56.8338C-21.5691 71.9187 4.82236 82.6865 20.4867 75.021C27.1133 71.7709 -30.7873 57.6545 -10.3335 39.3689C-4.80586 34.4281 9.62827 34.3789 16.9438 40.7149C12.187 37.629 -4.87147 35.9219 0.377304 40.7477C4.31389 44.3589 21.7989 46.4763 19.0925 41.6505C17.5342 39.5987 15.5331 38.0393 13.286 36.9067C13.3188 36.9231 13.3516 36.9231 13.3844 36.9396C-5.65879 26.2045 15.894 32.4092 35.7409 40.6328C38.3161 41.9624 40.8093 42.4876 43.1876 42.422ZM-30.0984 58.2619C-30.0984 58.2619 -22.9962 66.5347 -11.2684 70.6219C-2.05025 73.8227 6.06895 73.2647 6.11816 72.92C6.16736 72.5424 -3.62489 72.6081 -15.205 67.5032C-24.702 63.3175 -30.0984 58.2619 -30.0984 58.2619ZM-6.4297 -18.2785C-3.14922 -20.5109 0.131271 -22.7269 3.41175 -24.9592C0.672546 -23.8594 -4.4122 -20.4124 -6.4297 -18.2785ZM-37.1842 44.3589C-37.3155 42.7174 -38.2832 37.4484 -38.152 35.7413C-39.3002 18.7852 -31.5746 0.138428 -14.5161 -11.5815C-35.6096 1.53365 -42.9251 20.3938 -37.1842 44.3589ZM-39.1033 17.6854C-36.971 13.4505 -34.7403 9.00221 -32.4768 4.50467C-34.7403 7.19663 -39.251 16.1261 -39.1033 17.6854ZM-16.714 72.6573C-26.6047 67.8971 -35.626 60.5927 -40.2843 50.4322C-38.2832 59.1154 -25.1121 72.1485 -16.714 72.6573ZM25.0794 40.7805C26.4244 42.7831 27.2773 43.5382 29.2292 47.0508C36.1674 59.5422 -2.19788 44.2768 1.95194 54.7328C4.47791 61.1016 22.1925 64.2203 27.4413 64.2203C13.0072 61.594 3.42816 57.7859 4.4287 53.5838C5.95413 47.3135 51.2248 69.1446 25.0794 40.7805ZM-48.5019 36.8082C-48.6003 33.8701 -48.8792 27.5833 -48.3379 24.6616C-49.2564 27.0252 -48.8792 33.4433 -48.5019 36.8082ZM-36.6922 64.6799C-37.3155 64.0562 -37.906 63.416 -38.48 62.743C-37.8403 63.5802 -37.2335 64.2367 -36.6922 64.6799ZM-38.48 62.7594C-42.351 57.6874 -47.2717 48.5938 -48.3379 39.2704C-48.0427 48.7415 -44.6966 55.5535 -38.48 62.7594ZM-12.3018 -34.7422C-11.4652 -33.3634 -11.088 -31.8533 -10.9404 -30.4088C-10.8912 -32.0174 -11.2848 -33.5111 -12.3018 -34.7422ZM-14.3521 -37.0566H-16.0087C-14.3193 -36.4986 -13.1219 -35.7107 -12.3182 -34.7422C-12.8102 -35.5629 -13.4663 -36.3508 -14.3521 -37.0566ZM-40.7928 53.8792C-44.5653 46.2301 -45.123 43.3576 -46.2056 37.629C-45.9924 44.4245 -45.3855 46.821 -40.7928 53.8792ZM-45.8775 68.1598C-39.9727 74.8897 -25.8666 78.8291 -33.4117 70.9502C-31.2794 76.367 -41.2849 72.2634 -45.8775 68.1598ZM-23.3734 -32.477C-23.4554 -34.0692 -23.8163 -35.5958 -24.5052 -37.0566H-28.0645C-26.9983 -36.597 -25.9978 -36.0061 -25.0629 -35.2346C-26.7031 -35.842 -28.3433 -36.4329 -30.0492 -37.0566H-31.8043C-27.7365 -36.0554 -24.456 -34.5288 -23.3734 -32.477ZM43.1876 -37.0566V-30.6058C32.2636 -35.1197 23.0127 -31.3444 17.7639 -26.8797C12.5151 -22.415 5.16681 -21.5614 -0.557632 -18.0816C5.47845 -22.3329 13.8273 -24.0893 18.8136 -29.1777C23.8 -34.2662 21.9137 -35.0048 22.9142 -37.0566H43.1876ZM34.9208 -34.9556C31.3943 -34.9064 28.3763 -33.5275 25.4238 -31.9189C28.5403 -33.0844 31.7223 -34.102 34.9208 -34.9556ZM26.6048 66.0916C22.7338 65.8453 18.5348 65.2872 14.467 64.4009C18.5676 65.632 22.619 66.1572 26.6048 66.0916ZM15.2871 66.0587C12.9252 65.3529 10.5632 64.4337 8.16846 63.2519C-16.0251 49.7756 5.134 46.3286 15.3199 48.0521C9.23461 45.5079 -8.64403 42.3727 -3.57568 55.3073C-4.69105 53.9121 -7.00378 51.9095 -6.51171 48.1342C-9.7922 57.1621 4.3959 63.6786 15.2871 66.0587ZM-3.39526 -15.882C-12.2198 -10.5145 -17.3701 -5.11419 -23.5866 3.38848C-17.3701 -4.39195 -12.3346 -9.57891 -3.39526 -15.882ZM43.1876 36.8082V35.4294C40.7929 35.0355 33.5922 32.9344 31.2139 32.2122C34.5108 33.5089 42.4331 36.3158 43.1876 36.8082ZM-21.8808 -37.0566H-16.1891C-5.00269 -31.1146 -19.6829 -21.1511 -22.1268 -14.257C-17.8786 -16.3745 -11.17 -24.2862 -10.9404 -30.3924C-10.2679 -23.564 -14.7785 -17.8354 -0.984093 -30.2939C1.37785 -31.8533 1.82072 -34.3975 0.918587 -37.0566H1.75511C3.23132 -22.9238 -25.1777 -15.7343 -28.0317 -8.7746C-21.0607 -10.3176 -32.6736 -5.0157 -30.9513 -3.91593C-23.5046 -8.80743 -17.7474 -15.8 -10.1531 -20.4781C-27.8677 -8.06878 -47.1897 14.3533 -46.4844 36.1845C-51.6512 8.93656 -17.3865 -20.5766 -19.1088 -31.4429C-19.9617 -36.7284 -21.0935 -35.6614 -21.8808 -37.0566ZM-25.2105 -14.4704C-26.1618 -14.7166 -27.9333 -13.0588 -27.9661 -11.3024C-26.9163 -12.5007 -26.0634 -13.4855 -25.2105 -14.4704ZM-16.0415 -30.6878C-16.2548 -31.3444 -16.4516 -31.9353 -16.6976 -32.7068C-17.5013 -31.3116 -17.3045 -30.6878 -16.0415 -30.6878ZM-14.2701 -29.9984C-14.7621 -30.8356 -14.5981 -32.7561 -15.5166 -32.4114C-15.1558 -31.6727 -16.386 -30.4088 -14.2701 -29.9984ZM-19.9945 -36.6135C-18.4035 -31.2131 -17.6162 -36.6463 -14.0568 -33.0679C-14.3849 -35.0541 -17.1569 -36.8761 -19.9945 -36.6135ZM-55.719 61.2657C-51.438 69.5058 -48.6167 74.4793 -35.8721 77.3518C-43.6468 73.9541 -49.6829 69.5878 -55.719 61.2657ZM-81.6348 62.2998V63.6951C-74.2701 71.8366 -66.5282 81.2257 -57.9825 84.9681C-56.3751 85.9858 -54.7513 86.9543 -53.111 87.8571H-50.7819C-56.5391 85.083 -61.7223 81.7509 -66.0689 77.8935C-71.2357 74.4137 -76.3696 68.1269 -81.6348 62.2998ZM-81.6348 -15.7343V-16.9818C-42.9251 -32.4606 -57.0312 11.8583 -58.8355 22.8396C-60.6397 33.8208 -56.3751 55.0282 -52.9306 49.8905C-49.4861 44.7528 -61.4598 37.629 -38.4472 -6.96901C-48.4855 7.18021 -54.7348 32.0481 -57.31 32.1137C-59.8852 32.1794 -58.5074 23.6767 -57.0312 20.3938C-58.8355 53.0585 -31.7058 -41.6198 -80.1586 -20.9541C-80.5523 -20.7407 -81.0443 -20.5273 -81.6348 -20.2975V-24.2862C-67.3319 -31.7055 -58.9995 -36.1703 -47.1077 -36.1703C-35.216 -36.1703 -25.7846 -33.6589 -23.4554 -30.1298C-25.801 -8.44631 -71.7606 24.5795 -40.5139 64.762C-33.8874 72.0992 -37.0202 72.5917 -44.0733 67.1749C-51.1263 61.7581 -58.6222 49.1026 -61.5747 33.788C-61.3614 42.898 -60.0984 51.9095 -56.1783 59.4273C-60.3281 53.7151 -62.1159 48.9549 -63.2149 38.1542C-64.3139 27.3535 -61.0006 11.6778 -60.6725 -0.501732C-60.1476 3.32283 -60.1641 5.70292 -60.3117 9.06787C-52.8322 -16.7028 -67.3811 -21.1511 -81.6348 -15.7343ZM-64.1006 -30.7043C-66.7086 -30.1954 -71.859 -28.4555 -73.7945 -26.8797C-70.5632 -28.16 -67.3319 -29.4239 -64.1006 -30.7043ZM-30.2296 -30.9669C-27.8185 -28.6689 -28.573 -24.8115 -29.918 -21.6271C-29.7376 -21.8897 -29.5407 -22.1688 -29.3275 -22.4478C-27.0968 -25.665 -27.8349 -28.9643 -30.2296 -30.9669ZM-30.3936 -28.9315C-30.1968 -26.2395 -30.4921 -23.8759 -31.3614 -21.1675C-29.1307 -24.4832 -28.7862 -27.2408 -30.3936 -28.9315ZM-45.8283 -33.4783C-43.2203 -33.4783 -40.6288 -33.4783 -38.0208 -33.4783C-40.2351 -33.6917 -43.5812 -33.6917 -45.8283 -33.4783ZM-30.9841 -28.2257C-33.5593 -34.3154 -43.9256 -33.1664 -49.4861 -32.2965C-43.3844 -32.3129 -35.1504 -33.7573 -30.9841 -28.2257ZM-31.9355 -21.4465C-33.7069 -17.7697 -37.3483 -15.6522 -39.4478 -12.2709C-37.1842 -12.4022 -32.1815 -18.9023 -31.9355 -21.4465ZM39.1362 6.39232C35.8558 2.86322 35.6917 2.22306 37.414 -0.0749588C34.0351 1.59931 36.8727 5.07917 39.1362 6.39232ZM31.8372 -31.5578C35.6097 -31.7548 39.4315 -30.7371 43.1876 -29.8671V-30.0149C39.4971 -31.4593 35.8393 -32.9366 31.8372 -31.5578ZM43.1876 29.8813V27.9116C39.0378 26.6477 34.9864 25.5151 30.9022 25.0391C34.7732 26.2866 38.9886 29.1263 43.1876 29.8813ZM-81.6348 69.0954C-75.0739 75.6283 -68.4801 82.1941 -61.4762 87.8571H-58.1301C-66.3642 80.7989 -73.9421 72.1485 -81.6348 65.6484V69.0954ZM-81.6348 70.2772V78.0248C-76.9109 80.3721 -71.7278 83.6222 -66.0689 87.8571H-63.5265C-69.7923 83.8684 -75.73 76.7445 -81.6348 70.2772ZM43.1876 8.16508V-1.43736C42.1379 -0.830021 41.0061 -0.239101 39.7923 0.335403C38.7426 3.35566 40.4156 6.19535 43.1876 8.16508ZM35.0192 -0.0913734C31.2303 1.76345 34.0023 3.65112 35.7901 5.65368C34.2319 2.60059 32.5097 2.28872 35.0192 -0.0913734ZM25.4074 -22.5627C33.8382 -24.91 37.7584 -22.6612 43.1876 -19.8707V-20.2647C37.6108 -22.9895 34.8224 -25.8948 25.4074 -22.5627ZM43.1876 -7.54352V-7.55993C43.122 -7.5271 43.0564 -7.49427 42.9908 -7.46144C43.0564 -7.49427 43.122 -7.5271 43.1876 -7.54352ZM42.1051 87.8571C42.4659 87.6601 42.8268 87.4795 43.1876 87.2826V86.3798C42.4659 86.8886 41.7278 87.3646 40.9897 87.8571H42.1051ZM-81.4216 -37.0566C-81.4708 -37.0402 -81.52 -37.0238 -81.5528 -37.0074C-81.5036 -37.0238 -81.4544 -37.0402 -81.4052 -37.0566H-81.4216ZM-81.6348 -36.991C-81.602 -36.991 -81.5856 -37.0074 -81.5528 -37.0074C-81.5856 -37.0074 -81.602 -36.991 -81.6348 -36.991ZM-76.1892 -37.0566C-78.2231 -36.2523 -80.0438 -35.6122 -81.6348 -35.1197V-29.8343C-74.6474 -32.6576 -67.4631 -35.0541 -60.5741 -37.0566H-76.1892ZM-31.3942 87.8571H-28.6386C-32.5096 86.4454 -42.8267 80.6511 -44.1225 79.9289C-39.251 83.3924 -34.7895 86.1007 -31.3942 87.8571ZM-81.6348 -8.03595V-10.8264C-46.2876 -19.8543 -80.1586 44.3096 -52.9634 73.1333C-78.0263 57.3263 -67.3647 23.1843 -69.8087 -0.140617C-70.6124 -7.83898 -75.73 -8.62687 -81.6348 -8.03595ZM-72.2854 -8.98799C-63.9202 0.204086 -69.415 19.409 -68.9065 33.2135C-68.9558 23.3156 -58.3434 -5.86925 -72.2854 -8.98799ZM16.058 87.8571C24.9973 85.5262 33.461 81.8166 40.7273 76.646C41.5638 75.8253 42.3839 75.021 43.1712 74.2495V71.1308C31.6075 78.3203 19.6502 84.4265 7.8076 87.8571H16.058ZM-52.0284 74.069C-50.1094 75.9402 -47.813 77.5981 -45.0574 78.9933L-52.0284 74.069ZM21.2084 27.9445C11.4489 21.1161 35.7737 34.0014 43.1876 34.8549V31.9824C31.3451 28.6503 0.787369 19.1463 21.2084 27.9445ZM-68.9229 57.3755C-66.8726 62.4147 -64.7403 70.2936 -51.7824 77.1877C-61.7879 68.9805 -65.2324 63.7279 -68.9229 57.3755ZM-77.6982 38.778C-77.2062 45.672 -73.5156 50.3173 -70.1531 54.3717C-78.4856 29.5531 -61.8535 -6.32885 -81.6348 -6.70638V-4.50685C-80.0438 -4.73665 -79.8306 -6.52582 -76.7961 -5.03211C-69.1198 -0.797192 -71.8918 12.1374 -73.7289 18.4405C-74.1553 12.5149 -70.9404 3.99582 -76.5501 -0.0585442C-81.9629 -1.81489 -75.5495 6.78627 -76.5993 9.42899C-77.7475 5.89989 -79.4861 3.60187 -81.6348 2.25589V6.35949C-75.5659 12.121 -77.0093 28.1907 -76.7961 35.0847C-79.2565 30.1768 -80.2242 24.5303 -81.6348 19.1463V45.1139C-78.0263 51.6633 -75.0246 58.7051 -72.7775 64.0398C-75.7956 60.248 -78.666 55.6192 -81.6348 51.0724V59.099C-74.0077 66.4198 -66.2493 76.0387 -57.8349 82.4239C-62.1159 79.8468 -66.2001 76.8923 -70.0383 73.5601C-64.7895 78.4516 -58.9667 82.506 -52.7666 85.7889C-51.8972 86.2813 -51.0279 86.7245 -50.1422 87.1184C-49.6337 87.3646 -49.1416 87.5945 -48.6331 87.8407H-32.5424C-66.7086 79.9782 -78.8464 47.8059 -77.6982 38.778ZM38.9394 87.8571C40.3828 87.1677 41.8098 86.429 43.1876 85.6411V76.8923C35.3637 81.7509 27.8186 85.3457 20.5687 87.8571H38.9394ZM30.3609 36.6933C35.1668 39.2376 39.2511 41.2401 43.1876 41.1909V37.0052C42.7776 36.9888 41.5966 36.6933 39.3823 36.0203C47.7967 44.0142 36.2002 39.7136 30.3609 36.6933ZM-81.6348 87.8571H-71.2029C-74.713 85.8381 -78.2231 83.7863 -81.6348 81.9807V87.8571ZM-24.7184 19.0478C-24.7184 19.0314 -24.702 19.015 -24.702 18.9986C-24.702 19.015 -24.702 19.0314 -24.7184 19.0478ZM-24.5216 18.6539C-24.5872 18.7688 -24.6364 18.8837 -24.702 18.9986C-24.6364 18.8837 -24.5872 18.7688 -24.5216 18.6539ZM-24.456 18.539C-24.4724 18.5718 -24.4888 18.5882 -24.5052 18.6211C-24.4888 18.5882 -24.4724 18.5718 -24.456 18.539ZM-24.5052 18.6211C-24.5052 18.6375 -24.5216 18.6375 -24.5216 18.6539C-24.5216 18.6375 -24.5052 18.6375 -24.5052 18.6211ZM-23.2422 19.5731C-33.2477 29.4218 -28.655 53.3868 -25.5057 45.5407C-19.3548 30.2589 -4.87147 16.4544 13.3352 24.3333C3.98584 18.9165 21.192 22.2979 31.6567 24.1199C20.1422 21.4772 8.18486 17.8824 -3.19843 21.4279C0.360909 19.7865 2.46041 19.0971 6.44621 19.0807C-2.88678 18.1286 -10.5959 20.2297 -18.5511 26.303C-26.5063 32.3763 -15.041 12.1866 -16.6812 11.2017C-18.2066 10.2825 -22.4221 14.6159 -24.456 18.539C-21.8152 13.5326 -18.141 14.5503 -23.2422 19.5731ZM-24.8824 19.409C-24.8332 19.2776 -24.7676 19.1627 -24.7184 19.0478C-24.7676 19.1627 -24.8332 19.2941 -24.8824 19.409ZM9.89071 19.0807C19.847 20.0984 25.8831 22.7575 35.4785 23.8408C25.7027 21.789 19.4041 19.015 9.89071 19.0807ZM30.3609 36.6933C30.0985 36.562 29.8525 36.4143 29.59 36.283C29.8197 36.4307 30.0821 36.562 30.3609 36.6933ZM-65.5604 -34.6601C-64.035 -35.2182 -62.5096 -35.7763 -60.9842 -36.3344C-62.772 -36.9253 -64.1826 -35.4809 -65.5604 -34.6601ZM-54.374 -37.0566H-57.0804C-68.1356 -32.4442 -89.8196 -24.2042 -54.374 -37.0566ZM-10.6287 80.0602C-3.08361 83.5237 -10.7599 84.4265 -14.9426 84.3116C-8.66043 85.28 -1.34495 82.9163 -10.6287 80.0602ZM-2.54233 81.8166C2.23078 85.1651 -4.19897 85.4934 -7.18421 85.8217C-3.87093 85.6083 5.41285 85.1487 -2.54233 81.8166ZM6.4298 81.6196C16.9438 86.0679 5.92133 86.8722 0.0492554 87.8571H2.19798C8.98858 87.102 19.1253 84.7712 6.4298 81.6196ZM43.1876 25.5644V24.9406C41.449 24.9242 39.6775 24.8093 37.8732 24.6123C39.6775 24.9734 41.449 25.3017 43.1876 25.5644ZM-29.4751 55.3565C-27.3428 58.9677 -23.2422 61.7581 -21.4379 62.0864C-23.7343 60.9374 -27.0147 58.3111 -29.4751 55.3565ZM-10.7763 66.3542C-31.5746 45.0483 -11.7605 25.6464 2.3456 23.1843C-7.33183 23.5126 -27.5068 38.2855 -22.5861 52.5661C-26.0306 52.1885 -29.9672 46.4927 -31.0497 40.8298C-30.2952 49.2832 -24.3904 58.3111 -10.7763 66.3542ZM-23.2422 58.4753C-29.8032 52.5661 -32.69 43.6366 -32.7228 37.7274C-33.4281 43.8829 -31.9355 51.9095 -23.2422 58.4753ZM43.1876 26.5985V26.1553C41.9903 26.0404 40.7765 25.8926 39.5463 25.6957C40.8585 25.9911 42.0723 26.2866 43.1876 26.5985ZM43.1876 -28.5704V-25.3039C38.9886 -26.814 38.759 -28.5211 28.163 -26.8633C17.5671 -25.2054 -12.0065 -9.95644 -18.4363 1.82911C-7.65989 -11.286 35.1833 -32.4278 43.1876 -17.0803V-9.464C32.3784 -2.43863 -0.311592 0.515961 3.19852 6.67137C4.75675 8.67392 9.56266 10.7257 14.1553 7.60699C5.13401 5.63726 21.2904 -0.239101 23.7508 -1.27321C3.64139 7.86962 20.8803 6.29383 29.7705 7.34436C38.6606 8.39488 39.4315 10.3482 43.1876 11.7598V12.1702C35.134 9.98708 33.8383 7.45926 18.42 8.03376C35.8065 9.08429 27.7694 14.6652 43.1876 15.0427V22.3964C26.6212 22.5441 21.8645 17.7511 9.52985 17.7511C-2.80476 17.7511 -10.1859 18.736 -15.1558 21.7562C-23.8983 27.452 -11.2684 9.06787 -10.0874 6.34308C-2.3947 -10.4817 -30.3936 17.5213 -32.7228 37.7274C-32.8048 20.4431 -17.5013 -1.27321 0.21328 -2.25808C5.79011 -2.58636 -27.9989 24.6616 -11.1044 19.5731C-24.8824 18.7524 21.2084 -5.7051 7.28272 -5.4753C-16.4844 -5.08136 -27.31 13.1386 -33.953 29.5202C-36.2657 3.43773 16.9438 -33.0844 43.1876 -28.5704ZM14.6966 8.73958C16.2056 9.69162 19.3549 9.28126 21.7497 9.49465C19.4041 9.08429 17.0914 8.16508 14.6966 8.73958ZM1.11542 16.9796C-4.10056 16.6349 -15.205 20.0655 -6.83976 12.1866C-17.0093 20.7221 -4.74025 17.6198 1.11542 16.9796Z" fill="#BD93B9"/>
<path d="M-63.8546 -12.3529C-66.6266 -15.127 -71.5473 -15.9477 -79.8306 -13.7646C-71.4325 -16.6535 -66.5774 -15.7836 -63.8546 -12.3529ZM43.1876 42.422V43.2591C36.6103 42.3727 30.525 39.1391 24.1772 36.365C36.3806 43.0129 39.94 46.5748 43.1876 46.739V62.5296C20.7655 70.6384 -10.5959 55.5699 2.90328 49.3489C8.74255 46.6569 35.0028 56.0623 24.3248 42.3891C26.1291 45.672 26.4572 49.119 20.257 48.1342C22.3566 47.7895 24.8169 46.9852 22.9963 44.2276C21.1756 41.4699 23.0783 48.7579 10.2188 45.0154C0.0492554 42.0609 -14.7129 50.1039 -5.03549 40.4194C-26.0306 55.6848 15.9596 73.9212 40.1696 67.0436C37.2664 67.8151 32.6409 68.0613 27.4085 67.733C32.8541 67.6509 38.1357 66.4527 43.1712 64.4009V69.4237C24.9317 81.3898 7.92242 84.1474 -22.9962 72.2634C3.64139 88.8419 -27.146 81.0779 -27.8349 80.881C-25.3909 81.5539 -13.2367 83.2775 -14.3849 81.1436C-15.5331 79.0097 -24.62 79.7155 -31.6074 76.9743C-28.7206 76.6789 -23.6194 78.5993 -29.9672 73.1169C-17.6162 83.3267 -27.1952 72.2141 -33.9694 67.2077C-34.9207 66.4198 -35.8228 65.5827 -36.6922 64.6963C-35.8064 65.4186 -35.0683 65.5827 -34.5763 65.0082C-36.3969 61.8566 -37.988 58.8856 -39.3822 56.0788C-38.9885 56.604 -38.5785 57.1457 -38.1356 57.671C-63.6414 4.98068 0.377304 -15.8164 3.24773 -34.0528C3.0181 -33.3306 2.65724 -32.6083 2.14877 -31.9025C2.93608 -34.0036 3.36255 -35.5301 3.11652 -37.0402H7.21712C7.29913 -36.8268 7.39754 -36.597 7.46316 -36.3672C7.67638 -36.597 7.8568 -36.8268 8.02083 -37.0402H13.5649C13.5813 -33.8722 11.2849 -30.1133 4.72395 -25.3039C9.75949 -28.5047 13.9913 -32.3949 14.9427 -37.0566H17.6327C10.9897 -30.1626 1.55828 -19.9036 -3.93653 -17.9503C-22.2088 -9.36552 -33.7233 8.85448 -36.4625 26.7298C-34.1334 18.9822 -29.6719 11.0048 -23.603 3.4049C-32.526 15.6008 -37.7747 29.668 -36.6102 41.7326C-36.0853 45.3109 -35.1339 48.7415 -33.7397 51.9259C-29.2127 60.921 -19.3712 67.5853 -2.47672 69.5058C-23.029 58.2291 -24.4724 29.8485 2.01755 26.5985C10.4648 25.2032 18.3708 27.6326 26.1455 30.3574C16.1728 27.846 2.59163 23.7259 -5.39635 30.4066C3.34615 29.3725 12.3675 30.341 20.7819 33.1642C11.4489 31.293 -1.23013 26.5821 -8.62762 35.0519C-6.67574 33.8536 -4.05135 31.5556 1.19743 31.5556C-6.51171 33.0329 -6.01965 35.1668 1.32864 34.7072C-11.3504 35.5279 -23.7343 45.1796 -11.6129 58.4096C0.508522 71.6396 12.8431 71.7381 8.59492 74.5122C1.0334 79.4857 -23.1602 68.4881 -30.7217 57.6217C-30.9677 57.3591 -31.1974 57.0965 -31.4434 56.8338C-21.5691 71.9187 4.82236 82.6865 20.4867 75.021C27.1133 71.7709 -30.7873 57.6545 -10.3335 39.3689C-4.80586 34.4281 9.62827 34.3789 16.9438 40.7149C12.187 37.629 -4.87147 35.9219 0.377304 40.7477C4.31389 44.3589 21.7989 46.4763 19.0925 41.6505C17.5342 39.5987 15.5331 38.0393 13.286 36.9067C13.3188 36.9231 13.3516 36.9231 13.3844 36.9396C-5.65879 26.2045 15.894 32.4092 35.7409 40.6328C38.3161 41.9624 40.8093 42.4876 43.1876 42.422ZM-30.0984 58.2619C-30.0984 58.2619 -22.9962 66.5347 -11.2684 70.6219C-2.05025 73.8227 6.06895 73.2647 6.11816 72.92C6.16736 72.5424 -3.62489 72.6081 -15.205 67.5032C-24.702 63.3175 -30.0984 58.2619 -30.0984 58.2619ZM-6.4297 -18.2785C-3.14922 -20.5109 0.131271 -22.7269 3.41175 -24.9592C0.672546 -23.8594 -4.4122 -20.4124 -6.4297 -18.2785ZM-37.1842 44.3589C-37.3155 42.7174 -38.2832 37.4484 -38.152 35.7413C-39.3002 18.7852 -31.5746 0.138428 -14.5161 -11.5815C-35.6096 1.53365 -42.9251 20.3938 -37.1842 44.3589ZM-39.1033 17.6854C-36.971 13.4505 -34.7403 9.00221 -32.4768 4.50467C-34.7403 7.19663 -39.251 16.1261 -39.1033 17.6854ZM-16.714 72.6573C-26.6047 67.8971 -35.626 60.5927 -40.2843 50.4322C-38.2832 59.1154 -25.1121 72.1485 -16.714 72.6573ZM25.0794 40.7805C26.4244 42.7831 27.2773 43.5382 29.2292 47.0508C36.1674 59.5422 -2.19788 44.2768 1.95194 54.7328C4.47791 61.1016 22.1925 64.2203 27.4413 64.2203C13.0072 61.594 3.42816 57.7859 4.4287 53.5838C5.95413 47.3135 51.2248 69.1446 25.0794 40.7805ZM-48.5019 36.8082C-48.6003 33.8701 -48.8792 27.5833 -48.3379 24.6616C-49.2564 27.0252 -48.8792 33.4433 -48.5019 36.8082ZM-36.6922 64.6799C-37.3155 64.0562 -37.906 63.416 -38.48 62.743C-37.8403 63.5802 -37.2335 64.2367 -36.6922 64.6799ZM-38.48 62.7594C-42.351 57.6874 -47.2717 48.5938 -48.3379 39.2704C-48.0427 48.7415 -44.6966 55.5535 -38.48 62.7594ZM-12.3018 -34.7422C-11.4652 -33.3634 -11.088 -31.8533 -10.9404 -30.4088C-10.8912 -32.0174 -11.2848 -33.5111 -12.3018 -34.7422ZM-14.3521 -37.0566H-16.0087C-14.3193 -36.4986 -13.1219 -35.7107 -12.3182 -34.7422C-12.8102 -35.5629 -13.4663 -36.3508 -14.3521 -37.0566ZM-40.7928 53.8792C-44.5653 46.2301 -45.123 43.3576 -46.2056 37.629C-45.9924 44.4245 -45.3855 46.821 -40.7928 53.8792ZM-45.8775 68.1598C-39.9727 74.8897 -25.8666 78.8291 -33.4117 70.9502C-31.2794 76.367 -41.2849 72.2634 -45.8775 68.1598ZM-23.3734 -32.477C-23.4554 -34.0692 -23.8163 -35.5958 -24.5052 -37.0566H-28.0645C-26.9983 -36.597 -25.9978 -36.0061 -25.0629 -35.2346C-26.7031 -35.842 -28.3433 -36.4329 -30.0492 -37.0566H-31.8043C-27.7365 -36.0554 -24.456 -34.5288 -23.3734 -32.477ZM43.1876 -37.0566V-30.6058C32.2636 -35.1197 23.0127 -31.3444 17.7639 -26.8797C12.5151 -22.415 5.16681 -21.5614 -0.557632 -18.0816C5.47845 -22.3329 13.8273 -24.0893 18.8136 -29.1777C23.8 -34.2662 21.9137 -35.0048 22.9142 -37.0566H43.1876ZM34.9208 -34.9556C31.3943 -34.9064 28.3763 -33.5275 25.4238 -31.9189C28.5403 -33.0844 31.7223 -34.102 34.9208 -34.9556ZM26.6048 66.0916C22.7338 65.8453 18.5348 65.2872 14.467 64.4009C18.5676 65.632 22.619 66.1572 26.6048 66.0916ZM15.2871 66.0587C12.9252 65.3529 10.5632 64.4337 8.16846 63.2519C-16.0251 49.7756 5.134 46.3286 15.3199 48.0521C9.23461 45.5079 -8.64403 42.3727 -3.57568 55.3073C-4.69105 53.9121 -7.00378 51.9095 -6.51171 48.1342C-9.7922 57.1621 4.3959 63.6786 15.2871 66.0587ZM-3.39526 -15.882C-12.2198 -10.5145 -17.3701 -5.11419 -23.5866 3.38848C-17.3701 -4.39195 -12.3346 -9.57891 -3.39526 -15.882ZM43.1876 36.8082V35.4294C40.7929 35.0355 33.5922 32.9344 31.2139 32.2122C34.5108 33.5089 42.4331 36.3158 43.1876 36.8082ZM-21.8808 -37.0566H-16.1891C-5.00269 -31.1146 -19.6829 -21.1511 -22.1268 -14.257C-17.8786 -16.3745 -11.17 -24.2862 -10.9404 -30.3924C-10.2679 -23.564 -14.7785 -17.8354 -0.984093 -30.2939C1.37785 -31.8533 1.82072 -34.3975 0.918587 -37.0566H1.75511C3.23132 -22.9238 -25.1777 -15.7343 -28.0317 -8.7746C-21.0607 -10.3176 -32.6736 -5.0157 -30.9513 -3.91593C-23.5046 -8.80743 -17.7474 -15.8 -10.1531 -20.4781C-27.8677 -8.06878 -47.1897 14.3533 -46.4844 36.1845C-51.6512 8.93656 -17.3865 -20.5766 -19.1088 -31.4429C-19.9617 -36.7284 -21.0935 -35.6614 -21.8808 -37.0566ZM-25.2105 -14.4704C-26.1618 -14.7166 -27.9333 -13.0588 -27.9661 -11.3024C-26.9163 -12.5007 -26.0634 -13.4855 -25.2105 -14.4704ZM-16.0415 -30.6878C-16.2548 -31.3444 -16.4516 -31.9353 -16.6976 -32.7068C-17.5013 -31.3116 -17.3045 -30.6878 -16.0415 -30.6878ZM-14.2701 -29.9984C-14.7621 -30.8356 -14.5981 -32.7561 -15.5166 -32.4114C-15.1558 -31.6727 -16.386 -30.4088 -14.2701 -29.9984ZM-19.9945 -36.6135C-18.4035 -31.2131 -17.6162 -36.6463 -14.0568 -33.0679C-14.3849 -35.0541 -17.1569 -36.8761 -19.9945 -36.6135ZM-55.719 61.2657C-51.438 69.5058 -48.6167 74.4793 -35.8721 77.3518C-43.6468 73.9541 -49.6829 69.5878 -55.719 61.2657ZM-81.6348 62.2998V63.6951C-74.2701 71.8366 -66.5282 81.2257 -57.9825 84.9681C-56.3751 85.9858 -54.7513 86.9543 -53.111 87.8571H-50.7819C-56.5391 85.083 -61.7223 81.7509 -66.0689 77.8935C-71.2357 74.4137 -76.3696 68.1269 -81.6348 62.2998ZM-81.6348 -15.7343V-16.9818C-42.9251 -32.4606 -57.0312 11.8583 -58.8355 22.8396C-60.6397 33.8208 -56.3751 55.0282 -52.9306 49.8905C-49.4861 44.7528 -61.4598 37.629 -38.4472 -6.96901C-48.4855 7.18021 -54.7348 32.0481 -57.31 32.1137C-59.8852 32.1794 -58.5074 23.6767 -57.0312 20.3938C-58.8355 53.0585 -31.7058 -41.6198 -80.1586 -20.9541C-80.5523 -20.7407 -81.0443 -20.5273 -81.6348 -20.2975V-24.2862C-67.3319 -31.7055 -58.9995 -36.1703 -47.1077 -36.1703C-35.216 -36.1703 -25.7846 -33.6589 -23.4554 -30.1298C-25.801 -8.44631 -71.7606 24.5795 -40.5139 64.762C-33.8874 72.0992 -37.0202 72.5917 -44.0733 67.1749C-51.1263 61.7581 -58.6222 49.1026 -61.5747 33.788C-61.3614 42.898 -60.0984 51.9095 -56.1783 59.4273C-60.3281 53.7151 -62.1159 48.9549 -63.2149 38.1542C-64.3139 27.3535 -61.0006 11.6778 -60.6725 -0.501732C-60.1476 3.32283 -60.1641 5.70292 -60.3117 9.06787C-52.8322 -16.7028 -67.3811 -21.1511 -81.6348 -15.7343ZM-64.1006 -30.7043C-66.7086 -30.1954 -71.859 -28.4555 -73.7945 -26.8797C-70.5632 -28.16 -67.3319 -29.4239 -64.1006 -30.7043ZM-30.2296 -30.9669C-27.8185 -28.6689 -28.573 -24.8115 -29.918 -21.6271C-29.7376 -21.8897 -29.5407 -22.1688 -29.3275 -22.4478C-27.0968 -25.665 -27.8349 -28.9643 -30.2296 -30.9669ZM-30.3936 -28.9315C-30.1968 -26.2395 -30.4921 -23.8759 -31.3614 -21.1675C-29.1307 -24.4832 -28.7862 -27.2408 -30.3936 -28.9315ZM-45.8283 -33.4783C-43.2203 -33.4783 -40.6288 -33.4783 -38.0208 -33.4783C-40.2351 -33.6917 -43.5812 -33.6917 -45.8283 -33.4783ZM-30.9841 -28.2257C-33.5593 -34.3154 -43.9256 -33.1664 -49.4861 -32.2965C-43.3844 -32.3129 -35.1504 -33.7573 -30.9841 -28.2257ZM-31.9355 -21.4465C-33.7069 -17.7697 -37.3483 -15.6522 -39.4478 -12.2709C-37.1842 -12.4022 -32.1815 -18.9023 -31.9355 -21.4465ZM39.1362 6.39232C35.8558 2.86322 35.6917 2.22306 37.414 -0.0749588C34.0351 1.59931 36.8727 5.07917 39.1362 6.39232ZM31.8372 -31.5578C35.6097 -31.7548 39.4315 -30.7371 43.1876 -29.8671V-30.0149C39.4971 -31.4593 35.8393 -32.9366 31.8372 -31.5578ZM43.1876 29.8813V27.9116C39.0378 26.6477 34.9864 25.5151 30.9022 25.0391C34.7732 26.2866 38.9886 29.1263 43.1876 29.8813ZM-81.6348 69.0954C-75.0739 75.6283 -68.4801 82.1941 -61.4762 87.8571H-58.1301C-66.3642 80.7989 -73.9421 72.1485 -81.6348 65.6484V69.0954ZM-81.6348 70.2772V78.0248C-76.9109 80.3721 -71.7278 83.6222 -66.0689 87.8571H-63.5265C-69.7923 83.8684 -75.73 76.7445 -81.6348 70.2772ZM43.1876 8.16508V-1.43736C42.1379 -0.830021 41.0061 -0.239101 39.7923 0.335403C38.7426 3.35566 40.4156 6.19535 43.1876 8.16508ZM35.0192 -0.0913734C31.2303 1.76345 34.0023 3.65112 35.7901 5.65368C34.2319 2.60059 32.5097 2.28872 35.0192 -0.0913734ZM25.4074 -22.5627C33.8382 -24.91 37.7584 -22.6612 43.1876 -19.8707V-20.2647C37.6108 -22.9895 34.8224 -25.8948 25.4074 -22.5627ZM43.1876 -7.54352V-7.55993C43.122 -7.5271 43.0564 -7.49427 42.9908 -7.46144C43.0564 -7.49427 43.122 -7.5271 43.1876 -7.54352ZM42.1051 87.8571C42.4659 87.6601 42.8268 87.4795 43.1876 87.2826V86.3798C42.4659 86.8886 41.7278 87.3646 40.9897 87.8571H42.1051ZM-81.4216 -37.0566C-81.4708 -37.0402 -81.52 -37.0238 -81.5528 -37.0074C-81.5036 -37.0238 -81.4544 -37.0402 -81.4052 -37.0566H-81.4216ZM-81.6348 -36.991C-81.602 -36.991 -81.5856 -37.0074 -81.5528 -37.0074C-81.5856 -37.0074 -81.602 -36.991 -81.6348 -36.991ZM-76.1892 -37.0566C-78.2231 -36.2523 -80.0438 -35.6122 -81.6348 -35.1197V-29.8343C-74.6474 -32.6576 -67.4631 -35.0541 -60.5741 -37.0566H-76.1892ZM-31.3942 87.8571H-28.6386C-32.5096 86.4454 -42.8267 80.6511 -44.1225 79.9289C-39.251 83.3924 -34.7895 86.1007 -31.3942 87.8571ZM-81.6348 -8.03595V-10.8264C-46.2876 -19.8543 -80.1586 44.3096 -52.9634 73.1333C-78.0263 57.3263 -67.3647 23.1843 -69.8087 -0.140617C-70.6124 -7.83898 -75.73 -8.62687 -81.6348 -8.03595ZM-72.2854 -8.98799C-63.9202 0.204086 -69.415 19.409 -68.9065 33.2135C-68.9558 23.3156 -58.3434 -5.86925 -72.2854 -8.98799ZM16.058 87.8571C24.9973 85.5262 33.461 81.8166 40.7273 76.646C41.5638 75.8253 42.3839 75.021 43.1712 74.2495V71.1308C31.6075 78.3203 19.6502 84.4265 7.8076 87.8571H16.058ZM-52.0284 74.069C-50.1094 75.9402 -47.813 77.5981 -45.0574 78.9933L-52.0284 74.069ZM21.2084 27.9445C11.4489 21.1161 35.7737 34.0014 43.1876 34.8549V31.9824C31.3451 28.6503 0.787369 19.1463 21.2084 27.9445ZM-68.9229 57.3755C-66.8726 62.4147 -64.7403 70.2936 -51.7824 77.1877C-61.7879 68.9805 -65.2324 63.7279 -68.9229 57.3755ZM-77.6982 38.778C-77.2062 45.672 -73.5156 50.3173 -70.1531 54.3717C-78.4856 29.5531 -61.8535 -6.32885 -81.6348 -6.70638V-4.50685C-80.0438 -4.73665 -79.8306 -6.52582 -76.7961 -5.03211C-69.1198 -0.797192 -71.8918 12.1374 -73.7289 18.4405C-74.1553 12.5149 -70.9404 3.99582 -76.5501 -0.0585442C-81.9629 -1.81489 -75.5495 6.78627 -76.5993 9.42899C-77.7475 5.89989 -79.4861 3.60187 -81.6348 2.25589V6.35949C-75.5659 12.121 -77.0093 28.1907 -76.7961 35.0847C-79.2565 30.1768 -80.2242 24.5303 -81.6348 19.1463V45.1139C-78.0263 51.6633 -75.0246 58.7051 -72.7775 64.0398C-75.7956 60.248 -78.666 55.6192 -81.6348 51.0724V59.099C-74.0077 66.4198 -66.2493 76.0387 -57.8349 82.4239C-62.1159 79.8468 -66.2001 76.8923 -70.0383 73.5601C-64.7895 78.4516 -58.9667 82.506 -52.7666 85.7889C-51.8972 86.2813 -51.0279 86.7245 -50.1422 87.1184C-49.6337 87.3646 -49.1416 87.5945 -48.6331 87.8407H-32.5424C-66.7086 79.9782 -78.8464 47.8059 -77.6982 38.778ZM38.9394 87.8571C40.3828 87.1677 41.8098 86.429 43.1876 85.6411V76.8923C35.3637 81.7509 27.8186 85.3457 20.5687 87.8571H38.9394ZM30.3609 36.6933C35.1668 39.2376 39.2511 41.2401 43.1876 41.1909V37.0052C42.7776 36.9888 41.5966 36.6933 39.3823 36.0203C47.7967 44.0142 36.2002 39.7136 30.3609 36.6933ZM-81.6348 87.8571H-71.2029C-74.713 85.8381 -78.2231 83.7863 -81.6348 81.9807V87.8571ZM-24.7184 19.0478C-24.7184 19.0314 -24.702 19.015 -24.702 18.9986C-24.702 19.015 -24.702 19.0314 -24.7184 19.0478ZM-24.5216 18.6539C-24.5872 18.7688 -24.6364 18.8837 -24.702 18.9986C-24.6364 18.8837 -24.5872 18.7688 -24.5216 18.6539ZM-24.456 18.539C-24.4724 18.5718 -24.4888 18.5882 -24.5052 18.6211C-24.4888 18.5882 -24.4724 18.5718 -24.456 18.539ZM-24.5052 18.6211C-24.5052 18.6375 -24.5216 18.6375 -24.5216 18.6539C-24.5216 18.6375 -24.5052 18.6375 -24.5052 18.6211ZM-23.2422 19.5731C-33.2477 29.4218 -28.655 53.3868 -25.5057 45.5407C-19.3548 30.2589 -4.87147 16.4544 13.3352 24.3333C3.98584 18.9165 21.192 22.2979 31.6567 24.1199C20.1422 21.4772 8.18486 17.8824 -3.19843 21.4279C0.360909 19.7865 2.46041 19.0971 6.44621 19.0807C-2.88678 18.1286 -10.5959 20.2297 -18.5511 26.303C-26.5063 32.3763 -15.041 12.1866 -16.6812 11.2017C-18.2066 10.2825 -22.4221 14.6159 -24.456 18.539C-21.8152 13.5326 -18.141 14.5503 -23.2422 19.5731ZM-24.8824 19.409C-24.8332 19.2776 -24.7676 19.1627 -24.7184 19.0478C-24.7676 19.1627 -24.8332 19.2941 -24.8824 19.409ZM9.89071 19.0807C19.847 20.0984 25.8831 22.7575 35.4785 23.8408C25.7027 21.789 19.4041 19.015 9.89071 19.0807ZM30.3609 36.6933C30.0985 36.562 29.8525 36.4143 29.59 36.283C29.8197 36.4307 30.0821 36.562 30.3609 36.6933ZM-65.5604 -34.6601C-64.035 -35.2182 -62.5096 -35.7763 -60.9842 -36.3344C-62.772 -36.9253 -64.1826 -35.4809 -65.5604 -34.6601ZM-54.374 -37.0566H-57.0804C-68.1356 -32.4442 -89.8196 -24.2042 -54.374 -37.0566ZM-10.6287 80.0602C-3.08361 83.5237 -10.7599 84.4265 -14.9426 84.3116C-8.66043 85.28 -1.34495 82.9163 -10.6287 80.0602ZM-2.54233 81.8166C2.23078 85.1651 -4.19897 85.4934 -7.18421 85.8217C-3.87093 85.6083 5.41285 85.1487 -2.54233 81.8166ZM6.4298 81.6196C16.9438 86.0679 5.92133 86.8722 0.0492554 87.8571H2.19798C8.98858 87.102 19.1253 84.7712 6.4298 81.6196ZM43.1876 25.5644V24.9406C41.449 24.9242 39.6775 24.8093 37.8732 24.6123C39.6775 24.9734 41.449 25.3017 43.1876 25.5644ZM-29.4751 55.3565C-27.3428 58.9677 -23.2422 61.7581 -21.4379 62.0864C-23.7343 60.9374 -27.0147 58.3111 -29.4751 55.3565ZM-10.7763 66.3542C-31.5746 45.0483 -11.7605 25.6464 2.3456 23.1843C-7.33183 23.5126 -27.5068 38.2855 -22.5861 52.5661C-26.0306 52.1885 -29.9672 46.4927 -31.0497 40.8298C-30.2952 49.2832 -24.3904 58.3111 -10.7763 66.3542ZM-23.2422 58.4753C-29.8032 52.5661 -32.69 43.6366 -32.7228 37.7274C-33.4281 43.8829 -31.9355 51.9095 -23.2422 58.4753ZM43.1876 26.5985V26.1553C41.9903 26.0404 40.7765 25.8926 39.5463 25.6957C40.8585 25.9911 42.0723 26.2866 43.1876 26.5985ZM43.1876 -28.5704V-25.3039C38.9886 -26.814 38.759 -28.5211 28.163 -26.8633C17.5671 -25.2054 -12.0065 -9.95644 -18.4363 1.82911C-7.65989 -11.286 35.1833 -32.4278 43.1876 -17.0803V-9.464C32.3784 -2.43863 -0.311592 0.515961 3.19852 6.67137C4.75675 8.67392 9.56266 10.7257 14.1553 7.60699C5.13401 5.63726 21.2904 -0.239101 23.7508 -1.27321C3.64139 7.86962 20.8803 6.29383 29.7705 7.34436C38.6606 8.39488 39.4315 10.3482 43.1876 11.7598V12.1702C35.134 9.98708 33.8383 7.45926 18.42 8.03376C35.8065 9.08429 27.7694 14.6652 43.1876 15.0427V22.3964C26.6212 22.5441 21.8645 17.7511 9.52985 17.7511C-2.80476 17.7511 -10.1859 18.736 -15.1558 21.7562C-23.8983 27.452 -11.2684 9.06787 -10.0874 6.34308C-2.3947 -10.4817 -30.3936 17.5213 -32.7228 37.7274C-32.8048 20.4431 -17.5013 -1.27321 0.21328 -2.25808C5.79011 -2.58636 -27.9989 24.6616 -11.1044 19.5731C-24.8824 18.7524 21.2084 -5.7051 7.28272 -5.4753C-16.4844 -5.08136 -27.31 13.1386 -33.953 29.5202C-36.2657 3.43773 16.9438 -33.0844 43.1876 -28.5704ZM14.6966 8.73958C16.2056 9.69162 19.3549 9.28126 21.7497 9.49465C19.4041 9.08429 17.0914 8.16508 14.6966 8.73958ZM1.11542 16.9796C-4.10056 16.6349 -15.205 20.0655 -6.83976 12.1866C-17.0093 20.7221 -4.74025 17.6198 1.11542 16.9796Z" fill="url(#paint1_linear)"/>
<rect x="-81.6348" y="-37.0566" width="124.822" height="124.914" fill="#E84B37"/>
</g>
<path fill-rule="evenodd" clip-rule="evenodd" d="M29.1184 7.59333C23.12 5.41009 16.443 8.12543 13.6708 13.8754L10.6571 20.1264C10.6571 20.1264 10.0129 22.2571 8.80259 22.7713C6.46264 22.2427 3.99304 23.1008 2.49017 25.0305C0.765836 27.2445 1.48544 30.472 4.01394 31.6893C7.92587 33.5726 13.4721 36.1352 17.8073 37.7131C22.3064 39.3506 28.4865 41.0141 32.7155 42.0841C35.2578 42.7273 37.7514 40.9625 38.0425 38.3564C38.2981 36.0672 37.2539 33.8775 35.4243 32.6169C34.6487 31.1392 35.1722 29.1499 35.1722 29.1499L36.9098 22.3514C38.4921 16.1607 35.1229 9.77876 29.1184 7.59333Z" fill="url(#paint2_linear)"/>
<path fill-rule="evenodd" clip-rule="evenodd" d="M29.1184 7.59333C23.12 5.41009 16.443 8.12543 13.6708 13.8754L10.6571 20.1264C10.6571 20.1264 10.0129 22.2571 8.80259 22.7713C6.46264 22.2427 3.99304 23.1008 2.49017 25.0305C0.765836 27.2445 1.48544 30.472 4.01394 31.6893C7.92587 33.5726 13.4721 36.1352 17.8073 37.7131C22.3064 39.3506 28.4865 41.0141 32.7155 42.0841C35.2578 42.7273 37.7514 40.9625 38.0425 38.3564C38.2981 36.0672 37.2539 33.8775 35.4243 32.6169C34.6487 31.1392 35.1722 29.1499 35.1722 29.1499L36.9098 22.3514C38.4921 16.1607 35.1229 9.77876 29.1184 7.59333Z" fill="url(#paint3_radial)"/>
</g>
</g>
<g filter="url(#filter2_d)">
<g filter="url(#filter3_biii)">
<circle cx="29.6742" cy="7.62346" r="3.35125" transform="rotate(20 29.6742 7.62346)" fill="url(#paint4_linear)"/>
</g>
</g>
<defs>
<filter id="filter0_biii" x="-3.04883" y="12.2097" width="44.7902" height="44.7902" filterUnits="userSpaceOnUse" color-interpolation-filters="sRGB">
<feFlood flood-opacity="0" result="BackgroundImageFix"/>
<feGaussianBlur in="BackgroundImage" stdDeviation="5"/>
<feComposite in2="SourceAlpha" operator="in" result="effect1_backgroundBlur"/>
<feBlend mode="normal" in="SourceGraphic" in2="effect1_backgroundBlur" result="shape"/>
<feColorMatrix in="SourceAlpha" type="matrix" values="0 0 0 0 0 0 0 0 0 0 0 0 0 0 0 0 0 0 127 0" result="hardAlpha"/>
<feOffset dy="-4"/>
<feGaussianBlur stdDeviation="0.5"/>
<feComposite in2="hardAlpha" operator="arithmetic" k2="-1" k3="1"/>
<feColorMatrix type="matrix" values="0 0 0 0 0.920833 0 0 0 0 0.920833 0 0 0 0 0.920833 0 0 0 0.1 0"/>
<feBlend mode="normal" in2="shape" result="effect2_innerShadow"/>
<feColorMatrix in="SourceAlpha" type="matrix" values="0 0 0 0 0 0 0 0 0 0 0 0 0 0 0 0 0 0 127 0" result="hardAlpha"/>
<feOffset dx="-1"/>
<feGaussianBlur stdDeviation="0.5"/>
<feComposite in2="hardAlpha" operator="arithmetic" k2="-1" k3="1"/>
<feColorMatrix type="matrix" values="0 0 0 0 0.920833 0 0 0 0 0.920833 0 0 0 0 0.920833 0 0 0 0.1 0"/>
<feBlend mode="normal" in2="effect2_innerShadow" result="effect3_innerShadow"/>
<feColorMatrix in="SourceAlpha" type="matrix" values="0 0 0 0 0 0 0 0 0 0 0 0 0 0 0 0 0 0 127 0" result="hardAlpha"/>
<feOffset dx="1"/>
<feGaussianBlur stdDeviation="0.5"/>
<feComposite in2="hardAlpha" operator="arithmetic" k2="-1" k3="1"/>
<feColorMatrix type="matrix" values="0 0 0 0 0.920833 0 0 0 0 0.920833 0 0 0 0 0.920833 0 0 0 0.1 0"/>
<feBlend mode="normal" in2="effect3_innerShadow" result="effect4_innerShadow"/>
</filter>
<filter id="filter1_iii" x="0.547729" y="5.84143" width="38.533" height="36.3754" filterUnits="userSpaceOnUse" color-interpolation-filters="sRGB">
<feFlood flood-opacity="0" result="BackgroundImageFix"/>
<feBlend mode="normal" in="SourceGraphic" in2="BackgroundImageFix" result="shape"/>
<feColorMatrix in="SourceAlpha" type="matrix" values="0 0 0 0 0 0 0 0 0 0 0 0 0 0 0 0 0 0 127 0" result="hardAlpha"/>
<feOffset dy="-3"/>
<feGaussianBlur stdDeviation="0.5"/>
<feComposite in2="hardAlpha" operator="arithmetic" k2="-1" k3="1"/>
<feColorMatrix type="matrix" values="0 0 0 0 0 0 0 0 0 0 0 0 0 0 0 0 0 0 0.4 0"/>
<feBlend mode="normal" in2="shape" result="effect1_innerShadow"/>
<feColorMatrix in="SourceAlpha" type="matrix" values="0 0 0 0 0 0 0 0 0 0 0 0 0 0 0 0 0 0 127 0" result="hardAlpha"/>
<feOffset dx="-1"/>
<feGaussianBlur stdDeviation="0.5"/>
<feComposite in2="hardAlpha" operator="arithmetic" k2="-1" k3="1"/>
<feColorMatrix type="matrix" values="0 0 0 0 1 0 0 0 0 1 0 0 0 0 1 0 0 0 0.3 0"/>
<feBlend mode="normal" in2="effect1_innerShadow" result="effect2_innerShadow"/>
<feColorMatrix in="SourceAlpha" type="matrix" values="0 0 0 0 0 0 0 0 0 0 0 0 0 0 0 0 0 0 127 0" result="hardAlpha"/>
<feOffset dx="1"/>
<feGaussianBlur stdDeviation="0.5"/>
<feComposite in2="hardAlpha" operator="arithmetic" k2="-1" k3="1"/>
<feColorMatrix type="matrix" values="0 0 0 0 1 0 0 0 0 1 0 0 0 0 1 0 0 0 0.3 0"/>
<feBlend mode="normal" in2="effect2_innerShadow" result="effect3_innerShadow"/>
</filter>
<filter id="filter2_d" x="23.3789" y="3.32812" width="12.5907" height="12.5907" filterUnits="userSpaceOnUse" color-interpolation-filters="sRGB">
<feFlood flood-opacity="0" result="BackgroundImageFix"/>
<feColorMatrix in="SourceAlpha" type="matrix" values="0 0 0 0 0 0 0 0 0 0 0 0 0 0 0 0 0 0 127 0"/>
<feOffset dy="2"/>
<feGaussianBlur stdDeviation="1"/>
<feColorMatrix type="matrix" values="0 0 0 0 0 0 0 0 0 0 0 0 0 0 0 0 0 0 0.1 0"/>
<feBlend mode="normal" in2="BackgroundImageFix" result="effect1_dropShadow"/>
<feBlend mode="normal" in="SourceGraphic" in2="effect1_dropShadow" result="shape"/>
</filter>
<filter id="filter3_biii" x="15.3789" y="-6.67188" width="28.5907" height="28.5907" filterUnits="userSpaceOnUse" color-interpolation-filters="sRGB">
<feFlood flood-opacity="0" result="BackgroundImageFix"/>
<feGaussianBlur in="BackgroundImage" stdDeviation="5"/>
<feComposite in2="SourceAlpha" operator="in" result="effect1_backgroundBlur"/>
<feBlend mode="normal" in="SourceGraphic" in2="effect1_backgroundBlur" result="shape"/>
<feColorMatrix in="SourceAlpha" type="matrix" values="0 0 0 0 0 0 0 0 0 0 0 0 0 0 0 0 0 0 127 0" result="hardAlpha"/>
<feOffset dy="-4"/>
<feGaussianBlur stdDeviation="0.5"/>
<feComposite in2="hardAlpha" operator="arithmetic" k2="-1" k3="1"/>
<feColorMatrix type="matrix" values="0 0 0 0 0.920833 0 0 0 0 0.920833 0 0 0 0 0.920833 0 0 0 0.1 0"/>
<feBlend mode="normal" in2="shape" result="effect2_innerShadow"/>
<feColorMatrix in="SourceAlpha" type="matrix" values="0 0 0 0 0 0 0 0 0 0 0 0 0 0 0 0 0 0 127 0" result="hardAlpha"/>
<feOffset dx="-1"/>
<feGaussianBlur stdDeviation="0.5"/>
<feComposite in2="hardAlpha" operator="arithmetic" k2="-1" k3="1"/>
<feColorMatrix type="matrix" values="0 0 0 0 0.920833 0 0 0 0 0.920833 0 0 0 0 0.920833 0 0 0 0.1 0"/>
<feBlend mode="normal" in2="effect2_innerShadow" result="effect3_innerShadow"/>
<feColorMatrix in="SourceAlpha" type="matrix" values="0 0 0 0 0 0 0 0 0 0 0 0 0 0 0 0 0 0 127 0" result="hardAlpha"/>
<feOffset dx="1"/>
<feGaussianBlur stdDeviation="0.5"/>
<feComposite in2="hardAlpha" operator="arithmetic" k2="-1" k3="1"/>
<feColorMatrix type="matrix" values="0 0 0 0 0.920833 0 0 0 0 0.920833 0 0 0 0 0.920833 0 0 0 0.1 0"/>
<feBlend mode="normal" in2="effect3_innerShadow" result="effect4_innerShadow"/>
</filter>
<linearGradient id="paint0_linear" x1="19.3463" y1="24.9341" x2="19.3463" y2="44.2756" gradientUnits="userSpaceOnUse">
<stop stop-color="white"/>
<stop offset="0.9999" stop-color="white"/>
<stop offset="1" stop-color="white"/>
</linearGradient>
<linearGradient id="paint1_linear" x1="-19.2236" y1="-37.0566" x2="-19.2236" y2="87.8571" gradientUnits="userSpaceOnUse">
<stop stop-color="white" stop-opacity="0.48"/>
<stop offset="1" stop-color="white" stop-opacity="0"/>
</linearGradient>
<linearGradient id="paint2_linear" x1="29.0574" y1="7.40746" x2="18.0877" y2="37.5466" gradientUnits="userSpaceOnUse">
<stop stop-color="white" stop-opacity="0.4"/>
<stop offset="0.833333" stop-color="white" stop-opacity="0"/>
<stop offset="1" stop-color="white" stop-opacity="0.3"/>
</linearGradient>
<radialGradient id="paint3_radial" cx="0" cy="0" r="1" gradientUnits="userSpaceOnUse" gradientTransform="translate(9.55883 4.96898) rotate(20) scale(29.3767 38.2891)">
<stop stop-color="white" stop-opacity="0.7"/>
<stop offset="1" stop-color="white" stop-opacity="0"/>
</radialGradient>
<linearGradient id="paint4_linear" x1="29.6742" y1="4.27221" x2="29.6742" y2="10.9747" gradientUnits="userSpaceOnUse">
<stop stop-color="white" stop-opacity="0.8"/>
<stop offset="1" stop-color="white" stop-opacity="0.6"/>
</linearGradient>
<clipPath id="clip0">
<rect width="38" height="37" fill="white" transform="translate(1 6)"/>
</clipPath>
</defs>
</svg>
