<svg width="491" height="485" viewBox="0 0 491 485" fill="none" xmlns="http://www.w3.org/2000/svg">
<g clip-path="url(#clip0)">
<path d="M467.058 311.489C490.448 231.644 462.743 117.937 405.15 57.3191C377.475 27.9238 347.528 16.5827 321.616 21.2817L299.166 26.3131L303.782 44.6931C295.966 55.4297 289.444 68.7762 284.929 85.0027C261.54 164.847 289.244 278.554 346.838 339.172C358.737 351.668 370.969 360.703 382.924 367.024L387.575 385.743L402.666 382.491C430.613 377.584 454.893 353.515 467.058 311.489Z" fill="#623B2A"/>
<path d="M389.83 384.722C447.049 370.581 473.583 278.794 449.094 179.712C424.606 80.6295 358.369 11.7716 301.149 25.9135C243.93 40.0553 217.397 131.842 241.885 230.924C266.374 330.006 332.611 398.864 389.83 384.722Z" fill="#EEE2D6"/>
<path d="M386.887 385.68C444.106 371.538 470.639 279.751 446.151 180.669C421.662 81.5865 355.425 12.7286 298.206 26.8705C240.987 41.0123 214.453 132.799 238.942 231.881C263.43 330.963 329.667 399.821 386.887 385.68Z" fill="#E3CCB7"/>
<path d="M380.418 359.523C429.228 347.459 451.838 269.065 430.919 184.425C410 99.7844 353.473 40.9491 304.663 53.0126C255.853 65.0761 233.243 143.47 254.163 228.111C275.082 312.751 331.608 371.586 380.418 359.523Z" fill="#EEE2D6"/>
<path d="M311.123 328.416C261.962 276.535 238.361 179.547 258.517 111.685C268.425 77.7715 287.588 57.3092 310.344 51.904C285.311 55.1423 264.113 75.8122 253.463 112.543C233.342 180.744 256.943 277.732 306.07 329.274C330.651 355.215 356.998 364.867 379.753 359.462C358.112 362.354 333.801 352.495 311.123 328.416Z" fill="#AE8E81"/>
<path d="M347.157 211.295C346.181 215.164 343.163 215.815 340.477 213.004C337.791 210.193 336.559 204.835 337.57 201.305C338.546 197.435 341.565 196.784 344.25 199.595C346.902 202.067 348.473 207.39 347.157 211.295Z" fill="#75AE47"/>
<path d="M374.731 101.883C373.949 100.935 373.81 99.5781 374.011 98.1867L375.527 92.8909C375.763 91.8387 376.746 91.3957 377.493 92.005C378.276 92.9534 378.414 94.3103 378.213 95.7017L376.697 100.997C376.496 102.389 375.513 102.832 374.731 101.883Z" fill="#AE8E81"/>
<path d="M310.36 320.958C309.577 320.009 309.439 318.652 309.64 317.261L311.156 311.965C311.392 310.913 312.375 310.47 313.122 311.079C313.905 312.028 314.043 313.384 313.842 314.776L312.36 320.411C311.786 321.498 311.142 321.906 310.36 320.958Z" fill="#AE8E81"/>
<path d="M268.313 127.137C268.077 128.189 267.094 128.632 266.651 127.649L262.027 122.637C261.28 122.028 261.141 120.671 261.377 119.618C261.612 118.566 262.595 118.123 263.038 119.106L267.662 124.119C268.41 124.728 268.548 126.085 268.313 127.137Z" fill="#AE8E81"/>
<path d="M426.846 293.656C426.611 294.709 425.628 295.152 425.185 294.169L420.56 289.156C419.813 288.547 419.674 287.19 419.91 286.138C420.145 285.086 421.128 284.643 421.571 285.626L426.195 290.638C426.943 291.247 427.081 292.604 426.846 293.656Z" fill="#AE8E81"/>
<path d="M333.051 76.3272C332.338 76.0572 331.556 75.1087 331.418 73.7519L330.657 66.2892C330.518 64.9323 331.128 64.1847 331.806 64.1155C332.519 64.3856 333.301 65.334 333.44 66.6909L334.201 74.1535C334.339 75.5104 333.73 76.258 333.051 76.3272Z" fill="#AE8E81"/>
<path d="M356.081 349.198C355.368 348.928 354.586 347.98 354.447 346.623L353.686 339.16C353.548 337.803 354.157 337.056 354.835 336.987C355.548 337.257 356.331 338.205 356.469 339.562L357.23 347.025C357.368 348.381 357.133 349.434 356.081 349.198Z" fill="#AE8E81"/>
<path d="M263.074 190.055C263.212 191.412 262.603 192.159 261.924 192.229L257.376 191.322C256.663 191.052 255.881 190.103 255.743 188.746C255.604 187.389 256.214 186.642 256.892 186.573L261.44 187.48C262.153 187.75 262.935 188.698 263.074 190.055Z" fill="#AE8E81"/>
<path d="M432.515 224.871C432.654 226.228 432.044 226.976 431.366 227.045L426.818 226.138C426.105 225.868 425.322 224.919 425.184 223.563C425.046 222.206 425.655 221.458 426.333 221.389L430.882 222.296C431.899 222.192 432.377 223.515 432.515 224.871Z" fill="#AE8E81"/>
<path d="M293.883 85.4623C293.239 85.8707 292.152 85.2961 291.709 84.313L288.948 77.3971C288.47 76.0749 288.671 74.6834 289.315 74.275C289.958 73.8666 291.045 74.4413 291.488 75.4243L294.25 82.3402C294.693 83.3233 294.492 84.7147 293.883 85.4623Z" fill="#AE8E81"/>
<path d="M398.945 339.337C398.302 339.746 397.215 339.171 396.772 338.188L394.01 331.272C393.532 329.95 393.733 328.558 394.377 328.15C395.021 327.742 396.108 328.316 396.551 329.299L399.313 336.215C399.416 337.233 399.555 338.59 398.945 339.337Z" fill="#AE8E81"/>
<path d="M279.561 257.605C280.039 258.927 279.838 260.319 279.194 260.727L275.366 263.517C274.722 263.925 273.635 263.351 273.192 262.367C272.715 261.045 272.915 259.654 273.559 259.245L277.388 256.456C277.997 255.708 279.084 256.283 279.561 257.605Z" fill="#AE8E81"/>
<path d="M414.689 150.934C415.167 152.256 414.966 153.648 414.322 154.056L410.494 156.846C409.85 157.254 408.763 156.679 408.32 155.696C407.843 154.374 408.043 152.983 408.687 152.574L412.516 149.785C413.159 149.376 414.212 149.612 414.689 150.934Z" fill="#AE8E81"/>
<path d="M343.569 213.029L338.945 208.017L365.637 116.868L370.261 121.88L343.569 213.029Z" fill="#75AE47"/>
<path d="M343.788 205.133L341.247 207.106L389.927 324.843L392.468 322.87L343.788 205.133Z" fill="#75AE47"/>
<path d="M344.846 208.797C344.341 210.562 342.679 211.074 341.489 209.482C339.959 207.924 339.377 205.584 340.188 203.445C340.998 201.306 342.354 201.168 343.545 202.76C344.736 204.352 345.317 206.692 344.846 208.797Z" fill="#E04E39"/>
<path d="M367.636 203.721L366.3 197.345L351.582 200.902L352.094 202.564L261.378 223.811L262.029 226.829L352.745 205.582L352.883 206.939L367.636 203.721Z" fill="#E04E39"/>
<path opacity="0.2" d="M252.345 461.229L10.2241 352.252L101.905 286.693L343.991 395.331L252.345 461.229Z" fill="#C39367"/>
<path d="M34.9905 111.178L10.8301 351.504L253.02 461.159L277.008 219.137L34.9905 111.178Z" fill="#C39367"/>
<path opacity="0.2" d="M251.115 439.071L270.2 222.912L40.408 120.56L20.9842 336.754L251.115 439.071Z" fill="#623B2A"/>
<path d="M249.139 436.533L270.197 222.914L40.4049 120.563L19.0082 334.216L249.139 436.533Z" fill="#D8B89A"/>
<path opacity="0.2" d="M245.653 439.279L270.2 222.905L40.4077 120.554L15.5218 336.962L245.653 439.279Z" fill="#623B2A"/>
<path d="M244.288 435.996L270.198 222.911L40.4058 120.559L14.1564 333.679L244.288 435.996Z" fill="#EEE2D6"/>
<path d="M213.061 324.701L209.515 350.425L181.839 337.824L185.046 312.135L213.061 324.701Z" fill="#E04E39"/>
<path d="M40.9436 219.893L128.555 258.942L132.031 232.54L44.7595 193.456L40.9436 219.893Z" fill="#D8B89A"/>
<path d="M174.582 391.007L233.396 416.541L236.568 390.512L178.398 364.569L174.582 391.007Z" fill="#D8B89A"/>
<path d="M235.062 419.452L232.923 418.642L26.7995 326.558L42.785 190.916L250.674 283.505L235.062 419.452ZM30.3578 324.481L232.135 414.266L247.116 285.582L45.6783 195.762L30.3578 324.481Z" fill="#E3CCB7"/>
<path d="M247.022 284.256L231.729 416.691L235.116 417.083L250.409 284.647L247.022 284.256Z" fill="#E3CCB7"/>
<path d="M205.38 403.977L204.8 384.843L218.25 271.395L219.17 290.495L205.38 403.977Z" fill="#E3CCB7"/>
<path d="M175.603 390.904L177.565 353.002L189.526 258.557L187.564 296.458L175.603 390.904Z" fill="#E3CCB7"/>
<path d="M145.822 377.837L150.63 320.795L160.762 245.387L156.294 302.394L145.822 377.837Z" fill="#E3CCB7"/>
<path d="M116.039 364.764L123.728 288.919L132.032 232.548L124.682 308.358L116.039 364.764Z" fill="#E3CCB7"/>
<path d="M86.2627 351.694L96.493 257.082L103.307 219.714L93.0422 313.986L86.2627 351.694Z" fill="#E3CCB7"/>
<path d="M56.4814 338.627L69.5927 225.214L74.5435 206.544L61.7714 319.923L56.4814 338.627Z" fill="#E3CCB7"/>
<path d="M42.3498 193.197L26.8125 325.27L30.199 325.668L45.7362 193.596L42.3498 193.197Z" fill="#E3CCB7"/>
<path d="M29.1332 323.92L27.7461 327.035L232.696 418.309L234.083 415.195L29.1332 323.92Z" fill="#E3CCB7"/>
<path d="M195.101 373.832L31.2871 300.055L73.3552 315.986L237.134 389.425L195.101 373.832Z" fill="#E3CCB7"/>
<path d="M156.948 329.057L34.6973 272.977L117.414 307.726L239.665 363.807L156.948 329.057Z" fill="#E3CCB7"/>
<path d="M119.135 284.248L38.1074 245.898L161.473 299.466L242.501 337.816L119.135 284.248Z" fill="#E3CCB7"/>
<path d="M81.3485 239.766L41.5098 218.809L205.524 291.195L245.363 312.152L81.3485 239.766Z" fill="#E3CCB7"/>
<path d="M44.9301 192.034L43.543 195.148L248.181 286.284L249.568 283.169L44.9301 192.034Z" fill="#E3CCB7"/>
<path d="M277.008 219.131L253.021 461.153L296.899 414.178L343.988 395.323L277.008 219.131Z" fill="#704232"/>
<path d="M343.351 395.734L343.994 395.325L277.014 219.133L262.939 360.064L343.351 395.734Z" fill="#623B2A"/>
<path d="M297.919 414.074L259.478 396.744L253.022 461.152L296.901 414.178L297.919 414.074Z" fill="#623B2A"/>
<path d="M277.008 219.131L253.021 461.153L297.273 414.483L344.023 395.663L277.008 219.131ZM296.456 413.195L254.71 457.553L277.935 224.863L342.223 394.818L296.456 413.195Z" fill="url(#paint0_linear)"/>
<path d="M258.743 228.194L245.466 222.35L244.634 231.004L257.912 236.847L258.743 228.194Z" fill="url(#paint1_linear)"/>
<path d="M226.079 213.702L212.802 207.858L211.97 216.512L225.248 222.355L226.079 213.702Z" fill="url(#paint2_linear)"/>
<path d="M193.407 199.214L180.469 193.335L179.298 202.023L192.576 207.867L193.407 199.214Z" fill="url(#paint3_linear)"/>
<path d="M160.742 184.717L147.803 178.839L146.938 187.153L159.876 193.031L160.742 184.717Z" fill="url(#paint4_linear)"/>
<path d="M128.076 170.225L115.137 164.347L114.272 172.661L127.21 178.539L128.076 170.225Z" fill="url(#paint5_linear)"/>
<path d="M95.4037 155.732L82.4656 149.854L81.5998 158.168L94.5379 164.047L95.4037 155.732Z" fill="url(#paint6_linear)"/>
<path d="M62.7045 140.908L49.7664 135.03L48.9351 143.683L61.8733 149.562L62.7045 140.908Z" fill="url(#paint7_linear)"/>
<path d="M271.328 193.661C267.728 191.972 263.353 192.761 259.22 195.924C251.563 201.504 246.26 213.355 247.228 222.853C247.643 226.923 249.346 230.177 251.963 232.31C253.797 233.493 255.936 234.304 257.972 234.096L258.47 228.904C257.113 229.042 256.061 228.807 254.974 228.232C253.514 227.353 252.628 225.387 252.351 222.673C251.59 215.211 256.049 205.159 262.452 200.736C264.993 198.763 267.333 198.182 269.133 199.026C270.933 199.871 272.193 202.142 272.504 205.195C272.85 208.587 272.247 212.761 270.253 216.735L275.245 218.625C277.169 213.973 278.346 208.712 277.897 204.302C277.343 198.875 274.893 195.012 271.328 193.661Z" fill="#D1D3D4"/>
<path d="M238.662 179.169C235.062 177.48 230.687 178.269 226.554 181.432C218.897 187.011 213.594 198.863 214.562 208.361C214.977 212.431 216.68 215.685 219.297 217.817C221.131 219.001 223.27 219.811 225.305 219.604L225.804 214.412C224.447 214.55 223.395 214.315 222.308 213.74C220.848 212.861 219.962 210.895 219.685 208.181C218.924 200.718 223.383 190.667 229.786 186.244C232.327 184.271 234.667 183.69 236.467 184.534C238.267 185.379 239.527 187.65 239.838 190.703C240.184 194.095 239.581 198.269 237.587 202.242L242.578 204.133C244.503 199.481 245.68 194.22 245.231 189.81C244.677 184.382 242.227 180.519 238.662 179.169Z" fill="#D1D3D4"/>
<path d="M205.957 164.345C202.357 162.656 197.982 163.445 193.849 166.608C186.192 172.187 180.888 184.039 181.857 193.537C182.272 197.607 183.975 200.861 186.592 202.993C188.426 204.177 190.565 204.987 192.6 204.78L193.099 199.588C191.742 199.726 190.69 199.491 189.603 198.916C188.143 198.037 187.257 196.071 186.98 193.357C186.219 185.894 190.678 175.843 197.081 171.419C199.622 169.447 201.962 168.865 203.762 169.71C205.562 170.555 206.821 172.825 207.133 175.878C207.479 179.27 206.876 183.445 204.882 187.418L209.873 189.308C211.798 184.657 212.975 179.395 212.526 174.986C211.972 169.558 209.556 166.034 205.957 164.345Z" fill="#D1D3D4"/>
<path d="M173.291 149.857C169.691 148.167 165.316 148.956 161.183 152.12C153.526 157.699 148.222 169.55 149.191 179.048C149.606 183.119 151.309 186.373 153.926 188.505C155.76 189.689 157.899 190.499 159.934 190.291L160.433 185.099C159.076 185.238 158.024 185.002 156.937 184.428C155.477 183.548 154.591 181.582 154.314 178.869C153.553 171.406 158.012 161.354 164.415 156.931C166.956 154.958 169.296 154.377 171.096 155.222C172.896 156.066 174.155 158.337 174.467 161.39C174.813 164.782 174.21 168.956 172.216 172.93L177.207 174.82C179.132 170.168 180.309 164.907 179.86 160.497C179.306 155.07 176.89 151.546 173.291 149.857Z" fill="#D1D3D4"/>
<path d="M140.966 135.326C137.367 133.636 132.992 134.425 128.859 137.589C121.202 143.168 115.898 155.019 116.867 164.517C117.282 168.588 118.985 171.841 121.601 173.974C123.436 175.158 125.575 175.968 127.61 175.76L128.109 170.568C126.752 170.706 125.7 170.471 124.613 169.896C123.152 169.017 122.266 167.051 121.99 164.337C121.229 156.875 125.687 146.823 132.091 142.4C134.632 140.427 136.972 139.846 138.772 140.69C140.571 141.535 141.831 143.806 142.143 146.859C142.489 150.251 141.886 154.425 139.892 158.399L144.883 160.289C146.808 155.637 147.985 150.376 147.535 145.966C146.643 140.573 144.227 137.049 140.966 135.326Z" fill="#D1D3D4"/>
<path d="M108.295 120.833C104.695 119.144 100.32 119.933 96.1866 123.096C88.5298 128.676 83.2264 140.527 84.195 150.025C84.6101 154.095 86.3129 157.349 88.9295 159.481C90.764 160.665 92.903 161.475 94.9383 161.268L95.4371 156.076C94.0802 156.214 93.028 155.979 91.9411 155.404C90.4805 154.525 89.5945 152.559 89.3178 149.845C88.5567 142.382 93.0155 132.331 99.4192 127.908C101.96 125.935 104.3 125.354 106.1 126.198C107.9 127.043 109.159 129.314 109.471 132.367C109.817 135.759 109.214 139.933 107.22 143.907L112.211 145.797C114.136 141.145 115.313 135.884 114.864 131.474C113.971 126.081 111.894 122.523 108.295 120.833Z" fill="#D1D3D4"/>
<path d="M75.6285 106.341C72.0288 104.652 67.6536 105.441 63.5206 108.604C55.8638 114.183 50.5604 126.035 51.529 135.533C51.9441 139.603 53.6469 142.857 56.2635 144.989C58.098 146.173 60.237 146.983 62.2723 146.776L62.771 141.584C61.4142 141.722 60.362 141.487 59.2751 140.912C57.7453 139.354 56.8593 137.388 56.5826 134.675C55.8215 127.212 60.2803 117.16 66.684 112.737C69.2248 110.764 71.5647 110.183 73.3645 111.028C75.1644 111.872 76.4242 114.143 76.7355 117.196C77.0814 120.588 76.4789 124.762 74.485 128.736L79.4761 130.626C81.4009 125.974 82.578 120.713 82.1283 116.303C81.3048 111.589 79.1936 107.691 75.6285 106.341Z" fill="#D1D3D4"/>
<path d="M176.947 162.161C176.635 159.108 175.376 156.837 173.576 155.992L173.236 156.027C174.053 157.314 174.905 158.941 175.112 160.977C175.458 164.369 174.856 168.543 172.862 172.517L175.001 173.327C176.655 169.388 177.293 165.553 176.947 162.161Z" fill="#2C2A29"/>
<path d="M70.2393 194.642L48.7104 185.185C47.2843 184.645 45.6574 185.496 45.4912 187.227L45.2279 191.366L73.5824 203.898L73.9149 200.437C74.012 198.028 72.4129 195.792 70.2393 194.642Z" fill="#C39367"/>
<path d="M99.3076 207.443L77.7787 197.985C76.3527 197.445 74.7258 198.297 74.5595 200.027L74.2962 204.167L102.651 216.699L102.983 213.238C103.115 211.168 101.821 208.558 99.3076 207.443Z" fill="#C39367"/>
<path d="M128.411 220.588L106.882 211.13C105.456 210.59 103.829 211.441 103.663 213.172L103.4 217.312L131.754 229.843L132.087 226.382C132.184 223.973 130.924 221.702 128.411 220.588Z" fill="#C39367"/>
<path d="M157.474 233.388L135.945 223.931C134.519 223.391 132.892 224.242 132.726 225.973L132.462 230.113L160.817 242.644L161.149 239.183C161.246 236.774 159.987 234.503 157.474 233.388Z" fill="#C39367"/>
<path d="M186.915 246.494L165.386 237.036C163.96 236.496 162.333 237.348 162.167 239.078L161.904 243.218L190.258 255.75L190.591 252.288C190.688 249.879 189.089 247.643 186.915 246.494Z" fill="#C39367"/>
<path d="M215.985 259.295L194.456 249.837C193.03 249.297 191.404 250.148 191.237 251.879L190.974 256.019L219.328 268.55L219.661 265.089C219.758 262.68 218.159 260.444 215.985 259.295Z" fill="#C39367"/>
<path d="M245.087 272.439L223.558 262.982C222.132 262.442 220.505 263.293 220.339 265.024L220.076 269.163L248.43 281.695L248.763 278.234C248.86 275.825 247.565 273.215 245.087 272.439Z" fill="#C39367"/>
</g>
<defs>
<linearGradient id="paint0_linear" x1="326.014" y1="438.068" x2="296.417" y2="211.494" gradientUnits="userSpaceOnUse">
<stop offset="0.00505051" stop-color="#C39367"/>
<stop offset="1" stop-color="#704232"/>
</linearGradient>
<linearGradient id="paint1_linear" x1="256.247" y1="235.988" x2="254.532" y2="221.044" gradientUnits="userSpaceOnUse">
<stop offset="0.00505051" stop-color="#C39367"/>
<stop offset="1" stop-color="#704232"/>
</linearGradient>
<linearGradient id="paint2_linear" x1="223.582" y1="221.496" x2="221.868" y2="206.552" gradientUnits="userSpaceOnUse">
<stop offset="0.00505051" stop-color="#C39367"/>
<stop offset="1" stop-color="#704232"/>
</linearGradient>
<linearGradient id="paint3_linear" x1="190.911" y1="207.007" x2="189.196" y2="192.063" gradientUnits="userSpaceOnUse">
<stop offset="0.00505051" stop-color="#C39367"/>
<stop offset="1" stop-color="#704232"/>
</linearGradient>
<linearGradient id="paint4_linear" x1="158.29" y1="192.186" x2="156.612" y2="177.567" gradientUnits="userSpaceOnUse">
<stop offset="0.00505051" stop-color="#C39367"/>
<stop offset="1" stop-color="#704232"/>
</linearGradient>
<linearGradient id="paint5_linear" x1="125.624" y1="177.693" x2="123.946" y2="163.075" gradientUnits="userSpaceOnUse">
<stop offset="0.00505051" stop-color="#C39367"/>
<stop offset="1" stop-color="#704232"/>
</linearGradient>
<linearGradient id="paint6_linear" x1="92.9525" y1="163.201" x2="91.2746" y2="148.582" gradientUnits="userSpaceOnUse">
<stop offset="0.00505051" stop-color="#C39367"/>
<stop offset="1" stop-color="#704232"/>
</linearGradient>
<linearGradient id="paint7_linear" x1="60.2857" y1="148.694" x2="58.5662" y2="133.751" gradientUnits="userSpaceOnUse">
<stop offset="0.00505051" stop-color="#C39367"/>
<stop offset="1" stop-color="#704232"/>
</linearGradient>
<clipPath id="clip0">
<rect width="491" height="484.181" fill="white"/>
</clipPath>
</defs>
</svg>
