<svg width="256" height="78" viewBox="0 0 256 78" fill="none" xmlns="http://www.w3.org/2000/svg">
<path d="M171.582 46.9243V27.8318H177.973V36.7306C177.973 37.3918 177.836 38.1081 177.836 38.1081H178.111L185.081 27.8318H190.509V46.9243H184.806V37.9704C184.806 37.3367 184.944 36.7031 184.944 36.7031H184.668L177.698 46.9243H171.582Z" fill="#663A2A"/>
<path d="M158.276 41.4964C160.618 41.4964 162.161 39.6781 162.161 37.4189C162.161 35.1047 160.618 33.2864 158.276 33.2864C156.017 33.2864 154.391 35.1047 154.391 37.4189C154.391 39.6781 156.017 41.4964 158.276 41.4964ZM158.276 27.3354C164.365 27.3354 168.91 31.6333 168.91 37.4189C168.91 43.1495 164.365 47.4473 158.276 47.4473C152.242 47.4473 147.697 43.1495 147.697 37.4189C147.697 31.6609 152.242 27.3354 158.276 27.3354Z" fill="#663A2A"/>
<path d="M31.3562 66.8422C35.2132 66.8422 37.8305 64.0321 37.8305 60.3403C37.8305 56.5934 35.2132 53.7282 31.3562 53.7282C27.5817 53.7282 24.9369 56.5659 24.9369 60.3403C24.9369 64.0321 27.5542 66.8422 31.3562 66.8422ZM31.3562 50.2292C37.3346 50.2292 41.5774 54.5271 41.5774 60.3403C41.5774 66.0708 37.3346 70.3411 31.3562 70.3411C25.4328 70.3411 21.1625 66.0708 21.1625 60.3403C21.1625 54.5547 25.4328 50.2292 31.3562 50.2292Z" fill="#663A2A"/>
<path d="M117.448 53.4251C120.892 53.4251 122.682 55.6567 122.985 58.5771H111.965C112.516 55.5465 114.61 53.4251 117.448 53.4251ZM126.484 61.5526C126.512 61.1668 126.539 60.7536 126.539 60.3679C126.539 54.5547 123.536 50.2568 117.255 50.2568C111.882 50.2568 107.998 54.5547 107.998 60.3679C107.998 60.7811 108.025 61.1668 108.053 61.5526C108.494 66.5392 111.69 70.3687 118.357 70.3687C121.58 70.3687 124.308 69.3769 126.291 67.779L124.804 65.0515C123.344 66.1535 121.112 67.1729 118.467 67.1729C114.307 67.1729 112.296 64.9137 111.91 61.5801H111.938L126.484 61.5526Z" fill="#663A2A"/>
<path d="M143.179 50.7527V58.577H132.958V50.7527H129.156V69.8452H132.958V61.5249H143.179V69.8452H146.981V50.7527H143.179Z" fill="#663A2A"/>
<path d="M167.009 50.7527H149.625V54.1414H156.402V69.8452H160.204V54.1414H167.009V50.7527Z" fill="#663A2A"/>
<path d="M191.225 50.7527H187.423V69.8452H191.225V50.7527Z" fill="#663A2A"/>
<path d="M52.5136 59.8168V59.6515C52.5136 59.6515 52.8718 59.5413 53.1749 59.1831C53.5055 58.825 60.4482 50.7802 60.4482 50.7802H56.1779L49.4831 58.6046H47.9678V50.7527H44.1658V69.8452H47.9678V61.5249H49.7035L56.9493 69.8452H61.688C61.688 69.8452 53.5606 60.6984 53.23 60.3127C52.8994 59.927 52.5136 59.8168 52.5136 59.8168Z" fill="#663A2A"/>
<path d="M175.687 66.9799C174.502 66.9799 173.427 66.8973 173.427 66.8973V60.0097C173.427 60.0097 174.254 59.7893 175.714 59.7893C178.882 59.7893 180.287 61.029 180.287 63.3157C180.315 65.5473 179.048 66.9799 175.687 66.9799ZM176.375 56.5934C174.612 56.5934 173.427 56.8138 173.427 56.8138V50.7527H169.625V69.8452C169.625 69.8452 172.739 70.1483 175.99 70.1483C181.968 70.1483 183.924 66.5116 183.924 63.1504C183.924 59.7617 182.161 56.5934 176.375 56.5934Z" fill="#663A2A"/>
<path d="M9.48146 66.8422C5.65194 66.8422 3.6132 64.0321 3.69585 60.3403C3.7785 56.5934 5.95499 53.7282 9.78452 53.7282C11.9059 53.7282 14.7436 55.6567 14.7436 59.1556V64.4178C13.5589 65.9331 11.7131 66.8422 9.48146 66.8422ZM14.9089 50.7527L14.7987 53.1496H14.5508C13.3385 51.3588 10.9141 50.2292 9.0131 50.2292C3.44789 50.2292 0.14183 54.5271 0.00407743 60.3403C-0.133675 66.0708 3.22749 70.3411 8.7927 70.3411C11.3549 70.3411 12.9253 69.6248 14.4957 67.7789H14.7436V69.4871C14.7436 73.1788 12.1814 74.639 9.2886 74.639C6.6162 74.639 4.54991 73.6472 3.28259 72.8758L2.04282 76.0165C3.25504 76.6502 5.51418 78.0002 9.2886 78.0002C14.6334 78.0002 18.5456 74.8319 18.5456 68.7157V50.7527H14.9089Z" fill="#663A2A"/>
<path d="M76.7573 50.7527V64.5831C75.6278 65.9881 73.9196 66.8422 71.7707 66.8422C68.2718 66.8422 66.6738 64.032 66.784 60.3403V50.7527H63.0923V60.3403C62.9545 66.0708 65.2412 70.3411 70.8064 70.3411C73.3411 70.3411 75.0768 69.5972 76.5094 67.7789H76.7573V69.487C76.7573 73.1788 74.1951 74.639 71.3023 74.639C68.6299 74.639 66.5636 73.6472 65.2963 72.8758L64.0565 76.0165C65.2688 76.6502 67.5279 78.0002 71.3023 78.0002C76.6471 78.0002 80.5593 74.8319 80.5593 68.7156V50.7527H76.7573Z" fill="#663A2A"/>
<path d="M101.772 50.7527C101.772 50.7527 95.4905 59.5964 95.2976 59.8444C95.1048 60.0923 95.0497 60.3678 95.0497 60.3678H94.9119C94.9119 60.3678 94.8293 60.1199 94.6364 59.8444C94.4436 59.5689 87.6937 50.7527 87.6937 50.7527H84.1121V69.8452H87.9141V57.6679C87.9141 56.8138 87.7488 56.3454 87.7488 56.3454H87.9141L94.9119 65.7402H95.0772L101.552 56.3454H101.744C101.744 56.3454 101.552 56.8414 101.552 57.6679V69.8452H105.354V50.7527H101.772Z" fill="#663A2A"/>
<path d="M140.038 27.8593C140.038 27.8593 134.693 34.8021 134.473 35.0776C134.225 35.4082 134.197 35.5735 134.197 35.5735H133.922C133.922 35.5735 133.867 35.3806 133.619 35.0776C133.233 34.6092 127.696 27.8593 127.696 27.8593H122.654V46.9519H128.825V38.9071C128.825 38.053 128.687 37.5296 128.687 37.5296H128.963L133.922 43.2325H134.197L138.798 37.5296H139.074C139.074 37.5296 138.936 38.053 138.936 38.9071V46.9243H145.08V27.8318H140.038V27.8593Z" fill="#663A2A"/>
<path d="M217.096 46.0899V26.7227H201.834V46.0899C201.834 52.8946 205.47 59.2034 211.393 62.6195L228.557 72.5373V54.9057L219.025 49.3958C217.812 48.7071 217.096 47.4674 217.096 46.0899Z" fill="#C79B65"/>
<path d="M228.529 64.9064L245.72 54.9886C251.616 51.5725 255.28 45.2637 255.28 38.459V0H228.557V15.2624H239.99V38.4314C239.99 39.7813 239.273 41.0486 238.089 41.7373L228.557 47.2472V64.9064H228.529Z" fill="#E84B37"/>
<path d="M228.53 0L201.834 26.724H228.53V0Z" fill="#663A2A"/>
</svg>
