<svg width="86" height="86" viewBox="0 0 86 86" fill="none" xmlns="http://www.w3.org/2000/svg">
<path d="M42.9994 7.16797C35.9122 7.16797 28.9842 9.26956 23.0914 13.207C17.1987 17.1444 12.6058 22.7408 9.89368 29.2885C7.18154 35.8362 6.47192 43.0411 7.85456 49.992C9.2372 56.943 12.65 63.3279 17.6614 68.3393C22.6728 73.3507 29.0576 76.7635 36.0086 78.1461C42.9596 79.5288 50.1645 78.8191 56.7122 76.107C63.2599 73.3949 68.8563 68.802 72.7937 62.9092C76.7311 57.0165 78.8327 50.0885 78.8327 43.0013C78.8327 38.2956 77.9058 33.636 76.105 29.2885C74.3043 24.941 71.6648 20.9907 68.3373 17.6633C65.0099 14.3359 61.0597 11.6964 56.7122 9.89562C52.3647 8.09483 47.7051 7.16797 42.9994 7.16797ZM42.9994 71.668C37.3296 71.668 31.7872 69.9867 27.073 66.8368C22.3588 63.6868 18.6845 59.2097 16.5148 53.9716C14.3451 48.7334 13.7774 42.9695 14.8835 37.4087C15.9896 31.8479 18.7199 26.74 22.729 22.7309C26.7381 18.7218 31.846 15.9916 37.4068 14.8855C42.9676 13.7793 48.7315 14.347 53.9696 16.5168C59.2078 18.6865 63.6849 22.3607 66.8348 27.075C69.9848 31.7892 71.666 37.3316 71.666 43.0013C71.666 50.6042 68.6458 57.8957 63.2698 63.2717C57.8937 68.6477 50.6022 71.668 42.9994 71.668Z" fill="#E04E39"/>
<path d="M46.3644 42.9993L56.6267 32.7594C57.0761 32.3099 57.3286 31.7003 57.3286 31.0647C57.3286 30.429 57.0761 29.8194 56.6267 29.3699C56.1773 28.9205 55.5678 28.668 54.9323 28.668C54.2967 28.668 53.6872 28.9205 53.2378 29.3699L42.9993 39.6337L32.7609 29.3699C32.3115 28.9205 31.702 28.668 31.0664 28.668C30.4309 28.668 29.8214 28.9205 29.372 29.3699C28.9226 29.8194 28.6701 30.429 28.6701 31.0647C28.6701 31.7003 28.9226 32.3099 29.372 32.7594L39.6343 42.9993L29.372 53.2392C29.1483 53.4611 28.9707 53.7251 28.8496 54.0159C28.7284 54.3068 28.666 54.6188 28.666 54.9339C28.666 55.249 28.7284 55.561 28.8496 55.8518C28.9707 56.1427 29.1483 56.4067 29.372 56.6286C29.5938 56.8523 29.8578 57.0299 30.1486 57.1511C30.4394 57.2722 30.7514 57.3346 31.0664 57.3346C31.3815 57.3346 31.6934 57.2722 31.9843 57.1511C32.2751 57.0299 32.539 56.8523 32.7609 56.6286L42.9993 46.3648L53.2378 56.6286C53.4597 56.8523 53.7236 57.0299 54.0144 57.1511C54.3053 57.2722 54.6172 57.3346 54.9323 57.3346C55.2473 57.3346 55.5593 57.2722 55.8501 57.1511C56.1409 57.0299 56.4049 56.8523 56.6267 56.6286C56.8504 56.4067 57.028 56.1427 57.1491 55.8518C57.2703 55.561 57.3327 55.249 57.3327 54.9339C57.3327 54.6188 57.2703 54.3068 57.1491 54.0159C57.028 53.7251 56.8504 53.4611 56.6267 53.2392L46.3644 42.9993Z" fill="#E04E39"/>
</svg>
