<svg width="49" height="49" viewBox="0 0 49 49" fill="none" xmlns="http://www.w3.org/2000/svg">
<g clip-path="url(#clip0)" filter="url(#filter0_d)">
<circle cx="24.5" cy="20.5" r="20.5" fill="#E84B37"/>
<g filter="url(#filter1_d)">
<path d="M30.9166 24.9558C29.249 25.9508 26.9547 26.3453 25.4393 26.494L26.7112 27.6719L31.3548 32.0348C33.0527 33.6702 30.2897 36.2262 28.5735 34.648C27.4111 33.5387 25.7071 31.9376 23.93 30.2679L19.2865 34.6423C17.5703 36.2147 14.8073 33.6359 16.5235 32.0291C17.7042 30.9198 19.39 29.3187 21.167 27.6662L22.4207 26.4883C20.9236 26.3396 18.5927 25.9679 16.9069 24.9501C14.9229 23.7493 14.0527 23.046 14.8195 21.5764C15.2698 20.7416 16.5053 20.0383 18.1424 21.2505C18.1424 21.2505 20.3515 22.903 23.9178 22.903C27.4841 22.903 29.6933 21.2505 29.6933 21.2505C31.3304 20.044 32.5598 20.7416 33.0162 21.5764C33.7708 23.046 32.9006 23.7493 30.9166 24.9558ZM16.0184 13.2738C16.0184 9.17391 19.5665 5.85742 23.9118 5.85742C28.2571 5.85742 31.8051 9.17391 31.8051 13.2738C31.8051 17.3565 28.2571 20.673 23.9118 20.673C19.5665 20.673 16.0184 17.3565 16.0184 13.2738ZM20.0351 13.2738C20.0351 15.2808 21.7756 16.9162 23.9118 16.9162C26.0479 16.9162 27.7884 15.2808 27.7884 13.2738C27.7884 11.2496 26.0479 9.6142 23.9118 9.6142C21.7756 9.6142 20.0351 11.2496 20.0351 13.2738Z" fill="white"/>
</g>
</g>
<defs>
<filter id="filter0_d" x="0.415039" y="0" width="49.2363" height="49" filterUnits="userSpaceOnUse" color-interpolation-filters="sRGB">
<feFlood flood-opacity="0" result="BackgroundImageFix"/>
<feColorMatrix in="SourceAlpha" type="matrix" values="0 0 0 0 0 0 0 0 0 0 0 0 0 0 0 0 0 0 127 0"/>
<feOffset dy="4"/>
<feGaussianBlur stdDeviation="2"/>
<feColorMatrix type="matrix" values="0 0 0 0 0.909804 0 0 0 0 0.294118 0 0 0 0 0.215686 0 0 0 0.4 0"/>
<feBlend mode="normal" in2="BackgroundImageFix" result="effect1_dropShadow"/>
<feBlend mode="normal" in="SourceGraphic" in2="effect1_dropShadow" result="shape"/>
</filter>
<filter id="filter1_d" x="10.543" y="5.85742" width="26.7429" height="37.2857" filterUnits="userSpaceOnUse" color-interpolation-filters="sRGB">
<feFlood flood-opacity="0" result="BackgroundImageFix"/>
<feColorMatrix in="SourceAlpha" type="matrix" values="0 0 0 0 0 0 0 0 0 0 0 0 0 0 0 0 0 0 127 0"/>
<feOffset dy="4"/>
<feGaussianBlur stdDeviation="2"/>
<feColorMatrix type="matrix" values="0 0 0 0 1 0 0 0 0 1 0 0 0 0 1 0 0 0 0.2 0"/>
<feBlend mode="normal" in2="BackgroundImageFix" result="effect1_dropShadow"/>
<feBlend mode="normal" in="SourceGraphic" in2="effect1_dropShadow" result="shape"/>
</filter>
<clipPath id="clip0">
<rect width="41.2363" height="41" fill="white" transform="translate(4.41504)"/>
</clipPath>
</defs>
</svg>
