<svg width="49" height="49" viewBox="0 0 49 49" fill="none" xmlns="http://www.w3.org/2000/svg">
<g clip-path="url(#clip0)" filter="url(#filter0_d)">
<circle cx="24.5" cy="20.5" r="20.5" fill="#E84B37"/>
<g filter="url(#filter1_d)">
<path d="M36.2089 13.917C36.3889 13.3221 36.2089 12.8857 35.3575 12.8857H32.537C31.8194 12.8857 31.4914 13.2632 31.3114 13.6778C31.3114 13.6778 29.8774 17.1567 27.8454 19.4125C27.1894 20.0688 26.8898 20.2761 26.5322 20.2761C26.3535 20.2761 26.0937 20.0688 26.0937 19.4739V13.917C26.0937 13.2031 25.8866 12.8857 25.2886 12.8857H20.8567C20.4091 12.8857 20.139 13.2159 20.139 13.5306C20.139 14.2062 21.1551 14.3623 21.2592 16.2662V20.3964C21.2592 21.301 21.0959 21.466 20.7358 21.466C19.7802 21.466 17.455 17.9743 16.075 13.9772C15.8062 13.2005 15.5348 12.887 14.8146 12.887H11.9955C11.1891 12.887 11.0283 13.2645 11.0283 13.679C11.0283 14.4237 11.9839 18.1086 15.4795 22.9823C17.8099 26.3102 21.0908 28.1143 24.0797 28.1143C25.8712 28.1143 26.0924 27.7138 26.0924 27.0229V24.5074C26.0924 23.7064 26.2635 23.5452 26.8306 23.5452C27.2473 23.5452 27.965 23.7551 29.6382 25.3583C31.5493 27.2596 31.8657 28.113 32.9396 28.113H35.7587C36.5638 28.113 36.9664 27.7126 36.7349 26.9218C36.4815 26.1349 35.5684 24.9898 34.3569 23.6348C33.6984 22.862 32.7145 22.0303 32.4149 21.6145C31.9969 21.0784 32.1178 20.8417 32.4149 20.3657C32.4162 20.367 35.8513 15.5535 36.2089 13.917Z" fill="white"/>
</g>
</g>
<defs>
<filter id="filter0_d" x="0.824219" y="0" width="49.2363" height="49" filterUnits="userSpaceOnUse" color-interpolation-filters="sRGB">
<feFlood flood-opacity="0" result="BackgroundImageFix"/>
<feColorMatrix in="SourceAlpha" type="matrix" values="0 0 0 0 0 0 0 0 0 0 0 0 0 0 0 0 0 0 127 0"/>
<feOffset dy="4"/>
<feGaussianBlur stdDeviation="2"/>
<feColorMatrix type="matrix" values="0 0 0 0 0.909804 0 0 0 0 0.294118 0 0 0 0 0.215686 0 0 0 0.4 0"/>
<feBlend mode="normal" in2="BackgroundImageFix" result="effect1_dropShadow"/>
<feBlend mode="normal" in="SourceGraphic" in2="effect1_dropShadow" result="shape"/>
</filter>
<filter id="filter1_d" x="7.02832" y="12.8857" width="33.7714" height="23.2286" filterUnits="userSpaceOnUse" color-interpolation-filters="sRGB">
<feFlood flood-opacity="0" result="BackgroundImageFix"/>
<feColorMatrix in="SourceAlpha" type="matrix" values="0 0 0 0 0 0 0 0 0 0 0 0 0 0 0 0 0 0 127 0"/>
<feOffset dy="4"/>
<feGaussianBlur stdDeviation="2"/>
<feColorMatrix type="matrix" values="0 0 0 0 1 0 0 0 0 1 0 0 0 0 1 0 0 0 0.2 0"/>
<feBlend mode="normal" in2="BackgroundImageFix" result="effect1_dropShadow"/>
<feBlend mode="normal" in="SourceGraphic" in2="effect1_dropShadow" result="shape"/>
</filter>
<clipPath id="clip0">
<rect width="41.2363" height="41" fill="white" transform="translate(4.82422)"/>
</clipPath>
</defs>
</svg>
