<svg width="1091" height="960" viewBox="0 0 1091 960" fill="none" xmlns="http://www.w3.org/2000/svg">
<path d="M948.495 295.18C845.143 225.868 736.58 354.693 616.587 316.232C553.407 295.981 482.658 198.456 418.685 183.26C181.292 126.868 52.9971 339.023 117.45 528.974C231.607 865.406 699.84 812.209 886.412 672.99C1008.75 581.698 1110.78 404.014 948.495 295.18Z" fill="url(#paint0_linear)"/>
<g clip-path="url(#clip0)">
<path d="M148.143 403.2C148.143 403.2 154.543 402.286 159.686 402.514C165.171 402.857 167.686 402.514 169.286 402.857C170.886 403.543 171.571 406.4 168.943 405.714C165.057 404.8 164.143 405.714 162.886 406.971C161.971 407.657 165.743 409.257 169.628 410.857C173.857 412.457 175.457 408.571 176.714 409.943C178.314 410.857 174.771 417.943 166.771 418.286C160.714 418.629 155.228 416 151.343 415.429C144.943 414.171 139.457 411.886 139.457 411.886L148.143 403.2Z" fill="#FFC9B6"/>
<path d="M141.63 396.114C137.401 395.428 132.944 395.2 132.944 395.2C132.944 395.2 132.601 393.6 132.944 392C133.287 390.057 129.059 390.743 129.059 390.743C129.059 390.743 125.287 372.685 125.287 372C124.601 368.457 123.687 356.571 115.916 343.657C108.144 331.085 101.059 337.257 101.059 337.257C101.059 337.257 106.201 379.771 110.659 395.2C111.001 394.857 111.573 394.285 111.916 393.943C113.859 399.771 115.801 409.371 116.144 409.714C120.601 415.543 128.373 414.857 133.516 415.543C140.259 416.457 150.201 417.143 150.201 417.143C150.201 417.143 148.944 410.4 149.287 407.543C149.973 401.714 153.516 401.143 153.516 401.143C153.516 401.143 145.516 396.8 141.63 396.114Z" fill="#623B2A"/>
<path d="M115.23 558.285C115.23 558.285 114.887 561.828 113.63 565.371C112.716 568.914 113.973 574.057 113.973 574.057C113.973 574.057 114.659 576.342 118.202 576.914C121.402 577.6 124.03 576.914 124.03 576.914C124.03 576.914 127.23 580.8 131.116 583.657C135.344 586.514 144.259 588.8 146.544 588.457C150.43 587.771 152.602 584.914 152.373 582.628C152.03 580.685 147.573 575.2 143.687 572.685C141.059 571.085 135.687 565.942 134.087 564C131.23 561.142 129.287 557.6 129.287 557.6L115.23 558.285Z" fill="#2C2A29"/>
<path d="M109.857 401.6C109.857 401.6 121.399 430.857 122.999 442.514C124.942 454.4 128.485 472.114 130.428 486.971C132.714 501.828 132.714 516.228 131.342 530.742C130.999 536.571 128.714 551.657 130.085 559.657C128.828 565.142 116.257 565.714 114.999 559.314C114.085 555.428 104.371 521.371 103.457 510.742C102.542 500.114 105.057 492.457 105.057 492.457C105.057 492.457 89.628 459.657 84.1423 446.4C78.6566 433.257 82.5423 417.142 82.5423 417.142L109.857 401.6Z" fill="url(#paint1_linear)"/>
<path d="M56.7142 588.229C56.7142 588.229 54.4285 596 54.7714 600.457C55.1142 604.914 56.0285 605.943 57.3999 607.543C58.6571 609.143 60.2571 608.457 60.2571 608.457C60.2571 608.457 60.9428 617.828 65.3999 621.6C69.8571 625.486 77.9714 625.828 81.5142 624.457C85.0571 623.2 82.7714 616.457 79.2285 609.943C75.6857 603.543 70.8857 596.457 69.8571 590.286C61.2857 589.143 56.7142 588.229 56.7142 588.229Z" fill="#2C2A29"/>
<path d="M68.9439 413.486C68.9439 413.486 63.4582 421.486 59.0011 435.314C55.8011 444.914 56.3725 468.457 56.3725 468.457C56.3725 468.457 55.4582 491.657 57.0582 499.657C58.6582 507.657 58.3153 509.257 58.3153 509.257C58.3153 509.257 51.9153 528.571 52.8296 551.086C53.7439 573.6 55.6868 590.057 55.6868 590.057C55.6868 590.057 56.9439 594.286 62.7725 594.857C67.9153 595.543 72.1439 591.657 72.1439 591.657C72.1439 591.657 81.7439 543.771 85.2868 532.8C88.8296 521.828 90.0868 509.257 90.0868 509.257L97.5154 455.2C97.5154 455.2 101.972 447.2 104.601 421.714C100.144 407.086 68.9439 413.486 68.9439 413.486Z" fill="url(#paint2_linear)"/>
<path d="M80.4855 339.2C83.3427 338.285 95.3427 334.4 96.5998 334.971C104.943 339.2 114.657 355.543 115.914 366.857C116.6 371.314 115.228 383.543 112.714 390.971C115.571 395.428 113.057 398.971 113.057 400.343C112.714 402.628 116.257 412.571 117.286 414.514C118.886 418.743 119.228 424.8 116.6 428C111.8 434.4 106.314 436.343 94.4284 437.943C80.5998 439.885 71.5712 429.943 67.1141 424.114C66.1998 422.857 61.9712 411.885 65.1712 409.943C62.8855 402.857 60.3712 394.171 58.0855 385.485C54.5427 372.571 51.6855 360.343 58.9998 350.743C61.857 346.514 73.7427 341.143 80.4855 339.2Z" fill="#EDDCDA"/>
<path d="M78.8856 323.771C78.8856 323.771 90.1999 332.457 93.9713 338.286C97.5142 344.114 99.1142 346.286 97.1713 359.886C86.8856 356.343 73.6285 349.943 71.457 342.857C75.1142 340.457 78.8856 323.771 78.8856 323.771Z" fill="#FFB9A4"/>
<path d="M104.715 381.371C103.8 376.229 102.086 371.429 101.172 368.457C100.829 367.771 102.772 361.714 102.772 361.714L97.2859 359.771L94.0859 363.657C94.0859 363.657 96.0288 368.114 97.9716 369.143C97.9716 374.971 97.6288 385.257 97.6288 394.857C97.2859 409.943 97.6288 420.914 97.6288 420.914C97.6288 420.914 101.172 426.057 104.715 428.343C107.343 423.886 108.257 418.057 108.257 418.057C108.257 418.057 106.315 390.057 104.715 381.371Z" fill="#E04E39"/>
<path d="M73.1719 343.657C73.1719 343.657 82.5433 347.886 86.3147 351.086C91.4576 355.314 94.0862 356.572 96.6005 359.086C96.9433 358.4 97.5147 346.514 97.5147 346.514C97.5147 346.514 101.972 347.2 101.743 347.2C101.743 347.2 104.372 349.486 105.286 354.286C106.2 359.086 104.6 364.572 104.6 364.572L97.1719 360.114L92.3719 369.143C92.3719 369.143 82.7719 360.8 78.2004 355.657C74.0862 350.743 73.1719 343.657 73.1719 343.657Z" fill="white"/>
<path d="M101.172 337.257C101.172 337.257 108.6 338.171 112.486 347.2C116.715 356.571 117.972 366.857 117.972 381.028C117.972 391.314 118.657 405.143 120.6 412.571C122.2 418.971 130.543 442.171 130.543 442.171C130.543 442.171 129.857 451.771 126.657 455.657C122.772 460.457 118.315 460.114 118.315 460.114C118.315 460.114 113.172 431.2 112.486 426.628C111.8 422.171 110.2 397.943 110.543 390.628C110.886 383.543 107 359.771 105.4 354.285C103.8 349.143 94.0859 338.171 94.0859 338.171L101.172 337.257Z" fill="url(#paint3_linear)"/>
<path d="M99.5727 344.686C99.5727 344.686 102.43 348.228 104.716 354.057C107.001 359.543 107.573 371.771 108.258 378.857C108.944 385.943 110.544 393.028 110.544 393.028C110.544 393.028 113.173 385.257 113.744 380.114C114.43 374.971 115.001 370.743 115.001 370.743L111.458 367.886L115.001 359.543C115.001 359.543 105.973 339.886 102.087 338.971C98.2013 337.828 99.5727 344.686 99.5727 344.686Z" fill="#623B2A"/>
<path d="M107.23 319.199C106.544 314.057 104.601 307.657 100.487 304.342C96.2581 301.142 89.5153 301.485 84.3724 302.399C76.601 303.657 71.801 313.028 74.4295 322.971C76.7153 332.342 84.3724 345.828 95.001 346.742C100.487 347.085 104.03 342.857 105.972 337.371C107.915 331.085 107.572 323.428 107.23 319.199Z" fill="#FFC9B6"/>
<path d="M115.572 305.714C115.23 300.572 110.772 298.286 107.23 299.314C108.144 292.229 99.2296 291.314 96.2582 295.429C94.3153 294.743 91.801 291.543 86.8867 291.543C81.0582 291.543 74.3153 293.486 72.7153 301.143C66.6582 303.772 68.0296 313.143 69.6296 318.857C70.8867 322.743 75.6867 334.972 76.0296 334.972C78.3153 332.686 81.5153 323.429 81.8582 322.4C85.401 322.743 92.1439 320.114 93.401 318.514C97.2867 320.457 104.715 323.314 108.487 320.8C114.315 317.6 115.915 310.514 115.572 305.714Z" fill="#2C2A29"/>
<path d="M82.0854 325.371C82.0854 325.371 79.7997 321.485 76.5997 324.114C73.7426 326.742 80.1426 333.142 80.1426 333.142L82.0854 325.371Z" fill="#FFC9B6"/>
<path d="M105.63 337.6C105.63 337.6 104.373 336.914 100.487 337.943C96.6013 338.628 92.7156 341.828 89.8585 340.8C87.0013 339.885 85.4013 337.943 84.7156 336C84.0299 333.371 83.4585 329.257 83.1156 325.028C81.8585 325.714 81.5156 326.971 81.5156 328.228C81.1728 332.457 81.8585 337.6 82.7728 340.114C84.0299 344 89.1728 348.8 96.6013 350.4C103.001 351.657 104.373 348.114 105.287 344.343C105.973 340.457 105.63 339.543 105.63 337.6Z" fill="#2C2A29"/>
<path d="M103.343 341.143C103.343 341.143 101.4 341.143 100.714 339.886C99.4569 341.829 96.8283 342.171 95.9141 342.743C96.8283 343.657 98.1998 344.686 100.714 344C103 343.314 103.343 341.143 103.343 341.143Z" fill="#FFC9B6"/>
<path d="M71.5722 342.742C71.5722 342.742 82.2007 356.914 85.4007 376.228C88.6007 395.542 85.4007 415.428 85.4007 429.599C85.4007 443.428 87.0007 471.085 87.0007 471.085C87.0007 471.085 74.0864 473.371 64.4864 471.428C54.2007 469.142 48.0293 461.828 48.0293 461.828C48.0293 461.828 54.0864 429.942 58.6579 410.399C60.6007 401.714 55.4579 382.399 51.915 372.114C49.9722 365.714 48.715 357.371 53.8579 351.542C57.7436 346.856 66.4293 345.256 71.5722 342.742Z" fill="url(#paint4_linear)"/>
<path d="M33.2871 412.799L48.7157 440.571L88.2585 418.057L72.83 390.399L69.9728 391.999L33.2871 412.799Z" fill="#FF9C7D"/>
<path d="M30.3145 414.514L45.743 442.171L85.2859 419.657L69.8573 392L30.3145 414.514Z" fill="#F49678"/>
<path d="M72.143 390.628L87.2287 417.599L85.6287 418.514L70.543 391.542L72.143 390.628Z" fill="white"/>
<path d="M71.8008 391.657L76.9436 400.686L82.7722 397.486L77.9722 388.8L71.8008 391.657Z" fill="#EDDCDA"/>
<path d="M74.7715 398.399L88.9429 399.085L83.1143 412.914L74.7715 398.399Z" fill="#E04E39"/>
<path d="M64.7148 425.714C64.7148 425.714 68.9433 425.714 72.1433 426.971C73.7433 425.714 76.9433 424.114 76.9433 424.114C76.9433 424.114 79.2291 430.514 75.0005 435.429C70.7719 439.886 65.4005 437.371 62.0862 434.514C58.6576 432.114 64.7148 425.714 64.7148 425.714Z" fill="#FFC9B6"/>
<path d="M58.3148 348.229C58.3148 348.229 48.0291 351.086 42.5434 361.371C37.4005 371.314 30.6577 390.971 28.7148 398.971C26.0862 409.943 26.772 413.829 28.372 416.686C31.572 421.829 36.1434 425.714 42.2005 429.257C51.8005 435.086 60.8291 436.686 60.8291 436.686C60.8291 436.686 67.572 435.428 67.572 424.457C65.972 422.857 62.7719 423.2 57.972 418.4C51.572 412.571 47.0005 407.771 47.0005 407.771C47.0005 407.771 54.4291 397.143 61.8577 385.6C71.572 362.286 58.3148 348.229 58.3148 348.229Z" fill="#623B2A"/>
<path d="M73.1725 339.771C73.1725 339.771 66.7725 342.629 66.4297 344.914C67.344 347.2 69.9725 350.4 71.2297 356.457C72.4868 362.514 71.9154 369.029 71.9154 369.029L78.6583 372.229L74.7725 378.971L86.6583 394.4C86.6583 394.4 88.6011 374.171 83.8011 359.314C79.2297 344.914 73.1725 339.771 73.1725 339.771Z" fill="#623B2A"/>
<path d="M201.857 407.657C204.486 390.628 209.857 375.771 209.857 375.771L171.228 365.143C171.228 365.143 165.743 380 163.228 397.028C160.371 416.685 164.486 438.514 164.486 438.514L203.686 449.485C203.686 449.485 203.686 449.485 203.686 449.143L203 448.8C203.114 448.914 198.886 427.314 201.857 407.657Z" fill="white"/>
<path d="M157.058 402.285C159.001 402.285 160.601 401.371 162.201 401.599C164.83 401.942 166.658 402.285 168.601 402.513C170.544 402.856 170.544 406.399 167.344 406.399C162.201 406.056 161.515 408.342 158.658 407.999C156.487 407.656 157.058 402.285 157.058 402.285Z" fill="#FFC9B6"/>
<path d="M201.857 378.056C195.457 376.456 183.8 372.571 175.457 370.971C173.857 370.628 173.515 371.656 175.115 372.228C183.115 375.085 193.172 377.028 201.172 378.971C202.772 379.428 202.429 378.399 201.857 378.056Z" fill="#704232"/>
<path d="M199.572 385.485C193.172 383.885 181.515 379.999 173.172 378.399C171.572 378.057 171.229 379.085 172.829 379.657C180.829 382.514 190.886 384.457 198.886 386.399C200.829 386.742 200.601 385.485 199.572 385.485Z" fill="#704232"/>
<path d="M198.886 390.971C192.486 389.371 179.915 385.486 171.572 383.886C169.972 383.543 169.629 384.571 170.886 384.8C179.229 387.086 189.858 389.943 197.858 391.886C199.915 392.229 199.915 390.971 198.886 390.971Z" fill="#704232"/>
<path d="M182.544 392.228C178.658 390.971 174.544 389.6 170.315 388.686C169.629 388.686 169.401 389.6 169.972 389.6C173.172 390.857 177.972 391.886 181.858 392.8C183.229 393.828 183.229 392.571 182.544 392.228Z" fill="#704232"/>
<path d="M196.029 402.857C189.629 401.257 177.972 397.372 169.629 395.772C168.029 395.429 167.686 396.457 169.286 397.029C177.286 399.886 187.344 401.829 195.344 403.772C197.058 404.457 197.058 403.2 196.029 402.857Z" fill="#704232"/>
<path d="M196.029 408.685C189.629 407.085 177.057 403.2 168.714 401.6C167.114 401.257 166.772 402.285 168.029 402.514C176.372 404.8 187 407.657 195 409.6C197.057 410.285 197.057 409.028 196.029 408.685Z" fill="#704232"/>
<path d="M179.686 410.628C175.801 409.371 171.686 407.999 167.458 407.085C166.772 407.085 166.543 407.999 167.115 407.999C170.315 409.256 175.115 410.285 179.001 411.199C180.258 412.228 180.258 410.971 179.686 410.628Z" fill="#704232"/>
<path d="M194.771 421.257C188.371 419.657 176.714 415.771 168.371 414.171C166.771 413.828 166.429 414.857 168.029 415.428C176.029 418.285 186.086 420.228 194.086 422.171C195.686 422.514 195.457 421.485 194.771 421.257Z" fill="#704232"/>
<path d="M195.458 428C189.058 426.4 176.487 422.514 168.144 420.914C166.544 420.571 166.201 421.6 167.458 421.828C175.801 424.114 186.43 426.971 194.43 428.914C196.373 429.257 196.373 428 195.458 428Z" fill="#704232"/>
<path d="M180.257 429.599C176.371 428.342 172.257 426.971 168.028 426.057C167.342 426.057 167.114 426.971 167.685 426.971C170.885 428.228 175.685 429.257 179.571 430.171C180.942 430.857 180.942 429.599 180.257 429.599Z" fill="#704232"/>
<path d="M191.572 432.457C189.287 431.771 187.344 433.371 187.115 435.657C187.115 437.943 188.715 440.8 191.344 441.143C194.201 441.143 195.801 438.286 194.887 435.657C194.43 434.057 193.172 432.8 191.572 432.457ZM190.544 439.543C189.287 438.857 188.601 437.6 188.258 436.686C187.915 435.086 188.601 434.057 189.858 433.828C191.801 433.143 193.401 434.514 194.087 436.114C194.772 437.943 192.83 440.571 190.544 439.543Z" fill="#F17757"/>
<path d="M191.573 434.399C190.659 434.057 189.63 434.742 189.287 435.999C189.287 437.257 190.201 438.628 191.23 438.628C192.487 438.628 193.516 437.028 192.83 435.999C192.83 435.428 192.144 434.742 191.573 434.399Z" fill="#F17757"/>
<path d="M255.914 332.457C255.914 332.457 244.6 321.143 237.857 334.4C230.429 348.228 229.172 346.628 222.086 356.571C221.172 357.828 216.257 370.057 214.314 377.485C213.057 381.943 215 383.657 218.2 397.714C220.143 405.485 225.972 410.857 225.972 410.857C225.972 410.857 235 405.714 240.486 406.057C246.314 406.057 237.286 389.028 237.286 389.028L238.886 378.4C252.714 362.285 255.914 332.457 255.914 332.457Z" fill="#E04E39"/>
<path d="M225.972 410.972C225.972 410.972 225.058 417.372 225.972 420.572C226.887 423.772 227.915 424.8 227.915 424.8C227.915 424.8 223.687 423.543 222.087 426.057C220.144 428.686 225.287 430.857 231.458 430.286C237.629 429.714 243.001 413.257 243.001 413.257L236.258 406.172C236.258 406.057 228.829 406.743 225.972 410.972Z" fill="#FFC9B6"/>
<path d="M234.657 558.971C234.657 558.971 235 562.514 236.257 566.057C237.172 569.599 235.914 574.742 235.914 574.742C235.914 574.742 235.229 577.028 231.686 577.599C228.486 578.285 225.857 577.599 225.857 577.599C225.857 577.599 222.657 581.485 218.772 584.342C214.886 587.199 205.629 589.485 203.343 589.142C199.457 588.457 197.286 585.599 197.514 583.314C197.857 581.371 202.314 575.885 206.2 573.371C208.829 571.771 214.2 566.628 215.8 564.685C218.657 561.828 220.6 558.285 220.6 558.285L234.657 558.971Z" fill="#2C2A29"/>
<path d="M239.801 401.942C239.801 401.942 228.258 431.2 226.658 442.857C224.715 454.742 221.172 472.457 219.229 487.314C216.943 502.171 216.943 516.571 218.315 531.085C218.658 536.914 220.943 552 219.572 560C220.829 565.485 233.401 566.057 234.658 559.657C235.572 555.771 245.286 521.714 246.201 511.085C247.115 500.457 244.601 492.8 244.601 492.8C244.601 492.8 260.029 459.314 265.515 446.514C271.001 433.371 267.115 417.257 267.115 417.257L239.801 401.942Z" fill="url(#paint5_linear)"/>
<path d="M293.172 588.8C293.172 588.8 295.457 596.571 295.115 601.028C294.772 605.485 293.857 606.514 292.486 608.114C291.229 609.714 289.629 609.028 289.629 609.028C289.629 609.028 288.943 618.4 284.486 622.171C280.029 626.057 271.915 626.4 268.372 625.028C264.829 623.771 267.115 617.028 270.657 610.514C274.2 604.114 279 597.028 280.029 590.857C288.715 589.486 293.172 588.8 293.172 588.8Z" fill="#2C2A29"/>
<path d="M280.942 414.171C280.942 414.171 286.428 422.171 290.885 436C294.085 445.6 293.514 469.142 293.514 469.142C293.514 469.142 294.428 492.342 292.828 500.342C291.228 508.342 291.571 509.942 291.571 509.942C291.571 509.942 297.971 529.257 297.057 551.771C296.142 574.285 294.199 590.742 294.199 590.742C294.199 590.742 292.942 594.971 287.114 595.542C281.971 596.228 277.742 592.342 277.742 592.342C277.742 592.342 268.142 544.457 264.599 533.485C261.057 522.514 259.799 509.942 259.799 509.942L252.371 455.885C252.371 455.885 248.828 449.485 245.285 422.4C249.742 407.657 280.942 414.171 280.942 414.171Z" fill="url(#paint6_linear)"/>
<path d="M269.401 339.542C266.544 338.628 254.658 334.742 253.287 335.314C244.944 339.542 235.23 355.885 233.973 367.2C233.287 371.657 234.658 394.514 237.515 401.942C233.63 403.885 233.973 405.485 235.573 407.771C233.973 410.057 232.715 410.4 232.03 412.571C230.43 416.8 232.715 418.742 235.573 421.942C239.801 426.4 247.115 430.285 259.115 431.885C272.944 433.828 283.915 428 288.03 422.285C288.944 421.028 288.944 417.485 285.744 415.542C288.03 408.457 289.973 394.971 292.144 386.628C295.687 373.714 298.887 358.628 291.458 349.028C288.373 344.342 275.801 341.714 269.401 339.542Z" fill="url(#paint7_linear)"/>
<path d="M251.687 341.143C251.687 341.143 248.83 345.371 248.83 351.086C248.83 356.8 250.43 365.257 250.43 365.257C250.43 365.257 264.259 361.029 271.344 355.886C280.944 348.457 282.659 343.314 282.659 343.314C282.659 343.314 274.316 340.114 269.744 339.429C264.944 338.857 251.687 341.143 251.687 341.143Z" fill="#E04E39"/>
<path d="M270.658 324.343C270.658 324.343 259.344 333.028 255.573 338.857C252.03 344.686 250.43 346.857 252.373 360.457C262.658 356.914 276.83 350.171 279.116 342.743C275.801 340.457 270.658 324.343 270.658 324.343Z" fill="#FFB9A4"/>
<path d="M243 318.857C243.343 314.057 244.257 307.542 248.143 303.999C252.029 300.457 258.429 300.114 263.229 300.457C270.657 301.142 276.143 309.485 274.771 319.085C273.514 328.114 267.686 341.599 257.743 343.542C252.6 344.457 248.714 340.685 246.429 335.771C243.686 330.514 243 323.085 243 318.857Z" fill="#FFC9B6"/>
<path d="M238.887 409.6C238.887 409.6 243.115 415.085 250.43 417.371C257.858 419.657 263.572 418.628 263.572 418.628C263.572 418.628 258.772 417.028 254.887 415.771C251.344 414.742 242.087 409.6 238.887 409.6Z" fill="#E83A3A"/>
<path d="M246.201 404.114C246.201 404.114 249.401 409.943 256.144 412.114C262.887 414.4 267.115 413.371 267.115 413.371C267.115 413.371 259.687 411.086 256.487 409.486C253.973 408.343 246.201 404.114 246.201 404.114Z" fill="#E83A3A"/>
<path d="M285.172 307.657C284.486 304.8 282.315 302.514 279.686 302.514C281.972 297.371 281.972 291.2 275.8 289.028C269.743 286.742 262.658 288.114 258.429 292.914C256.829 288.114 252.372 284.228 245.515 289.714C237.743 295.771 237.172 306.171 242.658 315.085C246.886 320.228 256.829 320.571 261.286 317.371C262.543 323.771 262.886 324.114 268.029 326.4C267.343 330.285 272.258 336.342 275.8 338.285C276.829 327.314 287.115 317.257 285.172 307.657Z" fill="#2C2A29"/>
<path d="M264.943 327.885C264.943 323.085 270.086 320.114 271.343 325.028C272.601 329.485 268.715 332.799 268.715 332.799L264.943 327.885Z" fill="#FFC9B6"/>
<path d="M291.571 348.457C291.571 348.457 276.828 368.457 273.285 378.971C269.4 389.6 265.285 398.286 265.285 398.286C265.285 398.286 242.771 399.543 231.457 401.143C224.371 402.057 218.885 403.086 216.371 403.771C217.971 408 218.314 412.8 218.314 416.914C218.314 417.257 218.314 417.6 218.314 417.828C226.314 420.114 244.028 424.571 253.057 424.228C264.943 423.543 279.457 419.771 279.457 419.771C279.457 419.771 295.228 388.914 300.714 378.857C305.4 369.371 303.8 354.628 291.571 348.457Z" fill="#E04E39"/>
<path d="M216.029 404.114C216.029 404.114 202.201 398.057 196.029 399.314C189.972 400.571 186.658 408 185.401 410.857C184.144 413.714 186.315 418.857 192.829 418.286C199.229 417.943 202.201 415.086 202.201 415.086C202.201 415.086 211.572 420.229 217.629 417.714C221.515 413.486 218.887 405.486 216.029 404.114Z" fill="#FFC9B6"/>
<path d="M921.173 530.285L920.601 530.057C918.201 529.714 916.601 527.314 917.173 524.914L935.116 429.371L944.258 430.971L926.316 526.514C925.973 529.028 923.573 530.743 921.173 530.285Z" fill="#F8B79E"/>
<path d="M994.658 566.857H994.087C991.687 566.857 989.744 564.8 989.744 562.514V465.257H999.116V562.514C999.001 564.914 996.944 566.857 994.658 566.857Z" fill="#F8B79E"/>
<path d="M1071 543.314H1070.43C1068.03 543.657 1065.86 541.828 1065.52 539.428L1053.29 442.971L1062.66 441.828L1074.89 538.285C1075 540.8 1073.4 542.971 1071 543.314Z" fill="#F8B79E"/>
<path d="M1002.89 296.228L1009.97 292.571C1011.57 291.657 1013.4 291.886 1015.12 292.8L1088.72 336.343C1090.54 337.486 1091.23 339.428 1090.89 341.486L1066.43 445.6C1065.29 450.171 1062.43 454.057 1058.43 456.228L996.144 490.857C994.087 492 991.572 492 989.744 490.857L923.572 451.543C921.058 450.057 919.572 447.314 919.572 444.571V435.428L987.229 411.657L1002.89 296.228Z" fill="#623B2A"/>
<path d="M919.572 434.971L977.172 401.028L1002.89 296.343L1080.72 342.057L1057.74 442.171L993.972 477.6L919.572 434.971Z" fill="#C39367"/>
<path d="M997.514 330.857C997.514 330.857 1036.6 354.972 1047.34 399.543C1049.51 408.915 1046.2 426.629 1037.63 438.286C1029.06 449.943 1010.09 462.4 1010.09 462.4L976.143 434.4L997.514 330.857Z" fill="#302665" fill-opacity="0.1"/>
<path d="M875.685 528.114C875.685 528.114 866.771 539.657 855.914 547.086C845.171 554.629 847.685 563.543 859.228 564.457C868.028 565.143 874.2 562.857 881.743 556C889.285 549.371 892.485 549.943 894.543 547.086C896.6 544.343 894.314 532.457 894.314 532.457L875.685 528.114Z" fill="#58595B"/>
<path d="M923.687 560.686C923.687 560.686 919.687 568.228 909.744 577.143C899.916 586.286 898.544 592.114 906.43 596.457C914.316 601.028 926.887 597.371 933.63 589.714C940.373 582.057 943.687 579.886 946.43 578.057C949.401 576.228 946.43 562.286 946.43 562.286L923.687 560.686Z" fill="#58595B"/>
<path d="M951.116 416.114C951.116 416.114 911.802 429.257 899.459 438.629C887.002 448 873.287 527.2 873.287 527.2C870.544 534.171 893.973 543.086 896.487 536.114L924.259 465.257L985.63 436L951.116 416.114Z" fill="url(#paint8_linear)"/>
<path d="M977.058 424.571C977.058 424.571 945.972 448.457 935.915 462.971C925.858 477.371 921.972 559.771 921.972 559.771C919.915 571.086 946.658 575.657 949.172 566.171L969.401 480.457C969.401 480.457 1018.2 459.314 1020.14 433.143L977.058 424.571Z" fill="url(#paint9_linear)"/>
<path d="M1020.6 432.914C1020.6 432.914 1010.54 438.057 997.057 437.829C990.428 437.829 983 436.343 975.686 432.572C964.943 426.857 958.886 422.857 955.457 420.114C951.8 417.143 951.229 415.886 951.229 415.886L955.457 389.029C955.457 389.029 951.457 348.457 954.771 337.372C957.514 328 970.543 320 988.029 324.343C988.029 324.343 992.257 324.686 998.086 329.257C1004.71 334.172 1013.06 343.657 1017.86 350.857C1027.57 365.714 1020.6 432.914 1020.6 432.914Z" fill="url(#paint10_linear)"/>
<path d="M1002.09 425.828L1017.86 418.285C1016.71 428.914 1004.14 435.085 997.057 437.828C990.428 437.828 983 436.343 975.686 432.571C964.943 426.857 958.886 422.857 955.457 420.114C956.943 417.943 959.343 415.771 962.771 413.943C977.628 406.4 983.914 402.285 983.914 402.285C983.914 402.285 958.314 391.657 959.228 389.828C960.143 388 987.228 397.714 987.228 397.714C991.457 383.657 997.514 371.428 1003.11 362.857C1003.11 362.857 1020.26 352.571 1021.51 362.285C1022.77 372.114 1019 396.8 1016.71 407.085C1014.54 417.257 1002.89 425.485 1002.09 425.828Z" fill="#E04E39"/>
<path d="M994.772 330.629C993.63 334.629 982.887 347.429 974.544 346.514C973.401 346.286 972.373 345.943 971.458 345.6C966.43 342.514 967.573 333.714 967.573 333.714L973.287 330.4C973.287 330.4 985.401 311.772 987.572 313.029C987.801 313.257 987.915 313.372 987.915 313.714C987.915 313.943 987.915 313.943 987.915 314.057C987.915 315.2 988.144 316.229 988.487 317.486C990.201 323.543 994.772 330.629 994.772 330.629Z" fill="#FFC9B6"/>
<path d="M988.6 317.486C988.371 338.514 972.028 345.257 971.571 345.486C966.657 342.4 967.685 333.6 967.685 333.6L973.4 330.286C973.4 330.286 985.514 311.657 987.685 312.914C987.914 313.143 987.914 313.257 988.028 313.6C988.371 314.514 988.6 315.772 988.6 317.486Z" fill="#CE5555" fill-opacity="0.2"/>
<path d="M951.344 307.2C949.516 298.971 952.83 295.314 952.944 295.086C964.487 285.257 981.058 294.514 981.973 295.314C982.887 295.886 985.973 302.628 987.23 305.943C988.144 303.886 989.401 303.428 990.544 303.543C992.373 303.771 993.516 304.8 993.516 307.886C993.744 310.857 992.83 316.457 989.858 318.171C989.287 318.514 988.716 318.171 988.373 317.828C988.716 324.457 979.23 337.028 967.573 335.771C959.573 334.628 953.173 315.428 951.344 307.2Z" fill="#FFC9B6"/>
<path d="M967.228 275.2C985.628 270.057 988.257 281.828 988.257 281.828C988.257 281.828 995.228 281.6 995.571 299.886C995.8 305.143 994.314 308.114 993.743 310.171C993.971 309.257 993.971 308.571 993.743 307.771C993.514 304.8 992.485 303.771 990.771 303.428C989.285 303.2 987.685 304.343 986.771 308.228C985.514 310.4 985.628 314.286 985.628 314.286C985.628 314.286 985.057 314.628 984.485 313.943C983.8 313.371 982.314 310.857 981.743 309.371C981.514 308.686 981.171 309.028 978.771 306.857C976.6 304.686 975.685 301.371 975.114 300.228C971.114 305.143 955.571 310.057 951.914 302.286C951.343 304.686 953.057 312.114 952.828 312.571C952.828 312.343 948.943 309.143 948.828 301.257C948.828 301.257 946.771 294.286 949.743 288.457C953.514 281.257 963 276.571 967.228 275.2Z" fill="#C39367"/>
<path d="M991.914 324.8C991.914 324.8 991.571 340.914 971.686 345.486L978.428 355.314C978.428 355.314 994.657 344.343 998.2 329.143L991.914 324.8Z" fill="#E3F6FD"/>
<path d="M745.401 444.114L838.43 389.714L838.087 505.6L745.059 559.885L745.401 444.114Z" fill="#704232"/>
<path d="M971.915 559.086L1064.72 504.686L1064.37 636.228L971.344 690.628L971.915 559.086Z" fill="#8E6455"/>
<path d="M732.371 420.685L825.4 366.285L1064.83 504.571L972.028 558.971L732.371 420.685Z" fill="#DC006E"/>
<path d="M971.915 558.971L971.344 690.514L958.315 682.857L958.658 567.2L745.401 444.114L745.058 559.771L732.029 552.228L732.372 420.686L971.915 558.971Z" fill="#AE8E81"/>
<path d="M720.486 404.8L825.172 343.429L1076.83 488.686L971.915 550.057L720.486 404.8Z" fill="#D8B89A"/>
<path opacity="0.23" d="M907.229 467.428L914.543 467.771L954.886 447.543L990.543 438.742L932.828 405.485L901.4 416.114L895.229 449.6L907.229 467.428Z" fill="#CFA580"/>
<path fill-rule="evenodd" clip-rule="evenodd" d="M949.173 344.685C953.401 331.885 960.144 329.371 960.144 329.371L974.087 357.143L955.458 387.2L954.087 389.485C944.601 404.343 916.944 418.4 916.944 418.4C908.716 422.285 900.716 411.085 905.973 406.743L936.487 378.971C937.63 375.543 945.173 356.343 949.173 344.685Z" fill="url(#paint11_linear)"/>
<path opacity="0.23" d="M787.801 411.885H807.344L850.887 386.857L828.029 374.057L802.772 387.999L787.801 411.885Z" fill="#CFA580"/>
<path opacity="0.23" d="M1022.2 495.428L1029.52 491.2C1034.43 488.228 1034.66 481.142 1029.74 478.171L1023 473.828L1022.2 495.428Z" fill="#CFA580"/>
<path d="M971.915 565.943V550.057L720.486 404.8V420.686L971.915 565.943Z" fill="#CFA580"/>
<path d="M1076.83 488.686V504.572L971.914 565.943V550.057L1076.83 487.429" fill="#C39367"/>
<path d="M907.228 467.429L952.714 442.171L893.286 407.771L851.229 434.971L907.228 467.429Z" fill="#DC006E"/>
<path d="M909.629 462.4L950.886 439.543L952.715 442.286L910.658 465.714L909.629 462.4Z" fill="#58595B"/>
<path d="M951 439.542L894.772 406.628L873.629 419.085L909.858 462.399L951 439.542Z" fill="white"/>
<path d="M905.857 457.485L930.314 445.028L885.743 418.399L882.771 430.628L905.857 457.485Z" fill="#D1D3D4"/>
<path opacity="0.23" d="M924.258 487.2L969.401 460.686L1005.17 481.143L959.801 507.657L924.258 487.2Z" fill="#5889D6"/>
<path opacity="0.23" d="M927.914 491.428L967.228 461.828L1003 482.057L963.571 511.885L927.914 491.428Z" fill="#5889D6"/>
<path d="M923.686 484.799L969.057 458.514L1004.71 478.971L959.571 505.485L923.686 484.799Z" fill="#E2E3E8"/>
<path d="M927.229 489.371L966.543 459.771L1002.31 480.229L962.886 510.057L927.229 489.371Z" fill="white"/>
<path d="M780.143 407.314V357.257L788.371 351.543L809.057 376.8L819.114 371.543V385.029L780.143 407.314Z" fill="#F17757"/>
<path d="M826.657 389.6L819 385.943V371.543L826.657 376.114V389.6Z" fill="#F17757"/>
<path d="M818.886 330.857L784.486 350.4V405.943L818.886 386.4V330.857Z" fill="#BCBFC9"/>
<path d="M821.4 332.229L787 351.771V407.314L821.4 387.771V332.229Z" fill="#E2E3E8"/>
<path d="M823.8 333.485L789.629 353.142V408.685L823.8 389.371V333.485Z" fill="white"/>
<path d="M780.143 357.143L787.8 361.485V411.885L780.143 407.543V357.143Z" fill="#F49678"/>
<path d="M787.801 411.886V361.6L796.029 356.114L816.715 381.371L826.772 376.114V389.6L787.801 411.886Z" fill="#F8B79E"/>
<path d="M1007.46 472V491.429C1007.46 494.4 1011.69 496.571 1016.83 496.571C1021.97 496.571 1026.2 494.171 1026.2 491.429V472H1007.46Z" fill="#A7A9AC"/>
<path d="M1026.09 471.999C1026.09 474.971 1021.86 477.142 1016.72 477.142C1011.57 477.142 1007.34 474.742 1007.34 471.999C1007.34 469.028 1011.57 466.856 1016.72 466.856C1021.86 466.856 1026.09 469.142 1026.09 471.999Z" fill="#EEE2D6"/>
<path d="M1024.72 472C1024.72 473.486 1022.89 474.972 1020.49 475.657C1019.92 475.886 1019.34 476 1018.66 476C1018.43 476 1018.32 476 1018.32 476C1017.74 476 1017.4 476 1016.83 476H1016.72C1016.03 476 1015.46 476 1014.66 475.772C1014.43 475.772 1014.09 475.772 1013.97 475.543C1013.06 475.314 1012.37 475.2 1011.57 474.857C1009.97 474.172 1008.83 473.029 1008.83 471.772C1008.83 470.857 1009.4 470.172 1010.09 469.6C1010.66 469.257 1011.23 468.914 1011.92 468.457C1012.6 468.114 1013.4 467.886 1014.32 467.772C1015 467.543 1015.57 467.543 1016.37 467.543H1016.72C1017.06 467.543 1017.4 467.543 1017.86 467.543C1018.54 467.543 1019.12 467.772 1019.92 467.886C1020.14 467.886 1020.49 468.114 1020.6 468.114C1021.29 468.343 1021.86 468.457 1022.43 468.8C1023.92 469.829 1024.72 470.972 1024.72 472Z" fill="#D1D3D4"/>
<path d="M1025.17 459.771C1025.17 459.771 1025.17 460 1025.17 460.114L1022.43 469.257L1020.37 475.657C1019.8 475.885 1019.23 476 1018.54 476C1018.32 476 1018.2 476 1018.2 476L1019.12 473.257L1020.6 468.457L1023.34 459.542C1023.57 458.971 1024.03 458.628 1024.6 458.857C1024.83 458.857 1025.17 459.314 1025.17 459.771Z" fill="#623B2A"/>
<path d="M1016.6 476.114C1015.91 476.114 1015.11 476.114 1014.54 475.886L1014.2 468L1013.86 456.343C1013.86 455.772 1014.2 455.2 1014.77 455.2C1015.34 455.2 1015.69 455.543 1015.91 456.114L1016.26 467.657L1016.6 475.314V476.114Z" fill="#623B2A"/>
<path d="M1013.86 475.885C1012.94 475.657 1012.26 475.542 1011.46 475.2L1009.97 469.942L1007 459.314C1006.77 458.742 1007.23 458.171 1007.69 458.057H1007.91C1008.26 458.057 1008.83 458.399 1008.83 458.742L1011.57 468.8L1013.86 475.885Z" fill="#F17757"/>
<path d="M1020.6 463.771C1020.6 463.771 1020.6 463.999 1020.6 463.771L1019.91 468.114L1019.23 473.028L1018.89 475.771C1018.66 475.771 1018.54 475.771 1018.54 475.771C1017.97 475.771 1017.63 475.771 1017.06 475.771H1016.71V475.199L1017.86 467.542L1018.54 463.314C1018.77 462.742 1019.11 462.399 1019.69 462.399C1020.26 462.857 1020.6 463.314 1020.6 463.771Z" fill="#F17757"/>
<path d="M906.542 409.371L900.828 413.028C900.828 413.028 895.114 413.942 891.914 414.514C888.714 415.085 886.657 416.571 884.371 420.914C882.2 425.257 880.371 428.228 882.771 430.057C885.171 431.885 887.343 431.314 890.657 430.057C893.971 428.571 897.4 425.257 897.4 425.257C897.4 425.257 899.914 425.257 903.571 424.342C907.228 423.428 907.457 421.599 907.457 421.599L912.943 418.514C915.685 415.199 909.285 406.399 906.542 409.371Z" fill="#FFC9B6"/>
<path d="M955.344 386.857C955.344 386.857 952.029 358.857 952.372 350.171C952.715 341.486 953.858 340.114 953.858 340.114C953.858 340.114 951.686 344.686 950.772 353.257C950.086 361.829 953.286 389.943 953.286 389.943L955.344 386.857Z" fill="#F17757"/>
<path d="M952.029 426.057L990.429 401.715C990.429 401.715 1000.83 360.457 1007.57 356.229C1014.32 352 1020.94 351.086 1021.29 362.629C1021.52 368.686 1020.14 376.915 1016.49 389.715C1013.97 399.2 1011.69 408.686 1008.83 413.143C1003.92 420.457 960.715 441.143 960.715 441.143C955.344 444.229 946.429 429.257 952.029 426.057Z" fill="url(#paint12_linear)"/>
<path d="M951.915 429.257L945.744 432C945.744 432 939.915 432 936.601 432C933.287 432 931.115 433.143 928.144 437.143C925.401 441.143 923.001 443.771 925.172 445.943C927.344 448.114 929.401 448 932.829 447.085C936.258 446.171 940.144 443.428 940.144 443.428C940.144 443.428 942.658 444 946.544 443.428C950.429 442.857 950.887 441.257 950.887 441.257L956.944 438.857C960.144 436.457 955.001 426.971 951.915 429.257Z" fill="#FFC9B6"/>
<path d="M910.773 465.6L907.344 467.657L853.858 437.372C852.03 436.229 850.544 434.629 849.973 432.572L837.516 392.343L838.658 391.2C839.573 390.286 840.83 390.057 841.973 390.857L895.687 421.6C896.83 422.172 897.516 423.2 897.858 424.343L910.773 465.6Z" fill="#58595B"/>
<path d="M907.229 467.429L853.743 437.143C851.915 436 850.429 434.4 849.858 432.343L837.4 392.114L892.029 423.2C893.172 423.771 893.858 424.8 894.2 425.943L907.229 467.429Z" fill="#808285"/>
<path d="M971.001 345.257L962.544 350.171C962.544 350.171 959.458 340.8 963.686 333.485C963.686 333.485 965.744 335.085 967.686 335.314C967.801 335.314 967.344 342.171 971.001 345.257Z" fill="#E3F6FD"/>
<path d="M633.172 208C633.172 208 625.858 208 619.229 214.171C613.743 219.429 611.343 228.114 613.058 235.2C614.658 242.286 607.8 241.829 607.343 253.6C606.886 265.371 612.829 265.829 606.658 270.629C599.686 275.886 605.058 284.914 605.058 284.914L659.343 269.714C659.343 269.714 663 266.057 661.515 257.829C660.029 249.6 654.543 247.2 656.029 240.343C657.515 233.257 655.686 222.4 655.686 222.4L633.172 208Z" fill="#2C2A29"/>
<path d="M655.686 263.771C655.686 263.771 661.743 263.543 665.971 271.428C670.086 279.314 681.971 296.228 681.971 296.228L692.6 266.971C693.857 262.971 707.571 267.428 706.314 271.428C706.314 271.428 695.8 318.285 689.057 323.428C682.314 328.457 657.514 304.228 658.771 305.828C659.8 307.085 655.686 263.771 655.686 263.771Z" fill="#E2E3E8"/>
<path d="M694.428 266.743L696.257 262.743C696.257 262.743 694.771 257.257 695.114 253.6C695.228 249.714 695.114 244.8 696.142 245.6C697.285 246.286 697.628 251.657 698.428 252.571C699.114 253.486 705.857 250.286 706.657 245.943C707.571 241.6 707.685 238.628 709.171 241.028C710.885 243.428 713.743 250.743 711.685 256.228C709.514 261.714 704.942 265.257 704.828 266.171C704.6 267.086 703.914 270.171 703.914 270.171C703.228 272.457 693.628 269.257 694.428 266.743Z" fill="#FFBBA9"/>
<path d="M639 541.714L640.829 540.8L642.886 526.857L638.543 525.257L639 541.714Z" fill="url(#paint13_linear)"/>
<path d="M637.172 540.8L639 541.714L640.143 527.771C640.143 527.771 643.457 529.028 647.686 536.914C651.914 544.571 661.972 547.657 668.714 545.486C674.886 543.428 670.314 541.143 663.914 533.257C663.343 532.571 662.772 531.771 662.086 531.086C654.772 521.6 651.8 514.857 651.8 514.857C651.8 514.857 651.457 514.514 650.657 513.714C647.914 510.971 640.371 504.571 638.771 512.571C637.057 522.514 637.172 540.8 637.172 540.8Z" fill="url(#paint14_linear)"/>
<path d="M643.914 518.971C647.571 520.571 651.457 526.857 654.657 530.857C657.971 534.742 663.8 533.257 663.8 533.257C663.228 532.571 662.657 531.771 661.971 531.085C654.657 521.6 651.686 514.857 651.686 514.857C651.686 514.857 651.343 514.514 650.543 513.714C646.886 515.2 641.628 518.057 643.914 518.971Z" fill="url(#paint15_linear)"/>
<path d="M663.343 417.942C663.343 417.942 663.115 430.171 659.343 451.2C655.458 472.228 651.458 506.057 652.029 515.657C652.029 522.285 639 519.999 639 513.485C639 513.485 637.4 493.257 637.4 472C637.4 450.742 641.972 429.371 641.972 429.371L663.343 417.942Z" fill="url(#paint16_linear)"/>
<path d="M663.114 339.429C663.114 339.429 673.171 363.886 665.628 419.657C659.914 460.8 658.086 456.572 653.171 511.2L637.857 510.629C637.857 510.629 632.943 483.2 637.171 453.6C641.171 424 631.914 372.686 631.914 372.686C631.914 372.686 644.714 342.4 646.2 342.743C648.028 343.086 663.114 339.429 663.114 339.429Z" fill="url(#paint17_linear)"/>
<path d="M608.371 544.571H610.2L611.457 536.343C611.457 536.343 612.371 556.457 617.857 560.686C620.028 562.286 622.771 563.2 625.171 562.743C628.828 562.171 629.171 560 629.4 551.543C629.4 549.486 629.4 547.314 629.171 545.371C628.257 534.057 625.171 521.6 625.171 521.6C625.171 521.6 624.828 521.257 624.028 520.457C621.514 518.286 615.228 513.714 612.485 521.6C609.057 531.657 608.371 544.571 608.371 544.571Z" fill="url(#paint18_linear)"/>
<path d="M612.486 521.943C612.486 521.943 613.172 522.171 613.972 524C614.886 525.828 614.658 541.371 617.972 545.143C624.715 552.8 628.601 545.714 629.172 545.371C628.258 534.057 625.172 521.6 625.172 521.6C625.172 521.6 624.829 521.257 624.029 520.457L612.486 521.943Z" fill="url(#paint19_linear)"/>
<path d="M638.085 425.257C638.085 425.257 636.599 440.114 628.942 468.343C624.028 486.285 625.285 521.485 625.285 521.485C625.285 525.371 612.714 525.371 612.714 521.485C612.714 521.485 608.371 505.028 607.571 483.428C606.885 461.828 613.056 442.171 613.628 429.485L638.085 425.257Z" fill="url(#paint20_linear)"/>
<path d="M651.229 343.771C651.229 343.771 643.915 411.771 636.829 442.057C629.744 472.571 626.201 499.2 625.858 515.886C625.858 520.686 609.629 520.686 609.629 515.886C609.629 515.886 602.544 478.743 607.801 453.371C613.058 428 611.458 417.029 609.286 393.943C607.115 370.971 609.629 357.6 620.029 345.371L651.229 343.771Z" fill="url(#paint21_linear)"/>
<path d="M602.314 285.143C602.314 285.143 604.829 292.114 609.4 300C609.972 300.914 610.543 301.828 611 302.743C616.486 311.886 620.143 345.486 620.143 345.486C628.372 347.886 635.114 348.571 640.829 348.457C657.286 347.886 663.114 339.543 663.114 339.543C663.114 339.543 661.515 324 664.6 314.171C665.286 312.114 666.086 310.286 667.114 309.028C668.6 307.428 669.629 305.714 670.429 304.228C673.172 298.971 671.914 294.4 667.114 284.914C661.057 272.686 656.372 263.886 656.372 263.886H640.829C640.829 263.886 633.743 259.886 622.429 266.971C611.457 273.828 602.314 285.143 602.314 285.143Z" fill="url(#paint22_linear)"/>
<path d="M609.4 300.228C609.972 301.143 610.543 302.057 611 302.971C616.486 312.114 620.143 345.714 620.143 345.714C628.372 348.114 635.115 348.8 640.829 348.686C654.315 342.514 650.886 331.2 652.372 322.057C653.515 314.743 660.029 314.743 664.829 314.4C665.515 312.343 666.315 310.514 667.343 309.257C668.829 307.657 669.858 305.943 670.658 304.457C669.058 306.514 666.086 307.2 662.429 308.343C657.172 309.828 652.715 307.2 643.572 311.314C634.429 315.314 627.458 310.743 624.715 304.571C622.2 298.514 615.8 292.343 615.8 292.343L609.4 300.228Z" fill="#F17757"/>
<path d="M665.744 321.143L668.716 320.228C668.716 320.228 672.716 316.914 673.63 316.228C674.544 315.543 690.658 312.228 691.687 313.143C692.83 314.286 688.258 321.714 685.858 324.457C683.458 327.2 675.458 328.343 673.973 328.343C672.487 328.343 671.23 328.571 671.23 328.571L667.23 330.4L665.744 321.143Z" fill="#FFBBA9"/>
<path d="M617.057 342.285C624.943 347.771 668.029 332.228 668.029 332.228C669.286 331.885 669.629 329.828 669.515 327.657C669.172 324 667.343 319.771 665.172 320.343L627.343 324.228L623.457 304.457C619.572 292.343 609.057 285.143 604.143 284.914C603 284.914 602.315 285.143 601.972 285.828C599.8 289.143 609.057 336.8 617.057 342.285Z" fill="#F0F3F7"/>
<path d="M623.914 266.857C630.085 271.2 636.371 275.428 640.943 276.571C640.943 276.571 642.771 275.086 643.114 273.143C644.028 269.828 643.114 265.6 643.114 265.6V261.371L623.914 252.571C625.171 257.714 624.828 262.286 623.914 266.857Z" fill="#FFBBA9"/>
<path d="M623.914 252.571C624.257 253.828 630.085 273.943 643.114 272.8C644.028 269.486 643.114 265.257 643.114 265.257V261.028L623.914 252.571Z" fill="#FD958D"/>
<path d="M655.457 229.715C655.457 229.715 656.142 237.6 653.628 249.829C651.114 262.057 648.371 263.315 643.228 262.857C629.742 261.257 623.914 252.572 623.914 252.572C623.914 252.572 622.314 252.572 619.571 249.486C618.428 248.229 617.4 245.6 616.828 243.772V226.629L655.457 229.715Z" fill="#FFBBA9"/>
<path d="M640.828 276.572L637.399 276.229L633.171 282.629C633.171 282.629 622.199 273.829 621.514 267.086C622.085 265.486 622.771 263.772 624.485 262.515C628.599 268.458 633.856 273.258 640.828 276.572Z" fill="url(#paint23_linear)"/>
<path d="M640.828 276.572C640.828 276.572 643.8 272.572 643.228 262.857L645.285 263.086C645.285 263.086 650.428 268.343 648.6 278.4L644.028 275.315L640.828 276.572Z" fill="url(#paint24_linear)"/>
<path d="M654.887 241.943L655.458 228.914C655.458 228.914 651.458 238.629 642.429 238.4C633.515 238.171 633.515 237.257 629.629 242.629C625.744 247.886 618.087 245.714 618.087 245.714C618.087 245.714 618.429 251.429 623.344 252.686C623.344 252.686 616.372 252.114 614.772 242.4C613.172 232.571 611.687 223.086 618.087 218.857C624.487 214.514 623.229 210.286 630.658 208.229C635.001 207.086 640.715 209.371 644.372 211.543C648.029 213.714 654.658 214.857 657.515 222.286C661.172 229.714 657.63 237.371 654.887 241.943Z" fill="#2C2A29"/>
<path d="M557.742 439.886C554.885 439.886 549.97 443.086 547.113 448.229C542.313 456.229 538.428 485.829 538.428 485.829L514.656 498.4C514.656 498.4 518.885 501.6 519.456 508.686C526.199 509.029 540.37 507.086 545.17 504.8C549.628 502.514 566.428 453.029 566.428 453.029L557.742 439.886Z" fill="#623B2A"/>
<path d="M593.056 692.457C590.771 685.028 591.457 674.743 592.371 664.8C587.914 667.086 582.771 669.028 577.514 669.943C580.371 680.571 583.571 689.257 583.571 691.2C583.571 693.485 581.971 695.657 583.571 699.885C584.828 703.771 584.828 708.571 584.485 715.657C584.142 728.228 586.085 732.686 595.456 730.743C601.285 729.486 602.199 724 599.342 713.028C597.971 706.628 595.342 699.543 593.056 692.457Z" fill="#FFC9B6"/>
<path d="M548.713 652.571C544.828 652.571 540.028 650.971 535.799 649.028C535.799 651.314 535.456 653.828 535.456 656.114C534.199 670.971 535.799 673.828 527.456 678.628C520.028 683.085 519.114 684.457 515.228 689.257C512.599 692.8 516.828 694.743 520.371 694.4C528.142 693.485 535.228 686.057 539.342 685.028C543.571 683.771 549.285 682.4 548.713 677.943C548.028 673.143 547.113 673.143 546.428 668.914C546.085 665.143 547.113 658.971 548.713 652.571Z" fill="#FFC9B6"/>
<path d="M570.542 535.086L538.085 528.686C538.085 528.686 535.799 544.457 531.685 560.571C527.457 576.686 529.057 593.028 530.999 601.714C532.257 608.8 534.199 619.086 534.542 625.828C535.228 636.457 532.942 671.543 532.942 671.543C532.942 671.543 537.399 674.743 541.285 674.743C546.085 674.743 548.371 671.543 548.371 671.543C548.371 671.543 549.057 662.171 551.571 650.971C554.199 640 557.628 632.343 557.628 625.828C557.971 616.8 557.285 613.943 554.999 606.171C558.199 600.114 565.628 583.657 566.885 564C568.599 549.257 570.542 535.086 570.542 535.086Z" fill="url(#paint25_linear)"/>
<path d="M632.943 473.371C632.943 471.085 632.029 468.914 630.657 466.628C629.4 464.685 627.8 462.742 626.2 461.142C623 457.6 618.772 454.4 621.743 448.914C622.657 447.314 624.6 446.057 625.971 444.685C627.229 443.085 627.914 441.485 628.257 439.542C628.943 436 628.257 432.457 626.314 429.6C623.686 425.371 619.229 424.8 615.343 422.171C613.057 420.914 611.457 417.714 611.457 415.085C611.457 413.828 613.057 412.228 613.4 410.628C613.743 409.371 614.086 407.771 613.743 406.4C613.4 403.2 611.114 400.342 608.6 398.971C606.314 397.714 603.8 398.057 601.514 398.057C598.657 398.057 595.457 398.057 593.514 396.457C591.229 394.857 590.657 392.914 587.686 392.228C583.229 390.971 578.314 392.914 575.8 396.685C572.6 401.142 572.6 406.971 574.886 411.771C575.8 414.4 578.772 417.6 581.972 419.771C585.514 422.4 586.772 424 587.457 428.457C587.8 430.742 587.8 434.514 589.4 437.142C590.314 440.685 592.257 443.885 595.229 446.171C597.172 447.428 599.457 448.114 601.286 449.371C605.172 451.657 605.172 455.771 604.486 459.657C604.143 460.571 602.543 462.857 603.229 465.485C604.143 469.028 609.057 467.085 609.629 471.885C610.314 477.942 601.857 482.171 605.172 488.914C607.457 494.057 614.2 494.742 619 493.371C627.8 491.657 634.543 482.057 632.943 473.371Z" fill="url(#paint26_linear)"/>
<path d="M589.858 409.028C588.943 407.771 587.572 407.428 586.315 407.771C586.658 406.514 586.315 405.143 585.4 404.228C584.486 403.314 583.115 403.543 581.858 403.886C581.858 403.886 581.515 403.886 581.515 404.228C581.515 403.543 581.172 402.628 580.829 401.943C580.143 401.028 578.886 400.343 577.629 400.686C575 401.371 573.743 405.828 574.429 408.457C574.429 408.8 574.772 408.8 574.772 408.8C575.686 412.343 578.315 414.857 581.172 417.143C582.086 417.828 583.115 418.743 584.372 418.743C585.629 418.743 587 417.486 587.915 416.457C589.286 414.514 591.458 411.314 589.858 409.028Z" fill="white"/>
<path d="M546.428 486.514C547.114 489.142 546.085 501.371 545.742 502.971C544.142 510.399 542.542 517.485 540.6 523.885C542.542 526.171 546.428 529.942 547 530.285C552.828 534.514 559.571 536.342 567 535.428C574.085 534.514 580.828 531.542 585.971 526.742C586.314 526.399 586.657 526.057 586.885 525.828C583.685 520.685 580.485 515.885 578.2 510.399C576.942 504.914 578.885 500.457 583 495.542C586.2 491.657 589.4 488.457 591 483.657C592.942 478.514 594.2 466.285 588.371 461.828C584.142 458.628 578.428 455.428 573.285 453.142C569.057 451.199 560.714 444.114 558.428 445.714C555.8 447.657 552.028 452.799 549.742 455.314C547.457 458.514 543.685 462.742 541.742 466.285C539.342 471.085 543.571 486.514 546.428 486.514Z" fill="#EDDCDA"/>
<path d="M592.714 540.914C585.286 529.943 555.114 538.286 555.114 538.286C555.114 538.286 554.657 556.914 560.257 568.229C561.514 575.314 567.343 607.2 572.829 622.286C569.629 627.086 570.543 635.771 571.229 643.2C572.143 654.171 577.057 668.343 578.314 675.657C579.914 683.086 582.2 689.486 582.2 689.486C582.2 689.486 587 692.343 590.2 691.428C593.4 690.514 593.743 688.8 593.743 688.8C593.743 688.8 594.657 642.743 593.057 626.4C593.057 620 595 600.343 596.257 591.314C598.2 580.228 600.143 551.886 592.714 540.914Z" fill="url(#paint27_linear)"/>
<path d="M544.829 499.771C543.915 509.371 538.772 519.771 533.857 531.314C541.286 545.828 564.715 552.914 578.886 549.6C585.286 548.342 591.115 545.714 596.6 542.171C595.686 539.542 595 536.685 593.972 534.171C590.772 524.8 584.6 515.885 584.372 512C583.115 501.371 597.515 477.257 595.915 471.085C593.286 462.057 589.743 460.114 584.372 456.571C582.772 455.657 576.029 465.943 564.143 471.657C559.343 473.943 554.2 485.143 547.686 484.571C547 467.885 555.457 451.771 564.715 446.971C561.515 446.057 560.257 445.371 560.257 445.371C560.257 445.371 549.286 454.057 545.172 460.457C540.943 466.857 538.772 471.085 540.372 477.143C540.943 481.371 545.515 493.6 544.829 499.771Z" fill="url(#paint28_linear)"/>
<path d="M579.914 437.371C579.914 436.685 572.142 438.971 568.371 439.314C568.371 439.314 568.371 438.971 568.028 438.971C568.028 438.628 567.685 438.971 567.685 438.971C567.342 442.856 567.685 446.056 565.399 449.256C564.142 450.856 562.199 453.142 559.914 456.685C557.971 459.885 558.999 459.314 561.171 461.142C565.056 463.999 575.342 463.085 582.085 456.685C581.399 455.771 579.799 454.399 579.456 452.228C578.885 449.599 579.914 443.085 579.914 437.371Z" fill="#FFB9A4"/>
<path d="M565.401 449.6C565.401 449.6 562.201 456.685 561.858 460.571C567.344 459.314 577.972 456.114 577.972 456.114L562.544 471.885C562.544 471.885 560.601 465.142 560.944 462.514C557.058 464.114 552.258 464.114 552.258 464.114C552.258 464.114 560.601 449.828 565.401 449.6Z" fill="white"/>
<path d="M561.514 443.428C561.514 443.428 554.428 448.571 551.228 452.113C546.428 457.599 542.885 463.999 542.885 463.999L548.028 469.485L542.199 472.685C542.199 472.685 543.114 481.713 544.142 484.571C545.056 488.799 548.942 493.942 548.942 493.942C548.942 493.942 550.199 475.656 550.885 471.085C551.799 464.685 557.285 456.913 563.799 450.171C564.828 448.913 561.514 443.428 561.514 443.428Z" fill="#623B2A"/>
<path d="M552.258 427.657C552.258 423.2 552.944 417.028 556.144 413.485C559.344 409.943 565.515 409.257 569.972 409.257C577.058 409.257 582.543 416.685 581.858 425.943C581.172 434.285 576.372 447.771 567.343 450.057C557.058 453.028 552.258 434.743 552.258 427.657Z" fill="#FFC9B6"/>
<path d="M540.599 417.028C541.514 415.086 543.228 414.4 544.828 414.171C543.228 412.571 542.542 409.943 544.142 407.771C546.085 405.143 549.971 405.486 551.914 407.771C556.371 404.914 561.856 404.228 567.342 404.571C569.971 404.914 573.171 404.914 575.342 405.828C576.256 406.171 578.885 409.714 578.885 409.714C579.228 409.714 579.228 409.714 579.571 410.057H579.914C592.485 410.4 587.685 431.314 580.256 439.657C578.314 437.371 577.971 436.114 576.028 432.228C575.342 430.628 574.085 426.743 573.171 425.486C570.885 427.428 565.742 427.771 561.628 427.771C560.371 428.457 558.771 429.028 557.399 429.371C552.256 430.971 546.771 430.286 542.885 426.514C540.599 424.114 539.342 420.228 540.599 417.028Z" fill="url(#paint29_linear)"/>
<path d="M573.514 429.599C573.514 429.599 576.142 424.456 578.657 427.313C580.942 430.171 579.342 436.685 576.714 436.685C573.742 436.685 573.514 429.599 573.514 429.599Z" fill="#FFC9B6"/>
<path d="M548.029 674.742C548.029 674.742 545.743 677.599 545.172 679.542C541.629 681.485 537.743 682.742 533.286 685.714C528.829 688.571 525.858 690.514 522.658 688.342C519.458 686.056 519.115 684.799 519.115 684.799C519.115 684.799 513.972 687.999 512.715 689.942C511.458 692.228 515.572 697.714 522.658 697.028C529.743 696.342 532.601 691.885 536.829 689.028C541.058 686.171 544.601 685.142 548.143 682.971C551.229 680.228 548.029 674.742 548.029 674.742Z" fill="#F9744B"/>
<path d="M584.715 715.657C584.715 715.657 587 721.714 589.172 723.086C592.029 724.686 596.6 724.686 598.543 721.829C599.8 719.543 600.143 716.343 600.143 716.343C600.143 716.343 606.543 732.457 592.372 733.029C582.2 733.6 584.715 715.657 584.715 715.657Z" fill="#F9744B"/>
<path d="M579.571 450.514C579.571 450.514 578.885 453.142 576.943 455.657C573.4 459.542 567.342 464.685 562.085 469.485C556.257 474.628 548.6 486.514 548.6 486.514L548.942 492.914C548.942 492.914 562.085 483.542 567.914 480.685C567.228 477.485 564.714 471.657 564.714 471.657L574.657 475.199L585.971 458.171C585.971 458.171 585.628 455.542 583.342 452.685C583.114 452.114 579.571 450.514 579.571 450.514Z" fill="#623B2A"/>
<path d="M527.8 490.742L525.857 491.999L541.286 527.999L543.229 527.085L527.8 490.742Z" fill="#CCBCBC"/>
<path d="M499.113 476.571L501.056 475.313L527.799 490.742L525.856 491.999L499.113 476.571Z" fill="#EDDCDA"/>
<path d="M514.313 520L546.199 538.286L527.913 494.857L496.027 476.8L514.313 520Z" fill="#F17757"/>
<path d="M529.971 493.6L527.686 494.857L545.971 538.285L548.257 536.685L529.971 493.6Z" fill="#E04E39"/>
<path d="M495.914 476.913L498.543 475.313L530.086 493.599L527.8 494.856L495.914 476.913Z" fill="#F49678"/>
<path d="M543.914 519.999C542.657 518.742 542.314 517.142 540.714 514.171C539.114 511.314 538.085 510.285 537.857 511.542C537.171 513.142 539.114 516.342 538.2 517.599C537.857 518.285 534.314 518.856 532.143 518.285C529.857 517.599 527 515.428 525.057 515.656C521.857 516.342 524.371 519.542 526.657 522.056C530.885 526.285 538.2 525.942 542.086 527.199C545.971 528.456 555.228 528.456 555.228 528.456C555.228 528.456 555.914 522.056 553.628 519.085C550.314 519.314 545.743 519.999 543.914 519.999Z" fill="#FFC9B6"/>
<path d="M588.943 460.457C590.2 461.143 593.743 464 596.028 467.886C599.228 473.943 598.886 482.628 596.943 493.943C595.343 503.314 593.4 521.6 586.314 527.086C575.686 528.686 548.371 529.371 548.371 529.371C548.371 529.371 546.771 521.943 548.371 518.743C551 518.057 567.343 515.2 576.371 515.543C576.714 507.771 577.057 500.457 577.057 490.4C577.286 480.8 576.714 472.343 588.943 460.457Z" fill="#623B2A"/>
<path d="M550.314 496.799C550.657 497.485 550.314 498.399 549.628 498.399C548.942 498.399 548.371 498.056 548.371 497.142C548.028 496.456 548.371 495.542 549.057 495.542C549.285 495.542 549.971 495.885 550.314 496.799Z" fill="white"/>
<path d="M547.115 516.799C547.115 517.714 546.429 518.399 545.858 518.399C545.172 518.399 544.943 517.714 544.943 516.799C544.943 515.885 545.629 515.199 546.201 515.199C546.772 515.199 547.343 515.771 547.115 516.799Z" fill="white"/>
<path d="M563.342 478.057L566.999 480.114L569.056 476.457L565.399 474.399L563.342 478.057Z" fill="#EDDCDA"/>
<path d="M556.029 481.371L567.686 488.114L572.144 480.342L560.486 473.6L556.029 481.371Z" fill="white"/>
<path d="M397.629 680.8C398.886 677.257 403.115 666.286 404.715 662.514C405.629 660.229 414.086 659.314 414.086 659.314C414.086 660.572 414.086 664.114 414.086 665.143C414.086 666.743 414.086 669.943 411.801 671.886C411.801 674.743 410.543 678.629 408.601 683.429C406.315 688.572 402.543 690.857 399.572 690.172C396.029 689.486 395.686 686.286 397.629 680.8Z" fill="#F17757"/>
<path d="M454.544 595.657C453.629 593.029 456.372 582.172 458.315 572.457C460.601 559.314 460.258 538.972 455.115 529.714C453.515 526.857 449.629 521.372 446.772 519.086C438.429 525.829 409.744 524.914 409.744 524.914C404.258 531.314 403.458 533.6 402.544 538.743C398.201 555.886 399.001 568 402.201 577.029C403.686 588.8 404.715 595.657 403.686 602.743C402.886 609.943 402.658 617.943 401.629 625.029C399.344 638.172 403.572 651.429 403.572 665.6C407.115 668.8 409.972 667.886 412.944 665.6C412.944 665.6 418.315 639.886 419.001 627.657C419.344 622.172 420.715 606.057 421.286 602.857C422.886 593.486 424.829 591.543 427.686 580.686C430.544 568.8 432.144 559.772 432.144 559.429C435.001 577.143 435.801 584.229 436.029 592.914C436.029 596.114 433.744 605.829 436.715 614.172C440.258 624.114 439.915 632.8 443.115 642.172C445.972 645.372 452.144 644.114 452.715 641.257C452.601 630.743 454.544 611.086 454.544 595.657Z" fill="#382323"/>
<path d="M377.972 671.886C377.972 671.886 377.629 675.429 376.372 678.972C375.458 682.514 376.715 687.657 376.715 687.657C376.715 687.657 377.401 689.943 380.944 690.515C384.144 691.2 386.772 690.515 386.772 690.515C386.772 690.515 389.972 694.4 393.858 697.257C398.087 700.114 407.001 702.4 409.287 702.057C413.172 701.372 415.344 698.514 415.115 696.229C414.772 694.286 410.315 688.8 406.429 686.286C403.801 684.686 398.429 679.543 396.829 677.6C393.972 674.743 392.029 671.2 392.029 671.2L377.972 671.886Z" fill="#2C2A29"/>
<path d="M372.487 515.2C372.487 515.2 384.03 544.457 385.63 556.114C387.573 568 391.116 585.714 393.059 600.572C395.345 615.429 395.345 629.829 393.973 644.343C393.63 650.172 391.345 665.257 392.716 673.257C391.459 678.743 378.887 679.314 377.63 672.914C376.716 669.029 367.002 634.972 366.087 624.343C365.173 613.714 367.687 606.057 367.687 606.057C367.687 606.057 352.259 573.257 346.773 560C341.287 546.857 345.173 530.743 345.173 530.743L372.487 515.2Z" fill="url(#paint30_linear)"/>
<path d="M319.343 701.714C319.343 701.714 317.057 709.485 317.4 713.942C317.743 718.4 318.657 719.428 320.029 721.028C321.286 722.628 322.886 721.942 322.886 721.942C322.886 721.942 323.572 731.314 328.029 735.085C332.486 738.971 340.6 739.314 344.143 737.942C347.686 736.685 345.4 729.942 341.857 723.428C338.315 717.028 333.515 709.942 332.486 703.771C323.915 702.742 319.343 701.714 319.343 701.714Z" fill="#2C2A29"/>
<path d="M331.573 527.085C331.573 527.085 326.087 535.085 321.63 548.914C318.43 558.514 319.001 582.056 319.001 582.056C319.001 582.056 318.087 605.257 319.687 613.257C321.287 621.257 320.944 622.856 320.944 622.856C320.944 622.856 314.544 642.171 315.459 664.685C316.373 687.199 318.316 703.656 318.316 703.656C318.316 703.656 319.573 707.885 325.401 708.456C330.544 709.142 334.773 705.256 334.773 705.256C334.773 705.256 344.373 657.371 347.916 646.399C351.459 635.428 352.716 622.856 352.716 622.856L360.144 568.799C360.144 568.799 364.601 560.799 367.23 535.314C362.773 520.571 331.573 527.085 331.573 527.085Z" fill="url(#paint31_linear)"/>
<path d="M434.201 459.657C434.201 459.657 437.972 462.4 436.829 469.257C435.572 476 434.886 492.114 434.886 492.114L455.344 479.2C458.086 477.372 464.372 486.629 461.629 488.457C461.629 488.457 432.829 512.229 426.201 512.114C419.686 512 416.029 485.257 416.029 486.972C416.029 488.114 434.201 459.657 434.201 459.657Z" fill="#E2E3E8"/>
<path d="M456.601 479.886L459.573 478.286C459.573 478.286 461.287 474.171 463.23 472.114C465.173 469.828 467.344 466.743 467.687 467.657C468.03 468.571 465.744 472.114 465.744 473.028C465.744 473.943 471.344 475.2 473.973 472.914C476.601 470.628 478.087 468.914 477.858 471.086C477.744 473.371 476.144 479.2 472.144 481.6C468.144 483.886 463.687 483.886 463.23 484.343C462.658 484.8 460.716 486.4 460.716 486.4C459.23 487.657 454.773 481.028 456.601 479.886Z" fill="#FFBBA9"/>
<path d="M430.429 506.514C424.601 499.771 407.915 493.371 405.629 490.743C405.629 490.743 400.143 481.714 397.858 476.571C396.258 472.685 394.315 462.057 390.429 455.657C386.201 448.228 381.743 446.285 375.001 444.114C373.058 443.428 371.458 443.428 369.858 445.028C367.915 447.314 368.258 450.857 368.258 453.371C368.258 457.6 368.258 462.057 368.258 466.285C368.258 471.428 376.258 484 377.858 486.285C379.801 488.914 384.943 498.171 387.229 500.457C388.829 502.4 397.172 508.8 399.801 510.4C402.086 512 415.915 519.085 426.543 520.685C429.743 521.257 437.743 515.2 430.429 506.514Z" fill="url(#paint32_linear)"/>
<path d="M373.4 449.828C364.372 445.943 349.286 452.685 349.629 452.114C349.972 451.771 337.058 459.2 337.058 459.2C328.029 462.743 318.772 465.028 313.286 477.257C310.658 483.085 320.029 495.885 323.915 513.257C325.515 521.028 325.858 532.228 323.001 537.371C321.058 540.914 316.601 546.4 329.401 550.514C333.286 551.771 350.658 558.514 360.943 556.571C365.743 555.657 390.2 543.085 383.343 538.285C381.4 537.028 380.6 534.4 381.858 532.228C382.772 530.285 382.772 526.743 381.858 522.857C379.915 513.257 381.515 509.714 382.772 502.285C379.915 492.8 388.258 487.543 384.029 476.228C381.515 468.457 382.429 453.714 373.4 449.828Z" fill="#EDDCDA"/>
<path d="M337.059 459.2C337.059 459.2 343.116 463.429 347.344 468.8C351.573 474.286 355.116 479.429 359.916 482.629C364.373 485.829 369.516 480.343 371.801 471.314C374.087 462.286 363.116 447.543 363.116 447.543C363.116 447.543 342.887 454.286 337.059 459.2Z" fill="#CCBCBC"/>
<path d="M357.629 438.285C357.629 438.285 354.429 433.143 351.572 437.028C347.115 442.857 353.515 445.714 353.515 445.714L357.629 438.285Z" fill="#FFC9B6"/>
<path d="M374.429 451.086C374.429 451.086 371.229 454.629 369.629 455.315C371.915 458.172 376.029 457.257 377.057 454.4C376.029 452.686 374.429 451.086 374.429 451.086Z" fill="#FFC9B6"/>
<path d="M366.087 517.028C366.087 517.028 359.344 519.657 352.258 522.857C345.173 526.057 341.973 528.343 341.973 528.343C341.973 528.343 347.801 528.343 356.487 524.457C365.058 520.343 366.087 517.028 366.087 517.028Z" fill="#CCBCBC"/>
<path d="M369.858 501.6C369.858 501.6 356.029 507.428 349.629 510.628C342.886 513.828 340.029 516.685 340.029 516.685C340.029 516.685 346.772 515.428 357.401 511.2C368.029 507.771 369.858 501.6 369.858 501.6Z" fill="#CCBCBC"/>
<path d="M422.886 420C425.743 417.715 430.886 414.857 435.8 414.515C431.915 411.657 427.458 409.372 422.658 408.115C417.515 406.515 417.172 408.8 414.315 412C411.115 415.886 405.629 414.629 404.715 420.686C404.029 426.172 407.572 432.572 411.115 437.372C412.943 430.515 417.743 424.115 422.886 420Z" fill="#E04E39"/>
<path d="M440.944 412.228C435.459 408.686 426.087 410.286 420.716 413.143C412.03 417.943 400.716 434.743 407.23 445.6C413.287 456.228 428.487 451.657 435.23 444.914C438.087 442.057 440.716 438.514 442.316 434.628C444.716 431.543 450.201 418.057 440.944 412.228Z" fill="#F17757"/>
<path d="M452.83 639.656C454.773 641.942 457.058 644.114 458.887 646.399C461.744 649.256 464.944 652.456 467.916 655.085C471.458 658.285 471.801 662.171 465.973 661.828C456.373 661.142 454.087 657.371 449.516 653.828C448.83 653.485 447.916 654.513 445.287 653.485C442.087 652.228 441.744 651.885 441.744 648.685C441.744 646.742 442.087 642.628 443.001 640.685C442.544 640.342 449.973 636.799 452.83 639.656Z" fill="#F17757"/>
<path d="M414.201 467.886C416.487 469.829 418.43 471.086 421.287 472.114C424.487 473.029 428.03 473.372 429.973 470.514C430.887 469.257 431.23 467.657 431.573 466.286C430.658 465.943 429.973 465.029 429.63 464.343C429.287 463.086 430.316 460.8 430.316 459.543C430.658 457.6 431.001 455.657 431.23 453.714C428.373 452.114 426.087 450.172 422.887 449.486C421.287 449.143 418.658 444 417.058 443.429C417.973 447.657 416.716 453.714 416.373 456C415.687 458.857 415.458 460.229 413.516 462.743C413.858 462.743 413.516 467.2 414.201 467.886Z" fill="#FFB9A4"/>
<path d="M453.287 523.542C450.201 518.057 446.087 515.2 444.373 509.028C442.658 502.628 443.23 495.885 444.944 490.057C445.287 489.371 444.601 488.799 443.915 488.799C431.801 488.457 421.058 493.028 409.173 495.542C409.173 495.542 409.173 495.542 408.83 495.542C408.487 495.542 408.487 495.2 408.144 495.2C407.801 494.857 407.458 495.542 407.458 495.885C410.544 499.771 411.573 503.657 412.601 508.914C412.258 515.657 402.887 529.714 402.201 532.914C407.458 538.4 421.973 542.285 434.43 538.4C443.573 535.428 453.287 529.371 453.287 523.542Z" fill="#F17757"/>
<path d="M441.858 471.429C439.573 467.2 436.03 461.486 432.83 457.943C432.487 457.6 430.544 459.543 429.287 457.943C427.344 455.657 426.43 456 429.63 463.086C431.23 468.571 428.03 472.686 421.858 468.914C420.258 468 415.115 463.771 413.515 462.857C411.23 465.143 408.715 467.086 405.744 468.686C404.487 469.371 403.115 470.286 402.201 470.971C402.201 471.886 402.544 472.914 402.544 473.6C402.887 476.229 402.887 478.4 403.458 480.686C403.801 482.971 404.373 488.457 407.001 493.257C409.287 496.114 412.144 500.686 414.773 505.486C421.173 510.286 435.687 507.086 441.173 501.6C442.43 492.229 446.315 490.286 446.658 483.543C446.658 479.771 443.458 474.629 441.858 471.429Z" fill="#F17757"/>
<path d="M443.458 437.028C443.115 432.571 442.201 427.085 439.001 423.885C435.458 420.685 431.915 420.343 427.687 420.685C420.944 421.028 414.772 430.971 416.144 440C417.058 448 421.63 458.285 430.658 460C440.258 461.485 443.801 443.771 443.458 437.028Z" fill="#FFC9B6"/>
<path d="M453.743 426.057C452.829 424.457 451.115 423.771 449.515 423.771C450.772 422.171 451.457 419.542 449.515 417.714C447.229 415.085 444.029 416.114 442.086 418.399C432.143 414.514 422.086 419.657 416.943 426.171C414.657 429.028 411.457 436.799 412.143 443.542C413.743 447.085 414.772 448.342 416.943 450.628C418.543 448.342 418.886 447.085 420.486 443.199C421.172 441.599 422.086 437.714 422.772 436.457C425.057 438.057 430.2 438.057 434.086 437.714C435.343 438.399 436.943 438.628 438.315 438.971C443.457 440.228 448.6 439.314 452.143 435.085C454.086 432.799 455.343 428.914 453.743 426.057Z" fill="#382323"/>
<path d="M423.23 439.886C423.23 439.886 420.373 435.086 418.087 437.943C415.801 440.8 418.087 446.972 420.715 446.629C423.23 446.972 423.23 439.886 423.23 439.886Z" fill="#FFC9B6"/>
<path d="M422.543 497.828C422.543 497.828 427 492.685 433.514 489.485C439.914 486.285 443.8 485.942 443.8 485.942C443.8 485.942 437.057 492.342 433.514 494.285C429.972 496.571 422.543 497.828 422.543 497.828Z" fill="#E04E39"/>
<path d="M439 504.571C434.772 509.714 437.743 518.743 443.457 520.686C449.286 522.971 453.743 517.143 450.886 511.657C447.686 505.486 443.8 498.743 439 504.571Z" fill="#FFC9B6"/>
<path d="M336.373 459.314C336.373 459.314 347.001 473.486 350.201 492.8C353.401 512.114 350.201 532 350.201 546.172C350.201 560 351.802 587.657 351.802 587.657C351.802 587.657 338.887 589.943 329.287 588C319.002 585.714 312.83 578.4 312.83 578.4C312.83 578.4 318.887 546.514 323.459 526.972C325.401 518.286 320.259 498.972 316.716 488.686C314.773 482.286 313.516 473.943 318.659 468.114C322.544 463.429 331.23 461.829 336.373 459.314Z" fill="url(#paint33_linear)"/>
<path d="M325.172 464.343C325.172 464.343 312.029 466.286 306.887 479.428C301.744 492.343 305.629 497.714 302.658 506.4C300.029 515.086 301.058 517.028 300.372 524.114C299.687 531.2 302.315 530.514 304.829 532.8C307.115 534.4 305.515 537.257 322.201 545.028C332.829 549.828 348.258 549.828 348.258 549.828L347.572 538.286C347.572 538.286 344.029 536.343 336.601 529.257C327.915 521.486 319.915 520.571 319.915 520.571C319.915 520.571 326.315 509.028 330.887 500C335.115 490.4 328.372 469.828 325.172 464.343Z" fill="url(#paint34_linear)"/>
<path d="M343.802 535.085C343.802 535.085 339.573 533.828 337.059 539.314C335.459 543.542 336.373 547.085 337.973 548.685C340.259 548.685 343.802 549.371 345.973 551.314C351.116 555.199 357.516 562.628 362.087 564.799C368.83 567.999 370.43 563.885 371.116 559.657C371.802 555.771 368.259 552.571 365.287 550.285C362.087 547.657 360.144 545.828 361.059 544.799C361.744 544.457 365.516 546.057 368.144 544.799C370.773 543.542 369.744 541.599 365.287 541.257C363.002 540.914 362.087 539.657 357.516 538.971C354.316 538.628 353.059 540.228 352.03 539.657C349.287 537.942 345.744 536.342 343.802 535.085Z" fill="#FFC9B6"/>
<path d="M368.83 447.543C368.83 447.543 376.258 448.457 380.144 457.486C384.373 466.857 385.63 477.143 385.63 491.314C385.63 501.6 386.316 515.429 388.258 522.857C389.858 529.257 398.201 552.457 398.201 552.457C398.201 552.457 397.516 562.057 394.316 565.943C390.43 570.743 385.973 570.4 385.973 570.4C385.973 570.4 380.83 541.486 380.144 536.914C379.458 532.457 377.858 508.229 378.201 500.914C378.544 493.829 374.658 470.057 373.058 464.572C371.458 459.429 361.744 448.457 361.744 448.457L368.83 447.543Z" fill="url(#paint35_linear)"/>
<path d="M365.744 445.028C365.401 444.685 364.487 445.028 364.144 445.028C360.258 445.028 361.515 447.885 356.715 445.028C354.43 443.771 353.858 441.828 351.915 441.142C352.258 440.457 352.258 439.885 352.601 439.2C352.601 438.857 352.258 438.857 351.915 439.2C351.572 439.885 351.23 440.457 351.23 441.142C350.887 441.142 350.887 441.142 350.544 441.142C349.858 441.142 349.858 441.828 350.201 442.057L350.544 442.4C347.687 449.485 347.344 451.428 343.115 458.171C345.058 458.171 349.172 463.657 352.487 469.714C353.744 472.342 359.915 478.4 363.801 477.142C369.63 474.857 366.658 470.057 367.001 463.657C367.001 459.2 367.344 454.285 367.344 449.828C366.658 448.228 367.001 445.942 365.744 445.028Z" fill="#FFB9A4"/>
<path d="M377.628 426.972C372.828 420.914 361.857 419.543 355.114 423.772C353.514 424.457 351.914 425.029 350.886 426.057C346.428 429.943 347 437.029 348.257 442.172C350.2 449.943 361.4 467.886 371.8 461.143C377.286 457.6 380.828 448.572 381.743 442.514C382.086 436.914 381.171 431.543 377.628 426.972Z" fill="#FFC9B6"/>
<path d="M379.573 450.171C378.316 446.971 373.744 446.971 370.544 448.914C368.601 450.171 366.087 454.057 364.144 454.971C360.944 456.914 358.658 452.686 359.344 450.514C359.344 448.571 359.687 445.371 359.344 443.771C359.344 441.829 357.058 440.914 356.487 442.514C355.23 446.4 353.63 451.543 354.201 455.086C355.116 459.543 358.658 463.429 362.887 465.714C368.373 468.343 375.458 466.4 377.973 460.914C379.573 457.257 380.487 452.457 379.573 450.171Z" fill="#382323"/>
<path d="M384.715 415.428C381.172 410.971 372.486 405.143 366.658 408.343C364.715 409.257 363.458 411.543 363.801 413.828C358.315 412.914 348.029 416.457 345.743 421.257C341.515 429.257 344.486 443.428 348.372 447.657C352.258 444.114 358.315 437.028 359.915 430.285C366.315 433.485 375.001 433.828 381.515 429.943C386.315 426.971 388.601 420.571 384.715 415.428Z" fill="#382323"/>
<path d="M456.602 501.257L459.116 500.457C459.116 500.457 462.544 497.6 463.344 497.029C464.144 496.457 477.859 493.6 478.773 494.4C479.687 495.314 475.802 501.714 473.744 504.114C471.687 506.514 464.83 507.429 463.573 507.429C462.316 507.429 461.173 507.543 461.173 507.543L457.744 509.143L456.602 501.257Z" fill="#FFBBA9"/>
<path d="M415.115 519.314C421.857 523.999 458.772 510.742 458.772 510.742C459.915 510.399 460.143 508.685 460.029 506.857C459.686 503.771 458.2 500.114 456.257 500.571L423.915 503.885L420.6 486.971C417.286 476.685 408.257 470.399 404.029 470.285C403.115 470.285 402.429 470.399 402.2 471.085C400.257 473.828 408.257 514.628 415.115 519.314Z" fill="#F0F3F7"/>
</g>
<defs>
<linearGradient id="paint0_linear" x1="172.561" y1="614.43" x2="437.087" y2="63.7573" gradientUnits="userSpaceOnUse">
<stop stop-color="#ECE0D4"/>
<stop offset="1" stop-color="#FAEAD9"/>
</linearGradient>
<linearGradient id="paint1_linear" x1="109.761" y1="553.674" x2="104.07" y2="398.238" gradientUnits="userSpaceOnUse">
<stop offset="0.00505051" stop-color="#C39367"/>
<stop offset="1" stop-color="#704232"/>
</linearGradient>
<linearGradient id="paint2_linear" x1="82.552" y1="583.555" x2="75.7122" y2="408.374" gradientUnits="userSpaceOnUse">
<stop offset="0.00505051" stop-color="#C39367"/>
<stop offset="1" stop-color="#704232"/>
</linearGradient>
<linearGradient id="paint3_linear" x1="114.651" y1="452.418" x2="110.064" y2="334.711" gradientUnits="userSpaceOnUse">
<stop offset="0.00505051" stop-color="#C39367"/>
<stop offset="1" stop-color="#704232"/>
</linearGradient>
<linearGradient id="paint4_linear" x1="68.834" y1="464.092" x2="64.0799" y2="340.089" gradientUnits="userSpaceOnUse">
<stop offset="0.00505051" stop-color="#C39367"/>
<stop offset="1" stop-color="#704232"/>
</linearGradient>
<linearGradient id="paint5_linear" x1="245.916" y1="553.997" x2="240.226" y2="398.559" gradientUnits="userSpaceOnUse">
<stop offset="0.00505051" stop-color="#C39367"/>
<stop offset="1" stop-color="#704232"/>
</linearGradient>
<linearGradient id="paint6_linear" x1="275.139" y1="584.113" x2="268.301" y2="408.93" gradientUnits="userSpaceOnUse">
<stop offset="0.00505051" stop-color="#C39367"/>
<stop offset="1" stop-color="#704232"/>
</linearGradient>
<linearGradient id="paint7_linear" x1="259.833" y1="312.001" x2="265.817" y2="428.053" gradientUnits="userSpaceOnUse">
<stop offset="0.015625" stop-color="#EEE2D6"/>
<stop offset="1" stop-color="#F17757"/>
</linearGradient>
<linearGradient id="paint8_linear" x1="929.987" y1="531.069" x2="928.513" y2="413.54" gradientUnits="userSpaceOnUse">
<stop offset="0.00505051" stop-color="#C39367"/>
<stop offset="1" stop-color="#704232"/>
</linearGradient>
<linearGradient id="paint9_linear" x1="972.299" y1="562.152" x2="969.881" y2="421.442" gradientUnits="userSpaceOnUse">
<stop offset="0.00505051" stop-color="#C39367"/>
<stop offset="1" stop-color="#704232"/>
</linearGradient>
<linearGradient id="paint10_linear" x1="981.418" y1="295.755" x2="988.939" y2="432.983" gradientUnits="userSpaceOnUse">
<stop offset="0.015625" stop-color="#EEE2D6"/>
<stop offset="1" stop-color="#F17757"/>
</linearGradient>
<linearGradient id="paint11_linear" x1="935.722" y1="307.786" x2="940.467" y2="415.301" gradientUnits="userSpaceOnUse">
<stop offset="0.015625" stop-color="#EEE2D6"/>
<stop offset="1" stop-color="#F17757"/>
</linearGradient>
<linearGradient id="paint12_linear" x1="983.045" y1="332.131" x2="987.537" y2="437.694" gradientUnits="userSpaceOnUse">
<stop offset="0.015625" stop-color="#EEE2D6"/>
<stop offset="1" stop-color="#F17757"/>
</linearGradient>
<linearGradient id="paint13_linear" x1="641.22" y1="540.616" x2="640.54" y2="524.874" gradientUnits="userSpaceOnUse">
<stop offset="0.3021" stop-color="#C39367"/>
<stop offset="0.9375" stop-color="#704232"/>
</linearGradient>
<linearGradient id="paint14_linear" x1="654.413" y1="543.857" x2="653.962" y2="507.902" gradientUnits="userSpaceOnUse">
<stop offset="0.3021" stop-color="#C39367"/>
<stop offset="0.9375" stop-color="#704232"/>
</linearGradient>
<linearGradient id="paint15_linear" x1="653.695" y1="532.297" x2="653.483" y2="513.286" gradientUnits="userSpaceOnUse">
<stop offset="0.3021" stop-color="#C39367"/>
<stop offset="0.9375" stop-color="#704232"/>
</linearGradient>
<linearGradient id="paint16_linear" x1="653.194" y1="513.235" x2="648.794" y2="415.863" gradientUnits="userSpaceOnUse">
<stop offset="0.3021" stop-color="#C39367"/>
<stop offset="0.9375" stop-color="#704232"/>
</linearGradient>
<linearGradient id="paint17_linear" x1="655.801" y1="500.167" x2="646.91" y2="335.909" gradientUnits="userSpaceOnUse">
<stop offset="0.3021" stop-color="#C39367"/>
<stop offset="0.9375" stop-color="#704232"/>
</linearGradient>
<linearGradient id="paint18_linear" x1="619.166" y1="559.989" x2="618.067" y2="516.191" gradientUnits="userSpaceOnUse">
<stop offset="0.00505051" stop-color="#C39367"/>
<stop offset="1" stop-color="#704232"/>
</linearGradient>
<linearGradient id="paint19_linear" x1="621.108" y1="546.921" x2="620.579" y2="519.873" gradientUnits="userSpaceOnUse">
<stop offset="0.00505051" stop-color="#C39367"/>
<stop offset="1" stop-color="#704232"/>
</linearGradient>
<linearGradient id="paint20_linear" x1="625.241" y1="518.187" x2="621.689" y2="423.201" gradientUnits="userSpaceOnUse">
<stop offset="0.00505051" stop-color="#C39367"/>
<stop offset="1" stop-color="#704232"/>
</linearGradient>
<linearGradient id="paint21_linear" x1="632.856" y1="508.349" x2="625.363" y2="340.176" gradientUnits="userSpaceOnUse">
<stop offset="0.00505051" stop-color="#C39367"/>
<stop offset="1" stop-color="#704232"/>
</linearGradient>
<linearGradient id="paint22_linear" x1="634.991" y1="241.962" x2="639.335" y2="344.682" gradientUnits="userSpaceOnUse">
<stop offset="0.015625" stop-color="#EEE2D6"/>
<stop offset="1" stop-color="#F17757"/>
</linearGradient>
<linearGradient id="paint23_linear" x1="628.661" y1="258.187" x2="632.24" y2="277.635" gradientUnits="userSpaceOnUse">
<stop stop-color="#EBF2F3"/>
<stop offset="1" stop-color="white"/>
</linearGradient>
<linearGradient id="paint24_linear" x1="641.478" y1="255.829" x2="645.057" y2="275.276" gradientUnits="userSpaceOnUse">
<stop stop-color="#EBF2F3"/>
<stop offset="1" stop-color="white"/>
</linearGradient>
<linearGradient id="paint25_linear" x1="554.071" y1="665.518" x2="548.404" y2="525.648" gradientUnits="userSpaceOnUse">
<stop offset="0.00505051" stop-color="#C39367"/>
<stop offset="1" stop-color="#704232"/>
</linearGradient>
<linearGradient id="paint26_linear" x1="598.922" y1="367.394" x2="606.074" y2="489.748" gradientUnits="userSpaceOnUse">
<stop offset="0.015625" stop-color="#EEE2D6"/>
<stop offset="1" stop-color="#F17757"/>
</linearGradient>
<linearGradient id="paint27_linear" x1="581.775" y1="681.735" x2="575.705" y2="531.969" gradientUnits="userSpaceOnUse">
<stop offset="0.00505051" stop-color="#C39367"/>
<stop offset="1" stop-color="#704232"/>
</linearGradient>
<linearGradient id="paint28_linear" x1="565.812" y1="543.837" x2="563.87" y2="443.157" gradientUnits="userSpaceOnUse">
<stop offset="0.00505051" stop-color="#C39367"/>
<stop offset="1" stop-color="#704232"/>
</linearGradient>
<linearGradient id="paint29_linear" x1="563.275" y1="395.945" x2="564.345" y2="438.09" gradientUnits="userSpaceOnUse">
<stop offset="0.015625" stop-color="#EEE2D6"/>
<stop offset="1" stop-color="#F17757"/>
</linearGradient>
<linearGradient id="paint30_linear" x1="372.414" y1="667.233" x2="366.723" y2="511.797" gradientUnits="userSpaceOnUse">
<stop offset="0.00505051" stop-color="#C39367"/>
<stop offset="1" stop-color="#704232"/>
</linearGradient>
<linearGradient id="paint31_linear" x1="345.203" y1="697.113" x2="338.363" y2="521.932" gradientUnits="userSpaceOnUse">
<stop offset="0.00505051" stop-color="#C39367"/>
<stop offset="1" stop-color="#704232"/>
</linearGradient>
<linearGradient id="paint32_linear" x1="368.276" y1="482.154" x2="433.432" y2="482.154" gradientUnits="userSpaceOnUse">
<stop offset="0.00505051" stop-color="#C39367"/>
<stop offset="1" stop-color="#704232"/>
</linearGradient>
<linearGradient id="paint33_linear" x1="333.631" y1="580.658" x2="328.877" y2="456.654" gradientUnits="userSpaceOnUse">
<stop offset="0.00505051" stop-color="#C39367"/>
<stop offset="1" stop-color="#704232"/>
</linearGradient>
<linearGradient id="paint34_linear" x1="300.306" y1="507.106" x2="348.347" y2="507.106" gradientUnits="userSpaceOnUse">
<stop offset="0.00505051" stop-color="#C39367"/>
<stop offset="1" stop-color="#704232"/>
</linearGradient>
<linearGradient id="paint35_linear" x1="382.37" y1="562.76" x2="377.783" y2="445.053" gradientUnits="userSpaceOnUse">
<stop offset="0.00505051" stop-color="#C39367"/>
<stop offset="1" stop-color="#704232"/>
</linearGradient>
<clipPath id="clip0">
<rect width="1064" height="530.857" fill="white" transform="translate(27 208)"/>
</clipPath>
</defs>
</svg>
