<svg width="1091" height="612" viewBox="0 0 1091 612" fill="none" xmlns="http://www.w3.org/2000/svg">
<path d="M948.495 124.18C845.143 54.8677 736.58 183.693 616.587 145.232C553.407 124.981 482.658 27.4563 418.685 12.2597C181.292 -44.1318 52.9971 168.023 117.45 357.974C231.607 694.406 699.84 641.209 886.412 501.99C1008.75 410.698 1110.78 233.014 948.495 124.18Z" fill="url(#paint0_linear)"/>
<g clip-path="url(#clip0)">
<path d="M148.143 232.2C148.143 232.2 154.543 231.286 159.686 231.514C165.171 231.857 167.686 231.514 169.286 231.857C170.886 232.543 171.571 235.4 168.943 234.714C165.057 233.8 164.143 234.714 162.886 235.971C161.971 236.657 165.743 238.257 169.628 239.857C173.857 241.457 175.457 237.571 176.714 238.943C178.314 239.857 174.771 246.943 166.771 247.286C160.714 247.629 155.228 245 151.343 244.429C144.943 243.171 139.457 240.886 139.457 240.886L148.143 232.2Z" fill="#FFC9B6"/>
<path d="M141.63 225.114C137.401 224.428 132.944 224.2 132.944 224.2C132.944 224.2 132.601 222.6 132.944 221C133.287 219.057 129.059 219.743 129.059 219.743C129.059 219.743 125.287 201.685 125.287 201C124.601 197.457 123.687 185.571 115.916 172.657C108.144 160.085 101.059 166.257 101.059 166.257C101.059 166.257 106.201 208.771 110.659 224.2C111.001 223.857 111.573 223.285 111.916 222.943C113.859 228.771 115.801 238.371 116.144 238.714C120.601 244.543 128.373 243.857 133.516 244.543C140.259 245.457 150.201 246.143 150.201 246.143C150.201 246.143 148.944 239.4 149.287 236.543C149.973 230.714 153.516 230.143 153.516 230.143C153.516 230.143 145.516 225.8 141.63 225.114Z" fill="#623B2A"/>
<path d="M115.23 387.285C115.23 387.285 114.887 390.828 113.63 394.371C112.716 397.914 113.973 403.057 113.973 403.057C113.973 403.057 114.659 405.342 118.202 405.914C121.402 406.6 124.03 405.914 124.03 405.914C124.03 405.914 127.23 409.8 131.116 412.657C135.344 415.514 144.259 417.8 146.544 417.457C150.43 416.771 152.602 413.914 152.373 411.628C152.03 409.685 147.573 404.2 143.687 401.685C141.059 400.085 135.687 394.942 134.087 393C131.23 390.142 129.287 386.6 129.287 386.6L115.23 387.285Z" fill="#2C2A29"/>
<path d="M109.857 230.6C109.857 230.6 121.399 259.857 122.999 271.514C124.942 283.4 128.485 301.114 130.428 315.971C132.714 330.828 132.714 345.228 131.342 359.742C130.999 365.571 128.714 380.657 130.085 388.657C128.828 394.142 116.257 394.714 114.999 388.314C114.085 384.428 104.371 350.371 103.457 339.742C102.542 329.114 105.057 321.457 105.057 321.457C105.057 321.457 89.628 288.657 84.1423 275.4C78.6566 262.257 82.5423 246.142 82.5423 246.142L109.857 230.6Z" fill="url(#paint1_linear)"/>
<path d="M56.7142 417.229C56.7142 417.229 54.4285 425 54.7714 429.457C55.1142 433.914 56.0285 434.943 57.3999 436.543C58.6571 438.143 60.2571 437.457 60.2571 437.457C60.2571 437.457 60.9428 446.828 65.3999 450.6C69.8571 454.486 77.9714 454.828 81.5142 453.457C85.0571 452.2 82.7714 445.457 79.2285 438.943C75.6857 432.543 70.8857 425.457 69.8571 419.286C61.2857 418.143 56.7142 417.229 56.7142 417.229Z" fill="#2C2A29"/>
<path d="M68.9439 242.486C68.9439 242.486 63.4582 250.486 59.0011 264.314C55.8011 273.914 56.3725 297.457 56.3725 297.457C56.3725 297.457 55.4582 320.657 57.0582 328.657C58.6582 336.657 58.3153 338.257 58.3153 338.257C58.3153 338.257 51.9153 357.571 52.8296 380.086C53.7439 402.6 55.6868 419.057 55.6868 419.057C55.6868 419.057 56.9439 423.286 62.7725 423.857C67.9153 424.543 72.1439 420.657 72.1439 420.657C72.1439 420.657 81.7439 372.771 85.2868 361.8C88.8296 350.828 90.0868 338.257 90.0868 338.257L97.5154 284.2C97.5154 284.2 101.972 276.2 104.601 250.714C100.144 236.086 68.9439 242.486 68.9439 242.486Z" fill="url(#paint2_linear)"/>
<path d="M80.4855 168.2C83.3427 167.285 95.3427 163.4 96.5998 163.971C104.943 168.2 114.657 184.543 115.914 195.857C116.6 200.314 115.228 212.543 112.714 219.971C115.571 224.428 113.057 227.971 113.057 229.343C112.714 231.628 116.257 241.571 117.286 243.514C118.886 247.743 119.228 253.8 116.6 257C111.8 263.4 106.314 265.343 94.4284 266.943C80.5998 268.885 71.5712 258.943 67.1141 253.114C66.1998 251.857 61.9712 240.885 65.1712 238.943C62.8855 231.857 60.3712 223.171 58.0855 214.485C54.5427 201.571 51.6855 189.343 58.9998 179.743C61.857 175.514 73.7427 170.143 80.4855 168.2Z" fill="#EDDCDA"/>
<path d="M78.8856 152.771C78.8856 152.771 90.1999 161.457 93.9713 167.286C97.5142 173.114 99.1142 175.286 97.1713 188.886C86.8856 185.343 73.6285 178.943 71.457 171.857C75.1142 169.457 78.8856 152.771 78.8856 152.771Z" fill="#FFB9A4"/>
<path d="M104.715 210.371C103.8 205.229 102.086 200.429 101.172 197.457C100.829 196.771 102.772 190.714 102.772 190.714L97.2859 188.771L94.0859 192.657C94.0859 192.657 96.0288 197.114 97.9716 198.143C97.9716 203.971 97.6288 214.257 97.6288 223.857C97.2859 238.943 97.6288 249.914 97.6288 249.914C97.6288 249.914 101.172 255.057 104.715 257.343C107.343 252.886 108.257 247.057 108.257 247.057C108.257 247.057 106.315 219.057 104.715 210.371Z" fill="#E04E39"/>
<path d="M73.1719 172.657C73.1719 172.657 82.5433 176.886 86.3147 180.086C91.4576 184.314 94.0862 185.572 96.6005 188.086C96.9433 187.4 97.5147 175.514 97.5147 175.514C97.5147 175.514 101.972 176.2 101.743 176.2C101.743 176.2 104.372 178.486 105.286 183.286C106.2 188.086 104.6 193.572 104.6 193.572L97.1719 189.114L92.3719 198.143C92.3719 198.143 82.7719 189.8 78.2004 184.657C74.0862 179.743 73.1719 172.657 73.1719 172.657Z" fill="white"/>
<path d="M101.172 166.257C101.172 166.257 108.6 167.171 112.486 176.2C116.715 185.571 117.972 195.857 117.972 210.028C117.972 220.314 118.657 234.143 120.6 241.571C122.2 247.971 130.543 271.171 130.543 271.171C130.543 271.171 129.857 280.771 126.657 284.657C122.772 289.457 118.315 289.114 118.315 289.114C118.315 289.114 113.172 260.2 112.486 255.628C111.8 251.171 110.2 226.943 110.543 219.628C110.886 212.543 107 188.771 105.4 183.285C103.8 178.143 94.0859 167.171 94.0859 167.171L101.172 166.257Z" fill="url(#paint3_linear)"/>
<path d="M99.5727 173.686C99.5727 173.686 102.43 177.228 104.716 183.057C107.001 188.543 107.573 200.771 108.258 207.857C108.944 214.943 110.544 222.028 110.544 222.028C110.544 222.028 113.173 214.257 113.744 209.114C114.43 203.971 115.001 199.743 115.001 199.743L111.458 196.886L115.001 188.543C115.001 188.543 105.973 168.886 102.087 167.971C98.2013 166.828 99.5727 173.686 99.5727 173.686Z" fill="#623B2A"/>
<path d="M107.23 148.199C106.544 143.057 104.601 136.657 100.487 133.342C96.2581 130.142 89.5153 130.485 84.3724 131.399C76.601 132.657 71.801 142.028 74.4295 151.971C76.7153 161.342 84.3724 174.828 95.001 175.742C100.487 176.085 104.03 171.857 105.972 166.371C107.915 160.085 107.572 152.428 107.23 148.199Z" fill="#FFC9B6"/>
<path d="M115.572 134.714C115.23 129.572 110.772 127.286 107.23 128.314C108.144 121.229 99.2296 120.314 96.2582 124.429C94.3153 123.743 91.801 120.543 86.8867 120.543C81.0582 120.543 74.3153 122.486 72.7153 130.143C66.6582 132.772 68.0296 142.143 69.6296 147.857C70.8867 151.743 75.6867 163.972 76.0296 163.972C78.3153 161.686 81.5153 152.429 81.8582 151.4C85.401 151.743 92.1439 149.114 93.401 147.514C97.2867 149.457 104.715 152.314 108.487 149.8C114.315 146.6 115.915 139.514 115.572 134.714Z" fill="#2C2A29"/>
<path d="M82.0854 154.371C82.0854 154.371 79.7997 150.485 76.5997 153.114C73.7426 155.742 80.1426 162.142 80.1426 162.142L82.0854 154.371Z" fill="#FFC9B6"/>
<path d="M105.63 166.6C105.63 166.6 104.373 165.914 100.487 166.943C96.6013 167.628 92.7156 170.828 89.8585 169.8C87.0013 168.885 85.4013 166.943 84.7156 165C84.0299 162.371 83.4585 158.257 83.1156 154.028C81.8585 154.714 81.5156 155.971 81.5156 157.228C81.1728 161.457 81.8585 166.6 82.7728 169.114C84.0299 173 89.1728 177.8 96.6013 179.4C103.001 180.657 104.373 177.114 105.287 173.343C105.973 169.457 105.63 168.543 105.63 166.6Z" fill="#2C2A29"/>
<path d="M103.343 170.143C103.343 170.143 101.4 170.143 100.714 168.886C99.4569 170.829 96.8283 171.171 95.9141 171.743C96.8283 172.657 98.1998 173.686 100.714 173C103 172.314 103.343 170.143 103.343 170.143Z" fill="#FFC9B6"/>
<path d="M71.5722 171.742C71.5722 171.742 82.2007 185.914 85.4007 205.228C88.6007 224.542 85.4007 244.428 85.4007 258.599C85.4007 272.428 87.0007 300.085 87.0007 300.085C87.0007 300.085 74.0864 302.371 64.4864 300.428C54.2007 298.142 48.0293 290.828 48.0293 290.828C48.0293 290.828 54.0864 258.942 58.6579 239.399C60.6007 230.714 55.4579 211.399 51.915 201.114C49.9722 194.714 48.715 186.371 53.8579 180.542C57.7436 175.856 66.4293 174.256 71.5722 171.742Z" fill="url(#paint4_linear)"/>
<path d="M33.2871 241.799L48.7157 269.571L88.2585 247.057L72.83 219.399L69.9728 220.999L33.2871 241.799Z" fill="#FF9C7D"/>
<path d="M30.3145 243.514L45.743 271.171L85.2859 248.657L69.8573 221L30.3145 243.514Z" fill="#F49678"/>
<path d="M72.143 219.628L87.2287 246.599L85.6287 247.514L70.543 220.542L72.143 219.628Z" fill="white"/>
<path d="M71.8008 220.657L76.9436 229.686L82.7722 226.486L77.9722 217.8L71.8008 220.657Z" fill="#EDDCDA"/>
<path d="M74.7715 227.399L88.9429 228.085L83.1143 241.914L74.7715 227.399Z" fill="#E04E39"/>
<path d="M64.7148 254.714C64.7148 254.714 68.9433 254.714 72.1433 255.971C73.7433 254.714 76.9433 253.114 76.9433 253.114C76.9433 253.114 79.2291 259.514 75.0005 264.429C70.7719 268.886 65.4005 266.371 62.0862 263.514C58.6576 261.114 64.7148 254.714 64.7148 254.714Z" fill="#FFC9B6"/>
<path d="M58.3148 177.229C58.3148 177.229 48.0291 180.086 42.5434 190.371C37.4005 200.314 30.6577 219.971 28.7148 227.971C26.0862 238.943 26.772 242.829 28.372 245.686C31.572 250.829 36.1434 254.714 42.2005 258.257C51.8005 264.086 60.8291 265.686 60.8291 265.686C60.8291 265.686 67.572 264.428 67.572 253.457C65.972 251.857 62.7719 252.2 57.972 247.4C51.572 241.571 47.0005 236.771 47.0005 236.771C47.0005 236.771 54.4291 226.143 61.8577 214.6C71.572 191.286 58.3148 177.229 58.3148 177.229Z" fill="#623B2A"/>
<path d="M73.1725 168.771C73.1725 168.771 66.7725 171.629 66.4297 173.914C67.344 176.2 69.9725 179.4 71.2297 185.457C72.4868 191.514 71.9154 198.029 71.9154 198.029L78.6583 201.229L74.7725 207.971L86.6583 223.4C86.6583 223.4 88.6011 203.171 83.8011 188.314C79.2297 173.914 73.1725 168.771 73.1725 168.771Z" fill="#623B2A"/>
<path d="M201.857 236.657C204.486 219.628 209.857 204.771 209.857 204.771L171.228 194.143C171.228 194.143 165.743 209 163.228 226.028C160.371 245.685 164.486 267.514 164.486 267.514L203.686 278.485C203.686 278.485 203.686 278.485 203.686 278.143L203 277.8C203.114 277.914 198.886 256.314 201.857 236.657Z" fill="white"/>
<path d="M157.058 231.285C159.001 231.285 160.601 230.371 162.201 230.599C164.83 230.942 166.658 231.285 168.601 231.513C170.544 231.856 170.544 235.399 167.344 235.399C162.201 235.056 161.515 237.342 158.658 236.999C156.487 236.656 157.058 231.285 157.058 231.285Z" fill="#FFC9B6"/>
<path d="M201.857 207.056C195.457 205.456 183.8 201.571 175.457 199.971C173.857 199.628 173.515 200.656 175.115 201.228C183.115 204.085 193.172 206.028 201.172 207.971C202.772 208.428 202.429 207.399 201.857 207.056Z" fill="#704232"/>
<path d="M199.572 214.485C193.172 212.885 181.515 208.999 173.172 207.399C171.572 207.057 171.229 208.085 172.829 208.657C180.829 211.514 190.886 213.457 198.886 215.399C200.829 215.742 200.601 214.485 199.572 214.485Z" fill="#704232"/>
<path d="M198.886 219.971C192.486 218.371 179.915 214.486 171.572 212.886C169.972 212.543 169.629 213.571 170.886 213.8C179.229 216.086 189.858 218.943 197.858 220.886C199.915 221.229 199.915 219.971 198.886 219.971Z" fill="#704232"/>
<path d="M182.544 221.228C178.658 219.971 174.544 218.6 170.315 217.686C169.629 217.686 169.401 218.6 169.972 218.6C173.172 219.857 177.972 220.886 181.858 221.8C183.229 222.828 183.229 221.571 182.544 221.228Z" fill="#704232"/>
<path d="M196.029 231.857C189.629 230.257 177.972 226.372 169.629 224.772C168.029 224.429 167.686 225.457 169.286 226.029C177.286 228.886 187.344 230.829 195.344 232.772C197.058 233.457 197.058 232.2 196.029 231.857Z" fill="#704232"/>
<path d="M196.029 237.685C189.629 236.085 177.057 232.2 168.714 230.6C167.114 230.257 166.772 231.285 168.029 231.514C176.372 233.8 187 236.657 195 238.6C197.057 239.285 197.057 238.028 196.029 237.685Z" fill="#704232"/>
<path d="M179.686 239.628C175.801 238.371 171.686 236.999 167.458 236.085C166.772 236.085 166.543 236.999 167.115 236.999C170.315 238.256 175.115 239.285 179.001 240.199C180.258 241.228 180.258 239.971 179.686 239.628Z" fill="#704232"/>
<path d="M194.771 250.257C188.371 248.657 176.714 244.771 168.371 243.171C166.771 242.828 166.429 243.857 168.029 244.428C176.029 247.285 186.086 249.228 194.086 251.171C195.686 251.514 195.457 250.485 194.771 250.257Z" fill="#704232"/>
<path d="M195.458 257C189.058 255.4 176.487 251.514 168.144 249.914C166.544 249.571 166.201 250.6 167.458 250.828C175.801 253.114 186.43 255.971 194.43 257.914C196.373 258.257 196.373 257 195.458 257Z" fill="#704232"/>
<path d="M180.257 258.599C176.371 257.342 172.257 255.971 168.028 255.057C167.342 255.057 167.114 255.971 167.685 255.971C170.885 257.228 175.685 258.257 179.571 259.171C180.942 259.857 180.942 258.599 180.257 258.599Z" fill="#704232"/>
<path d="M191.572 261.457C189.287 260.771 187.344 262.371 187.115 264.657C187.115 266.943 188.715 269.8 191.344 270.143C194.201 270.143 195.801 267.286 194.887 264.657C194.43 263.057 193.172 261.8 191.572 261.457ZM190.544 268.543C189.287 267.857 188.601 266.6 188.258 265.686C187.915 264.086 188.601 263.057 189.858 262.828C191.801 262.143 193.401 263.514 194.087 265.114C194.772 266.943 192.83 269.571 190.544 268.543Z" fill="#F17757"/>
<path d="M191.573 263.399C190.659 263.057 189.63 263.742 189.287 264.999C189.287 266.257 190.201 267.628 191.23 267.628C192.487 267.628 193.516 266.028 192.83 264.999C192.83 264.428 192.144 263.742 191.573 263.399Z" fill="#F17757"/>
<path d="M255.914 161.457C255.914 161.457 244.6 150.143 237.857 163.4C230.429 177.228 229.172 175.628 222.086 185.571C221.172 186.828 216.257 199.057 214.314 206.485C213.057 210.943 215 212.657 218.2 226.714C220.143 234.485 225.972 239.857 225.972 239.857C225.972 239.857 235 234.714 240.486 235.057C246.314 235.057 237.286 218.028 237.286 218.028L238.886 207.4C252.714 191.285 255.914 161.457 255.914 161.457Z" fill="#E04E39"/>
<path d="M225.972 239.972C225.972 239.972 225.058 246.372 225.972 249.572C226.887 252.772 227.915 253.8 227.915 253.8C227.915 253.8 223.687 252.543 222.087 255.057C220.144 257.686 225.287 259.857 231.458 259.286C237.629 258.714 243.001 242.257 243.001 242.257L236.258 235.172C236.258 235.057 228.829 235.743 225.972 239.972Z" fill="#FFC9B6"/>
<path d="M234.657 387.971C234.657 387.971 235 391.514 236.257 395.057C237.172 398.599 235.914 403.742 235.914 403.742C235.914 403.742 235.229 406.028 231.686 406.599C228.486 407.285 225.857 406.599 225.857 406.599C225.857 406.599 222.657 410.485 218.772 413.342C214.886 416.199 205.629 418.485 203.343 418.142C199.457 417.457 197.286 414.599 197.514 412.314C197.857 410.371 202.314 404.885 206.2 402.371C208.829 400.771 214.2 395.628 215.8 393.685C218.657 390.828 220.6 387.285 220.6 387.285L234.657 387.971Z" fill="#2C2A29"/>
<path d="M239.801 230.942C239.801 230.942 228.258 260.2 226.658 271.857C224.715 283.742 221.172 301.457 219.229 316.314C216.943 331.171 216.943 345.571 218.315 360.085C218.658 365.914 220.943 381 219.572 389C220.829 394.485 233.401 395.057 234.658 388.657C235.572 384.771 245.286 350.714 246.201 340.085C247.115 329.457 244.601 321.8 244.601 321.8C244.601 321.8 260.029 288.314 265.515 275.514C271.001 262.371 267.115 246.257 267.115 246.257L239.801 230.942Z" fill="url(#paint5_linear)"/>
<path d="M293.172 417.8C293.172 417.8 295.457 425.571 295.115 430.028C294.772 434.485 293.857 435.514 292.486 437.114C291.229 438.714 289.629 438.028 289.629 438.028C289.629 438.028 288.943 447.4 284.486 451.171C280.029 455.057 271.915 455.4 268.372 454.028C264.829 452.771 267.115 446.028 270.657 439.514C274.2 433.114 279 426.028 280.029 419.857C288.715 418.486 293.172 417.8 293.172 417.8Z" fill="#2C2A29"/>
<path d="M280.942 243.171C280.942 243.171 286.428 251.171 290.885 265C294.085 274.6 293.514 298.142 293.514 298.142C293.514 298.142 294.428 321.342 292.828 329.342C291.228 337.342 291.571 338.942 291.571 338.942C291.571 338.942 297.971 358.257 297.057 380.771C296.142 403.285 294.199 419.742 294.199 419.742C294.199 419.742 292.942 423.971 287.114 424.542C281.971 425.228 277.742 421.342 277.742 421.342C277.742 421.342 268.142 373.457 264.599 362.485C261.057 351.514 259.799 338.942 259.799 338.942L252.371 284.885C252.371 284.885 248.828 278.485 245.285 251.4C249.742 236.657 280.942 243.171 280.942 243.171Z" fill="url(#paint6_linear)"/>
<path d="M269.401 168.542C266.544 167.628 254.658 163.742 253.287 164.314C244.944 168.542 235.23 184.885 233.973 196.2C233.287 200.657 234.658 223.514 237.515 230.942C233.63 232.885 233.973 234.485 235.573 236.771C233.973 239.057 232.715 239.4 232.03 241.571C230.43 245.8 232.715 247.742 235.573 250.942C239.801 255.4 247.115 259.285 259.115 260.885C272.944 262.828 283.915 257 288.03 251.285C288.944 250.028 288.944 246.485 285.744 244.542C288.03 237.457 289.973 223.971 292.144 215.628C295.687 202.714 298.887 187.628 291.458 178.028C288.373 173.342 275.801 170.714 269.401 168.542Z" fill="url(#paint7_linear)"/>
<path d="M251.687 170.143C251.687 170.143 248.83 174.371 248.83 180.086C248.83 185.8 250.43 194.257 250.43 194.257C250.43 194.257 264.259 190.029 271.344 184.886C280.944 177.457 282.659 172.314 282.659 172.314C282.659 172.314 274.316 169.114 269.744 168.429C264.944 167.857 251.687 170.143 251.687 170.143Z" fill="#E04E39"/>
<path d="M270.658 153.343C270.658 153.343 259.344 162.028 255.573 167.857C252.03 173.686 250.43 175.857 252.373 189.457C262.658 185.914 276.83 179.171 279.116 171.743C275.801 169.457 270.658 153.343 270.658 153.343Z" fill="#FFB9A4"/>
<path d="M243 147.857C243.343 143.057 244.257 136.542 248.143 132.999C252.029 129.457 258.429 129.114 263.229 129.457C270.657 130.142 276.143 138.485 274.771 148.085C273.514 157.114 267.686 170.599 257.743 172.542C252.6 173.457 248.714 169.685 246.429 164.771C243.686 159.514 243 152.085 243 147.857Z" fill="#FFC9B6"/>
<path d="M238.887 238.6C238.887 238.6 243.115 244.085 250.43 246.371C257.858 248.657 263.572 247.628 263.572 247.628C263.572 247.628 258.772 246.028 254.887 244.771C251.344 243.742 242.087 238.6 238.887 238.6Z" fill="#E83A3A"/>
<path d="M246.201 233.114C246.201 233.114 249.401 238.943 256.144 241.114C262.887 243.4 267.115 242.371 267.115 242.371C267.115 242.371 259.687 240.086 256.487 238.486C253.973 237.343 246.201 233.114 246.201 233.114Z" fill="#E83A3A"/>
<path d="M285.172 136.657C284.486 133.8 282.315 131.514 279.686 131.514C281.972 126.371 281.972 120.2 275.8 118.028C269.743 115.742 262.658 117.114 258.429 121.914C256.829 117.114 252.372 113.228 245.515 118.714C237.743 124.771 237.172 135.171 242.658 144.085C246.886 149.228 256.829 149.571 261.286 146.371C262.543 152.771 262.886 153.114 268.029 155.4C267.343 159.285 272.258 165.342 275.8 167.285C276.829 156.314 287.115 146.257 285.172 136.657Z" fill="#2C2A29"/>
<path d="M264.943 156.885C264.943 152.085 270.086 149.114 271.343 154.028C272.601 158.485 268.715 161.799 268.715 161.799L264.943 156.885Z" fill="#FFC9B6"/>
<path d="M291.571 177.457C291.571 177.457 276.828 197.457 273.285 207.971C269.4 218.6 265.285 227.286 265.285 227.286C265.285 227.286 242.771 228.543 231.457 230.143C224.371 231.057 218.885 232.086 216.371 232.771C217.971 237 218.314 241.8 218.314 245.914C218.314 246.257 218.314 246.6 218.314 246.828C226.314 249.114 244.028 253.571 253.057 253.228C264.943 252.543 279.457 248.771 279.457 248.771C279.457 248.771 295.228 217.914 300.714 207.857C305.4 198.371 303.8 183.628 291.571 177.457Z" fill="#E04E39"/>
<path d="M216.029 233.114C216.029 233.114 202.201 227.057 196.029 228.314C189.972 229.571 186.658 237 185.401 239.857C184.144 242.714 186.315 247.857 192.829 247.286C199.229 246.943 202.201 244.086 202.201 244.086C202.201 244.086 211.572 249.229 217.629 246.714C221.515 242.486 218.887 234.486 216.029 233.114Z" fill="#FFC9B6"/>
<path d="M921.173 359.285L920.601 359.057C918.201 358.714 916.601 356.314 917.173 353.914L935.116 258.371L944.258 259.971L926.316 355.514C925.973 358.028 923.573 359.743 921.173 359.285Z" fill="#F8B79E"/>
<path d="M994.658 395.857H994.087C991.687 395.857 989.744 393.8 989.744 391.514V294.257H999.116V391.514C999.001 393.914 996.944 395.857 994.658 395.857Z" fill="#F8B79E"/>
<path d="M1071 372.314H1070.43C1068.03 372.657 1065.86 370.828 1065.52 368.428L1053.29 271.971L1062.66 270.828L1074.89 367.285C1075 369.8 1073.4 371.971 1071 372.314Z" fill="#F8B79E"/>
<path d="M1002.89 125.228L1009.97 121.571C1011.57 120.657 1013.4 120.886 1015.12 121.8L1088.72 165.343C1090.54 166.486 1091.23 168.428 1090.89 170.486L1066.43 274.6C1065.29 279.171 1062.43 283.057 1058.43 285.228L996.144 319.857C994.087 321 991.572 321 989.744 319.857L923.572 280.543C921.058 279.057 919.572 276.314 919.572 273.571V264.428L987.229 240.657L1002.89 125.228Z" fill="#623B2A"/>
<path d="M919.572 263.971L977.172 230.028L1002.89 125.343L1080.72 171.057L1057.74 271.171L993.972 306.6L919.572 263.971Z" fill="#C39367"/>
<path d="M997.514 159.857C997.514 159.857 1036.6 183.972 1047.34 228.543C1049.51 237.915 1046.2 255.629 1037.63 267.286C1029.06 278.943 1010.09 291.4 1010.09 291.4L976.143 263.4L997.514 159.857Z" fill="#302665" fill-opacity="0.1"/>
<path d="M875.685 357.114C875.685 357.114 866.771 368.657 855.914 376.086C845.171 383.629 847.685 392.543 859.228 393.457C868.028 394.143 874.2 391.857 881.743 385C889.285 378.371 892.485 378.943 894.543 376.086C896.6 373.343 894.314 361.457 894.314 361.457L875.685 357.114Z" fill="#58595B"/>
<path d="M923.687 389.686C923.687 389.686 919.687 397.228 909.744 406.143C899.916 415.286 898.544 421.114 906.43 425.457C914.316 430.028 926.887 426.371 933.63 418.714C940.373 411.057 943.687 408.886 946.43 407.057C949.401 405.228 946.43 391.286 946.43 391.286L923.687 389.686Z" fill="#58595B"/>
<path d="M951.116 245.114C951.116 245.114 911.802 258.257 899.459 267.629C887.002 277 873.287 356.2 873.287 356.2C870.544 363.171 893.973 372.086 896.487 365.114L924.259 294.257L985.63 265L951.116 245.114Z" fill="url(#paint8_linear)"/>
<path d="M977.058 253.571C977.058 253.571 945.972 277.457 935.915 291.971C925.858 306.371 921.972 388.771 921.972 388.771C919.915 400.086 946.658 404.657 949.172 395.171L969.401 309.457C969.401 309.457 1018.2 288.314 1020.14 262.143L977.058 253.571Z" fill="url(#paint9_linear)"/>
<path d="M1020.6 261.914C1020.6 261.914 1010.54 267.057 997.057 266.829C990.428 266.829 983 265.343 975.686 261.572C964.943 255.857 958.886 251.857 955.457 249.114C951.8 246.143 951.229 244.886 951.229 244.886L955.457 218.029C955.457 218.029 951.457 177.457 954.771 166.372C957.514 157 970.543 149 988.029 153.343C988.029 153.343 992.257 153.686 998.086 158.257C1004.71 163.172 1013.06 172.657 1017.86 179.857C1027.57 194.714 1020.6 261.914 1020.6 261.914Z" fill="url(#paint10_linear)"/>
<path d="M1002.09 254.828L1017.86 247.285C1016.71 257.914 1004.14 264.085 997.057 266.828C990.428 266.828 983 265.343 975.686 261.571C964.943 255.857 958.886 251.857 955.457 249.114C956.943 246.943 959.343 244.771 962.771 242.943C977.628 235.4 983.914 231.285 983.914 231.285C983.914 231.285 958.314 220.657 959.228 218.828C960.143 217 987.228 226.714 987.228 226.714C991.457 212.657 997.514 200.428 1003.11 191.857C1003.11 191.857 1020.26 181.571 1021.51 191.285C1022.77 201.114 1019 225.8 1016.71 236.085C1014.54 246.257 1002.89 254.485 1002.09 254.828Z" fill="#E04E39"/>
<path d="M994.772 159.629C993.63 163.629 982.887 176.429 974.544 175.514C973.401 175.286 972.373 174.943 971.458 174.6C966.43 171.514 967.573 162.714 967.573 162.714L973.287 159.4C973.287 159.4 985.401 140.772 987.572 142.029C987.801 142.257 987.915 142.372 987.915 142.714C987.915 142.943 987.915 142.943 987.915 143.057C987.915 144.2 988.144 145.229 988.487 146.486C990.201 152.543 994.772 159.629 994.772 159.629Z" fill="#FFC9B6"/>
<path d="M988.6 146.486C988.371 167.514 972.028 174.257 971.571 174.486C966.657 171.4 967.685 162.6 967.685 162.6L973.4 159.286C973.4 159.286 985.514 140.657 987.685 141.914C987.914 142.143 987.914 142.257 988.028 142.6C988.371 143.514 988.6 144.772 988.6 146.486Z" fill="#CE5555" fill-opacity="0.2"/>
<path d="M951.344 136.2C949.516 127.971 952.83 124.314 952.944 124.086C964.487 114.257 981.058 123.514 981.973 124.314C982.887 124.886 985.973 131.628 987.23 134.943C988.144 132.886 989.401 132.428 990.544 132.543C992.373 132.771 993.516 133.8 993.516 136.886C993.744 139.857 992.83 145.457 989.858 147.171C989.287 147.514 988.716 147.171 988.373 146.828C988.716 153.457 979.23 166.028 967.573 164.771C959.573 163.628 953.173 144.428 951.344 136.2Z" fill="#FFC9B6"/>
<path d="M967.228 104.2C985.628 99.0569 988.257 110.828 988.257 110.828C988.257 110.828 995.228 110.6 995.571 128.886C995.8 134.143 994.314 137.114 993.743 139.171C993.971 138.257 993.971 137.571 993.743 136.771C993.514 133.8 992.485 132.771 990.771 132.428C989.285 132.2 987.685 133.343 986.771 137.228C985.514 139.4 985.628 143.286 985.628 143.286C985.628 143.286 985.057 143.628 984.485 142.943C983.8 142.371 982.314 139.857 981.743 138.371C981.514 137.686 981.171 138.028 978.771 135.857C976.6 133.686 975.685 130.371 975.114 129.228C971.114 134.143 955.571 139.057 951.914 131.286C951.343 133.686 953.057 141.114 952.828 141.571C952.828 141.343 948.943 138.143 948.828 130.257C948.828 130.257 946.771 123.286 949.743 117.457C953.514 110.257 963 105.571 967.228 104.2Z" fill="#C39367"/>
<path d="M991.914 153.8C991.914 153.8 991.571 169.914 971.686 174.486L978.428 184.314C978.428 184.314 994.657 173.343 998.2 158.143L991.914 153.8Z" fill="#E3F6FD"/>
<path d="M745.401 273.114L838.43 218.714L838.087 334.6L745.059 388.885L745.401 273.114Z" fill="#704232"/>
<path d="M971.915 388.086L1064.72 333.686L1064.37 465.228L971.344 519.628L971.915 388.086Z" fill="#8E6455"/>
<path d="M732.371 249.685L825.4 195.285L1064.83 333.571L972.028 387.971L732.371 249.685Z" fill="#DC006E"/>
<path d="M971.915 387.971L971.344 519.514L958.315 511.857L958.658 396.2L745.401 273.114L745.058 388.771L732.029 381.228L732.372 249.686L971.915 387.971Z" fill="#AE8E81"/>
<path d="M720.486 233.8L825.172 172.429L1076.83 317.686L971.915 379.057L720.486 233.8Z" fill="#D8B89A"/>
<path opacity="0.23" d="M907.229 296.428L914.543 296.771L954.886 276.543L990.543 267.742L932.828 234.485L901.4 245.114L895.229 278.6L907.229 296.428Z" fill="#CFA580"/>
<path fill-rule="evenodd" clip-rule="evenodd" d="M949.173 173.685C953.401 160.885 960.144 158.371 960.144 158.371L974.087 186.143L955.458 216.2L954.087 218.485C944.601 233.343 916.944 247.4 916.944 247.4C908.716 251.285 900.716 240.085 905.973 235.743L936.487 207.971C937.63 204.543 945.173 185.343 949.173 173.685Z" fill="url(#paint11_linear)"/>
<path opacity="0.23" d="M787.801 240.885H807.344L850.887 215.857L828.029 203.057L802.772 216.999L787.801 240.885Z" fill="#CFA580"/>
<path opacity="0.23" d="M1022.2 324.428L1029.52 320.2C1034.43 317.228 1034.66 310.142 1029.74 307.171L1023 302.828L1022.2 324.428Z" fill="#CFA580"/>
<path d="M971.915 394.943V379.057L720.486 233.8V249.686L971.915 394.943Z" fill="#CFA580"/>
<path d="M1076.83 317.686V333.572L971.914 394.943V379.057L1076.83 316.429" fill="#C39367"/>
<path d="M907.228 296.429L952.714 271.171L893.286 236.771L851.229 263.971L907.228 296.429Z" fill="#DC006E"/>
<path d="M909.629 291.4L950.886 268.543L952.715 271.286L910.658 294.714L909.629 291.4Z" fill="#58595B"/>
<path d="M951 268.542L894.772 235.628L873.629 248.085L909.858 291.399L951 268.542Z" fill="white"/>
<path d="M905.857 286.485L930.314 274.028L885.743 247.399L882.771 259.628L905.857 286.485Z" fill="#D1D3D4"/>
<path opacity="0.23" d="M924.258 316.2L969.401 289.686L1005.17 310.143L959.801 336.657L924.258 316.2Z" fill="#5889D6"/>
<path opacity="0.23" d="M927.914 320.428L967.228 290.828L1003 311.057L963.571 340.885L927.914 320.428Z" fill="#5889D6"/>
<path d="M923.686 313.799L969.057 287.514L1004.71 307.971L959.571 334.485L923.686 313.799Z" fill="#E2E3E8"/>
<path d="M927.229 318.371L966.543 288.771L1002.31 309.229L962.886 339.057L927.229 318.371Z" fill="white"/>
<path d="M780.143 236.314V186.257L788.371 180.543L809.057 205.8L819.114 200.543V214.029L780.143 236.314Z" fill="#F17757"/>
<path d="M826.657 218.6L819 214.943V200.543L826.657 205.114V218.6Z" fill="#F17757"/>
<path d="M818.886 159.857L784.486 179.4V234.943L818.886 215.4V159.857Z" fill="#BCBFC9"/>
<path d="M821.4 161.229L787 180.771V236.314L821.4 216.771V161.229Z" fill="#E2E3E8"/>
<path d="M823.8 162.485L789.629 182.142V237.685L823.8 218.371V162.485Z" fill="white"/>
<path d="M780.143 186.143L787.8 190.485V240.885L780.143 236.543V186.143Z" fill="#F49678"/>
<path d="M787.801 240.886V190.6L796.029 185.114L816.715 210.371L826.772 205.114V218.6L787.801 240.886Z" fill="#F8B79E"/>
<path d="M1007.46 301V320.429C1007.46 323.4 1011.69 325.571 1016.83 325.571C1021.97 325.571 1026.2 323.171 1026.2 320.429V301H1007.46Z" fill="#A7A9AC"/>
<path d="M1026.09 300.999C1026.09 303.971 1021.86 306.142 1016.72 306.142C1011.57 306.142 1007.34 303.742 1007.34 300.999C1007.34 298.028 1011.57 295.856 1016.72 295.856C1021.86 295.856 1026.09 298.142 1026.09 300.999Z" fill="#EEE2D6"/>
<path d="M1024.72 301C1024.72 302.486 1022.89 303.972 1020.49 304.657C1019.92 304.886 1019.34 305 1018.66 305C1018.43 305 1018.32 305 1018.32 305C1017.74 305 1017.4 305 1016.83 305H1016.72C1016.03 305 1015.46 305 1014.66 304.772C1014.43 304.772 1014.09 304.772 1013.97 304.543C1013.06 304.314 1012.37 304.2 1011.57 303.857C1009.97 303.172 1008.83 302.029 1008.83 300.772C1008.83 299.857 1009.4 299.172 1010.09 298.6C1010.66 298.257 1011.23 297.914 1011.92 297.457C1012.6 297.114 1013.4 296.886 1014.32 296.772C1015 296.543 1015.57 296.543 1016.37 296.543H1016.72C1017.06 296.543 1017.4 296.543 1017.86 296.543C1018.54 296.543 1019.12 296.772 1019.92 296.886C1020.14 296.886 1020.49 297.114 1020.6 297.114C1021.29 297.343 1021.86 297.457 1022.43 297.8C1023.92 298.829 1024.72 299.972 1024.72 301Z" fill="#D1D3D4"/>
<path d="M1025.17 288.771C1025.17 288.771 1025.17 289 1025.17 289.114L1022.43 298.257L1020.37 304.657C1019.8 304.885 1019.23 305 1018.54 305C1018.32 305 1018.2 305 1018.2 305L1019.12 302.257L1020.6 297.457L1023.34 288.542C1023.57 287.971 1024.03 287.628 1024.6 287.857C1024.83 287.857 1025.17 288.314 1025.17 288.771Z" fill="#623B2A"/>
<path d="M1016.6 305.114C1015.91 305.114 1015.11 305.114 1014.54 304.886L1014.2 297L1013.86 285.343C1013.86 284.772 1014.2 284.2 1014.77 284.2C1015.34 284.2 1015.69 284.543 1015.91 285.114L1016.26 296.657L1016.6 304.314V305.114Z" fill="#623B2A"/>
<path d="M1013.86 304.885C1012.94 304.657 1012.26 304.542 1011.46 304.2L1009.97 298.942L1007 288.314C1006.77 287.742 1007.23 287.171 1007.69 287.057H1007.91C1008.26 287.057 1008.83 287.399 1008.83 287.742L1011.57 297.8L1013.86 304.885Z" fill="#F17757"/>
<path d="M1020.6 292.771C1020.6 292.771 1020.6 292.999 1020.6 292.771L1019.91 297.114L1019.23 302.028L1018.89 304.771C1018.66 304.771 1018.54 304.771 1018.54 304.771C1017.97 304.771 1017.63 304.771 1017.06 304.771H1016.71V304.199L1017.86 296.542L1018.54 292.314C1018.77 291.742 1019.11 291.399 1019.69 291.399C1020.26 291.857 1020.6 292.314 1020.6 292.771Z" fill="#F17757"/>
<path d="M906.542 238.371L900.828 242.028C900.828 242.028 895.114 242.942 891.914 243.514C888.714 244.085 886.657 245.571 884.371 249.914C882.2 254.257 880.371 257.228 882.771 259.057C885.171 260.885 887.343 260.314 890.657 259.057C893.971 257.571 897.4 254.257 897.4 254.257C897.4 254.257 899.914 254.257 903.571 253.342C907.228 252.428 907.457 250.599 907.457 250.599L912.943 247.514C915.685 244.199 909.285 235.399 906.542 238.371Z" fill="#FFC9B6"/>
<path d="M955.344 215.857C955.344 215.857 952.029 187.857 952.372 179.171C952.715 170.486 953.858 169.114 953.858 169.114C953.858 169.114 951.686 173.686 950.772 182.257C950.086 190.829 953.286 218.943 953.286 218.943L955.344 215.857Z" fill="#F17757"/>
<path d="M952.029 255.057L990.429 230.715C990.429 230.715 1000.83 189.457 1007.57 185.229C1014.32 181 1020.94 180.086 1021.29 191.629C1021.52 197.686 1020.14 205.915 1016.49 218.715C1013.97 228.2 1011.69 237.686 1008.83 242.143C1003.92 249.457 960.715 270.143 960.715 270.143C955.344 273.229 946.429 258.257 952.029 255.057Z" fill="url(#paint12_linear)"/>
<path d="M951.915 258.257L945.744 261C945.744 261 939.915 261 936.601 261C933.287 261 931.115 262.143 928.144 266.143C925.401 270.143 923.001 272.771 925.172 274.943C927.344 277.114 929.401 277 932.829 276.085C936.258 275.171 940.144 272.428 940.144 272.428C940.144 272.428 942.658 273 946.544 272.428C950.429 271.857 950.887 270.257 950.887 270.257L956.944 267.857C960.144 265.457 955.001 255.971 951.915 258.257Z" fill="#FFC9B6"/>
<path d="M910.773 294.6L907.344 296.657L853.858 266.372C852.03 265.229 850.544 263.629 849.973 261.572L837.516 221.343L838.658 220.2C839.573 219.286 840.83 219.057 841.973 219.857L895.687 250.6C896.83 251.172 897.516 252.2 897.858 253.343L910.773 294.6Z" fill="#58595B"/>
<path d="M907.229 296.429L853.743 266.143C851.915 265 850.429 263.4 849.858 261.343L837.4 221.114L892.029 252.2C893.172 252.771 893.858 253.8 894.2 254.943L907.229 296.429Z" fill="#808285"/>
<path d="M971.001 174.257L962.544 179.171C962.544 179.171 959.458 169.8 963.686 162.485C963.686 162.485 965.744 164.085 967.686 164.314C967.801 164.314 967.344 171.171 971.001 174.257Z" fill="#E3F6FD"/>
<path d="M633.172 37C633.172 37 625.858 37 619.229 43.1714C613.743 48.4286 611.343 57.1143 613.058 64.2C614.658 71.2857 607.8 70.8286 607.343 82.6C606.886 94.3714 612.829 94.8286 606.658 99.6286C599.686 104.886 605.058 113.914 605.058 113.914L659.343 98.7143C659.343 98.7143 663 95.0571 661.515 86.8286C660.029 78.6 654.543 76.2 656.029 69.3429C657.515 62.2571 655.686 51.4 655.686 51.4L633.172 37Z" fill="#2C2A29"/>
<path d="M655.686 92.7712C655.686 92.7712 661.743 92.5426 665.971 100.428C670.086 108.314 681.971 125.228 681.971 125.228L692.6 95.9712C693.857 91.9712 707.571 96.4283 706.314 100.428C706.314 100.428 695.8 147.285 689.057 152.428C682.314 157.457 657.514 133.228 658.771 134.828C659.8 136.085 655.686 92.7712 655.686 92.7712Z" fill="#E2E3E8"/>
<path d="M694.428 95.7427L696.257 91.7427C696.257 91.7427 694.771 86.257 695.114 82.5999C695.228 78.7141 695.114 73.7999 696.142 74.5999C697.285 75.2856 697.628 80.657 698.428 81.5713C699.114 82.4856 705.857 79.2856 706.657 74.9427C707.571 70.5999 707.685 67.6284 709.171 70.0284C710.885 72.4284 713.743 79.7427 711.685 85.2284C709.514 90.7141 704.942 94.257 704.828 95.1713C704.6 96.0856 703.914 99.1713 703.914 99.1713C703.228 101.457 693.628 98.257 694.428 95.7427Z" fill="#FFBBA9"/>
<path d="M639 370.714L640.829 369.8L642.886 355.857L638.543 354.257L639 370.714Z" fill="url(#paint13_linear)"/>
<path d="M637.172 369.8L639 370.714L640.143 356.771C640.143 356.771 643.457 358.028 647.686 365.914C651.914 373.571 661.972 376.657 668.714 374.486C674.886 372.428 670.314 370.143 663.914 362.257C663.343 361.571 662.772 360.771 662.086 360.086C654.772 350.6 651.8 343.857 651.8 343.857C651.8 343.857 651.457 343.514 650.657 342.714C647.914 339.971 640.371 333.571 638.771 341.571C637.057 351.514 637.172 369.8 637.172 369.8Z" fill="url(#paint14_linear)"/>
<path d="M643.914 347.971C647.571 349.571 651.457 355.857 654.657 359.857C657.971 363.742 663.8 362.257 663.8 362.257C663.228 361.571 662.657 360.771 661.971 360.085C654.657 350.6 651.686 343.857 651.686 343.857C651.686 343.857 651.343 343.514 650.543 342.714C646.886 344.2 641.628 347.057 643.914 347.971Z" fill="url(#paint15_linear)"/>
<path d="M663.343 246.942C663.343 246.942 663.115 259.171 659.343 280.2C655.458 301.228 651.458 335.057 652.029 344.657C652.029 351.285 639 348.999 639 342.485C639 342.485 637.4 322.257 637.4 301C637.4 279.742 641.972 258.371 641.972 258.371L663.343 246.942Z" fill="url(#paint16_linear)"/>
<path d="M663.114 168.429C663.114 168.429 673.171 192.886 665.628 248.657C659.914 289.8 658.086 285.572 653.171 340.2L637.857 339.629C637.857 339.629 632.943 312.2 637.171 282.6C641.171 253 631.914 201.686 631.914 201.686C631.914 201.686 644.714 171.4 646.2 171.743C648.028 172.086 663.114 168.429 663.114 168.429Z" fill="url(#paint17_linear)"/>
<path d="M608.371 373.571H610.2L611.457 365.343C611.457 365.343 612.371 385.457 617.857 389.686C620.028 391.286 622.771 392.2 625.171 391.743C628.828 391.171 629.171 389 629.4 380.543C629.4 378.486 629.4 376.314 629.171 374.371C628.257 363.057 625.171 350.6 625.171 350.6C625.171 350.6 624.828 350.257 624.028 349.457C621.514 347.286 615.228 342.714 612.485 350.6C609.057 360.657 608.371 373.571 608.371 373.571Z" fill="url(#paint18_linear)"/>
<path d="M612.486 350.943C612.486 350.943 613.172 351.171 613.972 353C614.886 354.828 614.658 370.371 617.972 374.143C624.715 381.8 628.601 374.714 629.172 374.371C628.258 363.057 625.172 350.6 625.172 350.6C625.172 350.6 624.829 350.257 624.029 349.457L612.486 350.943Z" fill="url(#paint19_linear)"/>
<path d="M638.085 254.257C638.085 254.257 636.599 269.114 628.942 297.343C624.028 315.285 625.285 350.485 625.285 350.485C625.285 354.371 612.714 354.371 612.714 350.485C612.714 350.485 608.371 334.028 607.571 312.428C606.885 290.828 613.056 271.171 613.628 258.485L638.085 254.257Z" fill="url(#paint20_linear)"/>
<path d="M651.229 172.771C651.229 172.771 643.915 240.771 636.829 271.057C629.744 301.571 626.201 328.2 625.858 344.886C625.858 349.686 609.629 349.686 609.629 344.886C609.629 344.886 602.544 307.743 607.801 282.371C613.058 257 611.458 246.029 609.286 222.943C607.115 199.971 609.629 186.6 620.029 174.371L651.229 172.771Z" fill="url(#paint21_linear)"/>
<path d="M602.314 114.143C602.314 114.143 604.829 121.114 609.4 129C609.972 129.914 610.543 130.828 611 131.743C616.486 140.886 620.143 174.486 620.143 174.486C628.372 176.886 635.114 177.571 640.829 177.457C657.286 176.886 663.114 168.543 663.114 168.543C663.114 168.543 661.515 153 664.6 143.171C665.286 141.114 666.086 139.286 667.114 138.028C668.6 136.428 669.629 134.714 670.429 133.228C673.172 127.971 671.914 123.4 667.114 113.914C661.057 101.686 656.372 92.8856 656.372 92.8856H640.829C640.829 92.8856 633.743 88.8856 622.429 95.9713C611.457 102.828 602.314 114.143 602.314 114.143Z" fill="url(#paint22_linear)"/>
<path d="M609.4 129.228C609.972 130.143 610.543 131.057 611 131.971C616.486 141.114 620.143 174.714 620.143 174.714C628.372 177.114 635.115 177.8 640.829 177.686C654.315 171.514 650.886 160.2 652.372 151.057C653.515 143.743 660.029 143.743 664.829 143.4C665.515 141.343 666.315 139.514 667.343 138.257C668.829 136.657 669.858 134.943 670.658 133.457C669.058 135.514 666.086 136.2 662.429 137.343C657.172 138.828 652.715 136.2 643.572 140.314C634.429 144.314 627.458 139.743 624.715 133.571C622.2 127.514 615.8 121.343 615.8 121.343L609.4 129.228Z" fill="#F17757"/>
<path d="M665.744 150.143L668.716 149.228C668.716 149.228 672.716 145.914 673.63 145.228C674.544 144.543 690.658 141.228 691.687 142.143C692.83 143.286 688.258 150.714 685.858 153.457C683.458 156.2 675.458 157.343 673.973 157.343C672.487 157.343 671.23 157.571 671.23 157.571L667.23 159.4L665.744 150.143Z" fill="#FFBBA9"/>
<path d="M617.057 171.285C624.943 176.771 668.029 161.228 668.029 161.228C669.286 160.885 669.629 158.828 669.515 156.657C669.172 153 667.343 148.771 665.172 149.343L627.343 153.228L623.457 133.457C619.572 121.343 609.057 114.143 604.143 113.914C603 113.914 602.315 114.143 601.972 114.828C599.8 118.143 609.057 165.8 617.057 171.285Z" fill="#F0F3F7"/>
<path d="M623.914 95.857C630.085 100.2 636.371 104.428 640.943 105.571C640.943 105.571 642.771 104.086 643.114 102.143C644.028 98.8284 643.114 94.5999 643.114 94.5999V90.3713L623.914 81.5713C625.171 86.7141 624.828 91.2856 623.914 95.857Z" fill="#FFBBA9"/>
<path d="M623.914 81.5713C624.257 82.8284 630.085 102.943 643.114 101.8C644.028 98.4856 643.114 94.257 643.114 94.257V90.0284L623.914 81.5713Z" fill="#FD958D"/>
<path d="M655.457 58.7146C655.457 58.7146 656.142 66.6003 653.628 78.8289C651.114 91.0575 648.371 92.3146 643.228 91.8575C629.742 90.2575 623.914 81.5718 623.914 81.5718C623.914 81.5718 622.314 81.5718 619.571 78.486C618.428 77.2289 617.4 74.6003 616.828 72.7718V55.6289L655.457 58.7146Z" fill="#FFBBA9"/>
<path d="M640.828 105.572L637.399 105.229L633.171 111.629C633.171 111.629 622.199 102.829 621.514 96.0861C622.085 94.4861 622.771 92.7718 624.485 91.5146C628.599 97.4575 633.856 102.258 640.828 105.572Z" fill="url(#paint23_linear)"/>
<path d="M640.828 105.572C640.828 105.572 643.8 101.572 643.228 91.8574L645.285 92.086C645.285 92.086 650.428 97.3431 648.6 107.4L644.028 104.315L640.828 105.572Z" fill="url(#paint24_linear)"/>
<path d="M654.887 70.9428L655.458 57.9142C655.458 57.9142 651.458 67.6285 642.429 67.4C633.515 67.1714 633.515 66.2571 629.629 71.6285C625.744 76.8857 618.087 74.7142 618.087 74.7142C618.087 74.7142 618.429 80.4285 623.344 81.6857C623.344 81.6857 616.372 81.1142 614.772 71.4C613.172 61.5714 611.687 52.0857 618.087 47.8571C624.487 43.5142 623.229 39.2857 630.658 37.2285C635.001 36.0857 640.715 38.3714 644.372 40.5428C648.029 42.7142 654.658 43.8571 657.515 51.2857C661.172 58.7142 657.63 66.3714 654.887 70.9428Z" fill="#2C2A29"/>
<path d="M557.742 268.886C554.885 268.886 549.97 272.086 547.113 277.229C542.313 285.229 538.428 314.829 538.428 314.829L514.656 327.4C514.656 327.4 518.885 330.6 519.456 337.686C526.199 338.029 540.37 336.086 545.17 333.8C549.628 331.514 566.428 282.029 566.428 282.029L557.742 268.886Z" fill="#623B2A"/>
<path d="M593.056 521.457C590.771 514.028 591.457 503.743 592.371 493.8C587.914 496.086 582.771 498.028 577.514 498.943C580.371 509.571 583.571 518.257 583.571 520.2C583.571 522.485 581.971 524.657 583.571 528.885C584.828 532.771 584.828 537.571 584.485 544.657C584.142 557.228 586.085 561.686 595.456 559.743C601.285 558.486 602.199 553 599.342 542.028C597.971 535.628 595.342 528.543 593.056 521.457Z" fill="#FFC9B6"/>
<path d="M548.713 481.571C544.828 481.571 540.028 479.971 535.799 478.028C535.799 480.314 535.456 482.828 535.456 485.114C534.199 499.971 535.799 502.828 527.456 507.628C520.028 512.085 519.114 513.457 515.228 518.257C512.599 521.8 516.828 523.743 520.371 523.4C528.142 522.485 535.228 515.057 539.342 514.028C543.571 512.771 549.285 511.4 548.713 506.943C548.028 502.143 547.113 502.143 546.428 497.914C546.085 494.143 547.113 487.971 548.713 481.571Z" fill="#FFC9B6"/>
<path d="M570.542 364.086L538.085 357.686C538.085 357.686 535.799 373.457 531.685 389.571C527.457 405.686 529.057 422.028 530.999 430.714C532.257 437.8 534.199 448.086 534.542 454.828C535.228 465.457 532.942 500.543 532.942 500.543C532.942 500.543 537.399 503.743 541.285 503.743C546.085 503.743 548.371 500.543 548.371 500.543C548.371 500.543 549.057 491.171 551.571 479.971C554.199 469 557.628 461.343 557.628 454.828C557.971 445.8 557.285 442.943 554.999 435.171C558.199 429.114 565.628 412.657 566.885 393C568.599 378.257 570.542 364.086 570.542 364.086Z" fill="url(#paint25_linear)"/>
<path d="M632.943 302.371C632.943 300.085 632.029 297.914 630.657 295.628C629.4 293.685 627.8 291.742 626.2 290.142C623 286.6 618.772 283.4 621.743 277.914C622.657 276.314 624.6 275.057 625.971 273.685C627.229 272.085 627.914 270.485 628.257 268.542C628.943 265 628.257 261.457 626.314 258.6C623.686 254.371 619.229 253.8 615.343 251.171C613.057 249.914 611.457 246.714 611.457 244.085C611.457 242.828 613.057 241.228 613.4 239.628C613.743 238.371 614.086 236.771 613.743 235.4C613.4 232.2 611.114 229.342 608.6 227.971C606.314 226.714 603.8 227.057 601.514 227.057C598.657 227.057 595.457 227.057 593.514 225.457C591.229 223.857 590.657 221.914 587.686 221.228C583.229 219.971 578.314 221.914 575.8 225.685C572.6 230.142 572.6 235.971 574.886 240.771C575.8 243.4 578.772 246.6 581.972 248.771C585.514 251.4 586.772 253 587.457 257.457C587.8 259.742 587.8 263.514 589.4 266.142C590.314 269.685 592.257 272.885 595.229 275.171C597.172 276.428 599.457 277.114 601.286 278.371C605.172 280.657 605.172 284.771 604.486 288.657C604.143 289.571 602.543 291.857 603.229 294.485C604.143 298.028 609.057 296.085 609.629 300.885C610.314 306.942 601.857 311.171 605.172 317.914C607.457 323.057 614.2 323.742 619 322.371C627.8 320.657 634.543 311.057 632.943 302.371Z" fill="url(#paint26_linear)"/>
<path d="M589.858 238.028C588.943 236.771 587.572 236.428 586.315 236.771C586.658 235.514 586.315 234.143 585.4 233.228C584.486 232.314 583.115 232.543 581.858 232.886C581.858 232.886 581.515 232.886 581.515 233.228C581.515 232.543 581.172 231.628 580.829 230.943C580.143 230.028 578.886 229.343 577.629 229.686C575 230.371 573.743 234.828 574.429 237.457C574.429 237.8 574.772 237.8 574.772 237.8C575.686 241.343 578.315 243.857 581.172 246.143C582.086 246.828 583.115 247.743 584.372 247.743C585.629 247.743 587 246.486 587.915 245.457C589.286 243.514 591.458 240.314 589.858 238.028Z" fill="white"/>
<path d="M546.428 315.514C547.114 318.142 546.085 330.371 545.742 331.971C544.142 339.399 542.542 346.485 540.6 352.885C542.542 355.171 546.428 358.942 547 359.285C552.828 363.514 559.571 365.342 567 364.428C574.085 363.514 580.828 360.542 585.971 355.742C586.314 355.399 586.657 355.057 586.885 354.828C583.685 349.685 580.485 344.885 578.2 339.399C576.942 333.914 578.885 329.457 583 324.542C586.2 320.657 589.4 317.457 591 312.657C592.942 307.514 594.2 295.285 588.371 290.828C584.142 287.628 578.428 284.428 573.285 282.142C569.057 280.199 560.714 273.114 558.428 274.714C555.8 276.657 552.028 281.799 549.742 284.314C547.457 287.514 543.685 291.742 541.742 295.285C539.342 300.085 543.571 315.514 546.428 315.514Z" fill="#EDDCDA"/>
<path d="M592.714 369.914C585.286 358.943 555.114 367.286 555.114 367.286C555.114 367.286 554.657 385.914 560.257 397.229C561.514 404.314 567.343 436.2 572.829 451.286C569.629 456.086 570.543 464.771 571.229 472.2C572.143 483.171 577.057 497.343 578.314 504.657C579.914 512.086 582.2 518.486 582.2 518.486C582.2 518.486 587 521.343 590.2 520.428C593.4 519.514 593.743 517.8 593.743 517.8C593.743 517.8 594.657 471.743 593.057 455.4C593.057 449 595 429.343 596.257 420.314C598.2 409.228 600.143 380.886 592.714 369.914Z" fill="url(#paint27_linear)"/>
<path d="M544.829 328.771C543.915 338.371 538.772 348.771 533.857 360.314C541.286 374.828 564.715 381.914 578.886 378.6C585.286 377.342 591.115 374.714 596.6 371.171C595.686 368.542 595 365.685 593.972 363.171C590.772 353.8 584.6 344.885 584.372 341C583.115 330.371 597.515 306.257 595.915 300.085C593.286 291.057 589.743 289.114 584.372 285.571C582.772 284.657 576.029 294.943 564.143 300.657C559.343 302.943 554.2 314.143 547.686 313.571C547 296.885 555.457 280.771 564.715 275.971C561.515 275.057 560.257 274.371 560.257 274.371C560.257 274.371 549.286 283.057 545.172 289.457C540.943 295.857 538.772 300.085 540.372 306.143C540.943 310.371 545.515 322.6 544.829 328.771Z" fill="url(#paint28_linear)"/>
<path d="M579.914 266.371C579.914 265.685 572.142 267.971 568.371 268.314C568.371 268.314 568.371 267.971 568.028 267.971C568.028 267.628 567.685 267.971 567.685 267.971C567.342 271.856 567.685 275.056 565.399 278.256C564.142 279.856 562.199 282.142 559.914 285.685C557.971 288.885 558.999 288.314 561.171 290.142C565.056 292.999 575.342 292.085 582.085 285.685C581.399 284.771 579.799 283.399 579.456 281.228C578.885 278.599 579.914 272.085 579.914 266.371Z" fill="#FFB9A4"/>
<path d="M565.401 278.6C565.401 278.6 562.201 285.685 561.858 289.571C567.344 288.314 577.972 285.114 577.972 285.114L562.544 300.885C562.544 300.885 560.601 294.142 560.944 291.514C557.058 293.114 552.258 293.114 552.258 293.114C552.258 293.114 560.601 278.828 565.401 278.6Z" fill="white"/>
<path d="M561.514 272.428C561.514 272.428 554.428 277.571 551.228 281.113C546.428 286.599 542.885 292.999 542.885 292.999L548.028 298.485L542.199 301.685C542.199 301.685 543.114 310.713 544.142 313.571C545.056 317.799 548.942 322.942 548.942 322.942C548.942 322.942 550.199 304.656 550.885 300.085C551.799 293.685 557.285 285.913 563.799 279.171C564.828 277.913 561.514 272.428 561.514 272.428Z" fill="#623B2A"/>
<path d="M552.258 256.657C552.258 252.2 552.944 246.028 556.144 242.485C559.344 238.943 565.515 238.257 569.972 238.257C577.058 238.257 582.543 245.685 581.858 254.943C581.172 263.285 576.372 276.771 567.343 279.057C557.058 282.028 552.258 263.743 552.258 256.657Z" fill="#FFC9B6"/>
<path d="M540.599 246.028C541.514 244.086 543.228 243.4 544.828 243.171C543.228 241.571 542.542 238.943 544.142 236.771C546.085 234.143 549.971 234.486 551.914 236.771C556.371 233.914 561.856 233.228 567.342 233.571C569.971 233.914 573.171 233.914 575.342 234.828C576.256 235.171 578.885 238.714 578.885 238.714C579.228 238.714 579.228 238.714 579.571 239.057H579.914C592.485 239.4 587.685 260.314 580.256 268.657C578.314 266.371 577.971 265.114 576.028 261.228C575.342 259.628 574.085 255.743 573.171 254.486C570.885 256.428 565.742 256.771 561.628 256.771C560.371 257.457 558.771 258.028 557.399 258.371C552.256 259.971 546.771 259.286 542.885 255.514C540.599 253.114 539.342 249.228 540.599 246.028Z" fill="url(#paint29_linear)"/>
<path d="M573.514 258.599C573.514 258.599 576.142 253.456 578.657 256.313C580.942 259.171 579.342 265.685 576.714 265.685C573.742 265.685 573.514 258.599 573.514 258.599Z" fill="#FFC9B6"/>
<path d="M548.029 503.742C548.029 503.742 545.743 506.599 545.172 508.542C541.629 510.485 537.743 511.742 533.286 514.714C528.829 517.571 525.858 519.514 522.658 517.342C519.458 515.056 519.115 513.799 519.115 513.799C519.115 513.799 513.972 516.999 512.715 518.942C511.458 521.228 515.572 526.714 522.658 526.028C529.743 525.342 532.601 520.885 536.829 518.028C541.058 515.171 544.601 514.142 548.143 511.971C551.229 509.228 548.029 503.742 548.029 503.742Z" fill="#F9744B"/>
<path d="M584.715 544.657C584.715 544.657 587 550.714 589.172 552.086C592.029 553.686 596.6 553.686 598.543 550.829C599.8 548.543 600.143 545.343 600.143 545.343C600.143 545.343 606.543 561.457 592.372 562.029C582.2 562.6 584.715 544.657 584.715 544.657Z" fill="#F9744B"/>
<path d="M579.571 279.514C579.571 279.514 578.885 282.142 576.943 284.657C573.4 288.542 567.342 293.685 562.085 298.485C556.257 303.628 548.6 315.514 548.6 315.514L548.942 321.914C548.942 321.914 562.085 312.542 567.914 309.685C567.228 306.485 564.714 300.657 564.714 300.657L574.657 304.199L585.971 287.171C585.971 287.171 585.628 284.542 583.342 281.685C583.114 281.114 579.571 279.514 579.571 279.514Z" fill="#623B2A"/>
<path d="M527.8 319.742L525.857 320.999L541.286 356.999L543.229 356.085L527.8 319.742Z" fill="#CCBCBC"/>
<path d="M499.113 305.571L501.056 304.313L527.799 319.742L525.856 320.999L499.113 305.571Z" fill="#EDDCDA"/>
<path d="M514.313 349L546.199 367.286L527.913 323.857L496.027 305.8L514.313 349Z" fill="#F17757"/>
<path d="M529.971 322.6L527.686 323.857L545.971 367.285L548.257 365.685L529.971 322.6Z" fill="#E04E39"/>
<path d="M495.914 305.913L498.543 304.313L530.086 322.599L527.8 323.856L495.914 305.913Z" fill="#F49678"/>
<path d="M543.914 348.999C542.657 347.742 542.314 346.142 540.714 343.171C539.114 340.314 538.085 339.285 537.857 340.542C537.171 342.142 539.114 345.342 538.2 346.599C537.857 347.285 534.314 347.856 532.143 347.285C529.857 346.599 527 344.428 525.057 344.656C521.857 345.342 524.371 348.542 526.657 351.056C530.885 355.285 538.2 354.942 542.086 356.199C545.971 357.456 555.228 357.456 555.228 357.456C555.228 357.456 555.914 351.056 553.628 348.085C550.314 348.314 545.743 348.999 543.914 348.999Z" fill="#FFC9B6"/>
<path d="M588.943 289.457C590.2 290.143 593.743 293 596.028 296.886C599.228 302.943 598.886 311.628 596.943 322.943C595.343 332.314 593.4 350.6 586.314 356.086C575.686 357.686 548.371 358.371 548.371 358.371C548.371 358.371 546.771 350.943 548.371 347.743C551 347.057 567.343 344.2 576.371 344.543C576.714 336.771 577.057 329.457 577.057 319.4C577.286 309.8 576.714 301.343 588.943 289.457Z" fill="#623B2A"/>
<path d="M550.314 325.799C550.657 326.485 550.314 327.399 549.628 327.399C548.942 327.399 548.371 327.056 548.371 326.142C548.028 325.456 548.371 324.542 549.057 324.542C549.285 324.542 549.971 324.885 550.314 325.799Z" fill="white"/>
<path d="M547.115 345.799C547.115 346.714 546.429 347.399 545.858 347.399C545.172 347.399 544.943 346.714 544.943 345.799C544.943 344.885 545.629 344.199 546.201 344.199C546.772 344.199 547.343 344.771 547.115 345.799Z" fill="white"/>
<path d="M563.342 307.057L566.999 309.114L569.056 305.457L565.399 303.399L563.342 307.057Z" fill="#EDDCDA"/>
<path d="M556.029 310.371L567.686 317.114L572.144 309.342L560.486 302.6L556.029 310.371Z" fill="white"/>
<path d="M397.629 509.8C398.886 506.257 403.115 495.286 404.715 491.514C405.629 489.229 414.086 488.314 414.086 488.314C414.086 489.572 414.086 493.114 414.086 494.143C414.086 495.743 414.086 498.943 411.801 500.886C411.801 503.743 410.543 507.629 408.601 512.429C406.315 517.572 402.543 519.857 399.572 519.172C396.029 518.486 395.686 515.286 397.629 509.8Z" fill="#F17757"/>
<path d="M454.544 424.657C453.629 422.029 456.372 411.172 458.315 401.457C460.601 388.314 460.258 367.972 455.115 358.714C453.515 355.857 449.629 350.372 446.772 348.086C438.429 354.829 409.744 353.914 409.744 353.914C404.258 360.314 403.458 362.6 402.544 367.743C398.201 384.886 399.001 397 402.201 406.029C403.686 417.8 404.715 424.657 403.686 431.743C402.886 438.943 402.658 446.943 401.629 454.029C399.344 467.172 403.572 480.429 403.572 494.6C407.115 497.8 409.972 496.886 412.944 494.6C412.944 494.6 418.315 468.886 419.001 456.657C419.344 451.172 420.715 435.057 421.286 431.857C422.886 422.486 424.829 420.543 427.686 409.686C430.544 397.8 432.144 388.772 432.144 388.429C435.001 406.143 435.801 413.229 436.029 421.914C436.029 425.114 433.744 434.829 436.715 443.172C440.258 453.114 439.915 461.8 443.115 471.172C445.972 474.372 452.144 473.114 452.715 470.257C452.601 459.743 454.544 440.086 454.544 424.657Z" fill="#382323"/>
<path d="M377.972 500.886C377.972 500.886 377.629 504.429 376.372 507.972C375.458 511.514 376.715 516.657 376.715 516.657C376.715 516.657 377.401 518.943 380.944 519.515C384.144 520.2 386.772 519.515 386.772 519.515C386.772 519.515 389.972 523.4 393.858 526.257C398.087 529.114 407.001 531.4 409.287 531.057C413.172 530.372 415.344 527.514 415.115 525.229C414.772 523.286 410.315 517.8 406.429 515.286C403.801 513.686 398.429 508.543 396.829 506.6C393.972 503.743 392.029 500.2 392.029 500.2L377.972 500.886Z" fill="#2C2A29"/>
<path d="M372.487 344.2C372.487 344.2 384.03 373.457 385.63 385.114C387.573 397 391.116 414.714 393.059 429.572C395.345 444.429 395.345 458.829 393.973 473.343C393.63 479.172 391.345 494.257 392.716 502.257C391.459 507.743 378.887 508.314 377.63 501.914C376.716 498.029 367.002 463.972 366.087 453.343C365.173 442.714 367.687 435.057 367.687 435.057C367.687 435.057 352.259 402.257 346.773 389C341.287 375.857 345.173 359.743 345.173 359.743L372.487 344.2Z" fill="url(#paint30_linear)"/>
<path d="M319.343 530.714C319.343 530.714 317.057 538.485 317.4 542.942C317.743 547.4 318.657 548.428 320.029 550.028C321.286 551.628 322.886 550.942 322.886 550.942C322.886 550.942 323.572 560.314 328.029 564.085C332.486 567.971 340.6 568.314 344.143 566.942C347.686 565.685 345.4 558.942 341.857 552.428C338.315 546.028 333.515 538.942 332.486 532.771C323.915 531.742 319.343 530.714 319.343 530.714Z" fill="#2C2A29"/>
<path d="M331.573 356.085C331.573 356.085 326.087 364.085 321.63 377.914C318.43 387.514 319.001 411.056 319.001 411.056C319.001 411.056 318.087 434.257 319.687 442.257C321.287 450.257 320.944 451.856 320.944 451.856C320.944 451.856 314.544 471.171 315.459 493.685C316.373 516.199 318.316 532.656 318.316 532.656C318.316 532.656 319.573 536.885 325.401 537.456C330.544 538.142 334.773 534.256 334.773 534.256C334.773 534.256 344.373 486.371 347.916 475.399C351.459 464.428 352.716 451.856 352.716 451.856L360.144 397.799C360.144 397.799 364.601 389.799 367.23 364.314C362.773 349.571 331.573 356.085 331.573 356.085Z" fill="url(#paint31_linear)"/>
<path d="M434.201 288.657C434.201 288.657 437.972 291.4 436.829 298.257C435.572 305 434.886 321.114 434.886 321.114L455.344 308.2C458.086 306.372 464.372 315.629 461.629 317.457C461.629 317.457 432.829 341.229 426.201 341.114C419.686 341 416.029 314.257 416.029 315.972C416.029 317.114 434.201 288.657 434.201 288.657Z" fill="#E2E3E8"/>
<path d="M456.601 308.886L459.573 307.286C459.573 307.286 461.287 303.171 463.23 301.114C465.173 298.828 467.344 295.743 467.687 296.657C468.03 297.571 465.744 301.114 465.744 302.028C465.744 302.943 471.344 304.2 473.973 301.914C476.601 299.628 478.087 297.914 477.858 300.086C477.744 302.371 476.144 308.2 472.144 310.6C468.144 312.886 463.687 312.886 463.23 313.343C462.658 313.8 460.716 315.4 460.716 315.4C459.23 316.657 454.773 310.028 456.601 308.886Z" fill="#FFBBA9"/>
<path d="M430.429 335.514C424.601 328.771 407.915 322.371 405.629 319.743C405.629 319.743 400.143 310.714 397.858 305.571C396.258 301.685 394.315 291.057 390.429 284.657C386.201 277.228 381.743 275.285 375.001 273.114C373.058 272.428 371.458 272.428 369.858 274.028C367.915 276.314 368.258 279.857 368.258 282.371C368.258 286.6 368.258 291.057 368.258 295.285C368.258 300.428 376.258 313 377.858 315.285C379.801 317.914 384.943 327.171 387.229 329.457C388.829 331.4 397.172 337.8 399.801 339.4C402.086 341 415.915 348.085 426.543 349.685C429.743 350.257 437.743 344.2 430.429 335.514Z" fill="url(#paint32_linear)"/>
<path d="M373.4 278.828C364.372 274.943 349.286 281.685 349.629 281.114C349.972 280.771 337.058 288.2 337.058 288.2C328.029 291.743 318.772 294.028 313.286 306.257C310.658 312.085 320.029 324.885 323.915 342.257C325.515 350.028 325.858 361.228 323.001 366.371C321.058 369.914 316.601 375.4 329.401 379.514C333.286 380.771 350.658 387.514 360.943 385.571C365.743 384.657 390.2 372.085 383.343 367.285C381.4 366.028 380.6 363.4 381.858 361.228C382.772 359.285 382.772 355.743 381.858 351.857C379.915 342.257 381.515 338.714 382.772 331.285C379.915 321.8 388.258 316.543 384.029 305.228C381.515 297.457 382.429 282.714 373.4 278.828Z" fill="#EDDCDA"/>
<path d="M337.059 288.2C337.059 288.2 343.116 292.429 347.344 297.8C351.573 303.286 355.116 308.429 359.916 311.629C364.373 314.829 369.516 309.343 371.801 300.314C374.087 291.286 363.116 276.543 363.116 276.543C363.116 276.543 342.887 283.286 337.059 288.2Z" fill="#CCBCBC"/>
<path d="M357.629 267.285C357.629 267.285 354.429 262.143 351.572 266.028C347.115 271.857 353.515 274.714 353.515 274.714L357.629 267.285Z" fill="#FFC9B6"/>
<path d="M374.429 280.086C374.429 280.086 371.229 283.629 369.629 284.315C371.915 287.172 376.029 286.257 377.057 283.4C376.029 281.686 374.429 280.086 374.429 280.086Z" fill="#FFC9B6"/>
<path d="M366.087 346.028C366.087 346.028 359.344 348.657 352.258 351.857C345.173 355.057 341.973 357.343 341.973 357.343C341.973 357.343 347.801 357.343 356.487 353.457C365.058 349.343 366.087 346.028 366.087 346.028Z" fill="#CCBCBC"/>
<path d="M369.858 330.6C369.858 330.6 356.029 336.428 349.629 339.628C342.886 342.828 340.029 345.685 340.029 345.685C340.029 345.685 346.772 344.428 357.401 340.2C368.029 336.771 369.858 330.6 369.858 330.6Z" fill="#CCBCBC"/>
<path d="M422.886 249C425.743 246.715 430.886 243.857 435.8 243.515C431.915 240.657 427.458 238.372 422.658 237.115C417.515 235.515 417.172 237.8 414.315 241C411.115 244.886 405.629 243.629 404.715 249.686C404.029 255.172 407.572 261.572 411.115 266.372C412.943 259.515 417.743 253.115 422.886 249Z" fill="#E04E39"/>
<path d="M440.944 241.228C435.459 237.686 426.087 239.286 420.716 242.143C412.03 246.943 400.716 263.743 407.23 274.6C413.287 285.228 428.487 280.657 435.23 273.914C438.087 271.057 440.716 267.514 442.316 263.628C444.716 260.543 450.201 247.057 440.944 241.228Z" fill="#F17757"/>
<path d="M452.83 468.656C454.773 470.942 457.058 473.114 458.887 475.399C461.744 478.256 464.944 481.456 467.916 484.085C471.458 487.285 471.801 491.171 465.973 490.828C456.373 490.142 454.087 486.371 449.516 482.828C448.83 482.485 447.916 483.513 445.287 482.485C442.087 481.228 441.744 480.885 441.744 477.685C441.744 475.742 442.087 471.628 443.001 469.685C442.544 469.342 449.973 465.799 452.83 468.656Z" fill="#F17757"/>
<path d="M414.201 296.886C416.487 298.829 418.43 300.086 421.287 301.114C424.487 302.029 428.03 302.372 429.973 299.514C430.887 298.257 431.23 296.657 431.573 295.286C430.658 294.943 429.973 294.029 429.63 293.343C429.287 292.086 430.316 289.8 430.316 288.543C430.658 286.6 431.001 284.657 431.23 282.714C428.373 281.114 426.087 279.172 422.887 278.486C421.287 278.143 418.658 273 417.058 272.429C417.973 276.657 416.716 282.714 416.373 285C415.687 287.857 415.458 289.229 413.516 291.743C413.858 291.743 413.516 296.2 414.201 296.886Z" fill="#FFB9A4"/>
<path d="M453.287 352.542C450.201 347.057 446.087 344.2 444.373 338.028C442.658 331.628 443.23 324.885 444.944 319.057C445.287 318.371 444.601 317.799 443.915 317.799C431.801 317.457 421.058 322.028 409.173 324.542C409.173 324.542 409.173 324.542 408.83 324.542C408.487 324.542 408.487 324.2 408.144 324.2C407.801 323.857 407.458 324.542 407.458 324.885C410.544 328.771 411.573 332.657 412.601 337.914C412.258 344.657 402.887 358.714 402.201 361.914C407.458 367.4 421.973 371.285 434.43 367.4C443.573 364.428 453.287 358.371 453.287 352.542Z" fill="#F17757"/>
<path d="M441.858 300.429C439.573 296.2 436.03 290.486 432.83 286.943C432.487 286.6 430.544 288.543 429.287 286.943C427.344 284.657 426.43 285 429.63 292.086C431.23 297.571 428.03 301.686 421.858 297.914C420.258 297 415.115 292.771 413.515 291.857C411.23 294.143 408.715 296.086 405.744 297.686C404.487 298.371 403.115 299.286 402.201 299.971C402.201 300.886 402.544 301.914 402.544 302.6C402.887 305.229 402.887 307.4 403.458 309.686C403.801 311.971 404.373 317.457 407.001 322.257C409.287 325.114 412.144 329.686 414.773 334.486C421.173 339.286 435.687 336.086 441.173 330.6C442.43 321.229 446.315 319.286 446.658 312.543C446.658 308.771 443.458 303.629 441.858 300.429Z" fill="#F17757"/>
<path d="M443.458 266.028C443.115 261.571 442.201 256.085 439.001 252.885C435.458 249.685 431.915 249.343 427.687 249.685C420.944 250.028 414.772 259.971 416.144 269C417.058 277 421.63 287.285 430.658 289C440.258 290.485 443.801 272.771 443.458 266.028Z" fill="#FFC9B6"/>
<path d="M453.743 255.057C452.829 253.457 451.115 252.771 449.515 252.771C450.772 251.171 451.457 248.542 449.515 246.714C447.229 244.085 444.029 245.114 442.086 247.399C432.143 243.514 422.086 248.657 416.943 255.171C414.657 258.028 411.457 265.799 412.143 272.542C413.743 276.085 414.772 277.342 416.943 279.628C418.543 277.342 418.886 276.085 420.486 272.199C421.172 270.599 422.086 266.714 422.772 265.457C425.057 267.057 430.2 267.057 434.086 266.714C435.343 267.399 436.943 267.628 438.315 267.971C443.457 269.228 448.6 268.314 452.143 264.085C454.086 261.799 455.343 257.914 453.743 255.057Z" fill="#382323"/>
<path d="M423.23 268.886C423.23 268.886 420.373 264.086 418.087 266.943C415.801 269.8 418.087 275.972 420.715 275.629C423.23 275.972 423.23 268.886 423.23 268.886Z" fill="#FFC9B6"/>
<path d="M422.543 326.828C422.543 326.828 427 321.685 433.514 318.485C439.914 315.285 443.8 314.942 443.8 314.942C443.8 314.942 437.057 321.342 433.514 323.285C429.972 325.571 422.543 326.828 422.543 326.828Z" fill="#E04E39"/>
<path d="M439 333.571C434.772 338.714 437.743 347.743 443.457 349.686C449.286 351.971 453.743 346.143 450.886 340.657C447.686 334.486 443.8 327.743 439 333.571Z" fill="#FFC9B6"/>
<path d="M336.373 288.314C336.373 288.314 347.001 302.486 350.201 321.8C353.401 341.114 350.201 361 350.201 375.172C350.201 389 351.802 416.657 351.802 416.657C351.802 416.657 338.887 418.943 329.287 417C319.002 414.714 312.83 407.4 312.83 407.4C312.83 407.4 318.887 375.514 323.459 355.972C325.401 347.286 320.259 327.972 316.716 317.686C314.773 311.286 313.516 302.943 318.659 297.114C322.544 292.429 331.23 290.829 336.373 288.314Z" fill="url(#paint33_linear)"/>
<path d="M325.172 293.343C325.172 293.343 312.029 295.286 306.887 308.428C301.744 321.343 305.629 326.714 302.658 335.4C300.029 344.086 301.058 346.028 300.372 353.114C299.687 360.2 302.315 359.514 304.829 361.8C307.115 363.4 305.515 366.257 322.201 374.028C332.829 378.828 348.258 378.828 348.258 378.828L347.572 367.286C347.572 367.286 344.029 365.343 336.601 358.257C327.915 350.486 319.915 349.571 319.915 349.571C319.915 349.571 326.315 338.028 330.887 329C335.115 319.4 328.372 298.828 325.172 293.343Z" fill="url(#paint34_linear)"/>
<path d="M343.802 364.085C343.802 364.085 339.573 362.828 337.059 368.314C335.459 372.542 336.373 376.085 337.973 377.685C340.259 377.685 343.802 378.371 345.973 380.314C351.116 384.199 357.516 391.628 362.087 393.799C368.83 396.999 370.43 392.885 371.116 388.657C371.802 384.771 368.259 381.571 365.287 379.285C362.087 376.657 360.144 374.828 361.059 373.799C361.744 373.457 365.516 375.057 368.144 373.799C370.773 372.542 369.744 370.599 365.287 370.257C363.002 369.914 362.087 368.657 357.516 367.971C354.316 367.628 353.059 369.228 352.03 368.657C349.287 366.942 345.744 365.342 343.802 364.085Z" fill="#FFC9B6"/>
<path d="M368.83 276.543C368.83 276.543 376.258 277.457 380.144 286.486C384.373 295.857 385.63 306.143 385.63 320.314C385.63 330.6 386.316 344.429 388.258 351.857C389.858 358.257 398.201 381.457 398.201 381.457C398.201 381.457 397.516 391.057 394.316 394.943C390.43 399.743 385.973 399.4 385.973 399.4C385.973 399.4 380.83 370.486 380.144 365.914C379.458 361.457 377.858 337.229 378.201 329.914C378.544 322.829 374.658 299.057 373.058 293.572C371.458 288.429 361.744 277.457 361.744 277.457L368.83 276.543Z" fill="url(#paint35_linear)"/>
<path d="M365.744 274.028C365.401 273.685 364.487 274.028 364.144 274.028C360.258 274.028 361.515 276.885 356.715 274.028C354.43 272.771 353.858 270.828 351.915 270.142C352.258 269.457 352.258 268.885 352.601 268.2C352.601 267.857 352.258 267.857 351.915 268.2C351.572 268.885 351.23 269.457 351.23 270.142C350.887 270.142 350.887 270.142 350.544 270.142C349.858 270.142 349.858 270.828 350.201 271.057L350.544 271.4C347.687 278.485 347.344 280.428 343.115 287.171C345.058 287.171 349.172 292.657 352.487 298.714C353.744 301.342 359.915 307.4 363.801 306.142C369.63 303.857 366.658 299.057 367.001 292.657C367.001 288.2 367.344 283.285 367.344 278.828C366.658 277.228 367.001 274.942 365.744 274.028Z" fill="#FFB9A4"/>
<path d="M377.628 255.972C372.828 249.914 361.857 248.543 355.114 252.772C353.514 253.457 351.914 254.029 350.886 255.057C346.428 258.943 347 266.029 348.257 271.172C350.2 278.943 361.4 296.886 371.8 290.143C377.286 286.6 380.828 277.572 381.743 271.514C382.086 265.914 381.171 260.543 377.628 255.972Z" fill="#FFC9B6"/>
<path d="M379.573 279.171C378.316 275.971 373.744 275.971 370.544 277.914C368.601 279.171 366.087 283.057 364.144 283.971C360.944 285.914 358.658 281.686 359.344 279.514C359.344 277.571 359.687 274.371 359.344 272.771C359.344 270.829 357.058 269.914 356.487 271.514C355.23 275.4 353.63 280.543 354.201 284.086C355.116 288.543 358.658 292.429 362.887 294.714C368.373 297.343 375.458 295.4 377.973 289.914C379.573 286.257 380.487 281.457 379.573 279.171Z" fill="#382323"/>
<path d="M384.715 244.428C381.172 239.971 372.486 234.143 366.658 237.343C364.715 238.257 363.458 240.543 363.801 242.828C358.315 241.914 348.029 245.457 345.743 250.257C341.515 258.257 344.486 272.428 348.372 276.657C352.258 273.114 358.315 266.028 359.915 259.285C366.315 262.485 375.001 262.828 381.515 258.943C386.315 255.971 388.601 249.571 384.715 244.428Z" fill="#382323"/>
<path d="M456.602 330.257L459.116 329.457C459.116 329.457 462.544 326.6 463.344 326.029C464.144 325.457 477.859 322.6 478.773 323.4C479.687 324.314 475.802 330.714 473.744 333.114C471.687 335.514 464.83 336.429 463.573 336.429C462.316 336.429 461.173 336.543 461.173 336.543L457.744 338.143L456.602 330.257Z" fill="#FFBBA9"/>
<path d="M415.115 348.314C421.857 352.999 458.772 339.742 458.772 339.742C459.915 339.399 460.143 337.685 460.029 335.857C459.686 332.771 458.2 329.114 456.257 329.571L423.915 332.885L420.6 315.971C417.286 305.685 408.257 299.399 404.029 299.285C403.115 299.285 402.429 299.399 402.2 300.085C400.257 302.828 408.257 343.628 415.115 348.314Z" fill="#F0F3F7"/>
</g>
<defs>
<linearGradient id="paint0_linear" x1="172.561" y1="443.43" x2="437.087" y2="-107.243" gradientUnits="userSpaceOnUse">
<stop stop-color="#ECE0D4"/>
<stop offset="1" stop-color="#FAEAD9"/>
</linearGradient>
<linearGradient id="paint1_linear" x1="109.761" y1="382.674" x2="104.07" y2="227.238" gradientUnits="userSpaceOnUse">
<stop offset="0.00505051" stop-color="#C39367"/>
<stop offset="1" stop-color="#704232"/>
</linearGradient>
<linearGradient id="paint2_linear" x1="82.552" y1="412.555" x2="75.7122" y2="237.374" gradientUnits="userSpaceOnUse">
<stop offset="0.00505051" stop-color="#C39367"/>
<stop offset="1" stop-color="#704232"/>
</linearGradient>
<linearGradient id="paint3_linear" x1="114.651" y1="281.418" x2="110.064" y2="163.711" gradientUnits="userSpaceOnUse">
<stop offset="0.00505051" stop-color="#C39367"/>
<stop offset="1" stop-color="#704232"/>
</linearGradient>
<linearGradient id="paint4_linear" x1="68.834" y1="293.092" x2="64.0799" y2="169.089" gradientUnits="userSpaceOnUse">
<stop offset="0.00505051" stop-color="#C39367"/>
<stop offset="1" stop-color="#704232"/>
</linearGradient>
<linearGradient id="paint5_linear" x1="245.916" y1="382.997" x2="240.226" y2="227.559" gradientUnits="userSpaceOnUse">
<stop offset="0.00505051" stop-color="#C39367"/>
<stop offset="1" stop-color="#704232"/>
</linearGradient>
<linearGradient id="paint6_linear" x1="275.139" y1="413.113" x2="268.301" y2="237.93" gradientUnits="userSpaceOnUse">
<stop offset="0.00505051" stop-color="#C39367"/>
<stop offset="1" stop-color="#704232"/>
</linearGradient>
<linearGradient id="paint7_linear" x1="259.833" y1="141.001" x2="265.817" y2="257.053" gradientUnits="userSpaceOnUse">
<stop offset="0.015625" stop-color="#EEE2D6"/>
<stop offset="1" stop-color="#F17757"/>
</linearGradient>
<linearGradient id="paint8_linear" x1="929.987" y1="360.069" x2="928.513" y2="242.54" gradientUnits="userSpaceOnUse">
<stop offset="0.00505051" stop-color="#C39367"/>
<stop offset="1" stop-color="#704232"/>
</linearGradient>
<linearGradient id="paint9_linear" x1="972.299" y1="391.152" x2="969.881" y2="250.442" gradientUnits="userSpaceOnUse">
<stop offset="0.00505051" stop-color="#C39367"/>
<stop offset="1" stop-color="#704232"/>
</linearGradient>
<linearGradient id="paint10_linear" x1="981.418" y1="124.755" x2="988.939" y2="261.983" gradientUnits="userSpaceOnUse">
<stop offset="0.015625" stop-color="#EEE2D6"/>
<stop offset="1" stop-color="#F17757"/>
</linearGradient>
<linearGradient id="paint11_linear" x1="935.722" y1="136.786" x2="940.467" y2="244.301" gradientUnits="userSpaceOnUse">
<stop offset="0.015625" stop-color="#EEE2D6"/>
<stop offset="1" stop-color="#F17757"/>
</linearGradient>
<linearGradient id="paint12_linear" x1="983.045" y1="161.131" x2="987.537" y2="266.694" gradientUnits="userSpaceOnUse">
<stop offset="0.015625" stop-color="#EEE2D6"/>
<stop offset="1" stop-color="#F17757"/>
</linearGradient>
<linearGradient id="paint13_linear" x1="641.22" y1="369.616" x2="640.54" y2="353.874" gradientUnits="userSpaceOnUse">
<stop offset="0.3021" stop-color="#C39367"/>
<stop offset="0.9375" stop-color="#704232"/>
</linearGradient>
<linearGradient id="paint14_linear" x1="654.413" y1="372.857" x2="653.962" y2="336.902" gradientUnits="userSpaceOnUse">
<stop offset="0.3021" stop-color="#C39367"/>
<stop offset="0.9375" stop-color="#704232"/>
</linearGradient>
<linearGradient id="paint15_linear" x1="653.695" y1="361.297" x2="653.483" y2="342.286" gradientUnits="userSpaceOnUse">
<stop offset="0.3021" stop-color="#C39367"/>
<stop offset="0.9375" stop-color="#704232"/>
</linearGradient>
<linearGradient id="paint16_linear" x1="653.194" y1="342.235" x2="648.794" y2="244.863" gradientUnits="userSpaceOnUse">
<stop offset="0.3021" stop-color="#C39367"/>
<stop offset="0.9375" stop-color="#704232"/>
</linearGradient>
<linearGradient id="paint17_linear" x1="655.801" y1="329.167" x2="646.91" y2="164.909" gradientUnits="userSpaceOnUse">
<stop offset="0.3021" stop-color="#C39367"/>
<stop offset="0.9375" stop-color="#704232"/>
</linearGradient>
<linearGradient id="paint18_linear" x1="619.166" y1="388.989" x2="618.067" y2="345.191" gradientUnits="userSpaceOnUse">
<stop offset="0.00505051" stop-color="#C39367"/>
<stop offset="1" stop-color="#704232"/>
</linearGradient>
<linearGradient id="paint19_linear" x1="621.108" y1="375.921" x2="620.579" y2="348.873" gradientUnits="userSpaceOnUse">
<stop offset="0.00505051" stop-color="#C39367"/>
<stop offset="1" stop-color="#704232"/>
</linearGradient>
<linearGradient id="paint20_linear" x1="625.241" y1="347.187" x2="621.689" y2="252.201" gradientUnits="userSpaceOnUse">
<stop offset="0.00505051" stop-color="#C39367"/>
<stop offset="1" stop-color="#704232"/>
</linearGradient>
<linearGradient id="paint21_linear" x1="632.856" y1="337.349" x2="625.363" y2="169.176" gradientUnits="userSpaceOnUse">
<stop offset="0.00505051" stop-color="#C39367"/>
<stop offset="1" stop-color="#704232"/>
</linearGradient>
<linearGradient id="paint22_linear" x1="634.991" y1="70.9622" x2="639.335" y2="173.682" gradientUnits="userSpaceOnUse">
<stop offset="0.015625" stop-color="#EEE2D6"/>
<stop offset="1" stop-color="#F17757"/>
</linearGradient>
<linearGradient id="paint23_linear" x1="628.661" y1="87.1874" x2="632.24" y2="106.635" gradientUnits="userSpaceOnUse">
<stop stop-color="#EBF2F3"/>
<stop offset="1" stop-color="white"/>
</linearGradient>
<linearGradient id="paint24_linear" x1="641.478" y1="84.8289" x2="645.057" y2="104.276" gradientUnits="userSpaceOnUse">
<stop stop-color="#EBF2F3"/>
<stop offset="1" stop-color="white"/>
</linearGradient>
<linearGradient id="paint25_linear" x1="554.071" y1="494.518" x2="548.404" y2="354.648" gradientUnits="userSpaceOnUse">
<stop offset="0.00505051" stop-color="#C39367"/>
<stop offset="1" stop-color="#704232"/>
</linearGradient>
<linearGradient id="paint26_linear" x1="598.922" y1="196.394" x2="606.074" y2="318.748" gradientUnits="userSpaceOnUse">
<stop offset="0.015625" stop-color="#EEE2D6"/>
<stop offset="1" stop-color="#F17757"/>
</linearGradient>
<linearGradient id="paint27_linear" x1="581.775" y1="510.735" x2="575.705" y2="360.969" gradientUnits="userSpaceOnUse">
<stop offset="0.00505051" stop-color="#C39367"/>
<stop offset="1" stop-color="#704232"/>
</linearGradient>
<linearGradient id="paint28_linear" x1="565.812" y1="372.837" x2="563.87" y2="272.157" gradientUnits="userSpaceOnUse">
<stop offset="0.00505051" stop-color="#C39367"/>
<stop offset="1" stop-color="#704232"/>
</linearGradient>
<linearGradient id="paint29_linear" x1="563.275" y1="224.945" x2="564.345" y2="267.09" gradientUnits="userSpaceOnUse">
<stop offset="0.015625" stop-color="#EEE2D6"/>
<stop offset="1" stop-color="#F17757"/>
</linearGradient>
<linearGradient id="paint30_linear" x1="372.414" y1="496.233" x2="366.723" y2="340.797" gradientUnits="userSpaceOnUse">
<stop offset="0.00505051" stop-color="#C39367"/>
<stop offset="1" stop-color="#704232"/>
</linearGradient>
<linearGradient id="paint31_linear" x1="345.203" y1="526.113" x2="338.363" y2="350.932" gradientUnits="userSpaceOnUse">
<stop offset="0.00505051" stop-color="#C39367"/>
<stop offset="1" stop-color="#704232"/>
</linearGradient>
<linearGradient id="paint32_linear" x1="368.276" y1="311.154" x2="433.432" y2="311.154" gradientUnits="userSpaceOnUse">
<stop offset="0.00505051" stop-color="#C39367"/>
<stop offset="1" stop-color="#704232"/>
</linearGradient>
<linearGradient id="paint33_linear" x1="333.631" y1="409.658" x2="328.877" y2="285.654" gradientUnits="userSpaceOnUse">
<stop offset="0.00505051" stop-color="#C39367"/>
<stop offset="1" stop-color="#704232"/>
</linearGradient>
<linearGradient id="paint34_linear" x1="300.306" y1="336.106" x2="348.347" y2="336.106" gradientUnits="userSpaceOnUse">
<stop offset="0.00505051" stop-color="#C39367"/>
<stop offset="1" stop-color="#704232"/>
</linearGradient>
<linearGradient id="paint35_linear" x1="382.37" y1="391.76" x2="377.783" y2="274.053" gradientUnits="userSpaceOnUse">
<stop offset="0.00505051" stop-color="#C39367"/>
<stop offset="1" stop-color="#704232"/>
</linearGradient>
<clipPath id="clip0">
<rect width="1064" height="530.857" fill="white" transform="translate(27 37)"/>
</clipPath>
</defs>
</svg>
