<svg width="8" height="12" viewBox="0 0 8 12" fill="none" xmlns="http://www.w3.org/2000/svg">
<path d="M6.83006 11C7.01631 10.8126 7.12085 10.5592 7.12085 10.295C7.12085 10.0308 7.01631 9.77736 6.83006 9.58999L3.29006 5.99999L6.83006 2.45999C7.01631 2.27263 7.12085 2.01918 7.12085 1.75499C7.12085 1.49081 7.01631 1.23736 6.83006 1.04999C6.73709 0.956266 6.62649 0.881871 6.50463 0.831103C6.38277 0.780334 6.25207 0.754196 6.12006 0.754196C5.98805 0.754196 5.85734 0.780334 5.73548 0.831103C5.61362 0.881871 5.50302 0.956266 5.41006 1.04999L1.17006 5.28999C1.07633 5.38296 1.00193 5.49356 0.951166 5.61542C0.900397 5.73728 0.874259 5.86798 0.874259 5.99999C0.874259 6.13201 0.900397 6.26271 0.951166 6.38457C1.00193 6.50643 1.07633 6.61703 1.17006 6.70999L5.41006 11C5.50302 11.0937 5.61362 11.1681 5.73548 11.2189C5.85734 11.2697 5.98804 11.2958 6.12006 11.2958C6.25207 11.2958 6.38277 11.2697 6.50463 11.2189C6.62649 11.1681 6.73709 11.0937 6.83006 11Z" fill="#58595B"/>
</svg>
