<svg width="65" height="46" viewBox="0 0 65 46" fill="none" xmlns="http://www.w3.org/2000/svg">
<g filter="url(#filter0_iii)">
<mask id="mask0" mask-type="alpha" maskUnits="userSpaceOnUse" x="26" y="0" width="34" height="46">
<path d="M59.7339 8C59.7339 3.58172 56.1522 0 51.7339 0H39.8128L26.5321 19.9211V37.2375C26.5321 41.6558 30.1138 45.2375 34.5321 45.2375H51.7339C56.1522 45.2375 59.7339 41.6558 59.7339 37.2375V8Z" fill="white"/>
</mask>
<g mask="url(#mask0)">
<g clip-path="url(#clip0)">
<rect width="34.2729" height="44.9831" transform="translate(25.4611)" fill="#FDFDFD" fill-opacity="0.5"/>
<rect x="-34.8912" y="-39.2196" width="94.6251" height="94.6251" fill="#FDFDFD" fill-opacity="0.5"/>
</g>
<path d="M59.7339 8C59.7339 3.58172 56.1522 0 51.7339 0H39.8128L26.5321 19.9211V37.2375C26.5321 41.6558 30.1138 45.2375 34.5321 45.2375H51.7339C56.1522 45.2375 59.7339 41.6558 59.7339 37.2375V8Z" fill="url(#paint0_linear)"/>
<path d="M59.7339 8C59.7339 3.58172 56.1522 0 51.7339 0H39.8128L26.5321 19.9211V37.2375C26.5321 41.6558 30.1138 45.2375 34.5321 45.2375H51.7339C56.1522 45.2375 59.7339 41.6558 59.7339 37.2375V8Z" fill="url(#paint1_radial)"/>
</g>
</g>
<path d="M39.8128 0L40.784 1.61866C43.015 5.33701 41.8775 10.1559 38.2191 12.4839L26.5321 19.9211L39.8128 0Z" fill="#663A2A" fill-opacity="0.2"/>
<g filter="url(#filter1_b)">
<circle cx="44.5381" cy="28.4687" r="10.4524" transform="rotate(-60 44.5381 28.4687)" fill="url(#paint2_linear)"/>
</g>
<path fill-rule="evenodd" clip-rule="evenodd" d="M54.9061 32.0475C57.0991 27.9539 55.0045 31.9654 53.9019 33.8752C50.916 39.0468 44.303 40.8188 39.1314 37.8329C33.9597 34.8471 30.769 28.4393 33.7549 23.2676C34.1581 22.5693 34.3648 22.3905 34.9325 21.813C38.5692 18.1138 45.4708 16.5219 49.9442 19.1046C51.8515 20.2058 51.4946 19.885 53.1216 21.813L59.0003 19.885C60.1539 19.5759 63.6254 22.1139 63.9346 23.2675C64.2437 24.4212 61.5185 22.5273 60.3649 22.8364L54.9061 32.0475ZM49.4936 19.885C54.2343 22.622 55.8586 28.6839 53.1216 33.4246C50.3845 38.1653 44.3226 39.7896 39.5819 37.0526C34.8412 34.3155 33.2169 28.2536 35.954 23.5129C38.691 18.7722 44.7529 17.1479 49.4936 19.885Z" fill="#E84B37"/>
<path d="M33.7549 23.2676C34.1581 22.5693 34.3648 22.3905 34.9325 21.813C34.9325 21.813 34.2502 19.646 32.5445 19.646C30.8387 19.646 30.1568 21.813 30.1568 21.813L31.1801 23.5129C31.521 22.3752 32.5445 22.3752 32.5445 22.3752C32.5445 22.3752 33.2268 22.3752 33.7549 23.2676Z" fill="#E84B37"/>
<g filter="url(#filter2_b)">
<circle r="10.4524" transform="matrix(-0.5 -0.866025 -0.866025 0.5 20.3971 28.3484)" fill="url(#paint3_linear)"/>
</g>
<path fill-rule="evenodd" clip-rule="evenodd" d="M10.029 31.9273C7.83602 27.8336 9.9306 31.8452 11.0332 33.7549C14.0191 38.9266 20.6321 40.6985 25.8037 37.7127C30.9754 34.7268 34.1661 28.3191 31.1802 23.1474C28.1943 17.9757 20.1626 15.9985 14.991 18.9844C13.0836 20.0856 13.4405 19.7647 11.8135 21.6927L5.93481 19.7647C4.78116 19.4556 1.30966 21.9936 1.00054 23.1473C0.691422 24.3009 3.41657 22.407 4.57022 22.7161L10.029 31.9273ZM15.4415 19.7647C10.7008 22.5018 9.0765 28.5637 11.8135 33.3044C14.5506 38.0451 20.6125 39.6694 25.3532 36.9323C30.0939 34.1953 31.7182 28.1334 28.9811 23.3927C26.2441 18.6519 20.1822 17.0277 15.4415 19.7647Z" fill="#E84B37"/>
<defs>
<filter id="filter0_iii" x="25.5321" y="-1" width="35.2018" height="46.2375" filterUnits="userSpaceOnUse" color-interpolation-filters="sRGB">
<feFlood flood-opacity="0" result="BackgroundImageFix"/>
<feBlend mode="normal" in="SourceGraphic" in2="BackgroundImageFix" result="shape"/>
<feColorMatrix in="SourceAlpha" type="matrix" values="0 0 0 0 0 0 0 0 0 0 0 0 0 0 0 0 0 0 127 0" result="hardAlpha"/>
<feOffset dy="-3"/>
<feGaussianBlur stdDeviation="0.5"/>
<feComposite in2="hardAlpha" operator="arithmetic" k2="-1" k3="1"/>
<feColorMatrix type="matrix" values="0 0 0 0 0 0 0 0 0 0 0 0 0 0 0 0 0 0 0.4 0"/>
<feBlend mode="normal" in2="shape" result="effect1_innerShadow"/>
<feColorMatrix in="SourceAlpha" type="matrix" values="0 0 0 0 0 0 0 0 0 0 0 0 0 0 0 0 0 0 127 0" result="hardAlpha"/>
<feOffset dx="-1"/>
<feGaussianBlur stdDeviation="0.5"/>
<feComposite in2="hardAlpha" operator="arithmetic" k2="-1" k3="1"/>
<feColorMatrix type="matrix" values="0 0 0 0 1 0 0 0 0 1 0 0 0 0 1 0 0 0 0.3 0"/>
<feBlend mode="normal" in2="effect1_innerShadow" result="effect2_innerShadow"/>
<feColorMatrix in="SourceAlpha" type="matrix" values="0 0 0 0 0 0 0 0 0 0 0 0 0 0 0 0 0 0 127 0" result="hardAlpha"/>
<feOffset dx="1"/>
<feGaussianBlur stdDeviation="0.5"/>
<feComposite in2="hardAlpha" operator="arithmetic" k2="-1" k3="1"/>
<feColorMatrix type="matrix" values="0 0 0 0 1 0 0 0 0 1 0 0 0 0 1 0 0 0 0.3 0"/>
<feBlend mode="normal" in2="effect2_innerShadow" result="effect3_innerShadow"/>
</filter>
<filter id="filter1_b" x="20.2599" y="4.19055" width="48.5564" height="48.5564" filterUnits="userSpaceOnUse" color-interpolation-filters="sRGB">
<feFlood flood-opacity="0" result="BackgroundImageFix"/>
<feGaussianBlur in="BackgroundImage" stdDeviation="5"/>
<feComposite in2="SourceAlpha" operator="in" result="effect1_backgroundBlur"/>
<feBlend mode="normal" in="SourceGraphic" in2="effect1_backgroundBlur" result="shape"/>
</filter>
<filter id="filter2_b" x="-3.8811" y="4.07019" width="48.5564" height="48.5564" filterUnits="userSpaceOnUse" color-interpolation-filters="sRGB">
<feFlood flood-opacity="0" result="BackgroundImageFix"/>
<feGaussianBlur in="BackgroundImage" stdDeviation="5"/>
<feComposite in2="SourceAlpha" operator="in" result="effect1_backgroundBlur"/>
<feBlend mode="normal" in="SourceGraphic" in2="effect1_backgroundBlur" result="shape"/>
</filter>
<linearGradient id="paint0_linear" x1="43.1345" y1="-0.216259" x2="43.1345" y2="44.8827" gradientUnits="userSpaceOnUse">
<stop stop-color="white" stop-opacity="0.4"/>
<stop offset="0.833333" stop-color="white" stop-opacity="0"/>
<stop offset="1" stop-color="white" stop-opacity="0.3"/>
</linearGradient>
<radialGradient id="paint1_radial" cx="0" cy="0" r="1" gradientUnits="userSpaceOnUse" gradientTransform="translate(26.5321 5.93901) scale(25.4597 53.8389)">
<stop stop-color="white" stop-opacity="0.7"/>
<stop offset="1" stop-color="white" stop-opacity="0"/>
</radialGradient>
<linearGradient id="paint2_linear" x1="44.5381" y1="18.0164" x2="44.5381" y2="38.9211" gradientUnits="userSpaceOnUse">
<stop stop-color="#A6A0BA" stop-opacity="0.15"/>
<stop offset="1" stop-color="white" stop-opacity="0.66"/>
</linearGradient>
<linearGradient id="paint3_linear" x1="10.4524" y1="0" x2="10.4524" y2="20.9047" gradientUnits="userSpaceOnUse">
<stop stop-color="#A6A0BA" stop-opacity="0.15"/>
<stop offset="1" stop-color="white" stop-opacity="0.66"/>
</linearGradient>
<clipPath id="clip0">
<rect width="34.2729" height="44.9831" fill="white" transform="translate(25.4611)"/>
</clipPath>
</defs>
</svg>
