<svg width="142" height="88" viewBox="0 0 142 88" fill="none" xmlns="http://www.w3.org/2000/svg">
<path d="M111.189 67.8631V55.4912H115.331V61.2576C115.331 61.6861 115.242 62.1502 115.242 62.1502H115.421L119.937 55.4912H123.454V67.8631H119.759V62.061C119.759 61.6504 119.848 61.2397 119.848 61.2397H119.669L115.153 67.8631H111.189Z" fill="#623B2A"/>
<path d="M102.566 64.3452C104.084 64.3452 105.084 63.1669 105.084 61.703C105.084 60.2034 104.084 59.0251 102.566 59.0251C101.102 59.0251 100.049 60.2034 100.049 61.703C100.049 63.1669 101.102 64.3452 102.566 64.3452ZM102.566 55.1689C106.512 55.1689 109.457 57.9539 109.457 61.703C109.457 65.4163 106.512 68.2013 102.566 68.2013C98.6566 68.2013 95.7109 65.4163 95.7109 61.703C95.7109 57.9718 98.6566 55.1689 102.566 55.1689Z" fill="#623B2A"/>
<path d="M20.3183 80.769C22.8177 80.769 24.5137 78.948 24.5137 76.5558C24.5137 74.1279 22.8177 72.2712 20.3183 72.2712C17.8725 72.2712 16.1587 74.11 16.1587 76.5558C16.1587 78.948 17.8547 80.769 20.3183 80.769ZM20.3183 70.0039C24.1924 70.0039 26.9417 72.7889 26.9417 76.5558C26.9417 80.2691 24.1924 83.0363 20.3183 83.0363C16.48 83.0363 13.7129 80.2691 13.7129 76.5558C13.7129 72.8068 16.48 70.0039 20.3183 70.0039Z" fill="#623B2A"/>
<path d="M76.1078 72.0755C78.3394 72.0755 79.4998 73.5216 79.6962 75.4139H72.5551C72.9122 73.4502 74.269 72.0755 76.1078 72.0755ZM81.9635 77.342C81.9813 77.0921 81.9992 76.8243 81.9992 76.5744C81.9992 72.8075 80.0532 70.0225 75.9828 70.0225C72.5016 70.0225 69.9844 72.8075 69.9844 76.5744C69.9844 76.8421 70.0022 77.0921 70.0201 77.342C70.3057 80.5733 72.3766 83.0548 76.6969 83.0548C78.7857 83.0548 80.5531 82.4122 81.8385 81.3767L80.8745 79.6093C79.9283 80.3234 78.4822 80.9839 76.7684 80.9839C74.0726 80.9839 72.7694 79.52 72.5194 77.3599H72.5373L81.9635 77.342Z" fill="#623B2A"/>
<path d="M92.7823 70.3438V75.4139H86.159V70.3438H83.6953V82.7156H86.159V77.3241H92.7823V82.7156H95.2459V70.3438H92.7823Z" fill="#623B2A"/>
<path d="M108.224 70.3438H96.959V72.5396H101.351V82.7156H103.814V72.5396H108.224V70.3438Z" fill="#623B2A"/>
<path d="M123.917 70.3438H121.453V82.7156H123.917V70.3438Z" fill="#623B2A"/>
<path d="M34.0304 76.2172V76.1101C34.0304 76.1101 34.2625 76.0387 34.4589 75.8066C34.6731 75.5746 39.172 70.3616 39.172 70.3616H36.4048L32.0666 75.4317H31.0848V70.3438H28.6211V82.7156H31.0848V77.3241H32.2095L36.9047 82.7156H39.9753C39.9753 82.7156 34.7088 76.7885 34.4946 76.5386C34.2804 76.2887 34.0304 76.2172 34.0304 76.2172Z" fill="#623B2A"/>
<path d="M113.849 80.8589C113.082 80.8589 112.386 80.8054 112.386 80.8054V76.3422C112.386 76.3422 112.921 76.1994 113.867 76.1994C115.92 76.1994 116.831 77.0028 116.831 78.4845C116.849 79.9306 116.027 80.8589 113.849 80.8589ZM114.296 74.1285C113.153 74.1285 112.386 74.2713 112.386 74.2713V70.3438H109.922V82.7156C109.922 82.7156 111.939 82.912 114.046 82.912C117.92 82.912 119.187 80.5554 119.187 78.3774C119.187 76.1815 118.045 74.1285 114.296 74.1285Z" fill="#623B2A"/>
<path d="M6.14393 80.769C3.66242 80.769 2.34133 78.948 2.39489 76.5558C2.44845 74.1279 3.8588 72.2712 6.34031 72.2712C7.71496 72.2712 9.55378 73.5209 9.55378 75.7881V79.198C8.78611 80.1799 7.58999 80.769 6.14393 80.769ZM9.66089 70.3431L9.58948 71.8963H9.42881C8.64329 70.7359 7.07227 70.0039 5.84044 70.0039C2.23421 70.0039 0.0919051 72.7889 0.00264215 76.5558C-0.0866208 80.2691 2.09139 83.0363 5.69762 83.0363C7.35791 83.0363 8.3755 82.5721 9.3931 81.376H9.55378V82.4829C9.55378 84.8751 7.89348 85.8213 6.01896 85.8213C4.28726 85.8213 2.94832 85.1786 2.1271 84.6787L1.32373 86.7139C2.10925 87.1245 3.57316 87.9993 6.01896 87.9993C9.48236 87.9993 12.0174 85.9463 12.0174 81.983V70.3431H9.66089Z" fill="#623B2A"/>
<path d="M49.7395 70.3438V79.3057C49.0076 80.2162 47.9007 80.7697 46.5082 80.7697C44.2409 80.7697 43.2055 78.9487 43.2769 76.5564V70.3438H40.8847V76.5564C40.7954 80.2698 42.2772 83.0369 45.8834 83.0369C47.5258 83.0369 48.6505 82.5549 49.5789 81.3766H49.7395V82.4835C49.7395 84.8758 48.0792 85.8219 46.2047 85.8219C44.473 85.8219 43.1341 85.1792 42.3129 84.6794L41.5095 86.7146C42.295 87.1252 43.7589 88 46.2047 88C49.6681 88 52.2032 85.9469 52.2032 81.9836V70.3438H49.7395Z" fill="#623B2A"/>
<path d="M65.9494 70.3438C65.9494 70.3438 61.879 76.0744 61.754 76.2351C61.629 76.3958 61.5933 76.5743 61.5933 76.5743H61.5041C61.5041 76.5743 61.4505 76.4136 61.3255 76.2351C61.2006 76.0566 56.8267 70.3438 56.8267 70.3438H54.5059V82.7156H56.9695V74.8247C56.9695 74.2713 56.8624 73.9678 56.8624 73.9678H56.9695L61.5041 80.0556H61.6112L65.8065 73.9678H65.9315C65.9315 73.9678 65.8065 74.2892 65.8065 74.8247V82.7156H68.2702V70.3438H65.9494Z" fill="#623B2A"/>
<path d="M90.7474 55.5091C90.7474 55.5091 87.284 60.0079 87.1412 60.1864C86.9805 60.4007 86.9627 60.5078 86.9627 60.5078H86.7841C86.7841 60.5078 86.7484 60.3828 86.5877 60.1864C86.3378 59.8829 82.7494 55.5091 82.7494 55.5091H79.4824V67.8809H83.4814V62.668C83.4814 62.1145 83.3921 61.7753 83.3921 61.7753H83.5707L86.7841 65.4708H86.9627L89.944 61.7753H90.1226C90.1226 61.7753 90.0333 62.1145 90.0333 62.668V67.8631H94.0144V55.4912H90.7474V55.5091Z" fill="#623B2A"/>
<path d="M116.793 29.8677V17.3174H106.902V29.8677C106.902 34.2773 109.259 38.3656 113.097 40.5793L124.219 47.0062V35.5806L118.042 32.0101C117.257 31.5637 116.793 30.7604 116.793 29.8677Z" fill="#C79B65"/>
<path d="M124.203 42.0607L135.343 35.6338C139.164 33.42 141.538 29.3318 141.538 24.9222V0H124.221V9.89033H131.63V24.9044C131.63 25.7791 131.166 26.6004 130.398 27.0467L124.221 30.6172V42.0607H124.203Z" fill="#E04E39"/>
<path d="M124.202 0L106.902 17.317H124.202V0Z" fill="#623B2A"/>
</svg>
