<svg width="188" height="187" viewBox="0 0 188 187" fill="none" xmlns="http://www.w3.org/2000/svg">
<path d="M0.974609 138.382C0.974609 92.2539 0.974609 46.1551 0.974609 0.0273438C43.1452 0.0273438 85.3159 0.0273438 127.486 0.0273438C128.96 0.951631 129.537 2.22253 129.508 4.01334C129.451 18.6286 129.479 33.2728 129.479 47.8881C129.479 48.4369 129.479 49.0146 129.479 49.7078C130.202 49.7078 130.779 49.7078 131.357 49.7078C144.153 49.7078 156.948 49.7078 169.744 49.7078C172.199 49.7078 173.239 50.7476 173.268 53.2317C173.296 55.3113 173.268 57.3621 173.268 59.4417C173.268 61.0015 173.268 62.5612 173.268 64.2653C176.878 64.2653 180.286 64.352 183.695 64.2365C185.486 64.1787 186.872 64.6697 187.854 66.2006C187.854 102.306 187.854 138.411 187.854 174.516C187.767 174.718 187.623 174.92 187.565 175.151C186.843 178.444 185.254 181.188 182.713 183.412C180.604 185.26 178.062 186.156 175.434 186.936C129.22 186.936 83.0051 186.936 36.7908 186.936C36.4441 186.82 36.0687 186.676 35.722 186.589C28.1833 184.885 23.1286 177.231 24.5439 169.49C26.3925 169.49 28.2411 169.49 30.2052 169.49C30.2052 170.674 30.1763 171.8 30.2052 172.898C30.3785 176.884 33.4691 180.263 37.5995 180.986C41.21 181.65 45.3693 179.455 46.8424 176.046C48.5754 172.032 47.3912 167.814 47.7956 163.568C47.0735 163.568 46.6113 163.568 46.1492 163.568C40.0258 163.568 33.9312 163.54 27.8078 163.597C26.5081 163.597 25.5549 163.193 24.6306 162.269C20.6735 158.225 16.6297 154.239 12.6437 150.224C8.71552 146.238 4.84506 142.31 0.974609 138.382ZM88.4642 55.6001C76.7373 55.6001 65.1837 55.6001 53.5435 55.6001C53.5435 56.1489 53.5435 56.5822 53.5435 56.9866C53.5435 81.4802 53.5435 105.974 53.5435 130.467C53.5435 144.245 53.5724 157.994 53.4857 171.772C53.4857 173.736 52.908 175.729 52.3881 177.664C52.0993 178.79 51.4061 179.801 50.8284 180.986C51.4061 181.014 51.8682 181.043 52.3303 181.043C92.3636 181.043 132.426 181.043 172.459 181.043C178.409 181.043 182.019 177.433 182.019 171.512C182.019 138.266 182.019 104.992 182.019 71.7463C182.019 71.2264 182.019 70.7354 182.019 70.071C146.868 70.071 111.947 70.071 76.9973 70.071C76.9973 68.0491 76.9973 66.2006 76.9973 64.1787C80.8677 64.1787 84.6226 64.1787 88.4642 64.1787C88.4642 61.2614 88.4642 58.4885 88.4642 55.6001ZM6.86694 134.338C7.44462 134.338 7.96454 134.338 8.48445 134.338C14.4634 134.338 20.4135 134.338 26.3925 134.338C29.252 134.338 30.1763 135.262 30.1763 138.179C30.1763 144.158 30.1763 150.109 30.1763 156.088C30.1763 156.607 30.1763 157.098 30.1763 157.618C36.1264 157.618 41.8743 157.618 47.7089 157.618C47.7089 156.925 47.7089 156.348 47.7089 155.799C47.7089 142.31 47.7089 128.85 47.7089 115.361C47.7089 94.7091 47.7089 74.057 47.7089 53.405C47.7089 50.661 48.6332 49.7078 51.2905 49.7078C64.4905 49.7078 77.6616 49.7078 90.8616 49.7078C93.3745 49.7078 94.3854 50.7188 94.3854 53.2028C94.4143 56.3222 94.3854 59.4706 94.4143 62.5901C94.4143 63.11 94.4721 63.601 94.501 64.1787C104.235 64.1787 113.853 64.1787 123.529 64.1787C123.529 44.7109 123.529 25.3586 123.529 5.97745C84.5938 5.97745 45.7737 5.97745 6.86694 5.97745C6.86694 48.7546 6.86694 91.4452 6.86694 134.338ZM167.318 55.6001C154.609 55.6001 142.102 55.6001 129.595 55.6001C129.595 58.5174 129.595 61.3192 129.595 64.1209C142.217 64.1209 154.753 64.1209 167.318 64.1209C167.318 61.2614 167.318 58.4885 167.318 55.6001ZM11.5462 140.23C15.8499 144.505 20.0958 148.722 24.2551 152.853C24.2551 148.78 24.2551 144.534 24.2551 140.23C19.9803 140.23 15.7921 140.23 11.5462 140.23Z" fill="#C39367" fill-opacity="0.6"/>
<path d="M154.84 99.2714C157.006 103.171 158.97 106.752 160.963 110.305C162.899 113.771 164.892 117.237 166.827 120.732C167.953 122.754 167.404 124.92 166.856 126.913C165.036 133.586 160.703 138.063 154.002 139.651C147.128 141.298 141.149 139.247 136.47 133.874C133.899 130.928 132.657 127.376 132.339 123.476C132.166 121.165 133.668 119.606 134.621 117.844C137.856 111.836 141.236 105.915 144.557 99.9646C144.615 99.8491 144.644 99.7047 144.731 99.4447C136.759 99.4447 128.873 99.4447 120.815 99.4447C120.815 113.916 120.815 128.415 120.815 143.088C123.443 143.088 126.014 143.146 128.613 143.06C130.029 143.031 131.126 143.522 132.079 144.475C133.726 146.15 135.459 147.739 137.019 149.53C137.625 150.223 138.087 151.263 138.116 152.187C138.261 154.931 138.174 157.675 138.174 160.563C140.109 160.563 141.958 160.563 143.893 160.563C143.893 162.556 143.893 164.405 143.893 166.34C126.476 166.34 109.088 166.34 91.5551 166.34C91.5551 164.52 91.5551 162.672 91.5551 160.679C93.3748 160.679 95.2234 160.679 97.303 160.679C97.303 159.697 97.303 158.859 97.303 158.021C97.303 156.231 97.3608 154.469 97.303 152.678C97.2453 151.234 97.7363 150.107 98.8339 149.125C100.451 147.652 101.867 145.89 103.542 144.475C104.38 143.753 105.622 143.233 106.719 143.146C109.348 142.944 111.976 143.088 114.691 143.088C114.691 128.473 114.691 114.002 114.691 99.4447C106.748 99.4447 98.8339 99.4447 90.6597 99.4447C91.9595 101.842 93.2304 104.124 94.5013 106.406C97.2453 111.316 100.163 116.111 102.647 121.137C103.34 122.552 103.08 124.66 102.704 126.336C101.26 132.575 97.4764 136.907 91.4107 139.189C85.3451 141.471 77.6331 139.68 73.1849 135.001C70.4121 132.084 68.7657 128.675 68.188 124.689C67.928 122.812 68.3902 121.252 69.3145 119.635C72.9827 113.222 76.5355 106.723 80.1171 100.253C80.2326 100.051 80.3193 99.8202 80.5215 99.4158C79.2794 99.4158 78.153 99.4158 76.9687 99.4158C76.9687 97.365 76.9687 95.5165 76.9687 93.4946C89.5333 93.4946 102.069 93.4946 114.778 93.4946C114.778 89.5664 114.778 85.7826 114.778 81.9121C116.771 81.9121 118.619 81.9121 120.641 81.9121C120.641 85.6959 120.641 89.4797 120.641 93.4657C133.379 93.4657 145.944 93.4657 158.595 93.4657C158.595 95.4876 158.595 97.3073 158.595 99.3003C157.44 99.2714 156.313 99.2714 154.84 99.2714ZM103.224 160.505C113.045 160.505 122.692 160.505 132.368 160.505C132.368 159.321 132.253 158.253 132.397 157.213C132.801 154.324 131.964 152.014 129.595 150.194C128.642 149.472 127.862 148.894 126.563 148.923C121.508 149.01 116.453 149.125 111.398 148.894C108.423 148.779 106.055 149.385 104.38 151.956C104.004 152.533 103.311 153.082 103.282 153.66C103.138 155.913 103.224 158.166 103.224 160.505ZM140.311 119.635C146.839 119.635 152.991 119.635 159.461 119.635C156.255 113.858 153.165 108.283 149.901 102.449C146.608 108.341 143.517 113.887 140.311 119.635ZM76.0733 119.635C82.6011 119.635 88.8112 119.635 95.2234 119.635C92.0173 113.887 88.8978 108.312 85.6339 102.449C82.37 108.341 79.2794 113.887 76.0733 119.635ZM138.78 125.7C139.531 130.495 144.702 134.394 150.103 134.337C155.273 134.279 160.357 130.264 160.963 125.7C153.569 125.7 146.175 125.7 138.78 125.7ZM74.4558 125.7C75.6689 131.015 80.7236 134.568 86.4716 134.337C91.2663 134.134 96.1766 130.033 96.7254 125.7C89.3311 125.7 81.9368 125.7 74.4558 125.7Z" fill="#C39367" fill-opacity="0.6"/>
<path d="M150.016 166.366C150.016 164.431 150.016 162.611 150.016 160.705C151.922 160.705 153.771 160.705 155.677 160.705C155.677 162.611 155.677 164.46 155.677 166.366C153.742 166.366 151.922 166.366 150.016 166.366Z" fill="#C39367" fill-opacity="0.6"/>
<path d="M27.1433 61.3164C23.5039 61.3164 19.8357 61.3164 16.1963 61.3164C13.6834 61.3164 12.7013 60.3054 12.6724 57.8214C12.6436 52.449 12.6436 47.0477 12.6436 41.6753C12.6436 39.0757 13.7412 37.9781 16.3118 37.9492C23.6772 37.9492 31.0138 37.9492 38.3792 37.9492C40.661 37.9492 41.8164 39.1046 41.8164 41.4153C41.8453 46.9033 41.8453 52.3623 41.8164 57.8503C41.8164 60.2477 40.7766 61.2586 38.3792 61.2875C34.6532 61.3164 30.8982 61.3164 27.1433 61.3164ZM18.6225 43.9282C18.6225 47.8853 18.6225 51.6402 18.6225 55.3952C24.4571 55.3952 30.205 55.3952 35.8952 55.3952C35.8952 51.4958 35.8952 47.7409 35.8952 43.9282C30.0895 43.9282 24.3993 43.9282 18.6225 43.9282Z" fill="#C39367" fill-opacity="0.6"/>
<path d="M27.0852 119.748C23.4169 119.748 19.7775 119.748 16.1092 119.748C13.7696 119.748 12.6721 118.651 12.6721 116.282C12.6432 110.794 12.6432 105.306 12.6721 99.8185C12.6721 97.4211 13.7119 96.4102 16.1381 96.4102C23.5613 96.4102 30.9556 96.4102 38.3788 96.4102C40.7762 96.4102 41.816 97.45 41.816 99.8473C41.8449 105.278 41.8449 110.737 41.816 116.167C41.816 118.68 40.7184 119.748 38.1766 119.748C34.5083 119.777 30.8112 119.748 27.0852 119.748ZM18.5644 113.798C24.4567 113.798 30.1469 113.798 35.9237 113.798C35.9237 109.928 35.9237 106.173 35.9237 102.389C30.0891 102.389 24.3412 102.389 18.5644 102.389C18.5644 106.231 18.5644 109.957 18.5644 113.798Z" fill="#C39367" fill-opacity="0.6"/>
<path d="M27.2296 67.1808C30.9267 67.1808 34.6528 67.1808 38.3499 67.1808C40.7184 67.1808 41.816 68.2495 41.816 70.5891C41.8449 76.0771 41.8449 81.565 41.816 87.053C41.816 89.4504 40.7762 90.4902 38.3788 90.4902C30.9556 90.4902 23.5613 90.4902 16.1381 90.4902C13.7119 90.4902 12.6721 89.4793 12.6721 87.0819C12.6432 81.5939 12.6432 76.106 12.6721 70.618C12.6721 68.2495 13.7696 67.1808 16.1092 67.1519C17.9867 67.123 19.8642 67.123 21.7416 67.123C23.5902 67.1519 25.4099 67.1519 27.2296 67.1808ZM35.9526 73.1598C30.0602 73.1598 24.3701 73.1598 18.6222 73.1598C18.6222 77.0303 18.6222 80.7852 18.6222 84.569C24.4567 84.569 30.2046 84.569 35.9526 84.569C35.9526 80.6985 35.9526 76.9725 35.9526 73.1598Z" fill="#C39367" fill-opacity="0.6"/>
<path d="M59.4648 38.0078C78.9038 38.0078 98.1983 38.0078 117.637 38.0078C117.637 39.9142 117.637 41.7627 117.637 43.7268C98.2561 43.7268 78.9327 43.7268 59.4648 43.7268C59.4648 41.8494 59.4648 40.0008 59.4648 38.0078Z" fill="#C39367" fill-opacity="0.6"/>
<path d="M24.3984 20.3894C24.3984 18.4541 24.3984 16.6344 24.3984 14.6992C39.9091 14.6992 55.391 14.6992 70.9594 14.6992C70.9594 16.5767 70.9594 18.4253 70.9594 20.3894C55.4776 20.3894 40.0247 20.3894 24.3984 20.3894Z" fill="#C39367" fill-opacity="0.6"/>
<path d="M53.4862 26.3672C53.4862 28.3313 53.4862 30.151 53.4862 32.0573C39.8818 32.0573 26.3641 32.0573 12.7598 32.0573C12.7598 30.1221 12.7598 28.2735 12.7598 26.3672C26.3641 26.3672 39.8529 26.3672 53.4862 26.3672Z" fill="#C39367" fill-opacity="0.6"/>
<path d="M18.4209 20.4471C16.4856 20.4471 14.7237 20.4471 12.8174 20.4471C12.8174 18.5408 12.8174 16.6922 12.8174 14.6992C14.666 14.6992 16.4856 14.6992 18.4209 14.6992C18.4209 16.6344 18.4209 18.4541 18.4209 20.4471Z" fill="#C39367" fill-opacity="0.6"/>
<path d="M53.486 43.7561C51.5797 43.7561 49.7311 43.7561 47.7959 43.7561C47.7959 41.8209 47.7959 39.9723 47.7959 38.0371C49.7022 38.0371 51.5508 38.0371 53.486 38.0371C53.486 39.9435 53.486 41.8209 53.486 43.7561Z" fill="#C39367" fill-opacity="0.6"/>
</svg>
