<svg width="99" height="98" viewBox="0 0 99 98" fill="none" xmlns="http://www.w3.org/2000/svg">
<path fill-rule="evenodd" clip-rule="evenodd" d="M9.7002 0.372173C8.59814 1.04728 8.46789 1.41535 8.46789 3.85269C8.46789 6.30324 8.69163 6.89765 9.83801 7.49322L10.4034 7.78683V13.5843V19.3816L5.91016 22.8639C0.231291 27.2651 0.182905 27.3082 0.037357 28.0874C-0.111481 28.885 0.134711 29.3783 1.69102 31.4016C2.99186 33.0927 3.42095 33.4263 4.30662 33.4355C4.88881 33.4415 5.46132 33.067 8.22595 30.8708L9.43562 29.9099V53.6156V77.3216L8.47776 77.9452C7.95111 78.288 7.15544 78.981 6.7099 79.4848C5.9599 80.333 4.79107 82.4458 4.79068 82.9538C4.79049 83.0744 4.52862 83.2822 4.2083 83.4154C2.61231 84.0797 1.11832 86.4011 1.11503 88.2226C1.11367 88.8931 0.981674 89.4552 0.726772 89.8754C0.387484 90.4344 0.340258 90.856 0.340258 93.3314C0.340258 95.7855 0.389226 96.2315 0.718256 96.7732C1.52554 98.1038 -2.58095 97.998 48.2953 97.998H94.3353L94.7563 97.5481C95.3144 96.9509 95.2926 96.1522 94.7019 95.5587C94.2501 95.1047 94.1127 95.0814 91.8954 95.0814H89.5642V81.0816C89.5642 73.3817 89.592 67.0817 89.6261 67.0817C89.6604 67.0817 90.632 67.8179 91.7853 68.7176C92.9389 69.6173 94.1007 70.3954 94.3672 70.4465C95.3541 70.6361 95.9452 70.2033 97.4228 68.2089C99.0906 65.9573 99.2578 65.5027 98.7402 64.6269C98.508 64.2341 92.7227 59.613 83.1771 52.1956C74.8207 45.7022 67.6517 40.1676 67.2462 39.8966C66.3284 39.2833 64.7772 39.113 63.8166 39.5204C63.4473 39.6769 62.0563 40.6526 60.7256 41.6884L58.3063 43.5717L58.2095 41.2491C58.0986 38.5882 57.8726 38.1099 56.726 38.1099C55.5264 38.1099 55.4155 38.4482 55.3063 42.437L55.2095 45.975L43.9118 54.7572C37.698 59.5875 32.3607 63.7939 32.0512 64.105C31.7344 64.4231 31.44 64.9695 31.3779 65.3541C31.277 65.9777 31.4005 66.2143 32.7799 68.0454C34.3473 70.1257 35.0199 70.6324 35.9715 70.4497C36.2487 70.3964 42.9357 65.3317 50.8317 59.1948L65.1881 48.0365L75.8761 56.3487L86.5642 64.6607L86.6137 79.8712L86.6633 95.0814H80.8799H75.0967L75.0088 93.3991C74.9326 91.9411 74.8619 91.6687 74.4791 91.3574C73.9006 90.8867 73.0167 90.9001 72.532 91.387C72.2057 91.7148 72.1449 92.0351 72.1449 93.4286V95.0814H65.274H58.4031V83.8984V72.7155L65.2256 72.7666L72.0481 72.8178L72.1449 79.5906C72.2367 86.0097 72.2612 86.3776 72.6174 86.6391C73.5357 87.3132 74.7255 86.7406 74.9517 85.516C75.017 85.1625 75.0435 81.8827 75.0108 78.2273C74.9539 71.8617 74.9345 71.5586 74.5505 71.033C73.6594 69.8134 73.5919 69.8045 65.2194 69.8043C56.9677 69.8039 56.7382 69.8304 55.9195 70.8761L55.4999 71.4119V83.2467V95.0814H50.0041H44.5085L44.4396 92.7879C44.3856 90.9884 44.2958 90.3794 44.0217 89.9594C43.4841 89.1353 42.5668 88.6664 41.4911 88.6656L40.5468 88.6648L40.6649 87.7412C40.9639 85.3978 39.8723 82.3168 38.1187 80.555C34.602 77.022 29.07 76.8707 25.5161 80.2103C24.6242 81.0485 24.6031 81.0563 23.7511 80.864C23.277 80.7568 22.489 80.7246 22.0001 80.792C21.1141 80.9145 21.1088 80.9118 20.3799 79.9515C18.722 77.7675 15.976 76.4149 13.2003 76.4149H12.3388V52.0514V27.6878L22.9346 19.4528C28.7623 14.9234 33.6406 11.2092 33.7753 11.1987C33.9101 11.1882 38.8097 14.8976 44.6633 19.4419L55.3063 27.7041V30.4765C55.3063 32.9896 55.3425 33.2852 55.6934 33.6377C56.3224 34.2696 57.145 34.223 57.774 33.5197C58.1482 33.1012 58.2095 32.8158 58.2095 31.492V29.9515L60.4512 31.6974C63.5909 34.1427 63.8952 34.1088 66.1405 31.0627C67.3289 29.4506 67.5878 28.9705 67.5878 28.3792C67.5878 27.9831 67.4684 27.5145 67.3225 27.338C66.9584 26.8974 36.0491 2.8867 35.4042 2.54351C34.6289 2.1309 32.8368 2.19001 32.0545 2.65395C31.6963 2.86648 29.6178 4.4261 27.4355 6.11988C25.2533 7.81386 23.359 9.28403 23.2259 9.38709C23.0402 9.53078 22.9839 9.36414 22.9839 8.67096C22.9839 7.91419 23.0548 7.73958 23.4194 7.59628C24.1499 7.30967 24.7001 6.65051 24.9333 5.78311C25.2548 4.5869 25.08 1.98507 24.6262 1.21333C23.9333 0.0350109 23.6979 -0.000766443 16.6644 1.13252e-05C10.7471 0.000594651 10.2646 0.0264555 9.7002 0.372173ZM22.2097 3.88807V4.86028H16.7904H11.3711V3.88807V2.91586H16.7904H22.2097V3.88807ZM34.7129 5.60519C37.5964 7.70789 64.122 28.4628 64.1588 28.6452C64.1841 28.771 63.9664 29.1554 63.6749 29.4996L63.145 30.1253L48.9193 19.0483C41.0951 12.9561 34.4977 7.91808 34.258 7.85314C34.0184 7.788 33.6267 7.78644 33.3871 7.84983C33.1475 7.91302 27.2033 12.439 20.1775 17.9075C13.1517 23.376 6.73486 28.3639 5.9179 28.9917L4.43223 30.1331L3.83843 29.3798L3.24463 28.6265L18.0843 17.0837C32.0145 6.24821 33.5468 5.07903 33.8419 5.06153C33.9058 5.05784 34.2977 5.30245 34.7129 5.60519ZM20.0807 9.81292V11.8489L16.8388 14.379C15.0557 15.7706 13.5315 16.9106 13.4517 16.9124C13.372 16.9141 13.3066 14.8595 13.3066 12.3463V7.77691H16.6936H20.0807V9.81292ZM25.2819 22.1042C25.0022 22.2784 24.6103 22.6918 24.4109 23.0225C24.0664 23.594 24.0484 24.2539 24.0484 36.2712C24.0484 50.3498 23.9702 49.5137 25.3653 50.3683C25.951 50.727 26.3931 50.7472 33.6836 50.7478C42.1101 50.7486 42.3023 50.7257 43.084 49.6226C43.4993 49.0365 43.4999 49.0187 43.4999 36.2627C43.4999 24.7873 43.4678 23.4347 43.1833 22.9512C42.4865 21.766 42.5688 21.7762 33.7928 21.782C26.7376 21.7865 25.7302 21.8246 25.2819 22.1042ZM32.2742 27.7072V30.7211H29.6613H27.0484V27.7072V24.6934H29.6613H32.2742V27.7072ZM40.5967 27.7127V30.732L37.9354 30.6779L35.2742 30.6239L35.2208 27.6586L35.1673 24.6934H37.882H40.5967V27.7127ZM32.2742 36.2627V38.8876H29.6613H27.0484V36.2627V33.6377H29.6613H32.2742V36.2627ZM40.5967 36.2627V38.8876H37.8871H35.1774V36.2627V33.6377H37.8871H40.5967V36.2627ZM32.2742 44.8181V47.832H29.6613H27.0484V44.8181V41.8043H29.6613H32.2742V44.8181ZM40.5967 44.8236V47.8429L37.9354 47.7888L35.2742 47.7347L35.22 45.0219C35.1904 43.5299 35.2093 42.1955 35.2624 42.0567C35.3348 41.8669 36.0093 41.8043 37.9778 41.8043H40.5967V44.8236ZM67.236 43.5107C68.9086 44.7954 77.6006 51.5528 89.6125 60.9068C92.886 63.456 95.5641 65.5983 95.5641 65.6677C95.5641 65.8667 94.7073 67.079 94.5658 67.0804C94.4956 67.0811 88.02 62.0937 80.1756 55.9974C72.3313 49.901 65.712 44.8625 65.4664 44.8004C65.2208 44.7386 64.8286 44.7905 64.595 44.9161C64.3614 45.0417 57.8199 50.0803 50.0583 56.1131C42.2965 62.1458 35.8819 67.0769 35.8037 67.071C35.5329 67.0506 34.7529 65.9044 34.8453 65.6627C35.0011 65.2549 64.8017 42.1932 65.1731 42.1932C65.3642 42.1932 66.2924 42.786 67.236 43.5107ZM15.7774 79.9139C16.899 80.3987 18.2753 81.7574 18.9094 83.0061C19.4587 84.0878 20.0043 84.2823 21.3703 83.8835C23.1345 83.3682 24.8176 83.9492 25.8355 85.4246C26.2756 86.0628 26.3698 86.4077 26.3704 87.3834L26.371 88.5676L24.6968 88.6648C23.4161 88.7391 22.927 88.8491 22.6162 89.1324C22.1412 89.5653 22.0758 90.5452 22.4844 91.1068C22.7478 91.469 23.1366 91.4881 32.1134 91.5814L41.4677 91.6786L41.5236 93.38L41.5796 95.0814H22.4108H3.24211V93.3314V91.5814H10.2098C16.9195 91.5814 17.1918 91.567 17.5646 91.1925C18.141 90.6135 18.0808 89.5728 17.4417 89.0679C16.9489 88.6784 16.7142 88.6648 10.474 88.6648H4.0163V88.1484C4.0163 87.3616 4.91204 86.3422 6.04564 85.8384C7.08228 85.3778 7.11325 85.3344 7.69408 83.5121C8.75782 80.1753 12.5138 78.5034 15.7774 79.9139ZM60.0482 80.1395C59.2723 80.5657 59.1773 80.8926 59.1773 83.1341C59.1773 85.0379 59.227 85.3704 59.5785 85.8191C59.8694 86.1907 60.158 86.3315 60.6289 86.3315C61.0998 86.3315 61.3883 86.1907 61.6792 85.8191C62.0315 85.3694 62.0797 85.0431 62.0743 83.1456C62.0679 80.899 61.9682 80.5661 61.1739 80.141C60.6616 79.8669 60.5445 79.8669 60.0482 80.1395ZM34.2097 81.3054C36.6805 82.4673 38.1331 85.0857 37.78 87.7412L37.6571 88.6648H33.5396H29.4219L29.3311 87.2551C29.2303 85.6906 28.7427 84.3877 27.8209 83.2183L27.2304 82.4693L28.1356 81.8438C28.6332 81.4996 29.3979 81.1014 29.8347 80.9585C31.0442 80.563 32.9528 80.7143 34.2097 81.3054Z" fill="#C39367"/>
</svg>
