<svg width="94" height="93" viewBox="0 0 94 93" fill="none" xmlns="http://www.w3.org/2000/svg">
<path fill-rule="evenodd" clip-rule="evenodd" d="M42.3209 0.177798C38.1531 0.550645 33.321 1.72351 29.2613 3.34772L26.7566 4.34979H19.9343C13.8132 4.34979 13.0862 4.38068 12.8624 4.64996C12.668 4.88399 12.6013 6.02379 12.5593 9.83693L12.5055 14.7239L11.1006 16.3959C8.30263 19.7261 6.39952 22.67 4.55745 26.5171C3.1084 29.5433 2.19191 32.0502 1.43913 35.0448C-1.91831 48.4042 0.650734 62.1578 8.6028 73.3955C9.20386 74.245 10.3279 75.6924 11.1006 76.6121L12.5055 78.2841L12.5593 83.1711C12.6013 86.9843 12.668 88.1241 12.8624 88.3581C13.0862 88.6274 13.8132 88.6582 19.9343 88.6582H26.7566L29.2613 89.6603C40.3913 94.1132 52.6087 94.1132 63.7387 89.6603L66.2434 88.6582H73.0657C79.1868 88.6582 79.9138 88.6274 80.1376 88.3581C80.3322 88.1239 80.3987 86.9826 80.4407 83.16L80.4947 78.262L81.6083 76.9681C84.506 73.6012 86.5122 70.5225 88.4633 66.4477C95.7481 51.2338 94.2062 33.4746 84.3972 19.6125C83.7961 18.7631 82.6721 17.3157 81.8994 16.3959L80.4945 14.7239L80.4407 9.79459C80.3902 5.15854 80.3658 4.84983 80.0342 4.60744C79.7448 4.39613 78.4756 4.34979 72.9625 4.34979H66.2434L63.7387 3.34772C56.9757 0.642039 49.5002 -0.464328 42.3209 0.177798ZM50.7174 2.54461C53.603 2.84333 58.8225 3.89264 59.1748 4.24495C59.2324 4.30273 53.5219 4.34725 46.4849 4.34434C39.3886 4.34125 33.8116 4.27021 33.9627 4.18463C34.3105 3.98803 37.8417 3.16929 39.5046 2.89965C42.8989 2.3491 47.4399 2.20538 50.7174 2.54461ZM78.1157 20.521V34.5119H46.5H14.8843V20.521V6.53019H46.5H78.1157V20.521ZM27.7205 11.3492C23.3711 12.4483 20.2817 16.1677 20.027 20.6119C19.5776 28.4482 27.6105 33.7582 34.6895 30.3043C36.3356 29.5013 38.434 27.3858 39.214 25.7431C41.8928 20.1026 39.2255 13.7048 33.3144 11.5916C31.9114 11.0901 29.2093 10.9729 27.7205 11.3492ZM32.2021 13.7039C36.9341 15.1396 39.2486 20.3086 37.1172 24.6809C36.8441 25.241 36.149 26.1724 35.5726 26.7504C31.4077 30.9268 24.3003 29.0754 22.6071 23.3733C21.4295 19.4083 23.7729 15.0646 27.785 13.7754C29.0113 13.3813 31.0314 13.3486 32.2021 13.7039ZM33.5079 18.1417C33.2083 18.3299 31.986 19.4712 30.7915 20.6778L28.6197 22.8717L27.4023 21.6963C26.7327 21.05 26.0318 20.521 25.8444 20.521C25.2187 20.521 24.6961 21.0441 24.6961 21.6705C24.6961 22.1652 24.9532 22.5105 26.3803 23.9315C27.7521 25.2977 28.1651 25.6086 28.6081 25.6086C29.0692 25.6086 29.6132 25.1465 32.1932 22.5631C34.8255 19.9276 35.2346 19.4416 35.2346 18.9515C35.2346 18.0038 34.3714 17.5989 33.5079 18.1417ZM42.1392 18.0296C41.562 18.3199 41.4204 19.3011 41.8821 19.8113C42.1857 20.1467 42.6765 20.1576 57.4928 20.1576C72.3091 20.1576 72.7999 20.1467 73.1035 19.8113C73.5652 19.3011 73.4236 18.3199 72.8464 18.0296C72.1841 17.6962 42.8015 17.6962 42.1392 18.0296ZM12.5222 46.5226V74.7045L11.5418 73.4515C9.44607 70.773 7.02947 66.6194 5.69525 63.4021C4.36521 60.1954 3.1838 55.7794 2.6814 52.1367C2.37161 49.8902 2.37161 43.1179 2.6814 40.8713C3.74107 33.1895 6.7164 25.9273 11.2825 19.878C11.9145 19.0409 12.4517 18.3526 12.4768 18.3483C12.5019 18.3441 12.5222 31.0225 12.5222 46.5226ZM83.6101 22.6186C86.4142 26.9486 88.3955 31.6688 89.5396 36.7453C90.3689 40.4247 90.5566 42.227 90.5566 46.504C90.5566 50.781 90.3689 52.5833 89.5396 56.2627C88.1487 62.4341 85.4638 68.2116 81.7146 73.1006L80.4778 74.7134V46.5084V18.3036L81.4582 19.5566C81.9975 20.2458 82.9658 21.6236 83.6101 22.6186ZM41.8796 23.1686C41.7226 23.3257 41.5941 23.6879 41.5941 23.9733C41.5941 25.1295 40.6317 25.0635 57.4928 25.0635C74.3539 25.0635 73.3915 25.1295 73.3915 23.9733C73.3915 22.8172 74.3539 22.8831 57.4928 22.8831C43.8009 22.8831 42.1347 22.9136 41.8796 23.1686ZM78.1157 61.5851V86.4779H46.5H14.8843V61.5851V36.6923H46.5H78.1157V61.5851ZM20.2726 41.5671C19.8589 42.0242 19.8958 42.7448 20.3544 43.1598C20.726 43.4962 21.4544 43.5074 46.2011 43.5585C60.2065 43.5872 71.9284 43.5636 72.25 43.5058C72.5717 43.448 72.9599 43.2756 73.1131 43.1224C73.4923 42.7432 73.4638 41.9016 73.0592 41.5355C72.7532 41.2585 70.6598 41.2347 46.6501 41.2347C21.6181 41.2347 20.5613 41.248 20.2726 41.5671ZM20.9713 44.636C20.0213 44.8675 19.6414 45.9669 20.3042 46.5667C20.6102 46.8436 22.7045 46.8674 46.7284 46.8674C75.3871 46.8674 73.3951 46.9465 73.3888 45.8097C73.3851 45.1691 73.2172 44.9316 72.6038 44.6985C72.0934 44.5044 21.7611 44.4436 20.9713 44.636ZM20.453 48.3325C19.8393 48.8151 19.8022 49.6351 20.3758 50.0368C20.7367 50.2897 23.5421 50.3197 46.7849 50.3197C72.4132 50.3197 72.7948 50.3146 73.1135 49.9623C73.5198 49.5135 73.5301 48.7451 73.1351 48.3503C72.8573 48.0723 70.7856 48.0446 46.8837 48.0012L20.934 47.954L20.453 48.3325ZM20.6079 51.627C19.8683 52.0464 19.7495 52.8228 20.3353 53.4086C20.6952 53.7685 20.9409 53.772 46.7444 53.772C72.413 53.772 72.7948 53.7669 73.1135 53.4146C73.5626 52.9182 73.5241 52.1385 73.0306 51.7388C72.6429 51.4248 71.4569 51.4101 46.7978 51.4154C27.8876 51.4195 20.8739 51.4762 20.6079 51.627ZM20.3353 55.2256C20.1354 55.4255 19.9719 55.7934 19.9719 56.0432C19.9719 56.2931 20.1354 56.661 20.3353 56.8609C20.6952 57.2208 20.9409 57.2243 46.6615 57.2243C71.4475 57.2243 72.6429 57.2094 73.0306 56.8954C73.5677 56.4604 73.5677 55.626 73.0306 55.1911C72.6429 54.8771 71.4475 54.8622 46.6615 54.8622C20.9409 54.8622 20.6952 54.8656 20.3353 55.2256ZM20.3353 57.9511C20.1354 58.1509 19.9719 58.5189 19.9719 58.7687C19.9719 59.0186 20.1354 59.3865 20.3353 59.5864C20.6952 59.9463 20.9409 59.9498 46.6615 59.9498C71.4475 59.9498 72.6429 59.9349 73.0306 59.6209C73.5677 59.1859 73.5677 58.3515 73.0306 57.9165C72.6429 57.6026 71.4475 57.5877 46.6615 57.5877C20.9409 57.5877 20.6952 57.5911 20.3353 57.9511ZM20.7071 62.4334C20.3295 62.9133 20.3262 63.0114 20.376 72.0782C20.4243 80.905 20.4391 81.2475 20.7788 81.4958C21.0725 81.7106 22.6898 81.7537 30.444 81.7537H39.7566L40.0393 81.3498C40.2861 80.9974 40.3222 79.7957 40.3222 71.9259C40.3222 63.0757 40.3151 62.8969 39.9456 62.4272L39.5691 61.9485H30.3288H21.0884L20.7071 62.4334ZM41.8821 62.2948C41.4204 62.805 41.562 63.7862 42.1392 64.0765C42.4932 64.2548 45.8842 64.3053 57.4928 64.3053C69.1014 64.3053 72.4924 64.2548 72.8464 64.0765C73.4236 63.7862 73.5652 62.805 73.1035 62.2948C72.7999 61.9594 72.3091 61.9485 57.4928 61.9485C42.6765 61.9485 42.1857 61.9594 41.8821 62.2948ZM37.9601 71.9419V79.5733H30.3288H22.6974V71.9419V64.3105H30.3288H37.9601V71.9419ZM41.8948 65.7331C41.526 66.1406 41.5069 66.8473 41.8519 67.3193C42.1038 67.6636 42.4752 67.672 57.4928 67.672C72.5104 67.672 72.8818 67.6636 73.1337 67.3193C73.4912 66.8302 73.4558 66.0605 73.0592 65.7015C72.7555 65.4267 71.4111 65.4007 57.4612 65.4007C42.9029 65.4007 42.1815 65.4162 41.8948 65.7331ZM41.8821 68.4725C41.4204 68.9828 41.562 69.9639 42.1392 70.2543C42.4932 70.4325 45.8842 70.4831 57.4928 70.4831C69.1014 70.4831 72.4924 70.4325 72.8464 70.2543C73.4236 69.9639 73.5652 68.9828 73.1035 68.4725C72.7999 68.1371 72.3091 68.1262 57.4928 68.1262C42.6765 68.1262 42.1857 68.1371 41.8821 68.4725ZM59.1748 88.7631C59.0074 88.9304 56.5672 89.5315 54.4948 89.916C48.1473 91.0936 41.5578 90.8534 35.2637 89.215C34.5302 89.024 33.8828 88.8207 33.8252 88.7631C33.7676 88.7053 39.4713 88.6582 46.5 88.6582C53.5287 88.6582 59.2324 88.7053 59.1748 88.7631Z" fill="#C39367"/>
</svg>
