<svg width="91" height="90" viewBox="0 0 91 90" fill="none" xmlns="http://www.w3.org/2000/svg">
<path fill-rule="evenodd" clip-rule="evenodd" d="M0.465433 0.460312L0 0.920438V45V89.0796L0.465433 89.5397L0.930676 90H31.5575H62.1841V88.5V87H32.6087H3.03337V45V3H28.0587H53.084V10.0397V16.4251C53.084 16.8439 53.2516 17.2453 53.5494 17.5397C53.8475 17.8346 54.2498 18 54.6691 18H61.1328H68.2508V27V36H69.7675H71.2842V25.9243V15.8486L63.2717 7.92431L55.2593 0H28.0949H0.930676L0.465433 0.460312ZM61.1414 10.125L66.0679 15H61.0926H56.1173V10.125C56.1173 7.44375 56.1393 5.25 56.1661 5.25C56.193 5.25 58.4318 7.44375 61.1414 10.125ZM22.7503 9C22.7503 9.82843 23.4218 10.5 24.2503 10.5H34.8838H45.5172C46.3457 10.5 47.0172 9.82843 47.0172 9C47.0172 8.17157 46.3457 7.5 45.5172 7.5H34.8838H24.2503C23.4218 7.5 22.7503 8.17157 22.7503 9ZM22.7503 15C22.7503 15.8284 23.4218 16.5 24.2503 16.5H34.8838H45.5172C46.3457 16.5 47.0172 15.8284 47.0172 15C47.0172 14.1716 46.3457 13.5 45.5172 13.5H34.8838H24.2503C23.4218 13.5 22.7503 14.1716 22.7503 15ZM9.10011 24C9.10011 24.8284 9.77168 25.5 10.6001 25.5H20.4752H30.3504C31.1788 25.5 31.8504 24.8284 31.8504 24C31.8504 23.1716 31.1788 22.5 30.3504 22.5H20.4752H10.6001C9.77168 22.5 9.10011 23.1716 9.10011 24ZM34.8838 24C34.8838 24.8284 35.5553 25.5 36.3838 25.5H48.5339H60.6841C61.5125 25.5 62.1841 24.8284 62.1841 24C62.1841 23.1716 61.5125 22.5 60.6841 22.5H48.5339H36.3838C35.5553 22.5 34.8838 23.1716 34.8838 24ZM9.10011 30C9.10011 30.8284 9.77168 31.5 10.6001 31.5H24.267H37.9338C38.7622 31.5 39.4338 30.8284 39.4338 30C39.4338 29.1716 38.7622 28.5 37.9338 28.5H24.267H10.6001C9.77168 28.5 9.10011 29.1716 9.10011 30ZM42.4672 30C42.4672 30.8284 43.1387 31.5 43.9672 31.5H52.3256H60.6841C61.5125 31.5 62.1841 30.8284 62.1841 30C62.1841 29.1716 61.5125 28.5 60.6841 28.5H52.3256H43.9672C43.1387 28.5 42.4672 29.1716 42.4672 30ZM9.10011 36C9.10011 36.8284 9.77168 37.5 10.6001 37.5H23.5086H36.4171C37.2455 37.5 37.9171 36.8284 37.9171 36C37.9171 35.1716 37.2455 34.5 36.4171 34.5H23.5086H10.6001C9.77168 34.5 9.10011 35.1716 9.10011 36ZM40.9505 36C40.9505 36.8284 41.6221 37.5 42.4505 37.5H51.5673H60.6841C61.5125 37.5 62.1841 36.8284 62.1841 36C62.1841 35.1716 61.5125 34.5 60.6841 34.5H51.5673H42.4505C41.6221 34.5 40.9505 35.1716 40.9505 36ZM69.1987 39.1382C69.0423 39.198 68.2745 39.8944 67.4925 40.686C65.8338 42.3647 64.2068 43.5394 62.0893 44.5866C58.8299 46.1985 55.7742 46.8099 51.8937 46.6264C49.4909 46.5128 49.4466 46.5178 48.9937 46.9658L48.5339 47.4204L48.5351 56.4759C48.5362 66.324 48.639 67.7122 49.5867 70.6882C50.9096 74.8427 53.5784 78.7416 56.9705 81.4746C57.3876 81.8108 60.3299 83.8663 63.5089 86.0428C67.3823 88.6946 69.4505 90 69.7783 90C70.1061 90 72.2334 88.6573 76.2265 85.9303C81.2666 82.488 82.495 81.5558 84.1931 79.8834C85.2974 78.7959 86.5686 77.3649 87.0179 76.7033C88.1545 75.0298 89.3521 72.5732 89.9502 70.6882C90.8959 67.7081 90.9988 66.3169 91 56.5052C91.0011 47.9374 90.9829 47.4568 90.6433 47.0421C90.293 46.6142 90.213 46.6048 86.8042 46.5906C83.2163 46.5756 82.2604 46.4383 79.8155 45.5874C76.913 44.577 74.4266 43.0305 72.1874 40.8426C70.3023 39.0006 70.0041 38.8307 69.1987 39.1382ZM9.10011 42C9.10011 42.8284 9.77168 43.5 10.6001 43.5H33.3671H56.134C56.9625 43.5 57.634 42.8284 57.634 42C57.634 41.1716 56.9625 40.5 56.134 40.5H33.3671H10.6001C9.77168 40.5 9.10011 41.1716 9.10011 42ZM71.0209 43.8666C74.9163 47.4705 80.7007 49.6843 86.2275 49.6868L87.9946 49.6875L87.9226 58.3594C87.8551 66.4611 87.8244 67.1241 87.4536 68.4433C86.7693 70.8769 85.9308 72.7821 84.7476 74.5907C82.963 77.3186 81.3284 78.7693 75.7394 82.5847C73.0284 84.4356 70.5823 86.1128 70.3038 86.3117L69.7975 86.6736L64.6163 83.1351C61.7666 81.1888 58.8724 79.1181 58.1848 78.5332C55.3399 76.1139 53.16 72.5357 52.0919 68.5312C51.7188 67.1323 51.6865 66.4466 51.616 58.3594L51.5404 49.6875L53.3075 49.6868C58.8527 49.6843 64.6876 47.4493 68.4967 43.8686C69.1436 43.2606 69.7046 42.7601 69.7434 42.7566C69.7821 42.753 70.3571 43.2525 71.0209 43.8666ZM9.10011 48C9.10011 48.8284 9.77168 49.5 10.6001 49.5H20.4752H30.3504C31.1788 49.5 31.8504 48.8284 31.8504 48C31.8504 47.1716 31.1788 46.5 30.3504 46.5H20.4752H10.6001C9.77168 46.5 9.10011 47.1716 9.10011 48ZM34.8838 48C34.8838 48.8284 35.5553 49.5 36.3838 49.5H40.1922H44.0005C44.829 49.5 45.5005 48.8284 45.5005 48C45.5005 47.1716 44.829 46.5 44.0005 46.5H40.1922H36.3838C35.5553 46.5 34.8838 47.1716 34.8838 48ZM9.10011 54C9.10011 54.8284 9.77168 55.5 10.6001 55.5H15.1668H19.7336C20.562 55.5 21.2336 54.8284 21.2336 54C21.2336 53.1716 20.562 52.5 19.7336 52.5H15.1668H10.6001C9.77168 52.5 9.10011 53.1716 9.10011 54ZM24.267 54C24.267 54.8284 24.9385 55.5 25.767 55.5H34.8838H44.0005C44.829 55.5 45.5005 54.8284 45.5005 54C45.5005 53.1716 44.829 52.5 44.0005 52.5H34.8838H25.767C24.9385 52.5 24.267 53.1716 24.267 54ZM9.10011 64.5C9.10011 65.3284 9.77168 66 10.6001 66H18.2002H25.8003C26.6288 66 27.3003 65.3284 27.3003 64.5C27.3003 63.6716 26.6288 63 25.8003 63H18.2002H10.6001C9.77168 63 9.10011 63.6716 9.10011 64.5ZM30.3337 64.5C30.3337 65.3284 31.0053 66 31.8337 66H37.9171H44.0005C44.829 66 45.5005 65.3284 45.5005 64.5C45.5005 63.6716 44.829 63 44.0005 63H37.9171H31.8337C31.0053 63 30.3337 63.6716 30.3337 64.5ZM9.10011 70.5C9.10011 71.3284 9.77168 72 10.6001 72H27.3003H44.0005C44.829 72 45.5005 71.3284 45.5005 70.5C45.5005 69.6716 44.829 69 44.0005 69H27.3003H10.6001C9.77168 69 9.10011 69.6716 9.10011 70.5ZM9.10011 76.5C9.10011 77.3284 9.77168 78 10.6001 78H22.7503H34.9004C35.7289 78 36.4004 77.3284 36.4004 76.5C36.4004 75.6716 35.7289 75 34.9004 75H22.7503H10.6001C9.77168 75 9.10011 75.6716 9.10011 76.5ZM39.4338 76.5C39.4338 77.3284 40.1054 78 40.9338 78H43.9839H47.0339C47.8623 78 48.5339 77.3284 48.5339 76.5C48.5339 75.6716 47.8623 75 47.0339 75H43.9839H40.9338C40.1054 75 39.4338 75.6716 39.4338 76.5Z" fill="#C39367"/>
</svg>
