<svg width="91" height="91" viewBox="0 0 91 91" fill="none" xmlns="http://www.w3.org/2000/svg">
<path fill-rule="evenodd" clip-rule="evenodd" d="M40.628 4.22297C36.8491 8.00554 36.4094 8.5104 36.4094 9.06588C36.4094 9.47139 36.5701 9.84696 36.8743 10.1512C37.3029 10.5805 37.48 10.6167 39.147 10.6167H40.9547V12.0939V13.5711L40.1498 14.3615L39.3449 15.1519L28.6444 15.2067L17.944 15.2615L16.6789 15.8615C14.3356 16.9726 12.8402 18.8768 12.2936 21.4449C12.1021 22.3452 10.4946 25.7386 6.01801 34.6926L0 46.7298L0.121966 48.1927C0.398094 51.5081 1.63821 54.1198 4.11257 56.5967C5.99395 58.48 7.43179 59.358 9.89498 60.1279C11.9343 60.7652 15.4312 60.7652 17.4705 60.1279C19.9337 59.358 21.3715 58.48 23.2529 56.5967C25.7273 54.1198 26.9674 51.5081 27.2435 48.1927L27.3655 46.7298L21.7549 35.4983L16.1442 24.2667H27.7524H39.3608L40.1577 25.0796L40.9547 25.8925V44.025C40.9547 61.1323 40.9359 62.163 40.6232 62.2512C40.4409 62.3026 40.0142 62.4006 39.675 62.4688C38.5983 62.6859 36.8728 63.9992 36.0563 65.2233C35.1228 66.6224 34.8942 67.6621 34.8942 70.5079V72.7471L33.9115 72.8637C31.8905 73.1033 30.1753 74.3542 29.333 76.2028C29.0187 76.8927 28.9255 77.547 28.8683 79.4665L28.7967 81.8674L24.8854 81.9311L20.9742 81.9948L19.7091 82.5948C19.0135 82.9247 18.0533 83.5553 17.5756 83.996C16.3918 85.0884 15.416 87.0963 15.2628 88.7551C15.1537 89.9372 15.1776 90.049 15.6369 90.5088L16.1276 91H45.5H74.8724L75.3631 90.5088C75.8224 90.049 75.8463 89.9372 75.7372 88.7551C75.584 87.0963 74.6082 85.0884 73.4244 83.996C72.9467 83.5553 71.9865 82.9247 71.2909 82.5948L70.0258 81.9948L66.1145 81.9311L62.2033 81.8674L62.1317 79.4665C62.0745 77.547 61.9813 76.8927 61.667 76.2028C60.8247 74.3542 59.1094 73.1033 57.0885 72.8637L56.1058 72.7471V70.5079C56.1058 67.6441 55.8787 66.6247 54.9207 65.1888C54.0899 63.9432 52.4312 62.6912 51.3144 62.4666C50.9811 62.3995 50.5589 62.3026 50.3768 62.2512C50.0641 62.163 50.0453 61.1323 50.0453 44.025V25.8925L50.8423 25.0796L51.6392 24.2667H63.2461H74.8527L69.2448 35.4995L63.637 46.7323L63.7616 48.249C63.9061 50.0087 64.6763 52.4096 65.6007 53.9825C66.4168 55.3712 68.9643 57.9242 70.3447 58.7369C71.8496 59.6226 73.8694 60.2837 75.8279 60.5311C83.2409 61.4678 90.2504 55.7273 90.8771 48.2061L91 46.7298L84.982 34.6926C80.5054 25.7386 78.8979 22.3452 78.7064 21.4449C78.1598 18.8768 76.6644 16.9726 74.3211 15.8615L73.056 15.2615L62.3556 15.2067L51.6551 15.1519L50.8502 14.3615L50.0453 13.5711V12.0939V10.6167H51.853C53.52 10.6167 53.6971 10.5805 54.1257 10.1512C54.4278 9.84885 54.5906 9.47101 54.5906 9.07232C54.5906 8.52916 54.1711 8.03492 50.9449 4.77636C46.9734 0.765158 46.0746 0 45.3343 0C44.951 0 43.9423 0.905261 40.628 4.22297ZM47.4886 5.6875L49.3753 7.58333H48.6601C48.1531 7.58333 47.8094 7.71889 47.48 8.04876C47.0498 8.4793 47.0151 8.6522 47.0151 10.3712V12.2281H45.5H43.9849V10.3712C43.9849 8.6522 43.9502 8.4793 43.5199 8.04876C43.1906 7.71889 42.8469 7.58333 42.3399 7.58333H41.6247L43.5114 5.6875C44.5491 4.64479 45.4439 3.79167 45.5 3.79167C45.5561 3.79167 46.4509 4.64479 47.4886 5.6875ZM46.8984 15.3972C47.9388 15.7049 49.5076 17.2754 49.815 18.3168C50.3396 20.0943 49.9698 21.5115 48.6313 22.8512C46.7153 24.7693 44.2847 24.7693 42.3686 22.8512C40.4526 20.9332 40.4526 18.5022 42.3686 16.58C43.6972 15.2472 45.1282 14.8736 46.8984 15.3972ZM38.0192 19.7167V21.2333H26.7979C16.7419 21.2333 15.5766 21.2024 15.5766 20.9366C15.5766 20.4756 17.4881 18.6814 18.2281 18.4478C18.6712 18.3081 22.0619 18.2322 28.455 18.2193L38.0192 18.2V19.7167ZM72.6553 18.4305C73.5024 18.6812 75.4234 20.4202 75.4234 20.9366C75.4234 21.2024 74.2581 21.2333 64.2021 21.2333H52.9808V19.7167V18.2H62.4283C69.2923 18.2 72.089 18.2631 72.6553 18.4305ZM18.5601 35.926L23.341 45.5H13.6827H4.0245L8.80543 35.926C11.4349 30.6604 13.6297 26.3521 13.6827 26.3521C13.7358 26.3521 15.9306 30.6604 18.5601 35.926ZM82.1946 35.926L86.9755 45.5H77.3173H67.659L72.4399 35.926C75.0694 30.6604 77.2642 26.3521 77.3173 26.3521C77.3703 26.3521 79.5651 30.6604 82.1946 35.926ZM47.0151 44.6943V62.1833H45.5H43.9849V44.6943V27.2052H45.5H47.0151V44.6943ZM24.0991 48.8757C24.0991 49.5649 23.2908 51.5864 22.5671 52.7072C21.6785 54.0836 20.3905 55.3743 19.222 56.06C13.2873 59.5415 5.87066 56.8098 3.64061 50.3209C2.95616 48.3299 1.81358 48.5333 13.6827 48.5333C23.5995 48.5333 24.0991 48.5498 24.0991 48.8757ZM87.7336 48.904C87.7336 49.4441 86.9302 51.5725 86.3562 52.5531C85.6988 53.6758 83.9896 55.3951 82.8887 56.041C78.5816 58.5678 73.3047 57.9357 69.8523 54.4798C68.6132 53.2395 67.9654 52.2099 67.342 50.4906C66.5486 48.303 65.3752 48.5333 77.3173 48.5333C87.5266 48.5333 87.7336 48.5407 87.7336 48.904ZM50.8976 65.575C52.6132 66.3676 53.0755 67.417 53.0755 70.5189V72.8H45.5H37.9245V70.5189C37.9245 67.417 38.3868 66.3676 40.1024 65.575C40.7736 65.2648 41.3888 65.225 45.5 65.225C49.6112 65.225 50.2264 65.2648 50.8976 65.575ZM57.6074 76.1655C58.8151 76.782 59.0335 77.302 59.1049 79.7331L59.1685 81.9H45.5H31.8315L31.8951 79.7331C31.9665 77.302 32.1849 76.782 33.3926 76.1655C33.9897 75.8606 34.9655 75.8339 45.5 75.8339C56.0345 75.8339 57.0103 75.8606 57.6074 76.1655ZM69.6251 85.1639C70.4722 85.4145 72.3932 87.1535 72.3932 87.67C72.3932 87.9379 69.7767 87.9667 45.5 87.9667C21.2232 87.9667 18.6068 87.9379 18.6068 87.67C18.6068 87.2089 20.5183 85.4147 21.2583 85.1811C22.2565 84.8662 68.5626 84.8497 69.6251 85.1639Z" fill="#C39367"/>
</svg>
