<svg width="91" height="90" viewBox="0 0 91 90" fill="none" xmlns="http://www.w3.org/2000/svg">
<path fill-rule="evenodd" clip-rule="evenodd" d="M66.2242 0.211055C54.9614 2.05021 43.9311 10.9834 37.9562 23.1043L36.7863 25.4773L35.6752 24.7207C33.1479 23.0003 29.8192 21.6084 26.7497 20.989C24.3219 20.4988 19.9953 20.6771 17.6908 21.3622C8.59212 24.0673 2.23976 32.5886 0.343701 44.6319C-0.0723824 47.2746 -0.121848 54.1027 0.256566 56.6634C1.8701 67.5832 6.6466 77.2786 13.3285 83.1974C18.576 87.8455 23.8691 90.0352 29.7719 89.9996C33.8581 89.975 37.1025 88.9617 40.6279 86.6087C44.9348 83.7345 48.6602 78.5485 50.6063 72.7186C51.268 70.7362 52.2217 66.6805 52.2217 65.8491C52.2217 65.3984 52.2316 65.3965 55.028 65.2912C58.2446 65.1703 59.974 64.8545 63.084 63.8196C72.6498 60.637 81.3147 52.6029 86.5382 42.073C89.5247 36.0528 90.8013 31.118 90.9784 24.9078C91.1338 19.4603 90.4634 15.8175 88.569 11.8184C87.4395 9.43335 86.4247 7.91804 84.8037 6.19542C81.9689 3.18293 78.6186 1.31058 74.3862 0.372981C72.4941 -0.0460411 68.3078 -0.129006 66.2242 0.211055ZM74.2669 3.44918C74.9338 3.61129 75.5591 3.79324 75.6565 3.85351C75.7539 3.91397 75.1227 4.70681 74.2538 5.61562C71.0574 8.95902 69.2684 11.2504 67.3077 14.5133C64.3106 19.5004 62.7673 23.6261 61.4212 30.2481C60.1488 36.5082 58.0029 41.9246 55.0247 46.3931C53.6469 48.4604 52.0252 50.6256 51.8412 50.6434C51.7889 50.6485 51.4776 49.5591 51.1495 48.2223C49.3911 41.0599 45.6957 34.1865 40.8703 29.1031L39.2788 27.4267L40.1357 25.5757C45.811 13.3178 56.3808 4.70243 67.7274 3.08623C68.8538 2.92583 73.0784 3.16023 74.2669 3.44918ZM80.9996 6.75424C81.311 7.0224 81.1636 7.21713 78.8908 9.53825C74.2922 14.2345 71.0802 19.2637 68.7703 25.3846C67.8666 27.7789 67.254 30.0448 66.4091 34.1165C64.5509 43.0709 60.7902 50.249 54.7993 56.2759L52.7078 58.3799L52.544 56.5305L52.3804 54.681L53.8467 53.0021C58.2044 48.0123 61.5599 41.8018 63.3409 35.4302C63.5951 34.5207 64.0648 32.4792 64.3846 30.8933C65.3703 26.0079 66.442 22.7375 68.2454 19.1126C70.3669 14.8488 72.6989 11.6309 76.4449 7.79827L78.9072 5.27937L79.7858 5.87271C80.2692 6.19904 80.8152 6.59575 80.9996 6.75424ZM84.3228 10.4604C86.762 14.0889 87.987 18.5584 87.9885 23.8344C87.9935 40.8115 74.805 58.2258 59.2858 61.734C57.4927 62.1393 52.9782 62.4561 52.99 62.1757C52.994 62.0811 53.3828 61.7033 53.8545 61.3362C55.449 60.0944 59.5706 55.722 61.1145 53.6343C65.0092 48.3673 67.7218 42.434 69.0593 36.2559C69.3319 34.9971 69.7303 33.1518 69.9449 32.1553C71.1824 26.4071 73.8535 20.6174 77.5351 15.7042C78.8842 13.9035 83.1051 9.26837 83.3957 9.26837C83.4649 9.26837 83.8819 9.80488 84.3228 10.4604ZM53.4496 14.3319C53.1308 14.4896 52.3389 15.1129 51.6898 15.717C50.7863 16.5577 50.5094 16.9401 50.5094 17.3478C50.5094 17.9608 51.4268 18.9957 51.9693 18.9946C52.4666 18.9936 53.2957 18.4327 54.5523 17.2471C55.4136 16.4348 55.6449 16.095 55.6402 15.6504C55.6333 15.0105 55.3607 14.5818 54.7551 14.2583C54.231 13.9785 54.1551 13.9829 53.4496 14.3319ZM47.6722 20.0596C46.5023 21.0464 43.4701 26.0643 43.4701 27.0136C43.4701 27.6317 43.7834 28.0759 44.3999 28.3319C45.2472 28.6837 45.8937 28.2794 46.6719 26.9104C47.0297 26.281 47.9538 24.8168 48.7256 23.6564C50.4054 21.1312 50.4942 20.4603 49.2378 19.7893C48.6233 19.4613 48.3195 19.5137 47.6722 20.0596ZM21.6463 27.2442C21.9654 36.985 24.3253 44.3836 29.7372 52.6107C33.1567 57.8089 34.7928 61.2007 36.1303 65.8632C37.6008 70.9903 38.1116 77.1434 37.5015 82.3798C37.3325 83.8312 37.1516 85.0877 37.0995 85.172C36.9764 85.3718 34.5069 86.3634 34.4 86.256C34.3549 86.2108 34.4283 85.4132 34.563 84.4833C34.9266 81.975 34.8689 75.2962 34.4605 72.5889C33.3579 65.2834 31.0336 59.4018 26.5467 52.5628C23.1703 47.4165 21.3254 43.4294 20.0798 38.5869C19.2033 35.1787 18.9035 32.7895 18.7916 28.3183L18.6885 24.195L19.6165 24.0018C20.127 23.8954 20.7668 23.7983 21.0385 23.7859L21.5324 23.7634L21.6463 27.2442ZM28.0162 24.456C31.2939 25.3987 34.8802 27.5787 37.8085 30.4088C40.9114 33.4072 42.9161 36.2111 45.0806 40.5794C48.0607 46.5937 49.5582 53.0513 49.5582 59.8884C49.5582 68.3478 47.1515 75.5697 42.5437 80.9365C40.5927 83.209 40.7114 83.4085 40.711 77.8628C40.7107 74.1275 40.6342 72.6013 40.3652 70.9678C39.1121 63.3571 36.7555 57.5621 32.1103 50.6693C31.2214 49.3505 29.8639 46.9841 29.0932 45.4107C26.1631 39.4271 24.9366 34.3574 24.6944 27.2279L24.5755 23.7312L25.5089 23.8672C26.0224 23.942 27.1507 24.2069 28.0162 24.456ZM15.7489 29.056C16.0445 38.7599 18.4893 46.0612 24.3683 54.7995C30.3653 63.7126 32.7358 73.6959 31.4613 84.6709C31.1624 87.2448 31.1936 87.224 28.1089 86.9131C14.9418 85.5854 3.76464 70.2941 3.01314 52.5798C2.51696 40.8844 7.04822 30.4434 14.5516 25.9915C15.0225 25.7121 15.4599 25.4828 15.5238 25.4817C15.5875 25.4807 15.6888 27.0893 15.7489 29.056ZM13.2529 71.5044C12.5817 72.2208 12.7166 72.9416 13.7868 74.3588C15.2632 76.3138 15.9574 76.6227 16.9509 75.766C17.7791 75.0519 17.6539 74.3871 16.3754 72.714C15.7742 71.9269 15.1536 71.2334 14.9964 71.173C14.3857 70.938 13.6534 71.0774 13.2529 71.5044ZM18.6677 77.1802C18.2796 77.4861 18.1664 77.743 18.1664 78.3175C18.1664 78.9921 18.2709 79.1468 19.3154 80.0182C20.5735 81.0678 22.1429 82.168 23.6682 83.0694C24.9248 83.8123 25.7923 83.838 26.3334 83.1484C27.1585 82.0969 26.7876 81.4116 24.6879 80.1088C23.874 79.6038 22.4962 78.6492 21.6262 77.9877C20.7472 77.3195 19.8496 76.7849 19.6066 76.7849C19.366 76.7849 18.9434 76.9628 18.6677 77.1802Z" fill="#C39367"/>
</svg>
