<svg width="705" height="649" viewBox="0 0 705 649" fill="none" xmlns="http://www.w3.org/2000/svg">
<path d="M704.449 383.687L533.935 482.153V473.747L704.449 375.352V383.687Z" fill="#C39367"/>
<path d="M244.82 278.228L74.3057 376.694V217.058L244.82 118.662V278.228Z" fill="#CE939A"/>
<path d="M526.951 493.454L91.4824 242.768V200.881L525.75 457.288L526.951 493.454Z" fill="#623B2A"/>
<path d="M704.449 543.324L533.935 641.719V482.154L704.449 383.688V543.324Z" fill="#CFA580"/>
<path d="M533.941 482.153V641.719L518.966 633.101V473.465L533.941 482.153Z" fill="#C39367"/>
<path d="M74.3126 217.059V376.695L59.3379 368.007V208.441L74.3126 217.059Z" fill="#C39367"/>
<path d="M59.3379 208.441L533.939 482.154V473.748L59.3379 200.035V208.441Z" fill="#C39367"/>
<path opacity="0.2" d="M229.781 101.639L704.452 375.352L533.938 473.747L59.3369 200.034L229.781 101.639Z" fill="#704232"/>
<path d="M229.788 101.639L702.552 374.292L533.945 470.992L62.5938 199.61L229.788 101.639Z" fill="#D8B89A"/>
<path d="M206.051 239.592L168.897 218.119C166.283 216.636 166.637 213.952 169.603 212.256L219.966 183.154C223.004 181.389 227.524 181.247 230.209 182.731L267.363 204.204C269.976 205.687 269.623 208.371 266.657 210.067L216.293 239.168C213.256 240.934 208.665 241.076 206.051 239.592Z" fill="#A76478"/>
<path d="M216.783 218.686C216.783 218.686 233.806 208.656 235.289 207.526C238.75 204.842 237.973 203.499 236.561 201.592C235.148 199.685 227.025 194.034 217.418 195.8C207.741 197.566 199.477 207.949 198.771 210.28C198.064 212.611 198.771 214.377 202.302 216.285C205.905 218.192 211.273 221.3 216.783 218.686Z" fill="#E5E8F5"/>
<path d="M321.32 248.987L364.832 223.7C367.516 222.146 396.406 221.227 399.09 222.781C400.008 222.993 400.856 223.276 401.633 223.7L522.985 293.488C525.598 295.042 525.598 297.514 522.985 299.068L479.473 324.355C478.979 324.638 478.343 324.85 477.707 324.991C475.8 326.121 447.263 325.415 445.356 324.355L321.32 253.013C319.413 251.883 319.413 250.117 321.32 248.987Z" fill="#CE939A" fill-opacity="0.2"/>
<path d="M355.444 253.998L395.635 230.829C399.803 228.428 402.063 223.695 401.286 218.963L391.892 155.391L414.848 168.67L453.133 249.265C455.534 254.492 453.557 260.708 448.612 263.604L412.235 284.654C404.112 289.316 394.152 289.316 386.1 284.654L355.514 266.995C350.499 264.099 350.499 256.894 355.444 253.998Z" fill="#C4C8D8"/>
<path d="M355.726 262.828L386.311 280.487C394.434 285.149 404.394 285.149 412.447 280.487L446.21 260.991C449.954 258.801 451.437 254.21 449.601 250.255L410.257 167.328L387.3 154.049L396.695 217.621C397.472 222.353 395.211 227.086 391.044 229.488L355.726 249.901C350.711 252.727 350.711 259.932 355.726 262.828Z" fill="#DBDBE9"/>
<path d="M320.972 142.043L325.069 7.55251L321.89 2.81992L327.612 0.277041C328.813 -0.217409 330.367 -0.0761373 331.991 0.912761L502.859 99.5201C506.532 101.639 509.357 106.796 509.216 111.034L505.048 248.279L504.907 252.022C504.837 255.413 503.353 257.673 501.234 258.45L495.725 260.922L492.263 255.766L329.872 162.103C324.716 159.137 320.689 151.79 320.831 145.786L320.972 142.043Z" fill="#EFF0F5"/>
<path d="M503.422 113.648L499.184 254.637C498.972 260.641 494.663 263.113 489.507 260.147L324.078 164.647C318.922 161.681 314.896 154.335 315.037 148.331L315.178 144.587L499.255 250.893L503.422 113.648Z" fill="#D3D3E3"/>
<path d="M326.204 3.45651C322.531 1.33745 319.493 3.10334 319.352 7.34147L315.185 144.586L499.261 250.893L503.428 113.648C503.57 109.41 500.674 104.183 497.071 102.134L326.204 3.45651Z" fill="#494855"/>
<path d="M323.307 6.98828L499.614 108.774L495.658 238.744L319.352 136.958L323.307 6.98828Z" fill="#CFA580"/>
<path d="M356.077 51.0625L465.351 114.14L462.878 194.665L353.676 131.587L356.077 51.0625Z" fill="#EFF0F5"/>
<path d="M356.073 51.0625L465.347 114.14L464.923 127.773L355.649 64.6952L356.073 51.0625Z" fill="#D9DBE6"/>
<path d="M454.336 113.361L461.258 117.317L461.046 122.403L454.194 118.447L454.336 113.361Z" fill="#FC797E"/>
<path d="M355.726 262.83L386.311 280.489C394.434 285.151 404.394 285.151 412.447 280.489L446.21 260.994L391.044 229.49L355.726 249.904C350.711 252.729 350.711 259.934 355.726 262.83Z" fill="#EFF0F5"/>
<path d="M209.089 262.761L263.549 231.258C265.386 230.198 268.423 230.198 270.26 231.258L408.635 311.57L416.122 313.407V317.009C416.122 317.716 415.628 318.422 414.709 318.987L358.766 351.338C356.929 352.398 353.892 352.398 352.056 351.338L207.606 267.494C206.687 266.999 206.264 266.293 206.264 265.657V262.055L209.089 262.761Z" fill="#C5C9D8"/>
<path d="M207.6 263.96L352.05 347.805C353.886 348.864 356.924 348.864 358.76 347.805L414.704 315.453C416.54 314.394 416.54 312.628 414.704 311.568L270.254 227.795C268.417 226.735 265.38 226.735 263.543 227.795L207.6 260.146C205.764 261.205 205.764 262.901 207.6 263.96Z" fill="#DADAE8"/>
<path d="M387.502 315.313V314.536H388.138L394.495 310.863C395.131 310.509 396.19 310.509 396.826 310.863L403.183 314.536H403.748V315.242V315.313C403.748 315.524 403.607 315.736 403.254 315.948L396.755 319.692C396.119 320.045 395.06 320.045 394.424 319.692L387.996 315.948C387.714 315.807 387.502 315.524 387.502 315.313Z" fill="#E7E7F0"/>
<path d="M346.611 338.902V338.125H347.247L353.604 334.452C354.24 334.099 355.3 334.099 355.935 334.452L362.292 338.125H362.858V338.832V338.902C362.858 339.114 362.646 339.326 362.363 339.538L355.865 343.282C355.229 343.635 354.169 343.635 353.534 343.282L347.106 339.538C346.753 339.397 346.611 339.185 346.611 338.902Z" fill="#E7E7F0"/>
<path d="M336.498 333.039V332.262H337.134L343.491 328.589C344.127 328.236 345.186 328.236 345.822 328.589L352.179 332.262H352.744V332.969V333.039C352.744 333.251 352.603 333.463 352.25 333.675L345.751 337.419C345.116 337.772 344.056 337.772 343.42 337.419L336.992 333.675C336.639 333.534 336.498 333.251 336.498 333.039Z" fill="#E7E7F0"/>
<path d="M326.399 327.176V326.399H327.035L333.392 322.726C334.028 322.373 335.088 322.373 335.723 322.726L342.081 326.399H342.646V327.105V327.176C342.646 327.388 342.434 327.6 342.151 327.812L335.653 331.555C335.017 331.908 333.957 331.908 333.322 331.555L326.894 327.812C326.611 327.67 326.399 327.388 326.399 327.176Z" fill="#E7E7F0"/>
<path d="M316.301 321.316V320.54H316.937L323.294 316.866C323.929 316.513 324.989 316.513 325.625 316.866L331.982 320.54H332.547V321.246V321.316C332.547 321.528 332.406 321.74 332.053 321.952L325.554 325.696C324.918 326.049 323.859 326.049 323.223 325.696L316.795 321.952C316.513 321.811 316.301 321.528 316.301 321.316Z" fill="#E7E7F0"/>
<path d="M377.473 309.449V308.672H378.108L384.466 304.999C385.101 304.646 386.161 304.646 386.797 304.999L393.154 308.672H393.719V309.379V309.449C393.719 309.661 393.507 309.873 393.224 310.085L386.726 313.829C386.09 314.182 385.031 314.182 384.395 313.829L377.896 310.085C377.614 309.944 377.402 309.661 377.473 309.449Z" fill="#E7E7F0"/>
<path d="M361.58 311.99V311.213H362.216L368.573 307.54C369.209 307.187 370.268 307.187 370.904 307.54L377.261 311.213H377.826V311.92V311.99C377.826 312.202 377.614 312.414 377.332 312.626L370.833 316.37C370.198 316.723 369.138 316.723 368.502 316.37L362.075 312.626C361.721 312.485 361.58 312.202 361.58 311.99Z" fill="#E7E7F0"/>
<path d="M351.481 306.127V305.35H352.117L358.474 301.677C359.11 301.324 360.17 301.324 360.805 301.677L367.163 305.35H367.728V306.056V306.127C367.728 306.339 367.586 306.551 367.233 306.763L360.735 310.506C360.099 310.86 359.039 310.86 358.404 310.506L351.976 306.763C351.623 306.621 351.481 306.339 351.481 306.127Z" fill="#E7E7F0"/>
<path d="M346.252 314.957V314.18H346.888L353.245 310.507C353.881 310.154 354.94 310.154 355.576 310.507L361.933 314.18H362.498V314.886V314.957C362.498 315.169 362.286 315.381 362.004 315.593L355.505 319.337C354.87 319.69 353.81 319.69 353.174 319.337L346.746 315.593C346.393 315.452 346.252 315.24 346.252 314.957Z" fill="#E7E7F0"/>
<path d="M335.933 320.893V320.116H336.568L342.926 316.443C343.561 316.089 344.621 316.089 345.257 316.443L351.614 320.116H352.179V320.822V320.893C352.179 321.105 352.038 321.316 351.684 321.528L345.186 325.272C344.55 325.625 343.491 325.625 342.855 325.272L336.427 321.528C336.074 321.387 335.933 321.175 335.933 320.893Z" fill="#E7E7F0"/>
<path d="M325.834 315.027V314.321H326.47L332.827 310.648C333.463 310.295 334.522 310.295 335.158 310.648L341.515 314.321H342.08V315.027V315.098C342.08 315.31 341.868 315.522 341.586 315.733L335.087 319.477C334.452 319.83 333.392 319.83 332.756 319.477L326.328 315.733C325.975 315.522 325.834 315.31 325.834 315.027Z" fill="#E7E7F0"/>
<path d="M315.735 309.166V308.389H316.371L322.728 304.716C323.364 304.363 324.424 304.363 325.059 304.716L331.416 308.389H331.982V309.095V309.166C331.982 309.378 331.84 309.59 331.487 309.802L324.989 313.546C324.353 313.899 323.293 313.899 322.658 313.546L316.23 309.802C315.877 309.661 315.735 309.449 315.735 309.166Z" fill="#E7E7F0"/>
<path d="M305.637 303.303V302.526H306.272L312.63 298.853C313.265 298.5 314.325 298.5 314.961 298.853L321.318 302.526H321.883V303.232V303.303C321.883 303.515 321.742 303.727 321.388 303.939L314.89 307.682C314.254 308.035 313.195 308.035 312.559 307.682L306.131 303.939C305.778 303.797 305.637 303.585 305.637 303.303Z" fill="#E7E7F0"/>
<path d="M295.538 297.44V296.663H296.174L302.531 292.989C303.167 292.636 304.226 292.636 304.862 292.989L311.219 296.663H311.784V297.369V297.44C311.784 297.651 311.572 297.863 311.29 298.075L304.791 301.819C304.156 302.172 303.096 302.172 302.46 301.819L296.033 298.075C295.679 297.934 295.538 297.722 295.538 297.44Z" fill="#E7E7F0"/>
<path d="M285.439 291.576V290.799H286.075L292.432 287.126C293.068 286.773 294.128 286.773 294.763 287.126L301.121 290.799H301.686V291.506V291.576C301.686 291.788 301.544 292 301.191 292.212L294.693 295.956C294.057 296.309 292.997 296.309 292.362 295.956L285.934 292.212C285.581 292.071 285.439 291.859 285.439 291.576Z" fill="#E7E7F0"/>
<path d="M275.341 285.715V284.938H275.977L282.334 281.265C282.969 280.912 284.029 280.912 284.665 281.265L291.022 284.938H291.587V285.644V285.715C291.587 285.927 291.375 286.139 291.093 286.351L284.594 290.094C283.958 290.448 282.899 290.448 282.263 290.094L275.835 286.351C275.553 286.209 275.341 285.997 275.341 285.715Z" fill="#E7E7F0"/>
<path d="M265.229 279.852V279.075H265.864L272.221 275.402C272.857 275.048 273.917 275.048 274.552 275.402L280.91 279.075H281.475V279.781V279.852C281.475 280.064 281.333 280.275 280.98 280.487L274.482 284.231C273.846 284.584 272.787 284.584 272.151 284.231L265.723 280.487C265.44 280.346 265.229 280.134 265.229 279.852Z" fill="#E7E7F0"/>
<path d="M255.13 273.988V273.211H255.766L262.123 269.538C262.759 269.185 263.818 269.185 264.454 269.538L270.811 273.211H271.376V273.918V273.988C271.376 274.2 271.235 274.412 270.882 274.624L264.383 278.368C263.747 278.721 262.688 278.721 262.052 278.368L255.624 274.624C255.342 274.483 255.13 274.2 255.13 273.988Z" fill="#E7E7F0"/>
<path d="M244.327 279.498V278.721H244.963L251.32 275.048C251.956 274.695 253.015 274.695 253.651 275.048L260.008 278.721H260.573V279.428V279.498C260.573 279.71 260.361 279.922 260.079 280.134L253.58 283.878C252.945 284.231 251.885 284.231 251.249 283.878L244.822 280.134C244.539 279.993 244.327 279.71 244.327 279.498Z" fill="#E7E7F0"/>
<path d="M234.229 273.637V272.86H234.864L241.221 269.187C241.857 268.834 242.917 268.834 243.552 269.187L249.91 272.86H250.475V273.566V273.637C250.475 273.849 250.333 274.061 249.98 274.273L243.482 278.016C242.846 278.369 241.787 278.369 241.151 278.016L234.723 274.273C234.44 274.131 234.229 273.849 234.229 273.637Z" fill="#E7E7F0"/>
<path d="M213.811 261.697V260.92H214.446L220.803 257.247C221.439 256.894 222.499 256.894 223.134 257.247L229.492 260.92H230.057V261.627V261.697C230.057 261.909 229.845 262.121 229.562 262.333L223.064 266.077C222.428 266.43 221.369 266.43 220.733 266.077L214.305 262.333C213.952 262.192 213.811 261.98 213.811 261.697Z" fill="#E7E7F0"/>
<path d="M224.614 255.129L230.971 251.456C231.607 251.103 232.667 251.103 233.302 251.456L234.221 251.951L239.66 255.129H240.225V255.483L240.578 255.694H241.143V256.401V256.471C241.143 256.683 240.931 256.895 240.649 257.107L234.15 260.851C233.514 261.204 232.455 261.204 231.819 260.851L224.473 256.613C224.12 256.401 223.979 256.189 223.979 255.906V255.129H224.614Z" fill="#E7E7F0"/>
<path d="M245.099 268.125V267.348H245.735L252.092 263.675C252.728 263.322 253.788 263.322 254.423 263.675L260.781 267.348H261.346V268.054V268.125C261.346 268.337 261.134 268.549 260.851 268.761L254.353 272.504C253.717 272.858 252.657 272.858 252.022 272.504L245.594 268.761C245.241 268.62 245.029 268.337 245.099 268.125Z" fill="#E7E7F0"/>
<path d="M235.001 262.262V261.485H235.637L241.994 257.812C242.63 257.459 243.689 257.459 244.325 257.812L250.682 261.485H251.247V262.191V262.262C251.247 262.474 251.106 262.686 250.753 262.898L244.254 266.641C243.619 266.994 242.559 266.994 241.923 266.641L235.495 262.898C235.142 262.756 235.001 262.474 235.001 262.262Z" fill="#E7E7F0"/>
<path d="M336.153 309.096V308.319H336.789L343.146 304.646C343.782 304.293 344.841 304.293 345.477 304.646L351.834 308.319H352.4V309.025V309.096C352.4 309.308 352.188 309.52 351.905 309.731L345.407 313.475C344.771 313.828 343.711 313.828 343.076 313.475L336.648 309.731C336.295 309.59 336.153 309.378 336.153 309.096Z" fill="#E7E7F0"/>
<path d="M326.055 303.233V302.456H326.69L333.048 298.782C333.683 298.429 334.743 298.429 335.379 298.782L341.736 302.456H342.301V303.162V303.233C342.301 303.444 342.16 303.656 341.806 303.868L335.308 307.612C334.672 307.965 333.613 307.965 332.977 307.612L326.549 303.868C326.196 303.727 326.055 303.515 326.055 303.233Z" fill="#E7E7F0"/>
<path d="M315.956 297.369V296.592H316.592L322.949 292.919C323.585 292.566 324.644 292.566 325.28 292.919L331.637 296.592H332.202V297.299V297.369C332.202 297.581 331.99 297.793 331.708 298.005L325.209 301.749C324.574 302.102 323.514 302.102 322.878 301.749L316.451 298.076C316.097 297.864 315.956 297.652 315.956 297.369Z" fill="#E7E7F0"/>
<path d="M305.844 291.506V290.729H306.479L312.837 287.056C313.472 286.703 314.532 286.703 315.168 287.056L321.525 290.729H322.09V291.435V291.506C322.09 291.718 321.949 291.93 321.595 292.142L315.097 295.885C314.461 296.239 313.402 296.239 312.766 295.885L306.338 292.142C305.985 292 305.844 291.788 305.844 291.506Z" fill="#E7E7F0"/>
<path d="M295.745 285.643V284.866H296.381L302.738 281.193C303.374 280.839 304.433 280.839 305.069 281.193L311.426 284.866H311.991V285.572V285.643C311.991 285.855 311.85 286.066 311.497 286.278L304.998 290.022C304.363 290.375 303.303 290.375 302.667 290.022L296.24 286.278C295.886 286.137 295.745 285.855 295.745 285.643Z" fill="#E7E7F0"/>
<path d="M285.646 279.779V279.002H286.282L292.639 275.329C293.275 274.976 294.335 274.976 294.97 275.329L301.328 279.002H301.893V279.709V279.779C301.893 279.991 301.681 280.203 301.398 280.415L294.9 284.159C294.264 284.512 293.204 284.512 292.569 284.159L286.141 280.415C285.788 280.274 285.646 279.991 285.646 279.779Z" fill="#E7E7F0"/>
<path d="M275.548 273.916V273.139H276.184L282.541 269.466C283.177 269.113 284.236 269.113 284.872 269.466L291.229 273.139H291.794V273.845V273.916C291.794 274.128 291.653 274.34 291.3 274.552L284.801 278.296C284.165 278.649 283.106 278.649 282.47 278.296L276.042 274.552C275.689 274.411 275.548 274.128 275.548 273.916Z" fill="#E7E7F0"/>
<path d="M265.449 268.057V267.28H266.085L272.442 263.607C273.078 263.254 274.137 263.254 274.773 263.607L281.13 267.28H281.695V267.986V268.057C281.695 268.269 281.483 268.481 281.201 268.692L274.702 272.436C274.067 272.789 273.007 272.789 272.372 272.436L265.944 268.692C265.59 268.551 265.449 268.269 265.449 268.057Z" fill="#E7E7F0"/>
<path d="M255.351 262.193V261.416H255.986L262.343 257.743C262.979 257.39 264.039 257.39 264.674 257.743L271.032 261.416H271.597V262.123V262.193C271.597 262.405 271.456 262.617 271.102 262.829L264.604 266.573C263.968 266.926 262.909 266.926 262.273 266.573L255.845 262.829C255.562 262.688 255.351 262.405 255.351 262.193Z" fill="#E7E7F0"/>
<path d="M341.382 300.268V299.491H342.018L348.375 295.818C349.01 295.464 350.07 295.464 350.706 295.818L357.063 299.491H357.628V300.197V300.268C357.628 300.48 357.487 300.691 357.134 300.903L350.635 304.647C349.999 305 348.94 305 348.304 304.647L341.876 300.903C341.523 300.762 341.382 300.48 341.382 300.268Z" fill="#E7E7F0"/>
<path d="M331.283 294.332V293.555H331.919L338.276 289.882C338.912 289.529 339.971 289.529 340.607 289.882L346.964 293.555H347.529V294.261V294.332C347.529 294.544 347.317 294.756 347.035 294.968L340.536 298.712C339.901 299.065 338.841 299.065 338.205 298.712L331.778 294.968C331.424 294.827 331.283 294.615 331.283 294.332Z" fill="#E7E7F0"/>
<path d="M321.171 288.469V287.692H321.807L328.164 284.019C328.8 283.666 329.859 283.666 330.495 284.019L336.852 287.692H337.417V288.398V288.469C337.417 288.681 337.276 288.893 336.923 289.105L330.424 292.848C329.788 293.201 328.729 293.201 328.093 292.848L321.665 289.105C321.312 288.963 321.171 288.751 321.171 288.469Z" fill="#E7E7F0"/>
<path d="M311.072 282.607V281.831H311.708L318.065 278.157C318.701 277.804 319.76 277.804 320.396 278.157L326.753 281.831H327.318V282.537V282.607C327.318 282.819 327.107 283.031 326.824 283.243L320.326 286.987C319.69 287.34 318.63 287.34 317.995 286.987L311.567 283.243C311.214 283.102 311.072 282.89 311.072 282.607Z" fill="#E7E7F0"/>
<path d="M300.974 276.744V275.967H301.609L307.967 272.294C308.602 271.941 309.662 271.941 310.298 272.294L316.655 275.967H317.22V276.674V276.744C317.22 276.956 317.079 277.168 316.725 277.38L310.227 281.124C309.591 281.477 308.532 281.477 307.896 281.124L301.468 277.38C301.186 277.239 300.974 277.027 300.974 276.744Z" fill="#E7E7F0"/>
<path d="M290.875 270.881V270.104H291.511L297.868 266.431C298.504 266.078 299.563 266.078 300.199 266.431L306.556 270.104H307.121V270.81V270.881C307.121 271.093 306.98 271.305 306.627 271.517L300.128 275.26C299.493 275.614 298.433 275.614 297.797 275.26L291.369 271.517C291.087 271.375 290.875 271.163 290.875 270.881Z" fill="#E7E7F0"/>
<path d="M280.776 265.018V264.241H281.412L287.769 260.568C288.405 260.214 289.465 260.214 290.1 260.568L296.457 264.241H297.023V264.947V265.018C297.023 265.23 296.811 265.441 296.528 265.653L290.03 269.397C289.394 269.75 288.334 269.75 287.699 269.397L281.271 265.653C280.988 265.512 280.776 265.3 280.776 265.018Z" fill="#E7E7F0"/>
<path d="M270.747 259.154V258.377H271.383L277.74 254.704C278.376 254.351 279.435 254.351 280.071 254.704L286.428 258.377H286.993V259.084V259.154C286.993 259.366 286.852 259.578 286.499 259.79L280 263.534C279.364 263.887 278.305 263.887 277.669 263.534L271.241 259.79C270.888 259.649 270.676 259.437 270.747 259.154Z" fill="#E7E7F0"/>
<path d="M260.648 253.291V252.514H261.284L267.641 248.841C268.277 248.488 269.337 248.488 269.972 248.841L276.33 252.514H276.895V253.22V253.291C276.895 253.503 276.683 253.715 276.4 253.927L269.902 257.671C269.266 258.024 268.206 258.024 267.571 257.671L261.143 253.927C260.79 253.786 260.648 253.574 260.648 253.291Z" fill="#E7E7F0"/>
<path d="M367.374 303.516V302.739H368.01L374.367 299.066C375.003 298.712 376.062 298.712 376.698 299.066L383.055 302.739H383.62V303.445V303.516C383.62 303.728 383.408 303.94 383.126 304.151L376.627 307.895C375.992 308.248 374.932 308.248 374.296 307.895L367.868 304.151C367.515 304.01 367.374 303.798 367.374 303.516Z" fill="#E7E7F0"/>
<path d="M357.275 297.652V296.875H357.911L364.268 293.202C364.904 292.849 365.964 292.849 366.599 293.202L372.956 296.875H373.522V297.582V297.652C373.522 297.864 373.31 298.076 373.027 298.288L366.529 302.032C365.893 302.385 364.833 302.385 364.198 302.032L357.77 298.288C357.417 298.147 357.275 297.935 357.275 297.652Z" fill="#E7E7F0"/>
<path d="M347.177 291.789V291.012H347.812L354.17 287.339C354.805 286.986 355.865 286.986 356.501 287.339L362.858 291.012H363.423V291.719V291.789C363.423 292.001 363.282 292.213 362.928 292.425L356.43 296.169C355.794 296.522 354.735 296.522 354.099 296.169L347.671 292.425C347.318 292.284 347.177 292.072 347.177 291.789Z" fill="#E7E7F0"/>
<path d="M337.064 285.926V285.149H337.7L344.057 281.476C344.693 281.123 345.753 281.123 346.388 281.476L352.746 285.149H353.311V285.855V285.926C353.311 286.138 353.169 286.35 352.816 286.562L346.318 290.305C345.682 290.658 344.622 290.658 343.987 290.305L337.559 286.562C337.206 286.42 337.064 286.208 337.064 285.926Z" fill="#E7E7F0"/>
<path d="M326.966 280.063V279.286H327.602L333.959 275.613C334.594 275.259 335.654 275.259 336.29 275.613L342.647 279.286H343.212V279.992V280.063C343.212 280.274 343.071 280.486 342.718 280.698L336.219 284.442C335.583 284.795 334.524 284.795 333.888 284.442L327.46 280.698C327.107 280.557 326.966 280.345 326.966 280.063Z" fill="#E7E7F0"/>
<path d="M316.867 274.199V273.422H317.503L323.86 269.749C324.496 269.396 325.555 269.396 326.191 269.749L332.548 273.422H333.113V274.129V274.199C333.113 274.411 332.972 274.623 332.619 274.835L326.12 278.579C325.485 278.932 324.425 278.932 323.789 278.579L317.362 274.835C317.008 274.694 316.867 274.482 316.867 274.199Z" fill="#E7E7F0"/>
<path d="M306.768 268.34V267.563H307.403L313.76 263.89C314.396 263.537 315.456 263.537 316.091 263.89L322.449 267.563H323.014V268.269V268.411C323.014 268.622 322.802 268.834 322.519 269.046L316.021 272.79C315.385 273.143 314.326 273.143 313.69 272.79L307.262 269.046C306.909 268.834 306.768 268.622 306.768 268.34Z" fill="#E7E7F0"/>
<path d="M296.669 262.477V261.7H297.305L303.662 258.027C304.298 257.673 305.357 257.673 305.993 258.027L312.35 261.7H312.915V262.406V262.477C312.915 262.689 312.703 262.9 312.421 263.112L305.922 266.856C305.286 267.209 304.227 267.209 303.591 266.856L297.163 263.112C296.81 262.971 296.669 262.759 296.669 262.477Z" fill="#E7E7F0"/>
<path d="M286.57 256.613V255.836H287.206L293.563 252.163C294.199 251.81 295.258 251.81 295.894 252.163L302.251 255.836H302.816V256.543V256.613C302.816 256.825 302.675 257.037 302.322 257.249L295.824 260.993C295.188 261.346 294.128 261.346 293.493 260.993L287.065 257.249C286.712 257.108 286.57 256.825 286.57 256.613Z" fill="#E7E7F0"/>
<path d="M276.458 250.75V249.973H277.094L283.451 246.3C284.087 245.947 285.146 245.947 285.782 246.3L292.139 249.973H292.704V250.679V250.75C292.704 250.962 292.492 251.174 292.21 251.386L285.711 255.129C285.076 255.483 284.016 255.483 283.38 255.129L276.952 251.386C276.599 251.245 276.458 250.962 276.458 250.75Z" fill="#E7E7F0"/>
<path d="M266.359 244.887V244.11H266.995L273.352 240.437C273.988 240.084 275.048 240.084 275.683 240.437L282.04 244.11H282.606V244.816V244.887C282.606 245.099 282.394 245.311 282.111 245.523L275.613 249.266C274.977 249.619 273.917 249.619 273.282 249.266L266.854 245.523C266.571 245.381 266.359 245.099 266.359 244.887Z" fill="#E7E7F0"/>
<path d="M254.702 237.329H255.338L261.695 233.656C262.331 233.302 263.39 233.302 264.026 233.656L271.867 238.247H272.502V238.953V239.024V239.094C272.502 239.306 272.29 239.518 272.008 239.66L265.509 243.403C264.874 243.756 263.814 243.756 263.178 243.403L255.197 238.741C254.843 238.529 254.702 238.317 254.702 238.035V237.329Z" fill="#E7E7F0"/>
<path d="M254.426 285.291V284.584H255.062L261.419 280.911C261.913 280.629 262.62 280.558 263.255 280.7C263.467 280.77 263.608 280.841 263.82 280.911L270.178 284.584H270.743V284.938L315.596 311.002L321.953 314.675H322.519V315.382V315.452C322.519 315.523 322.519 315.523 322.519 315.594C322.519 315.594 322.519 315.594 322.519 315.664C322.519 315.735 322.448 315.735 322.448 315.805L322.377 315.876L322.307 315.947C322.236 316.017 322.165 316.017 322.095 316.088L315.596 319.832C315.455 319.902 315.243 319.973 315.031 320.044C314.819 320.114 314.607 320.114 314.395 320.114C313.972 320.114 313.548 320.044 313.195 319.832L306.767 316.088L254.991 285.997C254.567 285.856 254.426 285.573 254.426 285.291Z" fill="#E7E7F0"/>
<path d="M386.026 302.669V301.963L386.45 302.033L386.521 301.963L388.287 300.974C388.922 300.621 389.982 300.621 390.618 300.974L396.551 304.435L397.54 304.647V305.424C397.54 305.636 397.328 305.918 397.046 306.06L395.28 307.049C394.644 307.402 393.584 307.402 392.949 307.049L386.521 303.305C386.238 303.164 386.026 302.881 386.026 302.669Z" fill="#E7E7F0"/>
<path d="M375.914 296.806V296.099L376.338 296.17L376.409 296.099L378.174 295.111C378.81 294.757 379.87 294.757 380.505 295.111L386.439 298.572L387.428 298.784V299.561C387.428 299.773 387.216 300.055 386.933 300.196L385.167 301.185C384.532 301.538 383.472 301.538 382.836 301.185L376.409 297.442C376.126 297.3 375.914 297.018 375.914 296.806Z" fill="#E7E7F0"/>
<path d="M365.815 290.943V290.236L366.239 290.307L366.31 290.236L368.076 289.247C368.711 288.894 369.771 288.894 370.407 289.247L376.34 292.708L377.329 292.92V293.697C377.329 293.909 377.117 294.192 376.835 294.333L375.069 295.322C374.433 295.675 373.373 295.675 372.738 295.322L366.31 291.578C366.027 291.437 365.886 291.154 365.815 290.943Z" fill="#E7E7F0"/>
<path d="M355.785 285.079C355.785 285.079 355.785 285.009 355.785 285.079V284.373L356.209 284.444L356.28 284.373L358.045 283.384C358.681 283.031 359.741 283.031 360.376 283.384L366.31 286.845L367.299 287.057V287.834C367.299 288.046 367.087 288.329 366.804 288.47L365.038 289.459C364.403 289.812 363.343 289.812 362.707 289.459L356.28 285.715C355.926 285.574 355.785 285.291 355.785 285.079Z" fill="#E7E7F0"/>
<path d="M345.687 279.216C345.687 279.216 345.687 279.145 345.687 279.216V278.51L346.11 278.58L346.181 278.51L347.947 277.521C348.583 277.168 349.642 277.168 350.278 277.521L356.211 280.982L357.2 281.194V281.971C357.2 282.183 356.988 282.465 356.706 282.606L354.94 283.595C354.304 283.949 353.245 283.949 352.609 283.595L346.11 279.852C345.828 279.64 345.687 279.428 345.687 279.216Z" fill="#E7E7F0"/>
<path d="M335.588 273.353C335.588 273.282 335.588 273.282 335.588 273.353V272.646L336.012 272.717L336.082 272.646L337.848 271.657C338.484 271.304 339.543 271.304 340.179 271.657L346.113 275.048L347.102 275.26V276.037C347.102 276.249 346.89 276.531 346.607 276.673L344.841 277.662C344.205 278.015 343.146 278.015 342.51 277.662L336.082 273.918C335.729 273.777 335.588 273.565 335.588 273.353Z" fill="#E7E7F0"/>
<path d="M325.489 267.419V266.713L325.913 266.783L325.984 266.713L327.75 265.724C328.385 265.371 329.445 265.371 330.081 265.724L336.014 269.185L337.003 269.397V270.174C337.003 270.386 336.791 270.668 336.508 270.81L334.743 271.799C334.107 272.152 333.047 272.152 332.412 271.799L325.984 268.055C325.631 267.914 325.489 267.702 325.489 267.419Z" fill="#E7E7F0"/>
<path d="M315.391 261.556V260.849L315.814 260.92L315.885 260.849L317.651 259.861C318.287 259.507 319.346 259.507 319.982 259.861L325.915 263.322L326.904 263.534V264.311C326.904 264.523 326.692 264.805 326.41 264.946L324.644 265.935C324.008 266.288 322.949 266.288 322.313 265.935L315.885 262.192C315.532 262.05 315.391 261.838 315.391 261.556Z" fill="#E7E7F0"/>
<path d="M305.278 255.693V254.986L305.702 255.057L305.773 254.986L307.539 253.997C308.174 253.644 309.234 253.644 309.87 253.997L315.803 257.458L316.792 257.67V258.447C316.792 258.659 316.58 258.942 316.297 259.083L314.532 260.072C313.896 260.425 312.836 260.425 312.201 260.072L305.773 256.328C305.42 256.187 305.278 255.975 305.278 255.693Z" fill="#E7E7F0"/>
<path d="M295.18 249.833V249.127L295.603 249.197L295.674 249.127L297.44 248.138C298.076 247.785 299.135 247.785 299.771 248.138L305.704 251.599L306.693 251.811V252.588C306.693 252.8 306.481 253.082 306.199 253.224L304.433 254.283C303.797 254.636 302.738 254.636 302.102 254.283L295.674 250.54C295.321 250.328 295.18 250.116 295.18 249.833Z" fill="#E7E7F0"/>
<path d="M285.081 243.97V243.264L285.505 243.334L285.576 243.264L287.341 242.275C287.977 241.921 289.037 241.921 289.672 242.275L295.606 245.736L296.595 245.948V246.725C296.595 246.937 296.383 247.219 296.1 247.36L294.334 248.349C293.699 248.702 292.639 248.702 292.003 248.349L285.576 244.606C285.222 244.464 285.081 244.252 285.081 243.97Z" fill="#E7E7F0"/>
<path d="M274.982 238.107V237.4L275.406 237.471L275.477 237.4L277.243 236.411C277.878 236.058 278.938 236.058 279.574 236.411L285.507 239.872L286.496 240.084V240.861C286.496 241.073 286.284 241.356 286.002 241.497L284.236 242.486C283.6 242.839 282.54 242.839 281.905 242.486L275.477 238.813C275.124 238.601 274.982 238.389 274.982 238.107Z" fill="#E7E7F0"/>
<path d="M264.884 232.243V231.537L265.308 231.608L265.378 231.537L267.144 230.548C267.78 230.195 268.839 230.195 269.475 230.548L275.409 234.009L276.397 234.221V234.998C276.397 235.21 276.185 235.493 275.903 235.634L274.137 236.623C273.501 236.976 272.442 236.976 271.806 236.623L265.378 232.879C265.025 232.738 264.884 232.526 264.884 232.243Z" fill="#E7E7F0"/>
<path d="M371.611 317.149L372.034 317.22L378.533 313.476C379.169 313.123 380.228 313.123 380.864 313.476L392.872 320.469L393.508 320.539V321.175C393.508 321.387 393.366 321.67 393.013 321.811L386.515 325.555C385.879 325.908 384.82 325.908 384.184 325.555L372.034 318.491C371.681 318.279 371.54 318.067 371.54 317.785V317.149H371.611Z" fill="#E7E7F0"/>
<path d="M356.351 320.116L356.774 320.186C356.774 320.186 356.774 320.186 356.845 320.186L363.343 316.443C363.979 316.089 365.039 316.089 365.674 316.443L382.486 326.19L383.333 326.402V327.109C383.333 327.321 383.192 327.603 382.839 327.744L376.34 331.488C375.705 331.841 374.645 331.841 374.009 331.488L356.845 321.528C356.492 321.316 356.351 321.105 356.351 320.822V320.116Z" fill="#E7E7F0"/>
<path d="M346.045 326.047L346.469 326.118C346.469 326.118 346.469 326.118 346.539 326.118L353.038 322.374C353.674 322.021 354.733 322.021 355.369 322.374L372.18 332.122L373.028 332.334V333.04C373.028 333.252 372.886 333.535 372.533 333.676L366.035 337.42C365.399 337.773 364.34 337.773 363.704 337.42L346.539 327.389C346.186 327.177 346.045 326.966 346.045 326.683V326.047Z" fill="#E7E7F0"/>
<path d="M244.534 243.26L245.029 243.331L251.527 239.587C252.163 239.234 253.222 239.234 253.858 239.587L266.007 246.651L266.714 246.792V247.498V247.569C266.714 247.781 266.572 248.063 266.219 248.205L259.721 251.948C259.085 252.302 258.026 252.302 257.39 251.948L245.029 244.744C244.675 244.532 244.534 244.32 244.534 244.037V243.26Z" fill="#E7E7F0"/>
<path d="M234.786 249.266L241.284 245.523C241.92 245.17 242.979 245.17 243.615 245.523L261.062 255.624C261.698 255.977 261.698 256.613 261.062 256.966L254.564 260.709C253.928 261.063 252.868 261.063 252.233 260.709L234.786 250.608C234.079 250.255 234.079 249.62 234.786 249.266Z" fill="#E7E7F0"/>
<path d="M228.931 265.019V264.312L229.354 264.383L229.425 264.312L231.191 263.323C231.827 262.97 232.886 262.97 233.522 263.323L239.455 266.785L240.444 266.997V267.774C240.444 267.985 240.232 268.268 239.95 268.409L238.184 269.398C237.548 269.751 236.489 269.751 235.853 269.398L229.425 265.654C229.072 265.513 228.931 265.231 228.931 265.019Z" fill="#E7E7F0"/>
<path d="M224.199 267.771V267.064L224.623 267.135L224.694 267.064L226.46 266.075C227.095 265.722 228.155 265.722 228.791 266.075L234.724 269.537L235.713 269.748V270.525C235.713 270.737 235.501 271.02 235.218 271.161L233.452 272.15C232.817 272.503 231.757 272.503 231.122 272.15L224.623 268.406C224.34 268.265 224.199 267.983 224.199 267.771Z" fill="#E7E7F0"/>
<path d="M336.437 320.255L342.935 316.511C343.571 316.158 344.63 316.158 345.266 316.511L351.694 320.255C352.33 320.608 352.33 321.244 351.694 321.597L345.196 325.34C344.56 325.694 343.5 325.694 342.865 325.34L336.437 321.597C335.801 321.244 335.801 320.608 336.437 320.255Z" fill="#E7E7F0"/>
<path d="M396.125 308.462V307.685L396.619 307.826L398.385 306.837C399.021 306.484 400.081 306.484 400.716 306.837L408.133 311.146L409.193 311.428V312.205C409.193 312.417 408.981 312.629 408.698 312.841L406.932 313.83C406.297 314.183 405.237 314.183 404.601 313.83L396.619 309.168C396.266 309.027 396.125 308.744 396.125 308.462Z" fill="#E7E7F0"/>
<path d="M388.006 313.903L394.505 310.159C395.14 309.806 396.2 309.806 396.836 310.159L403.263 313.903C403.899 314.256 403.899 314.892 403.263 315.245L396.765 318.989C396.129 319.342 395.07 319.342 394.434 318.989L388.006 315.245C387.37 314.892 387.37 314.256 388.006 313.903Z" fill="#F4F5FA"/>
<path d="M377.907 308.04L384.406 304.296C385.042 303.943 386.101 303.943 386.737 304.296L393.165 308.04C393.8 308.393 393.8 309.029 393.165 309.382L386.666 313.126C386.031 313.479 384.971 313.479 384.335 313.126L377.907 309.382C377.272 309.029 377.272 308.393 377.907 308.04Z" fill="#F4F5FA"/>
<path d="M367.875 302.175L374.374 298.431C375.01 298.078 376.069 298.078 376.705 298.431L383.133 302.175C383.768 302.528 383.768 303.163 383.133 303.517L376.634 307.26C375.999 307.614 374.939 307.614 374.303 307.26L367.875 303.517C367.169 303.163 367.169 302.528 367.875 302.175Z" fill="#F4F5FA"/>
<path d="M357.777 296.311L364.275 292.568C364.911 292.214 365.971 292.214 366.606 292.568L373.034 296.311C373.67 296.665 373.67 297.3 373.034 297.653L366.536 301.397C365.9 301.75 364.84 301.75 364.205 301.397L357.777 297.653C357.07 297.3 357.07 296.665 357.777 296.311Z" fill="#F4F5FA"/>
<path d="M347.678 290.448L354.177 286.704C354.812 286.351 355.872 286.351 356.508 286.704L362.935 290.448C363.571 290.801 363.571 291.437 362.935 291.79L356.437 295.534C355.801 295.887 354.742 295.887 354.106 295.534L347.678 291.79C346.972 291.437 346.972 290.801 347.678 290.448Z" fill="#F4F5FA"/>
<path d="M337.567 284.589L344.066 280.845C344.701 280.492 345.761 280.492 346.397 280.845L352.824 284.589C353.46 284.942 353.46 285.578 352.824 285.931L346.326 289.674C345.69 290.028 344.631 290.028 343.995 289.674L337.567 285.931C336.861 285.507 336.931 284.942 337.567 284.589Z" fill="#F4F5FA"/>
<path d="M327.47 278.653L333.968 274.909C334.604 274.556 335.664 274.556 336.299 274.909L342.727 278.653C343.363 279.006 343.363 279.642 342.727 279.995L336.229 283.739C335.593 284.092 334.534 284.092 333.898 283.739L327.47 279.995C326.834 279.642 326.834 279.077 327.47 278.653Z" fill="#F4F5FA"/>
<path d="M317.371 272.79L323.87 269.046C324.506 268.693 325.565 268.693 326.201 269.046L332.629 272.79C333.264 273.143 333.264 273.779 332.629 274.132L326.13 277.876C325.494 278.229 324.435 278.229 323.799 277.876L317.371 274.132C316.736 273.779 316.736 273.214 317.371 272.79Z" fill="#F4F5FA"/>
<path d="M307.273 266.93L313.771 263.187C314.407 262.834 315.466 262.834 316.102 263.187L322.53 266.93C323.166 267.284 323.166 267.919 322.53 268.273L316.032 272.016C315.396 272.369 314.336 272.369 313.701 272.016L307.273 268.273C306.637 267.919 306.637 267.354 307.273 266.93Z" fill="#F4F5FA"/>
<path d="M297.174 261.067L303.673 257.323C304.308 256.97 305.368 256.97 306.004 257.323L312.431 261.067C313.067 261.42 313.067 262.056 312.431 262.409L305.933 266.153C305.297 266.506 304.238 266.506 303.602 266.153L297.174 262.409C296.538 262.056 296.538 261.491 297.174 261.067Z" fill="#F4F5FA"/>
<path d="M287.074 255.204L293.573 251.46C294.209 251.107 295.268 251.107 295.904 251.46L302.332 255.204C302.967 255.557 302.967 256.193 302.332 256.546L295.833 260.29C295.198 260.643 294.138 260.643 293.502 260.29L287.074 256.546C286.439 256.193 286.439 255.628 287.074 255.204Z" fill="#F4F5FA"/>
<path d="M351.986 304.718L358.484 300.974C359.12 300.621 360.179 300.621 360.815 300.974L367.243 304.718C367.879 305.071 367.879 305.706 367.243 306.06L360.744 309.803C360.109 310.156 359.049 310.156 358.413 309.803L351.986 306.06C351.35 305.706 351.35 305.071 351.986 304.718Z" fill="#F4F5FA"/>
<path d="M341.887 298.858L348.385 295.114C349.021 294.761 350.081 294.761 350.716 295.114L357.144 298.858C357.78 299.211 357.78 299.847 357.144 300.2L350.646 303.944C350.01 304.297 348.951 304.297 348.315 303.944L341.887 300.2C341.251 299.847 341.251 299.211 341.887 298.858Z" fill="#F4F5FA"/>
<path d="M331.787 292.995L338.286 289.251C338.922 288.898 339.981 288.898 340.617 289.251L347.045 292.995C347.68 293.348 347.68 293.984 347.045 294.337L340.546 298.081C339.91 298.434 338.851 298.434 338.215 298.081L331.787 294.337C331.152 293.984 331.152 293.348 331.787 292.995Z" fill="#F4F5FA"/>
<path d="M321.675 287.132L328.173 283.388C328.809 283.035 329.869 283.035 330.504 283.388L336.932 287.132C337.568 287.485 337.568 288.121 336.932 288.474L330.434 292.217C329.798 292.571 328.739 292.571 328.103 292.217L321.675 288.474C321.039 288.121 321.039 287.485 321.675 287.132Z" fill="#F4F5FA"/>
<path d="M311.576 281.268L318.075 277.525C318.711 277.171 319.77 277.171 320.406 277.525L326.834 281.268C327.469 281.622 327.469 282.257 326.834 282.61L320.335 286.354C319.699 286.707 318.64 286.707 318.004 286.354L311.576 282.61C310.941 282.257 310.941 281.622 311.576 281.268Z" fill="#F4F5FA"/>
<path d="M301.478 275.405L307.976 271.661C308.612 271.308 309.671 271.308 310.307 271.661L316.735 275.405C317.371 275.758 317.371 276.394 316.735 276.747L310.237 280.491C309.601 280.844 308.541 280.844 307.906 280.491L301.478 276.747C300.842 276.323 300.842 275.758 301.478 275.405Z" fill="#F4F5FA"/>
<path d="M291.379 269.471L297.878 265.728C298.513 265.375 299.573 265.375 300.209 265.728L306.636 269.471C307.272 269.825 307.272 270.46 306.636 270.814L300.138 274.557C299.502 274.91 298.443 274.91 297.807 274.557L291.379 270.814C290.743 270.46 290.743 269.895 291.379 269.471Z" fill="#F4F5FA"/>
<path d="M281.281 263.608L287.779 259.864C288.415 259.511 289.474 259.511 290.11 259.864L296.538 263.608C297.174 263.961 297.174 264.597 296.538 264.95L290.039 268.694C289.404 269.047 288.344 269.047 287.708 268.694L281.281 264.95C280.645 264.597 280.645 264.032 281.281 263.608Z" fill="#F4F5FA"/>
<path d="M271.249 257.745L277.747 254.001C278.383 253.648 279.442 253.648 280.078 254.001L286.506 257.745C287.142 258.098 287.142 258.734 286.506 259.087L280.007 262.831C279.372 263.184 278.312 263.184 277.676 262.831L271.249 259.087C270.542 258.734 270.542 258.169 271.249 257.745Z" fill="#F4F5FA"/>
<path d="M261.15 251.882L267.648 248.138C268.284 247.785 269.344 247.785 269.979 248.138L276.407 251.882C277.043 252.235 277.043 252.87 276.407 253.224L269.909 256.967C269.273 257.321 268.213 257.321 267.578 256.967L261.15 253.224C260.444 252.87 260.444 252.305 261.15 251.882Z" fill="#F4F5FA"/>
<path d="M276.962 249.341L283.461 245.597C284.096 245.244 285.156 245.244 285.792 245.597L292.219 249.341C292.855 249.694 292.855 250.33 292.219 250.683L285.721 254.426C285.085 254.78 284.026 254.78 283.39 254.426L276.962 250.683C276.326 250.33 276.326 249.764 276.962 249.341Z" fill="#F4F5FA"/>
<path d="M266.864 243.477L273.362 239.734C273.998 239.38 275.057 239.38 275.693 239.734L282.121 243.477C282.757 243.831 282.757 244.466 282.121 244.819L275.622 248.563C274.987 248.916 273.927 248.916 273.291 248.563L266.864 244.819C266.228 244.466 266.228 243.831 266.864 243.477Z" fill="#F4F5FA"/>
<path d="M347.115 337.493L353.614 333.749C354.25 333.396 355.309 333.396 355.945 333.749L362.373 337.493C363.008 337.846 363.008 338.482 362.373 338.835L355.874 342.579C355.239 342.932 354.179 342.932 353.543 342.579L347.115 338.835C346.48 338.482 346.48 337.917 347.115 337.493Z" fill="#F4F5FA"/>
<path d="M337.003 331.63L343.502 327.886C344.137 327.533 345.197 327.533 345.833 327.886L352.26 331.63C352.896 331.983 352.896 332.619 352.26 332.972L345.762 336.715C345.126 337.069 344.067 337.069 343.431 336.715L337.003 332.972C336.367 332.619 336.367 332.053 337.003 331.63Z" fill="#F4F5FA"/>
<path d="M326.904 325.766L333.402 322.023C334.038 321.67 335.097 321.67 335.733 322.023L342.161 325.766C342.797 326.12 342.797 326.755 342.161 327.108L335.662 330.852C335.027 331.205 333.967 331.205 333.331 330.852L326.904 327.108C326.268 326.755 326.268 326.12 326.904 325.766Z" fill="#F4F5FA"/>
<path d="M316.805 319.907L323.303 316.163C323.939 315.81 324.999 315.81 325.634 316.163L332.062 319.907C332.698 320.26 332.698 320.896 332.062 321.249L325.564 324.993C324.928 325.346 323.868 325.346 323.233 324.993L316.805 321.249C316.169 320.896 316.169 320.26 316.805 319.907Z" fill="#F4F5FA"/>
<path d="M362.084 310.581L368.583 306.837C369.218 306.484 370.278 306.484 370.914 306.837L377.342 310.581C377.977 310.934 377.977 311.57 377.342 311.923L370.843 315.667C370.207 316.02 369.148 316.02 368.512 315.667L362.084 311.923C361.448 311.57 361.448 310.934 362.084 310.581Z" fill="#F4F5FA"/>
<path d="M255.206 236.696L261.705 232.952C262.34 232.599 263.4 232.599 264.036 232.952L272.018 237.614C272.653 237.968 272.653 238.603 272.018 238.956L265.519 242.7C264.883 243.053 263.824 243.053 263.188 242.7L255.206 238.038C254.571 237.685 254.571 237.12 255.206 236.696Z" fill="#F4F5FA"/>
<path d="M254.93 283.952L261.428 280.208C262.064 279.855 263.124 279.855 263.759 280.208L321.963 314.043C322.599 314.396 322.599 315.032 321.963 315.385L315.465 319.128C314.829 319.482 313.769 319.482 313.134 319.128L254.93 285.294C254.294 284.941 254.294 284.305 254.93 283.952Z" fill="#F4F5FA"/>
<path d="M386.531 301.26L388.296 300.271C388.932 299.918 389.992 299.918 390.627 300.271L397.055 304.014C397.691 304.368 397.691 305.003 397.055 305.357L395.289 306.345C394.654 306.699 393.594 306.699 392.958 306.345L386.531 302.602C385.895 302.249 385.895 301.613 386.531 301.26Z" fill="#F4F5FA"/>
<path d="M376.418 295.396L378.184 294.407C378.82 294.054 379.879 294.054 380.515 294.407L386.943 298.151C387.579 298.504 387.579 299.14 386.943 299.493L385.177 300.482C384.541 300.835 383.482 300.835 382.846 300.482L376.418 296.738C375.782 296.385 375.782 295.75 376.418 295.396Z" fill="#F4F5FA"/>
<path d="M366.32 289.533L368.085 288.544C368.721 288.191 369.781 288.191 370.416 288.544L376.844 292.288C377.48 292.641 377.48 293.277 376.844 293.63L375.078 294.619C374.443 294.972 373.383 294.972 372.747 294.619L366.32 290.875C365.684 290.522 365.684 289.886 366.32 289.533Z" fill="#F4F5FA"/>
<path d="M356.221 283.67L357.987 282.681C358.623 282.328 359.682 282.328 360.318 282.681L366.746 286.425C367.381 286.778 367.381 287.413 366.746 287.767L364.98 288.756C364.344 289.109 363.284 289.109 362.649 288.756L356.221 285.012C355.585 284.659 355.585 284.023 356.221 283.67Z" fill="#F4F5FA"/>
<path d="M346.198 277.807L347.964 276.818C348.6 276.464 349.659 276.464 350.295 276.818L356.723 280.561C357.359 280.915 357.359 281.55 356.723 281.903L354.957 282.892C354.321 283.245 353.262 283.245 352.626 282.892L346.127 279.149C345.492 278.795 345.492 278.16 346.198 277.807Z" fill="#F4F5FA"/>
<path d="M336.09 271.943L337.856 270.954C338.492 270.601 339.551 270.601 340.187 270.954L346.615 274.698C347.251 275.051 347.251 275.687 346.615 276.04L344.849 277.029C344.213 277.382 343.154 277.382 342.518 277.029L336.09 273.285C335.384 272.932 335.384 272.296 336.09 271.943Z" fill="#F4F5FA"/>
<path d="M325.992 266.082L327.758 265.093C328.393 264.74 329.453 264.74 330.089 265.093L336.516 268.837C337.152 269.19 337.152 269.826 336.516 270.179L334.75 271.168C334.115 271.521 333.055 271.521 332.42 271.168L325.992 267.424C325.285 267 325.285 266.435 325.992 266.082Z" fill="#F4F5FA"/>
<path d="M315.894 260.146L317.66 259.157C318.296 258.804 319.355 258.804 319.991 259.157L326.419 262.901C327.055 263.254 327.055 263.89 326.419 264.243L324.653 265.232C324.017 265.585 322.958 265.585 322.322 265.232L315.894 261.488C315.188 261.135 315.259 260.57 315.894 260.146Z" fill="#F4F5FA"/>
<path d="M305.782 254.283L307.548 253.294C308.184 252.941 309.244 252.941 309.879 253.294L316.307 257.038C316.943 257.391 316.943 258.027 316.307 258.38L314.541 259.369C313.906 259.722 312.846 259.722 312.21 259.369L305.782 255.625C305.147 255.272 305.147 254.707 305.782 254.283Z" fill="#F4F5FA"/>
<path d="M295.684 248.424L297.45 247.435C298.085 247.082 299.145 247.082 299.781 247.435L306.209 251.179C306.844 251.532 306.844 252.167 306.209 252.521L304.443 253.58C303.807 253.933 302.747 253.933 302.112 253.58L295.684 249.836C295.048 249.413 295.048 248.848 295.684 248.424Z" fill="#F4F5FA"/>
<path d="M285.585 242.56L287.351 241.572C287.987 241.218 289.046 241.218 289.682 241.572L296.11 245.315C296.746 245.668 296.746 246.304 296.11 246.657L294.344 247.646C293.708 247.999 292.649 247.999 292.013 247.646L285.585 243.902C284.949 243.549 284.949 242.984 285.585 242.56Z" fill="#F4F5FA"/>
<path d="M275.487 236.697L277.252 235.708C277.888 235.355 278.948 235.355 279.583 235.708L286.011 239.452C286.647 239.805 286.647 240.441 286.011 240.794L284.245 241.783C283.61 242.136 282.55 242.136 281.914 241.783L275.487 238.039C274.851 237.686 274.851 237.121 275.487 236.697Z" fill="#F4F5FA"/>
<path d="M265.388 230.834L267.154 229.845C267.79 229.492 268.849 229.492 269.485 229.845L275.913 233.589C276.548 233.942 276.548 234.578 275.913 234.931L274.147 235.92C273.511 236.273 272.451 236.273 271.816 235.92L265.388 232.176C264.752 231.823 264.752 231.187 265.388 230.834Z" fill="#F4F5FA"/>
<path d="M396.629 307.119L398.395 306.13C399.031 305.777 400.09 305.777 400.726 306.13L408.708 310.792C409.344 311.145 409.344 311.781 408.708 312.134L406.942 313.123C406.306 313.476 405.247 313.476 404.611 313.123L396.629 308.461C395.993 308.108 395.993 307.472 396.629 307.119Z" fill="#F4F5FA"/>
<path d="M372.114 316.516L378.612 312.773C379.248 312.42 380.307 312.42 380.943 312.773L393.092 319.836C393.728 320.189 393.728 320.825 393.092 321.178L386.594 324.922C385.958 325.275 384.899 325.275 384.263 324.922L372.114 317.858C371.478 317.435 371.478 316.87 372.114 316.516Z" fill="#F4F5FA"/>
<path d="M356.853 319.483L363.351 315.739C363.987 315.386 365.047 315.386 365.682 315.739L382.847 325.77C383.483 326.123 383.483 326.759 382.847 327.112L376.348 330.856C375.713 331.209 374.653 331.209 374.017 330.856L356.853 320.896C356.147 320.472 356.147 319.836 356.853 319.483Z" fill="#F4F5FA"/>
<path d="M346.549 325.415L353.048 321.671C353.683 321.318 354.743 321.318 355.379 321.671L372.543 331.631C373.179 331.984 373.179 332.62 372.543 332.973L366.044 336.716C365.409 337.07 364.349 337.07 363.714 336.716L346.549 326.757C345.913 326.404 345.913 325.768 346.549 325.415Z" fill="#F4F5FA"/>
<path d="M244.969 242.628L251.467 238.884C252.103 238.531 253.163 238.531 253.798 238.884L266.16 246.089C266.795 246.442 266.795 247.078 266.16 247.431L259.661 251.175C259.025 251.528 257.966 251.528 257.33 251.175L244.969 243.97C244.333 243.617 244.333 242.981 244.969 242.628Z" fill="#F4F5FA"/>
<path d="M234.799 248.491L241.298 244.747C241.933 244.394 242.993 244.394 243.629 244.747L261.076 254.848C261.711 255.201 261.711 255.837 261.076 256.19L254.577 259.934C253.942 260.287 252.882 260.287 252.246 259.934L234.799 249.833C234.093 249.48 234.093 248.915 234.799 248.491Z" fill="#F4F5FA"/>
<path d="M229.366 263.609L231.132 262.62C231.768 262.267 232.828 262.267 233.463 262.62L239.891 266.364C240.527 266.717 240.527 267.353 239.891 267.706L238.125 268.695C237.49 269.048 236.43 269.048 235.794 268.695L229.366 264.951C228.731 264.598 228.731 263.962 229.366 263.609Z" fill="#F4F5FA"/>
<path d="M224.634 266.361L226.4 265.372C227.036 265.019 228.095 265.019 228.731 265.372L235.159 269.116C235.794 269.469 235.794 270.105 235.159 270.458L233.393 271.447C232.757 271.8 231.698 271.8 231.062 271.447L224.634 267.703C223.998 267.35 223.998 266.714 224.634 266.361Z" fill="#F4F5FA"/>
<path d="M265.953 266.647L272.452 262.904C273.088 262.55 274.147 262.55 274.783 262.904L281.211 266.647C281.846 267 281.846 267.636 281.211 267.989L274.712 271.733C274.076 272.086 273.017 272.086 272.381 271.733L265.953 267.989C265.318 267.636 265.318 267 265.953 266.647Z" fill="#F4F5FA"/>
<path d="M255.855 260.784L262.353 257.04C262.989 256.687 264.048 256.687 264.684 257.04L271.112 260.784C271.748 261.137 271.748 261.773 271.112 262.126L264.614 265.87C263.978 266.223 262.918 266.223 262.283 265.87L255.855 262.126C255.219 261.773 255.219 261.137 255.855 260.784Z" fill="#F4F5FA"/>
<path d="M255.634 272.579L262.133 268.835C262.768 268.482 263.828 268.482 264.463 268.835L270.891 272.579C271.527 272.932 271.527 273.568 270.891 273.921L264.393 277.665C263.757 278.018 262.698 278.018 262.062 277.665L255.634 273.921C254.998 273.568 254.998 273.003 255.634 272.579Z" fill="#F4F5FA"/>
<path d="M245.535 266.716L252.034 262.972C252.67 262.619 253.729 262.619 254.365 262.972L260.793 266.716C261.428 267.069 261.428 267.705 260.793 268.058L254.294 271.801C253.658 272.155 252.599 272.155 251.963 271.801L245.535 268.058C244.9 267.705 244.9 267.069 245.535 266.716Z" fill="#F4F5FA"/>
<path d="M235.503 260.852L242.002 257.109C242.638 256.755 243.697 256.755 244.333 257.109L250.761 260.852C251.396 261.205 251.396 261.841 250.761 262.194L244.262 265.938C243.627 266.291 242.567 266.291 241.931 265.938L235.503 262.194C234.797 261.841 234.797 261.205 235.503 260.852Z" fill="#F4F5FA"/>
<path d="M224.483 254.497L230.981 250.753C231.617 250.4 232.676 250.4 233.312 250.753L240.658 254.991C241.294 255.344 241.294 255.98 240.658 256.333L234.16 260.077C233.524 260.43 232.464 260.43 231.829 260.077L224.483 255.839C223.847 255.486 223.847 254.85 224.483 254.497Z" fill="#F4F5FA"/>
<path d="M286.151 278.37L292.649 274.626C293.285 274.273 294.344 274.273 294.98 274.626L301.408 278.37C302.044 278.723 302.044 279.359 301.408 279.712L294.909 283.456C294.274 283.809 293.214 283.809 292.578 283.456L286.151 279.712C285.515 279.359 285.515 278.794 286.151 278.37Z" fill="#F4F5FA"/>
<path d="M276.052 272.507L282.55 268.763C283.186 268.41 284.246 268.41 284.881 268.763L291.309 272.507C291.945 272.86 291.945 273.496 291.309 273.849L284.811 277.592C284.175 277.946 283.116 277.946 282.48 277.592L276.052 273.849C275.416 273.496 275.416 272.86 276.052 272.507Z" fill="#F4F5FA"/>
<path d="M275.845 284.305L282.343 280.562C282.979 280.209 284.039 280.209 284.674 280.562L291.102 284.305C291.738 284.659 291.738 285.294 291.102 285.648L284.604 289.391C283.968 289.744 282.909 289.744 282.273 289.391L275.845 285.648C275.209 285.294 275.209 284.729 275.845 284.305Z" fill="#F4F5FA"/>
<path d="M265.733 278.442L272.231 274.698C272.867 274.345 273.926 274.345 274.562 274.698L280.99 278.442C281.626 278.795 281.626 279.431 280.99 279.784L274.491 283.528C273.856 283.881 272.796 283.881 272.16 283.528L265.733 279.784C265.097 279.431 265.097 278.866 265.733 278.442Z" fill="#F4F5FA"/>
<path d="M306.348 290.096L312.846 286.353C313.482 286 314.542 286 315.177 286.353L321.605 290.096C322.241 290.45 322.241 291.085 321.605 291.439L315.107 295.182C314.471 295.535 313.411 295.535 312.776 295.182L306.348 291.439C305.712 291.085 305.712 290.52 306.348 290.096Z" fill="#F4F5FA"/>
<path d="M296.249 284.233L302.748 280.489C303.383 280.136 304.443 280.136 305.079 280.489L311.507 284.233C312.142 284.586 312.142 285.222 311.507 285.575L305.008 289.319C304.372 289.672 303.313 289.672 302.677 289.319L296.249 285.575C295.614 285.222 295.614 284.657 296.249 284.233Z" fill="#F4F5FA"/>
<path d="M296.042 296.03L302.541 292.286C303.176 291.933 304.236 291.933 304.872 292.286L311.3 296.03C311.935 296.383 311.935 297.019 311.3 297.372L304.801 301.116C304.165 301.469 303.106 301.469 302.47 301.116L296.042 297.372C295.406 297.019 295.406 296.454 296.042 296.03Z" fill="#F4F5FA"/>
<path d="M285.944 290.167L292.442 286.423C293.078 286.07 294.137 286.07 294.773 286.423L301.201 290.167C301.837 290.52 301.837 291.156 301.201 291.509L294.702 295.253C294.067 295.606 293.007 295.606 292.371 295.253L285.944 291.509C285.308 291.156 285.308 290.591 285.944 290.167Z" fill="#F4F5FA"/>
<path d="M326.557 301.823L333.056 298.079C333.691 297.726 334.751 297.726 335.387 298.079L341.814 301.823C342.45 302.176 342.45 302.812 341.814 303.165L335.316 306.909C334.68 307.262 333.621 307.262 332.985 306.909L326.557 303.165C325.851 302.812 325.851 302.247 326.557 301.823Z" fill="#F4F5FA"/>
<path d="M316.46 295.96L322.959 292.216C323.594 291.863 324.654 291.863 325.29 292.216L331.717 295.96C332.353 296.313 332.353 296.949 331.717 297.302L325.219 301.046C324.583 301.399 323.524 301.399 322.888 301.046L316.46 297.372C315.824 296.949 315.824 296.384 316.46 295.96Z" fill="#F4F5FA"/>
<path d="M316.239 307.825L322.738 304.081C323.374 303.728 324.433 303.728 325.069 304.081L331.497 307.825C332.132 308.178 332.132 308.814 331.497 309.167L324.998 312.911C324.363 313.264 323.303 313.264 322.667 312.911L316.239 309.167C315.604 308.814 315.604 308.178 316.239 307.825Z" fill="#F4F5FA"/>
<path d="M306.141 301.966L312.639 298.222C313.275 297.869 314.335 297.869 314.97 298.222L321.398 301.966C322.034 302.319 322.034 302.954 321.398 303.308L314.9 307.051C314.264 307.405 313.204 307.405 312.569 307.051L306.141 303.308C305.505 302.884 305.505 302.319 306.141 301.966Z" fill="#F4F5FA"/>
<path d="M346.75 313.62L353.178 309.876C353.813 309.523 354.873 309.523 355.509 309.876L361.937 313.62C362.572 313.973 362.572 314.609 361.937 314.962L355.438 318.706C354.802 319.059 353.743 319.059 353.107 318.706L346.679 314.962C346.044 314.538 346.044 313.973 346.75 313.62Z" fill="#F4F5FA"/>
<path d="M336.656 307.686L343.154 303.943C343.79 303.589 344.849 303.589 345.485 303.943L351.913 307.686C352.549 308.04 352.549 308.675 351.913 309.028L345.415 312.772C344.779 313.125 343.719 313.125 343.084 312.772L336.656 309.028C335.949 308.675 335.949 308.11 336.656 307.686Z" fill="#F4F5FA"/>
<path d="M336.437 319.552L342.935 315.808C343.571 315.455 344.63 315.455 345.266 315.808L351.694 319.552C352.33 319.905 352.33 320.54 351.694 320.894L345.196 324.637C344.56 324.99 343.5 324.99 342.865 324.637L336.437 320.894C335.801 320.54 335.801 319.905 336.437 319.552Z" fill="#F4F5FA"/>
<path d="M326.338 313.688L332.837 309.945C333.472 309.591 334.532 309.591 335.168 309.945L341.595 313.688C342.231 314.041 342.231 314.677 341.595 315.03L335.097 318.774C334.461 319.127 333.402 319.127 332.766 318.774L326.338 315.03C325.702 314.677 325.702 314.041 326.338 313.688Z" fill="#F4F5FA"/>
<path d="M244.831 278.089L251.33 274.345C251.965 273.992 253.025 273.992 253.661 274.345L260.089 278.089C260.724 278.442 260.724 279.078 260.089 279.431L253.59 283.174C252.954 283.528 251.895 283.528 251.259 283.174L244.831 279.431C244.196 279.078 244.196 278.442 244.831 278.089Z" fill="#F4F5FA"/>
<path d="M234.733 272.227L241.231 268.484C241.867 268.13 242.926 268.13 243.562 268.484L249.99 272.227C250.626 272.581 250.626 273.216 249.99 273.569L243.491 277.313C242.856 277.666 241.796 277.666 241.16 277.313L234.733 273.569C234.097 273.216 234.097 272.581 234.733 272.227Z" fill="#F4F5FA"/>
<path d="M214.315 260.36L220.813 256.616C221.449 256.263 222.508 256.263 223.144 256.616L229.572 260.36C230.208 260.713 230.208 261.349 229.572 261.702L223.073 265.446C222.438 265.799 221.378 265.799 220.743 265.446L214.315 261.702C213.679 261.349 213.679 260.713 214.315 260.36Z" fill="#F4F5FA"/>
<path d="M527.864 370.266L486.966 346.603C484.282 345.049 479.903 345.049 477.218 346.603L447.763 363.626C445.644 364.827 442.466 365.18 439.782 364.403L437.874 363.838C435.19 363.061 432.012 363.414 429.893 364.615L404.322 379.378L401.285 379.59V382.91C401.356 383.545 401.638 384.11 402.133 384.676L404.888 387.572C405.17 387.925 405.594 388.207 406.018 388.419L451.154 414.484C453.132 415.614 456.381 415.614 458.429 414.484L527.794 374.433C529.842 373.303 529.842 371.396 527.864 370.266Z" fill="#F5CE73"/>
<path d="M404.965 384.675L402.21 381.779C400.727 380.225 401.151 378.248 403.411 376.976L429.97 361.648C432.089 360.447 435.268 360.094 437.952 360.871L439.859 361.436C442.543 362.213 445.722 361.86 447.841 360.659L477.296 343.636C479.98 342.082 484.36 342.082 487.044 343.636L527.942 367.299C529.919 368.429 529.919 370.336 527.942 371.467L458.578 411.517C456.6 412.647 453.28 412.718 451.302 411.517L406.166 385.452C405.601 385.311 405.248 385.029 404.965 384.675Z" fill="#FFE587"/>
<path d="M527.866 363.203L490.005 341.377C488.027 340.247 484.778 340.247 482.73 341.377L413.719 381.215L411.812 380.933V383.546C411.812 384.323 412.306 385.03 413.295 385.595L451.156 407.421C453.133 408.551 456.383 408.551 458.431 407.421L527.795 367.371C529.844 366.241 529.844 364.333 527.866 363.203Z" fill="#F5CE73"/>
<path d="M450.73 410.316C450.73 412.012 451.931 413.495 453.556 413.848L456.946 414.555L529.348 371.961V362.92L453.556 405.443C451.79 406.361 450.73 408.268 450.73 410.316Z" fill="#F5CE73"/>
<path d="M413.362 378.954L482.726 338.904C484.703 337.773 488.023 337.703 490.001 338.904L527.862 360.73C529.84 361.86 529.84 363.767 527.862 364.898L458.498 404.948C456.52 406.078 453.2 406.149 451.222 404.948L413.362 383.122C411.313 381.991 411.313 380.084 413.362 378.954Z" fill="#FFF5A5"/>
<path d="M692.086 374.292L606.475 423.737H587.545L634.73 341.234L692.086 374.292Z" fill="#CE939A" fill-opacity="0.2"/>
<path d="M673.085 374.293L587.545 423.738V407.775L673.085 358.4V374.293Z" fill="#846566"/>
<path d="M530.195 390.608L587.551 423.736V407.773L530.195 374.645V390.608Z" fill="#A89696"/>
<path d="M673.091 358.4L587.551 407.774L530.195 374.646L615.735 325.271L673.091 358.4Z" fill="#B8AAA9"/>
<path d="M665.32 359.247L589.104 403.253V394.141L665.32 350.064V359.247Z" fill="#C4C8D8"/>
<path d="M537.963 373.798L589.103 403.253V394.141L537.963 364.615V373.798Z" fill="#DBDBE9"/>
<path d="M665.319 350.064L589.103 394.141L537.963 364.615L614.249 320.609L665.319 350.064Z" fill="#F4F5FA"/>
<path d="M589.101 398.237V400.922L575.681 392.445L589.101 398.237Z" fill="#C4C8D8"/>
<path d="M537.963 366.947L546.439 372.881L537.963 369.208V366.947Z" fill="#C4C8D8"/>
<path d="M665.318 354.162L657.478 359.954L665.318 356.281V354.162Z" fill="#A8AEC5"/>
<path d="M337.36 181.881L290.811 182.375L260.649 164.928L307.128 164.434L337.36 181.881Z" fill="#CE939A" fill-opacity="0.2"/>
<path d="M307.124 174.887L308.466 173.827L293.28 146.845L285.51 144.514L307.124 174.887Z" fill="#5C5B63"/>
<path d="M295.618 168.248L307.131 174.888L290.744 149.671L285.234 146.492L295.618 168.248Z" fill="#25242F"/>
<path d="M293.704 181.881L290.808 182.375L297.447 130.246L300.343 129.752L293.704 181.881Z" fill="#8D4D0A"/>
<path d="M260.649 164.928L290.811 182.375L297.451 130.246L267.219 112.799L260.649 164.928Z" fill="#BD8444"/>
<path d="M265.382 161.323L287.561 174.109L292.788 132.928L270.538 120.072L265.382 161.323Z" fill="#EFF0F5"/>
<path d="M270.538 120.072L272.516 121.202L267.501 160.9L287.773 172.555L287.561 174.109L265.382 161.323L270.538 120.072Z" fill="#8D4D0A"/>
<path d="M300.345 129.751L297.449 130.246L267.217 112.799L270.183 112.375L300.345 129.751Z" fill="#CD934F"/>
<path d="M507.026 338.41C516.844 344.061 532.808 344.061 542.697 338.339C552.586 332.618 552.656 323.435 542.838 317.714C533.02 312.063 517.056 312.063 507.167 317.784C497.278 323.506 497.208 332.759 507.026 338.41Z" fill="#CE939A" fill-opacity="0.2"/>
<path d="M499.747 302.244C499.747 302.244 499.747 302.668 499.747 303.374C499.747 306.906 500.312 318.561 507.093 329.862C507.164 329.862 507.164 329.862 507.164 329.862C508.082 331.275 509.495 332.688 511.402 333.818C518.889 338.056 530.827 338.056 538.314 333.747C540.221 332.617 541.705 331.346 542.623 329.862C542.623 329.862 549.192 322.94 550.04 304.363V303.798C549.898 286.21 499.747 302.244 499.747 302.244Z" fill="#EBE8D9"/>
<path d="M499.747 303.375C499.747 306.907 500.312 318.562 507.093 329.863C507.164 329.863 507.164 329.863 507.164 329.863C508.082 331.276 509.495 332.689 511.402 333.819C518.889 338.057 530.827 338.057 538.314 333.748C540.221 332.618 541.705 331.347 542.623 329.863C542.623 329.863 549.192 322.941 550.04 304.364V303.799L543.4 308.955C543.4 308.955 540.998 331.347 526.024 333.466C511.119 335.585 503.349 329.016 499.747 303.375Z" fill="#DED9C0"/>
<path d="M507.026 313.619C516.844 319.27 532.808 319.27 542.697 313.548C552.586 307.827 552.656 298.644 542.838 292.923C533.02 287.272 517.056 287.272 507.167 292.993C497.278 298.715 497.208 307.968 507.026 313.619Z" fill="#F9F5E0"/>
<path d="M512.256 293.699C519.319 289.602 530.692 289.602 537.685 293.628C544.678 297.654 544.678 304.223 537.614 308.32C530.55 312.417 519.178 312.417 512.185 308.391C505.192 304.294 505.192 297.725 512.256 293.699Z" fill="#E7BC5F"/>
<path d="M537.686 297.229C530.693 293.203 519.32 293.203 512.257 297.3C509.502 298.853 507.877 300.831 507.242 302.88C506.182 299.63 507.877 296.169 512.257 293.626C519.32 289.53 530.693 289.53 537.686 293.556C541.994 296.028 543.619 299.489 542.63 302.668C541.924 300.619 540.299 298.712 537.686 297.229Z" fill="#EBE8D9"/>
<path d="M521.149 300.407C525.246 298.005 531.886 298.005 535.912 300.407C540.009 302.738 539.938 306.552 535.841 308.954C531.745 311.355 525.105 311.355 521.079 308.954C516.982 306.623 517.052 302.808 521.149 300.407Z" fill="#C9923B"/>
<path d="M515.149 294.405C519.246 292.003 525.886 292.003 529.912 294.405C534.009 296.736 533.938 300.55 529.841 302.952C525.744 305.283 519.105 305.353 515.078 302.952C511.052 300.621 511.052 296.806 515.149 294.405Z" fill="#C9923B"/>
<path d="M508.232 283.596C508.232 294.474 514.378 303.374 522.006 303.374C529.635 303.374 535.78 294.545 535.78 283.596C535.78 272.718 529.635 263.818 522.006 263.818C514.378 263.889 508.232 272.718 508.232 283.596Z" fill="#65A200"/>
<path d="M514.729 295.818C514.729 303.094 520.875 309.027 528.503 309.027C536.132 309.027 542.277 303.094 542.277 295.818C542.277 288.543 536.132 282.609 528.503 282.609C520.875 282.609 514.729 288.472 514.729 295.818Z" fill="#89B83C"/>
<path d="M257.97 513.303C258.535 519.66 257.97 519.66 257.97 519.66C257.97 519.66 257.687 525.734 262.279 527.783C266.94 529.831 276.194 531.809 281.986 526.37C287.778 520.861 288.343 517.117 297.314 511.042C306.285 504.968 302.258 489.64 300.775 485.896C299.362 482.152 278.525 487.026 276.759 488.51C275.064 489.852 256.981 502.213 257.97 513.303Z" fill="#8E8E8E"/>
<path d="M257.97 510.195C258.535 516.552 257.97 516.552 257.97 516.552C257.97 516.552 257.687 522.627 262.279 524.675C266.94 526.724 276.194 528.702 281.986 523.263C287.778 517.753 288.343 514.01 297.314 507.935C306.285 501.86 302.258 486.532 300.775 482.789C299.362 479.045 278.525 483.919 276.759 485.402C275.064 486.744 256.981 499.105 257.97 510.195Z" fill="#504F60"/>
<path d="M252.736 508.288C273.009 523.475 292.998 502.496 292.998 502.496L269.759 340.74L229.497 346.532L252.736 508.288Z" fill="#C39367"/>
<path d="M327.331 526.442L347.533 538.097C347.533 538.097 369.218 546.785 372.82 550.388C376.423 554.061 376.423 558.935 372.255 562.255C368.017 565.504 351.135 567.27 330.439 563.667C309.743 560.065 299.218 562.961 292.79 557.734C286.362 552.507 292.013 538.874 292.013 538.874C292.013 538.874 291.095 534.495 297.099 529.833C303.032 525.242 327.331 526.442 327.331 526.442Z" fill="#8E8E8E"/>
<path d="M327.331 521.851L347.533 533.505C347.533 533.505 369.218 542.194 372.82 545.796C376.423 549.469 376.423 554.343 372.255 557.663C368.088 560.983 351.135 562.678 330.439 559.076C309.743 555.473 299.218 558.369 292.79 553.142C286.362 547.915 292.013 534.282 292.013 534.282C292.013 534.282 291.095 529.903 297.099 525.241C303.032 520.65 327.331 521.851 327.331 521.851Z" fill="#504F60"/>
<path d="M294.763 531.104C316.165 542.971 335.237 527.219 335.237 527.219L322.452 395.131L281.978 399.016L294.763 531.104Z" fill="#C39367"/>
<path d="M124.327 499.038C122.632 497.978 121.007 497.907 119.736 498.614L113.873 501.298L120.866 520.228L127.294 517.332V517.262C128.848 516.485 129.978 514.719 130.19 512.035C130.543 507.09 128 501.298 124.327 499.038Z" fill="#76757C"/>
<path d="M118.468 501.722C114.795 499.461 111.405 501.58 110.981 506.454C110.487 511.328 113.1 517.12 116.773 519.38C120.446 521.641 123.837 519.522 124.26 514.648C124.755 509.774 122.141 503.982 118.468 501.722Z" fill="#5C5B63"/>
<path d="M300.492 608.737C300.492 603.933 297.101 598.071 292.863 595.598C290.744 594.398 288.837 594.256 287.424 595.104L280.502 599.554L291.733 617.849L298.232 613.681C299.644 612.904 300.492 611.209 300.492 608.737Z" fill="#76757C"/>
<path d="M293.787 613.044C293.787 617.847 290.396 619.825 286.158 617.353C281.92 614.951 278.529 609.018 278.529 604.215C278.529 599.411 281.92 597.434 286.158 599.906C290.396 602.378 293.787 608.241 293.787 613.044Z" fill="#5C5B63"/>
<path d="M72.056 582.884C72.056 578.01 68.1004 574.125 63.2972 574.125C58.6353 574.125 54.8209 577.798 54.5384 582.389H54.4678V582.743C54.4678 582.813 54.4678 582.884 54.4678 582.954C54.4678 583.025 54.4678 583.096 54.4678 583.166V587.828H55.8805C57.4345 590.23 60.1186 591.784 63.2266 591.784C66.2639 591.784 68.9481 590.23 70.5727 587.828H72.056V582.884Z" fill="#76757C"/>
<path d="M63.295 596.447C68.1323 596.447 72.0538 592.526 72.0538 587.688C72.0538 582.851 68.1323 578.93 63.295 578.93C58.4576 578.93 54.5361 582.851 54.5361 587.688C54.5361 592.526 58.4576 596.447 63.295 596.447Z" fill="#5C5B63"/>
<path d="M274.847 506.526C274.847 506.455 274.847 506.455 274.847 506.526C273.434 505.749 271.527 505.819 269.478 507.091C265.311 509.492 261.85 515.426 261.85 520.229C261.85 522.489 262.627 524.114 263.898 524.962L270.043 529.27L280.78 510.693L274.847 506.526Z" fill="#76757C"/>
<path d="M283.109 515.568C283.109 520.371 279.718 526.234 275.48 528.707C271.313 531.108 267.852 529.201 267.852 524.398C267.852 519.595 271.242 513.732 275.48 511.259C279.718 508.858 283.109 510.765 283.109 515.568Z" fill="#5C5B63"/>
<path d="M155.625 627.95C155.342 627.809 155.06 628.162 154.707 629.151C153.788 631.835 153.082 637.909 153.082 642.713C153.082 646.032 153.435 647.869 153.93 647.798V647.869L163.748 648.999L165.443 629.009L155.625 627.95Z" fill="#76757C"/>
<path d="M164.737 630.28C163.819 632.964 163.112 639.038 163.112 643.842C163.112 648.645 163.819 650.411 164.737 647.726C165.655 645.042 166.362 638.968 166.362 634.164C166.362 629.361 165.585 627.595 164.737 630.28Z" fill="#5C5B63"/>
<path d="M201.74 544.317C192.699 549.544 177.865 549.544 168.753 544.246C159.641 538.949 159.571 530.473 168.683 525.245C177.795 520.018 192.557 520.018 201.669 525.316C210.781 530.543 210.781 539.09 201.74 544.317Z" fill="#C4C8D8"/>
<path d="M176.59 527.436L161.403 577.587L161.121 578.434L161.05 578.717L155.399 633.036L162.039 634.095L173.623 580.695L173.27 581.896L193.825 533.722L176.59 527.436Z" fill="#C4C8D8"/>
<path d="M184.154 521.713L99.6027 537.465L98.5432 537.677L97.8368 538.242L56.8682 573.418L61.2476 578.504L102.216 543.398L100.45 544.175L186.273 539.442L184.154 521.713Z" fill="#C4C8D8"/>
<path d="M190.653 524.539L140.643 485.477L138.806 484.064L137.041 484.912L114.508 494.589L117.121 500.805L139.654 491.057L136.052 490.492L179.775 536.547L190.653 524.539Z" fill="#C4C8D8"/>
<path d="M191.002 540.573L248.217 497.979L245.18 498.121L274.705 511.259L277.46 505.113L247.935 491.975L246.592 491.41L244.897 492.187L179.418 520.512L191.002 540.573Z" fill="#C4C8D8"/>
<path d="M181.681 540.148L257.826 560.774L256.343 559.714L291.802 602.943L297.029 598.634L261.57 555.476L261.075 554.911L260.086 554.416L188.744 521.006L181.681 540.148Z" fill="#C4C8D8"/>
<path d="M201.74 535.841C192.699 541.068 177.865 541.068 168.753 535.77C159.641 530.472 159.571 521.996 168.683 516.769C177.795 511.542 192.557 511.542 201.669 516.84C210.781 522.067 210.781 530.613 201.74 535.841Z" fill="#D9DBE6"/>
<path d="M200.325 524.326V498.685H196.864C196.511 498.473 196.228 498.261 195.804 498.049C189.871 494.659 180.265 494.588 174.402 497.979C174.049 498.19 173.625 498.402 173.342 498.685H170.022V524.326C170.022 526.586 171.506 528.776 174.473 530.471C180.406 533.861 190.012 533.932 195.875 530.542C198.912 528.776 200.325 526.586 200.325 524.326Z" fill="#76757C"/>
<path d="M195.94 504.902C190.077 508.292 180.47 508.292 174.537 504.831C168.604 501.44 168.604 495.86 174.466 492.47C180.329 489.079 189.936 489.079 195.869 492.54C201.802 495.931 201.802 501.511 195.94 504.902Z" fill="#5C5B63"/>
<path d="M197.922 496.708V458.989H195.026C194.744 458.777 194.461 458.636 194.179 458.424C189.163 455.528 181.111 455.528 176.167 458.424C175.813 458.636 175.531 458.777 175.248 458.989H172.423V496.708C172.423 498.616 173.694 500.452 176.167 501.865C181.182 504.761 189.234 504.761 194.179 501.865C196.722 500.452 197.993 498.545 197.922 496.708Z" fill="#C4C8D8"/>
<path d="M194.246 464.215C189.302 467.111 181.179 467.04 176.234 464.215C171.219 461.319 171.219 456.657 176.163 453.831C181.108 450.935 189.231 451.006 194.176 453.831C199.191 456.657 199.191 461.319 194.246 464.215Z" fill="#D9DBE6"/>
<path d="M43.5127 465.343L120.717 508.784L145.016 522.417C145.016 522.417 150.384 527.502 168.679 525.172C186.903 522.841 245.884 502.074 255.278 496.917C259.304 494.728 274.279 487.24 276.61 485.262C276.61 485.262 276.61 485.262 276.681 485.262C278.376 483.85 279.648 482.296 280.636 480.318C281.484 478.693 282.049 476.786 282.473 474.385C284.027 465.273 282.473 449.45 282.473 449.45C282.402 446.201 280.425 443.164 276.469 440.903L274.421 439.702L182.029 386.373C179.416 384.889 176.308 383.9 172.846 383.335C169.315 382.77 165.571 382.699 161.827 383.194C156.53 383.83 151.303 385.384 147.065 387.856L55.5914 439.561C52.4128 441.398 50.9294 443.729 50.9294 445.989L50.8588 446.06C50.5763 448.885 47.1151 451.64 47.1151 451.64L43.5127 465.343Z" fill="#393842"/>
<path d="M118.674 386.654C118.674 386.654 110.621 398.592 116.978 422.467C123.336 446.341 145.091 463.577 167.907 472.759C190.651 481.942 214.526 475.302 227.311 468.168C240.167 461.034 311.58 419.571 320.056 406.22C328.532 392.8 317.866 371.821 300.56 373.092C283.255 374.364 200.046 399.863 200.046 399.863L118.674 386.654Z" fill="#C39367"/>
<path d="M168.96 365.676C168.96 365.676 237.971 334.455 251.109 331.206C264.247 327.886 271.594 340.954 272.229 351.125C272.794 361.297 260.221 379.097 256.76 381.569C253.299 384.042 194.177 404.667 194.177 404.667L168.96 365.676Z" fill="#C39367"/>
<path d="M120.715 508.785L145.013 522.418C145.013 522.418 150.382 527.504 168.676 525.173C186.9 522.842 245.881 502.075 255.276 496.918C259.302 494.729 274.277 487.241 276.608 485.263C276.608 485.263 276.608 485.263 276.678 485.263C278.374 483.851 279.645 482.297 280.634 480.319C281.481 478.694 282.047 476.787 282.47 474.386C284.024 465.274 282.47 449.451 282.47 449.451C281.552 456.797 190.22 490.773 172.491 492.539C154.691 494.446 138.939 469.017 138.939 469.017C138.939 469.017 120.785 486.676 120.715 508.785Z" fill="#2D2C37"/>
<path d="M67.3822 440.198C67.6648 437.937 73.5982 384.678 74.0926 373.659C75.8585 367.796 112.448 349.855 145.364 336.646L142.68 329.936C114.567 341.167 67.3822 361.722 66.8878 373.376C66.3933 384.113 60.248 438.856 60.248 439.421L67.3822 440.198Z" fill="#C4C8D8"/>
<path d="M149.608 315.314C149.608 315.314 145.723 316.515 139.507 318.422C136.258 318.069 133.009 318.493 130.749 319.835L120.86 324.356C91.7578 333.68 50.8598 347.242 50.436 350.279C49.8709 354.235 50.2947 358.12 50.436 359.391C50.436 359.462 50.436 359.532 50.436 359.603C50.436 359.674 50.436 359.815 50.436 359.815C50.7185 361.298 51.9193 362.852 54.0384 364.053C58.5591 366.667 65.4107 366.949 69.3663 364.689L146.995 329.371C148.196 328.665 148.902 327.817 149.326 326.899C149.467 326.616 149.608 326.404 149.679 326.122C151.516 318.776 149.608 315.314 149.608 315.314Z" fill="#25242F"/>
<path d="M53.123 346.182L130.752 310.864C134.637 308.604 141.559 308.886 146.079 311.5C150.6 314.113 151.095 318.069 147.21 320.329L69.5811 355.647C65.6962 357.907 58.7739 357.625 54.2532 355.011C49.6619 352.468 49.1674 348.442 53.123 346.182Z" fill="#5C5B63"/>
<path d="M92.1138 270.884C100.378 300.339 102.003 346.747 102.003 346.747C101.932 373.235 104.758 392.801 106.947 399.299C109.208 405.798 118.108 411.731 129.833 419.713C141.559 427.554 156.604 433.628 179.984 432.71C196.16 432.074 208.239 425.505 216.432 417.877C216.432 417.806 216.432 417.806 216.432 417.806C220.105 414.345 223.002 410.742 225.191 407.352C232.184 396.333 227.522 349.431 232.043 333.75C233.809 327.534 235.08 316.797 235.645 305.566C236.634 288.26 236.069 269.966 233.95 266.646C230.489 261.207 210.782 242.065 198.632 232.176C186.483 222.216 151.66 207.1 141.417 205.687C131.246 204.275 111.68 192.832 96.9876 205.687C82.3661 218.472 83.8494 241.288 92.1138 270.884Z" fill="#F17757"/>
<path d="M216.499 417.733C220.172 414.272 223.068 410.67 225.257 407.279C232.25 396.26 227.588 349.358 232.109 333.677C233.875 327.461 235.146 316.724 235.711 305.493L204.208 288.188C204.208 288.188 207.74 325.059 218.053 341.023C226.105 353.879 219.536 399.65 216.499 417.733Z" fill="#E04E39"/>
<path d="M189.456 218.188L194.047 208.723C194.047 208.723 203.724 210.842 207.256 210.63C210.787 210.489 218.911 197.28 222.725 180.398C226.539 163.516 223.643 154.051 225.127 149.107C226.61 144.162 228.093 127.351 222.866 122.901C217.71 118.38 145.52 125.302 146.509 141.831C147.498 158.36 160.989 180.186 158.447 187.744C155.904 195.302 149.193 203.425 149.193 203.425C149.193 203.425 161.978 219.389 189.456 218.188Z" fill="#FEBFBF"/>
<path d="M311.514 263.747C308.83 265.018 296.892 265.795 296.892 265.795C296.892 265.795 289.546 266.643 288.557 266.854C287.568 267.066 283.118 269.821 283.542 272.576C283.683 273.777 285.025 274.413 286.438 274.836C287.286 275.048 288.133 275.19 288.91 275.26C289.829 275.331 290.535 275.331 290.535 275.331L291.877 275.755H291.948L298.093 277.803C298.093 277.803 298.234 285.573 295.338 284.725C292.442 283.878 289.475 282.394 288.84 282.253C288.628 282.253 287.356 282.112 285.661 281.971C281.494 281.617 274.925 281.052 274.925 281.052L264.682 276.602C264.682 276.602 253.593 277.238 252.25 278.015C250.979 278.792 222.513 291.012 222.513 291.012C222.513 291.012 222.089 290.729 221.383 290.235C216.509 286.703 198.921 272.293 225.974 266.996C256.912 260.921 273.794 260.497 274.925 259.932C276.055 259.367 293.078 252.586 293.078 252.586C293.078 252.586 302.684 247.359 304.097 246.935C304.803 246.723 305.58 246.865 306.004 247.288C306.428 247.642 306.64 248.207 306.428 248.913C305.934 250.326 298.446 255.977 298.446 255.977L294.067 258.731L296.61 258.943L310.807 260.073C310.807 260.073 311.867 260.85 312.361 261.698C312.361 261.698 312.361 261.769 312.432 261.769C312.715 262.475 312.644 263.252 311.514 263.747Z" fill="#FEBFBF"/>
<path d="M227.525 142.961C227.525 142.961 216.577 152.638 216.153 157.159C215.729 161.68 217.566 169.944 207.677 159.984C197.788 150.025 199.766 187.462 188.252 191.488C176.738 195.514 161.128 189.016 158.797 186.473C156.537 184 138.666 167.048 141.421 135.544C142.833 119.651 166.567 105.03 182.177 102.416C197.717 99.7322 226.325 111.105 228.302 125.232C230.351 139.288 227.525 142.961 227.525 142.961Z" fill="#2C2A29"/>
<path d="M210.144 159.845C210.144 159.845 202.303 157.443 202.444 169.875C202.586 182.307 205.905 183.366 208.519 183.296C211.203 183.225 211.062 180.258 211.062 180.258C211.062 180.258 209.367 174.678 210.991 170.864C212.545 166.979 214.735 161.399 210.144 159.845Z" fill="url(#paint0_linear)"/>
<path d="M159.786 206.816C159.786 206.816 170.169 211.972 181.118 214.727C192.137 217.482 190.3 216.14 190.3 216.14L200.048 226.594L208.454 241.569C208.454 241.569 199.766 237.189 190.866 233.587C181.965 229.985 170.946 228.925 158.726 222.638C146.506 216.352 141.491 211.478 141.491 208.582C141.491 205.615 141.491 205.615 141.491 205.615C141.491 205.615 149.614 197.351 150.321 197.068C151.027 196.786 153.287 198.057 153.287 198.057C153.287 198.057 151.663 202.295 159.786 206.816Z" fill="#E3CCB7"/>
<path d="M215.019 263.818C215.019 263.818 234.161 250.891 251.114 289.105C275.554 344.13 279.227 349.287 283.959 360.377C288.692 371.466 280.781 377.753 272.94 379.59C265.1 381.426 243.273 357.481 229.076 334.524C214.948 311.567 188.036 278.863 215.019 263.818Z" fill="#CFA580"/>
<path d="M0 268.977L31.0797 387.079C31.0797 387.079 34.5408 451.64 38.9202 460.116C42.5226 467.109 109.838 503.769 133.784 516.625C136.609 518.885 139.364 520.439 142.048 521.075C142.119 521.075 142.119 521.146 142.119 521.146C142.119 521.146 142.119 521.146 142.189 521.146C144.097 521.569 145.863 521.569 147.628 520.863C148.194 520.722 148.688 520.439 149.182 520.157C163.168 511.61 169.102 501.085 171.291 495.929C171.927 495.152 172.351 494.163 172.422 492.75L172.21 449.521C172.139 431.226 141.836 355.576 141.836 355.576L143.532 313.406C144.238 303.729 139.152 292.569 132.159 288.543L45.0655 239.592C44.5004 239.31 43.9354 239.027 43.2996 238.886C42.8052 238.603 42.3814 238.391 42.1695 238.391C40.8274 237.967 39.4147 237.826 37.9313 237.826C25.6407 237.826 10.2422 250.541 10.2422 250.541C6.1453 253.86 2.40161 259.158 0.353178 267.564C0.211907 267.988 0.0706356 268.482 0 268.977Z" fill="#2D2C37"/>
<path d="M0 268.975L31.0797 387.077C31.0797 387.077 34.5408 451.638 38.9202 460.115C42.5226 467.108 109.838 503.768 133.784 516.623C136.609 518.884 139.364 520.438 142.048 521.073C142.119 521.073 142.119 521.144 142.119 521.144C142.119 521.144 142.119 521.144 142.189 521.144C144.097 521.568 145.863 521.568 147.628 520.861C149.536 510.337 149.112 484.06 147.558 468.591C145.933 452.839 133.431 410.105 120.504 376.482C107.578 342.93 111.251 328.521 103.905 319.267C96.5589 310.014 33.34 278.934 16.8113 269.045C4.59132 261.841 1.27144 265.231 0.353178 267.562C0 268.268 0 268.975 0 268.975Z" fill="#25242F"/>
<path d="M183.865 498.896C184.925 498.26 185.631 497.413 185.843 495.859C186.055 494.305 186.196 492.822 186.338 491.268C186.761 487.312 187.185 483.356 187.609 479.401C189.234 464.567 191.282 449.593 191.918 434.688C192.483 432.711 195.026 431.157 196.58 430.027C205.056 423.952 214.733 419.361 224.128 414.84C230.414 411.803 236.771 408.906 243.199 406.081C246.519 404.598 249.839 403.185 253.229 401.772C256.126 400.571 259.799 399.936 260.787 396.475C261.07 395.415 261.141 394.356 261.07 393.225C260.999 392.59 260.929 391.389 260.222 391.106C259.799 390.965 258.81 391.601 258.386 391.742C257.114 392.236 255.772 392.802 254.501 393.296C244.188 397.534 234.017 401.914 223.916 406.646C214.592 411.026 205.339 415.687 196.721 421.409C193.684 423.457 190.646 425.647 188.103 428.261C186.549 429.885 184.854 431.934 184.713 434.265C184.36 442.317 183.371 450.299 182.594 458.281C181.746 466.545 180.899 474.739 179.98 482.933C179.627 486.252 179.274 489.572 178.921 492.822C178.709 494.587 177.72 496.918 178.991 498.472C180.263 500.097 182.382 499.744 183.865 498.896Z" fill="#C4C8D8"/>
<path d="M267.424 376.414C267.424 376.414 263.539 377.615 257.323 379.522C254.074 379.169 250.824 379.593 248.564 380.935L238.675 385.455C209.573 394.779 168.675 408.341 168.251 411.379C167.686 415.334 168.11 419.219 168.251 420.491C168.251 420.561 168.251 420.632 168.251 420.703C168.251 420.773 168.251 420.914 168.251 420.914C168.534 422.398 169.735 423.952 171.854 425.153C176.375 427.766 183.226 428.049 187.182 425.788L264.81 390.471C266.011 389.764 266.717 388.917 267.141 387.998C267.283 387.716 267.424 387.504 267.494 387.221C269.331 379.875 267.424 376.414 267.424 376.414Z" fill="#25242F"/>
<path d="M170.941 407.281L248.569 371.964C252.454 369.703 259.376 369.986 263.897 372.599C268.418 375.213 268.912 379.168 265.027 381.429L187.399 416.747C183.514 419.007 176.591 418.724 172.071 416.111C167.55 413.497 167.056 409.542 170.941 407.281Z" fill="#5C5B63"/>
<path d="M298.512 292.639C306.918 279.854 318.573 271.448 318.573 271.448L327.544 269.753L330.934 271.166L336.232 269.047L347.18 270.318C347.18 270.318 349.017 272.296 347.745 273.709C346.474 275.122 341.176 275.263 341.176 275.263L335.172 277.806L343.861 277.241L349.511 280.349C349.511 280.349 350.076 284.163 349.511 285.505C348.946 286.776 346.968 287.836 346.968 287.836L346.121 288.048C346.121 288.048 346.757 291.438 345.697 292.992C344.638 294.476 343.013 294.476 343.013 294.476L341.953 292.215L338.845 291.438L334.042 292.922C334.042 292.922 330.722 295.606 326.767 297.301C320.763 299.844 318.573 299.491 318.573 299.491C318.573 299.491 290.107 305.424 298.512 292.639Z" fill="#FEBFBF"/>
<path d="M268.489 336.714C268.489 336.714 291.798 291.931 299.074 290.377C309.316 288.258 314.755 297.229 313.342 304.08C311.929 310.932 289.609 373.232 278.166 377.4C257.116 385.029 257.116 360.447 257.116 360.447C257.116 360.447 258.458 355.574 268.489 336.714Z" fill="#CFA580"/>
<path d="M372.1 115.899V102.499L363 97.1992V110.599C363 115.299 365.2 120.899 368.7 125.399L379 138.199V125.999L373.3 118.899C372.6 117.999 372.1 116.899 372.1 115.899Z" fill="#C79B65"/>
<path d="M379 132.9L389.3 132C392.8 131.7 395 128.6 395 123.9V97.2996L379 88.0996V98.6996L385.9 102.7V118.7C385.9 119.6 385.5 120.3 384.8 120.3L379.1 120.8L379 132.9Z" fill="#E04E39"/>
<path d="M379 88L363 97.3L379 106.5V88Z" fill="#623B2A"/>
<path d="M443 140.308C440.928 141.101 437.377 140.223 434.696 138.083C431.029 135.136 429.333 130.049 429.029 129V138.806C430.493 141.866 433.246 144.346 435.986 145.621L435 150.595L429 147.209V154.123L440.348 160.5C440.333 160.5 443 140.294 443 140.308Z" fill="#DDB690"/>
<path d="M421.884 137.323C424.667 139.259 427.507 139.934 429 138.471V128.546C428.696 129.263 427 132.476 423.333 131.257C420.638 130.382 417.058 127.169 415 124L417.609 150.489L428.957 157V149.987L422.855 146.502L421.884 137.323Z" fill="#E97F70"/>
<defs>
<linearGradient id="paint0_linear" x1="206.713" y1="158.977" x2="209.095" y2="181.322" gradientUnits="userSpaceOnUse">
<stop stop-color="#FFDEDE"/>
<stop offset="0.8776" stop-color="#FEB9B8"/>
</linearGradient>
</defs>
</svg>
