<svg width="96" height="110" viewBox="0 0 96 110" fill="none" xmlns="http://www.w3.org/2000/svg">
<path d="M55.9023 66.5531C55.9023 67.1531 55.4023 67.6531 54.8023 67.6531C54.2023 67.6531 53.7023 67.1531 53.7023 66.5531C53.7023 65.9531 54.2023 65.4531 54.8023 65.4531C55.5023 65.4531 55.9023 65.9531 55.9023 66.5531Z" fill="#030403"/>
<path d="M53.4023 77.6527C53.4023 78.2527 52.9023 78.7527 52.3023 78.7527C51.7023 78.7527 51.2023 78.2527 51.2023 77.6527C51.2023 77.0527 51.7023 76.5527 52.3023 76.5527C52.9023 76.5527 53.4023 77.0527 53.4023 77.6527Z" fill="#030403"/>
<path d="M71.0039 82.7523C71.0039 83.3523 70.5039 83.8523 69.9039 83.8523C69.3039 83.8523 68.8039 83.3523 68.8039 82.7523C68.8039 82.1523 69.3039 81.6523 69.9039 81.6523C70.5039 81.6523 71.0039 82.1523 71.0039 82.7523Z" fill="#030403"/>
<path d="M84.2031 74.852C84.2031 75.452 83.7031 75.952 83.1031 75.952C82.5031 75.952 82.0031 75.452 82.0031 74.852C82.0031 74.252 82.5031 73.752 83.1031 73.752C83.7031 73.752 84.2031 74.252 84.2031 74.852Z" fill="#030403"/>
<path d="M76.1016 64.2523C76.1016 64.8523 75.6016 65.3523 75.0016 65.3523C74.4016 65.3523 73.9016 64.8523 73.9016 64.2523C73.9016 63.6523 74.4016 63.1523 75.0016 63.1523C75.6016 63.1523 76.1016 63.6523 76.1016 64.2523Z" fill="#030403"/>
<path d="M76.2031 63.3516V61.8516L74.1031 62.7516L66.5031 69.8516L55.5031 64.4516L53.9031 63.9516V65.4516L63.2031 71.7516L50.9031 74.6516V76.1516L51.9031 77.3516L65.3031 74.2516L68.8031 82.3516L71.0031 82.1516V80.6516L70.0031 73.7516L84.4031 74.3516L84.7031 73.1516V71.5516L70.7031 71.1516L76.2031 63.3516Z" fill="#030403"/>
<path d="M76.2031 61.852L74.1031 61.252L66.5031 68.352L55.5031 62.952L53.9031 63.952L63.2031 70.252L50.9031 74.652L51.9031 75.852L65.3031 72.752L68.8031 80.852L71.0031 80.652L70.0031 72.252L84.4031 72.852L84.7031 71.552L70.7031 69.652L76.2031 61.852Z" fill="#878787"/>
<path d="M68.6031 69.752C69.4031 70.252 69.4031 70.952 68.6031 71.452C67.8031 71.952 66.4031 71.952 65.6031 71.452C64.8031 70.952 64.8031 70.252 65.6031 69.752C66.5031 69.252 67.8031 69.252 68.6031 69.752Z" fill="#030403"/>
<path d="M65.0031 57.0527H69.2031V70.6527H65.0031V57.0527Z" fill="#030403"/>
<path d="M67.0023 44.2535L50.3023 53.8535C49.5023 54.2535 48.9023 53.9535 48.9023 53.0535C48.9023 50.9535 50.3023 48.4535 52.1023 47.4535L67.0023 38.8535C67.8023 38.4535 68.4023 38.7535 68.4023 39.6535V41.8535C68.4023 42.7535 67.7023 43.8535 67.0023 44.2535Z" fill="#4A4A49"/>
<path d="M72.8023 8.55313L71.9023 14.2531L68.5023 36.8531C68.5023 37.0531 68.4023 37.3531 68.3023 37.5531C68.1023 37.9531 67.8023 38.3531 67.4023 38.6531L65.1023 39.9531C64.8023 40.1531 64.5023 40.1531 64.3023 40.0531C64.0023 39.8531 63.9023 39.5531 63.9023 39.0531L64.3023 36.5531L68.1023 12.2531L68.4023 10.3531C68.5023 9.55312 69.1023 8.75313 69.7023 8.55313L71.8023 7.65313C72.1023 7.55313 72.3023 7.55313 72.5023 7.65313C72.8023 7.75313 72.9023 8.15313 72.8023 8.55313Z" fill="#4A4A49"/>
<path d="M64.5047 62.752L49.1047 53.852L67.9047 38.752L83.3047 47.652L64.5047 62.752Z" fill="#4A4A49"/>
<path d="M87.6016 16.3527L72.5016 7.55273L64.3016 40.0527L79.4016 48.7527L87.6016 16.3527Z" fill="#4A4A49"/>
<path d="M82.2016 53.0523L65.5016 62.6524C64.7016 63.0524 64.1016 62.7524 64.1016 61.8524C64.1016 59.7524 65.5016 57.2523 67.3016 56.2523L82.2016 47.6524C83.0016 47.2524 83.6016 47.5524 83.6016 48.4524V50.6524C83.6016 51.5524 83.0016 52.6523 82.2016 53.0523Z" fill="#030403"/>
<path d="M79.2028 47.8536L83.6028 19.0536C83.7028 18.2536 84.3028 17.4536 84.9028 17.2536L87.0028 16.3536C87.6028 16.0536 88.1028 16.5536 88.0028 17.3536L83.7028 45.6536C83.6028 46.3536 83.1028 47.0536 82.6028 47.3536L80.3028 48.6536C79.6028 49.1536 79.1028 48.7536 79.2028 47.8536Z" fill="#1D1D1B"/>
<path d="M52.4031 44.3523V45.3523L52.0031 45.6523C50.8031 46.3523 49.9031 45.7523 49.9031 44.4523V38.1523C49.9031 36.8523 50.8031 35.1523 52.0031 34.4523L62.6031 28.3523C63.8031 27.6523 64.7031 28.2523 64.7031 29.5523V30.0523L63.8031 30.5523V30.0523C63.8031 29.2523 63.2031 28.9523 62.6031 29.3523L52.0031 35.4523C51.3031 35.8523 50.8031 36.7523 50.8031 37.5523V43.9523C50.8031 44.7523 51.4031 45.0523 52.0031 44.6523L52.4031 44.3523Z" fill="#4A4A49"/>
<path d="M53 47.2523L50.4 45.7523V36.7523L51.4 35.1523L63.9 28.1523L66.5 29.6523L54.7 35.9523L53 38.4523V47.2523Z" fill="#4A4A49"/>
<path d="M65.0031 30.853L64.6031 31.153L63.7031 31.653V36.453C63.7031 37.253 63.1031 38.153 62.5031 38.553L53.3031 43.853V44.853V45.353C53.3031 46.153 53.9031 46.453 54.5031 46.053L65.0031 39.953C65.7031 39.553 66.2031 38.653 66.2031 37.853V31.453C66.2031 30.753 65.7031 30.453 65.0031 30.853Z" fill="#4A4A49"/>
<path d="M67.1016 31.0521V37.4521C67.1016 38.7521 66.1016 40.4521 65.0016 41.1521L54.5016 47.2521C53.3016 47.9521 52.4016 47.3521 52.4016 46.0521V45.5521V44.5521V39.7521C52.4016 38.4521 53.4016 36.7521 54.5016 36.0521L63.7016 30.7521L64.6016 30.2521L65.0016 29.9521C66.2016 29.1521 67.1016 29.6521 67.1016 31.0521ZM66.2016 31.5521C66.2016 30.7521 65.7016 30.4521 65.0016 30.8521L64.6016 31.1521L63.7016 31.6521L54.5016 36.9521C53.8016 37.3521 53.3016 38.2521 53.3016 39.0521V43.8521V44.8521V45.3521C53.3016 46.1521 53.9016 46.4521 54.5016 46.0521L65.0016 39.9521C65.7016 39.5521 66.2016 38.6521 66.2016 37.8521V31.5521Z" fill="#1D1D1B"/>
<path d="M53.1031 85.5519C53.5031 84.2519 54.9031 82.7519 56.6031 81.6519C57.0031 81.3519 57.1031 80.952 57.2031 80.452C57.2031 80.252 57.3031 80.052 57.3031 79.952C57.4031 79.552 57.5031 79.252 57.8031 78.952L61.9031 78.752C62.1031 79.052 62.3031 79.3519 62.5031 79.6519C62.6031 79.9519 62.8031 80.2519 62.9031 80.5519C63.2031 81.1519 63.4031 81.752 63.5031 82.452C63.6031 82.752 63.6031 83.1519 63.7031 83.5519C63.7031 83.9519 63.5031 84.3519 62.9031 84.6519L57.2031 87.6519C56.2031 88.1519 54.6031 88.1519 53.6031 87.5519C53.2031 87.2519 53.0031 86.9519 52.9031 86.6519V86.452C52.9031 86.0519 53.0031 85.7519 53.1031 85.5519Z" fill="#030403"/>
<path d="M52.8037 86.5523C52.9037 86.6523 52.8037 86.5523 52.8037 86.5523C52.9037 86.8523 53.1037 87.1523 53.5037 87.4523C54.5037 88.0523 56.1037 88.1523 57.1037 87.5523L62.9037 84.4523C63.8037 83.9523 63.7037 83.3523 63.7037 83.3523C63.7037 82.9523 63.6037 82.4523 63.4037 82.1523C63.6037 82.6523 61.6037 83.3523 60.7037 84.1523C59.5037 85.1523 58.1037 86.0523 56.7037 86.6523C56.2037 86.8523 55.6037 87.0523 55.0037 87.0523C54.4037 87.0523 53.8037 86.9523 53.4037 86.5523C53.2037 86.3523 52.9037 85.9523 53.1037 85.4523C53.0037 85.7523 52.7037 85.9523 52.8037 86.5523Z" fill="#030403"/>
<path d="M54.0031 58.0523L59.0031 61.0523L62.9031 58.7523L77.2031 50.4523C78.3031 49.7523 79.1031 48.6523 79.2031 47.2523L79.7031 40.1523C75.0031 42.6523 69.4031 44.8523 64.6031 47.2523C62.1031 48.5523 59.8031 49.8523 58.0031 51.2523C55.4031 53.3523 53.9031 55.4523 54.0031 58.0523Z" fill="#030403"/>
<path d="M63.4023 79.8522C63.4023 73.4522 63.2023 59.0522 62.8023 58.3522C62.3023 57.5522 61.6023 56.5522 60.8023 56.0522C59.7023 55.3522 58.4023 54.6522 57.1023 54.9522C55.5023 55.2522 54.3023 56.4522 54.0023 58.0522C53.7023 59.6522 56.2023 79.0522 56.5023 79.9522C56.8023 80.8522 59.0023 80.1522 59.9023 80.4522L63.4023 79.8522Z" fill="#030403"/>
<path d="M56.5039 79.9533C56.6039 80.2533 56.8039 80.6533 57.2039 80.8533C57.3039 80.9533 57.4039 80.9533 57.5039 81.0533C57.6039 81.1533 57.7039 81.1533 57.9039 81.2533C58.0039 81.3533 58.2039 81.3533 58.3039 81.4533C59.6039 81.9533 61.3039 81.8533 62.4039 81.2533C62.6039 81.1533 62.8039 80.9533 63.0039 80.8533C63.3039 80.5533 63.5039 80.2533 63.5039 79.8533C63.5039 79.3533 63.2039 78.8533 62.5039 78.4533C61.2039 77.6533 59.0039 77.5533 57.6039 78.2533C56.7039 78.6533 56.4039 79.3533 56.5039 79.9533Z" fill="#030403"/>
<path d="M43.7023 80.0539C44.1023 78.7539 45.5023 77.2539 47.2023 76.1539C47.6023 75.8539 47.7023 75.4539 47.8023 74.9539C47.8023 74.7539 47.9023 74.5539 47.9023 74.4539C48.0023 74.0539 48.1023 73.7539 48.4023 73.4539L52.5023 73.2539C52.7023 73.5539 52.9023 73.8539 53.1023 74.1539C53.2023 74.4539 53.4023 74.7539 53.5023 75.0539C53.8023 75.6539 54.0023 76.2539 54.1023 76.9539C54.3023 77.2539 54.3023 77.5539 54.4023 77.9539C54.4023 78.3539 54.2023 78.7539 53.6023 79.0539L47.9023 82.0539C46.9023 82.5539 45.3023 82.5539 44.3023 81.9539C43.9023 81.6539 43.7023 81.3539 43.6023 81.0539V80.8539C43.6023 80.5539 43.7023 80.3539 43.7023 80.0539Z" fill="#030403"/>
<path d="M43.5029 81.0543C43.6029 81.1543 43.5029 81.0543 43.5029 81.0543C43.6029 81.3543 43.8029 81.6543 44.2029 81.9543C45.2029 82.5543 46.8029 82.6543 47.8029 82.0543L53.6029 78.9543C54.5029 78.4543 54.4029 77.8543 54.4029 77.8543C54.4029 77.4543 54.3029 76.9543 54.1029 76.6543C54.3029 77.1543 52.3029 77.8543 51.4029 78.6543C50.2029 79.6543 48.8029 80.5543 47.4029 81.1543C46.9029 81.3543 46.3029 81.5543 45.7029 81.5543C45.1029 81.5543 44.5029 81.4543 44.1029 81.0543C43.9029 80.8543 43.6029 80.4543 43.8029 79.9543C43.7029 80.2543 43.4029 80.5543 43.5029 81.0543Z" fill="#030403"/>
<path d="M44.6031 52.6531L49.6031 55.6531L68.1031 45.9531C69.2031 45.2531 69.6031 43.2531 69.7031 41.9531L69.2031 35.9531C58.8031 41.5531 44.0031 45.3531 44.6031 52.6531Z" fill="#030403"/>
<path d="M54.0039 74.4537C54.0039 68.0537 53.8039 53.6537 53.4039 52.9537C52.9039 52.1537 52.2039 51.1537 51.4039 50.6537C50.3039 49.9537 49.0039 49.2537 47.7039 49.5537C46.1039 49.8537 44.9039 51.0537 44.6039 52.6537C44.3039 54.2537 46.8039 73.7537 47.1039 74.6537C47.4039 75.5537 49.6039 74.6537 50.5039 74.9537L54.0039 74.4537Z" fill="#030403"/>
<path d="M48.2036 72.9535C46.8036 73.6535 46.8036 74.9535 48.1036 75.7535C49.4036 76.5535 51.6036 76.6535 53.0036 75.9535C54.4036 75.2535 54.4036 73.9535 53.1036 73.1535C51.7036 72.2535 49.5036 72.2535 48.2036 72.9535Z" fill="#030403"/>
<path opacity="0.2" d="M57.9039 51.3535C59.7039 49.9535 62.0039 48.5535 64.5039 47.3535C63.0039 46.6535 62.3039 45.9535 61.9039 43.8535C62.0039 45.2535 62.0039 46.1535 61.5039 47.4535C60.8039 49.0535 58.4039 49.7535 57.9039 51.3535Z" fill="#1D1D1B"/>
<path d="M54.3014 28.1522C54.5014 23.8522 54.7014 22.5522 55.2014 18.1522C55.7014 13.1522 60.7014 11.0522 61.9014 16.0522C62.1014 19.5522 61.2014 24.4522 60.4014 29.8522C59.4014 32.0522 58.3014 32.2522 56.7014 33.6522C54.8014 32.8522 53.3014 31.8522 52.3014 30.6522C53.1014 29.8522 53.6014 28.9522 54.3014 28.1522Z" fill="#FFBB7D"/>
<path d="M54.8998 17.9518C55.3998 12.9518 60.7998 10.7518 61.9998 15.7518C62.1998 18.4518 61.5998 22.0518 60.9998 25.9518C59.7998 27.0518 54.7998 27.1518 54.2998 23.5518C54.3998 22.0518 54.6998 20.2518 54.8998 17.9518Z" fill="#E04E39"/>
<path d="M78.3008 45.7512C78.3008 45.7512 78.7008 47.3512 78.8008 48.0512C74.3008 52.9512 62.2008 50.7512 60.5008 47.3512C60.4008 46.6512 60.1008 45.9512 60.0008 44.9512C64.2008 48.6512 74.8008 48.8512 78.3008 45.7512Z" fill="black"/>
<path d="M64.4008 49.4527C65.0008 49.7527 65.9008 49.9527 66.8008 50.0527L66.5008 48.6527C65.6008 48.4527 64.8008 48.3527 64.1008 48.0527L64.4008 49.4527Z" fill="#575756"/>
<path d="M59.0016 44.7517C62.7016 48.0517 74.4016 50.3517 78.4016 45.8517C79.2016 44.9517 78.7016 44.0517 78.6016 41.8517C78.4016 39.4517 78.1016 37.3517 77.9016 35.3517C77.0016 27.6517 76.1016 22.7517 75.4016 20.2517C75.3016 19.7517 75.4016 19.6517 75.3016 19.3517C72.9016 17.4517 68.6016 14.4517 65.4016 13.2517C62.3016 12.7517 61.6016 13.3517 59.9016 13.3517C52.3016 13.4517 57.8016 43.7517 59.0016 44.7517Z" fill="#F17757"/>
<path d="M57.4013 8.45281C55.5013 7.95281 54.6013 6.75281 54.6013 4.85281C55.1013 2.35281 57.4013 0.552809 61.3013 0.0528089C65.7013 -0.447191 67.9013 2.65281 67.3013 7.25281C67.1013 8.85281 67.2013 10.4528 67.1013 11.0528C67.0013 11.9528 66.7013 12.1528 65.9013 12.4528L57.4013 8.45281Z" fill="#45362E"/>
<path d="M63.1009 18.852C61.8009 19.152 60.6009 18.952 60.2009 18.152V18.052L59.9009 15.852L59.8009 15.152L66.2009 9.75195L67.0009 13.952C67.6009 16.652 65.3009 18.452 63.1009 18.852Z" fill="#FFBB7D"/>
<path opacity="0.1" d="M63.1022 18.8531C61.8022 19.1531 60.6022 18.9531 60.2022 18.1531V18.0531L59.9022 15.8531L64.6022 12.4531C65.4022 14.9531 64.6022 17.6531 63.1022 18.8531Z" fill="#1D1D1B"/>
<path d="M55.5023 5.45263C55.8023 2.75263 58.4023 1.35263 61.3023 0.952634C65.3023 0.452634 66.5023 3.15263 66.9023 6.15263C66.9023 7.65263 66.7023 9.35263 66.3023 10.8526L64.5023 12.5526C64.5023 12.5526 64.1023 14.2526 63.1023 15.2526C62.2023 16.2526 61.0023 17.0526 59.7023 17.0526C58.4023 17.0526 57.4023 16.3526 56.9023 14.3526C56.4023 12.3526 56.1023 12.2526 56.0023 11.3526C55.9023 10.8526 56.0023 10.2526 55.9023 9.95263C55.8023 9.65263 55.6023 9.15263 55.5023 8.85263C55.4023 7.95263 55.4023 6.15263 55.5023 5.45263Z" fill="#FFBB7D"/>
<path d="M56.5997 6.45223C58.0997 8.05223 59.4997 6.75223 61.4997 7.95223C61.4997 7.45223 60.7997 6.85223 60.3997 6.65223C61.0997 7.05223 62.9997 6.55223 63.4997 6.15223C63.4997 6.25223 63.4997 8.55223 63.4997 8.55223C63.6997 8.65223 65.1997 7.95223 65.2997 7.85223C65.2997 7.85223 65.2997 9.05223 65.4997 11.2522C65.5997 12.9522 66.1997 12.3522 66.4997 12.1522C66.8997 11.8522 66.9997 6.25223 66.9997 6.15223C67.0997 4.95223 66.6997 -0.0477716 60.8997 0.752228C58.1997 1.05223 53.2997 2.95223 56.5997 6.45223Z" fill="#45362E"/>
<path d="M64.2 8.55348C64.3 7.95348 64.4 6.95348 65 6.55348C65.9 6.05348 66 7.35348 66 7.95348C66 8.35348 65.9 8.75348 65.9 9.05348C65.9 9.45348 66 9.85348 65.8 10.1535C65.2 10.9535 64.5 9.85348 64.4 9.45348C64.3 9.25348 64.1 8.75348 64.2 8.55348Z" fill="#FFBB7D"/>
<path d="M70.0984 54.6531V55.6531L69.6984 55.9531C68.4984 56.6531 67.5984 56.0531 67.5984 54.7531V48.4531C67.5984 47.1531 68.4984 45.4531 69.6984 44.7531L80.2984 38.6531C81.4984 37.9531 82.3984 38.5531 82.3984 39.8531V40.3531L81.4984 40.8531V40.3531C81.4984 39.5531 80.8984 39.2531 80.2984 39.6531L69.6984 45.7531C68.9984 46.1531 68.4984 47.0531 68.4984 47.8531V54.1531C68.4984 54.9531 69.0984 55.2531 69.6984 54.8531L70.0984 54.6531Z" fill="#4A4A49"/>
<path d="M70.7969 57.5535L68.0969 56.0535V46.9535L69.1969 45.4535L81.4969 38.3535L84.2969 39.9535L72.4969 46.1535L70.7969 48.7535V57.5535Z" fill="#4A4A49"/>
<path d="M82.8 41.0542L82.4 41.3542L81.5 41.8542V46.6542C81.5 47.4542 80.9 48.3542 80.3 48.7542L71.1 54.0542V55.0542V55.5542C71.1 56.3542 71.7 56.6542 72.3 56.2542L82.8 50.1542C83.5 49.7542 84 48.8542 84 48.0542V41.6542C84 40.9542 83.5 40.6542 82.8 41.0542Z" fill="#4A4A49"/>
<path d="M84.8984 41.2542V47.6542C84.8984 48.9542 83.8984 50.6542 82.7984 51.3542L72.2984 57.4542C71.0984 58.1542 70.1984 57.5542 70.1984 56.2542V55.7542V54.7542V49.9542C70.1984 48.6542 71.1984 46.9542 72.2984 46.2542L81.4984 40.9542L82.3984 40.4542L82.7984 40.1542C83.9984 39.3542 84.8984 39.9542 84.8984 41.2542ZM83.9984 41.7542C83.9984 40.9542 83.4984 40.6542 82.7984 41.0542L82.3984 41.3542L81.4984 41.8542L72.2984 47.1542C71.5984 47.5542 71.0984 48.4542 71.0984 49.2542V54.0542V55.0542V55.5542C71.0984 56.3542 71.6984 56.6542 72.2984 56.2542L82.7984 50.1542C83.4984 49.7542 83.9984 48.8542 83.9984 48.0542V41.7542Z" fill="#1D1D1B"/>
<path d="M64.3992 108.654L89.3992 94.1539C91.4992 92.9539 93.1992 90.0539 93.1992 87.6539V60.4539C93.1992 58.5539 92.0992 57.2539 90.5992 57.2539C89.9992 57.2539 89.3992 57.4539 88.6992 57.8539L63.6992 72.3539C61.5992 73.5539 59.8992 76.4539 59.8992 78.8539V106.054C59.8992 107.954 60.9992 109.254 62.4992 109.254C63.0992 109.254 63.6992 109.054 64.3992 108.654ZM91.5992 60.4539V87.6539C91.5992 89.5539 90.1992 91.8539 88.5992 92.8539L63.5992 107.354C63.1992 107.554 62.7992 107.754 62.4992 107.754C61.4992 107.754 61.3992 106.654 61.3992 106.154V78.8539C61.3992 76.9539 62.7992 74.6539 64.3992 73.6539L89.3992 59.1539C89.7992 58.9539 90.1992 58.7539 90.4992 58.7539C91.4992 58.8539 91.5992 59.9539 91.5992 60.4539Z" fill="#3C3C3B"/>
<path d="M5.30156 74.5523L30.3016 60.0523C32.4016 58.8523 34.1016 55.9523 34.1016 53.5523V26.3523C34.1016 24.4523 33.0016 23.1523 31.5016 23.1523C30.9016 23.1523 30.3016 23.3523 29.6016 23.7523L4.60157 38.2523C2.50157 39.4523 0.801563 42.3523 0.801563 44.7523V71.9523C0.801563 73.8523 1.90156 75.1523 3.40156 75.1523C4.00156 75.1523 4.60156 74.9523 5.30156 74.5523ZM32.5016 26.3523V53.5523C32.5016 55.4523 31.1016 57.7523 29.5016 58.7523L4.50156 73.2523C4.10156 73.4523 3.70156 73.6523 3.40156 73.6523C2.40156 73.6523 2.30156 72.5523 2.30156 72.0523V44.8523C2.30156 42.9523 3.70156 40.6523 5.30156 39.6523L30.3016 25.0523C30.7016 24.8523 31.1016 24.6523 31.4016 24.6523C32.4016 24.7523 32.5016 25.8523 32.5016 26.3523Z" fill="#3C3C3B"/>
<path d="M95.3008 58.8523L61.8008 78.1523L0.000778198 42.4523V40.7523L33.4008 23.1523L95.3008 57.1523V58.8523Z" fill="#575756"/>
<path d="M95.3008 57.1531L61.8008 76.4531L0.000778198 40.7531L33.4008 21.4531L95.3008 57.1531Z" fill="#B2B2B2"/>
<path d="M74.1984 49.5539L76.8984 51.0539L77.0984 51.1539L77.3984 51.3539L77.8984 50.4539L77.4984 50.3539L77.3984 50.2539L74.6984 48.7539L74.1984 49.5539Z" fill="#E83345"/>
<path d="M74.0008 49.0529C74.0008 49.1529 74.5008 49.4529 74.6008 49.3529C74.7008 49.2529 74.8008 49.1529 74.8008 48.9529C74.8008 48.8529 74.3008 48.5529 74.2008 48.6529C74.0008 48.7529 74.0008 48.9529 74.0008 49.0529Z" fill="#824639"/>
<path d="M77.2977 51.1529C77.2977 51.3529 77.4977 51.4529 77.6977 51.3529C77.8977 51.2529 78.0977 50.9529 78.0977 50.7529C78.0977 50.5529 77.8977 50.4529 77.6977 50.5529C77.3977 50.6529 77.2977 50.9529 77.2977 51.1529Z" fill="#824639"/>
<path d="M76.8977 50.9539V51.0539L76.9977 51.1539C76.9977 51.1539 76.9977 51.0539 76.8977 50.9539C76.9977 50.7539 77.1977 50.4539 77.3977 50.3539C77.4977 50.3539 77.4977 50.3539 77.5977 50.3539L77.4977 50.2539H77.3977C77.0977 50.4539 76.8977 50.7539 76.8977 50.9539Z" fill="white"/>
<path d="M74.0992 49.3521C74.0992 49.5521 74.1992 49.6521 74.3992 49.5521C74.5992 49.4521 74.6992 49.1521 74.6992 48.9521C74.6992 48.7521 74.5992 48.6521 74.3992 48.7521C74.2992 48.8521 74.0992 49.0521 74.0992 49.3521Z" fill="#E83345"/>
<path d="M81.1 53.152C81.1 53.252 81.2 53.352 81.3 53.252C81.4 53.152 81.5 53.052 81.5 52.952C81.5 52.852 81.4 52.752 81.3 52.852C81.2 52.852 81.1 53.052 81.1 53.152Z" fill="#EB9481"/>
<path d="M77.2984 51.0527C77.2984 50.8527 77.3984 50.6527 77.5984 50.5527C77.6984 50.5527 77.7984 50.5527 77.7984 50.5527C78.9984 51.1527 80.1984 51.8527 81.3984 52.7527L81.0984 53.2527C79.7984 52.6527 78.4984 51.9527 77.3984 51.2527C77.3984 51.2527 77.2984 51.1527 77.2984 51.0527Z" fill="#E83345"/>
<path d="M74.7001 48.952L76.8001 50.152C76.9001 50.152 76.9001 50.152 77.0001 50.152H77.1001C77.1001 50.152 77.2001 50.152 77.1001 50.052L75.0001 48.852C74.9001 48.852 74.9001 48.852 74.8001 48.852H74.7001C74.6001 48.752 74.6001 48.852 74.7001 48.952C74.6001 48.852 74.7001 48.852 74.7001 48.952Z" fill="#824639"/>
<path d="M74.7008 48.8539L76.8008 50.0539C76.9008 50.0539 76.9008 50.0539 77.0008 50.0539H77.1008C77.2008 50.0539 77.2008 49.9539 77.1008 49.9539L75.0008 48.7539C74.9008 48.7539 74.9008 48.7539 74.8008 48.7539H74.7008C74.6008 48.7539 74.6008 48.8539 74.7008 48.8539Z" fill="#98584A"/>
<path d="M81.2992 53.1527C81.2992 53.0527 81.2992 53.0527 81.2992 53.0527L81.6992 53.2527C81.6992 53.3527 81.6992 53.3527 81.6992 53.3527C81.5992 53.3527 81.2992 53.1527 81.2992 53.1527Z" fill="#3C3C3B"/>
<path d="M79.4016 53.5535L79.6016 53.0535L79.4016 52.8535L79.1016 53.0535L78.9016 53.4535L79.1016 53.7535L79.4016 53.5535Z" fill="#B2B2B2"/>
<path d="M73.8 50.2527L74 49.8527L73.8 49.5527L73.5 49.7527L73.3 50.2527L73.5 50.4527L73.8 50.2527Z" fill="#B2B2B2"/>
<path d="M73.5023 49.7527L79.1023 53.0527L79.4023 52.8527L73.8023 49.5527L73.5023 49.7527Z" fill="#375D68"/>
<path d="M73.3016 50.252L78.9016 53.452L79.1016 53.052L73.5016 49.752L73.3016 50.252Z" fill="#284952"/>
<path d="M73.5016 50.452L79.1016 53.752L78.9016 53.452L73.3016 50.252L73.5016 50.452Z" fill="#284952"/>
<path d="M79.1008 53.0535L80.3008 53.8535L79.4008 52.8535L79.1008 53.0535Z" fill="white"/>
<path d="M78.9008 53.4527L80.3008 53.8527L79.1008 53.0527L78.9008 53.4527Z" fill="#DADADA"/>
<path d="M79.1008 53.7531L80.3008 53.8531L78.9008 53.4531L79.1008 53.7531Z" fill="#B2B2B2"/>
<path d="M80.6008 54.1523C80.6008 54.1523 80.7008 54.1523 80.6008 54.1523C80.7008 54.0523 80.7008 54.0523 80.6008 53.9523L80.1008 53.6523H80.0008V53.7523L80.6008 54.1523Z" fill="#3C3C3B"/>
<path d="M79.4023 52.8535L79.1023 53.0535C78.9023 52.8535 79.0023 52.5535 79.4023 52.8535Z" fill="white"/>
<path d="M79.1016 53.0526L78.9016 53.4526C78.5016 53.2526 78.7016 52.8526 79.1016 53.0526Z" fill="#DADADA"/>
<path d="M78.9016 53.453L79.1016 53.653C78.7016 53.553 78.7016 53.353 78.9016 53.453Z" fill="#B2B2B2"/>
<path d="M75.1 52.4539C75.1 52.5539 75.2 52.4539 75.2 52.4539C75.3 52.3539 75.5 52.3539 75.6 52.4539L75.8 52.5539L76.3 52.9539H77V53.3539C77 53.3539 77 53.4539 76.9 53.4539L76.3 53.7539C76.2 53.8539 76 53.8539 75.9 53.7539L75.2 53.3539L74.6 52.9539C74.5 52.9539 74.5 52.8539 74.5 52.8539V52.4539H75.1Z" fill="#C6C6C6"/>
<path d="M74.6016 52.6535L75.2016 52.9535L75.9016 53.3535C76.0016 53.4535 76.2016 53.4535 76.3016 53.3535L76.9016 53.0535C77.0016 52.9535 77.0016 52.8535 76.9016 52.8535L76.2016 52.4535L75.6016 52.0535C75.5016 51.9535 75.3016 51.9535 75.2016 52.0535L74.6016 52.3535C74.5016 52.4535 74.5016 52.5535 74.6016 52.6535Z" fill="white"/>
<path d="M74.4992 52.4535V52.9535C74.4992 52.9535 74.4992 53.0535 74.5992 53.0535L75.1992 53.4535V52.9535L74.6992 52.4535L74.5992 52.3535C74.4992 52.4535 74.4992 52.4535 74.4992 52.4535Z" fill="#824639"/>
<path d="M74.4992 52.4539C74.4992 52.4539 74.4992 52.5539 74.5992 52.5539L75.1992 52.9539L75.7992 52.5539L76.1992 52.3539L75.5992 51.9539C75.4992 51.8539 75.2992 51.8539 75.1992 51.9539L74.5992 52.2539C74.4992 52.4539 74.4992 52.4539 74.4992 52.4539Z" fill="#E83345"/>
<path d="M51.6889 52.3179L55.5859 54.5684L54.8358 55.8674L50.9388 53.6169L51.6889 52.3179Z" fill="#333332"/>
<path d="M69.7031 46.4531L54.5031 55.1531C54.5031 55.8531 55.0031 56.1531 55.6031 55.7531L68.6031 48.2531C69.2031 47.9531 69.7031 47.1531 69.7031 46.4531Z" fill="#333332"/>
<path d="M35.2031 43.9539L50.3031 35.2539L69.7031 46.4539L54.6031 55.1539L35.2031 43.9539Z" fill="#575756"/>
<path d="M56.5039 51.6543L55.6039 52.1543L56.7039 52.7543L57.5039 52.2543L56.5039 51.6543Z" fill="#DADADA"/>
<path d="M53.1039 50.6543L54.1039 51.2543L55.0039 50.7543L53.9039 50.1543L53.1039 50.6543Z" fill="#DADADA"/>
<path d="M52.6031 49.4551L51.8031 49.9551L52.8031 50.5551L53.7031 50.0551L52.6031 49.4551Z" fill="#DADADA"/>
<path d="M51.4023 48.6543L50.5023 49.1543L51.6023 49.8543L52.4023 49.3543L51.4023 48.6543Z" fill="#DADADA"/>
<path d="M50.1031 47.9551L49.2031 48.4551L50.3031 49.0551L51.2031 48.5551L50.1031 47.9551Z" fill="#DADADA"/>
<path d="M46.7016 46.9551L47.7016 47.5551L48.6016 47.1551L47.5016 46.4551L46.7016 46.9551Z" fill="#DADADA"/>
<path d="M46.3008 45.7539L45.4008 46.2539L46.5008 46.8539L47.3008 46.3539L46.3008 45.7539Z" fill="#DADADA"/>
<path d="M45.0016 45.0547L44.1016 45.5547L45.2016 46.1547L46.1016 45.6547L45.0016 45.0547Z" fill="#DADADA"/>
<path d="M48.5023 41.2543L49.4023 40.7543L48.3023 40.1543L47.4023 40.6543L48.5023 41.2543Z" fill="#DADADA"/>
<path d="M47.2016 40.5551L48.1016 40.0551L47.0016 39.4551L46.1016 39.9551L47.2016 40.5551Z" fill="#DADADA"/>
<path d="M46.8008 39.3543L45.7008 38.6543L44.9008 39.1543L45.9008 39.8543L46.8008 39.3543Z" fill="#DADADA"/>
<path d="M62.1023 49.4535L62.9023 48.9535L61.9023 48.3535L61.0023 48.8535L62.1023 49.4535Z" fill="#DADADA"/>
<path d="M60.8031 48.6547L61.7031 48.2547L60.6031 47.5547L59.7031 48.0547L60.8031 48.6547Z" fill="#DADADA"/>
<path d="M53.4023 44.4551L55.3023 45.5551L55.7023 45.7551L55.9023 45.8551L56.4023 46.1551L57.2023 46.6551L58.2023 47.2551L59.5023 47.9551L60.4023 47.4551L56.9023 45.4551L56.8023 45.3551L54.2023 43.9551L53.4023 44.4551Z" fill="#DADADA"/>
<path d="M53.1039 44.2543L54.0039 43.7543L52.9039 43.1543L52.1039 43.6543L53.1039 44.2543Z" fill="#DADADA"/>
<path d="M51.9031 43.5551L52.7031 43.0551L51.7031 42.4551L50.8031 42.9551L51.9031 43.5551Z" fill="#DADADA"/>
<path d="M51.5039 42.3543L50.4039 41.6543L49.5039 42.1543L50.6039 42.8543L51.5039 42.3543Z" fill="#DADADA"/>
<path d="M48.3008 41.3539L47.2008 40.7539L46.4008 41.2539L47.4008 41.8539L48.3008 41.3539Z" fill="#DADADA"/>
<path d="M47.0039 40.6547L45.9039 40.0547L45.1039 40.5547L46.1039 41.1547L47.0039 40.6547Z" fill="#DADADA"/>
<path d="M45.7031 39.9535L44.7031 39.3535L43.8031 39.8535L44.9031 40.4535L45.7031 39.9535Z" fill="#DADADA"/>
<path d="M61.9023 49.5551L60.8023 48.9551L59.9023 49.4551L61.0023 50.0551L61.9023 49.5551Z" fill="#DADADA"/>
<path d="M58.7016 48.7539L59.7016 49.3539L60.6016 48.8539L59.5016 48.2539L58.7016 48.7539Z" fill="#DADADA"/>
<path d="M57.4008 47.9551L58.4008 48.5551L59.3008 48.0551L58.2008 47.4551L57.4008 47.9551Z" fill="#DADADA"/>
<path d="M56.1039 47.2539L57.2039 47.8539L58.0039 47.3539L57.0039 46.7539L56.1039 47.2539Z" fill="#DADADA"/>
<path d="M54.8008 46.4551L55.9008 47.1551L56.8008 46.6551L55.7008 45.9551L54.8008 46.4551Z" fill="#DADADA"/>
<path d="M53.6039 45.7539L54.6039 46.3539L55.5039 45.8539L54.4039 45.2539L53.6039 45.7539Z" fill="#DADADA"/>
<path d="M52.3031 45.0547L53.3031 45.6547L54.2031 45.1547L53.1031 44.5547L52.3031 45.0547Z" fill="#DADADA"/>
<path d="M51.0023 44.2539L52.1023 44.8539L52.9023 44.4539L51.9023 43.7539L51.0023 44.2539Z" fill="#DADADA"/>
<path d="M49.7031 43.5547L50.8031 44.1547L51.7031 43.6547L50.6031 43.0547L49.7031 43.5547Z" fill="#DADADA"/>
<path d="M47.2031 42.0551L46.1031 41.4551L45.3031 41.8551L46.3031 42.5551L47.2031 42.0551Z" fill="#DADADA"/>
<path d="M44.0023 41.1543L45.1023 41.7543L45.9023 41.2543L44.9023 40.6543L44.0023 41.1543Z" fill="#DADADA"/>
<path d="M44.7031 40.5551L43.6031 39.9551L42.7031 40.4551L43.8031 41.0551L44.7031 40.5551Z" fill="#DADADA"/>
<path d="M60.8008 50.1547L59.7008 49.5547L58.9008 50.0547L59.9008 50.6547L60.8008 50.1547Z" fill="#DADADA"/>
<path d="M57.6039 49.3535L58.7039 49.9535L59.5039 49.4535L58.4039 48.8535L57.6039 49.3535Z" fill="#DADADA"/>
<path d="M58.2031 48.7547L57.2031 48.0547L56.3031 48.5547L57.4031 49.2547L58.2031 48.7547Z" fill="#DADADA"/>
<path d="M57.0039 47.9535L55.9039 47.3535L55.0039 47.8535L56.1039 48.4535L57.0039 47.9535Z" fill="#DADADA"/>
<path d="M55.7031 47.2543L54.6031 46.6543L53.8031 47.1543L54.8031 47.7543L55.7031 47.2543Z" fill="#DADADA"/>
<path d="M54.4023 46.4535L53.3023 45.8535L52.5023 46.3535L53.5023 46.9535L54.4023 46.4535Z" fill="#DADADA"/>
<path d="M51.2016 45.6543L52.3016 46.2543L53.1016 45.7543L52.1016 45.1543L51.2016 45.6543Z" fill="#DADADA"/>
<path d="M51.9023 45.0551L50.8023 44.4551L49.9023 44.9551L51.0023 45.5551L51.9023 45.0551Z" fill="#DADADA"/>
<path d="M48.4016 44.0535L49.7016 44.7535L50.6016 44.2535L49.3016 43.5535L50.4016 42.9535L49.3016 42.3535L48.2016 42.9535L47.9016 43.1535L47.4016 43.4535L48.1016 43.8535L48.4016 44.0535Z" fill="#DADADA"/>
<path d="M45.3016 43.1547L46.1016 42.6547L45.1016 42.0547L44.2016 42.5547L45.3016 43.1547Z" fill="#DADADA"/>
<path d="M43.8023 41.2539L42.9023 41.7539L44.0023 42.3539L44.9023 41.8539L43.8023 41.2539Z" fill="#DADADA"/>
<path d="M43.6016 41.1547L42.5016 40.5547L41.7016 41.0547L42.7016 41.6547L43.6016 41.1547Z" fill="#DADADA"/>
<path d="M59.7031 50.7543L58.7031 50.1543L57.8031 50.6543L58.9031 51.2543L59.7031 50.7543Z" fill="#DADADA"/>
<path d="M57.6023 50.5551L58.4023 50.0551L57.4023 49.4551L56.5023 49.9551L57.6023 50.5551Z" fill="#DADADA"/>
<path d="M57.2031 49.3539L56.1031 48.7539L55.2031 49.2539L56.3031 49.8539L57.2031 49.3539Z" fill="#DADADA"/>
<path d="M54.8023 47.9551L54.0023 48.4551L55.0023 49.0551L55.9023 48.5551L54.8023 47.9551Z" fill="#DADADA"/>
<path d="M54.6016 47.8539L53.5016 47.2539L52.7016 47.7539L53.8016 48.3539L54.6016 47.8539Z" fill="#DADADA"/>
<path d="M53.3008 47.1551L52.3008 46.4551L51.4008 46.9551L52.5008 47.6551L53.3008 47.1551Z" fill="#DADADA"/>
<path d="M51.2016 46.8539L52.1016 46.3539L51.0016 45.7539L50.1016 46.2539L51.2016 46.8539Z" fill="#DADADA"/>
<path d="M50.8008 45.6547L49.7008 45.0547L48.9008 45.5547L49.9008 46.1547L50.8008 45.6547Z" fill="#DADADA"/>
<path d="M48.2039 44.1547L47.8039 43.9547L47.2039 43.5547L46.3039 44.0547L47.0039 44.4547L47.4039 44.6547L48.7039 45.3547L49.5039 44.9547L48.2039 44.1547Z" fill="#DADADA"/>
<path d="M42.1039 43.7539L43.1039 44.3539L44.0039 43.8539L42.9039 43.2539L42.1039 43.7539Z" fill="#DADADA"/>
<path d="M41.7031 42.5547L40.8031 43.0547L41.9031 43.6547L42.7031 43.1547L41.7031 42.5547Z" fill="#DADADA"/>
<path d="M40.4023 41.7539L39.5023 42.2539L40.6023 42.8539L41.4023 42.3539L40.4023 41.7539Z" fill="#DADADA"/>
<path d="M60.5031 42.4535L57.9031 43.9535C57.8031 44.0535 57.6031 44.0535 57.5031 43.9535L53.6031 41.7535C53.5031 41.6535 53.5031 41.5535 53.6031 41.5535L56.2031 40.0535C56.3031 39.9535 56.5031 39.9535 56.6031 40.0535L60.5031 42.2535C60.6031 42.2535 60.6031 42.4535 60.5031 42.4535Z" fill="#878787"/>
<path d="M63.8003 42.1527C66.9003 38.7527 69.7003 36.4527 72.1003 34.4527C71.3003 31.5527 70.7003 27.2527 70.6003 22.8527C70.6003 18.1527 75.9003 17.8527 77.0003 22.7527C77.9003 26.1527 78.4003 29.5527 78.1003 36.1527C76.4003 39.9527 72.2003 42.3527 66.3003 44.6527C64.3003 45.1527 63.1003 44.2527 63.8003 42.1527Z" fill="#FFBB7D"/>
<path d="M55.0992 48.6523C55.2992 48.8523 55.7992 48.8523 56.0992 48.5523L57.0992 47.1523L59.0992 45.5523L59.1992 45.4523L58.0992 44.6523L56.3992 46.0523L54.9992 48.3523C54.9992 48.4523 54.9992 48.5523 55.0992 48.6523Z" fill="#FFBB7D"/>
<path opacity="0.1" d="M55.0977 48.6531C55.2977 48.8531 55.7977 48.8531 56.0977 48.5531L57.0977 47.1531L59.0977 45.5531L58.9977 45.4531L56.9977 46.5531C56.3977 47.5531 55.7977 48.6531 55.0977 48.6531Z" fill="#1D1D1B"/>
<path d="M55.8984 49.5531C56.0984 49.7531 56.5984 49.7531 56.7984 49.4531L57.7984 48.0531L59.8984 46.3531L58.9984 45.4531L57.0984 46.9531L55.6984 49.2531C55.6984 49.3531 55.7984 49.4531 55.8984 49.5531Z" fill="#FFBB7D"/>
<path d="M56.5969 43.6531C56.6969 43.8531 56.8969 44.1531 57.1969 44.1531C57.9969 44.4531 58.7969 44.6531 59.5969 44.6531L60.0969 44.7531L61.4969 45.0531L61.9969 43.5531L62.0969 43.2531L62.2969 42.9531L60.8969 43.0531C59.4969 43.2531 58.2969 43.2531 57.0969 42.9531C56.5969 42.9531 56.4969 43.3531 56.5969 43.6531Z" fill="#FFBB7D"/>
<path opacity="0.1" d="M56.6 43.652C56.7 43.852 56.9 44.152 57.2 44.152C58 44.452 58.8 44.652 59.6 44.652L60.1 44.752L62 43.552L62.5 43.252C62.4 43.252 62.2 43.252 62.1 43.252C60.1 43.452 58.2 44.252 56.6 43.652Z" fill="#1D1D1B"/>
<path d="M57.9984 44.6529L60.5984 47.0529L61.3984 47.7529L61.5984 47.9529C63.1984 47.9529 64.1984 46.9529 64.8984 45.6529L66.3984 44.5529C66.3984 44.1529 66.2984 43.7529 66.0984 43.3529C65.5984 42.4529 64.4984 41.7529 63.8984 42.0529C63.0984 42.7529 62.0984 43.0529 61.0984 43.2529C59.6984 43.7529 58.5984 44.1529 57.9984 44.6529Z" fill="#FFBB7D"/>
<path opacity="0.1" d="M55.8984 49.5523C56.0984 49.7523 56.5984 49.7523 56.7984 49.4523L57.7984 48.0523L59.8984 46.3523L59.6984 46.1523L57.7984 47.5523C57.2984 48.5523 56.6984 49.5523 55.8984 49.5523Z" fill="#1D1D1B"/>
<path d="M57.1 50.1531C57.1 50.2531 57.2 50.3531 57.3 50.4531C57.5 50.6531 58 50.5531 58.2 50.2531L59.1 48.7531L60.8 46.9531L61 46.7531L60 45.9531L58.3 47.6531L57.1 50.1531Z" fill="#FFBB7D"/>
<path opacity="0.1" d="M57.1992 50.5527C57.3992 50.7527 57.8992 50.6527 58.0992 50.3527L58.9992 48.8527L60.6992 47.0527L58.8992 48.4527C58.3992 49.4527 57.9992 50.4527 57.1992 50.5527Z" fill="#1D1D1B"/>
<path d="M58.6969 50.2523C58.6969 50.3523 58.6969 50.4523 58.7969 50.5523C58.9969 50.7523 59.3969 50.6523 59.6969 50.3523L60.5969 48.9523L61.5969 47.8523L62.0969 47.2523L62.2969 47.0523L61.1969 46.1523L60.6969 46.8523L59.8969 47.8523L58.6969 50.2523Z" fill="#FFBB7D"/>
<path opacity="0.1" d="M58.7984 50.6527C58.9984 50.8527 59.3984 50.7527 59.6984 50.4527L60.5984 49.0527L61.5984 47.9527C63.1984 47.9527 65.6984 45.9527 66.3984 44.6527L67.8984 44.0527C65.3984 44.2527 65.4984 45.0527 64.7984 45.2527C63.9984 46.4527 63.0984 47.3527 62.0984 47.4527C61.9984 47.4527 61.8984 47.4527 61.7984 47.4527L61.4984 47.8527L60.4984 48.9527C59.7984 49.9527 59.5984 50.5527 58.7984 50.6527Z" fill="#1D1D1B"/>
<path d="M70.4988 22.7531C70.4988 18.0531 75.9988 17.4531 77.1988 22.3531C77.7988 24.4531 78.2988 26.7531 78.4988 29.6531C78.5988 31.5531 72.3988 32.3531 71.3988 31.4531C70.8988 28.9531 70.4988 25.8531 70.4988 22.7531Z" fill="#C43E3D"/>
<path d="M49.0031 35.0539C50.3031 33.2539 51.4031 31.7539 52.3031 30.7539L56.7031 33.7539C55.5031 34.7539 53.2031 36.0539 51.1031 37.4539C49.0031 37.8539 47.9031 37.2539 49.0031 35.0539Z" fill="#FFBB7D"/>
<path d="M51.2033 36.9536C51.2033 37.0536 51.1033 37.2536 51.0033 37.3536L50.2033 38.0536L50.0033 38.2536L48.1033 39.8536L44.8033 37.1536L47.7033 35.7536L49.0033 34.9536C49.6033 34.8536 51.4033 35.9536 51.2033 36.9536Z" fill="#FFBB7D"/>
<path d="M46.1016 37.8539C46.0016 37.8539 43.7016 39.2539 43.7016 39.2539L43.3016 40.8539C43.2016 41.0539 43.1016 41.2539 43.0016 41.3539C42.9016 41.4539 42.8016 41.4539 42.7016 41.4539C42.5016 41.4539 42.4016 41.3539 42.4016 41.1539C42.4016 41.1539 42.4016 41.0539 42.4016 40.9539V40.8539L43.0016 38.6539C43.0016 38.6539 44.9016 37.3539 45.1016 37.2539C45.2016 37.2539 45.8016 37.5539 46.1016 37.7539C46.0016 37.7539 46.0016 37.7539 46.1016 37.8539C46.1016 37.7539 46.1016 37.8539 46.1016 37.8539Z" fill="#FFBB7D"/>
<path opacity="0.1" d="M45.4023 37.8535L43.5023 39.0535L43.1023 40.6535C43.0023 40.8535 43.0023 41.0535 42.9023 41.2535C42.8023 41.3535 42.7023 41.3535 42.6023 41.3535C42.4023 41.3535 42.3023 41.2535 42.3023 41.0535C42.3023 41.0535 42.3023 40.9535 42.3023 40.8535C42.6023 40.5535 43.0023 39.6535 43.2023 38.8535L45.4023 37.8535Z" fill="#1D1D1B"/>
<path d="M46.8047 38.3543L46.0047 38.8543L44.0047 40.1543L43.2047 41.7543C43.0047 42.0543 42.8047 42.2543 42.5047 42.2543C42.4047 42.2543 42.3047 42.1543 42.2047 42.0543C42.1047 41.9543 42.1047 41.8543 42.2047 41.5543L43.2047 39.2543C43.2047 39.2543 45.6047 37.6543 45.8047 37.6543C46.0047 37.6543 46.8047 38.3543 46.8047 38.3543Z" fill="#FFBB7D"/>
<path opacity="0.1" d="M46.5039 38.3535L46.0039 38.8535L44.0039 40.1535L43.2039 41.7535C43.0039 42.0535 42.8039 42.2535 42.5039 42.2535C42.4039 42.2535 42.3039 42.1535 42.2039 42.0535C42.7039 42.0535 43.5039 40.8535 43.7039 39.9535L46.5039 38.3535Z" fill="#1D1D1B"/>
<path d="M47.8047 38.9539L46.4047 39.9539L44.6047 41.2539L43.5047 42.6539C43.3047 42.9539 43.0047 43.0539 42.7047 42.9539H42.6047L42.5047 42.8539C42.4047 42.7539 42.4047 42.5539 42.5047 42.3539L43.9047 40.3539C43.9047 40.3539 46.4047 38.3539 46.6047 38.4539C46.9047 38.2539 47.8047 38.9539 47.8047 38.9539Z" fill="#FFBB7D"/>
<path opacity="0.1" d="M47.2031 39.0547L46.4031 39.8547L44.6031 41.1547L43.5031 42.5547C43.3031 42.8547 43.0031 42.9547 42.7031 42.8547H42.6031L42.5031 42.7547C42.9031 42.9547 44.2031 41.8547 44.4031 40.7547L47.2031 39.0547Z" fill="#1D1D1B"/>
<path d="M48.5039 39.7539L46.0039 41.6539L45.1039 43.1539C44.9039 43.4539 44.6039 43.5539 44.3039 43.5539C44.2039 43.5539 44.1039 43.4539 44.1039 43.3539C44.0039 43.2539 44.0039 43.0539 44.1039 42.8539L45.3039 40.7539C45.3039 40.7539 47.4039 38.7539 47.6039 38.7539C47.7039 38.7539 48.1039 39.1539 48.3039 39.4539C48.4039 39.6539 48.5039 39.7539 48.5039 39.7539Z" fill="#FFBB7D"/>
<path opacity="0.1" d="M48.5039 39.7531L46.0039 41.6531L45.1039 43.1531C44.9039 43.4531 44.6039 43.5531 44.3039 43.5531C44.2039 43.5531 44.1039 43.4531 44.1039 43.3531C44.6039 43.3531 45.6039 42.2531 45.8039 41.3531L48.3039 39.4531C48.4039 39.6531 48.5039 39.7531 48.5039 39.7531Z" fill="#1D1D1B"/>
<path d="M50.2031 37.7539C50.2031 37.8539 50.2031 38.0539 50.2031 38.1539C50.2031 38.8539 50.2031 39.5539 49.9031 40.1539C49.7031 40.6539 49.3031 40.9539 48.9031 41.3539C48.5031 41.7539 48.3031 42.2539 48.0031 42.7539C47.9031 42.9539 47.8031 43.1539 47.6031 43.2539C47.5031 43.2539 47.4031 43.2539 47.3031 43.2539C47.2031 43.2539 47.0031 43.1539 47.0031 42.9539C46.9031 42.7539 46.9031 42.4539 47.0031 42.2539C47.2031 41.4539 47.9031 40.8539 48.1031 40.0539C48.1031 39.9539 48.1031 39.9539 48.1031 39.8539C48.1031 39.5539 48.1031 39.3539 48.2031 39.0539C48.3031 38.6539 48.6031 38.3539 49.0031 38.1539C49.3031 38.0539 49.6031 37.9539 49.9031 37.8539C50.0031 37.7539 50.1031 37.7539 50.2031 37.7539Z" fill="#FFBB7D"/>
<path opacity="0.1" d="M51.7031 36.9531C51.5031 37.1531 51.2031 37.2531 51.0031 37.4531L50.2031 38.1531C50.2031 38.8531 50.2031 39.5531 49.9031 40.1531C49.7031 40.6531 49.3031 40.9531 48.9031 41.3531C48.5031 41.7531 48.3031 42.2531 48.0031 42.7531C47.9031 42.9531 47.8031 43.1531 47.6031 43.2531C47.5031 43.2531 47.4031 43.2531 47.3031 43.2531C47.4031 43.1531 47.5031 43.0531 47.6031 42.8531C47.8031 42.5531 47.9031 42.2531 48.1031 41.9531C48.4031 41.4531 48.8031 41.0531 49.2031 40.6531C49.7031 40.0531 49.9031 39.2531 50.0031 38.4531C50.0031 38.2531 50.0031 38.0531 50.0031 37.9531C50.0031 37.8531 50.0031 37.6531 49.9031 37.5531C50.0031 37.6531 50.5031 37.6531 50.5031 37.6531C50.7031 37.3531 51.4031 36.9531 51.7031 36.9531Z" fill="#1D1D1B"/>
<path d="M35.1992 44.1531L30.9992 28.9531C30.3992 29.4531 30.0992 30.3531 30.2992 30.8531L33.8992 44.0531C33.9992 44.6531 34.5992 44.6531 35.1992 44.1531Z" fill="#4A4A49"/>
<path d="M50.4 40.1531L53.5 55.6531L34.2 44.4531L31 28.9531L50.4 40.1531Z" fill="#4A4A49"/>
<path d="M54.5 55.3523L50.3 40.1523C49.7 40.6523 49.4 41.5523 49.6 42.0523L53.2 55.2523C53.4 55.8523 54 55.8523 54.5 55.3523Z" fill="#333332"/>
<path d="M42.1995 42.9526C42.2995 43.6526 41.8995 43.8526 41.2995 43.5526C40.6995 43.2526 40.0995 42.4526 39.9995 41.7526C39.8995 41.0526 40.2995 40.8526 40.8995 41.1526C41.4995 41.4526 42.0995 42.2526 42.1995 42.9526Z" fill="#DADADA"/>
<path d="M39.6031 28.8523C38.4031 29.5523 38.4031 30.6523 39.6031 31.3523C40.8031 32.0523 42.7031 32.0523 43.8031 31.3523C45.0031 30.6523 45.0031 29.5523 43.8031 28.8523C42.6031 28.2523 40.7031 28.2523 39.6031 28.8523Z" fill="#F49678"/>
<path d="M38.7031 25.1523H44.7031V30.1523H38.7031V25.1523Z" fill="#F49678"/>
<path d="M39.7047 23.9531C38.5047 24.6531 38.4047 25.6531 39.6047 26.3531C40.8047 27.0531 42.7047 27.0531 43.8047 26.3531C45.0047 25.6531 44.9047 24.6531 43.7047 23.9531C42.6047 23.3531 40.8047 23.2531 39.7047 23.9531Z" fill="#E04E39"/>
<path d="M38.6045 30.2527C38.8045 30.2527 38.9045 30.2527 39.1045 30.1527C39.3045 30.0527 39.4045 29.9527 39.3045 29.7527C39.2045 29.5527 39.1045 29.4527 38.9045 29.5527C38.7045 29.6527 38.4045 29.6527 38.1045 29.4527C37.7045 29.1527 37.5045 28.4527 37.6045 27.4527C37.6045 26.8527 38.0045 26.7527 38.1045 26.7527C38.2045 26.7527 38.3045 26.8527 38.4045 26.9527C38.5045 27.0527 38.6045 27.4527 38.7045 27.7527C38.8045 27.9527 38.9045 28.0527 39.1045 27.9527C39.3045 27.8527 39.4045 27.7527 39.3045 27.5527C39.3045 27.3527 39.1045 26.8527 38.9045 26.5527C38.7045 26.2527 38.4045 26.0527 38.0045 26.0527C37.6045 26.0527 36.8045 26.2527 36.8045 27.3527C36.7045 28.5527 37.0045 29.4527 37.6045 29.9527C37.9045 30.1527 38.3045 30.2527 38.6045 30.2527Z" fill="#E04E39"/>
<path d="M39.6031 23.9531C40.2031 23.6531 41.0031 23.4531 41.7031 23.4531C42.5031 23.4531 43.2031 23.6531 43.8031 23.9531C45.0031 24.6531 45.0031 25.7531 43.8031 26.4531C43.2031 26.7531 42.4031 26.9531 41.7031 26.9531C40.9031 26.9531 40.2031 26.7531 39.6031 26.4531C38.4031 25.6531 38.4031 24.5531 39.6031 23.9531ZM39.7031 26.1531C39.7031 26.1531 39.8031 26.1531 39.8031 26.2531C40.3031 26.5531 41.0031 26.6531 41.7031 26.6531C42.4031 26.6531 43.0031 26.5531 43.6031 26.2531C43.6031 26.2531 43.7031 26.2531 43.7031 26.1531C44.2031 25.8531 44.4031 25.5531 44.4031 25.1531C44.4031 24.7531 44.1031 24.4531 43.7031 24.1531C43.2031 23.8531 42.5031 23.6531 41.7031 23.6531C40.9031 23.6531 40.2031 23.8531 39.7031 24.1531C39.2031 24.4531 39.0031 24.7531 39.0031 25.1531C39.0031 25.4531 39.2031 25.8531 39.7031 26.1531Z" fill="#E04E39"/>
<path d="M39.8016 26.1531C40.3016 26.4531 41.0016 26.5531 41.7016 26.5531C42.4016 26.5531 43.0016 26.4531 43.6016 26.1531C42.5016 25.5531 40.9016 25.5531 39.8016 26.1531Z" fill="#3C3C3B"/>
<path d="M73.6016 58.3535L72.9016 58.8535L64.4016 63.7535L58.2016 60.1535L67.4016 54.8535L72.6016 57.8535L72.8016 57.9535L73.5016 58.3535H73.6016Z" fill="#C6C6C6"/>
<path d="M73.6016 58.252L64.4016 63.552L58.2016 60.052L67.4016 54.752L73.6016 58.252Z" fill="white"/>
<path d="M73.6016 58.1527L64.4016 63.4527L58.2016 59.8527L67.4016 54.5527L73.6016 58.1527Z" fill="#C6C6C6"/>
<path d="M73.6016 58.0531L64.4016 63.3531L58.2016 59.7531L67.4016 54.4531L73.6016 58.0531Z" fill="white"/>
<path d="M73.6016 57.9535L64.4016 63.2535L58.2016 59.6535L67.4016 54.3535L73.6016 57.9535Z" fill="#C6C6C6"/>
<path d="M73.6016 57.752L64.4016 63.052L58.2016 59.552L67.4016 54.252L73.6016 57.752Z" fill="white"/>
<path d="M73.6016 57.6523L64.4016 62.9523L58.2016 59.4523L67.4016 54.1523L73.6016 57.6523Z" fill="#C6C6C6"/>
<path d="M73.6016 57.5531L64.4016 62.8531L58.2016 59.2531L67.4016 53.9531L73.6016 57.5531Z" fill="white"/>
<path d="M73.6016 57.4535L64.4016 62.7535L58.2016 59.1535L67.4016 53.8535L73.6016 57.4535Z" fill="#C6C6C6"/>
<path d="M73.6016 57.352L66.1016 61.652C65.6016 61.952 65.0016 62.152 64.5016 62.352H64.4016L58.2016 58.752C58.8016 58.552 59.4016 58.352 59.9016 58.052L67.4016 53.752L73.6016 57.352Z" fill="white"/>
<path d="M74.2031 57.3516C74.2031 57.8516 73.9031 58.4516 73.4031 58.6516C73.3031 58.7516 73.1031 58.7516 73.0031 58.7516C72.9031 58.7516 72.9031 58.7516 72.8031 58.7516L73.5031 58.3516H73.4031C73.6031 58.1516 73.8031 57.7516 73.8031 57.4516L74.2031 57.3516Z" fill="#3C3C3B"/>
<path d="M73.4031 57.052C73.5031 56.952 73.6031 56.952 73.7031 56.952C73.9031 56.952 74.0031 57.052 74.0031 57.352H74.2031C74.2031 56.952 74.0031 56.752 73.7031 56.752C73.6031 56.752 73.5031 56.752 73.3031 56.852C73.1031 56.952 73.0031 57.052 72.9031 57.252L73.2031 57.352C73.2031 57.252 73.3031 57.152 73.4031 57.052Z" fill="#3C3C3B"/>
<path d="M73.1047 57.2527C73.2047 57.2527 73.2047 57.3527 73.1047 57.3527C73.0047 57.3527 72.9047 57.3527 72.9047 57.3527C72.8047 57.3527 72.8047 57.2527 72.9047 57.2527C73.0047 57.1527 73.1047 57.1527 73.1047 57.2527Z" fill="#3C3C3B"/>
<path d="M74.2031 57.352C74.2031 56.952 74.0031 56.752 73.7031 56.752C73.6031 56.752 73.5031 56.752 73.3031 56.852C73.1031 56.952 73.0031 57.052 72.9031 57.252V57.352C73.0031 57.352 73.1031 57.352 73.1031 57.352C73.2031 57.252 73.3031 57.152 73.4031 57.152C73.5031 57.052 73.6031 57.052 73.7031 57.052C73.9031 57.052 74.0031 57.152 74.0031 57.452C73.9031 57.452 74.2031 57.352 74.2031 57.352Z" fill="#3C3C3B"/>
<path d="M73.5039 56.9535C73.5039 56.5535 73.3039 56.3535 73.0039 56.3535C72.9039 56.3535 72.8039 56.3535 72.6039 56.4535C72.4039 56.5535 72.3039 56.6535 72.2039 56.8535V56.9535C72.3039 56.9535 72.4039 56.9535 72.4039 56.9535C72.5039 56.8535 72.6039 56.7535 72.7039 56.7535C72.8039 56.6535 72.9039 56.6535 73.0039 56.6535C73.2039 56.6535 73.3039 56.7535 73.3039 57.0535C73.2039 57.0535 73.5039 56.9535 73.5039 56.9535Z" fill="#3C3C3B"/>
<path d="M72.8047 56.5531C72.8047 56.1531 72.6047 55.9531 72.3047 55.9531C72.2047 55.9531 72.1047 55.9531 71.9047 56.0531C71.7047 56.1531 71.6047 56.2531 71.5047 56.4531V56.5531C71.6047 56.5531 71.7047 56.5531 71.7047 56.5531C71.8047 56.4531 71.9047 56.3531 72.0047 56.3531C72.1047 56.2531 72.2047 56.2531 72.3047 56.2531C72.5047 56.2531 72.6047 56.3531 72.6047 56.6531C72.5047 56.6531 72.8047 56.5531 72.8047 56.5531Z" fill="#3C3C3B"/>
<path d="M72.1055 56.1527C72.1055 55.7527 71.9055 55.5527 71.6055 55.5527C71.5055 55.5527 71.4055 55.5527 71.2055 55.6527C71.0055 55.7527 70.9055 55.8527 70.8055 56.0527V56.1527C70.9055 56.1527 71.0055 56.1527 71.0055 56.1527C71.1055 56.0527 71.2055 55.9527 71.3055 55.9527C71.4055 55.8527 71.5055 55.8527 71.6055 55.8527C71.8055 55.8527 71.9055 55.9527 71.9055 56.2527C71.8055 56.2527 72.1055 56.1527 72.1055 56.1527Z" fill="#3C3C3B"/>
<path d="M71.4023 55.7523C71.4023 55.3523 71.2023 55.1523 70.9023 55.1523C70.8023 55.1523 70.7023 55.1523 70.5023 55.2523C70.3023 55.3523 70.2023 55.4523 70.1023 55.6523V55.7523C70.2023 55.7523 70.3023 55.7523 70.3023 55.7523C70.4023 55.6523 70.5023 55.5523 70.6023 55.5523C70.7023 55.4523 70.8023 55.4523 70.9023 55.4523C71.1023 55.4523 71.2023 55.5523 71.2023 55.8523C71.1023 55.8523 71.4023 55.7523 71.4023 55.7523Z" fill="#3C3C3B"/>
<path d="M70.7031 55.352C70.7031 54.952 70.5031 54.752 70.2031 54.752C70.1031 54.752 70.0031 54.752 69.8031 54.852C69.6031 54.952 69.5031 55.052 69.4031 55.252V55.352C69.5031 55.352 69.6031 55.352 69.6031 55.352C69.7031 55.252 69.8031 55.152 69.9031 55.152C70.0031 55.052 70.1031 55.052 70.2031 55.052C70.4031 55.052 70.5031 55.152 70.5031 55.452C70.4031 55.452 70.7031 55.352 70.7031 55.352Z" fill="#3C3C3B"/>
<path d="M70.0039 54.9535C70.0039 54.5535 69.8039 54.3535 69.5039 54.3535C69.4039 54.3535 69.3039 54.3535 69.1039 54.4535C68.9039 54.5535 68.8039 54.6535 68.7039 54.8535V54.9535C68.8039 54.9535 68.9039 54.9535 68.9039 54.9535C69.0039 54.8535 69.1039 54.7535 69.2039 54.7535C69.3039 54.6535 69.4039 54.6535 69.5039 54.6535C69.7039 54.6535 69.8039 54.7535 69.8039 55.0535C69.7039 55.0535 70.0039 54.9535 70.0039 54.9535Z" fill="#3C3C3B"/>
<path d="M69.3047 54.5531C69.3047 54.1531 69.1047 53.9531 68.8047 53.9531C68.7047 53.9531 68.6047 53.9531 68.4047 54.0531C68.2047 54.1531 68.1047 54.2531 68.0047 54.4531V54.5531C68.1047 54.5531 68.2047 54.5531 68.2047 54.5531C68.3047 54.4531 68.4047 54.3531 68.5047 54.3531C68.6047 54.2531 68.7047 54.2531 68.8047 54.2531C69.0047 54.2531 69.1047 54.3531 69.1047 54.6531C69.0047 54.6531 69.3047 54.5531 69.3047 54.5531Z" fill="#3C3C3B"/>
<path d="M68.6055 54.1527C68.6055 53.7527 68.4055 53.5527 68.1055 53.5527C68.0055 53.5527 67.9055 53.5527 67.7055 53.6527C67.5055 53.7527 67.4055 53.8527 67.3055 54.0527V54.1527C67.4055 54.1527 67.5055 54.1527 67.5055 54.1527C67.6055 54.0527 67.7055 53.9527 67.8055 53.9527C67.9055 53.8527 68.0055 53.8527 68.1055 53.8527C68.3055 53.8527 68.4055 53.9527 68.4055 54.2527L68.6055 54.1527Z" fill="#3C3C3B"/>
<path d="M17.2 36.8539L21.4 39.2539C21.5 39.3539 21.7 39.3539 21.8 39.2539L29.9 34.5539C30 34.5539 30 34.4539 30 34.4539C30 34.4539 30 34.3539 29.9 34.3539L25.7 31.9539C25.6 31.8539 25.4 31.8539 25.3 31.9539L17.2 36.6539C17.1 36.6539 17.1 36.7539 17.2 36.8539Z" fill="#4A4A49"/>
<path d="M30 34.0527V34.4527L17.1 36.7527V36.3527L30 34.0527Z" fill="#4A4A49"/>
<path d="M17.2 36.4535L21.4 38.8535C21.5 38.9535 21.7 38.9535 21.8 38.8535L29.9 34.1535C30 34.1535 30 34.0535 30 34.0535C30 34.0535 30 33.9535 29.9 33.9535L25.7 31.5535C25.6 31.4535 25.4 31.4535 25.3 31.5535L17.2 36.2535C17.1 36.2535 17.1 36.3535 17.2 36.4535Z" fill="#878787"/>
<path d="M21.8992 38.5535L29.1992 34.3535L27.2992 33.2535L26.6992 32.8535L25.6992 32.2535L25.3992 32.0535L25.0992 31.8535L17.7992 36.0535L21.8992 38.5535Z" fill="#4DC8DB"/>
<path d="M26.6992 32.7531L27.6992 33.3531C27.6992 33.3531 27.7992 33.3531 27.8992 33.3531L28.1992 33.1531V33.0531L27.1992 32.4531C27.1992 32.4531 27.0992 32.4531 26.9992 32.4531L26.6992 32.7531C26.6992 32.6531 26.6992 32.7531 26.6992 32.7531Z" fill="white"/>
<path d="M27.7977 33.3527C27.7977 33.3527 27.8977 33.3527 27.7977 33.3527L28.0977 33.1527L27.0977 32.5527H26.9977L26.6977 32.7527C26.7977 32.7527 27.7977 33.3527 27.7977 33.3527Z" fill="#4A4A49"/>
<path d="M19.7 37.6547C19.7 37.7547 19.8 37.7547 19.7 37.6547L20 37.5547C20 37.5547 20 37.5547 19.9 37.5547L19.7 37.6547Z" fill="#273340"/>
<path d="M19.5984 37.6547L19.8984 37.5547C19.8984 37.5547 19.8984 37.5547 19.7984 37.5547L19.5984 37.6547Z" fill="#273340"/>
<path d="M19.5008 37.5531L19.8008 37.4531C19.8008 37.4531 19.8008 37.4531 19.7008 37.4531L19.5008 37.5531Z" fill="#273340"/>
<path d="M19.3016 37.4535C19.3016 37.5535 19.4016 37.5535 19.3016 37.4535L19.6016 37.3535C19.6016 37.3535 19.6016 37.3535 19.5016 37.3535L19.3016 37.4535Z" fill="#273340"/>
<path d="M19.2 37.3539C19.2 37.4539 19.2 37.4539 19.2 37.3539L19.5 37.2539C19.5 37.2539 19.5 37.2539 19.4 37.2539L19.2 37.3539Z" fill="#273340"/>
<path opacity="0.5" d="M19.7 37.6547C19.7 37.7547 19.8 37.7547 19.7 37.6547L20 37.5547C20 37.5547 20 37.5547 19.9 37.5547L19.7 37.6547Z" fill="black"/>
<path opacity="0.5" d="M19.5984 37.6547L19.8984 37.5547C19.8984 37.5547 19.8984 37.5547 19.7984 37.5547L19.5984 37.6547Z" fill="black"/>
<path opacity="0.5" d="M19.5008 37.5531L19.8008 37.4531C19.8008 37.4531 19.8008 37.4531 19.7008 37.4531L19.5008 37.5531Z" fill="black"/>
<path opacity="0.5" d="M19.3016 37.4535C19.3016 37.5535 19.4016 37.5535 19.3016 37.4535L19.6016 37.3535C19.6016 37.3535 19.6016 37.3535 19.5016 37.3535L19.3016 37.4535Z" fill="black"/>
<path opacity="0.5" d="M19.2 37.3539C19.2 37.4539 19.2 37.4539 19.2 37.3539L19.5 37.2539C19.5 37.2539 19.5 37.2539 19.4 37.2539L19.2 37.3539Z" fill="black"/>
<path opacity="0.5" d="M21.1008 38.3543C21.0008 38.3543 21.0008 38.3543 21.1008 38.3543C21.1008 38.4543 21.2008 38.4543 21.3008 38.4543V38.3543C21.2008 38.2543 21.1008 38.2543 21.1008 38.3543Z" fill="white"/>
<path opacity="0.5" d="M20.4992 37.9531C20.3992 37.9531 20.3992 38.0531 20.4992 37.9531C20.4992 38.0531 20.5992 38.0531 20.6992 38.0531V37.9531C20.5992 37.9531 20.4992 37.9531 20.4992 37.9531Z" fill="black"/>
</svg>
