<svg width="192" height="206" viewBox="0 0 192 206" fill="none" xmlns="http://www.w3.org/2000/svg">
<path d="M71.1063 66.5157C71.1063 66.5157 74.8614 65.9792 77.879 66.1133C81.0977 66.3145 82.5729 66.1133 83.5117 66.3145C84.4505 66.7168 84.8528 68.3932 83.3105 67.9909C81.0306 67.4545 80.4942 67.9909 79.7566 68.7285C79.2201 69.1309 81.433 70.0696 83.7129 71.0084C86.194 71.9472 87.1328 69.6673 87.8704 70.472C88.8092 71.0084 86.7304 75.1659 82.0365 75.3671C78.4825 75.5683 75.2638 74.026 72.9839 73.6907C69.2287 72.9531 66.01 71.6119 66.01 71.6119L71.1063 66.5157Z" fill="#FFC9B6"/>
<path d="M67.2843 62.3583C64.8032 61.956 62.188 61.8218 62.188 61.8218C62.188 61.8218 61.9868 60.8831 62.188 59.9443C62.3891 58.8043 59.9081 59.2066 59.9081 59.2066C59.9081 59.2066 57.6952 48.6117 57.6952 48.2094C57.2929 46.1307 56.7564 39.1568 52.1966 31.5794C47.6367 24.2032 43.4792 27.8243 43.4792 27.8243C43.4792 27.8243 46.4968 52.7692 49.112 61.8218C49.3131 61.6207 49.6484 61.2854 49.8496 61.0842C50.9896 64.5041 52.1295 70.1368 52.3307 70.338C54.9459 73.7579 59.5057 73.3555 62.5232 73.7579C66.4796 74.2943 72.3135 74.6967 72.3135 74.6967C72.3135 74.6967 71.5759 70.7403 71.777 69.0639C72.1794 65.6441 74.2581 65.3088 74.2581 65.3088C74.2581 65.3088 69.5642 62.7606 67.2843 62.3583Z" fill="#623B2A"/>
<path d="M51.794 157.51C51.794 157.51 51.5928 159.589 50.8552 161.667C50.3187 163.746 51.0563 166.764 51.0563 166.764C51.0563 166.764 51.4587 168.105 53.5374 168.44C55.415 168.842 56.9573 168.44 56.9573 168.44C56.9573 168.44 58.8349 170.72 61.1148 172.396C63.5959 174.073 68.8263 175.414 70.1674 175.213C72.4473 174.81 73.7214 173.134 73.5873 171.793C73.3861 170.653 70.7709 167.434 68.491 165.959C66.9487 165.02 63.797 162.003 62.8583 160.863C61.1818 159.186 60.0419 157.107 60.0419 157.107L51.794 157.51Z" fill="#2C2A29"/>
<path d="M48.6425 65.5762C48.6425 65.5762 55.4151 82.7426 56.3539 89.5823C57.4939 96.5562 59.5726 106.95 60.7126 115.667C62.0537 124.385 62.0537 132.834 61.2491 141.35C61.0479 144.77 59.7068 153.621 60.5114 158.315C59.7738 161.534 52.3976 161.869 51.66 158.114C51.1235 155.834 45.4238 135.851 44.8873 129.615C44.3509 123.379 45.8261 118.886 45.8261 118.886C45.8261 118.886 36.7735 99.6408 33.5548 91.8623C30.3361 84.1508 32.616 74.6958 32.616 74.6958L48.6425 65.5762Z" fill="url(#paint0_linear)"/>
<path d="M17.4613 175.078C17.4613 175.078 16.1202 179.638 16.3213 182.253C16.5225 184.868 17.059 185.472 17.8636 186.411C18.6013 187.349 19.5401 186.947 19.5401 186.947C19.5401 186.947 19.9424 192.446 22.5576 194.659C25.1728 196.938 29.9338 197.14 32.0125 196.335C34.0913 195.597 32.7502 191.641 30.6714 187.819C28.5927 184.064 25.7763 179.906 25.1728 176.285C20.1436 175.615 17.4613 175.078 17.4613 175.078Z" fill="#2C2A29"/>
<path d="M24.6363 72.5483C24.6363 72.5483 21.4176 77.2422 18.8024 85.356C16.9248 90.9888 17.2601 104.802 17.2601 104.802C17.2601 104.802 16.7237 118.415 17.6624 123.109C18.6012 127.803 18.4001 128.741 18.4001 128.741C18.4001 128.741 14.6449 140.074 15.1814 153.284C15.7178 166.494 16.8578 176.15 16.8578 176.15C16.8578 176.15 17.5954 178.631 21.0153 178.967C24.0328 179.369 26.5139 177.089 26.5139 177.089C26.5139 177.089 32.1466 148.993 34.2254 142.555C36.3041 136.118 37.0417 128.741 37.0417 128.741L41.4004 97.0238C41.4004 97.0238 44.0156 92.3299 45.5579 77.3763C42.9427 68.7931 24.6363 72.5483 24.6363 72.5483Z" fill="url(#paint1_linear)"/>
<path d="M31.4091 28.9638C33.0855 28.4273 40.1264 26.1474 40.864 26.4827C45.7591 28.9638 51.4589 38.5529 52.1965 45.1914C52.5989 47.8066 51.7942 54.9817 50.319 59.3403C51.9954 61.9555 50.5201 64.0343 50.5201 64.8389C50.319 66.1801 52.3977 72.014 53.0012 73.1539C53.94 75.635 54.1412 79.189 52.5989 81.0666C49.7825 84.8217 46.5638 85.9617 39.5899 86.9005C31.4761 88.0404 26.1787 82.2065 23.5635 78.7867C23.027 78.0491 20.5459 71.6116 22.4235 70.4717C21.0824 66.3142 19.6071 61.2179 18.266 56.1216C16.1873 48.5443 14.5109 41.3692 18.8025 35.7365C20.4789 33.2554 27.4527 30.1038 31.4091 28.9638Z" fill="#EDDCDA"/>
<path d="M30.4702 19.9102C30.4702 19.9102 37.1088 25.0064 39.3217 28.4263C41.4004 31.8462 42.3392 33.1203 41.1993 41.1C35.1642 39.0212 27.3856 35.2661 26.1116 31.1086C28.2574 29.7004 30.4702 19.9102 30.4702 19.9102Z" fill="#FFB9A4"/>
<path d="M45.6249 53.7069C45.0885 50.6893 44.0826 47.8729 43.5462 46.1295C43.345 45.7271 44.485 42.1732 44.485 42.1732L41.2662 41.0332L39.3887 43.3131C39.3887 43.3131 40.5286 45.9283 41.6686 46.5318C41.6686 49.9517 41.4674 55.9868 41.4674 61.6195C41.2662 70.4709 41.4674 76.9084 41.4674 76.9084C41.4674 76.9084 43.5462 79.9259 45.6249 81.267C47.1672 78.6518 47.7037 75.2319 47.7037 75.2319C47.7037 75.2319 46.5637 58.8031 45.6249 53.7069Z" fill="#E04E39"/>
<path d="M27.1172 31.5781C27.1172 31.5781 32.6158 34.0592 34.8287 35.9368C37.8462 38.4179 39.3885 39.1555 40.8637 40.6307C41.0649 40.2284 41.4002 33.2545 41.4002 33.2545C41.4002 33.2545 44.0154 33.6569 43.8813 33.6569C43.8813 33.6569 45.4236 34.998 45.96 37.8144C46.4965 40.6307 45.5577 43.8494 45.5577 43.8494L41.199 41.2342L38.3827 46.5317C38.3827 46.5317 32.7499 41.6366 30.0677 38.619C27.6536 35.7356 27.1172 31.5781 27.1172 31.5781Z" fill="white"/>
<path d="M43.5462 27.8242C43.5462 27.8242 47.9048 28.3607 50.1847 33.6581C52.6658 39.1567 53.4034 45.1918 53.4034 53.5068C53.4034 59.5419 53.8058 67.6557 54.9457 72.0144C55.8845 75.7695 60.7796 89.382 60.7796 89.382C60.7796 89.382 60.3773 95.0147 58.4997 97.2946C56.2198 100.111 53.6046 99.9098 53.6046 99.9098C53.6046 99.9098 50.5871 82.9445 50.1847 80.2623C49.7824 77.6471 48.8436 63.4311 49.0448 59.1395C49.246 54.982 46.966 41.0343 46.0272 37.8156C45.0885 34.7981 39.3887 28.3607 39.3887 28.3607L43.5462 27.8242Z" fill="url(#paint2_linear)"/>
<path d="M42.6075 32.1821C42.6075 32.1821 44.2839 34.2609 45.625 37.6807C46.9662 40.8994 47.3015 48.0745 47.7038 52.232C48.1061 56.3895 49.0449 60.5469 49.0449 60.5469C49.0449 60.5469 50.5872 55.9871 50.9225 52.9696C51.3248 49.9521 51.6601 47.471 51.6601 47.471L49.5814 45.7946L51.6601 40.8994C51.6601 40.8994 46.3627 29.3657 44.0827 28.8293C41.8028 28.1587 42.6075 32.1821 42.6075 32.1821Z" fill="#623B2A"/>
<path d="M47.0999 17.2266C46.6976 14.2091 45.5576 10.4539 43.1436 8.50931C40.6625 6.63174 36.7062 6.8329 33.6887 7.36935C29.1288 8.10697 26.3125 13.6056 27.8548 19.4395C29.1959 24.9381 33.6887 32.8508 39.9249 33.3872C43.1436 33.5884 45.2224 31.1073 46.3623 27.8886C47.5023 24.2005 47.3011 19.7077 47.0999 17.2266Z" fill="#FFC9B6"/>
<path d="M51.9954 9.31499C51.7942 6.29745 49.179 4.95633 47.1003 5.55983C47.6367 1.40234 42.4063 0.865888 40.6629 3.27992C39.5229 2.87758 38.0477 1 35.1643 1C31.7444 1 27.7881 2.13996 26.8493 6.63273C23.2953 8.17503 24.1 13.6737 25.0388 17.0265C25.7764 19.3064 28.5927 26.4814 28.7939 26.4814C30.135 25.1403 32.0126 19.7087 32.2138 19.1052C34.2925 19.3064 38.2489 17.7641 38.9865 16.8253C41.2664 17.9653 45.6251 19.6417 47.8379 18.1664C51.2578 16.2888 52.1966 12.1314 51.9954 9.31499Z" fill="#2C2A29"/>
<path d="M32.3479 20.8492C32.3479 20.8492 31.0068 18.5693 29.1292 20.1116C27.4528 21.6539 31.2079 25.4091 31.2079 25.4091L32.3479 20.8492Z" fill="#FFC9B6"/>
<path d="M46.1616 28.0227C46.1616 28.0227 45.4239 27.6203 43.144 28.2238C40.8641 28.6262 38.5842 30.5038 36.9078 29.9003C35.2314 29.3638 34.2926 28.2239 33.8902 27.0839C33.4879 25.5416 33.1526 23.1276 32.9515 20.6465C32.2138 21.0488 32.0127 21.7864 32.0127 22.5241C31.8115 25.0051 32.2138 28.0227 32.7503 29.4979C33.4879 31.7778 36.5054 34.5942 40.8641 35.533C44.6193 36.2706 45.4239 34.1919 45.9604 31.979C46.3627 29.6991 46.1616 29.1626 46.1616 28.0227Z" fill="#2C2A29"/>
<path d="M44.8203 30.1029C44.8203 30.1029 43.6804 30.1029 43.278 29.3652C42.5404 30.5052 40.9981 30.7064 40.4617 31.0416C40.9981 31.5781 41.8028 32.1816 43.278 31.7793C44.6192 31.3769 44.8203 30.1029 44.8203 30.1029Z" fill="#FFC9B6"/>
<path d="M26.1786 31.041C26.1786 31.041 32.4148 39.356 34.2924 50.6885C36.17 62.021 34.2924 73.6889 34.2924 82.0038C34.2924 90.1177 35.2312 106.345 35.2312 106.345C35.2312 106.345 27.6538 107.686 22.0211 106.546C15.986 105.205 12.365 100.914 12.365 100.914C12.365 100.914 15.919 82.205 18.6012 70.7384C19.7412 65.6421 16.7237 54.3096 14.6449 48.2745C13.5049 44.5193 12.7673 39.6242 15.7849 36.2044C18.0648 33.455 23.1611 32.5163 26.1786 31.041Z" fill="url(#paint3_linear)"/>
<path d="M3.7146 72.1469L12.7672 88.4416L35.9687 75.2315L26.9161 59.0039L25.2397 59.9427L3.7146 72.1469Z" fill="#FF9C7D"/>
<path d="M1.97144 73.1535L11.024 89.3811L34.2255 76.171L25.1729 59.9434L1.97144 73.1535Z" fill="#F49678"/>
<path d="M26.5137 59.1387L35.3652 74.964L34.4264 75.5004L25.575 59.6751L26.5137 59.1387Z" fill="white"/>
<path d="M26.3127 59.7409L29.3303 65.0383L32.7502 63.1607L29.9338 58.0645L26.3127 59.7409Z" fill="#EDDCDA"/>
<path d="M28.0564 63.6992L36.3714 64.1016L32.9515 72.2154L28.0564 63.6992Z" fill="#E04E39"/>
<path d="M22.1553 79.7239C22.1553 79.7239 24.6364 79.7239 26.514 80.4616C27.4528 79.7239 29.3304 78.7852 29.3304 78.7852C29.3304 78.7852 30.6715 82.5403 28.1904 85.4237C25.7093 88.0389 22.5577 86.5637 20.613 84.8873C18.6013 83.4791 22.1553 79.7239 22.1553 79.7239Z" fill="#FFC9B6"/>
<path d="M18.4001 34.2598C18.4001 34.2598 12.365 35.9362 9.14633 41.9712C6.12879 47.8052 2.17247 59.3389 1.03251 64.0328C-0.509787 70.4702 -0.107449 72.7501 0.83134 74.4265C2.70892 77.4441 5.39117 79.724 8.94516 81.8027C14.5779 85.2226 19.8753 86.1614 19.8753 86.1614C19.8753 86.1614 23.8317 85.4238 23.8317 78.9864C22.8929 78.0476 21.0153 78.2487 18.1989 75.4324C14.4438 72.0125 11.7615 69.1961 11.7615 69.1961C11.7615 69.1961 16.1202 62.9599 20.4789 56.1872C26.1786 42.5077 18.4001 34.2598 18.4001 34.2598Z" fill="#623B2A"/>
<path d="M27.1175 29.2988C27.1175 29.2988 23.3623 30.9752 23.1611 32.3164C23.6976 33.6575 25.2399 35.5351 25.9775 39.0891C26.7151 42.643 26.3798 46.4653 26.3798 46.4653L30.3362 48.3428L28.0562 52.2992L35.0301 61.3518C35.0301 61.3518 36.1701 49.4828 33.3537 40.7655C30.6714 32.3164 27.1175 29.2988 27.1175 29.2988Z" fill="#623B2A"/>
<path d="M76.3367 65.9766C77.4767 65.9766 78.4155 65.4401 79.3543 65.5743C80.8966 65.7754 81.9695 65.9766 83.1094 66.1107C84.2494 66.3119 84.2494 68.3906 82.3718 68.3906C79.3543 68.1895 78.9519 69.5306 77.2755 69.3294C76.0015 69.1282 76.3367 65.9766 76.3367 65.9766Z" fill="#FFC9B6"/>
<path d="M143.074 164.342C143.074 164.342 143.287 166.544 144.068 168.745C144.636 170.947 143.855 174.143 143.855 174.143C143.855 174.143 143.429 175.563 141.227 175.918C139.239 176.344 137.605 175.918 137.605 175.918C137.605 175.918 135.617 178.333 133.202 180.108C130.574 181.884 125.035 183.304 123.615 183.091C121.2 182.665 119.851 180.89 119.993 179.469C120.206 178.262 122.975 174.853 125.39 173.291C127.024 172.296 130.361 169.1 131.356 167.893C133.131 166.118 134.338 163.916 134.338 163.916L143.074 164.342Z" fill="#2C2A29"/>
<path d="M146.483 66.9746C146.483 66.9746 139.31 85.1555 138.316 92.3994C137.108 99.7854 134.907 110.793 133.699 120.026C132.279 129.258 132.279 138.207 133.131 147.226C133.344 150.848 134.765 160.223 133.912 165.194C134.694 168.603 142.506 168.958 143.287 164.981C143.855 162.566 149.892 141.402 150.46 134.798C151.028 128.193 149.466 123.435 149.466 123.435C149.466 123.435 159.053 103.052 162.462 94.8141C165.871 86.6469 163.456 76.6332 163.456 76.6332L146.483 66.9746Z" fill="url(#paint4_linear)"/>
<path d="M179.507 182.877C179.507 182.877 180.927 187.706 180.714 190.476C180.501 193.246 179.933 193.885 179.081 194.879C178.299 195.873 177.305 195.447 177.305 195.447C177.305 195.447 176.879 201.271 174.109 203.615C171.34 206.029 166.297 206.242 164.096 205.39C161.894 204.609 163.314 200.419 165.516 196.371C167.718 192.393 170.7 187.99 171.34 184.155C176.666 183.516 179.507 182.877 179.507 182.877Z" fill="#2C2A29"/>
<path d="M171.908 74.3616C171.908 74.3616 175.316 79.333 178.086 87.9263C180.075 93.8918 179.72 108.522 179.72 108.522C179.72 108.522 180.288 122.939 179.294 127.91C178.299 132.881 178.512 133.876 178.512 133.876C178.512 133.876 182.489 145.878 181.921 159.868C181.353 173.859 180.146 184.086 180.146 184.086C180.146 184.086 179.365 186.714 175.743 187.069C172.547 187.495 169.919 185.08 169.919 185.08C169.919 185.08 163.953 155.323 161.752 148.505C159.55 141.688 158.769 133.876 158.769 133.876L154.153 100.284C154.153 100.284 151.383 95.3122 149.75 79.475C152.519 70.3135 171.908 74.3616 171.908 74.3616Z" fill="url(#paint5_linear)"/>
<path d="M110.476 61.5781C114.098 57.388 124.467 53.4109 125.887 51.7775C125.887 51.7775 129.296 46.167 130.717 42.9711C131.711 40.5565 132.918 33.9517 135.333 29.9746C137.961 25.3584 140.73 24.1511 144.92 22.8017C146.128 22.3756 147.122 22.3756 148.116 23.3699C149.324 24.7903 149.111 26.9918 149.111 28.5543C149.111 31.182 149.111 33.9517 149.111 36.5794C149.111 39.7753 144.139 47.5873 143.145 49.0077C141.938 50.6412 138.742 56.3937 137.321 57.8141C136.327 59.0214 131.143 62.9985 129.509 63.9927C128.089 64.987 119.496 69.3902 112.891 70.3844C110.902 70.7395 105.931 66.9755 110.476 61.5781Z" fill="url(#paint6_linear)"/>
<path d="M145.915 26.3515C151.525 23.9368 160.9 28.1269 160.687 27.7718C160.474 27.5588 168.499 32.175 168.499 32.175C174.109 34.3766 179.862 35.797 183.271 43.396C184.904 47.018 179.081 54.9721 176.666 65.767C175.672 70.5963 175.459 77.5561 177.234 80.752C178.441 82.9536 181.211 86.3625 173.257 88.9192C170.842 89.7004 160.048 93.8905 153.656 92.6832C150.673 92.115 135.475 84.3029 139.736 81.3201C140.943 80.5389 141.441 78.9055 140.659 77.5561C140.091 76.3488 140.091 74.1472 140.659 71.7326C141.867 65.767 140.872 63.5654 140.091 58.9492C141.867 53.0546 136.682 49.7877 139.31 42.7568C140.872 37.9275 140.304 28.7661 145.915 26.3515Z" fill="#EDDCDA"/>
<path d="M168.499 32.1756C168.499 32.1756 164.735 34.8033 162.107 38.1412C159.479 41.5501 157.278 44.7459 154.295 46.7345C151.525 48.723 148.329 45.3141 146.909 39.7036C145.489 34.0931 152.306 24.9316 152.306 24.9316C152.306 24.9316 164.877 29.1218 168.499 32.1756Z" fill="#CCBCBC"/>
<path d="M155.715 19.1797C155.715 19.1797 157.704 15.9838 159.479 18.3984C162.249 22.0204 158.272 23.7959 158.272 23.7959L155.715 19.1797Z" fill="#FFC9B6"/>
<path d="M145.275 27.1328C145.275 27.1328 147.264 29.3344 148.258 29.7605C146.838 31.536 144.281 30.9678 143.642 29.1924C144.281 28.1271 145.275 27.1328 145.275 27.1328Z" fill="#FFC9B6"/>
<path d="M150.46 68.1094C150.46 68.1094 154.65 69.7428 159.053 71.7313C163.457 73.7199 165.445 75.1402 165.445 75.1402C165.445 75.1402 161.823 75.1403 156.426 72.7256C151.099 70.1689 150.46 68.1094 150.46 68.1094Z" fill="#CCBCBC"/>
<path d="M148.116 58.5234C148.116 58.5234 156.709 62.1454 160.687 64.1339C164.877 66.1225 166.652 67.898 166.652 67.898C166.652 67.898 162.462 67.1167 155.857 64.489C149.252 62.3585 148.116 58.5234 148.116 58.5234Z" fill="#CCBCBC"/>
<path d="M168.925 32.2461C168.925 32.2461 162.32 41.0524 160.332 53.0547C158.343 65.0569 160.332 77.4142 160.332 86.2205C160.332 94.8138 159.337 112 159.337 112C159.337 112 167.363 113.421 173.328 112.213C179.72 110.793 183.555 106.248 183.555 106.248C183.555 106.248 179.791 86.4336 176.95 74.2893C175.743 68.8919 178.939 56.8897 181.14 50.498C182.348 46.5209 183.129 41.3365 179.933 37.7146C177.518 34.8028 172.121 33.8085 168.925 32.2461Z" fill="url(#paint7_linear)"/>
<path d="M175.885 35.3711C175.885 35.3711 184.052 36.5784 187.248 44.7456C190.444 52.7707 188.029 56.1086 189.875 61.5061C191.509 66.9035 190.87 68.1108 191.296 72.514C191.722 76.9172 190.088 76.4911 188.526 77.9115C187.106 78.9057 188.1 80.6812 177.731 85.5105C171.126 88.4933 161.539 88.4933 161.539 88.4933L161.965 81.3204C161.965 81.3204 164.167 80.1131 168.783 75.7099C174.18 70.8806 179.152 70.3124 179.152 70.3124C179.152 70.3124 175.175 63.1395 172.334 57.529C169.706 51.5634 173.896 38.78 175.885 35.3711Z" fill="url(#paint8_linear)"/>
<path d="M164.308 79.3311C164.308 79.3311 166.936 78.5499 168.499 81.9588C169.493 84.5865 168.925 86.7881 167.93 87.7823C166.51 87.7823 164.308 88.2084 162.959 89.4158C159.763 91.8304 155.786 96.4466 152.945 97.796C148.755 99.7845 147.761 97.2279 147.335 94.6002C146.909 92.1855 149.11 90.197 150.957 88.7766C152.945 87.1432 154.153 86.0069 153.585 85.3677C153.158 85.1546 150.815 86.1489 149.181 85.3677C147.548 84.5865 148.187 83.3792 150.957 83.1661C152.377 82.953 152.945 82.1718 155.786 81.7457C157.775 81.5327 158.556 82.5269 159.195 82.1718C160.9 81.1065 163.101 80.1123 164.308 79.3311Z" fill="#FFC9B6"/>
<path d="M110.027 62.2217C110.027 62.2217 112.655 61.4405 114.217 64.8494C115.212 67.4771 114.643 69.6787 113.649 70.673C112.229 70.673 110.027 71.0991 108.678 72.3064C105.482 74.721 101.505 79.3373 98.6641 80.6866C94.474 82.6752 93.4797 80.1185 93.0536 77.4908C92.6275 75.0761 94.8291 73.0876 96.6756 71.6672C98.6641 70.0338 99.8715 68.8975 99.3033 68.2583C98.8772 68.0453 96.5336 69.0395 94.9001 68.2583C93.2667 67.4771 93.9059 66.2698 96.6756 66.0567C98.096 65.8437 98.6641 65.0625 101.505 64.6363C103.493 64.4233 104.275 65.4176 104.914 65.0625C106.618 63.9972 108.82 63.0029 110.027 62.2217Z" fill="#FFC9B6"/>
<path d="M148.755 24.9316C148.755 24.9316 144.139 25.4998 141.724 31.1103C139.097 36.9338 138.315 43.3255 138.315 52.1319C138.315 58.5236 137.889 67.1169 136.682 71.7331C135.688 75.7102 130.503 90.1271 130.503 90.1271C130.503 90.1271 130.93 96.0927 132.918 98.5073C135.333 101.49 138.102 101.277 138.102 101.277C138.102 101.277 141.298 83.3092 141.724 80.4685C142.151 77.6987 143.145 62.6427 142.932 58.0975C142.719 53.6943 145.133 38.9224 146.128 35.5135C147.122 32.3176 153.158 25.4998 153.158 25.4998L148.755 24.9316Z" fill="url(#paint9_linear)"/>
<path d="M150.673 23.3696C150.886 23.1566 151.454 23.3696 151.667 23.3696C154.082 23.3696 153.301 25.1451 156.284 23.3696C157.704 22.5884 158.059 21.3811 159.266 20.955C159.053 20.5289 159.053 20.1738 158.84 19.7477C158.84 19.5346 159.053 19.5346 159.266 19.7477C159.479 20.1738 159.693 20.5289 159.693 20.955C159.906 20.955 159.906 20.955 160.119 20.955C160.545 20.955 160.545 21.3811 160.332 21.5232L160.119 21.7362C161.894 26.1394 162.107 27.3467 164.735 31.5368C163.528 31.5368 160.971 34.9457 158.911 38.7097C158.13 40.3432 154.295 44.1072 151.88 43.326C148.258 41.9056 150.105 38.9228 149.892 34.9457C149.892 32.176 149.679 29.1222 149.679 26.3525C150.105 25.3582 149.892 23.9378 150.673 23.3696Z" fill="#FFB9A4"/>
<path d="M143.287 12.1474C146.27 8.38342 153.087 7.53119 157.278 10.1589C158.272 10.585 159.266 10.9401 159.905 11.5793C162.675 13.9939 162.32 18.3971 161.539 21.5929C160.331 26.4222 153.371 37.5722 146.909 33.3821C143.5 31.1805 141.298 25.57 140.73 21.806C140.517 18.3261 141.085 14.9882 143.287 12.1474Z" fill="#FFC9B6"/>
<path d="M142.08 26.5646C142.861 24.5761 145.702 24.5761 147.69 25.7834C148.897 26.5646 150.46 28.9793 151.667 29.5474C153.656 30.7548 155.076 28.1271 154.65 26.7777C154.65 25.5704 154.437 23.5818 154.65 22.5876C154.65 21.3803 156.07 20.8121 156.425 21.8064C157.207 24.221 158.201 27.4169 157.846 29.6184C157.278 32.3882 155.076 34.8028 152.448 36.2232C149.039 37.8567 144.636 36.6493 143.074 33.2404C142.08 30.9678 141.511 27.985 142.08 26.5646Z" fill="#382323"/>
<path d="M138.884 4.97474C141.085 2.205 146.483 -1.41697 150.105 0.571562C151.312 1.13971 152.093 2.5601 151.88 3.98048C155.289 3.41232 161.681 5.61391 163.101 8.59671C165.729 13.568 163.883 22.3744 161.468 25.0021C159.053 22.8005 155.289 18.3973 154.295 14.2072C150.318 16.1957 144.92 16.4088 140.872 13.9941C137.89 12.1477 136.469 8.17059 138.884 4.97474Z" fill="#382323"/>
<defs>
<linearGradient id="paint0_linear" x1="48.5861" y1="154.805" x2="45.2474" y2="63.6035" gradientUnits="userSpaceOnUse">
<stop offset="0.00505051" stop-color="#C39367"/>
<stop offset="1" stop-color="#704232"/>
</linearGradient>
<linearGradient id="paint1_linear" x1="32.6208" y1="172.335" x2="28.6075" y2="69.5488" gradientUnits="userSpaceOnUse">
<stop offset="0.00505051" stop-color="#C39367"/>
<stop offset="1" stop-color="#704232"/>
</linearGradient>
<linearGradient id="paint2_linear" x1="51.455" y1="95.3943" x2="48.7636" y2="26.3303" gradientUnits="userSpaceOnUse">
<stop offset="0.00505051" stop-color="#C39367"/>
<stop offset="1" stop-color="#704232"/>
</linearGradient>
<linearGradient id="paint3_linear" x1="24.572" y1="102.242" x2="21.7826" y2="29.4842" gradientUnits="userSpaceOnUse">
<stop offset="0.00505051" stop-color="#C39367"/>
<stop offset="1" stop-color="#704232"/>
</linearGradient>
<linearGradient id="paint4_linear" x1="146.529" y1="161.45" x2="150.065" y2="64.8595" gradientUnits="userSpaceOnUse">
<stop offset="0.00505051" stop-color="#C39367"/>
<stop offset="1" stop-color="#704232"/>
</linearGradient>
<linearGradient id="paint5_linear" x1="163.437" y1="180.02" x2="167.688" y2="71.1592" gradientUnits="userSpaceOnUse">
<stop offset="0.00505051" stop-color="#C39367"/>
<stop offset="1" stop-color="#704232"/>
</linearGradient>
<linearGradient id="paint6_linear" x1="149.099" y1="46.4404" x2="108.61" y2="46.4404" gradientUnits="userSpaceOnUse">
<stop offset="0.00505051" stop-color="#C39367"/>
<stop offset="1" stop-color="#704232"/>
</linearGradient>
<linearGradient id="paint7_linear" x1="170.629" y1="107.651" x2="173.583" y2="30.5931" gradientUnits="userSpaceOnUse">
<stop offset="0.00505051" stop-color="#C39367"/>
<stop offset="1" stop-color="#704232"/>
</linearGradient>
<linearGradient id="paint8_linear" x1="191.337" y1="61.945" x2="161.484" y2="61.945" gradientUnits="userSpaceOnUse">
<stop offset="0.00505051" stop-color="#C39367"/>
<stop offset="1" stop-color="#704232"/>
</linearGradient>
<linearGradient id="paint9_linear" x1="140.341" y1="96.5296" x2="143.192" y2="23.3844" gradientUnits="userSpaceOnUse">
<stop offset="0.00505051" stop-color="#C39367"/>
<stop offset="1" stop-color="#704232"/>
</linearGradient>
</defs>
</svg>
