<svg width="96" height="118" viewBox="0 0 96 118" fill="none" xmlns="http://www.w3.org/2000/svg">
<path d="M71.6755 13.5964L47.3938 62.1027C47.103 62.6836 47.1389 63.7004 47.5018 64.2453L63.1789 87.8942C63.3967 88.1848 63.6145 88.2939 63.8687 88.3303C64.0503 88.3304 64.3046 88.1852 64.4863 87.8222L88.7681 39.316C89.0952 38.6624 89.023 37.7182 88.6601 37.1733L72.9829 13.5244C72.5474 12.9432 72.0027 12.9429 71.6755 13.5964Z" fill="#1D1D1B"/>
<path d="M61.3622 88.4373L63.7954 88.2932L72.3651 13.1239L69.9318 13.268L61.3622 88.4373Z" fill="#1D1D1B"/>
<path d="M69.2404 13.7402L44.9586 62.2464C44.6678 62.8273 44.7037 63.8442 45.0666 64.3891L60.7437 88.038C60.9615 88.3286 61.1793 88.4376 61.4335 88.4741C61.6151 88.4742 61.7968 88.2927 61.9785 87.9296L86.2603 39.4234C86.5874 38.7699 86.5152 37.8256 86.1523 37.2807L70.5477 13.6682C70.1122 13.0869 69.5675 13.0867 69.2404 13.7402Z" fill="#4A4A49"/>
<path d="M69.2038 16.8998L47.3576 60.5409L48.4463 62.1756L48.5914 62.4299L49.8252 64.3189L62.5629 83.6811L84.4092 40.0401L80.1996 33.5739L77.1513 28.9604L69.2038 16.8998Z" fill="#6FDCED"/>
<path opacity="0.5" d="M69.3124 18.4979L74.7558 26.8531L65.5811 75.8385L62.4914 82.0107L57.0842 73.7645L66.0409 25.0332L69.3124 18.4979Z" fill="white"/>
<path opacity="0.5" d="M63.1677 30.7692L55.5585 71.548L53.5263 68.3513L58.9147 39.265L63.1677 30.7692Z" fill="white"/>
<path opacity="0.5" d="M52.6554 69.911L56.5384 75.7597C56.6836 76.0139 56.756 76.4134 56.6106 76.7039L55.8109 78.3014C55.6655 78.5919 55.4839 78.5918 55.2662 78.3012L51.3832 72.4525C51.238 72.1982 51.1656 71.7987 51.311 71.5083L52.1107 69.9108C52.2923 69.7293 52.4739 69.7293 52.6554 69.911Z" fill="black"/>
<path d="M56.3937 76.0508C56.5026 76.1961 56.5025 76.3777 56.4298 76.5229L55.6301 78.1204C55.5574 78.2657 55.4848 78.2293 55.3396 78.1566L51.4565 72.308C51.3477 72.1627 51.3477 71.9811 51.4204 71.8359L52.2565 70.1657C52.3292 70.0205 52.4018 70.0569 52.547 70.1296L56.3937 76.0508Z" fill="#1D1D1B"/>
<path d="M78.748 27.762C78.7843 27.6894 78.8933 27.6531 78.9296 27.7621C78.9658 27.871 78.9657 28.0526 78.9294 28.1252L78.2024 29.5775C78.166 29.6501 78.0571 29.6864 78.0208 29.5774C77.9845 29.4685 77.9846 29.2869 78.021 29.2143L78.748 27.762Z" fill="#273340"/>
<path d="M78.2402 26.9632C78.2765 26.8905 78.3855 26.8543 78.4217 26.9632C78.458 27.0722 78.4579 27.2538 78.4216 27.3264L77.6582 28.8513C77.6219 28.9239 77.5129 28.9602 77.4766 28.8512C77.4404 28.7422 77.4405 28.5607 77.4768 28.488L78.2402 26.9632Z" fill="#273340"/>
<path d="M77.7324 26.1643C77.7687 26.0917 77.8777 26.0554 77.9139 26.1644C77.9502 26.2734 77.9501 26.455 77.9138 26.5276L77.1504 28.0525C77.1141 28.1251 77.0051 28.1613 76.9688 28.0524C76.9326 27.9434 76.9327 27.7618 76.969 27.6892L77.7324 26.1643Z" fill="#273340"/>
<path d="M77.2597 25.4729C77.296 25.4003 77.405 25.364 77.4413 25.473C77.4775 25.582 77.4775 25.7635 77.4411 25.8362L76.6778 27.3611C76.6414 27.4337 76.5324 27.4699 76.4962 27.361C76.4599 27.252 76.46 27.0704 76.4964 26.9978L77.2597 25.4729Z" fill="#273340"/>
<path d="M76.7519 24.6741C76.7882 24.6015 76.8972 24.5652 76.9335 24.6742C76.9697 24.7831 76.9696 24.9647 76.9333 25.0373L76.1699 26.5622C76.1336 26.6348 76.0246 26.6711 75.9884 26.5621C75.9521 26.4532 75.9522 26.2716 75.9885 26.199L76.7519 24.6741Z" fill="#273340"/>
<path opacity="0.5" d="M78.748 27.762C78.7843 27.6894 78.8933 27.6531 78.9296 27.7621C78.9658 27.871 78.9657 28.0526 78.9294 28.1252L78.2024 29.5775C78.166 29.6501 78.0571 29.6864 78.0208 29.5774C77.9845 29.4685 77.9846 29.2869 78.021 29.2143L78.748 27.762Z" fill="black"/>
<path opacity="0.5" d="M78.2402 26.9632C78.2765 26.8905 78.3855 26.8543 78.4217 26.9632C78.458 27.0722 78.4579 27.2538 78.4216 27.3264L77.6582 28.8513C77.6219 28.9239 77.5129 28.9602 77.4766 28.8512C77.4404 28.7422 77.4405 28.5607 77.4768 28.488L78.2402 26.9632Z" fill="black"/>
<path opacity="0.5" d="M77.7324 26.1643C77.7687 26.0917 77.8777 26.0554 77.9139 26.1644C77.9502 26.2734 77.9501 26.455 77.9138 26.5276L77.1504 28.0525C77.1141 28.1251 77.0051 28.1613 76.9688 28.0524C76.9326 27.9434 76.9327 27.7618 76.969 27.6892L77.7324 26.1643Z" fill="black"/>
<path opacity="0.5" d="M77.2597 25.4729C77.296 25.4003 77.405 25.364 77.4413 25.473C77.4775 25.582 77.4775 25.7635 77.4411 25.8362L76.6778 27.3611C76.6414 27.4337 76.5324 27.4699 76.4962 27.361C76.4599 27.252 76.46 27.0704 76.4964 26.9978L77.2597 25.4729Z" fill="black"/>
<path opacity="0.5" d="M76.7519 24.6741C76.7882 24.6015 76.8972 24.5652 76.9335 24.6742C76.9697 24.7831 76.9696 24.9647 76.9333 25.0373L76.1699 26.5622C76.1336 26.6348 76.0246 26.6711 75.9884 26.5621C75.9521 26.4532 75.9522 26.2716 75.9885 26.199L76.7519 24.6741Z" fill="black"/>
<path d="M82.8153 35.2468C82.9607 34.9564 83.2149 34.9928 83.36 35.2471C83.5051 35.5014 83.5412 35.9735 83.4322 36.1913C83.2868 36.4818 83.0326 36.4454 82.8874 36.1911C82.7423 35.9368 82.6699 35.5373 82.8153 35.2468Z" fill="#1D1D1B"/>
<path opacity="0.5" d="M80.6004 31.8679C80.7458 31.5775 81 31.6139 81.1452 31.8682C81.2903 32.1225 81.3264 32.5946 81.2173 32.8124C81.0719 33.1029 80.8177 33.0664 80.6726 32.8122C80.4548 32.5215 80.455 32.1584 80.6004 31.8679Z" fill="black"/>
<path d="M20.8089 70.5905L24.771 62.6755L27.4244 57.7379L33.0164 59.0842C36.2481 59.8846 38.5744 55.4189 33.9994 53.8552C30.7678 52.6916 29.3881 52.1825 27.2097 51.092C25.7574 50.365 23.3237 51.417 22.0151 54.0311C19.8704 58.4969 16.2359 64.6689 16.4172 65.3953C16.6346 66.4122 20.8089 70.5905 20.8089 70.5905Z" fill="#FFBB7D"/>
<path opacity="0.15" d="M23.4548 74.9119L27.4169 66.9969L30.0703 62.0593L35.6623 63.4056C38.894 64.2061 41.2929 59.7767 36.6453 58.1766C33.4137 57.013 32.2525 55.1603 30.0377 54.1425C28.5854 53.4155 27.3508 53.1607 26.1149 55.8111C23.9701 60.2769 23.8588 65.3974 24.04 66.1238C24.1848 67.1044 23.4548 74.9119 23.4548 74.9119Z" fill="#1D1D1B"/>
<path d="M17.4545 99.6046C18.3625 99.4234 19.2343 98.9517 20.1062 98.1169L26.2473 90.203L27.3375 88.7509L36.64 76.6985L20.816 56.2453C17.4722 62.0179 14.1281 68.6984 11.4736 75.9966L5.07693 86.7793C3.87669 90.6282 11.2075 101.2 17.4545 99.6046Z" fill="#FFBB7D"/>
<path d="M26.7651 72.3002L32.1075 63.6232L35.5601 58.1775L41.8054 60.2141C44.5279 62.7575 48.5981 56.6221 43.4061 54.2955C39.7753 52.6595 37.8511 51.6055 35.2005 50.7327C32.1504 49.7507 30.8792 50.1132 29.1347 53.054C26.2271 57.9552 21.9385 65.0711 22.156 65.9064C22.3733 67.1049 26.7651 72.3002 26.7651 72.3002Z" fill="#FFBB7D"/>
<path opacity="0.15" d="M30.1792 62.2048C30.6162 59.6993 33.0158 53.8173 35.3767 52.9105C37.7014 51.8948 41.477 54.5113 45.3987 55.3847C45.3987 55.3847 42.0176 63.2273 41.7633 63.3724C41.509 63.5176 30.1792 62.2048 30.1792 62.2048Z" fill="#1D1D1B"/>
<path d="M30.863 75.1703L36.2055 66.4933L39.6943 61.1566L48.2295 59.1633C52.9148 57.7855 55.4593 52.7025 49.8301 53.2446C44.7094 53.6779 42.6032 53.5317 40.0611 53.5305C38.1727 53.4933 35.6306 53.4921 33.8861 56.4328C30.9785 61.3341 26.1817 68.0139 26.3628 68.9218C26.5439 70.0114 30.863 75.1703 30.863 75.1703Z" fill="#FFBB7D"/>
<path opacity="0.15" d="M34.3176 67.7274C34.0273 67.2188 39.1885 57.9971 39.1885 57.9971L53.0625 54.9531C53.0625 54.9531 42.8901 63.4825 42.7084 63.664C42.5268 63.8455 34.3176 67.7274 34.3176 67.7274Z" fill="#1D1D1B"/>
<path d="M35.3672 79.2399L46.124 63.5567L55.2057 57.5689C56.8043 56.1896 57.7855 54.5922 57.6049 52.5948C57.351 52.0136 56.9517 51.5413 56.4434 51.2869C55.7173 50.9234 54.773 50.9955 53.4291 51.5033L40.4607 59.4503C40.4607 59.4503 29.1239 72.8454 29.2323 74.0802C29.3045 74.8429 32.1361 76.9869 33.9513 78.2588C34.75 78.8402 35.3672 79.2399 35.3672 79.2399Z" fill="#FFBB7D"/>
<path opacity="0.15" d="M35.3672 79.2399L46.124 63.5567L55.2057 57.5689C56.8043 56.1896 57.7855 54.5922 57.6049 52.5948C57.351 52.0136 56.9517 51.5413 56.4434 51.2869C58.9836 55.2828 51.1378 58.8017 44.4903 62.4664L33.8424 78.295C34.75 78.8402 35.3672 79.2399 35.3672 79.2399Z" fill="#1D1D1B"/>
<path d="M23.884 90.5646C24.683 90.4197 25.4457 90.3474 26.2447 90.2025C30.3486 89.6234 34.525 89.4438 38.1213 87.3392C40.9183 85.7426 42.9532 83.1289 45.2422 80.9147C47.6764 78.5917 50.3647 76.6682 53.4159 75.1081C54.542 74.4912 55.8133 73.9471 56.2497 72.7126C56.4679 72.0953 56.4318 71.4416 56.1779 70.8604C55.8515 70.0613 55.1618 69.2621 54.3267 68.9348C52.9107 68.3168 51.2764 68.4976 49.7509 69.0053C44.9565 70.6009 41.3592 75.0661 36.5647 76.6617C36.2015 76.8431 35.802 76.9155 35.4025 76.988C33.8771 77.3141 32.2065 77.3859 30.681 77.8936C28.2838 78.6915 26.4307 80.7606 25.4128 83.1569C24.613 84.936 24.1763 86.8968 23.9575 88.7851C24.0299 89.3662 23.9206 89.9472 23.884 90.5646Z" fill="#FFBB7D"/>
<path opacity="0.15" d="M17.454 99.6047C18.362 99.4236 19.2338 98.9519 20.1058 98.117L26.2468 90.2031C30.3508 89.624 34.5272 89.4444 38.1234 87.3398C40.9205 85.7432 42.9554 83.1295 45.2443 80.9153C47.6785 78.5922 50.3668 76.6688 53.4181 75.1087C54.5441 74.4918 55.8154 73.9477 56.2518 72.7132C56.47 72.0959 56.434 71.4422 56.1801 70.861C55.416 73.8385 51.0942 74.3086 48.515 76.0142C45.5362 77.9739 43.3559 80.8781 40.6311 83.2373C36.8528 86.4313 32.1672 88.3538 27.3007 88.6421C26.2475 88.7505 25.1581 88.75 24.0323 88.6405C23.1608 88.5675 22.2892 88.4944 21.4541 88.3488C22.1436 89.3296 22.143 90.6007 21.8519 91.7263C21.5609 92.852 20.943 93.9048 20.2889 94.8487C19.3439 96.5551 18.399 98.0799 17.454 99.6047Z" fill="#1D1D1B"/>
<g clip-path="url(#clip0)">
<path d="M39.4316 13.6825C36.3877 19.7631 39.4698 27.4566 46.2658 30.8587C48.2331 31.8435 50.3348 32.3364 52.3025 32.4268C53.0627 32.4719 55.1611 39.8966 55.1611 39.8966C55.1611 39.8966 55.8356 32.0707 56.4618 31.9368C59.6821 31.0886 62.4111 28.988 63.9331 25.9477C67.0664 19.9118 63.9843 12.2182 57.2777 8.86097C50.4816 5.45894 42.4755 7.60178 39.4316 13.6825Z" fill="#EEE2D6"/>
<path d="M51.9984 11.5873C52.5798 11.5429 53.2952 11.901 53.6975 12.2142C54.7258 12.8408 53.2926 17.2675 52.0405 17.0881C51.6381 16.9984 51.3251 16.9536 50.9674 16.7745C50.7879 18.0266 50.6532 19.1893 50.6973 20.4415C50.7414 21.6938 50.8303 22.8565 51.0981 24.1089C51.4112 23.9301 51.769 23.8856 52.1716 23.7516C53.4239 23.4839 54.987 27.9567 53.8687 28.627C53.3766 28.9399 52.7503 29.2973 52.1243 29.2076C50.872 29.2517 49.7992 28.2673 49.4867 27.1044C48.8616 25.0022 48.505 22.5871 48.4612 20.4405C48.4623 18.2044 48.7765 15.7896 49.3588 13.7327C49.7172 12.5701 50.7462 11.6314 51.9984 11.5873Z" fill="#E04E39"/>
</g>
<defs>
<clipPath id="clip0">
<rect width="27.5" height="28.8" fill="white" transform="translate(44.9375 2.68359) rotate(26.5921)"/>
</clipPath>
</defs>
</svg>
