<svg width="49" height="126" viewBox="0 0 49 126" fill="none" xmlns="http://www.w3.org/2000/svg">
<g clip-path="url(#clip0)">
<path d="M15.0019 110.5L13.9019 116.2C13.0019 117.7 11.5019 118.9 9.60185 119.6C7.30185 120 5.70185 120.6 5.00185 121.8C4.60185 122.6 4.80185 123.5 5.30185 124.2C6.00185 125.2 7.00185 125.8 9.20185 125.8C13.4019 125.5 19.2019 124.6 20.6019 123.2C21.0019 121.6 21.3019 119.9 20.9019 118.1L22.3019 112.1L15.0019 110.5Z" fill="#1D1D1B"/>
<path d="M26.6 22.5002L20.7 41.4002C19.1 45.1002 19.5 51.0002 12.5 53.5002C10.8 54.1002 7.90001 50.4002 9.30001 48.1002C9.30001 48.1002 13.3 40.3002 15.4 37.2002L17.7 20.7002C19.5 11.8002 29.9 15.1002 26.6 22.5002Z" fill="#623B2A"/>
<path opacity="0.2" d="M11.6992 52.8V49.8C14.6992 48 16.0992 44.6 16.9992 41.2L16.8992 29.5L18.4992 50.7L11.6992 52.8Z" fill="#1D1D1B"/>
<path d="M36.7981 99.5008L39.6981 103.701L38.5981 108.401C36.4981 110.201 35.5981 111.501 36.1981 112.701C37.3981 114.001 39.1981 114.101 41.1981 113.801C44.6981 113.601 47.1981 106.801 48.2981 103.201C47.5981 101.601 46.6981 100.601 45.5981 99.9008L42.5981 95.3008L36.7981 99.5008Z" fill="#1D1D1B"/>
<path d="M18.1992 56.1992L22.7992 82.0992L39.6992 103.699C40.7992 104.599 47.2992 103.199 46.1992 99.5992L33.2992 75.9992L30.9992 56.4992L20.7992 53.1992L18.1992 56.1992Z" fill="#4D7A91"/>
<path d="M36.1 71.6995L28.6 89.1995C25.4 106.8 22.9 114.4 21.6 119C21 121.1 13 120.2 13 116.6L17.6 85.0995L24.4 64.9995C20.4 63.2995 18.1 60.4995 18 53.2995C18.5 43.7995 37 52.8995 38.7 58.4995C40 63.2995 38.4 68.8995 36.1 71.6995Z" fill="#5B90AB"/>
<path d="M38.6007 56.5C38.6007 56.5 38.7007 58.5 38.6007 59.2C32.2007 63.7 18.9007 58.2 17.7007 53.9C17.7007 53 17.6007 52.1 17.7007 51C21.7007 56.4 33.8007 59.2 38.6007 56.5Z" fill="black"/>
<path d="M21.7031 57.3012C22.4031 57.9012 23.3031 58.2012 24.4031 58.6012V57.0012C23.4031 56.6012 22.5031 56.2012 21.7031 55.7012V57.3012Z" fill="#575756"/>
<path d="M17.7013 51.8004C21.1013 56.5004 32.9013 60.9004 38.6013 56.7004C39.8013 55.8004 39.4013 54.7004 39.8013 52.1004C40.1013 49.3004 40.4013 46.8004 40.6013 44.5004C41.4013 35.4004 40.4013 30.0004 40.3013 27.0004C40.3013 26.4004 39.5013 26.8004 39.5013 26.4004C37.2013 23.7004 35.0013 19.5004 31.7013 17.4004C27.1013 15.3004 26.8013 15.5004 24.5013 14.6004C15.4013 11.3004 16.6013 50.3004 17.7013 51.8004Z" fill="#F6F6F6"/>
<path d="M42.1 69.5996C41.6 69.7996 41.1 69.9996 40.6 70.1996C39.9 70.4996 39.2 70.6996 38.5 70.8996C36.2 71.5996 34.1 71.7996 32.2 71.5996C31.7 71.4996 31.1 71.3996 30.6 71.2996C30.3 71.1996 29.9 71.0996 29.6 70.9996C27.5 70.1996 26.1 68.1996 26 65.9996L26.3 58.3996L26.5 54.2996L27 40.7996C28.1 31.8996 30 23.3996 33.5 18.5996C36.4 20.5996 39.6 24.0996 41.4 26.5996L41.6 38.2996V38.3996L42 66.0996L42.1 69.5996Z" fill="#623B2A"/>
<path d="M26.4016 14.8998C23.9016 21.3998 21.6016 29.0998 21.0016 37.4998L19.3016 59.3998C19.3016 61.2998 19.3016 64.6998 16.1016 63.1998L14.6016 62.2998L17.0016 28.7998C18.0016 18.8998 20.1016 12.4998 26.4016 14.8998Z" fill="#623B2A"/>
<path d="M25.2016 23.4008C23.7016 27.7008 22.4016 34.1008 21.6016 39.4008L23.0016 42.1008L24.9016 40.4008C24.9016 35.5008 25.6016 29.0008 26.5016 23.9008L28.3016 21.3008L25.5016 20.3008L25.2016 23.4008Z" fill="#E04E39"/>
<path d="M34.5 19.1002C35.4 21.2002 30.3 24.6002 27.9 24.6002C27.3 23.7002 27.3 22.2002 26.7 21.1002C25.9 21.6002 25 22.5002 24 23.2002C23.1 16.2002 31.1 13.9002 32.9 16.8002C33.3 17.4002 34.3 18.5002 34.5 19.1002Z" fill="#DADADA"/>
<path d="M32.9016 16.8008C33.3016 20.0008 32.0016 20.7008 30.8016 23.8008C28.9016 28.6008 27.6016 35.6008 27.1016 40.8008L33.4016 26.7008L31.0016 24.7008L33.6016 25.0008C34.4016 23.1008 35.0016 21.3008 34.9016 19.5008C34.5016 18.8008 33.8016 17.6008 32.9016 16.8008Z" fill="#1D1D1B"/>
<path d="M26.8034 14.9C23.7034 20.6 21.8034 29.3 20.9034 39.1C20.4034 32.7 20.2034 26.8 20.6034 21.7L22.7034 22L20.9034 20.6L25.0034 14.5L26.8034 14.9Z" fill="#1D1D1B"/>
<path d="M22.7018 9.50071C20.5018 8.90071 20.0018 7.40071 20.1018 5.20071C20.4018 2.10071 23.7018 0.60071 27.2018 0.10071C32.1018 -0.59929 34.7018 3.00071 33.9018 8.10071C33.6018 9.90071 33.7018 11.6007 33.7018 12.4007C33.6018 13.4007 33.3018 13.6007 32.4018 13.9007L22.7018 9.50071Z" fill="#3C3C3B"/>
<path d="M25 19.8V19.7V17.2V16.4L33 11.5L33.1 16.4C33.6 21.3 25.6 22.2 25 19.8Z" fill="#FFBB7D"/>
<path opacity="0.1" d="M25.901 20.7016C24.001 20.4016 22.201 19.0016 23.801 15.4016L30.801 14.1016C31.501 17.0016 29.101 21.0016 25.901 20.7016Z" fill="#1D1D1B"/>
<path d="M20.5998 6.10034C20.8998 3.10034 23.8998 1.50034 27.1998 1.10034C31.6998 0.500336 33.0998 3.50034 33.4998 7.00034C33.4998 8.60034 33.1998 10.5003 32.7998 12.2003L30.7998 14.1003C30.7998 14.1003 30.2998 16.0003 29.2998 17.1003C28.1998 18.2003 26.8998 19.1003 25.4998 19.1003C23.9998 19.1003 22.8998 18.4003 22.2998 16.0003C21.7998 13.8003 21.3998 13.7003 21.1998 12.7003C21.0998 12.1003 21.1998 11.4003 21.0998 11.1003C20.9998 10.7003 20.6998 10.2003 20.5998 9.80034C20.3998 8.90034 20.4998 7.00034 20.5998 6.10034Z" fill="#FFBB7D"/>
<path d="M20.1016 5.2C20.3016 4.9 20.8016 4.9 21.1016 5.1C21.4016 5.3 21.5016 5.7 21.8016 6C22.3016 6.4 23.1016 6.4 23.8016 6C24.4016 5.7 25.0016 5.1 25.5016 4.7C26.1016 4.2 26.7016 3.8 27.4016 3.8C28.4016 3.8 29.1016 4.6 29.4016 5.5C29.7016 6.4 29.8016 9 29.8016 9C29.8016 9 31.1016 8.7 31.5016 8.9C32.4016 9.5 31.0016 13.5 33.1016 13.6C33.4016 12.1 33.7016 9.3 33.7016 7.8C33.7016 6.3 33.5016 4.7 32.8016 3.4C32.1016 2.1 30.9016 0.999998 29.4016 0.699998C28.1016 0.399998 26.6016 0.699998 25.2016 1.1C24.1016 1.4 23.0016 1.9 22.1016 2.5C21.2016 3.2 20.4016 4.1 20.1016 5.2Z" fill="#3C3C3B"/>
<path d="M31.4003 7.40032C32.4003 6.80032 32.5003 8.30032 32.5003 9.00032C32.5003 9.40032 32.4003 9.80032 32.4003 10.3003C32.4003 10.7003 32.5003 11.2003 32.3003 11.6003C31.7003 12.5003 30.9003 11.3003 30.7003 10.8003C30.3003 10.0003 30.5003 7.90032 31.4003 7.40032Z" fill="#FFBB7D"/>
<path opacity="0.3" d="M42.1016 69.5996C41.6016 69.7996 41.1016 69.9996 40.6016 70.1996C39.9016 70.4996 39.2016 70.6996 38.5016 70.8996C36.2016 71.5996 34.1016 71.7996 32.2016 71.5996C31.7016 71.4996 31.1016 71.3996 30.6016 71.2996C34.4016 67.2996 35.6016 63.2996 36.1016 54.0996C31.2016 56.6996 21.0016 57.4996 15.1016 56.0996L15.4016 50.6996L29.3016 45.0996L32.6016 33.0996L41.7016 36.3996L42.1016 66.0996V69.5996Z" fill="#1D1D1B"/>
<path d="M38.8994 24.399C42.7994 27.099 46.5994 37.999 48.6994 44.299C47.7994 49.499 41.6994 55.899 34.7994 60.599C32.5994 60.899 29.3994 58.199 29.9994 56.699C38.2994 46.099 36.9994 47.699 39.0994 44.699C36.9994 41.499 36.1994 38.199 33.7994 32.799C32.5994 27.499 34.9994 22.999 38.8994 24.399Z" fill="#623B2A"/>
<path d="M3.59766 52.1008C3.69766 52.2008 3.89766 52.3008 4.29766 52.6008C4.49766 52.8008 4.79766 52.9008 5.09766 53.2008C5.69766 53.7008 6.39766 54.2008 6.89766 54.8008C7.19766 55.1008 7.39766 55.3008 7.59766 55.6008C7.69766 55.7008 7.79766 55.9008 7.89766 56.0008C8.19766 55.9008 8.39766 55.8008 8.69766 55.7008C9.69766 55.2008 10.1977 54.6008 10.8977 53.5008L12.0977 52.8008C12.7977 51.6008 11.3977 49.3008 10.1977 49.3008L7.89766 50.3008L4.39766 51.8008L3.69766 52.0008L3.59766 52.1008Z" fill="#FFBB7D"/>
<path d="M3.19692 59.0012C3.29692 59.1012 3.29692 59.1012 3.39692 59.2012C4.09692 59.4012 4.69692 58.0012 5.19692 56.8012C5.79692 56.4012 6.39692 55.8012 6.89692 55.1012C6.99692 54.9012 7.19692 54.7012 7.29692 54.5012L5.89692 53.7012L3.99692 56.0012C3.29692 57.1012 2.79692 58.5012 3.19692 59.0012Z" fill="#FFBB7D"/>
<path d="M5.59681 59.5C6.29681 59.6 6.29681 58.3 6.59681 57.2C7.09681 56.9 7.49681 56.4 7.79681 56C7.89681 55.8 7.99681 55.7 8.09681 55.5C8.19681 55.4 8.19681 55.3 8.29681 55.2L6.99681 54.5L6.79681 54.7L5.49681 56.6C4.99681 57.8 4.79681 59.3 5.59681 59.5Z" fill="#FFBB7D"/>
<path d="M1.5973 57.8004C2.1973 58.2004 3.0973 56.9004 3.7973 55.8004C4.5973 55.5004 5.3973 54.8004 6.0973 54.1004C6.1973 54.0004 6.1973 54.0004 6.2973 53.9004L5.0973 52.9004L2.7973 54.8004C1.7973 55.9004 0.997299 57.3004 1.5973 57.8004Z" fill="#FFBB7D"/>
<path d="M-0.00153535 55.9012C-0.00153535 56.0012 0.0984647 56.0012 0.0984647 56.1012C0.598465 56.6012 1.69846 55.4012 2.49846 54.4012C3.39846 54.2012 4.19846 53.8012 4.89846 53.1012L4.99846 53.0012L4.59846 52.4012L4.09846 51.8012L3.99846 51.7012L3.69846 52.0012L3.59846 52.1012L2.79846 52.6012L1.69846 53.3012C0.798465 54.1012 -0.201535 55.2012 -0.00153535 55.9012Z" fill="#FFBB7D"/>
<path opacity="0.1" d="M2.79688 52.6012C3.49687 52.7012 3.79688 52.7012 4.29688 52.6012C4.39688 52.6012 4.59688 52.5012 4.79688 52.4012C4.89688 52.4012 5.09687 52.3012 5.19687 52.2012C7.09687 53.0012 9.39687 52.7012 8.89687 50.2012C8.49687 50.2012 8.19688 50.2012 7.79688 50.2012L4.19687 51.7012L2.79688 52.6012Z" fill="#1D1D1B"/>
<path d="M8.69925 49.8017C7.89925 49.8017 6.99925 49.8017 6.09925 49.6017C5.79925 49.5017 5.39925 49.6017 5.09925 49.8017C3.79925 50.8017 2.79925 50.9017 1.49925 50.9017C0.999252 51.4017 1.59925 52.0017 2.39925 52.2017C3.59925 52.4017 3.79925 52.3017 4.99925 51.9017C6.89925 52.6017 10.3993 53.4017 8.69925 49.8017Z" fill="#FFBB7D"/>
<path opacity="0.1" d="M2.4 54C3.3 53.9 4.1 53.3 4.9 52.6C4.9 52.6 4.9 52.5 5 52.5C5.7 53.7 7.3 55.1 8.2 55.1C9.1 55.1 9.9 54.3 10.6 53.2L12.1 52.8L10.9 53.5C10.2 54.6 9.7 55.2 8.6 55.7C8.6 55.7 8.5 55.7 8.5 55.8H8.4C8.3 55.8 8.3 55.8 8.2 55.9C8.2 55.9 8.2 55.9 8.1 55.9C8 55.9 7.9 56 7.8 56C7.5 56.5 7 56.9 6.6 57.2C6.3 58.3 6.4 59.6 5.6 59.5C5.9 59.3 6.1 58.5 6.3 57C6.7 56.7 7.1 56.3 7.4 55.8C7.2 55.7 7 55.5 6.7 55.2C6.3 55.8 5.7 56.4 5.1 56.8C4.7 58 4 59.4 3.3 59.2C3.2 59.2 3.1 59.1 3.1 59C4 58.7 4.5 57.7 5 56.5C5.7 56.1 6.3 55.7 6.6 55.1C6.3 54.9 6.1 54.6 5.8 54.3C5.2 55 4.5 55.5 3.7 55.8C3.1 56.9 2.1 58.3 1.5 57.8C2.3 57.5 2.8 56.5 3.6 55.3L5.6 54C5.3 53.7 5.1 53.3 5 53.1C4.3 53.7 3.4 54.1 2.6 54.4C1.8 55.4 0.7 56.6 0.2 56.1C0.1 56 0.1 56 0 55.9C0.9 56.1 1.8 55.1 2.4 54Z" fill="#1D1D1B"/>
<path d="M38.2578 74.5856V91.9991L40.2686 90.7553V73.2461L38.2578 74.5856Z" fill="#704232"/>
<path d="M38.2567 74.5867V92.0003L17 79.7534V62.3398L38.2567 74.5867Z" fill="#623B2A"/>
<path d="M28.5875 80.7098V81.858C28.5875 82.3364 28.1087 82.5277 27.7257 82.3364L26.0979 81.3796C25.7149 81.1882 25.5234 80.8055 25.5234 80.4228V79.5617C25.5234 79.0833 26.0022 78.7962 26.3852 79.0833L28.3002 80.1357C28.4917 80.3271 28.5875 80.5185 28.5875 80.7098Z" fill="#FF9E6E"/>
<path d="M38.2567 74.5867V79.8491C38.2567 80.5188 37.6821 81.0929 37.0119 81.0929H28.3943C27.4368 81.0929 26.5751 80.6145 25.9048 79.9448L18.0533 70.0898C17.383 69.2287 17 68.1763 17 67.1238V62.4355L38.2567 74.5867Z" fill="#8E6455"/>
<path d="M17 62.3395L38.2567 74.5864L40.2674 73.2469L19.0108 61L17 62.3395Z" fill="#8E6455"/>
<path d="M30.2135 63.8694L27.4367 62.2428C26.7665 61.8601 26.192 61.8601 25.7132 62.0515L25.043 62.4342L25.1387 62.9126C25.043 63.104 25.043 63.2953 25.043 63.5823V65.4002L25.6175 65.783L25.809 66.6441L26.4792 66.2614V64.6348C26.4792 63.8694 27.0537 63.5823 27.6282 63.9651L29.8305 65.2089C30.5007 65.5916 30.9795 66.5484 30.9795 67.2182V68.8447L31.6498 69.2274L31.7455 70.0885L32.4158 69.7058V67.8879C32.6073 66.4527 31.554 64.6348 30.2135 63.8694Z" fill="#704232"/>
<path d="M24.4688 64.0611V65.879L25.905 66.7401V65.1136C25.905 64.3482 26.4795 64.0611 27.054 64.4439L29.2563 65.6877C29.9266 66.0704 30.4053 67.0272 30.4053 67.6969V69.3235L31.8416 70.1846V68.3667C31.8416 66.8358 30.7883 65.0179 29.4478 64.2525L26.671 62.626C25.522 61.9562 24.4688 62.5303 24.4688 64.0611Z" fill="#623B2A"/>
<path opacity="0.5" d="M38.2553 80.4222L38.4468 74.6815L40.2661 73.2463L38.1596 74.2031L23.6055 66.166L37.9681 74.5858L38.2553 80.4222Z" fill="#BB6DF3" fill-opacity="0.2"/>
<path d="M28.7008 64.2004C28.8008 64.6004 29.0008 64.8004 29.2008 64.9004C29.3008 64.9004 29.3008 65.0004 29.4008 65.0004H29.5008H29.6008C30.0008 64.9004 30.3008 64.6004 30.4008 64.3004L30.8008 63.4004C30.9008 63.2004 30.9008 63.1004 30.9008 63.0004C30.9008 62.8004 30.9008 62.7004 30.8008 62.6004C30.6008 62.3004 30.3008 62.2004 30.0008 62.5004C30.0008 62.5004 30.0008 62.5004 29.9008 62.6004C29.8008 62.7004 29.8008 62.7004 29.8008 62.8004L29.7008 62.5004L29.6008 62.0004L29.5008 61.8004L27.8008 61.4004L28.1008 62.4004L28.3008 63.2004L28.7008 64.2004Z" fill="#FFBB7D"/>
<path d="M24.6016 61.5006L25.9016 62.1006L26.9016 62.6006L27.2016 62.8006L27.5016 62.9006L28.1016 63.2006L28.4016 63.1006H28.6016L28.9016 63.0006H29.0016H29.1016L30.2016 62.7006L30.4016 62.6006C30.6016 62.5006 30.7016 62.5006 30.9016 62.4006C32.5016 61.9006 33.7016 61.1006 33.7016 59.5006L34.1016 59.2006C34.3016 58.8006 34.2016 58.4006 34.1016 58.1006C33.6016 57.0006 31.4016 56.6006 30.6016 57.2006L30.0016 57.8006L28.0016 58.8006C26.5016 59.7006 25.4016 60.5006 24.6016 61.5006Z" fill="#FFBB7D"/>
<path d="M23.6008 65.4996L25.8008 62.3996L25.9008 62.1996L26.0008 62.0996L25.8008 61.9996H25.7008H25.6008L24.6008 61.5996L22.5008 64.8996C22.4008 65.0996 22.3008 65.2996 22.3008 65.4996C22.3008 65.9996 22.8008 66.4996 23.6008 65.4996Z" fill="#FFBB7D"/>
<path d="M25.6016 61.9004L26.6016 64.8004C26.9016 65.6004 27.5016 65.7004 27.9016 65.5004C28.0016 65.5004 28.0016 65.4004 28.0016 65.4004C28.0016 65.4004 28.0016 65.3004 28.1016 65.3004L27.5016 63.0004L27.3016 62.4004V62.3004L27.0016 62.2004L26.7016 62.1004L25.8016 62.0004H25.7016L25.6016 61.9004Z" fill="#FFBB7D"/>
<path opacity="0.1" d="M23.6008 65.5008L25.8008 62.4008L26.5008 64.4008L25.9008 62.2008V62.1008V61.9008V61.8008L25.7008 62.0008L25.6008 62.1008L23.6008 65.1008C23.4008 65.6008 22.5008 66.4008 22.3008 65.4008C22.3008 66.0008 22.8008 66.5008 23.6008 65.5008Z" fill="#1D1D1B"/>
<path opacity="0.1" d="M26.6992 62L26.7992 62.2L26.9992 62.7L27.8992 65.4C27.9992 65.4 27.9992 65.3 27.9992 65.3C28.0992 65.6 28.2992 65.8 28.4992 65.9L27.5992 63L27.3992 62.3V62.2L27.2992 62L26.9992 62.1L26.6992 62Z" fill="#1D1D1B"/>
<path d="M27.9 65.1C27.9 65.2 27.9 65.2 28 65.3C28.1 65.6 28.3 65.8 28.5 65.9C28.9 66.1 29.2 65.8 29.5 65.5C29.6 65.4 29.6 65.3 29.6 65.2V65.1V65L29 63L28.9 62.7H28.8L28.4 62.5L28.2 62.4L27.4 62.1L27 62V62.1L27.1 62.3L27.3 62.9C27.2 62.9 27.9 65.1 27.9 65.1Z" fill="#FFBB7D"/>
<path opacity="0.1" d="M28.1992 62.2012L28.2992 62.5012L28.4992 63.2012L29.1992 65.0012L29.3992 65.5012C29.4992 65.4012 29.4992 65.3012 29.4992 65.2012C29.5992 65.3012 29.6992 65.4012 29.7992 65.5012L29.5992 65.0012L28.9992 63.0012L28.7992 62.3012H28.5992L28.1992 62.2012Z" fill="#1D1D1B"/>
<path d="M29.4016 64.8996C29.4016 64.9996 29.4016 64.9996 29.5016 64.9996C29.5016 65.0996 29.6016 65.0996 29.6016 65.1996C29.7016 65.2996 29.8016 65.3996 29.9016 65.4996C30.4016 65.8996 31.1016 65.3996 31.2016 64.8996L31.6016 63.9996C31.8016 63.4996 31.7016 63.0996 31.4016 62.8996C31.3016 62.7996 31.1016 62.7996 31.0016 62.8996C30.9016 62.9996 30.7016 63.0996 30.6016 63.2996L30.4016 62.5996L30.3016 62.3996H30.1016H30.0016H29.8016L28.6016 62.0996L28.7016 62.2996L28.8016 62.6996L28.9016 63.0996L29.4016 64.8996Z" fill="#FFBB7D"/>
<path opacity="0.1" d="M30.3992 64.3004C30.5992 63.9004 30.6992 63.6004 30.7992 63.4004C30.8992 63.2004 31.0992 63.1004 31.2992 63.1004C31.1992 63.0004 30.9992 63.0004 30.8992 63.1004C30.8992 62.9004 30.8992 62.8004 30.7992 62.7004C32.3992 62.2004 33.5992 61.4004 33.5992 59.8004L33.9992 59.5004C34.1992 59.1004 34.0992 58.7004 33.9992 58.4004C33.6992 59.2004 33.8992 58.9004 33.0992 59.1004C32.9992 60.5004 32.4992 61.6004 30.9992 62.0004C30.5992 62.2004 30.0992 62.2004 29.6992 62.0004C29.7992 62.1004 29.8992 62.3004 29.9992 62.4004C29.9992 62.4004 29.9992 62.5004 30.0992 62.5004C30.1992 62.6004 30.1992 62.7004 30.1992 62.8004C30.2992 63.2004 30.3992 63.7004 30.3992 64.3004Z" fill="#1D1D1B"/>
</g>
<defs>
<clipPath id="clip0">
<rect width="48.7" height="125.8" fill="white"/>
</clipPath>
</defs>
</svg>
