<svg width="78" height="95" viewBox="0 0 78 95" fill="none" xmlns="http://www.w3.org/2000/svg">
<path d="M47.1402 65.325V47.5878L35.0947 40.5723V58.3095C35.0947 64.5308 38.0068 71.9434 42.6397 77.9L53 94.3945L56.2736 94.8431V78.6942L48.7286 69.2961C47.802 68.1048 47.1402 66.6487 47.1402 65.325Z" fill="#A77F4F"/>
<path d="M56.1816 87.8281L69.8155 86.6368C74.4484 86.2397 77.3605 82.1363 77.3605 75.915V40.7052L56.1816 28.5273V42.5583L65.315 47.853V69.0319C65.315 70.2232 64.7855 71.1498 63.859 71.1498L56.314 71.8116L56.1816 87.8281Z" fill="#BF3622"/>
<path d="M56.1788 28.3945L51 40.3945L53 52.8826H56.1788V28.3945Z" fill="#4E2A1A"/>
<path d="M56.1841 28.5273H53.1826L66.5 42.3948L71.5 70.3948L56 86.8948V87.8948L67.001 86.8948C78.5 87.3948 77.3565 75.3948 77.3565 75.3948V40.7052L56.1841 28.5273Z" fill="#CB412D"/>
<path d="M44.0455 65.325V47.5878L32 40.5723V58.3095C32 64.5308 34.9121 71.9434 39.545 77.9L53.1788 94.8431V78.6942L45.6339 69.2961C44.7073 68.1048 44.0455 66.6487 44.0455 65.325Z" fill="#C79B65"/>
<path d="M53.1826 87.8281L66.8165 86.6368C71.4494 86.2397 74.3615 82.1363 74.3615 75.915V40.7052L53.1826 28.5273V42.5583L62.316 47.853V69.0319C62.316 70.2232 61.7865 71.1498 60.8599 71.1498L53.315 71.8116L53.1826 87.8281Z" fill="#E04E39"/>
<path d="M53.1788 28.3945L32 40.7047L53.1788 52.8826V28.3945Z" fill="#623B2A"/>
<path d="M28.1582 41.6424L31.8815 39.4316C32.8124 43.504 34.9068 50.1362 38.8628 55.3722L35.1395 57.5829C31.0671 52.2306 29.089 45.7148 28.1582 41.6424Z" fill="#AEAEAE"/>
<path d="M36.4203 51.648C33.9769 47.2265 32.5806 42.5724 31.7662 39.3145L28.1592 41.6415C28.8573 44.7831 30.3699 49.5536 32.8134 53.9751C33.5115 55.255 34.326 56.4185 35.1404 57.5821L38.8638 55.3714C37.9329 54.2078 37.1185 52.9279 36.4203 51.648Z" fill="#D1D3D4"/>
<path d="M7.446 1.1497C6.1661 1.84782 4.8862 2.66231 3.72266 3.36043C7.21329 1.26605 12.9147 1.96418 19.3141 5.68752C31.7641 12.9015 41.0724 28.1439 38.0472 36.7541C37.4654 38.4995 36.3019 39.7794 34.9056 40.5938C36.1855 39.8957 37.4654 39.0812 38.629 38.3831C40.9561 36.9868 42.3523 34.5434 42.3523 30.9364C42.4687 14.8795 18.267 -5.01709 7.446 1.1497Z" fill="#D1D3D4"/>
<path d="M19.3148 5.68715C30.0194 11.8539 38.6297 24.0711 38.6297 33.1468C38.6297 39.4299 34.3245 42.4551 28.1578 41.6407C29.0886 45.7131 31.183 52.3453 35.139 57.5812C30.0194 53.9742 21.8746 45.0149 17.4532 37.2192C7.56304 30.7033 0 19.3006 0 10.8067C0 1.84746 8.72658 -0.47963 19.3148 5.68715Z" fill="white"/>
<path d="M10.2434 13.95C9.54532 13.4846 8.84719 13.4846 8.38178 13.7173L6.05469 15.1136C6.52011 14.8809 7.21823 14.8809 7.91636 15.3463C9.42896 16.1608 10.5925 18.2551 10.5925 19.8841C10.5925 20.6986 10.2434 21.2803 9.77803 21.6294L12.1051 20.2332C12.5705 20.0004 12.9196 19.4187 12.9196 18.4878C12.9196 16.8589 11.6397 14.8809 10.2434 13.95Z" fill="#D8B89A"/>
<path d="M7.91443 15.3452C9.42704 16.1597 10.5906 18.254 10.5906 19.883C10.5906 21.5119 9.42704 22.2101 7.91443 21.3956C6.40182 20.5811 5.23828 18.4867 5.23828 16.8578C5.23828 15.2288 6.40182 14.5307 7.91443 15.3452Z" fill="#C39367"/>
<path d="M18.5022 18.7215C17.8041 18.2561 17.106 18.2561 16.6406 18.4888L14.3135 19.885C14.7789 19.6523 15.477 19.6523 16.1751 20.1178C17.6878 20.9322 18.8513 23.0266 18.8513 24.6556C18.8513 25.4701 18.5022 26.0518 18.0368 26.4009L20.3639 25.0046C20.8293 24.7719 21.1784 24.1902 21.1784 23.2593C21.1784 21.6304 19.8985 19.6523 18.5022 18.7215Z" fill="#D8B89A"/>
<path d="M16.1761 20.1162C17.6888 20.9307 18.8523 23.0251 18.8523 24.6541C18.8523 26.283 17.6888 26.9811 16.1761 26.1667C14.6635 25.3522 13.5 23.2578 13.5 21.6288C13.5 19.8835 14.6635 19.3018 16.1761 20.1162Z" fill="#C39367"/>
<path d="M26.7649 23.491C26.0668 23.0256 25.3687 23.0256 24.9033 23.2583L22.5762 24.6546C23.0416 24.4219 23.7397 24.4219 24.4378 24.8873C25.9504 25.7018 27.114 27.7961 27.114 29.4251C27.114 30.2396 26.7649 30.8214 26.2995 31.1704L28.6266 29.7742C29.092 29.5415 29.4411 28.9597 29.4411 28.0289C29.3247 26.3999 28.1612 24.4219 26.7649 23.491Z" fill="#D8B89A"/>
<path d="M24.4388 24.8877C25.9515 25.7022 27.115 27.7966 27.115 29.4255C27.115 31.0545 25.9515 31.7526 24.4388 30.9381C22.9262 30.1237 21.7627 28.0293 21.7627 26.4003C21.7627 24.655 22.9262 24.0732 24.4388 24.8877Z" fill="#C39367"/>
</svg>
