<svg width="41" height="40" viewBox="0 0 41 40" fill="none" xmlns="http://www.w3.org/2000/svg">
<path d="M40.2192 0H0.368652V40H40.2192V0Z" fill="#44678D"/>
<path d="M10.6921 12.173C11.6472 14.5403 12.8575 16.7724 14.4517 18.7761C14.6632 19.0427 14.9297 19.2798 15.2105 19.4728C15.6206 19.7555 16.0075 19.6562 16.1743 19.1853C16.3506 18.6911 16.5125 17.6897 16.5221 17.1707C16.5484 15.8149 16.5182 14.9263 16.4456 13.572C16.3986 12.7047 16.0914 11.9431 14.8203 11.7132C14.4278 11.642 14.3913 11.3176 14.6435 10.9941C15.1685 10.3206 15.8999 10.2132 16.693 10.1707C17.9784 10.1011 19.2685 10.1579 20.5555 10.1707C21.0797 10.1756 21.6071 10.218 22.1234 10.3309C22.7968 10.4783 23.1574 10.9524 23.2684 11.6123C23.3258 11.9527 23.3554 12.3026 23.3473 12.647C23.3138 14.127 23.2428 15.6062 23.226 17.0854C23.2189 17.666 23.2611 18.2611 23.3848 18.8266C23.558 19.6146 24.0925 19.8124 24.6391 19.243C25.3332 18.5199 25.9452 17.7062 26.5197 16.8797C27.5633 15.3764 28.3428 13.7267 29.0138 12.0257C29.3609 11.148 29.6266 10.9573 30.5672 10.955C32.3353 10.9509 34.1034 10.9494 35.8715 10.955C36.1851 10.9566 36.513 10.9862 36.809 11.0808C37.2893 11.2345 37.4801 11.6277 37.3675 12.1267C37.105 13.296 36.4755 14.2898 35.8013 15.2453C34.7194 16.7781 33.5856 18.2742 32.4782 19.7894C32.337 19.9824 32.2126 20.1882 32.0968 20.3972C31.6827 21.1484 31.7114 21.5697 32.3154 22.1951C33.2768 23.1906 34.3061 24.122 35.2372 25.1447C35.9139 25.8887 36.5401 26.6959 37.0763 27.5456C37.7545 28.6204 37.3356 29.6327 36.0686 29.8129C35.2716 29.9258 31.3781 29.8137 31.1769 29.8129C30.1301 29.8081 29.2126 29.4437 28.4737 28.7301C27.6519 27.9357 26.905 27.0643 26.1159 26.2354C25.8782 25.9855 25.6244 25.7461 25.3508 25.537C24.7053 25.0429 24.0718 25.1526 23.7702 25.9135C23.5125 26.567 23.2899 28.2832 23.2795 28.4298C23.2252 29.1962 22.7393 29.6847 21.884 29.7319C19.4146 29.8665 17.0217 29.5902 14.7925 28.3913C12.9031 27.3758 11.3944 25.9399 10.0874 24.2653C8.01135 21.6055 6.37153 18.6817 4.87441 15.6721C4.7979 15.5183 3.28155 12.2795 3.2408 12.1265C3.10535 11.6143 3.23171 11.125 3.66289 10.9566C3.93169 10.8516 8.93117 10.9562 9.01432 10.9607C9.81207 11.004 10.3561 11.3419 10.6921 12.173Z" fill="white"/>
</svg>
