<svg width="41" height="40" viewBox="0 0 41 40" fill="none" xmlns="http://www.w3.org/2000/svg">
<rect width="39.8506" height="40" transform="translate(40.4497 40) rotate(-180)" fill="url(#paint0_radial)"/>
<path d="M7.5731 40.0001L33.476 40.0001C37.3275 40.0001 40.4498 36.8661 40.4498 33.0001L40.4498 7.00012C40.4498 3.13413 37.3275 0.000121251 33.476 0.000120241L7.57311 0.000113448C3.72156 0.000112438 0.599253 3.13412 0.599252 7.00011L0.599245 33.0001C0.599244 36.8661 3.72155 40.0001 7.5731 40.0001Z" fill="url(#paint1_radial)"/>
<path d="M36.0001 12.5842L36.0001 27.5281C36.0001 29.5098 35.2099 31.4104 33.8034 32.8116C32.3969 34.2129 30.4892 35.0001 28.5001 35.0001L13.5001 35.0001C11.511 35.0001 9.60334 34.2129 8.19682 32.8116C6.7903 31.4104 6.00012 29.5098 6.00012 27.5281L6.00012 12.5842C6.00012 10.6025 6.7903 8.70194 8.19682 7.30067C9.60334 5.89941 11.511 5.11218 13.5001 5.11218L28.5001 5.11218C30.4892 5.11218 32.3969 5.89941 33.8034 7.30067C35.2099 8.70194 36.0001 10.6025 36.0001 12.5842ZM9.00012 27.5281C9.00178 28.7166 9.47641 29.856 10.32 30.6964C11.1635 31.5368 12.3072 32.0097 13.5001 32.0113L28.5001 32.0113C29.6931 32.0097 30.8367 31.5368 31.6803 30.6964C32.5238 29.856 32.9985 28.7166 33.0001 27.5281L33.0001 12.5842C32.9985 11.3957 32.5238 10.2563 31.6803 9.41589C30.8367 8.57549 29.6931 8.10262 28.5001 8.10098L13.5001 8.10098C12.3072 8.10262 11.1635 8.57549 10.32 9.41589C9.47641 10.2563 9.00177 11.3957 9.00012 12.5842L9.00012 27.5281Z" fill="white"/>
<path d="M21.0376 28.5563C19.3627 28.5563 17.7255 28.0578 16.3329 27.1238C14.9403 26.1898 13.8549 24.8623 13.2139 23.3091C12.573 21.7559 12.4053 20.0469 12.7321 18.398C13.0588 16.7492 13.8653 15.2346 15.0496 14.0459C16.2339 12.8571 17.7428 12.0476 19.3855 11.7196C21.0282 11.3916 22.7309 11.56 24.2783 12.2033C25.8256 12.8466 27.1482 13.9361 28.0787 15.3339C29.0092 16.7318 29.5059 18.3751 29.5059 20.0563C29.5042 22.3101 28.6115 24.4712 27.0237 26.0649C25.436 27.6586 23.283 28.5546 21.0376 28.5563ZM21.0376 14.5563C19.9539 14.5563 18.8945 14.8788 17.9934 15.4832C17.0923 16.0875 16.39 16.9465 15.9752 17.9515C15.5605 18.9565 15.452 20.0624 15.6634 21.1293C15.8748 22.1962 16.3967 23.1762 17.163 23.9454C17.9293 24.7146 18.9057 25.2384 19.9686 25.4506C21.0315 25.6628 22.1333 25.5539 23.1345 25.1376C24.1357 24.7213 24.9915 24.0164 25.5936 23.1119C26.1957 22.2075 26.5171 21.1441 26.5171 20.0563C26.5154 18.5981 25.9376 17.2001 24.9103 16.169C23.8831 15.1379 22.4903 14.5579 21.0376 14.5563Z" fill="white"/>
<path d="M29.5057 13.5563C30.331 13.5563 31.0001 12.8847 31.0001 12.0563C31.0001 11.2278 30.331 10.5563 29.5057 10.5563C28.6803 10.5563 28.0112 11.2278 28.0112 12.0563C28.0112 12.8847 28.6803 13.5563 29.5057 13.5563Z" fill="white"/>
<defs>
<radialGradient id="paint0_radial" cx="0" cy="0" r="1" gradientUnits="userSpaceOnUse" gradientTransform="translate(40.6523 0.812501) scale(92.0268 92.3719)">
<stop stop-color="#F9ED32"/>
<stop offset="0.36" stop-color="#EE2A7B"/>
<stop offset="0.44" stop-color="#D22A8A"/>
<stop offset="0.6" stop-color="#8B2AB2"/>
<stop offset="0.83" stop-color="#1B2AF0"/>
<stop offset="0.88" stop-color="#002AFF"/>
</radialGradient>
<radialGradient id="paint1_radial" cx="0" cy="0" r="1" gradientUnits="userSpaceOnUse" gradientTransform="translate(-0.202436 39.1876) rotate(-180) scale(92.0268 92.3719)">
<stop stop-color="#F9ED32"/>
<stop offset="0.36" stop-color="#EE2A7B"/>
<stop offset="0.44" stop-color="#D22A8A"/>
<stop offset="0.6" stop-color="#8B2AB2"/>
<stop offset="0.83" stop-color="#1B2AF0"/>
<stop offset="0.88" stop-color="#002AFF"/>
</radialGradient>
</defs>
</svg>
