<svg width="83" height="80" viewBox="0 0 83 80" fill="none" xmlns="http://www.w3.org/2000/svg">
<g clip-path="url(#clip0)">
<path d="M8.35537 49.1116C8.35537 49.1116 4.12202 48.3472 3.30532 47.7081C2.48862 47.0701 3.01605 46.7342 3.27395 45.6467C3.77582 43.528 3.45634 44.6646 4.30906 44.571C5.16177 44.4785 4.50074 43.9365 4.49726 43.5058C4.49377 43.075 4.31138 42.6279 5.08045 42.7075C5.84951 42.787 7.69318 45.2464 9.23713 46.1805C10.7811 47.1146 8.35537 49.1116 8.35537 49.1116Z" fill="#FFB27D"/>
<path d="M48.172 24.3233C48.172 24.3233 52.6842 43.4794 35.8379 58.2928C30.5799 62.9165 7.64844 49.2924 7.64844 49.2924C7.64844 49.2924 7.69723 47.0063 9.86851 46.05C9.86851 46.05 27.9346 48.8101 30.0757 48.9939C31.9751 49.1566 35.8205 33.5426 40.4848 28.323C44.0955 24.2835 48.172 24.3233 48.172 24.3233Z" fill="#AE8E81"/>
<path d="M35.4846 77.0049C35.4846 77.0049 36.2734 86.7732 37.2005 98.5162C38.4621 114.467 39.977 134.06 40.1281 137.772C40.3871 144.217 41.428 154.527 41.428 154.527C41.428 154.527 43.8944 156.977 48.8329 155.945C48.8329 155.945 53.2324 141.228 54.4894 125.656C54.5092 125.4 54.5277 125.143 54.5475 124.887C55.7162 109.034 57.5343 75.6529 57.5343 75.6529L35.4846 77.0049Z" fill="#EE9849"/>
<path d="M35.4846 77.0051C35.4846 77.0051 36.2734 86.7734 37.2005 98.5164L54.4882 125.655C54.508 125.399 54.5266 125.142 54.5463 124.886C55.715 109.033 57.5331 75.6519 57.5331 75.6519L35.4846 77.0051Z" fill="#E58638"/>
<path d="M39.0903 78.1652C39.0903 78.1652 53.3146 113.543 62.6677 130.168C72.0208 146.794 74.9438 151.434 74.9438 151.434C74.9438 151.434 80.3017 149.307 80.7896 147.858C80.7896 147.858 77.2138 115.761 70.9497 107.937C67.4111 103.516 63.2532 90.2477 63.0581 85.6088C62.8629 80.9687 61.7918 71.7857 61.7918 71.7857L39.0903 78.1652Z" fill="#EE9849"/>
<path d="M57.8062 23.6459C57.8062 23.6459 48.1824 28.3247 42.6328 26.5887C42.6328 26.5887 43.999 24.8528 46.3887 23.5605C46.197 22.4391 46.0471 21.464 45.9623 20.6388C45.7277 18.7331 45.7277 17.6527 45.7277 17.6527L49.4406 14.7099L52.9618 11.8936C52.6841 19.8135 57.8062 23.6459 57.8062 23.6459Z" fill="#FFB27D"/>
<path d="M34.88 77.8124C35.0497 77.9611 35.2425 78.0442 35.4574 78.0442C37.5474 78.0009 43.6302 79.1656 48.772 78.6365C53.1262 78.2128 56.9669 76.9439 61.0852 75.1237C61.6405 74.8697 62.901 74.1919 62.8778 73.5996C62.8557 72.9219 62.793 71.969 62.7082 70.7399C62.5362 68.3216 62.2934 64.8872 62.2156 60.8148C62.0704 53.1734 62.5362 51.4222 62.5362 46.2226C62.5757 39.0085 61.5 25.7332 55.7517 21.4934C55.3672 21.1961 52.9763 22.3597 50.7574 23.4413C48.7291 24.4362 46.7042 24.5427 44.7826 24.1623L42.8623 25.8561C40.5342 27.9924 37.9737 30.9363 36.8434 35.3833C35.9058 39.1525 35.3505 45.9686 35.0497 53.0411C34.7906 58.6926 34.729 63.4895 34.729 63.6066C34.6256 71.4598 34.7302 77.7071 34.88 77.8124Z" fill="#D2BEB6"/>
<path d="M53.0246 14.9228C53.0246 14.9228 50.5919 19.3897 45.9612 20.6398C45.7266 18.7341 45.7266 17.6537 45.7266 17.6537L49.4395 14.7109L53.0246 14.9228Z" fill="#ED985F"/>
<path d="M44.0345 17.5254C44.0345 17.5254 53.2156 19.0389 54.0776 13.3512C54.9396 7.66461 56.7043 4.02886 50.8794 2.82202C45.0533 1.61517 43.5837 3.61448 42.8298 5.44406C42.077 7.27364 41.668 16.9846 44.0345 17.5254Z" fill="#FFB27D"/>
<path d="M57.4127 2.14155C57.4964 2.04557 57.6881 1.96714 58.1167 1.94373C58.1167 1.94373 57.7752 1.72834 57.3175 1.71664C57.228 1.11731 56.912 0.0556196 55.8874 -0.201903C55.8874 -0.201903 56.438 0.0942479 56.5101 0.731031C55.3239 -0.495712 52.7821 -1.38885 45.7455 -0.829321C36.4725 -0.0918705 39.5279 5.89084 40.7291 6.60371C41.9292 7.31658 44.9508 5.36175 47.1883 5.54085C49.4258 5.71994 49.851 8.97643 50.6096 9.42358C51.3682 9.87074 51.0697 9.08061 52.0967 8.61239C53.1236 8.14534 53.2212 9.85903 52.925 10.9734C52.6287 12.0878 54.0391 13.558 54.0391 13.558C54.0391 13.558 54.0391 13.558 55.4645 12.0105C56.89 10.4642 58.2341 3.91143 57.5858 2.51496C57.5278 2.39205 57.4708 2.2668 57.4127 2.14155Z" fill="#2C2A29"/>
<path d="M62.2163 60.8145C62.1593 57.7956 62.1907 54.4268 62.4091 50.8589C62.4219 50.6201 62.4347 50.3778 62.444 50.1355C61.5715 45.7787 60.2506 41.9135 58.3082 41.7871C58.3082 41.7871 52.5193 50.9537 62.2163 60.8145Z" fill="#AE8E81"/>
<path d="M69.8734 76.6215C69.8734 76.6215 69.3913 81.3482 68.8615 82.2425C68.3318 83.1368 66.078 85.9941 65.1173 86.5548C64.1565 87.1155 65.7039 82.7903 65.5076 81.9487C65.3124 81.1071 64.7176 83.4845 64.2936 83.5407C63.8707 83.5968 63.9788 81.4571 63.9637 80.6775C63.9486 79.8991 66.0222 77.9759 66.7541 76.3172C67.4872 74.6597 69.8734 76.6215 69.8734 76.6215Z" fill="#FFB27D"/>
<path d="M55.7482 21.4463C55.7482 21.4463 61.5569 24.2182 64.3427 28.479C68.6632 35.088 73.6714 59.1768 73.7632 61.4079C73.8562 63.639 70.1084 79.3865 70.1084 79.3865C70.1084 79.3865 66.3072 79.1337 65.3267 77.2011C65.3267 77.2011 66.0865 61.0205 65.6055 59.9798C65.1246 58.9392 49.7595 38.2742 51.487 33.8647C53.2145 29.4552 55.7482 21.4463 55.7482 21.4463Z" fill="#D2BEB6"/>
<path d="M25.2369 37.0656L6.55859 32.6259L0.481598 58.5827L19.1599 63.0223L25.2369 37.0656Z" fill="#DBAF8F"/>
<path d="M24.7564 36.9503L6.07812 32.5107L0.00112575 58.4674L18.6794 62.907L24.7564 36.9503Z" fill="#EFCBAB"/>
<path d="M23.0575 38.4263L6.94141 34.5956L1.69795 56.9921L17.814 60.8227L23.0575 38.4263Z" fill="#EBF3FA"/>
<path d="M20.6915 41.4517C20.6694 41.4517 20.6474 41.4494 20.6253 41.4435L8.23308 38.4984C8.07857 38.4621 7.98331 38.3064 8.01933 38.1507C8.05534 37.995 8.20985 37.8991 8.36436 37.9353L20.7577 40.8816C20.9122 40.9179 21.0075 41.0736 20.9715 41.2293C20.9401 41.3616 20.8216 41.4517 20.6915 41.4517Z" fill="#B5C1CF"/>
<path d="M20.1855 43.2135C20.1634 43.2135 20.1413 43.2112 20.1193 43.2053L7.7282 40.2602C7.57369 40.2239 7.47843 40.0682 7.51444 39.9126C7.55046 39.7569 7.70497 39.6609 7.85948 39.6972L20.2517 42.6423C20.4062 42.6786 20.5015 42.8343 20.4654 42.9899C20.4341 43.1234 20.3156 43.2135 20.1855 43.2135Z" fill="#B5C1CF"/>
<path d="M19.6407 44.9751C19.6187 44.9751 19.5966 44.9728 19.5745 44.9669L7.1823 42.0218C7.02779 41.9855 6.93253 41.8298 6.96854 41.6742C7.00456 41.5185 7.15907 41.4225 7.31358 41.4588L19.7058 44.4039C19.8603 44.4402 19.9556 44.5959 19.9184 44.7515C19.8882 44.885 19.7708 44.9751 19.6407 44.9751Z" fill="#B5C1CF"/>
<path d="M19.1329 46.7364C19.1108 46.7364 19.0888 46.734 19.0667 46.7282L6.67449 43.7831C6.51998 43.7468 6.42472 43.5911 6.46073 43.4354C6.49675 43.2798 6.65126 43.1838 6.80577 43.2201L19.198 46.1652C19.3525 46.2014 19.4477 46.3571 19.4117 46.5128C19.3815 46.6463 19.263 46.7364 19.1329 46.7364Z" fill="#B5C1CF"/>
<path d="M18.0194 38.0369L11.6182 36.5152C11.4277 36.4695 11.308 36.2752 11.3533 36.0832L11.8564 33.9318C11.9017 33.7398 12.0945 33.6192 12.2851 33.6649L18.6862 35.1866C18.8767 35.2323 18.9964 35.4266 18.9511 35.6185L18.4469 37.77C18.4039 37.962 18.211 38.0814 18.0194 38.0369Z" fill="#EE9849"/>
<path d="M4.79939 45.632C5.01896 44.8583 4.17438 42.6354 3.75035 42.365C3.32632 42.0946 2.84885 43.2734 2.44224 44.7377C2.03563 46.2009 2.24707 47.4792 2.57468 47.5318C2.90345 47.5845 4.59725 46.3437 4.79939 45.632Z" fill="#FFB27D"/>
</g>
<defs>
<clipPath id="clip0">
<rect width="83" height="80" fill="white"/>
</clipPath>
</defs>
</svg>
