<svg width="88" height="100" viewBox="0 0 88 100" fill="none" xmlns="http://www.w3.org/2000/svg">
<g filter="url(#filter0_d)">
<path d="M43.297 92C33.2288 92 4.14539 92 4.14539 92C4.14539 92 4.14539 55.9878 4.14539 45.9122C4.14539 38.1653 4.14539 32.7435 4.14539 32.7435L25.3463 14.2035L42.3803 0V19.8807V36.6665H25.3463V71.3944H43.297V92Z" fill="#E04E39"/>
<path d="M43.2969 84.2533C53.3651 84.2533 81.7088 84.2533 81.7088 84.2533C81.7088 84.2533 82.6222 56.7254 82.6222 46.6498C82.6222 38.9029 83.5198 13.245 82.8435 9.99352C82.1671 6.74205 82.2794 6.32338 78.98 3.06868C75.6805 -0.186026 55.8213 0.0861204 42.3172 0.0861233V19.8173C51.7512 20.1116 59.5118 19.3766 60.9493 20.6937C62.3869 22.0108 61.8604 32.3414 61.8604 37.1057C61.8604 41.87 61.8604 63.5012 61.8604 63.5012H43.2969V84.2533Z" fill="#C39367"/>
</g>
<defs>
<filter id="filter0_d" x="0.145386" y="0" width="86.9504" height="100" filterUnits="userSpaceOnUse" color-interpolation-filters="sRGB">
<feFlood flood-opacity="0" result="BackgroundImageFix"/>
<feColorMatrix in="SourceAlpha" type="matrix" values="0 0 0 0 0 0 0 0 0 0 0 0 0 0 0 0 0 0 127 0"/>
<feOffset dy="4"/>
<feGaussianBlur stdDeviation="2"/>
<feColorMatrix type="matrix" values="0 0 0 0 0.486275 0 0 0 0 0.101961 0 0 0 0 0.101961 0 0 0 0.6 0"/>
<feBlend mode="normal" in2="BackgroundImageFix" result="effect1_dropShadow"/>
<feBlend mode="normal" in="SourceGraphic" in2="effect1_dropShadow" result="shape"/>
</filter>
</defs>
</svg>
