<svg width="76" height="78" viewBox="0 0 76 78" fill="none" xmlns="http://www.w3.org/2000/svg">
<g clip-path="url(#clip0)">
<path d="M49.1102 12.8148L49.3612 33.078C49.4047 36.5248 48.7643 41.5941 43.3192 41.4141C38.6074 40.8996 37.3563 36.4338 37.3207 33.2185C37.3029 31.693 37.2852 30.4207 37.2733 30.2644C37.2733 30.2644 32.1148 29.843 31.68 24.742C31.4705 22.2766 31.4487 17.1638 31.4843 12.5398C31.5219 7.57138 35.37 3.46768 40.319 3.10757L40.8111 3.07195C46.1376 2.99281 49.1813 7.47839 49.1102 12.8148Z" fill="#FFBE9D"/>
<path d="M37.2747 30.2642C37.2747 30.2642 40.5022 30.2187 43.7712 27.8127C43.7712 27.8127 42.4233 31.6611 37.3004 31.5721L37.2747 30.2642Z" fill="#EB996E"/>
<path d="M48.9727 16.6259C49.0577 16.5824 52.4019 15.3319 52.5442 18.8301C52.6865 22.3283 49.1486 21.7506 49.1388 21.6516C49.1289 21.5507 48.9727 16.6259 48.9727 16.6259Z" fill="#FFBE9D"/>
<path d="M50.151 20.2829C50.1669 20.2711 50.2143 20.3225 50.319 20.366C50.4218 20.4076 50.5958 20.4333 50.7736 20.3561C51.1373 20.2058 51.4239 19.6062 51.416 18.9751C51.412 18.6565 51.333 18.3557 51.2104 18.1104C51.0938 17.8591 50.9199 17.687 50.7341 17.6612C50.5483 17.6256 50.4198 17.7424 50.3823 17.8433C50.3388 17.9422 50.3645 18.0115 50.3467 18.0194C50.3368 18.0293 50.2696 17.964 50.2914 17.8176C50.3032 17.7483 50.3408 17.6632 50.4198 17.592C50.5009 17.5208 50.6234 17.4812 50.7519 17.4891C51.0227 17.497 51.2756 17.7344 51.41 18.0055C51.5603 18.2766 51.6571 18.6149 51.6611 18.9711C51.667 19.6775 51.333 20.3522 50.8349 20.5184C50.5918 20.5936 50.3843 20.5263 50.2736 20.4491C50.1609 20.366 50.1392 20.2889 50.151 20.2829Z" fill="#EB996E"/>
<path d="M24.7187 7.95968C24.7741 7.7539 24.9243 7.58571 25.1061 7.47689C25.5053 7.24143 25.9639 7.27309 26.4086 7.26517C27.7605 7.24341 29.1025 6.82987 30.2409 6.09975C30.7745 5.33006 31.3734 4.60786 32.0236 3.9371C33.5672 2.34231 34.8381 1.25802 36.1544 0.727742C37.8541 0.0431322 40.6982 -0.235856 42.4711 0.231103C44.244 0.696084 45.837 2.13653 46.082 3.95491C47.0762 3.11398 48.5684 3.11992 49.78 3.60864L49.8096 3.59479C51.1575 4.0756 51.9244 5.5022 52.3217 6.87934C52.7189 8.25647 52.8889 9.72858 53.6182 10.9633C53.7704 11.2205 53.9522 11.5311 53.8178 11.7982C53.715 12.006 53.4522 12.0911 53.2229 12.0574C52.9936 12.0238 52.7901 11.8972 52.5944 11.7725C52.7446 12.1326 52.8948 12.4927 53.045 12.8548C52.5569 12.9399 52.0509 12.9003 51.5785 12.7559C51.2919 14.044 50.95 15.5141 50.6199 16.3867C50.0567 16.3847 49.5408 16.4263 49.193 16.7389C48.7206 17.1643 48.5091 17.9637 47.7245 17.661C47.3252 17.5066 46.9596 16.6677 46.8272 16.2601C45.9397 13.5573 45.6452 10.6605 45.9654 7.83304C45.4061 7.23747 44.7321 6.75073 43.991 6.40644L44.0522 6.45987C42.6272 5.96521 41.0184 5.47846 39.6665 6.14724C38.619 6.66564 38.0024 7.75588 37.2197 8.6245C35.7354 10.2707 33.7313 11.1651 31.5177 11.262C31.4426 12.6985 31.5631 14.7286 31.488 16.1651L30.2804 13.8639L30.2784 13.8758C30.1796 13.7076 30.0986 13.5375 30.0195 13.3673L29.9918 13.3159V13.3099C29.8654 13.0369 29.7468 12.7638 29.5887 12.4927C29.5847 12.4967 29.5788 12.5007 29.5748 12.5046C28.7981 13.1912 27.6518 12.1405 28.2644 11.3036C28.387 11.1374 28.5313 10.989 28.6973 10.8683C28.3415 11.2027 27.8118 11.3629 27.3454 11.2185C26.879 11.076 26.5173 10.6031 26.5588 10.1164C26.5864 9.78398 26.8236 9.48719 27.1221 9.3566C26.4936 9.40408 25.8512 9.26756 25.3037 8.95493C24.948 8.74915 24.5962 8.41278 24.7187 7.95968Z" fill="#623B2A"/>
<path d="M44.4777 4.54047C44.4678 4.55432 44.6912 4.67501 44.9896 5.0094C45.2841 5.34182 45.6161 5.9176 45.7723 6.70312C45.8533 7.09291 45.9027 7.53019 45.9027 7.99913C45.9047 8.47005 45.8671 8.97262 45.8316 9.5029C45.798 10.0332 45.7584 10.5931 45.794 11.1768C45.8118 11.4677 45.8454 11.7645 45.9086 12.0593C45.9719 12.3502 46.049 12.6648 46.2684 12.916C46.4423 13.1199 46.7348 13.2109 46.9878 13.1574C47.2427 13.1119 47.47 12.9774 47.6341 12.7914C47.9622 12.4075 48.0432 11.9228 48.1262 11.4934L48.0195 11.5073C48.1934 11.8931 48.3733 12.273 48.6401 12.5757C48.901 12.8804 49.2627 13.0842 49.6323 13.1159C49.8161 13.1317 49.9999 13.102 50.158 13.0229C50.3181 12.9438 50.4347 12.8112 50.5157 12.6707C50.5928 12.5282 50.6323 12.3699 50.6244 12.2176C50.6165 12.0652 50.5572 11.9228 50.4604 11.8199L50.4031 11.8713C50.7964 12.3185 51.2114 12.5599 51.498 12.6944C51.6423 12.7617 51.7589 12.8013 51.838 12.827C51.917 12.8508 51.9585 12.8606 51.9605 12.8567C51.9625 12.8527 51.9229 12.8369 51.8459 12.8072C51.7708 12.7756 51.6581 12.7301 51.5178 12.6588C51.2391 12.5164 50.8379 12.269 50.4604 11.8238L50.4031 11.8713C50.575 12.0534 50.5849 12.3719 50.4367 12.6291C50.3616 12.7558 50.2548 12.8745 50.1145 12.9398C49.9742 13.009 49.8062 13.0348 49.6382 13.017C49.3002 12.9833 48.9622 12.7934 48.7172 12.5025C48.4662 12.2117 48.2922 11.8416 48.1203 11.4558L48.0472 11.2916L48.0136 11.4677C47.9325 11.8951 47.8456 12.362 47.5451 12.7083C47.3969 12.8745 47.1894 12.9972 46.966 13.0348C46.7427 13.0783 46.5075 13.0051 46.3553 12.829C46.1636 12.6133 46.0846 12.3145 46.0233 12.0276C45.962 11.7388 45.9264 11.4499 45.9086 11.163C45.8731 10.5892 45.9086 10.0332 45.9403 9.5029C45.9739 8.97262 46.0075 8.46807 46.0015 7.99121C45.9976 7.51634 45.9423 7.07313 45.8553 6.6774C45.6853 5.88198 45.3355 5.29829 45.0252 4.96983C44.7109 4.64731 44.4777 4.54047 44.4777 4.54047Z" fill="url(#paint0_linear)"/>
<path d="M28.7079 9.50436C28.7059 9.50634 28.7197 9.51821 28.7494 9.53997C28.783 9.5657 28.8265 9.59538 28.8759 9.63297C28.9312 9.67452 29.0024 9.72399 29.0913 9.77148C29.1802 9.82292 29.2791 9.88426 29.4016 9.9357C29.876 10.1613 30.6349 10.3849 31.5836 10.3295C32.5244 10.276 33.6529 9.94362 34.6589 9.19173C35.6768 8.45964 36.5702 7.3793 37.3014 6.14265C37.673 5.52531 37.9734 4.89215 38.3074 4.30647C38.6375 3.72079 39.0032 3.18062 39.4459 2.75324C39.8827 2.32387 40.3906 2.00729 40.9144 1.86087C41.1753 1.7837 41.4381 1.76589 41.6891 1.77183C41.9401 1.78568 42.1793 1.83515 42.3987 1.90836C42.8374 2.05675 43.1932 2.29815 43.462 2.54944C43.7328 2.80072 43.9126 3.06784 44.0371 3.29736C44.2684 3.7663 44.2822 4.06705 44.3 4.0631C44.302 4.0631 44.3 4.04529 44.2961 4.00967C44.2901 3.96812 44.2822 3.91668 44.2723 3.85336C44.2466 3.71683 44.1893 3.51897 44.0786 3.27758C43.9581 3.04212 43.7802 2.76511 43.5075 2.50393C43.2367 2.24275 42.877 1.98948 42.4263 1.83119C42.201 1.75402 41.9559 1.69862 41.6951 1.68279C41.4361 1.6729 41.1594 1.69071 40.8887 1.76787C40.3452 1.91429 39.8194 2.23879 39.3708 2.67607C38.9162 3.11137 38.5407 3.66143 38.2066 4.25107C37.8687 4.8407 37.5663 5.47189 37.1987 6.08329C36.4733 7.31005 35.5918 8.37851 34.5937 9.10467C33.6055 9.84864 32.5026 10.183 31.5777 10.2463C30.6448 10.3116 29.8937 10.1059 29.4214 9.89613C28.9451 9.67848 28.7178 9.49051 28.7079 9.50436Z" fill="url(#paint1_linear)"/>
<path d="M28.2467 7.26299C28.2427 7.27091 28.308 7.31444 28.4285 7.38963C28.5491 7.46679 28.7349 7.56375 28.9701 7.66466C29.2053 7.76755 29.4958 7.8645 29.8278 7.94562C30.1599 8.02081 30.5315 8.07622 30.9228 8.09204C31.3161 8.10194 31.6896 8.07028 32.0256 8.01686C32.3597 7.9575 32.6581 7.87835 32.8992 7.79129C33.1404 7.70423 33.3321 7.62113 33.4566 7.55187C33.5831 7.4846 33.6503 7.44305 33.6463 7.43711C33.6364 7.41733 33.3558 7.56177 32.8716 7.71214C32.6304 7.78931 32.3359 7.85659 32.0079 7.91001C31.6778 7.9575 31.3102 7.9852 30.9248 7.97333C30.5394 7.95947 30.1757 7.90803 29.8496 7.84076C29.5235 7.76755 29.2349 7.68049 28.9997 7.58749C28.5293 7.40545 28.2566 7.24321 28.2467 7.26299Z" fill="url(#paint2_linear)"/>
<path d="M1.44358 35.3003C1.44358 33.8183 2.85871 33.8183 2.85871 33.8183C3.39828 33.1099 4.00504 33.3671 4.00504 33.3671L6.29574 34.9144C6.63173 35.4942 8.85523 37.6865 8.85523 37.6865C9.462 37.2354 9.462 36.3331 10.1874 35.2369C10.9147 34.1408 12.5591 34.2694 12.5591 34.2694C12.5591 34.2694 11.2783 37.1701 11.1439 38.9746C11.0096 40.7791 12.1282 45.8128 12.1282 45.8128L5.65142 47.6351C5.65142 47.6351 5.2423 44.8729 4.51694 44.6513C3.64336 44.3822 3.15716 43.0921 3.15716 43.0921C2.21242 41.1768 0.295264 38.3948 0.0264683 36.9762C-0.240352 35.5595 1.44358 35.3003 1.44358 35.3003Z" fill="#FFBE9D"/>
<path d="M49.604 32.097C45.4791 34.693 41.3227 35.6685 37.1109 33.9886L30.7823 35.6072L24.5546 77.2556L61.0634 77.5721L59.2648 67.8986L54.7387 33.1418L49.604 32.097Z" fill="url(#paint3_linear)"/>
<path d="M30.7831 35.605C30.7831 35.605 25.8598 37.651 23.9822 41.2363C22.1026 44.8216 19.0845 54.8829 19.0845 54.8829L13.5229 44.6573L3.19991 47.2988C3.19991 47.2988 10.8843 68.5177 12.8133 70.4489C14.9261 72.5641 20.6815 74.697 23.4979 73.0508C26.3163 71.4046 26.8895 65.158 26.8895 65.158L30.7831 35.605Z" fill="url(#paint4_linear)"/>
<path d="M30.4429 53.0254C30.4705 53.0254 30.4943 51.1754 30.4943 48.894C30.4943 46.6127 30.4705 44.7626 30.4429 44.7626C30.4152 44.7626 30.3915 46.6127 30.3915 48.894C30.3915 51.1754 30.4152 53.0254 30.4429 53.0254Z" fill="#623B2A"/>
<path d="M28.5152 37.9855C28.5013 37.9915 28.6002 38.2487 28.7563 38.6682C28.9105 39.0856 29.118 39.6674 29.3176 40.3164C29.5192 40.9673 29.6754 41.5609 29.7841 41.9942C29.8928 42.4276 29.956 42.6967 29.9718 42.6927C29.9797 42.6907 29.9718 42.6215 29.9521 42.4988C29.9343 42.3741 29.9007 42.1961 29.8552 41.9784C29.7643 41.5411 29.618 40.9396 29.4164 40.2867C29.2148 39.6337 28.9974 39.054 28.8235 38.6424C28.7365 38.4367 28.6634 38.2704 28.6101 38.1577C28.5547 38.0429 28.5231 37.9835 28.5152 37.9855Z" fill="#623B2A"/>
<path d="M55.4088 48.7396L54.2664 33.047C54.2664 33.047 62.86 33.8444 65.7041 39.9149C68.0995 45.0277 74.7147 60.4175 75.4222 62.5228C77.4995 68.7001 74.2542 77.1925 60.8737 76.7017L59.3479 68.3044L55.4088 48.7396Z" fill="url(#paint5_linear)"/>
<path d="M65.0295 70.0533C65.0335 70.0513 65.0078 69.9999 64.9603 69.9029C64.907 69.7981 64.8338 69.6576 64.7429 69.4815C64.5453 69.1075 64.2666 68.5832 63.9227 67.9381C63.8357 67.7759 63.7448 67.6057 63.648 67.4276C63.5511 67.2515 63.4385 67.0596 63.2547 66.9211C63.0709 66.7826 62.8297 66.7272 62.5945 66.7312C62.3574 66.7331 62.1182 66.7846 61.883 66.8459C61.4087 66.9706 60.9225 67.1486 60.4442 67.39C60.207 67.5107 59.9698 67.6532 59.7544 67.8313L59.6753 67.9005C59.6437 67.9282 59.618 67.9718 59.6081 68.0074C59.5824 68.0806 59.5706 68.1518 59.5647 68.223C59.5508 68.3655 59.5508 68.508 59.5548 68.6485C59.5765 69.2163 59.6457 69.7624 59.7168 70.2888C59.79 70.8151 59.869 71.3216 59.9501 71.8044C60.1121 72.768 60.2742 73.6327 60.4125 74.3568C60.5529 75.0731 60.6675 75.6568 60.7485 76.0723C60.7861 76.2682 60.8177 76.4225 60.8395 76.5393C60.8612 76.6461 60.8711 76.7015 60.8731 76.7015C60.877 76.7015 60.8731 76.6442 60.8592 76.5353C60.8454 76.4265 60.8197 76.2682 60.7861 76.0644C60.713 75.6469 60.6102 75.0612 60.4817 74.343C60.3533 73.6168 60.1971 72.7522 60.041 71.7886C59.9639 71.3078 59.8848 70.8012 59.8137 70.2749C59.7445 69.7486 59.6753 69.2025 59.6556 68.6445C59.6516 68.506 59.6516 68.3655 59.6635 68.231C59.6694 68.1637 59.6813 68.0984 59.701 68.041C59.7129 68.0113 59.7228 67.9935 59.7425 67.9737L59.8176 67.9084C60.0252 67.7383 60.2544 67.5998 60.4877 67.4791C60.9561 67.2397 61.4363 67.0636 61.9028 66.9369C62.136 66.8756 62.3672 66.8241 62.5926 66.8202C62.8159 66.8143 63.0353 66.8657 63.2013 66.9884C63.3693 67.1111 63.478 67.2911 63.5748 67.4632C63.6717 67.6393 63.7646 67.8095 63.8535 67.9698C64.2073 68.6089 64.4959 69.1293 64.7014 69.4973C64.8002 69.6694 64.8773 69.8079 64.9366 69.9108C64.9959 70.0058 65.0275 70.0553 65.0295 70.0533Z" fill="#623B2A"/>
<path d="M71.2435 62.5979C71.2435 62.594 71.208 62.594 71.1427 62.594C71.0657 62.598 70.9688 62.5999 70.8542 62.6059C70.6032 62.6177 70.2415 62.6395 69.7948 62.6811C69.3481 62.7226 68.8165 62.7859 68.2334 62.9086C67.6523 63.0293 67.0199 63.2173 66.3973 63.518C65.7787 63.8208 65.2292 64.1868 64.7825 64.5845C64.3418 64.9862 63.9999 65.4155 63.8022 65.8251C63.6026 66.2327 63.5196 66.5968 63.5058 66.8481C63.488 66.9727 63.5018 67.0717 63.4998 67.1389C63.5018 67.2042 63.5038 67.2398 63.5077 67.2398C63.5196 67.2398 63.5157 67.0994 63.5453 66.854C63.571 66.6067 63.6639 66.2525 63.8675 65.8588C64.0691 65.463 64.409 65.0475 64.8458 64.6557C65.2885 64.2679 65.832 63.9098 66.4428 63.611C67.0535 63.3162 67.678 63.1282 68.2532 63.0016C68.8283 62.875 69.358 62.8037 69.8007 62.7543C70.2454 62.7028 70.6051 62.6712 70.8561 62.6474C70.9708 62.6355 71.0657 62.6257 71.1427 62.6177C71.2099 62.6078 71.2435 62.6019 71.2435 62.5979Z" fill="#623B2A"/>
<path d="M62.0484 61.8063C62.0365 61.8122 62.1136 62.0477 62.2618 62.4236C62.4081 62.7995 62.6275 63.312 62.8805 63.872C63.1256 64.4181 63.3489 64.9127 63.5248 65.3065C63.6888 65.6745 63.7916 65.9021 63.8054 65.8961C63.8173 65.8902 63.7402 65.6547 63.592 65.2788C63.4457 64.9028 63.2264 64.3904 62.9734 63.8304C62.7283 63.2843 62.5049 62.7897 62.329 62.3959C62.165 62.0279 62.0622 61.8003 62.0484 61.8063Z" fill="#623B2A"/>
<path d="M57.2955 49.4539C57.3232 49.4539 57.3469 48.4587 57.3469 47.2319C57.3469 46.0051 57.3232 45.0099 57.2955 45.0099C57.2679 45.0099 57.2441 46.0051 57.2441 47.2319C57.2441 48.4606 57.2679 49.4539 57.2955 49.4539Z" fill="#623B2A"/>
<g opacity="0.3">
<g opacity="0.3">
<path opacity="0.3" d="M63.5097 67.238C65.7707 68.0275 67.2985 70.0813 67.9151 72.3964C67.9804 72.6397 68.0239 72.9266 67.8598 73.1186C67.6918 73.3164 67.3716 73.3105 67.1503 73.1759C66.9289 73.0434 66.7846 72.8158 66.6463 72.5962C65.5592 70.851 64.4959 69.2365 63.5097 67.238Z" fill="black"/>
</g>
</g>
<g opacity="0.3">
<g opacity="0.3">
<path opacity="0.3" d="M66.3135 62.7604C67.4954 62.1035 68.8552 61.8206 70.2051 61.7395C70.7348 61.7078 71.2605 61.7691 71.7784 61.878C72.484 62.0264 73.2963 62.3825 73.4504 62.891C71.8278 62.3825 69.4402 62.7169 67.7781 63.081C66.102 63.447 64.7403 64.3988 63.8074 65.8986C64.2066 64.6322 65.1533 63.4055 66.3135 62.7604Z" fill="black"/>
</g>
</g>
<path d="M58.5582 42.7719C58.5662 42.7738 58.5938 42.6848 58.6373 42.5245C58.6788 42.3643 58.748 42.1328 58.8409 41.8498C59.0267 41.2859 59.337 40.5202 59.7955 39.7386C60.256 38.957 60.7719 38.314 61.1751 37.8767C61.3766 37.6571 61.5446 37.4849 61.6652 37.3702C61.7838 37.2534 61.847 37.1862 61.8431 37.1802C61.8391 37.1743 61.766 37.2317 61.6375 37.3405C61.5091 37.4473 61.3312 37.6135 61.1217 37.8272C60.7027 38.2546 60.171 38.8977 59.7066 39.6872C59.2441 40.4786 58.9397 41.2542 58.7697 41.8281C58.6847 42.115 58.6254 42.3504 58.5958 42.5146C58.5642 42.6789 58.5503 42.7699 58.5582 42.7719Z" fill="#623B2A"/>
<path d="M55.403 77.5663L64.9788 54.436C65.4156 53.3813 64.8682 52.5246 63.7554 52.5246H61.8284C61.0418 52.5246 60.5062 52.0913 60.4567 51.4146L60.3935 50.5638C60.3421 49.8871 59.8065 49.4537 59.0179 49.4537H49.863C49.1495 49.4537 48.3432 49.8099 47.7423 50.3936L46.9992 51.1138C46.4003 51.6955 45.5939 52.0537 44.8804 52.0537H33.2214C32.1087 52.0537 30.8616 52.9084 30.4366 53.965L20.9438 77.5663H55.403Z" fill="#E04E39"/>
<g opacity="0.3">
<g opacity="0.3">
<path opacity="0.3" d="M55.403 77.5663L64.9788 54.436C65.4156 53.3813 64.8682 52.5246 63.7554 52.5246H61.8284C61.0418 52.5246 60.5062 52.0913 60.4567 51.4146L60.3935 50.5638C60.3421 49.8871 59.8065 49.4537 59.0179 49.4537H49.863C49.1495 49.4537 48.3432 49.8099 47.7423 50.3936L46.9992 51.1138C46.4003 51.6955 45.5939 52.0537 44.8804 52.0537H33.2214C32.1087 52.0537 30.8616 52.9084 30.4366 53.965L20.9438 77.5663H55.403Z" fill="black"/>
</g>
</g>
<path d="M56.9826 69.7109L60.5936 55.7318C60.8307 54.8117 60.2299 53.8877 59.3919 53.8877H31.0833C30.524 53.8877 30.0319 54.3131 29.8777 54.9285L24.6204 75.9693C24.3891 76.8934 24.7587 77.4474 25.5968 77.4375L54.0792 77.4454C54.6306 77.4375 55.1149 77.02 55.269 76.4125L56.9826 69.7109Z" fill="#E0E0E0"/>
<path d="M55.0304 76.9329L56.5681 54.9186C56.6234 54.137 56.0048 53.4742 55.2221 53.4742H25.8918V76.9329H55.0304Z" fill="#EBEBEB"/>
<path d="M55.358 77.4375L51.8696 54.7425C51.7095 54.0025 51.0435 53.4742 50.2746 53.4742H20.6043C19.4323 53.4742 18.6437 54.6534 19.1062 55.71L25.5138 76.4779L55.358 77.4375Z" fill="#FAFAFA"/>
<path d="M55.405 77.5566L48.2088 56.302C47.9084 55.4156 47.1079 54.824 46.2067 54.824H15.6193C14.6331 54.824 13.9393 55.8351 14.2536 56.8105L20.9458 77.5685L55.405 77.5566Z" fill="#E04E39"/>
<g opacity="0.3">
<g opacity="0.3">
<path opacity="0.3" d="M40.6132 73.997C40.6132 73.997 41.7675 74.0504 42.3011 74.086C44.8369 74.2601 47.4122 73.8011 49.7325 72.7663C50.4519 72.4457 51.2129 71.9926 51.4303 71.2348C51.6734 70.386 51.1239 69.5015 50.4559 68.9257C49.7859 68.35 48.9716 67.9404 48.3905 67.2755C47.8094 66.6107 47.5347 65.5343 48.1059 64.8636L48.264 64.9803C48.6771 66.029 49.8294 66.5355 50.784 67.137C52.5568 68.253 53.9068 70.0199 54.5195 72.0243C54.8554 73.1244 54.9444 74.4085 54.2783 75.3464C53.806 76.0112 53.0312 76.3892 52.2663 76.6741C49.9519 77.5328 47.4794 77.5645 45.0108 77.5684C44.2301 77.5684 41.8386 77.5368 41.8386 77.5368C41.0856 77.331 40.8385 76.9392 40.3859 76.3041C39.9709 75.7184 40.0618 74.4541 40.6132 73.997Z" fill="black"/>
</g>
</g>
<path d="M40.611 73.9963L48.5898 72.7952L51.6869 71.0105C52.096 70.775 52.3747 70.3556 52.3984 69.8846C52.3984 69.8767 52.3984 69.8668 52.4004 69.8589C52.4241 69.2713 52.0664 68.7351 51.5229 68.5075C50.5406 68.094 48.9832 67.5419 48.3191 66.3765C47.3645 64.7026 48.3191 64.3563 48.3191 64.3563L54.9816 67.0216L59.6974 70.2349L60.6461 75.593L54.0666 77.7438C54.0666 77.7438 46.734 78.1573 44.7101 77.9298C42.6862 77.7022 42.6862 76.7584 42.6862 76.7584C42.3107 76.6417 41.5517 75.9729 41.5517 75.3516C40.5714 74.4316 40.611 73.9963 40.611 73.9963Z" fill="#FFBE9D"/>
<path d="M50.8131 76.3031C50.8111 76.2932 50.6925 76.317 50.485 76.3664C50.2775 76.4179 49.9731 76.4851 49.5976 76.5584C48.8465 76.7087 47.797 76.867 46.6309 76.9125C45.4629 76.9561 44.4055 76.8829 43.6445 76.7899C43.2651 76.7444 42.9567 76.7008 42.7453 76.6672C42.5338 76.6355 42.4152 76.6217 42.4132 76.6296C42.4112 76.6395 42.5259 76.6692 42.7354 76.7186C42.9449 76.7681 43.2512 76.8275 43.6327 76.8848C44.3936 77.0016 45.4609 77.0926 46.6369 77.0471C47.8129 76.9996 48.8702 76.8275 49.6193 76.6514C49.9948 76.5643 50.2953 76.4812 50.5008 76.4159C50.7024 76.3506 50.8151 76.311 50.8131 76.3031Z" fill="#EB996E"/>
<path d="M50.0865 75.0688C50.0845 75.0589 49.966 75.0826 49.7525 75.1321C49.541 75.1836 49.2327 75.2508 48.8512 75.324C48.0883 75.4724 47.0211 75.6208 45.8352 75.6584C44.6493 75.6941 43.5742 75.6149 42.8034 75.5199C42.4179 75.4724 42.1057 75.4289 41.8902 75.3933C41.6748 75.3597 41.5542 75.3458 41.5523 75.3557C41.5503 75.3656 41.6669 75.3973 41.8804 75.4467C42.0938 75.4982 42.4041 75.5575 42.7915 75.6169C43.5643 75.7376 44.6454 75.8326 45.8411 75.7969C47.0369 75.7593 48.1101 75.5951 48.873 75.421C49.2544 75.3359 49.5608 75.2528 49.7683 75.1855C49.9758 75.1163 50.0885 75.0767 50.0865 75.0688Z" fill="#EB996E"/>
<path d="M3.03622 45.5261L17.2112 48.3299C18.1915 48.5238 19.1422 47.8847 19.3359 46.9053L23.2117 27.2633C23.4054 26.2819 22.767 25.3302 21.7887 25.1363L12.7998 23.3594L4.42368 29.1648L1.61516 43.4011C1.4195 44.3805 2.05788 45.3322 3.03622 45.5261Z" fill="#EBEBEB"/>
<path d="M12.7982 23.3588L11.7072 28.8871C11.5274 29.7993 10.6439 30.3929 9.73276 30.2128L4.42405 29.1641L12.7982 23.3588Z" fill="#F5F5F5"/>
<path d="M11.5372 29.3558C11.5372 29.3558 11.3435 30.7112 9.73076 30.8497C9.66949 30.8556 9.60823 30.8556 9.54893 30.8536C8.83149 30.8398 4.10779 30.7507 4.12756 30.6459C4.1493 30.5331 4.42007 29.1599 4.42007 29.1599L9.72879 30.2106C9.73077 30.2125 11.0649 30.4282 11.5372 29.3558Z" fill="#E0E0E0"/>
<path d="M3.03438 45.5259C3.03438 45.5259 3.00869 45.518 2.9573 45.5042C2.90591 45.4923 2.8308 45.4705 2.73396 45.431C2.54422 45.3558 2.25961 45.2074 2.00267 44.8967C1.75364 44.592 1.53031 44.0993 1.61332 43.5156C1.7161 42.9398 1.8584 42.279 2.00465 41.537C2.59561 38.5651 3.44152 34.311 4.46334 29.1705L4.44556 29.1982C6.98133 27.4431 9.80763 25.4863 12.8237 23.3988L12.7861 23.4067C14.4523 23.7371 16.1876 24.0794 17.9723 24.4336C18.8657 24.6097 19.7709 24.7898 20.686 24.9698C20.9152 25.0153 21.1445 25.0609 21.3738 25.1064C21.603 25.1558 21.8382 25.1855 22.0517 25.2666C22.4825 25.4249 22.8442 25.7633 23.034 26.1867C23.1664 26.4795 23.2197 26.81 23.1763 27.1266C23.1269 27.4451 23.0518 27.7716 22.9925 28.0921C22.866 28.7352 22.7395 29.3743 22.615 30.0075C22.3659 31.2758 22.1189 32.5263 21.8758 33.753C21.3915 36.2085 20.9251 38.5769 20.4824 40.8346C20.261 41.9624 20.0436 43.0625 19.8341 44.133C19.7294 44.6672 19.6246 45.1935 19.5238 45.7119C19.4724 45.9711 19.423 46.2283 19.3716 46.4836C19.3163 46.7388 19.2866 46.9961 19.1918 47.2256C19.004 47.6906 18.6107 48.0507 18.1581 48.2129C17.9328 48.296 17.6917 48.3297 17.4545 48.3158C17.2213 48.3 16.9841 48.2386 16.7528 48.1971C15.8219 48.0151 14.9286 47.839 14.0767 47.6708C10.6674 47.004 7.90827 46.4638 5.99903 46.0898C5.04639 45.9058 4.3072 45.7634 3.80124 45.6644C3.5522 45.6169 3.36049 45.5813 3.23005 45.5556C3.10158 45.5358 3.03438 45.5259 3.03438 45.5259C3.03438 45.5259 3.0996 45.5418 3.22807 45.5695C3.35851 45.5972 3.54825 45.6367 3.79729 45.6882C4.30128 45.7891 5.04047 45.9395 5.99113 46.1314C7.8984 46.5133 10.6555 47.0633 14.0629 47.744C14.9148 47.9141 15.8081 48.0902 16.737 48.2762C16.9703 48.3178 17.2015 48.3811 17.4505 48.3989C17.6976 48.4147 17.9486 48.3791 18.1858 48.294C18.6601 48.1259 19.0712 47.7479 19.2688 47.2612C19.3716 47.0158 19.4013 46.7547 19.4566 46.5034C19.508 46.2481 19.5574 45.9909 19.6088 45.7317C19.7116 45.2133 19.8163 44.687 19.9211 44.1528C20.1325 43.0843 20.35 41.9842 20.5733 40.8563C21.02 38.6007 21.4884 36.2323 21.9726 33.7768C22.2157 32.548 22.4628 31.2995 22.7118 30.0312C22.8363 29.398 22.9628 28.7589 23.0893 28.1159C23.1506 27.7914 23.2217 27.4768 23.2751 27.1444C23.3205 26.808 23.2652 26.4578 23.1249 26.1491C22.9233 25.7019 22.5418 25.3438 22.0853 25.1756C21.856 25.0886 21.6188 25.0609 21.3915 25.0114C21.1623 24.9659 20.931 24.9204 20.7037 24.8749C19.7887 24.6948 18.8834 24.5147 17.9901 24.3386C16.2054 23.9864 14.4701 23.6441 12.8019 23.3137L12.7822 23.3098L12.7644 23.3216C9.75032 25.413 6.92599 27.3739 4.39219 29.1309L4.37836 29.1408L4.3744 29.1586C3.36839 34.3011 2.53434 38.5572 1.95129 41.5311C1.80899 42.275 1.67261 42.9339 1.57181 43.5156C1.49078 44.1112 1.724 44.6098 1.97896 44.9165C2.2438 45.2291 2.53236 45.3736 2.72605 45.4468C2.8229 45.4844 2.89998 45.5042 2.95335 45.5141C3.00869 45.522 3.03438 45.5259 3.03438 45.5259Z" fill="#263238"/>
<path d="M4.41954 29.1626C4.41954 29.1666 4.46499 29.1785 4.55393 29.2002C4.65276 29.222 4.7832 29.2517 4.94329 29.2873C5.29312 29.3605 5.78131 29.4634 6.37819 29.588C6.98891 29.7127 7.71031 29.8591 8.5088 30.0194C8.91001 30.0985 9.33297 30.1816 9.76977 30.2687C10.2204 30.3498 10.7224 30.2331 11.1078 29.9343C11.3015 29.7859 11.4616 29.5999 11.5743 29.3902C11.6909 29.1844 11.7482 28.947 11.7857 28.7313C11.8707 28.294 11.9537 27.8726 12.0308 27.4689C12.185 26.6676 12.3233 25.9434 12.4419 25.332C12.5526 24.7325 12.6435 24.2418 12.7107 23.8896C12.7384 23.7273 12.7621 23.5967 12.7779 23.4958C12.7917 23.4048 12.7977 23.3573 12.7937 23.3573C12.7898 23.3573 12.7779 23.4028 12.7562 23.4918C12.7344 23.5908 12.7048 23.7194 12.6692 23.8816C12.5961 24.2319 12.4933 24.7206 12.3688 25.3181C12.2443 25.9295 12.098 26.6517 11.9359 27.4511C11.8549 27.8528 11.7719 28.2742 11.6849 28.7115C11.6454 28.9331 11.594 29.1448 11.4833 29.3407C11.3766 29.5366 11.2264 29.7127 11.0446 29.8512C10.6809 30.1322 10.2105 30.241 9.78557 30.1678C9.34878 30.0827 8.9278 30.0016 8.52658 29.9244C7.72612 29.7701 7.00275 29.6316 6.39203 29.5129C5.79317 29.4021 5.30301 29.311 4.9512 29.2457C4.78913 29.218 4.65869 29.1943 4.55789 29.1785C4.46895 29.1646 4.42151 29.1587 4.41954 29.1626Z" fill="#263238"/>
<path d="M12.091 28.343C12.0851 28.3707 13.7551 28.7249 15.8205 29.1325C17.8859 29.5401 19.5639 29.8488 19.5698 29.8211C19.5757 29.7934 17.9057 29.4392 15.8403 29.0316C13.7749 28.624 12.0969 28.3153 12.091 28.343Z" fill="#263238"/>
<path d="M7.99798 30.4012C7.99205 30.4289 10.4567 30.9394 13.5004 31.5409C16.5461 32.1424 19.0186 32.6094 19.0245 32.5797C19.0305 32.552 16.5658 32.0415 13.5201 31.438C10.4764 30.8385 8.00193 30.3735 7.99798 30.4012Z" fill="#263238"/>
<path d="M7.45426 33.1576C7.44834 33.1853 9.91296 33.6958 12.9567 34.2973C16.0024 34.8988 18.4749 35.3658 18.4808 35.3361C18.4868 35.3084 16.0221 34.7979 12.9764 34.1944C9.93272 33.5949 7.46019 33.1299 7.45426 33.1576Z" fill="#263238"/>
<path d="M17.9376 38.0965C17.9435 38.0688 15.4789 37.5583 12.4352 36.9568C9.38952 36.3552 6.91699 35.8883 6.91106 35.918C6.90513 35.9457 9.36975 36.4562 12.4154 37.0596C15.4592 37.6592 17.9337 38.1242 17.9376 38.0965Z" fill="#263238"/>
<path d="M6.36713 38.6737C6.3612 38.7014 8.82582 39.2119 11.8695 39.8134C14.9152 40.4149 17.3877 40.8819 17.3937 40.8522C17.3996 40.8245 14.935 40.314 11.8893 39.7105C8.84558 39.111 6.37306 38.646 6.36713 38.6737Z" fill="#263238"/>
<path d="M5.8239 41.4302C5.81797 41.4579 8.28259 41.9684 11.3263 42.5699C14.372 43.1714 16.8445 43.6384 16.8505 43.6087C16.8564 43.581 14.3918 43.0705 11.3461 42.467C8.30235 41.8694 5.82785 41.4025 5.8239 41.4302Z" fill="#263238"/>
<path d="M5.26495 30.9091C5.26495 30.9091 4.21743 29.5814 3.41105 30.3234C2.60466 31.0654 2.83788 31.4473 3.60474 32.6206C3.60474 32.6206 1.89314 32.5316 2.44259 34.2906C2.44259 34.2906 0.736927 34.1026 0.900971 35.5411C0.900971 35.5411 -0.385692 36.8015 0.282344 37.6147C0.952358 38.4279 3.3814 39.8961 3.9941 39.6428C4.60679 39.3895 4.61273 38.5209 4.61273 38.5209C4.61273 38.5209 5.34203 38.1925 5.54363 37.8066C5.74522 37.4228 5.39934 36.8826 5.39934 36.8826C5.39934 36.8826 6.01402 36.2534 6.1662 36.0773C6.31839 35.9012 6.0832 35.086 6.0832 35.086L5.10091 34.1323C5.10091 34.1323 6.45279 34.7199 6.73542 34.4964C7.01805 34.2728 7.33428 34.0789 7.03386 33.6693C6.73147 33.2597 5.66024 32.3436 5.66024 32.3436L5.26495 30.9091Z" fill="#FFBE9D"/>
<path d="M4.47597 38.6244C4.49178 38.6066 4.30995 38.4147 4.03325 38.0862C3.75457 37.7637 3.36126 37.2869 2.78414 36.9406C2.21888 36.5943 1.69907 36.3153 1.38086 36.0364C1.05475 35.7653 0.926286 35.5298 0.902568 35.5437C0.886757 35.5476 0.983602 35.8167 1.30379 36.1234C1.61606 36.436 2.14377 36.7388 2.69718 37.0791C3.25453 37.4115 3.64389 37.8587 3.94827 38.1654C4.24869 38.474 4.46214 38.6402 4.47597 38.6244Z" fill="#EB996E"/>
<path d="M5.42183 37.1381C5.45345 37.1065 4.82495 36.4258 4.01857 35.6205C3.6134 35.2228 3.26555 34.837 2.96711 34.6015C2.67262 34.3601 2.44928 34.2711 2.44138 34.2909C2.42952 34.3126 2.62518 34.4314 2.892 34.6886C3.16277 34.9379 3.49481 35.3336 3.90393 35.7353C4.71031 36.5426 5.39021 37.1698 5.42183 37.1381Z" fill="#EB996E"/>
<path d="M5.10109 34.1346C5.13272 34.0931 4.74534 33.7864 4.31448 33.3748C3.87571 32.9672 3.66225 32.5299 3.62075 32.5458C3.57332 32.5557 3.74132 33.0622 4.19985 33.4916C4.64849 33.917 5.07738 34.1643 5.10109 34.1346Z" fill="#EB996E"/>
<path d="M5.2634 30.9054C5.26143 30.9074 5.26736 30.941 5.2812 31.0043C5.29898 31.0776 5.32072 31.1705 5.34839 31.2833C5.41559 31.5406 5.50651 31.8967 5.62312 32.3498L5.62509 32.3597L5.633 32.3676C5.83065 32.5417 6.05201 32.7416 6.29313 32.9672C6.52635 33.1947 6.807 33.442 7.02244 33.7487C7.06987 33.8259 7.10545 33.9129 7.09754 33.996C7.08964 34.0791 7.03627 34.1583 6.96512 34.2275C6.89594 34.2968 6.81095 34.3601 6.72399 34.4274C6.65284 34.4887 6.55995 34.4867 6.45124 34.4808C6.02433 34.4313 5.57568 34.2552 5.12506 34.0693L4.80883 33.9387L5.0539 34.1781C5.36223 34.4808 5.69229 34.8014 6.03224 35.1357L6.01643 35.114C6.14095 35.4187 6.22 35.8025 6.06781 36.1092C5.89784 36.4139 5.59545 36.6712 5.29305 36.8987L5.22586 36.9482L5.27922 37.0115C5.49267 37.2648 5.64486 37.6644 5.3642 37.9098C5.11517 38.169 4.77523 38.3669 4.43725 38.5449L4.55189 38.6083L4.54991 38.5885C4.54991 38.5885 4.54991 38.5806 4.54991 38.5825V38.5845C4.53015 38.6083 4.59537 38.5271 4.50248 38.6538C4.28112 38.5489 4.43923 38.6102 4.38982 38.5944V38.5964L4.3918 38.634V38.7131C4.38982 38.7665 4.38389 38.82 4.37599 38.8754C4.36017 38.9822 4.33251 39.0871 4.291 39.186C4.2495 39.283 4.19218 39.374 4.11707 39.4472C4.04197 39.5184 3.95105 39.5837 3.86409 39.5936C3.66447 39.6154 3.43125 39.5422 3.2178 39.465C3.00039 39.3859 2.78693 39.2849 2.57546 39.1761C2.17622 38.9684 1.79476 38.7349 1.43308 38.4836C1.07337 38.2303 0.723537 37.9672 0.433001 37.6625C0.284769 37.5121 0.187918 37.3459 0.174083 37.148C0.156295 36.9541 0.203735 36.7562 0.27884 36.5722C0.433002 36.2022 0.684008 35.8738 0.950827 35.5928L0.974543 35.5671L0.972565 35.5295C0.962682 35.3356 0.954778 35.1377 1.02988 34.9676C1.09708 34.7954 1.21962 34.6549 1.37378 34.56C1.68803 34.37 2.08134 34.3364 2.4292 34.3581L2.52802 34.3641L2.5043 34.2671C2.47861 34.1603 2.44699 34.0554 2.42525 33.9486C2.41932 33.8417 2.38769 33.7368 2.40153 33.634C2.3956 33.4262 2.4628 33.2283 2.57743 33.076C2.81855 32.7693 3.24152 32.6763 3.5953 32.6763H3.70993L3.64866 32.5833C3.44509 32.2726 3.24546 31.9778 3.09723 31.683C3.02608 31.5346 2.97074 31.3862 2.95691 31.2378C2.94307 31.0894 2.97865 30.947 3.04387 30.8223C3.1842 30.5809 3.38579 30.3692 3.58146 30.2366C3.79096 30.11 4.03011 30.114 4.22182 30.1713C4.61118 30.294 4.85626 30.5295 5.01833 30.67C5.09936 30.7432 5.15668 30.8045 5.19621 30.8441C5.24166 30.8856 5.26143 30.9054 5.2634 30.9054C5.26538 30.9034 5.24957 30.8777 5.21399 30.8342C5.17842 30.7906 5.12506 30.7254 5.046 30.6462C4.96892 30.5671 4.86812 30.4721 4.73965 30.3751C4.61118 30.2782 4.45109 30.1733 4.24554 30.108C4.04592 30.0427 3.77911 30.0289 3.54589 30.1674C3.49252 30.207 3.43718 30.2465 3.38184 30.2881C3.33243 30.3336 3.28302 30.3811 3.23361 30.4305C3.13874 30.5334 3.03794 30.6403 2.96481 30.7788C2.88971 30.9133 2.84425 31.0795 2.86006 31.2477C2.8739 31.4159 2.93121 31.5781 3.00434 31.7325C3.15455 32.0392 3.3522 32.3379 3.55182 32.6506L3.60518 32.5576C3.40556 32.5516 3.20792 32.5793 3.0083 32.6427C2.81263 32.706 2.61498 32.8188 2.47663 32.9949C2.33828 33.171 2.2612 33.4025 2.26713 33.63C2.2533 33.7448 2.28492 33.8556 2.29085 33.9723C2.31259 34.0851 2.34421 34.1959 2.37188 34.3087L2.44698 34.2177C2.06751 34.1919 1.66432 34.2216 1.29868 34.4333C1.1208 34.5402 0.970587 34.7103 0.89153 34.9122C0.80259 35.114 0.810501 35.3356 0.822359 35.5473L0.844097 35.484C0.55949 35.7808 0.302553 36.1112 0.132579 36.5129C0.0515456 36.7127 -0.00577259 36.9343 0.0139918 37.1638C0.0238743 37.2806 0.0614285 37.3914 0.108863 37.4982C0.172109 37.5991 0.237333 37.6961 0.314414 37.7733C0.620761 38.0938 0.972566 38.3609 1.33821 38.6181C1.70582 38.8734 2.09123 39.1108 2.49837 39.3225C2.7138 39.4333 2.93319 39.5362 3.1585 39.6193C3.38579 39.6985 3.61704 39.7816 3.88583 39.7539C4.17044 39.6945 4.33646 39.4729 4.43725 39.2513C4.48469 39.1366 4.51631 39.0198 4.53213 38.9011C4.54003 38.8417 4.54596 38.7824 4.54793 38.723V38.634L4.54596 38.5865L4.54398 38.5766V38.5746C4.49655 38.5568 4.65269 38.6181 4.43133 38.5133C4.33843 38.6379 4.40366 38.5588 4.38389 38.5825V38.5885V38.6043L4.38587 38.628L4.39575 38.7468L4.5005 38.6914C4.85231 38.5034 5.19226 38.3095 5.47291 38.0186C5.54011 37.9434 5.60533 37.8584 5.63893 37.7515C5.67253 37.6466 5.67253 37.5358 5.65276 37.4349C5.60928 37.2311 5.51046 37.0629 5.38595 36.9106L5.37211 37.0234C5.68834 36.78 5.99271 36.5287 6.19035 36.1745C6.28324 35.9905 6.30104 35.7828 6.28127 35.5928C6.26151 35.4009 6.21209 35.2228 6.13699 35.0507L6.13304 35.0388L6.12315 35.0289C5.77925 34.6985 5.44919 34.3779 5.13691 34.0791L5.06379 34.188C5.52825 34.374 5.97097 34.5461 6.43346 34.5976C6.54414 34.6055 6.68842 34.6015 6.78724 34.5164C6.87025 34.4492 6.95721 34.3839 7.03627 34.3047C7.11335 34.2275 7.1845 34.1266 7.19636 34.004C7.20624 33.8833 7.15683 33.7764 7.10347 33.6894C6.86234 33.3589 6.58564 33.1294 6.34451 32.8999C6.09944 32.6763 5.87413 32.4804 5.67055 32.3102L5.68241 32.3281C5.54999 31.8769 5.44722 31.5208 5.37211 31.2655C5.33851 31.1547 5.31084 31.0637 5.28713 30.9925C5.27922 30.9331 5.26736 30.9034 5.2634 30.9054Z" fill="#EB996E"/>
</g>
<defs>
<linearGradient id="paint0_linear" x1="46.1883" y1="12.6089" x2="46.2984" y2="4.33148" gradientUnits="userSpaceOnUse">
<stop offset="0.00505051" stop-color="#C39367"/>
<stop offset="1" stop-color="#704232"/>
</linearGradient>
<linearGradient id="paint1_linear" x1="32.2728" y1="9.77277" x2="32.326" y2="1.46956" gradientUnits="userSpaceOnUse">
<stop offset="0.00505051" stop-color="#C39367"/>
<stop offset="1" stop-color="#704232"/>
</linearGradient>
<linearGradient id="paint2_linear" x1="29.4811" y1="8.0395" x2="29.4826" y2="7.24106" gradientUnits="userSpaceOnUse">
<stop offset="0.00505051" stop-color="#C39367"/>
<stop offset="1" stop-color="#704232"/>
</linearGradient>
<linearGradient id="paint3_linear" x1="32.9018" y1="74.6032" x2="33.5279" y2="30.9973" gradientUnits="userSpaceOnUse">
<stop offset="0.00505051" stop-color="#C39367"/>
<stop offset="1" stop-color="#704232"/>
</linearGradient>
<linearGradient id="paint4_linear" x1="9.50639" y1="71.1533" x2="10.086" y2="34.687" gradientUnits="userSpaceOnUse">
<stop offset="0.00505051" stop-color="#C39367"/>
<stop offset="1" stop-color="#704232"/>
</linearGradient>
<linearGradient id="paint5_linear" x1="59.2352" y1="73.8707" x2="60.205" y2="32.0047" gradientUnits="userSpaceOnUse">
<stop offset="0.00505051" stop-color="#C39367"/>
<stop offset="1" stop-color="#704232"/>
</linearGradient>
<clipPath id="clip0">
<rect width="76" height="78" fill="white" transform="matrix(-1 0 0 1 76 0)"/>
</clipPath>
</defs>
</svg>
