<svg width="89" height="74" viewBox="0 0 89 74" fill="none" xmlns="http://www.w3.org/2000/svg">
<g clip-path="url(#clip0)">
<path d="M38.2513 35.2045C38.2513 35.2045 37.5405 53.3211 38.3163 54.5929C39.0921 55.8646 38.5897 68.2213 38.7913 69.0382C38.9912 69.8566 39.8268 72.4898 37.954 74.3076C36.0812 76.1255 34.9654 68.738 34.9722 65.7088C34.979 62.6796 31.0505 34.5145 31.0505 34.5145L38.2513 35.2045Z" fill="#FFB27D"/>
<path d="M41.6355 142.878L38.7169 143.862C38.7169 143.862 26.0428 127.947 24.4827 113.946C24.2042 111.446 24.2965 109.025 24.8997 106.787C24.8997 106.787 24.7749 106.147 24.5596 105.014C24.4588 104.487 24.3358 103.85 24.1956 103.121C23.7838 100.983 23.2165 98.0587 22.5689 94.7293C21.0771 87.0665 19.1462 77.2703 17.6442 70.0685L18.4302 69.8395L26.9365 67.3549L28.6949 62.2989L35.0293 60.7889C35.0293 60.7889 36.4442 63.2953 37.7087 75.1337C37.9428 76.687 38.1547 78.3996 38.3136 80.2562C38.8074 85.9248 38.8416 92.9548 37.7104 100.994C37.4199 103.051 37.0525 105.175 36.598 107.358C36.2648 108.958 36.2135 111.139 36.3553 113.643C36.9961 125.09 41.6355 142.878 41.6355 142.878Z" fill="#F99746"/>
<path d="M38.317 80.257L24.563 105.015C24.4622 104.488 24.3392 103.85 24.1991 103.122C23.7872 100.984 23.2199 98.0596 22.5723 94.7302C21.0805 87.0674 19.1496 77.2711 17.6476 70.0693L18.4336 69.8404L26.9399 67.3557L28.6983 62.2998L35.0327 60.7898C35.0327 60.7898 36.4476 63.2961 37.7121 75.1346C37.9462 76.6863 38.1581 78.399 38.317 80.257Z" fill="#E58638"/>
<path d="M32.2672 63.9658L31.9494 61.4935C26.6145 62.7761 12.3616 57.9089 12.3616 57.9089C12.3616 57.9089 7.19419 62.0211 7.87258 71.8808C8.20408 76.6923 8.80899 97.1404 9.44124 103.191C9.67022 105.383 9.87015 106.944 9.95217 107.568C9.95388 107.571 9.95388 107.573 9.95388 107.574C9.97951 107.764 9.90603 107.944 9.79838 108.109C8.8688 109.539 8.09814 111.027 7.46589 112.55C1.26471 127.512 8.4211 145.938 8.4211 145.938L10.2785 145.26C10.2785 145.26 14.3506 124.755 17.6605 115.695C18.2227 114.159 18.761 112.95 19.2548 112.229C20.6936 110.127 22.0282 106.692 23.2414 102.606C25.5312 94.8816 27.3766 84.8331 28.6036 77.076C28.7676 77.0852 32.2672 63.9658 32.2672 63.9658Z" fill="#F99746"/>
<path d="M36.6763 15.7307C36.678 15.7074 36.6797 15.6811 36.6814 15.6579C36.6814 15.6564 36.6814 15.6564 36.6814 15.6564C36.719 15.1242 36.7412 14.5935 36.7515 14.0675V14.066C36.7839 12.457 36.7019 10.8944 36.5174 9.4819V9.48035C36.4114 8.67121 36.2747 7.91313 36.1055 7.22312C36.0799 7.11792 36.0526 7.01272 36.0252 6.91216C35.6066 5.3403 35.0239 4.16914 34.3113 3.65859C33.0127 2.72569 31.3192 2.40853 30.1146 2.30488C30.47 2.06198 31.092 2.04032 31.092 2.04032C30.3692 1.83765 28.604 2.27084 28.604 2.27084C18.9186 -2.75725 14.9645 10.7428 14.6381 13.9639C14.4604 15.7075 14.2024 17.5856 13.1104 19.2797C13.0916 19.3091 13.0711 19.3401 13.0506 19.3694C12.1211 20.768 10.6122 22.0428 8.0832 23.0005C-4.96336 27.9389 3.87276 38.2333 3.87276 38.2333C3.94624 38.2875 10.9215 47.2096 10.9215 47.2096C10.9659 46.5645 26.9994 30.2843 27.4471 30.0414C27.6402 29.9362 27.8299 29.8341 28.0179 29.7351C28.5749 29.4426 29.1098 29.175 29.6173 28.9398C29.7831 28.864 29.9454 28.7913 30.1043 28.7217C30.1419 28.7047 30.1761 28.6892 30.2137 28.6737H30.2154C30.323 28.6258 30.4307 28.5809 30.5366 28.5376C30.8818 28.2019 31.203 27.8151 31.5021 27.3989C31.6114 27.2442 31.7208 27.0864 31.825 26.9255C31.9054 26.8017 31.984 26.6764 32.0591 26.5496C32.1565 26.3902 32.2505 26.2278 32.3411 26.0669C32.3411 26.0669 32.3411 26.0669 32.3428 26.0653C32.5701 25.6569 32.7768 25.2469 32.9597 24.8586C32.9836 24.8091 33.0075 24.7565 33.0297 24.707C33.3254 24.0665 33.5526 23.4878 33.7064 23.0686C33.8226 22.7545 33.8978 22.5286 33.9303 22.4312C33.8722 22.654 33.8124 22.8675 33.7526 23.0748C33.5817 23.6658 33.4091 24.1995 33.2382 24.6822C33.2211 24.7271 33.204 24.7735 33.1869 24.8184C32.917 25.5563 32.6487 26.1674 32.3889 26.6749C32.3274 26.7956 32.2659 26.9116 32.2044 27.0199C32.201 27.0276 32.1959 27.0354 32.1924 27.0431C32.0369 27.32 31.8883 27.5598 31.7447 27.7702C31.6747 27.8692 31.608 27.9621 31.5431 28.0472C31.6302 27.9946 31.7157 27.9389 31.7994 27.8816C31.8968 27.8151 31.9942 27.7439 32.0882 27.6728C32.2967 27.5119 32.4966 27.337 32.6897 27.1498C32.7768 27.0663 32.8606 26.9781 32.946 26.8884C33.0622 26.7631 33.1767 26.6331 33.2878 26.497C33.7594 25.9214 34.178 25.2577 34.5471 24.5275C35.3656 22.9046 35.9381 20.9521 36.2952 18.8976C36.4781 17.8579 36.6028 16.792 36.6763 15.7307Z" fill="#2C2A29"/>
<path d="M19.8434 24.6581C19.8434 24.6581 22.7603 24.6364 25.6277 25.1114C27.5774 25.4348 29.4707 26.1387 30.5387 26.6446C33.1771 27.8947 32.4697 32.2606 26.805 30.9966C21.1387 29.7357 19.3171 25.9267 19.8434 24.6581Z" fill="#FFB27D"/>
<path d="M30.0993 28.6844C30.1318 28.703 30.5573 32.5228 26.8116 32.0788C24.3527 31.7864 19.2861 28.6643 19.9389 26.7877C20.2499 25.895 22.3397 23.6811 23.23 18.3235L23.6692 18.4674L31.0494 20.8948C31.0494 20.8948 30.5077 23.0406 30.154 25.0828C29.8584 26.797 29.696 28.44 30.0993 28.6844Z" fill="#FFB27D"/>
<path d="M31.0474 20.893C31.0474 20.893 30.5057 23.0388 30.1519 25.081C25.9107 24.3786 24.2566 20.5449 23.6671 18.4656L31.0474 20.893Z" fill="#F4A269"/>
<path d="M23.01 17.6067C23.01 17.6067 21.3217 14.101 21.25 11.2961C21.1987 9.2926 23.5261 2.21924 31.3711 4.379C31.3711 4.379 33.666 4.9112 35.6277 6.55732C37.1878 7.86463 39.3101 10.5148 35.4261 16.4294L34.3341 18.4577L23.01 17.6067Z" fill="#2C2A29"/>
<path d="M36.1587 17.3118C35.1437 20.2296 33.628 23.1289 32.1431 23.0283C32.1431 23.0283 31.6168 22.9633 30.8137 22.7947C28.1035 22.2238 22.2561 20.474 22.9977 16.0864C23.6146 12.4399 23.5633 9.49113 25.1627 7.99198C26.0564 7.15345 27.4644 6.76977 29.7935 6.97089C36.2852 7.53249 37.1703 9.87481 37.36 11.8443C37.442 12.7091 36.955 15.0158 36.1587 17.3118Z" fill="#F4A269"/>
<path d="M30.8137 22.7944C28.1035 22.2236 22.2561 20.4738 22.9977 16.0862C23.6146 12.4397 23.5633 9.49089 25.1627 7.99175C26.7826 7.80764 27.0834 11.858 27.0834 11.858C27.0834 11.858 25.0892 19.6476 30.8137 22.7944Z" fill="#E5925A"/>
<path d="M34.4061 7.47241C34.4061 7.47241 30.5118 13.7567 26.1083 14.1513C21.7048 14.5458 20.0421 13.2632 20.0421 13.2632C20.0421 13.2632 23.6887 11.3804 25.0574 7.39505C25.0574 7.39505 32.8648 4.00689 34.4061 7.47241Z" fill="#2C2A29"/>
<path d="M33.632 7.91822C33.632 7.91822 35.4399 9.69429 35.6962 11.212C35.9525 12.7297 35.6705 15.7404 36.648 15.7744C36.648 15.7744 39.4982 11.5307 37.5981 8.64072C35.5834 5.5759 33.632 7.91822 33.632 7.91822Z" fill="#2C2A29"/>
<path d="M7.28428 69.1286C9.96878 71.2048 22.0755 68.6799 25.9203 67.0214C27.6137 66.2912 29.9188 66.0653 32.1061 65.9106C34.8863 65.7172 37.4768 65.6445 38.3824 64.8199C38.6969 64.5337 37.4819 61.3637 36.2584 57.9863C35.1699 54.9834 34.0729 51.8149 34.0353 50.3669C34.0302 50.1673 34.0456 50.0002 34.0831 49.8702C34.8094 47.4011 35.469 45.1284 35.5254 44.05C35.6672 41.3395 35.0589 37.2041 35.0589 37.2041C39.2112 36.8142 39.2488 35.312 39.2488 35.312C38.8489 34.0975 36.6685 29.5892 35.7424 28.514C34.8162 27.4388 30.5374 26.6404 30.5374 26.6404C30.5374 26.6404 31.2876 30.3875 26.5525 30.0178C21.8141 29.6465 19.8421 24.654 19.8421 24.654C19.8421 24.654 10.5105 22.454 9.59285 29.5041C8.65986 36.6657 11.8741 50.1626 11.5802 54.4079C10.9377 57.6212 4.93471 67.3107 7.28428 69.1286Z" fill="#D8B89A"/>
<path d="M18.6007 42.0548C18.6007 42.0548 23.2947 56.2557 36.2559 57.9885C35.1674 54.9856 34.0703 51.8171 34.0327 50.369C28.1101 46.0387 20.0105 41.5969 18.6007 42.0548Z" fill="#CFA580"/>
<path d="M11.325 32.4776C11.325 32.4776 22.673 51.7902 31.0666 51.8257C31.0666 51.8257 32.5429 51.8706 31.8936 48.5134C31.7039 47.5325 30.5351 45.2258 28.9186 42.4425C27.1757 39.4427 24.9149 35.889 22.7943 32.8381C20.1457 29.0276 17.7141 26.0015 16.788 25.8174C14.4315 25.3455 11.2412 28.8064 11.325 32.4776Z" fill="#FFB27D"/>
<path d="M22.3366 30.7718C22.3366 30.7718 20.2843 35.9685 12.2582 35.1099C12.2582 35.1099 7.2668 30.2829 12.6238 25.8628C17.9809 21.4412 22.3366 30.7718 22.3366 30.7718Z" fill="#D8B89A"/>
<path d="M36.2652 24.3246C36.2652 24.3246 37.8099 19.1573 37.0068 18.9329C36.2037 18.7086 31.349 19.4172 31.4293 20.9163C31.5114 22.4155 32.5212 24.7701 32.5212 24.7701L36.2652 24.3246Z" fill="#FFB27D"/>
<path d="M22.7921 32.8376C23.4739 37.7373 28.5832 45.1897 28.5832 45.1897C28.9335 44.4193 29.0189 43.474 28.9181 42.4421C27.1734 39.4438 24.9127 35.8885 22.7921 32.8376Z" fill="#F4A269"/>
<path d="M31.0639 51.8245C31.9918 52.3056 35.0761 50.4801 35.0761 50.4801C38.2801 47.7015 36.2637 24.3247 36.2637 24.3247L32.5198 24.7703C31.5782 32.1268 29.7345 37.8418 28.7604 42.1752C27.6822 46.9588 27.66 50.0592 31.0639 51.8245Z" fill="#FFB27D"/>
<path d="M31.0618 51.8245C31.9896 52.3056 35.074 50.4801 35.074 50.4801C38.278 47.7015 36.2616 24.3247 36.2616 24.3247C36.2616 24.3247 35.3833 47.7541 31.7402 51.3944C31.5266 51.611 31.2993 51.7564 31.0618 51.8245Z" fill="#F4A269"/>
<path d="M44.6834 68.976C44.6834 68.976 42.9029 72.6813 42.4278 73.1888C41.9528 73.6962 39.5708 74.9881 39.3828 74.9014C39.1965 74.8148 39.1316 74.6353 39.3691 74.2965C39.6084 73.9577 40.6234 72.997 40.4251 72.9691C40.2286 72.9413 37.0742 75.5574 36.3668 75.1381C35.6594 74.7189 35.7602 72.2002 36.8265 70.7274C37.8944 69.2545 41.9767 67.6827 42.1937 67.4599C44.0392 65.5631 44.6834 68.976 44.6834 68.976Z" fill="#FFB27D"/>
<path d="M59.7397 22.1269C59.7397 22.1269 57.2312 39.9589 54.7569 48.3303C54.7569 48.3303 39.9264 67.5066 39.9657 68.4844C39.9657 68.4844 41.6163 71.2692 45.4816 69.8675C45.4816 69.8675 63.1402 57.9332 65.3907 54.415C67.6411 50.8969 73.087 32.7478 72.9589 30.6035C72.8324 28.4608 64.3056 17.1654 59.7397 22.1269Z" fill="#CFA580"/>
<path d="M53.4382 68.351C53.4382 68.351 54.2943 78.0158 55.2991 89.633C56.6661 105.415 58.31 124.799 58.4723 128.472C58.7525 134.849 59.882 145.049 59.882 145.049C59.882 145.049 62.5563 147.472 67.9099 146.45C67.9099 146.45 72.6808 131.889 74.0427 116.483C74.0632 116.231 74.0854 115.976 74.1059 115.722C75.3739 100.037 77.3441 67.0112 77.3441 67.0112L53.4382 68.351Z" fill="#2C2A29"/>
<path d="M53.4382 68.351C53.4382 68.351 54.2943 78.0158 55.2991 89.633L74.041 116.483C74.0615 116.231 74.0837 115.976 74.1042 115.722C75.3721 100.037 77.3424 67.0112 77.3424 67.0112L53.4382 68.351Z" fill="#2C2A29"/>
<path d="M57.3484 69.4992C57.3484 69.4992 72.7702 104.501 82.9101 120.951C93.05 137.4 96.2198 141.99 96.2198 141.99C96.2198 141.99 102.03 139.886 102.558 138.452C102.558 138.452 98.6805 106.696 91.8898 98.9545C88.0518 94.5809 83.5458 81.4537 83.3339 76.8634C83.122 72.2732 81.96 63.187 81.96 63.187L57.3484 69.4992Z" fill="#2C2A29"/>
<path d="M66.2648 18.0347C66.2648 18.0347 65.5779 24.1675 59.7356 25.3943C59.7356 25.3943 57.1023 23.8348 55.8788 22.2413C55.7285 22.0448 55.5815 21.8561 55.4414 21.6766C54.0556 19.8882 53.2234 18.9166 53.2234 18.9166C53.2234 18.9166 53.2251 18.915 53.2268 18.9119C53.3772 18.7031 58.3002 11.9252 58.454 12.1403C62.0219 17.0941 66.2648 18.0347 66.2648 18.0347Z" fill="#FFB27D"/>
<path d="M58.6501 13.7288C58.8261 15.245 58.1973 18.8126 55.4444 21.6748C54.0586 19.8863 53.2264 18.9147 53.2264 18.9147C53.2264 18.9147 53.2281 18.9132 53.2299 18.9101C53.3854 18.7492 58.5988 13.2817 58.6501 13.7288Z" fill="#ED975D"/>
<path d="M51.6476 19.6158C51.6476 19.6158 60.5812 16.4937 58.3461 11.4873C56.1144 6.47932 55.7624 2.70438 49.9645 4.48665C44.1666 6.26891 43.9171 8.58183 44.2144 10.4167C44.5117 12.2516 49.2673 20.2981 51.6476 19.6158Z" fill="#FFB27D"/>
<path d="M81.5458 69.4688C77.1167 72.8941 51.4354 72.7905 52.558 69.9562C53.0895 68.621 54.0515 66.0049 54.5231 62.2005C54.9469 58.7861 54.9794 54.4109 53.949 49.1383C53.6978 47.845 53.3817 46.4974 52.9921 45.0973C52.4675 43.2052 52.0744 41.2698 51.8215 39.373C51.7395 38.7495 51.6712 38.1307 51.6182 37.518C51.2132 32.7607 51.7498 28.4288 53.3782 25.9008C55.8543 22.0563 63.5763 16.8657 63.5763 16.8657C63.5763 16.8657 79.6149 20.3189 83.3298 47.0915C83.3298 47.0931 85.3991 66.4876 81.5458 69.4688Z" fill="#D8B89A"/>
<path d="M46.7409 14.0183C47.1014 13.3793 47.8772 13.0281 48.6599 13.1426C49.9568 13.3329 51.8655 13.8218 52.7182 15.0811C53.7503 16.6035 52.8259 19.1454 53.3146 21.0236C53.7367 22.6465 51.6844 24.2849 51.6844 24.2849C51.6844 24.2849 50.7053 22.6975 48.9555 21.6223C47.5218 20.742 45.6148 17.8969 45.7293 16.5803C45.7959 15.8299 46.3103 14.7825 46.7409 14.0183Z" fill="#E04E39"/>
<path d="M58.9802 12.8348C59.1306 12.8301 61.135 12.267 60.0021 4.6707C59.8244 3.47788 58.7103 1.34906 56.2821 0.362009C53.8539 -0.625044 48.7771 0.556944 44.958 2.06692C41.1388 3.57689 41.6275 5.80163 42.1368 8.02482C42.6716 10.3594 41.3883 13.3484 41.3883 13.3484C45.4159 13.0189 47.3366 8.73804 48.8147 8.3327C50.2928 7.92735 52.0323 9.3971 52.5433 9.89682C53.0542 10.3965 53.5429 10.7725 54.698 9.32903C55.8532 7.88558 56.8699 10.8638 56.981 11.4857C56.981 11.4872 57.7192 12.8688 58.9802 12.8348Z" fill="#2C2A29"/>
<path d="M53.9524 49.1412C53.7012 47.8479 53.3851 46.5003 52.9955 45.1002C52.4709 43.2081 52.0779 41.2727 51.825 39.3759C56.0884 34.1637 62.4314 29.0165 66.2676 29.2068C66.2659 29.2068 66.4692 44.8527 53.9524 49.1412Z" fill="#CFA580"/>
<path d="M69.3436 21.7858C69.3436 21.7858 62.8366 20.2727 57.659 25.9769C52.483 31.6826 43.3171 47.1877 43.3171 47.1877C43.3171 47.1877 45.1336 50.0282 50.4974 48.4935C53.2212 47.7153 81.8792 26.6808 69.3436 21.7858Z" fill="#D8B89A"/>
<path d="M44.6492 23.8496C44.6492 23.8496 45.0986 22.1632 44.5946 20.5651C44.1827 19.2578 45.0286 15.981 45.5498 15.3312C46.0709 14.6814 48.4188 13.4051 48.6427 13.7671C48.8682 14.1291 48.0173 16.1079 47.9489 16.4529C47.778 17.3038 47.8754 18.3512 48.0292 18.2661C48.183 18.1825 49.4441 16.999 49.4441 16.999C49.4441 16.999 49.7209 17.3316 49.4441 18.0417C49.1656 18.7519 48.4359 20.3052 47.9421 20.7182C47.4482 21.1329 47.4568 24.2843 47.4568 24.2843L44.6492 23.8496Z" fill="#FFB27D"/>
<path d="M43.7131 20.6338C43.7131 20.6338 39.8427 36.7748 43.3269 47.2317C43.3269 47.2317 48.3456 48.1042 50.2868 45.4541C52.228 42.8039 48.7335 21.3888 48.7335 21.3888C48.7335 21.3888 46.5599 19.0016 43.7131 20.6338Z" fill="#D8B89A"/>
</g>
<defs>
<clipPath id="clip0">
<rect x="0.953125" width="88" height="74" rx="10" fill="white"/>
</clipPath>
</defs>
</svg>
