<svg width="82" height="105" viewBox="0 0 82 105" fill="none" xmlns="http://www.w3.org/2000/svg">
<g filter="url(#filter0_d)">
<path d="M40.2763 97.0002C28.8807 97.0002 0.381703 97.0002 4.3817 97.0002C4.3817 97.0002 4.3817 77.1025 4.3817 67.5C5.3817 57 7.38184 51 11.3818 46C13.0707 44.2966 17.6318 40.5 20.8818 39.5C27.3818 37.5 33.3385 38 40.4706 38L40.2763 53C36.2152 53 28.5 54.5 24.3817 59.4999C19.8248 65.0323 20.8818 75.0002 20.8818 75.0002C20.8818 75.0002 26.3807 75.0002 40.2763 75.0002V97.0002Z" fill="#E84B37"/>
<path d="M40.4706 38L40.4706 32C38.076 32 35.0375 30.3513 34.076 29.5C32.3817 28 31.1526 25.268 31.576 22C31.7469 20.6801 31.8121 18.7638 34.076 16.5C36.076 14.5 37.3817 14.5 40.4706 14.0002L40.4706 6.5002V0C33.576 0 32.576 0.5 27.576 3C24.076 5.5 22.8818 6 18.576 12.5C16.3818 17 15.576 19.9999 15.576 27.9999C15.576 27.9999 16.3818 36 20.8818 39.5C27.3818 37.5 33.3385 38 40.4706 38Z" fill="#E84B37"/>
</g>
<g filter="url(#filter1_d)">
<path d="M40.38 89C51.7756 89 81.3817 89 77.3817 89C77.3817 89 77.3818 76.6025 77.3818 67C76.3818 56.5 73.6139 50.79 66.8818 44C65.193 42.2966 62.3408 40.8628 60.3818 39.5C53.8818 37.5 47.5137 38 40.3816 38L40.3818 53C44.443 53 53.1166 53.7056 56.4705 59.4999C58.4457 62.9122 59.5182 66.7098 59.3818 67C59.3818 67 54.2774 67 40.3817 67L40.38 89Z" fill="#C39367"/>
<path d="M40.3816 38L40.3816 32C42.7763 32 45.8148 30.3513 46.7763 29.5C48.4706 28 49.6996 25.268 49.2763 22C49.1053 20.6801 49.0401 18.7638 46.7763 16.5C44.7763 14.5 43.4708 14.4998 40.3818 14L40.3816 6.5002L40.3818 0C47.2765 0 48.2763 0.5 53.2763 3C56.7763 5.5 58.3818 6.5002 62.2763 12.5C64.8727 16.5 65.8818 23.5 65.3818 28C64.8818 32.5 62.2618 38.1806 60.3818 39.5C53.8818 37.5 47.5137 38 40.3816 38Z" fill="#C39367"/>
</g>
<defs>
<filter id="filter0_d" x="0" y="0" width="44.4706" height="105" filterUnits="userSpaceOnUse" color-interpolation-filters="sRGB">
<feFlood flood-opacity="0" result="BackgroundImageFix"/>
<feColorMatrix in="SourceAlpha" type="matrix" values="0 0 0 0 0 0 0 0 0 0 0 0 0 0 0 0 0 0 127 0"/>
<feOffset dy="4"/>
<feGaussianBlur stdDeviation="2"/>
<feColorMatrix type="matrix" values="0 0 0 0 0.486275 0 0 0 0 0.101961 0 0 0 0 0.101961 0 0 0 0.6 0"/>
<feBlend mode="normal" in2="BackgroundImageFix" result="effect1_dropShadow"/>
<feBlend mode="normal" in="SourceGraphic" in2="effect1_dropShadow" result="shape"/>
</filter>
<filter id="filter1_d" x="36.38" y="0" width="45.3705" height="97" filterUnits="userSpaceOnUse" color-interpolation-filters="sRGB">
<feFlood flood-opacity="0" result="BackgroundImageFix"/>
<feColorMatrix in="SourceAlpha" type="matrix" values="0 0 0 0 0 0 0 0 0 0 0 0 0 0 0 0 0 0 127 0"/>
<feOffset dy="4"/>
<feGaussianBlur stdDeviation="2"/>
<feColorMatrix type="matrix" values="0 0 0 0 0.486275 0 0 0 0 0.101961 0 0 0 0 0.101961 0 0 0 0.6 0"/>
<feBlend mode="normal" in2="BackgroundImageFix" result="effect1_dropShadow"/>
<feBlend mode="normal" in="SourceGraphic" in2="effect1_dropShadow" result="shape"/>
</filter>
</defs>
</svg>
