<svg width="64" height="77" viewBox="0 0 64 77" fill="none" xmlns="http://www.w3.org/2000/svg">
<g clip-path="url(#clip0)">
<path d="M12.1497 63.0995H61.794C64.5027 63.0995 66.7168 60.8757 66.7168 58.1549V24.6543C66.7168 21.9335 64.5027 19.7097 61.794 19.7097H12.1497C9.44091 19.7097 7.22686 21.9335 7.22686 24.6543V58.1549C7.22686 60.8757 9.44091 63.0995 12.1497 63.0995Z" fill="#623B2A"/>
<path d="M11.7317 24.6543V58.1579C11.7317 60.8787 13.9458 63.1026 16.6546 63.1026H66.2989C69.0076 63.1026 71.2217 60.8787 71.2217 58.1579V24.6543C71.2217 21.9335 69.0076 19.7097 66.2989 19.7097H16.6546C13.9458 19.7066 11.7317 21.9335 11.7317 24.6543Z" fill="#8E6455"/>
<path d="M52.3275 19.7055C49.1512 15.9363 45.0157 14.4516 42.3703 14.4516C35.897 14.4516 32.2833 19.5116 32.1476 19.7055L33.7252 19.8116C33.8398 19.648 36.4008 16.4089 41.9962 16.4089C44.2947 16.4089 47.6671 16.418 50.4362 19.7055C50.6111 19.9207 52.3667 19.754 52.3275 19.7055Z" fill="#623B2A"/>
<path d="M11.7317 26.0249V35.7627C11.7317 38.4835 13.9458 40.7074 16.6546 40.7074H66.2989C69.0076 40.7074 71.2217 38.4835 71.2217 35.7627V26.0249C71.2217 23.3042 69.0076 21.0803 66.2989 21.0803H16.6546C13.9458 21.0803 11.7317 23.3042 11.7317 26.0249Z" fill="#623B2A"/>
<path d="M11.7317 24.6543V34.3921C11.7317 37.1129 13.9458 39.3368 16.6546 39.3368H66.2989C69.0076 39.3368 71.2217 37.1129 71.2217 34.3921V24.6543C71.2217 21.9335 69.0076 19.7097 66.2989 19.7097H16.6546C13.9458 19.7066 11.7317 21.9335 11.7317 24.6543Z" fill="#8E6455"/>
<path d="M43.8667 35.5014C43.8667 34.6682 43.194 33.9895 42.3615 33.9895C41.532 33.9895 40.8563 34.6651 40.8563 35.5014C40.8563 36.3346 41.529 37.0133 42.3615 37.0133C43.194 37.0133 43.8667 36.3376 43.8667 35.5014Z" fill="#623B2A"/>
<path d="M17.8094 3.66963C17.8094 3.66963 21.0454 0.123255 22.0464 0.00570769C23.0464 -0.11289 27.1653 1.86968 27.4015 2.65158C27.6366 3.43348 22.8708 1.86968 22.6054 2.65158C22.3411 3.43348 22.0464 3.9656 20.6933 4.02437C19.3401 4.08314 18.1625 4.8514 18.1625 4.8514L17.8094 3.66963Z" fill="#E3CCB7"/>
<path d="M14.7867 125.01C16.0144 124.545 22.8522 108.058 22.568 102.706C22.5335 102.071 22.6579 96.8618 22.8522 95.7818C23.0037 94.9412 23.2075 93.962 23.452 92.8757C23.8261 91.2216 24.2921 89.3167 24.8104 87.2743C26.2638 81.5344 28.1164 74.7093 29.3933 69.2759C27.1008 64.1122 24.1636 59.5929 21.4688 58.05C19.5462 58.2851 17.6925 58.642 16.3195 58.9411C15.2255 59.5866 14.4084 60.1386 13.8013 60.6099C13.5882 61.6804 13.2768 63.4667 13.025 65.7662C12.863 67.2713 12.7261 68.9967 12.6624 70.8838C12.2058 84.2758 14.5369 98.8276 8.59354 122.58C8.42844 123.242 12.886 125.731 14.7867 125.01Z" fill="#AE8E81"/>
<path d="M13.026 65.7662C14.0166 70.7452 16.4 81.3864 24.8104 87.2743C26.2638 81.5344 28.1164 74.7093 29.3933 69.2759C27.1008 64.1122 24.1636 59.5929 21.4688 58.05C19.5462 58.2851 17.6925 58.642 16.3195 58.9411C15.2255 59.5866 14.4084 60.1386 13.8013 60.6099C13.5892 61.6804 13.2778 63.4656 13.026 65.7662Z" fill="#8E6455"/>
<path d="M23.3667 18.9222L23.3709 19.7576C23.3709 19.7576 23.1442 22.3699 26.3468 22.7509C29.5494 23.1329 31.9746 21.7318 31.8879 19.7167C31.5995 18.156 31.2829 17.0844 31.2609 15.7925C31.2526 15.3128 31.286 14.8038 31.3748 14.2287L25.1702 14.1038L23.3427 14.4039L23.3667 18.9222Z" fill="#E3CCB7"/>
<path d="M23.3411 14.4043L23.3651 18.9225C24.0245 19.23 24.7684 19.4179 25.6022 19.4179C28.4538 19.4179 30.297 17.3178 31.2604 15.7928C31.252 15.3132 31.2855 14.8042 31.3743 14.229L25.1697 14.1041L23.3411 14.4043Z" fill="#E8945B"/>
<path d="M22.9828 16.5998C22.9828 16.5998 30.9293 18.2119 31.8529 13.2256C32.7766 8.23926 34.4244 5.08856 29.3891 3.84907C24.3537 2.60852 23.0131 4.3266 22.3015 5.9156C21.591 7.50459 20.939 16.052 22.9828 16.5998Z" fill="#E3CCB7"/>
<path d="M20.1273 60.6888C20.1273 60.6888 24.4834 80.1839 25.8794 88.9842C26.4019 92.2766 27.4907 102.825 27.661 106.156C27.894 110.725 29.3945 124.71 29.3945 124.71C29.3945 124.71 31.9242 123.105 35.6795 124.603C35.6795 124.603 36.6283 118.334 37.2312 105.205C37.4078 101.356 36.668 95.5743 36.7579 93.6966C37.1999 84.4628 40.1371 60.5902 37.8017 59.0579C35.4653 57.5245 20.1273 60.6888 20.1273 60.6888Z" fill="#AE8E81"/>
<path d="M20.7544 2.21046C20.7544 2.21046 22.9706 2.03939 25.585 0.897498C27.7061 -0.0292395 30.3831 0.990907 31.2514 1.4506C31.2285 1.30996 31.172 1.1179 31.0393 0.925836C31.0393 0.925836 31.4291 1.20396 31.4865 1.59229C31.5262 1.62168 31.5451 1.64267 31.5346 1.64896C31.5346 1.64896 31.9766 1.56815 32.2608 1.69619C32.2608 1.69619 32.0623 1.66786 31.9912 1.7959C31.9839 1.80954 31.9724 1.82109 31.9599 1.83158C35.2691 3.43737 35.5752 8.69133 34.5094 9.90669C33.2284 11.3687 31.6924 14.6621 31.6924 14.6621C31.6924 14.6621 31.1323 13.8844 31.3653 12.5966C31.5984 11.3099 30.4918 11.3099 29.0937 10.7243C27.6957 10.1397 28.8607 8.50137 27.6382 7.50641C26.4146 6.51145 21.9309 7.09709 21.9884 6.33618C20.3228 5.72955 20.7544 2.38154 20.7544 2.21046Z" fill="#8E6455"/>
<path d="M18.632 1.9455C18.632 1.9455 19.3018 2.21837 19.7041 3.16925C20.2182 4.38566 19.7992 5.04896 19.7992 5.04896C19.7992 5.04896 11.3888 12.7106 11.9353 14.1054C12.2205 14.8338 18.7365 18.6719 21.4449 20.242C22.5588 20.1486 23.4198 20.1559 23.448 20.1559L23.449 20.157C23.449 20.157 25.2912 25.794 31.8866 19.7172C33.0454 21.4101 42.0252 25.5673 40.4662 32.7419C40.0995 34.4275 39.7829 36.0186 39.5102 37.5184C37.6565 47.6841 37.8017 53.6812 38.1633 56.9883C38.4444 59.5691 39.5102 59.8293 38.5572 60.5157C38.5572 60.5157 36.7025 61.3512 33.2324 62.0732C30.6526 62.6096 27.1814 63.0871 22.9161 63.1144C16.1316 63.1574 13.5632 60.8086 13.5632 60.8086C11.767 59.0443 15.3197 52.1006 15.0355 47.0891C14.8892 44.5177 15.0501 35.7153 15.0752 31.6704C15.0752 31.6704 15.0742 31.6693 15.0731 31.6683C15.0721 31.6672 15.07 31.6651 15.0679 31.663C14.7429 31.3051 4.81639 20.3354 2.86243 14.1085C2.86243 14.1075 2.86138 14.1075 2.86138 14.1054C2.76316 13.7916 2.68479 13.4904 2.62941 13.2017C2.03382 10.1361 18.632 1.9455 18.632 1.9455Z" fill="#D8B89A"/>
<path d="M38.1641 56.9877C37.8026 53.6806 37.6584 47.6836 39.511 37.5178C39.3835 37.1137 39.2581 36.7244 39.1338 36.3539C38.5716 34.6778 36.184 34.7617 35.7431 36.4746C34.3743 41.7936 33.1402 50.8353 38.1641 56.9877Z" fill="#CFA580"/>
<path d="M40.1893 51.4306C40.1893 51.4306 36.064 48.9253 34.7861 49.2434C33.5071 49.5603 30.734 50.7715 30.9053 51.5124C31.0767 52.2524 34.2992 52.7582 34.8603 52.6711C35.4214 52.584 36.3263 52.6858 36.693 53.0049C37.0608 53.3229 39.9834 53.4425 40.3408 52.5819C40.6981 51.7223 40.1893 51.4306 40.1893 51.4306Z" fill="#E3CCB7"/>
<path d="M31.8872 19.7172C31.8872 19.7172 36.9445 20.0855 39.6926 21.7029C41.47 22.7493 51.7727 39.2374 51.7727 41.6639C51.7727 44.0905 40.9538 52.6998 40.9538 52.6998C40.9538 52.6998 38.9455 53.3694 38.8745 50.1578C38.8745 50.1578 44.2714 42.1446 43.9872 41.2168C43.8085 40.6344 35.8547 34.2249 35.8547 34.2249L31.8872 19.7172Z" fill="#D8B89A"/>
<path d="M2.85991 14.108C4.81387 20.3349 14.7394 31.3036 15.0654 31.6625C15.0685 31.6657 15.0695 31.6667 15.0706 31.6678C15.0716 31.6688 15.0737 31.6709 15.0737 31.6709C15.0737 31.6709 15.0737 31.6699 15.0748 31.6678C15.103 31.5576 15.9222 28.4205 13.9672 26.1766C11.9777 23.8928 5.11167 18.1676 2.85991 14.108Z" fill="#CFA580"/>
<path d="M33.796 20.6565C33.8179 20.2167 31.7417 19.608 31.7417 19.608C31.7417 19.608 29.3656 22.9161 25.4525 22.9738C25.4525 22.9738 26.5674 25.1537 27.8829 25.7184C27.8829 25.7184 33.6674 23.2698 33.796 20.6565Z" fill="#CFA580"/>
<path d="M25.4524 22.8961C25.4524 22.8961 23.3793 21.6618 23.372 20.3226C23.372 20.3226 22.0335 20.1547 21.4483 20.8065C21.4483 20.8065 20.9562 23.1007 21.6093 24.4326C21.6093 24.4326 24.5945 23.9761 25.4524 22.8961Z" fill="#CFA580"/>
<path d="M18.2452 53.9737C18.2849 55.0547 18.7237 56.0822 19.4771 56.8557L20.661 58.0721C20.9577 58.3775 21.4509 58.3628 21.731 58.0417L23.3735 56.1577C23.8145 55.6529 24.0433 54.9959 24.0141 54.3253C23.9472 52.8307 23.8281 49.9519 23.757 47.1748C23.6985 44.9246 23.6713 42.7405 23.7298 41.416C23.9158 37.1864 25.4529 23.7482 25.4529 23.7482H24.4414C24.4414 23.7482 21.663 28.8499 19.9807 35.9018C19.5659 37.6377 19.219 39.4901 18.9944 41.416C18.9944 41.416 18.0675 49.0881 18.2452 53.9737Z" fill="#F17757"/>
<path d="M26.8624 22.6976L24.0506 22.0206C24.0506 22.0206 23.6839 22.0532 23.6933 22.5129C23.7037 22.9726 24.4853 24.317 24.8312 24.4241C25.1781 24.5311 27.527 23.6285 26.8624 22.6976Z" fill="#E04E39"/>
<path d="M33.796 20.013C33.8179 19.5732 31.7417 18.9645 31.7417 18.9645C31.7417 18.9645 29.3656 22.2726 25.4525 22.3303C25.4525 22.3303 26.5674 24.5102 27.8829 25.0749C27.8829 25.0759 33.6674 22.6273 33.796 20.013Z" fill="#D8B89A"/>
<path d="M25.4524 22.3313C25.4524 22.3313 23.3793 21.0971 23.372 19.7579C23.372 19.7579 22.0335 19.59 21.4483 20.2417C21.4483 20.2417 20.9562 22.536 21.6093 23.8679C21.6093 23.8679 24.5945 23.4113 25.4524 22.3313Z" fill="#D8B89A"/>
<path d="M18.2435 53.9739C18.2832 55.0549 18.7221 56.0824 19.4754 56.8559L20.6593 58.0723C20.9561 58.3777 21.4493 58.363 21.7293 58.0418L23.3719 56.1579C23.8128 55.6531 24.0417 54.9961 24.0124 54.3254C23.9455 52.8309 23.8264 49.952 23.7554 47.175C21.1306 43.8816 20.2267 39.4735 19.978 35.902C19.5632 37.6379 19.2163 39.4903 18.9917 41.4162C18.9927 41.4162 18.0659 49.0883 18.2435 53.9739Z" fill="#E04E39"/>
</g>
<defs>
<clipPath id="clip0">
<rect width="64" height="77" fill="white" transform="matrix(-1 0 0 1 64 0)"/>
</clipPath>
</defs>
</svg>
