<svg width="81" height="105" viewBox="0 0 81 105" fill="none" xmlns="http://www.w3.org/2000/svg">
<g filter="url(#filter0_d)">
<path d="M41.1375 97C30.3223 89.5139 19.9313 78.1778 14.514 71.1195C4 57.4204 4 45.8088 4 36.2063C4 26.6038 7.78201 17.3946 14.514 10.6046C21.246 3.81458 30.3766 -1.14509e-07 39.8971 0V20.7619C35.836 20.7619 31.9412 22.3891 29.0696 25.2855C26.1979 28.1819 24.2781 31.8334 23.619 36.2063C23.619 40.3024 21.8741 44.3513 29.0696 55.9334C36.2651 67.5155 39.8971 68.0248 39.8971 68.8942L41.1375 97Z" fill="#E04E39"/>
<path d="M40.6041 86.5404C51.4192 79.7517 61.0438 70.0916 66.4611 63.6908C76.9751 51.2678 76.9751 40.7379 76.9751 32.0299C75.8443 22.5067 72.1234 15.6819 66.4611 10.2958C59.7291 4.13834 49.4231 0.0134887 39.9026 0.0134888V10.2958V20.7375C44.0439 20.957 48.118 21.743 50.0118 23.5132C51.9055 25.2834 55.1749 27.5064 56.2435 32.4711C57.312 37.4358 56.9304 42.6167 51.9055 49.9194C47.0798 56.1262 45.8074 56.902 39.8376 62.721L40.6041 86.5404Z" fill="#C39367"/>
<ellipse cx="39.8373" cy="37.1373" rx="6.08632" ry="6.13872" fill="#C39367"/>
</g>
<defs>
<filter id="filter0_d" x="0" y="0" width="80.9751" height="105" filterUnits="userSpaceOnUse" color-interpolation-filters="sRGB">
<feFlood flood-opacity="0" result="BackgroundImageFix"/>
<feColorMatrix in="SourceAlpha" type="matrix" values="0 0 0 0 0 0 0 0 0 0 0 0 0 0 0 0 0 0 127 0"/>
<feOffset dy="4"/>
<feGaussianBlur stdDeviation="2"/>
<feColorMatrix type="matrix" values="0 0 0 0 0.486275 0 0 0 0 0.101961 0 0 0 0 0.101961 0 0 0 0.6 0"/>
<feBlend mode="normal" in2="BackgroundImageFix" result="effect1_dropShadow"/>
<feBlend mode="normal" in="SourceGraphic" in2="effect1_dropShadow" result="shape"/>
</filter>
</defs>
</svg>
