<svg width="124" height="70" viewBox="0 0 124 70" fill="none" xmlns="http://www.w3.org/2000/svg">
<g clip-path="url(#clip0)">
<path d="M4.85193 18.7704C6.53422 15.8147 9.28992 15.0487 14.0391 16.6707C13.083 14.508 15.9514 10.2412 20.5382 14.7558C19.1627 7.50622 30.0457 6.66816 29.5089 13.6835C32.2286 10.2952 39.4178 12.2191 36.6215 16.2697C40.8204 15.2289 42.5207 16.2021 45.281 18.7704H4.85193Z" fill="white"/>
<path d="M126.822 20.3923H114.235C113.761 18.7703 114.05 16.9364 119.191 18.4098C120.801 15.4225 123.94 18.4053 126.822 20.3923Z" fill="white"/>
<path d="M122.296 10.6286H94.7704C95.6183 8.08741 100.598 6.00128 106.799 7.74948C108.608 4.38826 111.535 4.99201 114.277 8.74974C117.898 6.4924 121.809 9.79505 122.296 10.6286Z" fill="white"/>
<path d="M88.3306 23.2629V10.7822H79.9147V17.1668L88.3306 23.2629Z" fill="white"/>
<path d="M88.3306 23.2629V10.7822H79.9147V17.1668L88.3306 23.2629Z" fill="white"/>
<path d="M79.9147 16.7656V17.1666L88.3306 23.2628V16.7656H79.9147Z" fill="#F8B79E"/>
<path d="M81.6747 11.832H81.0162V13.3549H81.6747V11.832Z" fill="#2C2A29"/>
<path d="M83.5302 11.832H82.8717V13.3549H83.5302V11.832Z" fill="#2C2A29"/>
<path d="M85.377 11.832H84.7185V13.3549H85.377V11.832Z" fill="#2C2A29"/>
<path d="M87.2294 11.832H86.5709V13.3549H87.2294V11.832Z" fill="#2C2A29"/>
<path d="M116.244 69.8602H100.477V34.7881L116.244 44.7005V69.8602Z" fill="#F8B79E"/>
<path d="M116.244 50.2786L100.477 38.4151V34.7881L116.244 44.7005V50.2786Z" fill="#F49678"/>
<path d="M100.474 69.5042H13.4104V32.1792L56.2163 0.968506L100.474 32.1792V69.5042Z" fill="white"/>
<path d="M56.4204 0.427917L13.3755 32.5353V36.8562L55.7304 5.49679L100.476 38.4152V33.6797L56.4204 0.427917Z" fill="#9BB8CC"/>
<path d="M56.4198 0L9.93359 33.3104L12.3285 36.1535L56.4198 3.26661L116.274 47.9313L118.507 44.962L56.4198 0Z" fill="#2C2A29"/>
<path d="M106.538 40.7539H100.477V41.0918H106.538V40.7539Z" fill="#F49678"/>
<path d="M113.195 45.5795H100.477V45.9175H113.195V45.5795Z" fill="#F49678"/>
<path d="M116.244 50.4005H100.477V50.7384H116.244V50.4005Z" fill="#F49678"/>
<path d="M116.244 55.226H100.477V55.5639H116.244V55.226Z" fill="#F49678"/>
<path d="M116.244 60.047H100.477V60.3849H116.244V60.047Z" fill="#F49678"/>
<path d="M116.244 64.8726H100.477V65.2105H116.244V64.8726Z" fill="#F49678"/>
<path d="M122.946 68.3457H100.477V69.774H122.946V68.3457Z" fill="#2C2A29"/>
<path d="M42.9727 36.1263H43.4688V19.4238H43.1846L42.9727 36.1263Z" fill="#9BB8CC"/>
<path d="M29.8599 43.3804H22.1295V43.5155H29.8599V43.3804Z" fill="#F8B79E"/>
<path d="M91.2737 43.3804H83.5433V43.5155H91.2737V43.3804Z" fill="#F8B79E"/>
<path d="M20.7031 43.5156V46.5029L22.1283 46.4623V43.5156H20.7031Z" fill="#9BB8CC"/>
<path d="M92.6994 43.5156H91.2742V44.4573L92.6994 44.4168V43.5156Z" fill="#9BB8CC"/>
<path d="M29.8594 43.5156V46.237L52.6041 45.5792V43.5156H29.8594Z" fill="#9BB8CC"/>
<path d="M60.339 43.5156V45.3539L83.5438 44.6826V43.5156H60.339Z" fill="#9BB8CC"/>
<path d="M83.5446 67.5938H60.3398V69.7204H83.5446V67.5938Z" fill="#704232"/>
<path d="M83.5446 67.5946H60.3398V69.7213H83.5446V67.5946Z" fill="#704232"/>
<path d="M81.4962 65.4678H62.3867V67.5944H81.4962V65.4678Z" fill="#704232"/>
<path d="M81.4962 67.2383H62.3867V67.5942H81.4962V67.2383Z" fill="#8E6455"/>
<path d="M52.6043 49.1884H29.8596V69.7252H52.6043V49.1884Z" fill="#704232"/>
<path d="M52.6043 50.1075H29.8596V50.4454H52.6043V50.1075Z" fill="#8E6455"/>
<path d="M52.6043 51.3239H29.8596V51.6618H52.6043V51.3239Z" fill="#8E6455"/>
<path d="M52.6043 52.545H29.8596V52.8829H52.6043V52.545Z" fill="#8E6455"/>
<path d="M52.6043 53.7614H29.8596V54.0993H52.6043V53.7614Z" fill="#8E6455"/>
<path d="M52.6043 54.9783H29.8596V55.3162H52.6043V54.9783Z" fill="#8E6455"/>
<path d="M52.6043 56.1948H29.8596V56.5327H52.6043V56.1948Z" fill="#8E6455"/>
<path d="M52.6043 57.4112H29.8596V57.7491H52.6043V57.4112Z" fill="#8E6455"/>
<path d="M52.6043 58.6276H29.8596V58.9655H52.6043V58.6276Z" fill="#8E6455"/>
<path d="M52.6043 59.8441H29.8596V60.182H52.6043V59.8441Z" fill="#8E6455"/>
<path d="M52.6043 61.061H29.8596V61.3989H52.6043V61.061Z" fill="#8E6455"/>
<path d="M52.6043 62.282H29.8596V62.62H52.6043V62.282Z" fill="#8E6455"/>
<path d="M52.6043 63.4985H29.8596V63.8364H52.6043V63.4985Z" fill="#8E6455"/>
<path d="M52.6043 64.7149H29.8596V65.0528H52.6043V64.7149Z" fill="#8E6455"/>
<path d="M52.6043 65.9313H29.8596V66.2693H52.6043V65.9313Z" fill="#8E6455"/>
<path d="M52.6043 67.1477H29.8596V67.4856H52.6043V67.1477Z" fill="#8E6455"/>
<path d="M52.6043 68.3647H29.8596V68.7026H52.6043V68.3647Z" fill="#8E6455"/>
<path d="M52.6043 48.2872H29.8596V49.1884H52.6043V48.2872Z" fill="#2C2A29"/>
<path d="M13.9347 69.7746H0.769531C0.954448 69.0898 1.43252 68.5536 1.97825 68.3103C2.56457 68.049 3.21855 68.0895 3.82291 68.2833C3.71015 68.2472 3.56132 68.0174 3.48465 67.9228C3.29973 67.693 3.15089 67.4497 3.10579 67.1298C3.05618 66.7739 3.15089 66.4134 3.34483 66.1296C3.66956 65.661 4.23333 65.4898 4.73847 65.5483C4.76553 65.5528 4.78808 65.5528 4.81514 65.5573C4.91436 65.5754 5.00908 65.6024 5.10379 65.643C5.50971 65.8232 5.86601 66.1386 6.1727 66.49C6.23133 66.5576 6.28545 66.6207 6.33957 66.6928C6.33957 66.6928 5.48264 65.8772 5.2842 65.26C4.54002 63.5028 6.11407 60.9526 8.06696 61.6735C8.85173 62.0519 9.49217 62.8269 9.91613 63.7371C8.3511 61.0607 10.9444 59.4341 11.8645 61.8402C11.2962 59.8532 12.1441 57.7761 13.8625 58.943C13.8896 58.952 13.9076 58.9656 13.9347 58.9791V69.7746Z" fill="#8E6455"/>
<path d="M13.9372 69.7752H6.17969C6.28793 69.3696 6.56756 69.0542 6.89229 68.9101C7.23957 68.7569 7.62294 68.7794 7.97924 68.8966C7.79883 68.491 8.04689 67.9504 8.39417 67.7927C8.74146 67.635 9.12933 67.7656 9.46308 67.9639C9.17443 67.8107 8.95794 67.4863 8.84068 67.1213C8.40319 66.085 9.32778 64.5846 10.4824 65.0082C10.9469 65.2334 11.3213 65.6885 11.5738 66.2247C10.6538 64.6477 12.1782 63.688 12.7239 65.1073C12.1962 63.5528 13.2155 62.6427 13.9417 62.9941V69.7752H13.9372Z" fill="#704232"/>
<path d="M5.88808 61.2901C6.09555 61.5064 6.39773 61.4748 6.39773 61.4748C6.39773 61.4748 6.36165 61.0963 6.15418 60.8846C5.94671 60.6683 5.64453 60.6999 5.64453 60.6999C5.64453 60.6999 5.68061 61.0783 5.88808 61.2901Z" fill="#8E6455"/>
<path d="M11.871 63.7819C12.0243 64.1018 12.3581 64.1964 12.3581 64.1964C12.3581 64.1964 12.4393 63.7729 12.2859 63.4575C12.1326 63.1376 11.7988 63.043 11.7988 63.043C11.7988 63.043 11.7176 63.462 11.871 63.7819Z" fill="#704232"/>
<path d="M6.52272 60.4438C6.43252 60.8943 6.63999 61.3449 6.63999 61.3449C6.63999 61.3449 6.99178 61.0656 7.07747 60.615C7.16768 60.1644 6.96021 59.7139 6.96021 59.7139C6.96021 59.7139 6.60842 59.9932 6.52272 60.4438Z" fill="#8E6455"/>
<path d="M122.648 66.0315L122.811 61.8457H123.104L123.293 65.9504L122.648 66.0315Z" fill="#2C2A29"/>
<path d="M124.168 69.7259H121.8L121.336 66.0312H124.633L124.168 69.7259Z" fill="#F7B857"/>
<path d="M121.098 65.4539L121.201 66.738L124.71 66.792L124.895 65.4043L121.098 65.4539Z" fill="#F7B857"/>
<path d="M121.403 66.7429L124.537 66.7925L124.519 66.9141L121.488 67.2791L121.403 66.7429Z" fill="#E59933"/>
<path d="M122.589 55.9875C122.489 56.2218 122.223 56.3344 122.223 56.3344C122.223 56.3344 122.124 56.0641 122.223 55.8298C122.323 55.5955 122.589 55.4828 122.589 55.4828C122.589 55.4828 122.688 55.7532 122.589 55.9875Z" fill="#E3CCB7"/>
<path d="M121.764 55.6948C121.994 55.9607 121.976 56.3527 121.976 56.3527C121.976 56.3527 121.584 56.3166 121.354 56.0553C121.124 55.7895 121.142 55.3975 121.142 55.3975C121.142 55.3975 121.53 55.429 121.764 55.6948Z" fill="#E3CCB7"/>
<path d="M127.126 59.3716C126.869 58.3353 126.228 57.4477 125.16 56.8709C124.226 56.3708 123.112 56.3257 122.088 56.5105C120.519 56.7943 119.202 57.5603 118.809 59.2004C118.557 60.2637 118.597 61.6875 119.017 62.7058C119.418 63.6745 120.32 64.4224 121.344 64.6342C122.607 64.8955 124.176 64.846 125.277 64.1205C125.674 63.8592 126.066 63.5754 126.386 63.2284C126.855 62.7193 127.049 62.12 127.167 61.4487C127.297 60.7278 127.284 60.0204 127.126 59.3716Z" fill="#E3CCB7"/>
<path d="M121.768 62.1516L120.87 61.1513L119.918 61.0972V61.0071L120.69 60.953L119.918 60.0069L120.09 59.8131L122.101 61.5793L121.768 62.1516Z" fill="#2C2A29"/>
<path d="M123.422 59.7775L124.41 59.1197L124.572 58.4844L124.622 58.5024L124.608 58.971L124.829 58.8088L124.892 58.9349L123.72 60.1875L123.422 59.7775Z" fill="#2C2A29"/>
<path d="M116.242 51.3688H106.766V60.9479H116.242V51.3688Z" fill="white"/>
<path d="M116.242 52.1755H107.583V60.1415H116.242V52.1755Z" fill="#2C2A29"/>
<path d="M106.766 51.3688H106.013V61.7364H116.242V60.9479H106.766V51.3688Z" fill="#F49678"/>
<path d="M56.4759 19.4237H43.4731V36.1307H56.4759V19.4237Z" fill="white"/>
<path d="M49.4846 20.1762H44.3159V35.2432H49.4846V20.1762Z" fill="#2C2A29"/>
<path d="M55.6027 20.1766H50.4341V35.2436H55.6027V20.1766Z" fill="#2C2A29"/>
<path d="M69.4019 19.4237H56.3992V36.1307H69.4019V19.4237Z" fill="white"/>
<path d="M62.4163 20.1762H57.2477V35.2432H62.4163V20.1762Z" fill="#2C2A29"/>
<path d="M68.5288 20.1766H63.3601V35.2436H68.5288V20.1766Z" fill="#2C2A29"/>
<path d="M69.09 23.1902H43.9684V23.6048H69.09V23.1902Z" fill="white"/>
<path d="M77.0905 48.1917L66.7938 48.6423V47.9304H77.0905V48.1917Z" fill="#9BB8CC"/>
<path d="M66.4999 65.4665H66.9735V47.5069H66.4999V65.4665Z" fill="#9BB8CC"/>
<path d="M76.9138 65.4667H77.3873V47.5072H76.9138V65.4667Z" fill="#9BB8CC"/>
<path d="M75.3681 60.1906H68.5127V64.2096H75.3681V60.1906Z" fill="#2C2A29"/>
<path d="M75.3681 59.3703V50.3365H74.2271C73.7084 49.6381 72.8785 49.183 71.9404 49.183C71.0023 49.183 70.1724 49.6381 69.6538 50.3365H68.5127V59.3703H75.3681Z" fill="#2C2A29"/>
<path d="M78.8142 46.9528H65.0673V47.9305H78.8142V46.9528Z" fill="#2C2A29"/>
<path d="M25.937 32.1342H23.1182V35.9821H25.937V32.1342Z" fill="#704232"/>
<path d="M41.8706 32.1342H39.0518V35.9821H41.8706V32.1342Z" fill="#704232"/>
<path d="M73.7446 32.1342H70.9258V35.9821H73.7446V32.1342Z" fill="#704232"/>
<path d="M57.8081 32.1342H54.9893V35.9821H57.8081V32.1342Z" fill="#704232"/>
<path d="M89.6837 32.1342H86.8649V35.9821H89.6837V32.1342Z" fill="#704232"/>
<path d="M25.937 32.1342H23.1182V32.5848H25.937V32.1342Z" fill="#8E6455"/>
<path d="M41.8706 32.1342H39.0518V32.5848H41.8706V32.1342Z" fill="#8E6455"/>
<path d="M73.7446 32.1342H70.9258V32.5848H73.7446V32.1342Z" fill="#8E6455"/>
<path d="M57.8081 32.1342H54.9893V32.5848H57.8081V32.1342Z" fill="#8E6455"/>
<path d="M89.6837 32.1342H86.8649V32.5848H89.6837V32.1342Z" fill="#8E6455"/>
<path d="M90.1266 31.6837H22.5916V32.1342H90.1266V31.6837Z" fill="#704232"/>
<path d="M97.5177 49.8951H94.302V55.5317H97.5177V49.8951Z" fill="#2C2A29"/>
<path d="M93.8508 49.3951V55.9598H98.0949V56.1941H93.6614V49.3951H93.8508Z" fill="#9BB8CC"/>
<path d="M19.3572 49.8951H16.1415V55.5317H19.3572V49.8951Z" fill="#2C2A29"/>
<path d="M15.6903 49.3951V55.9598H19.9298V56.1941H15.5009V49.3951H15.6903Z" fill="#9BB8CC"/>
<path d="M56.1538 14.7333V11.4802C55.2833 11.5432 54.5031 11.9262 53.9303 12.5075L56.1538 14.7333Z" fill="#2C2A29"/>
<path d="M53.645 12.8454C53.2075 13.4221 52.9459 14.143 52.9459 14.927V14.9315H55.7332L53.645 12.8454Z" fill="#2C2A29"/>
<path d="M58.7271 12.3723C58.1588 11.8541 57.4191 11.5252 56.5983 11.4802V14.499C57.3064 13.7871 58.019 13.0797 58.7271 12.3723Z" fill="#2C2A29"/>
<path d="M56.7897 14.9275H59.8611V14.923C59.8611 14.0669 59.5499 13.2919 59.0312 12.6882C58.2825 13.4361 57.5384 14.1841 56.7897 14.9275Z" fill="#2C2A29"/>
<path d="M60.3589 15.4722H52.2406V15.4677C52.2406 14.2557 52.6826 13.1608 53.3998 12.3453C51.7941 13.5979 51.8843 15.7696 51.8843 15.7741H60.3589V15.4722Z" fill="#9BB8CC"/>
<path d="M9.95602 69.7257H7.62427L8.06626 63.6656H9.51402L9.95602 69.7257Z" fill="#2C2A29"/>
<path d="M9.16773 43.5152H8.40552V69.7246H9.16773V43.5152Z" fill="#2C2A29"/>
<path d="M9.9903 43.5157H7.58638L6.70239 39.1587H10.8743L9.9903 43.5157Z" fill="#2C2A29"/>
<path d="M9.5466 42.7093H8.03118L7.47192 39.9654H10.1013L9.5466 42.7093Z" fill="white"/>
<path d="M9.9903 38.0502H7.58638L6.70239 39.1586H10.8743L9.9903 38.0502Z" fill="#2C2A29"/>
<path d="M10.1731 43.5156H7.40837C7.28208 43.5156 7.18286 43.4119 7.18286 43.2903C7.18286 43.1641 7.28659 43.065 7.40837 43.065H10.1731C10.2994 43.065 10.3986 43.1686 10.3986 43.2903C10.3986 43.4119 10.2949 43.5156 10.1731 43.5156Z" fill="#2C2A29"/>
<path d="M9.54427 63.8904H8.03337C7.90708 63.8904 7.80786 63.7868 7.80786 63.6652C7.80786 63.539 7.91159 63.4399 8.03337 63.4399H9.54427C9.67056 63.4399 9.76978 63.5435 9.76978 63.6652C9.77429 63.7913 9.67056 63.8904 9.54427 63.8904Z" fill="#2C2A29"/>
<path d="M8.79081 38.7037C9.15199 38.7037 9.44479 38.4112 9.44479 38.0504C9.44479 37.6895 9.15199 37.397 8.79081 37.397C8.42963 37.397 8.13684 37.6895 8.13684 38.0504C8.13684 38.4112 8.42963 38.7037 8.79081 38.7037Z" fill="#2C2A29"/>
<path d="M133 69.5493H0V69.9998H133V69.5493Z" fill="#2C2A29"/>
<path d="M22.1314 43.5157V46.4624L21.5767 69.7251H29.8618V46.2371V43.5157H22.1314Z" fill="#F8B79E"/>
<path d="M83.5461 43.5154V44.6824V69.7249H91.9711L91.2765 44.4571V43.5154H83.5461Z" fill="#F8B79E"/>
<path d="M52.6047 43.5154V45.579V69.8601H60.3397V45.3538V43.5154H52.6047Z" fill="#F8B79E"/>
<path d="M22.1311 43.5157V43.6193V44.4303H29.8615V43.6103V43.5157H22.1311Z" fill="#F49678"/>
<path d="M83.5461 43.5154V43.556V44.4301H91.2765V43.547V43.5154H83.5461Z" fill="#F49678"/>
<path d="M52.6047 43.5154V43.5875V44.4346H60.3397V43.5785V43.5154H52.6047Z" fill="#F49678"/>
<path d="M92.7012 43.5155H20.7056L20.3899 35.7928L92.7012 35.9775V43.5155Z" fill="#2C2A29"/>
</g>
<defs>
<clipPath id="clip0">
<rect width="124" height="70" rx="11" fill="white"/>
</clipPath>
</defs>
</svg>
