<svg width="97" height="81" viewBox="0 0 97 81" fill="none" xmlns="http://www.w3.org/2000/svg">
<g clip-path="url(#clip0)">
<path d="M30.1666 12.2671C28.2592 8.58836 27.7462 4.77562 31.1582 2.76369C33.4656 1.40377 36.1553 0.962881 41.0756 2.91715C44.5538 4.29836 45.7097 3.08925 45.7097 3.08925C45.7097 3.08925 46.1291 7.05546 45.9958 10.0441C45.7865 14.7297 42.7533 16.3283 42.7533 16.3283L30.1666 12.2671Z" fill="#D6D2B8"/>
<path d="M11.3626 67.8287C8.69232 69.0165 5.64146 70.3959 5.06926 71.8525C4.49705 73.3083 4.00079 77.4856 4.61185 78.0605C5.22202 78.6353 8.50247 76.8345 9.34135 75.6848C10.1802 74.5351 12.8125 71.7763 13.194 71.5084C13.5755 71.2396 11.3626 67.8287 11.3626 67.8287Z" fill="#B37D56"/>
<path d="M13.7402 79.2892L13.6855 80.2047C13.6519 80.7751 14.0846 81.2648 14.6524 81.2994C15.2202 81.3331 15.7076 80.8984 15.742 80.328L15.8215 78.9885C16.0043 75.9058 13.8003 73.1496 10.7485 72.7841C7.43273 72.3867 4.48606 74.8999 4.29003 78.2025L0.800293 138.219L2.85687 138.342L6.321 78.7685C6.44197 76.7344 8.18331 75.1651 10.2037 75.2591C12.2744 75.3541 13.8638 77.2099 13.7402 79.2892Z" fill="#855440"/>
<path d="M12.3962 69.0948L11.5184 67.6772C11.5184 67.6772 6.17876 70.091 5.83526 70.5514C5.49177 71.011 4.38621 72.1988 4.23345 73.5019C4.08068 74.8051 4.38621 77.4486 4.38621 77.4486C4.38621 77.4486 4.57695 76.9501 4.57695 76.6822C4.57695 76.4143 5.22509 75.3027 5.22509 75.3027C5.22509 75.3027 5.26306 73.3103 6.33153 72.5439C7.39999 71.7774 8.01017 72.1225 8.01017 72.1225C8.01017 72.1225 8.04814 72.1207 8.11437 72.1172C8.55411 73.2323 8.41548 74.5008 8.12673 75.6789C7.76822 77.1435 7.92451 77.8975 10.0694 75.5334C12.2143 73.1693 11.6483 73.4975 11.9397 71.419C11.9794 71.1334 11.9794 70.885 11.9476 70.6703C12.1322 69.9376 12.3962 69.0948 12.3962 69.0948Z" fill="#C4895E"/>
<path d="M31.5073 27.5249C31.5205 26.8294 31.1285 26.3149 30.8318 26.943C27.1319 34.7982 24.0978 55.0949 19.9052 59.8205C15.2136 65.1085 10.636 67.7529 10.636 67.7529C10.636 67.7529 12.9248 72.5814 13.2674 72.6958C13.6109 72.8111 21.6209 70.9713 25.9689 68.3278C30.317 65.6833 30.7753 64.994 30.7753 64.994L31.5073 27.5249Z" fill="#D8B89A"/>
<path d="M25.97 68.3276C30.318 65.6832 30.7763 64.9939 30.7763 64.9939L31.526 26.5897C31.5366 26.0655 30.7224 27.0617 30.5503 27.5576C29.7008 30.0068 28.9749 31.7899 28.1749 34.8672C25.7121 49.7163 25.5982 59.5835 25.0552 63.0405C24.4097 67.1504 22.0414 69.7337 18.7141 71.365C21.1698 70.5995 23.9611 69.5491 25.97 68.3276Z" fill="#CFA580"/>
<path d="M47.2482 17.804C40.2899 18.7815 36.5255 23.5807 36.5255 23.5807L34.2146 26.9428L49.6368 23.7244L48.1824 18.3211L47.2482 17.804Z" fill="#CFA580"/>
<path d="M31.7227 66.5087C30.4767 73.9231 25.3357 98.4078 24.8686 102.718C24.4015 107.029 25.024 136.342 25.024 136.342C25.024 136.342 29.3853 138.411 32.5015 138.928C35.6169 139.446 37.798 138.928 37.798 138.928C37.798 138.928 38.4302 110.447 39.0439 106.857C40.1345 100.477 49.9485 78.9236 49.9485 78.9236L39.3556 61.5082L31.7227 66.5087Z" fill="#45425C"/>
<path d="M41.9187 65.7256L32.1877 69.4399C36.2382 81.8548 35.3031 109.098 34.3688 121.513C33.7154 130.186 33.1388 136.165 32.8509 138.983C35.7773 139.407 37.7959 138.929 37.7959 138.929C37.7959 138.929 38.4281 110.447 39.0418 106.858C40.1323 100.478 49.9463 78.9238 49.9463 78.9238L41.9187 65.7256Z" fill="#3A384D"/>
<path d="M45.1174 18.4009C56.9562 20.4705 61.0067 26.3334 62.2526 28.23C63.4986 30.1266 62.7286 58.5145 62.4169 74.0352C62.1051 89.5558 65.2214 114.044 64.2862 125.771C63.352 137.498 62.2526 139.101 62.2526 139.101C62.2526 139.101 56.9553 137.031 53.5283 138.067C50.1003 139.101 50.1003 139.101 50.1003 139.101C50.1003 139.101 49.0186 110.94 47.4601 101.972C45.9024 93.0048 44.0268 90.4775 42.1575 80.4755C40.2881 70.4735 33.2786 70.4744 33.2786 70.4744C33.2786 70.4744 29.4197 70.7041 28.4855 55.8736C27.5504 41.0423 31.4092 27.7128 31.4092 27.7128L40.1327 21.85L45.1174 18.4009Z" fill="#45425C"/>
<path d="M45.1165 18.4009L40.1318 21.85L36.8884 23.8362L31.4092 27.7128C31.4092 27.7128 27.5504 41.3492 28.4855 56.1806C29.4206 71.012 33.2786 70.4753 33.2786 70.4753C33.2786 70.4753 36.2358 70.4761 38.8214 73.2164C45.082 74.4042 52.2814 74.2561 56.1773 72.889C59.1063 71.8609 61.1506 70.7245 62.5051 69.7949C62.8451 53.852 63.3917 29.9642 62.2526 28.23C61.0057 26.3334 56.9553 20.4705 45.1165 18.4009Z" fill="#D6D3BF"/>
<path d="M38.3448 22.316C36.6308 23.4364 35.6913 26.8029 35.6913 26.8029L35.1252 23.6954L38.6565 21.8564L38.3448 22.316Z" fill="#D8B89A"/>
<path d="M44.9368 17.8328C47.533 17.4593 46.702 17.3156 49.1948 18.0342C51.6876 18.7527 48.2862 20.5916 48.2862 20.5916C48.2862 20.5916 47.8447 18.4937 47.0137 18.2923C46.1828 18.0909 44.8591 18.3783 44.8591 18.3783L44.9368 17.8328Z" fill="#D8B89A"/>
<path d="M44.0755 14.7885C44.0755 14.7885 47.0205 22.1061 45.4707 25.376C43.921 28.6458 38.3411 29.7352 37.7212 28.1783C37.1013 26.6214 37.8758 25.5312 37.4113 23.3516C36.9459 21.172 36.636 17.7461 36.636 17.7461L43.6102 10.895L44.0755 14.7885Z" fill="#E0A477"/>
<path d="M44.7353 16.6487C44.3786 15.531 44.0792 14.7876 44.0792 14.7876L43.6148 10.895L36.6406 17.7461C36.6406 17.7461 36.9506 21.1711 37.4159 23.3516C37.6782 24.5802 37.5466 25.4629 37.4919 26.2773C39.8716 25.5898 43.0443 23.9974 44.7353 16.6487Z" fill="#CF976E"/>
<path d="M29.8636 10.8879C29.8636 10.8879 29.5201 18.4371 30.5506 20.889C31.5802 23.3418 32.9153 23.686 33.2968 23.686C33.6782 23.686 33.4116 12.9184 33.4116 12.9184L29.8636 10.8879Z" fill="#D6D2B8"/>
<path d="M43.6128 13.3862C42.9806 19.7387 41.2878 22.2616 35.5534 22.2616C32.2579 22.2616 30.8177 18.2839 30.129 14.4765C29.1991 9.33843 31.948 4.04425 35.2435 4.04425C38.5389 4.04425 44.2327 7.15795 43.6128 13.3862Z" fill="#E0A477"/>
<path d="M37.1056 22.817C33.2114 32.3009 33.3412 40.99 35.9029 55.5508C37.4473 64.3304 39.503 67.2001 39.503 67.2001L38.7489 73.7709C38.7489 73.7709 33.4437 73.2173 31.5743 71.4928C29.7049 69.7683 26.2099 69.2688 27.3172 51.7957C28.5252 32.7436 29.8604 27.1788 31.8851 25.6273C33.9108 24.0757 37.1056 22.817 37.1056 22.817Z" fill="#D8B89A"/>
<path d="M39.4963 67.2168C39.4963 67.2168 39.0795 66.7484 38.3651 65.5402L38.3536 65.6076C36.9002 67.1786 37.1766 70.0909 37.5792 73.6268C38.2795 73.7395 38.7422 73.7874 38.7422 73.7874L39.4963 67.2168Z" fill="#CFA580"/>
<path d="M61.7294 27.4125C60.2159 25.2781 56.1725 19.716 47.4543 17.5551C50.2217 24.5001 46.989 42.9553 43.7156 51.506C40.3424 60.3176 38.0386 66.5468 38.0386 67.7532C38.0386 68.5898 38.0624 71.7061 38.5772 72.886C38.6355 72.9445 38.6805 73.7269 38.7388 73.7882C44.9995 74.976 52.1988 74.8278 56.0948 73.4608C57.7584 72.8771 59.135 72.2579 60.2636 71.6627C61.0106 66.1875 61.5077 41.276 61.7294 27.4125Z" fill="#D8B89A"/>
<path d="M56.0963 73.4599C57.7599 72.8762 59.1366 72.257 60.2651 71.6617C61.013 66.1875 61.5102 41.2769 61.7318 27.4125C61.0077 26.3915 59.7044 24.5853 57.5869 22.7437L56.9564 22.8848C53.6847 25.1265 51.9717 34.7825 52.2834 39.0929C52.5951 43.4033 55.419 55.8741 54.1722 62.8484C53.0905 68.9029 54.1377 72.4521 48.5464 74.5936C52.2216 74.6477 53.8251 74.2574 56.0963 73.4599Z" fill="#CFA580"/>
<path d="M57.297 76.9986C55.5177 80.3101 55.047 82.7292 55.2033 83.6748C55.3605 84.6213 56.4069 88.2486 56.6683 88.2486C56.9296 88.2486 57.1919 86.5135 57.1919 85.7781C57.1919 85.0418 56.8254 83.4646 57.3491 83.4646C57.8727 83.4646 58.867 86.8816 59.0763 87.3544C59.2856 87.8273 59.1284 92.0329 60.0185 91.5601C60.9077 91.0873 62.5307 87.7226 62.5307 87.0919C62.5307 86.4612 62.4786 85.2521 62.1642 84.3055C61.8499 83.359 61.0128 81.5192 60.9607 80.5727C60.9086 79.6262 60.8556 78.1545 60.8556 78.1545L57.297 76.9986Z" fill="#C4895E"/>
<path d="M57.5662 22.7652C64.7461 25.9871 66.9272 39.4373 69.2637 50.4718C71.6002 61.5082 62.2542 80.9923 62.2542 80.9923C62.2542 80.9923 57.1194 79.0567 56.2417 77.294C55.8408 76.4894 59.7623 60.8189 58.5154 57.0248C57.2695 53.2316 53.5308 47.3688 53.5308 37.1956C53.5308 27.0224 57.5662 22.7652 57.5662 22.7652Z" fill="#D8B89A"/>
<path d="M40.0816 67.8288C40.0816 68.2307 39.7867 68.5571 39.4237 68.5571C39.0608 68.5571 38.7659 68.2316 38.7659 67.8288C38.7659 67.427 39.0608 67.1005 39.4237 67.1005C39.7875 67.1005 40.0816 67.427 40.0816 67.8288Z" fill="#855440"/>
<path d="M40.323 72.0833C40.323 72.4852 40.029 72.8117 39.6652 72.8117C39.3023 72.8117 39.0073 72.4861 39.0073 72.0833C39.0073 71.6806 39.3014 71.355 39.6652 71.355C40.0281 71.355 40.323 71.6815 40.323 72.0833Z" fill="#855440"/>
<path d="M37.3116 64.3808C37.3116 64.7827 37.0175 65.1091 36.6537 65.1091C36.2908 65.1091 35.9958 64.7836 35.9958 64.3808C35.9958 63.979 36.2899 63.6525 36.6537 63.6525C37.0166 63.6525 37.3116 63.9781 37.3116 64.3808Z" fill="#855440"/>
<path d="M35.5105 58.4789C35.5105 58.8807 35.2156 59.2072 34.8527 59.2072C34.4898 59.2072 34.1948 58.8816 34.1948 58.4789C34.1948 58.077 34.4898 57.7505 34.8527 57.7505C35.2165 57.7514 35.5105 58.077 35.5105 58.4789Z" fill="#855440"/>
<path d="M34.1985 52.2721C34.1985 52.674 33.9045 53.0004 33.5407 53.0004C33.1777 53.0004 32.8828 52.6749 32.8828 52.2721C32.8828 51.8694 33.1769 51.5438 33.5407 51.5438C33.9036 51.5438 34.1985 51.8694 34.1985 52.2721Z" fill="#855440"/>
<path d="M33.5726 46.4474C33.5726 46.8492 33.2776 47.1757 32.9147 47.1757C32.5518 47.1757 32.2568 46.8501 32.2568 46.4474C32.2568 46.0446 32.5518 45.7191 32.9147 45.7191C33.2776 45.7191 33.5726 46.0446 33.5726 46.4474Z" fill="#855440"/>
<path d="M41.4234 13.7228C41.4234 13.7228 44.8566 9.2394 45.314 11.4234C45.7714 13.6075 45.1992 16.7114 43.8261 16.7114C42.453 16.7114 41.3086 15.4473 41.3086 15.4473L41.4234 13.7228Z" fill="#E0A477"/>
<path d="M33.3722 6.82571C29.7103 5.98297 32.075 3.7599 35.8138 3.30039C39.5516 2.84087 44.358 3.99055 44.1293 3.99055C43.9006 3.99055 41.7645 6.32805 38.3313 6.78757C34.8981 7.24708 33.3722 6.82571 33.3722 6.82571Z" fill="#D6D2B8"/>
<path d="M36.1409 7.90992C34.5691 7.90992 32.8577 7.35548 31.3124 5.87403C31.2665 5.83056 31.2647 5.75782 31.3089 5.71169C31.3522 5.66556 31.4246 5.66378 31.4705 5.70814C34.0657 8.19645 37.1431 7.98266 39.1591 6.95363C41.3772 5.8208 42.7963 4.89999 42.8104 4.89023C42.8634 4.85564 42.934 4.87072 42.9685 4.92394C43.0029 4.97717 42.9879 5.04814 42.9349 5.08273C42.9208 5.0916 41.4929 6.01862 39.2624 7.15766C38.3785 7.60919 37.2976 7.90992 36.1409 7.90992Z" fill="#D6D2B8"/>
<path d="M36.0024 8.71656C34.1163 8.71656 32.4156 7.75939 31.0672 5.89648C31.0301 5.84503 31.0416 5.77317 31.0928 5.73592C31.144 5.69866 31.2155 5.71019 31.2526 5.76164C33.1043 8.32003 35.6439 9.10955 38.4025 7.98382C40.8008 7.00535 42.7055 5.56116 42.7249 5.54608C42.7753 5.50793 42.8468 5.51769 42.8856 5.56825C42.9236 5.61882 42.9139 5.69067 42.8636 5.72971C42.8441 5.7439 40.9165 7.20672 38.489 8.19673C37.6343 8.54447 36.8016 8.71656 36.0024 8.71656Z" fill="#D6D2B8"/>
<path d="M40.694 5.63723C42.5634 5.86699 40.3505 11.9986 41.6477 12.6879C42.9449 13.378 41.2662 16.5964 40.656 17.5926C40.0459 18.5888 37.5663 18.2056 35.7738 17.8996C33.9812 17.5926 32.8368 18.1293 32.0359 18.2065C31.235 18.2828 30.7776 17.4782 30.7776 17.4782C30.7776 17.4782 30.8924 22.3066 32.4562 23.3029C34.0201 24.2991 38.1014 23.9158 39.4366 23.6098C40.7717 23.3028 42.2208 21.196 42.4504 20.0463C42.6791 18.8966 43.3272 17.3637 43.1753 16.5591C43.0226 15.7546 42.5272 14.8728 42.9087 13.6087C43.2901 12.3446 43.9771 10.8498 44.0531 10.62C44.129 10.3903 43.2522 6.78779 43.2522 6.78779L41.0402 4.64191L40.694 5.63723Z" fill="#D6D2B8"/>
<path d="M30.2456 15.7159C31.5039 16.8274 31.6955 15.5243 33.8307 15.2174C35.9668 14.9104 37.9501 15.3327 39.0565 16.0601C40.1629 16.7884 41.8027 16.2136 41.8027 16.2136C41.8027 16.2136 40.9638 18.3976 40.2009 18.2441C39.438 18.0907 37.3787 16.7112 35.4714 16.6349C33.9084 16.572 33.1446 16.9028 31.9622 17.593C30.7798 18.2823 30.2836 17.593 30.2836 17.593L30.2456 15.7159Z" fill="#D6D2B8"/>
<path d="M71.761 0.0434628C67.4404 0.801043 59.2856 5.34031 59.0207 6.40483C58.2578 9.47063 55.5875 17.2105 61.0808 22.5757C65.1065 26.5073 75.0415 24.9513 78.2451 18.0542C81.4488 11.1561 76.5665 -0.800165 71.761 0.0434628Z" fill="#BDCCD4"/>
<path d="M58.8686 72.0838C57.9529 101.743 58.8686 139.679 58.8686 139.679C58.8686 139.679 61.8436 141.288 66.6499 141.978C71.4563 142.667 77.6357 139.449 77.6357 139.449L72.6007 68.6348L58.8686 72.0838Z" fill="#F8B79E"/>
<path d="M71.9131 75.9915L66.1222 74.927L65.9632 73.5396L58.8275 73.4739C58.6818 78.5508 58.5873 83.8458 58.5308 89.132C60.3789 90.2178 64.0965 94.1157 66.2687 108.103C66.3765 108.797 66.4824 109.451 66.5866 110.071C67.6313 124.12 68.6865 136.629 69.151 142.028C69.2808 142.017 69.4106 142.005 69.5404 141.99C69.5439 141.99 69.5483 141.989 69.5519 141.989C69.9439 141.945 70.3351 141.887 70.7228 141.817C73.4495 141.321 75.9715 140.238 77.0647 139.727C77.0664 139.726 77.636 139.449 77.636 139.449L76.7168 126.526L71.9131 75.9915Z" fill="#F49678"/>
<path d="M89.9955 69.3246C91.826 111.399 91.5973 141.288 91.5973 141.288C91.5973 141.288 88.1641 144.277 82.443 142.208C76.7219 140.139 75.1192 140.599 75.1192 140.599C75.1192 140.599 73.0591 115.539 70.9999 100.364C68.9398 85.1894 68.2537 69.785 68.2537 69.785L89.9955 69.3246Z" fill="#F8B79E"/>
<path opacity="0.8" d="M90.7574 89.4029C90.5994 84.3101 90.4696 80.9204 90.2435 75.2856L70.6172 74.7648C75.3467 77.6009 71.1514 89.7098 79.467 90.0922C82.4189 90.2288 89.5671 89.4934 90.7574 89.4029Z" fill="#F49678"/>
<path d="M74.946 20.2374C74.946 20.2374 83.99 22.0613 86.4404 26.9847C89.7015 33.5368 89.9937 75.7616 89.9937 75.7616C89.9937 75.7616 68.0231 77.1411 64.3611 75.5319C60.6992 73.9227 60.6992 73.9227 60.6992 73.9227C60.6992 73.9227 61.5902 47.0197 61.3862 39.4351C61.1575 30.9278 72.0859 21.1565 72.0859 21.1565L74.946 20.2374Z" fill="#E9E5D0"/>
<path d="M74.2718 48.9093C73.5283 52.9332 72.0263 53.2871 71.7976 52.942C71.5689 52.597 72.1985 51.5626 70.4245 51.4473C68.6505 51.332 65.5042 51.5049 64.5885 51.85C63.6728 52.1951 61.4414 60.8168 61.4414 60.8168C61.4414 60.8168 62.1284 61.4493 64.0163 62.1962C65.9042 62.9431 67.4495 62.0241 68.8226 61.1619C70.1958 60.2996 73.6855 60.5294 73.8577 62.5989C74.029 64.6685 74.4299 51.2184 74.4299 51.2184L74.2718 48.9093Z" fill="#D6D3BF"/>
<path d="M78.8292 76.2445L81.8227 22.7366C79.1648 21.2969 76.2932 20.5481 75.3068 20.3175L75.8084 21.1576C78.3259 22.9965 77.7537 24.0318 76.4954 28.2845C75.237 32.5381 73.7491 54.7244 73.2908 66.7951C73.1063 71.6715 72.9959 74.5767 72.9297 76.3092C74.8326 76.3225 76.8601 76.2941 78.8292 76.2445Z" fill="#D6D3BF"/>
<path d="M76.3732 21.1573C79.0814 22.8437 76.9454 27.1355 75.5723 30.8134C74.1992 34.4922 69.5077 42.0795 68.3633 46.2178C67.2189 50.3561 66.9902 50.4714 66.6467 47.9423C66.3032 45.4132 66.8754 30.3539 67.4476 27.9401C68.0198 25.5263 69.3929 23.572 69.3929 23.572V24.8361C69.3929 24.8361 68.0198 27.1355 67.6763 32.4234C67.3328 37.7114 67.1041 46.3331 67.1041 47.3683C67.1041 48.4027 67.6763 45.6438 68.592 44.0346C69.5077 42.4254 73.7409 34.2633 74.8853 30.9296C76.0297 27.5959 78.2037 23.8408 76.6778 22.8056C76.2548 22.5173 76.3732 21.1573 76.3732 21.1573Z" fill="#E6B54C"/>
<path d="M73.4986 11.4142C73.4986 11.4142 77.3733 22.887 77.0678 24.4234C76.7622 25.9599 71.7634 30.0591 69.8791 28.4695C68.6048 27.3943 69.4199 27.3943 68.6048 23.2968C67.7889 19.1993 65.8516 17.151 65.8516 17.151L73.4986 11.4142Z" fill="#E0A477"/>
<path d="M74.7716 15.3391C74.0767 13.1382 73.4939 11.4146 73.4939 11.4146L65.8469 17.1505C65.8469 17.1505 67.7843 19.1988 68.6002 23.2963C68.7538 24.0681 68.8492 24.6944 68.9119 25.2098C69.5909 24.9871 70.3203 24.7184 70.9446 24.4238C72.3742 23.7488 74.7725 21.3323 74.7716 15.3391Z" fill="#CF976E"/>
<path d="M73.3633 14.604C75.0419 19.5088 76.3382 20.4287 76.3382 20.4287L76.0327 13.3009L73.3633 14.604Z" fill="#BDCCD4"/>
<path d="M67.6598 22.4214H67.0125C63.9872 22.4214 61.5112 19.9349 61.5112 16.8948V12.0832C61.5112 9.044 63.9864 6.55658 67.0125 6.55658H67.6598C70.685 6.55658 73.161 9.04311 73.161 12.0832V16.8948C73.161 19.9349 70.6859 22.4214 67.6598 22.4214Z" fill="#E0A477"/>
<path d="M64.1915 26.5323C62.7469 27.5587 61.2581 29.3897 60.1852 31.524C56.0296 39.79 54.5117 54.2195 54.5117 58.1937C54.5117 63.1942 55.0265 65.4359 56.7431 65.9531C58.4589 66.4703 64.1915 26.5323 64.1915 26.5323Z" fill="#F49678"/>
<path d="M80.839 22.2689C78.7506 23.3175 74.769 33.0205 74.5968 46.1247C74.4255 59.2289 75.7986 87.1626 75.7986 87.1626C75.7986 87.1626 81.2911 88.5421 86.4401 87.8519C91.5891 87.1626 93.3057 85.9553 93.3057 85.9553C93.3057 85.9553 90.2159 40.434 88.8428 32.8475C87.4697 25.2611 82.8991 21.2337 80.839 22.2689Z" fill="#F8B79E"/>
<path d="M74.8315 62.4832C76.8996 62.4353 80.4493 62.2863 82.3231 61.8161C85.0693 61.1269 85.7563 60.7818 85.7563 60.7818C85.7563 60.7818 89.4174 70.4777 92.3155 71.9272C91.2903 57.8819 89.7203 37.6783 88.8461 32.848C87.9542 27.9211 85.714 24.4969 83.6892 22.9835C79.7014 28.4702 79.4188 41.5416 79.5778 44.5728C79.7491 47.8488 80.6074 58.022 80.6074 58.022L74.7344 58.8453C74.7635 60.0473 74.7962 61.2635 74.8315 62.4832Z" fill="#F49678"/>
<path d="M68.4667 24.8928C64.5187 33.3415 61.7231 59.0566 61.8952 69.7471C62.0666 80.4375 62.0666 86.8175 62.0666 86.8175C62.0666 86.8175 56.7454 86.8175 56.2306 86.4724C55.7158 86.1273 57.2602 45.0893 58.8055 38.5372C60.3499 31.9851 62.9566 26.9828 64.7412 26.1764C66.2671 25.4871 68.4667 24.8928 68.4667 24.8928Z" fill="#F8B79E"/>
<path d="M60.2794 53.8436C59.0802 52.8944 58.5045 49.8925 57.9243 45.6682C57.7336 47.8903 57.549 50.4487 57.376 53.1801L59.4776 59.4004C59.4776 59.4004 59.3628 61.5844 59.2489 62.2356C59.1341 62.8867 58.7915 64.6112 58.0285 65.6846C57.6576 66.2062 57.0307 66.9088 56.6554 67.1022C56.621 67.9156 56.5433 69.4884 56.5115 70.2788C57.1693 70.0704 58.2873 68.9571 58.7526 68.0212C59.4008 66.7181 60.0498 62.35 60.0498 62.35H62.0331L62.177 60.9732C62.2883 59.2443 62.4304 57.4195 62.6009 55.5398C62.2335 55.2914 61.2684 54.6269 60.2794 53.8436Z" fill="#F49678"/>
<path d="M85.1338 24.8826C85.1153 24.7424 85.291 24.6653 85.3802 24.7744C91.7371 32.6296 96.2265 52.1963 96.396 54.4016C96.5673 56.6433 86.0654 59.8022 80.9165 59.9752C76.3317 60.1287 72.6848 59.6443 71.9395 59.5361C71.8627 59.5246 71.8097 59.4527 71.8221 59.3755L72.4711 55.2993C72.48 55.2417 72.5232 55.1964 72.5797 55.1849C73.484 54.9959 80.7063 53.4959 84.7241 52.8501C88.6792 52.214 85.6345 28.5756 85.1338 24.8826Z" fill="#E6AE85"/>
<path d="M83.52 22.8465C89.7701 26.771 94.3337 39.3997 96.3929 46.2968C98.4522 53.194 94.6763 65.954 93.6467 66.1261C92.6171 66.2982 90.2134 65.6089 87.9829 61.8157C85.8 58.1041 83.5836 53.0006 83.5836 53.0006C83.5836 53.0006 85.8345 52.2918 84.804 51.7747C83.7743 51.2575 85.2048 50.7589 85.0327 50.2418C84.8613 49.7246 82.3818 48.9572 81.5235 39.1291C80.6652 29.3001 82.1469 21.9842 83.52 22.8465Z" fill="#F8B79E"/>
<path d="M57.1905 43.8044C56.4276 48.4794 57.9155 51.123 58.6784 52.733C59.4414 54.3422 58.3349 60.512 58.1062 61.8914C57.8775 63.2709 57.534 67.984 56.3137 66.9115C55.0934 65.8381 52.0037 59.3623 54.4444 49.5528C56.885 39.7433 58.025 37.0367 58.025 37.0367L57.1905 43.8044Z" fill="#F8B79E"/>
<path d="M56.9643 52.6163C54.6755 52.6545 55.2097 57.3295 55.5912 59.5525C55.9727 61.7747 55.3916 65.8012 56.7497 65.9529C58.1087 66.1046 59.8633 57.0234 59.405 54.7241C58.9485 52.4247 56.9643 52.6163 56.9643 52.6163Z" fill="#F49678"/>
<path d="M57.7626 52.924C57.3785 52.7466 56.514 52.6446 56.25 52.9772C54.8044 54.7967 55.4429 58.9092 56.8857 59.6686C58.4876 60.5113 62.9125 60.3197 62.9125 60.3197C62.9125 60.3197 63.6754 56.5265 63.2939 56.2959C62.9707 56.1016 59.6417 53.7925 57.7626 52.924Z" fill="#DBA075"/>
<path d="M68.2487 48.4227C68.1604 49.7843 67.5529 50.8542 66.8906 50.8107C66.2284 50.7672 65.763 49.6282 65.8513 48.2665C65.9396 46.904 66.5471 45.835 67.2094 45.8785C67.8708 45.9211 68.3362 47.0601 68.2487 48.4227Z" fill="#E6B54C"/>
<path d="M67.8853 48.3984C67.8243 49.3476 67.4005 50.0927 66.9387 50.0626C66.4777 50.0324 66.1528 49.2385 66.2146 48.2892C66.2755 47.34 66.6994 46.5949 67.1612 46.625C67.6221 46.6552 67.9462 47.4492 67.8853 48.3984Z" fill="#F8B79E"/>
<path d="M71.3653 52.1222C71.0959 51.4338 70.1423 51.5279 69.3943 51.7434H62.2656V54.0605C62.2656 56.0379 63.8613 57.6409 65.8295 57.6409C67.3554 57.6409 68.657 56.6775 69.1647 55.3229C69.5718 55.1517 69.9992 54.9503 70.3577 54.7338C71.4068 54.1022 71.8262 53.3021 71.3653 52.1222ZM70.7357 53.5123C70.7145 53.8671 70.0469 54.1803 69.3767 54.4056C69.3873 54.2921 69.3934 54.1767 69.3934 54.0596V53.3322C69.5921 53.0688 69.4941 52.4221 70.1061 52.4584C70.8195 52.5019 70.778 52.7964 70.7357 53.5123Z" fill="white"/>
<path d="M62.3406 55.9132C64.2479 56.3727 64.2859 56.2583 65.659 57.0629C67.0321 57.8675 69.1301 57.0629 69.1301 57.0629C69.1301 57.0629 68.8635 59.592 67.5663 60.7417C66.2692 61.8914 64.8201 61.5844 63.409 60.8952C61.998 60.205 59.824 60.2822 59.824 60.2822L62.3406 55.9132Z" fill="#DBA075"/>
<path d="M73.364 55.1843C71.7242 55.2997 70.5798 54.4942 69.0918 53.9965C67.6039 53.498 66.4984 53.7668 65.6975 54.0728C64.8966 54.3797 65.0873 54.456 66.4224 54.6858C67.7576 54.9156 67.6428 55.2225 66.7659 55.6439C65.8882 56.0652 62.6466 55.5285 62.4179 55.5285C62.1892 55.5285 63.1049 57.9423 64.4012 58.7469C65.6984 59.5516 68.3678 59.2641 70.1612 59.3795C71.2676 59.4504 72.2248 59.5382 72.6204 59.6101C72.8156 59.6456 72.9984 59.5045 73.0152 59.3058L73.364 55.1843Z" fill="#E6AE85"/>
<path d="M62.0331 16.6158C60.8313 16.6158 59.9924 15.5992 59.9924 14.1444C59.9924 12.7702 60.5064 12.2096 61.7664 12.2096C62.97 12.2096 64.2645 12.8394 64.2645 14.2215C64.2636 15.5859 63.3047 16.6158 62.0331 16.6158ZM61.7656 12.5538C60.7095 12.5538 60.335 12.9698 60.335 14.1444C60.335 15.1689 60.8666 16.2707 62.0322 16.2707C63.1086 16.2707 63.9202 15.3898 63.9202 14.2206C63.921 13.0692 62.8384 12.5538 61.7656 12.5538Z" fill="#413F57"/>
<path d="M67.6821 16.6927C66.347 16.6927 65.2617 15.5838 65.2617 14.2212C65.2617 12.9074 66.815 12.0948 68.2543 12.0948C69.5215 12.0948 70.2191 12.9048 70.2191 14.3747C70.2182 15.6752 69.1038 16.6927 67.6821 16.6927ZM68.2543 12.4399C67.1435 12.4399 65.6043 13.0591 65.6043 14.2221C65.6043 15.3948 66.5359 16.3485 67.6821 16.3485C68.7603 16.3485 69.8756 15.6104 69.8756 14.3747C69.8747 13.492 69.5939 12.4399 68.2543 12.4399Z" fill="#413F57"/>
<path d="M65.4217 13.7284C65.314 13.6512 64.5069 13.3683 64.0309 13.5829L63.8896 13.2689C64.5351 12.977 65.5215 13.3425 65.6548 13.4765L65.412 13.7204C65.4155 13.7222 65.4182 13.7258 65.4217 13.7284Z" fill="#413F57"/>
<path d="M73.353 11.7378L69.863 12.887L69.97 13.215L73.46 12.0657L73.353 11.7378Z" fill="#413F57"/>
<path d="M70.0813 6.404C68.7841 11.8454 72.5988 12.9951 72.5988 12.9951L75.8034 11.3859L72.9044 5.79102L70.0813 6.404Z" fill="#BDCCD4"/>
<path d="M72.0586 13.2245C73.6322 11.2418 74.0613 10.6377 74.8905 12.1608C75.7206 13.684 74.4331 16.0694 73.8035 16.1554C73.1739 16.2415 72.516 15.782 72.516 15.782L72.0586 13.2245Z" fill="#E0A477"/>
<path d="M71.6073 6.3277C69.1657 9.85302 59.6299 12.305 59.6299 12.305C59.6299 12.305 62.9103 4.87109 63.139 4.87109C63.3677 4.87109 71.6073 6.3277 71.6073 6.3277Z" fill="#BDCCD4"/>
<path d="M65.4648 11.2891C65.4021 11.2891 65.3411 11.2545 65.3111 11.1933C65.2687 11.1082 65.3032 11.0044 65.3879 10.9618C65.47 10.921 65.561 10.8758 65.6608 10.827C66.9111 10.2131 69.5134 8.93656 70.0273 6.63365C70.0476 6.5405 70.1394 6.48284 70.2321 6.50325C70.3249 6.52365 70.3831 6.61591 70.362 6.70905C69.8127 9.1743 67.1098 10.5005 65.8118 11.1374C65.7138 11.1854 65.6228 11.2297 65.5416 11.2705C65.5168 11.2829 65.4912 11.2891 65.4648 11.2891Z" fill="#BDCCD4"/>
<path d="M59.1722 22.4412C59.1228 22.4412 59.0742 22.4199 59.0407 22.3791C56.5532 19.3967 56.5717 12.3638 59.0221 6.3945C59.0583 6.30668 59.1661 6.26498 59.2535 6.30135C59.3409 6.33772 59.3824 6.43885 59.3471 6.52668C56.9408 12.3877 56.8914 19.2654 59.3038 22.1582C59.3647 22.2309 59.355 22.34 59.2826 22.4013C59.2499 22.4279 59.2111 22.4412 59.1722 22.4412Z" fill="#BDCCD4"/>
</g>
<defs>
<clipPath id="clip0">
<rect width="97" height="81" rx="8" fill="white"/>
</clipPath>
</defs>
</svg>
