<svg width="185" height="55" viewBox="0 0 185 55" fill="none" xmlns="http://www.w3.org/2000/svg">
<rect x="0.502717" y="1.34549" width="183.995" height="52.9529" rx="14.5788" stroke="#2C2A29" stroke-width="1.00543"/>
<g filter="url(#filter0_ii)">
<path d="M20.0196 8.44357C19.6022 8.88535 19.3555 9.57097 19.3555 10.4588V42.1807C19.3555 43.07 19.6022 43.7542 20.0196 44.196L20.1257 44.2993L37.8958 26.5292V26.3198V26.1104L20.1257 8.33887L20.0196 8.44357Z" fill="url(#paint0_linear)"/>
<path d="M43.8169 32.4545L37.8945 26.5292V26.3198V26.1104L43.8184 20.1865L43.9518 20.2625L50.97 24.25C52.9738 25.3889 52.9738 27.2521 50.97 28.3924L43.9518 32.3799L43.8169 32.4545Z" fill="url(#paint1_linear)"/>
<g filter="url(#filter1_i)">
<path d="M43.953 32.378L37.8943 26.3193L20.0195 44.1955C20.6793 44.8955 21.7709 44.9816 23.0001 44.2845L43.953 32.378Z" fill="url(#paint2_linear)"/>
</g>
<path d="M43.953 20.2611L23.0001 8.35607C21.7709 7.65755 20.6793 7.74504 20.0195 8.445L37.8957 26.3212L43.953 20.2611Z" fill="url(#paint3_linear)"/>
</g>
<path d="M91.6059 32.0691C88.8472 32.0691 86.5986 34.2555 86.5986 37.2667C86.5986 40.2597 88.8472 42.4644 91.6059 42.4644C94.3659 42.4644 96.6144 40.2597 96.6144 37.2667C96.6132 34.2555 94.3647 32.0691 91.6059 32.0691ZM91.6059 40.4186C90.094 40.4186 88.7908 39.1195 88.7908 37.268C88.7908 35.3969 90.0952 34.1174 91.6059 34.1174C93.1178 34.1174 94.421 35.3969 94.421 37.268C94.421 39.1182 93.1178 40.4186 91.6059 40.4186ZM80.6811 32.0691C77.9223 32.0691 75.6738 34.2555 75.6738 37.2667C75.6738 40.2597 77.9223 42.4644 80.6811 42.4644C83.441 42.4644 85.6896 40.2597 85.6896 37.2667C85.6896 34.2555 83.441 32.0691 80.6811 32.0691ZM80.6811 40.4186C79.1692 40.4186 77.866 39.1195 77.866 37.268C77.866 35.3969 79.1704 34.1174 80.6811 34.1174C82.193 34.1174 83.4962 35.3969 83.4962 37.268C83.4974 39.1182 82.193 40.4186 80.6811 40.4186ZM67.6872 33.6652V35.8699H72.752C72.6007 37.1103 72.2042 38.0159 71.599 38.6453C70.8624 39.4128 69.7094 40.2597 67.6872 40.2597C64.5696 40.2597 62.1322 37.6407 62.1322 34.3923C62.1322 31.144 64.5696 28.525 67.6872 28.525C69.3692 28.525 70.5973 29.2143 71.504 30.1003L72.9972 28.5445C71.7304 27.2846 70.0496 26.3203 67.6872 26.3203C63.4166 26.3203 59.8262 29.9426 59.8262 34.3923C59.8262 38.842 63.4166 42.4644 67.6872 42.4644C69.9921 42.4644 71.7316 41.6761 73.091 40.1998C74.4891 38.743 74.9243 36.6948 74.9243 35.0413C74.9243 34.5304 74.8868 34.0575 74.8105 33.664H67.6872V33.6652ZM120.831 35.3774C120.416 34.2164 119.149 32.0691 116.56 32.0691C113.99 32.0691 111.854 34.176 111.854 37.2667C111.854 40.1802 113.972 42.4644 116.805 42.4644C119.092 42.4644 120.415 41.0076 120.964 40.1607L119.263 38.9789C118.696 39.8454 117.921 40.4161 116.805 40.4161C115.691 40.4161 114.897 39.8845 114.387 38.8408L121.057 35.9664L120.831 35.3774ZM114.028 37.1103C113.972 35.1012 115.521 34.0783 116.637 34.0783C117.506 34.0783 118.242 34.5317 118.489 35.1806L114.028 37.1103ZM108.605 42.1503H110.796V26.8727H108.605V42.1503ZM105.014 33.2313H104.939C104.447 32.6203 103.502 32.0691 102.313 32.0691C99.8177 32.0691 97.5316 34.3532 97.5316 37.2875C97.5316 40.201 99.8177 42.4656 102.313 42.4656C103.503 42.4656 104.447 41.9144 104.939 41.285H105.014V42.033C105.014 44.0213 103.993 45.0846 102.35 45.0846C101.008 45.0846 100.177 44.0812 99.8365 43.2343L97.9281 44.0617C98.4758 45.439 99.9303 47.1328 102.35 47.1328C104.92 47.1328 107.093 45.5575 107.093 41.7177V32.3856H105.015V33.2313H105.014ZM102.501 40.4186C100.989 40.4186 99.7239 39.0987 99.7239 37.2875C99.7239 35.4556 100.989 34.1174 102.501 34.1174C103.993 34.1174 105.165 35.4556 105.165 37.2875C105.165 39.0987 103.993 40.4186 102.501 40.4186ZM131.099 26.8727H125.855V42.1503H128.042V36.3624H131.098C133.523 36.3624 135.909 34.5329 135.909 31.6182C135.909 28.7034 133.525 26.8727 131.099 26.8727ZM131.155 34.2359H128.042V28.9992H131.155C132.791 28.9992 133.72 30.4107 133.72 31.6182C133.72 32.8012 132.791 34.2359 131.155 34.2359ZM144.682 32.0422C143.097 32.0422 141.456 32.7694 140.777 34.3813L142.719 35.2258C143.135 34.3813 143.909 34.1051 144.719 34.1051C145.851 34.1051 147.002 34.8127 147.02 36.0703V36.2279C146.624 35.9921 145.775 35.6389 144.738 35.6389C142.644 35.6389 140.512 36.8378 140.512 39.0779C140.512 41.1225 142.229 42.4387 144.153 42.4387C145.623 42.4387 146.435 41.7506 146.944 40.9441H147.019V42.1234H149.133V36.2658C149.134 33.5552 147.189 32.0422 144.682 32.0422ZM144.417 40.4149C143.701 40.4149 142.701 40.0409 142.701 39.117C142.701 37.9377 143.946 37.4855 145.022 37.4855C145.982 37.4855 146.436 37.7018 147.02 37.9963C146.85 39.4128 145.681 40.4149 144.417 40.4149ZM156.83 32.3759L154.321 38.9997H154.246L151.642 32.3759H149.284L153.189 41.6333L150.963 46.7833H153.245L159.264 32.3759H156.83ZM137.117 42.1503H139.305V26.8727H137.117V42.1503Z" fill="#2C2A29"/>
<path d="M68.7262 18.1117C68.7262 18.4653 68.6526 18.8238 68.5052 19.1873C68.3579 19.5409 68.132 19.8896 67.8275 20.2333C67.5329 20.5673 67.1154 20.8423 66.5752 21.0584C66.035 21.2745 65.4162 21.3825 64.7188 21.3825C63.4026 21.3825 62.3369 21.0682 61.5217 20.4396C60.7064 19.811 60.2988 18.8877 60.2988 17.6697H62.111C62.111 18.4359 62.3615 19.0056 62.8624 19.3788C63.3633 19.7422 64.0165 19.9239 64.8219 19.9239C65.4898 19.9239 66.0006 19.7668 66.3542 19.4525C66.7078 19.1382 66.8846 18.6814 66.8846 18.0823C66.8846 17.5322 66.7078 17.1148 66.3542 16.8299C66.0104 16.5451 65.534 16.4027 64.9251 16.4027H63.6433V14.9736H64.9251C65.4064 14.9736 65.8042 14.8213 66.1185 14.5168C66.4426 14.2123 66.6047 13.8195 66.6047 13.3382C66.6047 12.8765 66.4426 12.518 66.1185 12.2626C65.7943 11.9974 65.3376 11.8648 64.7483 11.8648C63.3339 11.8648 62.5727 12.4787 62.4646 13.7065H60.7114C60.7506 12.5868 61.1288 11.7568 61.8458 11.2166C62.5628 10.6764 63.491 10.4062 64.6304 10.4062C65.7403 10.4062 66.6489 10.6469 67.3561 11.1282C68.0632 11.5996 68.4168 12.3068 68.4168 13.2498C68.4168 13.7802 68.245 14.2614 67.9012 14.6936C67.5574 15.1258 67.1694 15.3959 66.7373 15.504V15.5482C67.3266 15.666 67.803 15.9607 68.1664 16.4321C68.5396 16.8938 68.7262 17.4537 68.7262 18.1117Z" fill="#2C2A29"/>
<path d="M70.1913 15.887C70.3681 14.1681 71.478 13.3087 73.521 13.3087C74.4737 13.3087 75.2301 13.4953 75.7899 13.8686C76.3596 14.2418 76.6444 14.8213 76.6444 15.6071V19.4672C76.6444 19.6833 76.669 19.8306 76.7181 19.9092C76.777 19.9878 76.8851 20.0271 77.0422 20.0271C77.1601 20.0271 77.2878 20.0172 77.4253 19.9976V21.1763C76.9931 21.2843 76.6297 21.3383 76.335 21.3383C75.618 21.3383 75.2055 21.0338 75.0975 20.4249C74.459 21.0338 73.5701 21.3383 72.4307 21.3383C71.645 21.3383 71.0213 21.137 70.5596 20.7343C70.098 20.3217 69.8672 19.7668 69.8672 19.0694C69.8672 18.8533 69.8917 18.652 69.9408 18.4653C69.9899 18.2787 70.044 18.1167 70.1029 17.9791C70.1716 17.8416 70.2748 17.7139 70.4123 17.5961C70.5596 17.4782 70.6775 17.38 70.7659 17.3014C70.8641 17.2228 71.0163 17.1492 71.2226 17.0804C71.4387 17.0117 71.5959 16.9625 71.6941 16.9331C71.8021 16.8938 71.9838 16.8545 72.2392 16.8152C72.4946 16.7759 72.6616 16.7514 72.7401 16.7415C72.8285 16.7219 73.0053 16.6973 73.2705 16.6679C73.8697 16.5893 74.2773 16.5255 74.4934 16.4763C74.7095 16.4174 74.8568 16.3339 74.9354 16.2259C75.0041 16.1473 75.0385 15.9656 75.0385 15.6808C75.0385 14.9146 74.5179 14.5316 73.4768 14.5316C72.9268 14.5316 72.524 14.6347 72.2687 14.841C72.0133 15.0472 71.8512 15.3959 71.7825 15.887H70.1913ZM75.0238 17.3309C74.8961 17.3996 74.7488 17.4635 74.5818 17.5224C74.4148 17.5715 74.2773 17.6059 74.1693 17.6255C74.071 17.6354 73.909 17.655 73.6831 17.6845C73.467 17.7139 73.3246 17.7336 73.2558 17.7434C73.0495 17.7729 72.8875 17.8023 72.7696 17.8318C72.6517 17.8515 72.5044 17.8907 72.3276 17.9497C72.1606 18.0086 72.028 18.0823 71.9298 18.1707C71.8414 18.2492 71.7628 18.3622 71.6941 18.5095C71.6253 18.647 71.5909 18.814 71.5909 19.0105C71.5909 19.3739 71.7088 19.6538 71.9445 19.8503C72.1901 20.0467 72.529 20.1449 72.9611 20.1449C73.7076 20.1449 74.2822 19.9436 74.6849 19.5409C74.9108 19.315 75.0238 18.8779 75.0238 18.2296V17.3309Z" fill="#2C2A29"/>
<path d="M83.7704 14.8704H80.1313V21.1468H78.4517V13.5444H83.7704V14.8704Z" fill="#2C2A29"/>
<path d="M86.3307 13.5444V14.561C86.8415 13.736 87.6666 13.3234 88.8059 13.3234C89.8569 13.3234 90.6967 13.6918 91.3253 14.4284C91.9539 15.1651 92.2682 16.1473 92.2682 17.3751C92.2682 18.5734 91.9588 19.536 91.3401 20.2628C90.7311 20.9798 89.9158 21.3383 88.8943 21.3383C87.8139 21.3383 86.9888 20.9405 86.4191 20.1449V23.9608H84.7543V13.5444H86.3307ZM88.4671 14.6789C87.809 14.6789 87.2933 14.9146 86.9201 15.3861C86.5468 15.8576 86.3602 16.5107 86.3602 17.3456C86.3602 18.1707 86.5468 18.8189 86.9201 19.2904C87.3031 19.7619 87.8286 19.9976 88.4965 19.9976C89.135 19.9976 89.6408 19.7619 90.0141 19.2904C90.3873 18.8189 90.5739 18.1805 90.5739 17.3751C90.5739 16.55 90.3824 15.8968 89.9993 15.4156C89.6261 14.9244 89.1153 14.6789 88.4671 14.6789Z" fill="#2C2A29"/>
<path d="M100.263 13.5444L97.4486 20.9995C97.4191 21.0682 97.3651 21.2106 97.2865 21.4267C97.208 21.6526 97.1539 21.8049 97.1245 21.8835C97.095 21.962 97.0361 22.0995 96.9477 22.296C96.8691 22.4924 96.8052 22.6299 96.7561 22.7085C96.707 22.7871 96.6334 22.905 96.5351 23.0621C96.4369 23.2193 96.3436 23.3322 96.2552 23.401C96.1766 23.4697 96.0735 23.5532 95.9458 23.6514C95.8279 23.7595 95.7052 23.8331 95.5775 23.8724C95.4498 23.9215 95.3025 23.9608 95.1355 23.9903C94.9783 24.0296 94.8064 24.0492 94.6198 24.0492C94.3055 24.0492 93.9175 24.0198 93.4559 23.9608V22.5464C93.8095 22.6152 94.1041 22.6496 94.3399 22.6496C94.4577 22.6496 94.5658 22.6299 94.664 22.5906C94.7622 22.5612 94.8506 22.5022 94.9292 22.4138C95.0078 22.3353 95.0765 22.2567 95.1355 22.1781C95.1944 22.1094 95.2484 22.0062 95.2975 21.8687C95.3565 21.741 95.4007 21.6379 95.4301 21.5593C95.4596 21.4906 95.4989 21.3776 95.548 21.2205C95.5971 21.0633 95.6266 20.9651 95.6364 20.9258L92.7192 13.5444H94.5609L96.5941 19.1431L98.5094 13.5444H100.263Z" fill="#2C2A29"/>
<path d="M107.416 18.8926C107.416 19.6686 107.092 20.2726 106.444 20.7048C105.806 21.137 105.049 21.3531 104.175 21.3531C103.095 21.3531 102.26 21.1271 101.67 20.6753C101.091 20.2137 100.782 19.5802 100.742 18.7747H102.437C102.554 19.6293 103.129 20.0565 104.16 20.0565C104.642 20.0565 105.025 19.9583 105.31 19.7619C105.594 19.5556 105.737 19.2757 105.737 18.9221C105.737 18.1756 105.241 17.8023 104.249 17.8023H103.306V16.5647H103.984C104.995 16.5647 105.501 16.2308 105.501 15.5629C105.501 14.9244 105.039 14.6052 104.116 14.6052C103.311 14.6052 102.825 14.9834 102.658 15.7397H100.963C101.111 14.1289 102.216 13.3234 104.278 13.3234C105.133 13.3234 105.825 13.4904 106.356 13.8244C106.896 14.1583 107.166 14.674 107.166 15.3714C107.166 15.7839 107.043 16.1375 106.798 16.4321C106.562 16.7268 106.277 16.9085 105.943 16.9773V17.0067C106.346 17.0853 106.69 17.2867 106.974 17.6108C107.269 17.9251 107.416 18.3524 107.416 18.8926Z" fill="#2C2A29"/>
<path d="M110.961 21.1468H108.839V13.5444H110.519V19.0841H110.563L113.406 13.5444H115.528V21.1468H113.848V15.6071H113.804L110.961 21.1468Z" fill="#2C2A29"/>
<path d="M123.178 14.8704H120.673V21.1468H118.993V14.8704H116.489V13.5444H123.178V14.8704Z" fill="#2C2A29"/>
<path d="M130.041 16.9478C130.493 17.3702 130.719 17.9595 130.719 18.7158C130.719 19.4721 130.493 20.0663 130.041 20.4985C129.59 20.9307 128.956 21.1468 128.141 21.1468H124.133V13.5444H125.813V16.2995H128.126C128.951 16.2995 129.59 16.5156 130.041 16.9478ZM129.04 18.7453C129.04 18.4015 128.941 18.1265 128.745 17.9202C128.548 17.7139 128.273 17.6108 127.92 17.6108H125.813V19.8355H127.949C128.313 19.8355 128.583 19.7373 128.76 19.5409C128.946 19.3346 129.04 19.0694 129.04 18.7453Z" fill="#2C2A29"/>
<path d="M137.827 21.1468H136.147V13.5444H137.827V16.5205H141.157V13.5444H142.836V21.1468H141.157V17.8465H137.827V21.1468Z" fill="#2C2A29"/>
<path d="M144.534 15.887C144.711 14.1681 145.82 13.3087 147.863 13.3087C148.816 13.3087 149.573 13.4953 150.132 13.8686C150.702 14.2418 150.987 14.8213 150.987 15.6071V19.4672C150.987 19.6833 151.011 19.8306 151.061 19.9092C151.12 19.9878 151.228 20.0271 151.385 20.0271C151.503 20.0271 151.63 20.0172 151.768 19.9976V21.1763C151.336 21.2843 150.972 21.3383 150.678 21.3383C149.96 21.3383 149.548 21.0338 149.44 20.4249C148.801 21.0338 147.913 21.3383 146.773 21.3383C145.987 21.3383 145.364 21.137 144.902 20.7343C144.44 20.3217 144.21 19.7668 144.21 19.0694C144.21 18.8533 144.234 18.652 144.283 18.4653C144.332 18.2787 144.386 18.1167 144.445 17.9791C144.514 17.8416 144.617 17.7139 144.755 17.5961C144.902 17.4782 145.02 17.38 145.108 17.3014C145.207 17.2228 145.359 17.1492 145.565 17.0804C145.781 17.0117 145.938 16.9625 146.037 16.9331C146.145 16.8938 146.326 16.8545 146.582 16.8152C146.837 16.7759 147.004 16.7514 147.083 16.7415C147.171 16.7219 147.348 16.6973 147.613 16.6679C148.212 16.5893 148.62 16.5255 148.836 16.4763C149.052 16.4174 149.199 16.3339 149.278 16.2259C149.347 16.1473 149.381 15.9656 149.381 15.6808C149.381 14.9146 148.86 14.5316 147.819 14.5316C147.269 14.5316 146.867 14.6347 146.611 14.841C146.356 15.0472 146.194 15.3959 146.125 15.887H144.534ZM149.366 17.3309C149.239 17.3996 149.091 17.4635 148.924 17.5224C148.757 17.5715 148.62 17.6059 148.512 17.6255C148.414 17.6354 148.251 17.655 148.026 17.6845C147.809 17.7139 147.667 17.7336 147.598 17.7434C147.392 17.7729 147.23 17.8023 147.112 17.8318C146.994 17.8515 146.847 17.8907 146.67 17.9497C146.503 18.0086 146.37 18.0823 146.272 18.1707C146.184 18.2492 146.105 18.3622 146.037 18.5095C145.968 18.647 145.933 18.814 145.933 19.0105C145.933 19.3739 146.051 19.6538 146.287 19.8503C146.533 20.0467 146.871 20.1449 147.304 20.1449C148.05 20.1449 148.625 19.9436 149.027 19.5409C149.253 19.315 149.366 18.8779 149.366 18.2296V17.3309Z" fill="#2C2A29"/>
<defs>
<filter id="filter0_ii" x="19.3555" y="7.87402" width="33.1174" height="36.8919" filterUnits="userSpaceOnUse" color-interpolation-filters="sRGB">
<feFlood flood-opacity="0" result="BackgroundImageFix"/>
<feBlend mode="normal" in="SourceGraphic" in2="BackgroundImageFix" result="shape"/>
<feColorMatrix in="SourceAlpha" type="matrix" values="0 0 0 0 0 0 0 0 0 0 0 0 0 0 0 0 0 0 127 0" result="hardAlpha"/>
<feOffset dy="-0.150815"/>
<feComposite in2="hardAlpha" operator="arithmetic" k2="-1" k3="1"/>
<feColorMatrix type="matrix" values="0 0 0 0 0 0 0 0 0 0 0 0 0 0 0 0 0 0 0.12 0"/>
<feBlend mode="normal" in2="shape" result="effect1_innerShadow"/>
<feColorMatrix in="SourceAlpha" type="matrix" values="0 0 0 0 0 0 0 0 0 0 0 0 0 0 0 0 0 0 127 0" result="hardAlpha"/>
<feOffset dy="0.150815"/>
<feComposite in2="hardAlpha" operator="arithmetic" k2="-1" k3="1"/>
<feColorMatrix type="matrix" values="0 0 0 0 1 0 0 0 0 1 0 0 0 0 1 0 0 0 0.25 0"/>
<feBlend mode="normal" in2="effect1_innerShadow" result="effect2_innerShadow"/>
</filter>
<filter id="filter1_i" x="20.0195" y="26.3193" width="23.9334" height="18.4466" filterUnits="userSpaceOnUse" color-interpolation-filters="sRGB">
<feFlood flood-opacity="0" result="BackgroundImageFix"/>
<feBlend mode="normal" in="SourceGraphic" in2="BackgroundImageFix" result="shape"/>
<feColorMatrix in="SourceAlpha" type="matrix" values="0 0 0 0 0 0 0 0 0 0 0 0 0 0 0 0 0 0 127 0" result="hardAlpha"/>
<feOffset dy="-0.150815"/>
<feComposite in2="hardAlpha" operator="arithmetic" k2="-1" k3="1"/>
<feColorMatrix type="matrix" values="0 0 0 0 0 0 0 0 0 0 0 0 0 0 0 0 0 0 0.08 0"/>
<feBlend mode="normal" in2="shape" result="effect1_innerShadow"/>
</filter>
<linearGradient id="paint0_linear" x1="36.3206" y1="10.1232" x2="12.2495" y2="34.1943" gradientUnits="userSpaceOnUse">
<stop stop-color="#00A0FF"/>
<stop offset="0.0066" stop-color="#00A1FF"/>
<stop offset="0.2601" stop-color="#00BEFF"/>
<stop offset="0.5122" stop-color="#00D2FF"/>
<stop offset="0.7604" stop-color="#00DFFF"/>
<stop offset="1" stop-color="#00E3FF"/>
</linearGradient>
<linearGradient id="paint1_linear" x1="53.5784" y1="26.3198" x2="18.8731" y2="26.3198" gradientUnits="userSpaceOnUse">
<stop stop-color="#FFE000"/>
<stop offset="0.4087" stop-color="#FFBD00"/>
<stop offset="0.7754" stop-color="#FFA500"/>
<stop offset="1" stop-color="#FF9C00"/>
</linearGradient>
<linearGradient id="paint2_linear" x1="40.6627" y1="29.6096" x2="8.01925" y2="62.2531" gradientUnits="userSpaceOnUse">
<stop stop-color="#FF3A44"/>
<stop offset="1" stop-color="#C31162"/>
</linearGradient>
<linearGradient id="paint3_linear" x1="15.5177" y1="-2.11492" x2="30.0939" y2="12.4613" gradientUnits="userSpaceOnUse">
<stop stop-color="#32A071"/>
<stop offset="0.0685" stop-color="#2DA771"/>
<stop offset="0.4762" stop-color="#15CF74"/>
<stop offset="0.8009" stop-color="#06E775"/>
<stop offset="1" stop-color="#00F076"/>
</linearGradient>
</defs>
</svg>
