<svg width="185" height="55" viewBox="0 0 185 55" fill="none" xmlns="http://www.w3.org/2000/svg">
<g style="mix-blend-mode:luminosity">
<rect x="0.502717" y="0.914827" width="183.995" height="52.9529" rx="14.5788" stroke="#2C2A29" stroke-width="1.00543"/>
<path d="M72.9001 17.6811C72.9001 18.0347 72.8264 18.3932 72.6791 18.7566C72.5317 19.1102 72.3058 19.4589 72.0013 19.8027C71.7067 20.1366 71.2892 20.4116 70.749 20.6277C70.2088 20.8438 69.59 20.9519 68.8926 20.9519C67.5765 20.9519 66.5108 20.6375 65.6955 20.0089C64.8803 19.3803 64.4727 18.457 64.4727 17.2391H66.2848C66.2848 18.0052 66.5353 18.5749 67.0362 18.9481C67.5372 19.3116 68.1903 19.4933 68.9958 19.4933C69.6637 19.4933 70.1744 19.3361 70.528 19.0218C70.8816 18.7075 71.0584 18.2508 71.0584 17.6516C71.0584 17.1016 70.8816 16.6841 70.528 16.3993C70.1842 16.1144 69.7079 15.972 69.0989 15.972H67.8171V14.5429H69.0989C69.5802 14.5429 69.978 14.3906 70.2923 14.0862C70.6164 13.7817 70.7785 13.3888 70.7785 12.9075C70.7785 12.4459 70.6164 12.0874 70.2923 11.832C69.9682 11.5668 69.5114 11.4342 68.9221 11.4342C67.5077 11.4342 66.7465 12.0481 66.6384 13.2758H64.8852C64.9245 12.1561 65.3026 11.3261 66.0196 10.7859C66.7367 10.2457 67.6649 9.97559 68.8042 9.97559C69.9141 9.97559 70.8227 10.2162 71.5299 10.6975C72.2371 11.169 72.5907 11.8762 72.5907 12.8191C72.5907 13.3495 72.4188 13.8308 72.075 14.263C71.7312 14.6951 71.3433 14.9652 70.9111 15.0733V15.1175C71.5004 15.2354 71.9768 15.53 72.3402 16.0015C72.7135 16.4631 72.9001 17.023 72.9001 17.6811Z" fill="#2C2A29"/>
<path d="M74.3651 15.4564C74.5419 13.7375 75.6518 12.878 77.6948 12.878C78.6476 12.878 79.4039 13.0647 79.9637 13.4379C80.5334 13.8111 80.8183 14.3906 80.8183 15.1764V19.0365C80.8183 19.2526 80.8428 19.4 80.8919 19.4785C80.9509 19.5571 81.0589 19.5964 81.2161 19.5964C81.3339 19.5964 81.4616 19.5866 81.5991 19.5669V20.7456C81.167 20.8536 80.8035 20.9077 80.5089 20.9077C79.7919 20.9077 79.3793 20.6032 79.2713 19.9942C78.6328 20.6032 77.7439 20.9077 76.6046 20.9077C75.8188 20.9077 75.1951 20.7063 74.7334 20.3036C74.2718 19.8911 74.041 19.3361 74.041 18.6387C74.041 18.4226 74.0655 18.2213 74.1146 18.0347C74.1638 17.8481 74.2178 17.686 74.2767 17.5485C74.3455 17.411 74.4486 17.2833 74.5861 17.1654C74.7334 17.0475 74.8513 16.9493 74.9397 16.8707C75.0379 16.7922 75.1902 16.7185 75.3964 16.6497C75.6125 16.581 75.7697 16.5319 75.8679 16.5024C75.9759 16.4631 76.1577 16.4238 76.413 16.3845C76.6684 16.3453 76.8354 16.3207 76.914 16.3109C77.0024 16.2912 77.1792 16.2667 77.4444 16.2372C78.0435 16.1586 78.4511 16.0948 78.6672 16.0457C78.8833 15.9868 79.0306 15.9033 79.1092 15.7952C79.178 15.7166 79.2123 15.5349 79.2123 15.2501C79.2123 14.484 78.6918 14.1009 77.6506 14.1009C77.1006 14.1009 76.6979 14.204 76.4425 14.4103C76.1871 14.6166 76.0251 14.9652 75.9563 15.4564H74.3651ZM79.1976 16.9002C79.0699 16.969 78.9226 17.0328 78.7556 17.0917C78.5886 17.1409 78.4511 17.1752 78.3431 17.1949C78.2449 17.2047 78.0828 17.2243 77.8569 17.2538C77.6408 17.2833 77.4984 17.3029 77.4296 17.3127C77.2234 17.3422 77.0613 17.3717 76.9434 17.4011C76.8256 17.4208 76.6782 17.4601 76.5014 17.519C76.3345 17.5779 76.2019 17.6516 76.1036 17.74C76.0152 17.8186 75.9367 17.9315 75.8679 18.0789C75.7991 18.2164 75.7648 18.3834 75.7648 18.5798C75.7648 18.9432 75.8826 19.2232 76.1184 19.4196C76.3639 19.616 76.7028 19.7143 77.135 19.7143C77.8814 19.7143 78.456 19.5129 78.8588 19.1102C79.0847 18.8843 79.1976 18.4472 79.1976 17.7989V16.9002Z" fill="#2C2A29"/>
<path d="M87.9442 14.4398H84.3051V20.7161H82.6255V13.1138H87.9442V14.4398Z" fill="#2C2A29"/>
<path d="M90.5046 13.1138V14.1304C91.0153 13.3053 91.8404 12.8928 92.9798 12.8928C94.0307 12.8928 94.8705 13.2611 95.4991 13.9978C96.1278 14.7344 96.4421 15.7166 96.4421 16.9444C96.4421 18.1427 96.1327 19.1053 95.5139 19.8321C94.9049 20.5491 94.0897 20.9077 93.0682 20.9077C91.9877 20.9077 91.1627 20.5099 90.593 19.7143V23.5302H88.9281V13.1138H90.5046ZM92.6409 14.2482C91.9828 14.2482 91.4672 14.484 91.0939 14.9554C90.7207 15.4269 90.534 16.0801 90.534 16.9149C90.534 17.74 90.7207 18.3883 91.0939 18.8597C91.477 19.3312 92.0025 19.5669 92.6704 19.5669C93.3088 19.5669 93.8146 19.3312 94.1879 18.8597C94.5611 18.3883 94.7478 17.7498 94.7478 16.9444C94.7478 16.1193 94.5562 15.4662 94.1732 14.9849C93.7999 14.4938 93.2892 14.2482 92.6409 14.2482Z" fill="#2C2A29"/>
<path d="M104.436 13.1138L101.622 20.5688C101.593 20.6375 101.539 20.78 101.46 20.9961C101.382 21.222 101.328 21.3742 101.298 21.4528C101.269 21.5314 101.21 21.6689 101.121 21.8653C101.043 22.0618 100.979 22.1993 100.93 22.2778C100.881 22.3564 100.807 22.4743 100.709 22.6314C100.611 22.7886 100.517 22.9016 100.429 22.9703C100.35 23.0391 100.247 23.1226 100.12 23.2208C100.002 23.3288 99.879 23.4025 99.7513 23.4418C99.6236 23.4909 99.4763 23.5302 99.3093 23.5596C99.1521 23.5989 98.9803 23.6186 98.7936 23.6186C98.4793 23.6186 98.0914 23.5891 97.6297 23.5302V22.1158C97.9833 22.1845 98.278 22.2189 98.5137 22.2189C98.6316 22.2189 98.7396 22.1993 98.8378 22.16C98.9361 22.1305 99.0245 22.0716 99.103 21.9832C99.1816 21.9046 99.2504 21.826 99.3093 21.7475C99.3682 21.6787 99.4223 21.5756 99.4714 21.4381C99.5303 21.3104 99.5745 21.2072 99.604 21.1287C99.6334 21.0599 99.6727 20.9469 99.7218 20.7898C99.7709 20.6326 99.8004 20.5344 99.8102 20.4951L96.8931 13.1138H98.7347L100.768 18.7124L102.683 13.1138H104.436Z" fill="#2C2A29"/>
<path d="M111.59 18.4619C111.59 19.2379 111.266 19.842 110.618 20.2741C109.979 20.7063 109.223 20.9224 108.349 20.9224C107.269 20.9224 106.434 20.6965 105.844 20.2447C105.265 19.783 104.955 19.1495 104.916 18.3441H106.61C106.728 19.1986 107.303 19.6259 108.334 19.6259C108.816 19.6259 109.199 19.5276 109.483 19.3312C109.768 19.1249 109.911 18.845 109.911 18.4914C109.911 17.7449 109.415 17.3717 108.423 17.3717H107.48V16.1341H108.157C109.169 16.1341 109.675 15.8001 109.675 15.1322C109.675 14.4938 109.213 14.1746 108.29 14.1746C107.485 14.1746 106.998 14.5527 106.831 15.309H105.137C105.284 13.6982 106.389 12.8928 108.452 12.8928C109.307 12.8928 109.999 13.0597 110.529 13.3937C111.07 13.7277 111.34 14.2433 111.34 14.9407C111.34 15.3532 111.217 15.7068 110.971 16.0015C110.736 16.2961 110.451 16.4779 110.117 16.5466V16.5761C110.52 16.6547 110.863 16.856 111.148 17.1801C111.443 17.4945 111.59 17.9217 111.59 18.4619Z" fill="#2C2A29"/>
<path d="M115.134 20.7161H113.013V13.1138H114.692V18.6535H114.737L117.58 13.1138H119.702V20.7161H118.022V15.1764H117.978L115.134 20.7161Z" fill="#2C2A29"/>
<path d="M127.352 14.4398H124.847V20.7161H123.167V14.4398H120.663V13.1138H127.352V14.4398Z" fill="#2C2A29"/>
<path d="M134.855 18.3441C134.668 19.1691 134.261 19.8125 133.632 20.2741C133.013 20.7358 132.272 20.9666 131.407 20.9666C130.258 20.9666 129.345 20.5983 128.667 19.8616C127.999 19.1151 127.665 18.1624 127.665 17.0033C127.665 15.8149 128.009 14.8326 128.696 14.0567C129.394 13.2807 130.278 12.8928 131.348 12.8928C132.458 12.8928 133.337 13.2758 133.986 14.042C134.634 14.7983 134.958 15.8345 134.958 17.1507V17.3275H129.345C129.364 18.0936 129.556 18.6878 129.919 19.1102C130.283 19.5227 130.789 19.729 131.437 19.729C131.899 19.729 132.272 19.621 132.557 19.4049C132.851 19.179 133.082 18.8254 133.249 18.3441H134.855ZM133.279 16.2077C133.229 15.5693 133.028 15.0684 132.674 14.705C132.331 14.3317 131.884 14.1451 131.334 14.1451C130.784 14.1451 130.337 14.3219 129.993 14.6755C129.659 15.0291 129.453 15.5398 129.374 16.2077H133.279Z" fill="#2C2A29"/>
<path d="M147.128 18.5651C147.128 19.2526 146.882 19.783 146.391 20.1563C145.91 20.5295 145.222 20.7161 144.328 20.7161H140.336V13.1138H144.535C145.242 13.1138 145.792 13.2758 146.185 13.6C146.587 13.9241 146.789 14.3808 146.789 14.9702C146.789 15.3729 146.7 15.697 146.523 15.9426C146.347 16.1881 146.072 16.3993 145.698 16.5761V16.6055C146.651 16.8511 147.128 17.5043 147.128 18.5651ZM144.328 17.3569H142.015V19.4491H144.328C145.085 19.4491 145.463 19.1053 145.463 18.4177C145.463 18.0838 145.364 17.8235 145.168 17.6369C144.972 17.4503 144.692 17.3569 144.328 17.3569ZM144.107 14.3808H142.015V16.1341H144.151C144.8 16.1341 145.124 15.8296 145.124 15.2206C145.124 14.6608 144.785 14.3808 144.107 14.3808Z" fill="#2C2A29"/>
<path d="M126.629 27.8466V30.8946H124.718V32.8935H126.629V39.6852C126.629 42.0043 127.678 42.932 130.317 42.932C130.781 42.932 131.223 42.8767 131.61 42.8105V40.8337C131.278 40.8668 131.068 40.8889 130.704 40.8889C129.522 40.8889 129.003 40.3368 129.003 39.0778V32.8935H131.61V30.8946H129.003V27.8466H126.629Z" fill="#2C2A29"/>
<path d="M138.333 43.0976C141.845 43.0976 143.998 40.7454 143.998 36.847C143.998 32.9708 141.834 30.6075 138.333 30.6075C134.821 30.6075 132.657 32.9708 132.657 36.847C132.657 40.7454 134.81 43.0976 138.333 43.0976ZM138.333 40.9883C136.268 40.9883 135.109 39.4754 135.109 36.847C135.109 34.2408 136.268 32.7168 138.333 32.7168C140.387 32.7168 141.558 34.2408 141.558 36.847C141.558 39.4643 140.387 40.9883 138.333 40.9883Z" fill="#2C2A29"/>
<path d="M145.841 42.8657H148.215V35.7648C148.215 34.0751 149.485 32.9377 151.285 32.9377C151.705 32.9377 152.412 33.015 152.611 33.0812V30.74C152.357 30.6738 151.904 30.6406 151.55 30.6406C149.982 30.6406 148.646 31.502 148.304 32.6837H148.127V30.8394H145.841V42.8657Z" fill="#2C2A29"/>
<path d="M158.506 32.6284C160.262 32.6284 161.41 33.8543 161.466 35.7427H155.392C155.524 33.8653 156.75 32.6284 158.506 32.6284ZM161.455 39.6189C161.013 40.5576 160.03 41.0767 158.594 41.0767C156.695 41.0767 155.469 39.7404 155.392 37.6311V37.4986H163.884V36.6703C163.884 32.8935 161.863 30.6075 158.517 30.6075C155.127 30.6075 152.973 33.0481 152.973 36.8912C152.973 40.7343 155.083 43.0976 158.528 43.0976C161.278 43.0976 163.199 41.7724 163.741 39.6189H161.455Z" fill="#2C2A29"/>
<path d="M111.058 38.4246C111.242 41.3777 113.702 43.2663 117.365 43.2663C121.28 43.2663 123.729 41.2861 123.729 38.127C123.729 35.6432 122.333 34.2696 118.945 33.4798L117.125 33.0334C114.973 32.5298 114.103 31.8545 114.103 30.6755C114.103 29.1875 115.454 28.2146 117.48 28.2146C119.403 28.2146 120.73 29.1646 120.971 30.687H123.466C123.317 27.9055 120.868 25.9482 117.514 25.9482C113.909 25.9482 111.505 27.9055 111.505 30.8472C111.505 33.2738 112.867 34.716 115.854 35.4142L117.983 35.9293C120.17 36.4444 121.131 37.1998 121.131 38.4589C121.131 39.924 119.62 40.9885 117.56 40.9885C115.351 40.9885 113.817 39.9927 113.599 38.4246H111.058Z" fill="#2C2A29"/>
<path d="M86.4627 30.6406C84.8283 30.6406 83.4147 31.4578 82.6859 32.8272H82.5092V30.8394H80.2232V46.8634H82.5975V41.0435H82.7853C83.4147 42.3135 84.7731 43.0645 86.4848 43.0645C89.5217 43.0645 91.4543 40.6681 91.4543 36.847C91.4543 33.026 89.5217 30.6406 86.4627 30.6406ZM85.7891 40.9331C83.8013 40.9331 82.5533 39.3649 82.5533 36.8581C82.5533 34.3402 83.8013 32.772 85.8001 32.772C87.81 32.772 89.0138 34.307 89.0138 36.847C89.0138 39.3981 87.81 40.9331 85.7891 40.9331Z" fill="#2C2A29"/>
<path d="M99.7625 30.6406C98.1281 30.6406 96.7146 31.4578 95.9857 32.8272H95.809V30.8394H93.523V46.8634H95.8973V41.0435H96.0851C96.7146 42.3135 98.0729 43.0645 99.7846 43.0645C102.822 43.0645 104.754 40.6681 104.754 36.847C104.754 33.026 102.822 30.6406 99.7625 30.6406ZM99.0889 40.9331C97.1011 40.9331 95.8532 39.3649 95.8532 36.8581C95.8532 34.3402 97.1011 32.772 99.0999 32.772C101.11 32.772 102.314 34.307 102.314 36.847C102.314 39.3981 101.11 40.9331 99.0889 40.9331Z" fill="#2C2A29"/>
<path d="M75.9632 42.8657H78.6874L72.7239 26.3489H69.9654L64.002 42.8657H66.6346L68.1569 38.4818H74.4523L75.9632 42.8657ZM71.213 29.3478H71.4076L73.7999 36.3299H68.8094L71.213 29.3478Z" fill="#2C2A29"/>
<path d="M45.6739 27.2636C45.7151 24.0701 47.4301 21.0484 50.1509 19.3757C48.4345 16.9244 45.5596 15.3702 42.5686 15.2766C39.3784 14.9418 36.2857 17.1856 34.66 17.1856C33.0029 17.1856 30.5 15.3099 27.8047 15.3653C24.2916 15.4788 21.0165 17.4762 19.3072 20.5476C15.6331 26.9088 18.3737 36.2577 21.8932 41.3996C23.6541 43.9175 25.7121 46.73 28.4049 46.6302C31.04 46.521 32.0241 44.9499 35.2049 44.9499C38.3562 44.9499 39.2795 46.6302 42.027 46.5668C44.8546 46.5209 46.6361 44.0378 48.3352 41.4961C49.6004 39.702 50.5739 37.7192 51.2198 35.621C47.8969 34.2156 45.6778 30.8716 45.6739 27.2636Z" fill="#2C2A29"/>
<path d="M40.4844 11.895C42.0261 10.0443 42.7857 7.66542 42.6017 5.26367C40.2464 5.51106 38.0706 6.63678 36.5081 8.41654C34.9801 10.1555 34.185 12.4925 34.3353 14.8024C36.6915 14.8267 39.0079 13.7315 40.4844 11.895Z" fill="#2C2A29"/>
</g>
</svg>
