<svg width="86" height="86" viewBox="0 0 86 86" fill="none" xmlns="http://www.w3.org/2000/svg">
<path d="M52.746 31.4988L37.3735 46.9071L31.461 40.9946C31.1398 40.6195 30.7445 40.3149 30.2999 40.0998C29.8554 39.8847 29.3711 39.7638 28.8776 39.7448C28.3841 39.7257 27.892 39.8089 27.4322 39.989C26.9724 40.1692 26.5547 40.4424 26.2055 40.7916C25.8563 41.1409 25.5831 41.5585 25.4029 42.0183C25.2228 42.4781 25.1396 42.9702 25.1587 43.4637C25.1777 43.9572 25.2986 44.4415 25.5137 44.886C25.7288 45.3306 26.0334 45.7259 26.4085 46.0471L34.8294 54.5038C35.1642 54.8359 35.5613 55.0987 35.9979 55.277C36.4345 55.4553 36.9019 55.5457 37.3735 55.543C38.3136 55.539 39.2144 55.1658 39.8819 54.5038L57.7985 36.5871C58.1344 36.254 58.401 35.8577 58.5829 35.421C58.7648 34.9844 58.8585 34.516 58.8585 34.043C58.8585 33.5699 58.7648 33.1016 58.5829 32.6649C58.401 32.2282 58.1344 31.8319 57.7985 31.4988C57.1271 30.8314 56.2189 30.4568 55.2723 30.4568C54.3256 30.4568 53.4174 30.8314 52.746 31.4988ZM42.9994 7.16797C35.9122 7.16797 28.9842 9.26956 23.0914 13.207C17.1987 17.1444 12.6058 22.7408 9.89368 29.2885C7.18154 35.8362 6.47192 43.041 7.85456 49.992C9.2372 56.943 12.65 63.3279 17.6614 68.3393C22.6728 73.3507 29.0576 76.7635 36.0086 78.1461C42.9596 79.5287 50.1645 78.8191 56.7122 76.107C63.2599 73.3948 68.8563 68.802 72.7937 62.9092C76.7311 57.0165 78.8327 50.0885 78.8327 43.0013C78.8327 38.2956 77.9058 33.636 76.105 29.2885C74.3043 24.941 71.6648 20.9907 68.3374 17.6633C65.0099 14.3359 61.0597 11.6964 56.7122 9.89562C52.3647 8.09483 47.7051 7.16797 42.9994 7.16797ZM42.9994 71.668C37.3296 71.668 31.7872 69.9867 27.073 66.8368C22.3588 63.6868 18.6845 59.2097 16.5148 53.9716C14.3451 48.7334 13.7774 42.9695 14.8835 37.4087C15.9896 31.8479 18.7199 26.74 22.729 22.7309C26.7381 18.7218 31.846 15.9916 37.4068 14.8855C42.9676 13.7793 48.7315 14.347 53.9696 16.5168C59.2078 18.6865 63.6849 22.3607 66.8348 27.075C69.9848 31.7892 71.666 37.3316 71.666 43.0013C71.666 50.6042 68.6458 57.8957 63.2698 63.2717C57.8937 68.6477 50.6022 71.668 42.9994 71.668Z" fill="#75AE47"/>
</svg>
