<svg width="121" height="69" viewBox="0 0 121 69" fill="none" xmlns="http://www.w3.org/2000/svg">
<path d="M63.3956 17.8949C64.9944 16.2961 67.5866 16.2961 69.1854 17.8949C70.7842 19.4937 70.7842 22.0858 69.1854 23.6846L68.0481 24.822L62.2583 19.0322L63.3956 17.8949Z" fill="url(#paint0_linear)"/>
<g filter="url(#filter0_ddddii)">
<path d="M71.2881 39.2374C71.7748 39.2374 72.1694 39.632 72.1694 40.1187C72.1694 40.6055 71.7748 41.0001 71.2881 41.0001L49.2544 41.0001C48.7676 41.0001 48.3731 40.6055 48.3731 40.1187C48.3731 39.632 48.7676 39.2374 49.2544 39.2374L71.2881 39.2374Z" fill="url(#paint1_linear)" fill-opacity="0.8"/>
</g>
<g filter="url(#filter1_ddddiii)">
<mask id="mask0" mask-type="alpha" maskUnits="userSpaceOnUse" x="48" y="18" width="21" height="21">
<path d="M68.7864 24.0467L63.0013 18.25L50.1041 31.1729L48.7788 38.2576L55.8892 36.9696L68.7864 24.0467Z" fill="white"/>
</mask>
<g mask="url(#mask0)">
<path d="M50.1043 31.1726L48.7791 38.2573L55.8895 36.9693L50.1043 31.1726Z" fill="#201600"/>
<path d="M66.3496 26.4836L60.5645 20.6869L50.1047 31.1723L55.8899 36.969L66.3496 26.4836Z" fill="url(#paint2_radial)"/>
<path d="M52.9742 31.9017C52.9742 31.4853 52.6387 31.1478 52.2249 31.1478H50.06L49.2869 35.2049L51.9095 37.7493L55.8884 37.0117V34.8336C55.8884 34.4173 55.5529 34.0797 55.139 34.0797H53.7235C53.3097 34.0797 52.9742 33.7422 52.9742 33.3258V31.9017Z" fill="#E0E0E0"/>
</g>
</g>
<g filter="url(#filter2_ddddd)">
<g filter="url(#filter3_biii)">
<rect x="62.3943" y="17.4204" width="10.2633" height="4.46616" rx="2.23308" transform="rotate(45 62.3943 17.4204)" fill="#BDBDBD"/>
</g>
</g>
<path d="M35.6641 53.625C35.6641 53.9922 35.5339 54.2956 35.2734 54.5352C35.013 54.7747 34.6602 54.9271 34.2148 54.9922V55.0156C34.7383 55.0677 35.1393 55.2122 35.418 55.4492C35.6992 55.6862 35.8398 55.9948 35.8398 56.375C35.8398 56.901 35.6263 57.3164 35.1992 57.6211C34.7747 57.9258 34.1862 58.0781 33.4336 58.0781C32.5951 58.0781 31.9219 57.9753 31.4141 57.7695V56.7539C31.6589 56.8711 31.9453 56.9635 32.2734 57.0312C32.6042 57.0964 32.9128 57.1289 33.1992 57.1289C34.1602 57.1289 34.6406 56.849 34.6406 56.2891C34.6406 56.0365 34.4857 55.8424 34.1758 55.707C33.8685 55.5716 33.4128 55.5039 32.8086 55.5039H32.2734V54.5586H32.7539C33.3581 54.5586 33.7982 54.5013 34.0742 54.3867C34.3503 54.2721 34.4883 54.082 34.4883 53.8164C34.4883 53.6211 34.401 53.4661 34.2266 53.3516C34.0547 53.2344 33.7956 53.1758 33.4492 53.1758C32.9128 53.1758 32.3945 53.3307 31.8945 53.6406L31.3672 52.832C31.6927 52.6159 32.0378 52.4583 32.4023 52.3594C32.7669 52.2578 33.1719 52.207 33.6172 52.207C34.2396 52.207 34.7357 52.3372 35.1055 52.5977C35.4779 52.8581 35.6641 53.2005 35.6641 53.625ZM39.5859 58L39.3555 57.4062H39.3242C39.1237 57.6589 38.9167 57.8346 38.7031 57.9336C38.4922 58.0299 38.2161 58.0781 37.875 58.0781C37.4557 58.0781 37.125 57.9583 36.8828 57.7188C36.6432 57.4792 36.5234 57.138 36.5234 56.6953C36.5234 56.2318 36.6849 55.8906 37.0078 55.6719C37.3333 55.4505 37.8229 55.3281 38.4766 55.3047L39.2344 55.2812V55.0898C39.2344 54.6471 39.0078 54.4258 38.5547 54.4258C38.2057 54.4258 37.7956 54.5312 37.3242 54.7422L36.9297 53.9375C37.4323 53.6745 37.9896 53.543 38.6016 53.543C39.1875 53.543 39.6367 53.6706 39.9492 53.9258C40.2617 54.181 40.418 54.569 40.418 55.0898V58H39.5859ZM39.2344 55.9766L38.7734 55.9922C38.4271 56.0026 38.1693 56.0651 38 56.1797C37.8307 56.2943 37.7461 56.4688 37.7461 56.7031C37.7461 57.0391 37.9388 57.207 38.3242 57.207C38.6003 57.207 38.8203 57.1276 38.9844 56.9688C39.151 56.8099 39.2344 56.599 39.2344 56.3359V55.9766ZM45.6172 53.6328V58H44.4219V54.5273H42.8398V58H41.6484V53.6328H45.6172ZM48.0195 53.6328V55.3594C48.0195 55.5417 47.9896 55.987 47.9297 56.6953L49.9453 53.6328H51.3789V58H50.2266V56.2578C50.2266 55.9479 50.2526 55.5104 50.3047 54.9453L48.2969 58H46.8672V53.6328H48.0195ZM54.4062 58.0781C53.0469 58.0781 52.3672 57.332 52.3672 55.8398C52.3672 55.0977 52.5521 54.5312 52.9219 54.1406C53.2917 53.7474 53.8216 53.5508 54.5117 53.5508C55.0169 53.5508 55.4701 53.6497 55.8711 53.8477L55.5195 54.7695C55.332 54.694 55.1576 54.6328 54.9961 54.5859C54.8346 54.5365 54.6732 54.5117 54.5117 54.5117C53.8919 54.5117 53.582 54.9518 53.582 55.832C53.582 56.6862 53.8919 57.1133 54.5117 57.1133C54.7409 57.1133 54.9531 57.0833 55.1484 57.0234C55.3438 56.9609 55.5391 56.8646 55.7344 56.7344V57.7539C55.5417 57.8763 55.3464 57.9609 55.1484 58.0078C54.9531 58.0547 54.7057 58.0781 54.4062 58.0781ZM57.9414 55.3203H58.7812C59.4531 55.3203 59.9505 55.4271 60.2734 55.6406C60.5964 55.8542 60.7578 56.1771 60.7578 56.6094C60.7578 57.5365 60.1146 58 58.8281 58H56.75V53.6328H57.9414V55.3203ZM59.5664 56.625C59.5664 56.4557 59.4987 56.3333 59.3633 56.2578C59.2279 56.1823 59.026 56.1445 58.7578 56.1445H57.9414V57.1758H58.7734C59.3021 57.1758 59.5664 56.9922 59.5664 56.625ZM67.7734 54.7773C67.7734 55.0117 67.6992 55.2122 67.5508 55.3789C67.4049 55.543 67.1888 55.6484 66.9023 55.6953V55.7266C67.2122 55.763 67.457 55.8698 67.6367 56.0469C67.819 56.2214 67.9102 56.4375 67.9102 56.6953C67.9102 57.1198 67.7435 57.444 67.4102 57.668C67.0768 57.8893 66.6003 58 65.9805 58H63.7422V53.6328H65.9805C66.5794 53.6328 67.0273 53.7305 67.3242 53.9258C67.6237 54.1185 67.7734 54.4023 67.7734 54.7773ZM66.6758 56.6328C66.6758 56.4609 66.6094 56.3372 66.4766 56.2617C66.3438 56.1836 66.1445 56.1445 65.8789 56.1445H64.9336V57.1758H65.9023C66.1549 57.1758 66.3464 57.1289 66.4766 57.0352C66.6094 56.9388 66.6758 56.8047 66.6758 56.6328ZM66.5664 54.8711C66.5664 54.6055 66.3555 54.4727 65.9336 54.4727H64.9336V55.3359H65.7969C66.0495 55.3359 66.2409 55.2995 66.3711 55.2266C66.5013 55.1536 66.5664 55.0352 66.5664 54.8711ZM73.4492 58L72.0742 53.5195H72.0391C72.0885 54.431 72.1133 55.0391 72.1133 55.3438V58H71.0312V52.2891H72.6797L74.0312 56.6562H74.0547L75.4883 52.2891H77.1367V58H76.0078V55.2969C76.0078 55.1693 76.0091 55.0221 76.0117 54.8555C76.0169 54.6888 76.0352 54.2461 76.0664 53.5273H76.0312L74.5586 58H73.4492ZM81.8438 56.2656H81.8984C82.3177 56.2656 82.6458 56.1562 82.8828 55.9375C83.1224 55.7161 83.2422 55.4141 83.2422 55.0312C83.2422 54.6771 83.1315 54.3932 82.9102 54.1797C82.6888 53.9635 82.3867 53.8555 82.0039 53.8555H81.8438V56.2656ZM80.7539 58.0781V57.1992H80.668C80.1836 57.1992 79.7591 57.1146 79.3945 56.9453C79.0299 56.7734 78.7422 56.5169 78.5312 56.1758C78.3229 55.8346 78.2188 55.4557 78.2188 55.0391C78.2188 54.6354 78.3112 54.2721 78.4961 53.9492C78.6836 53.6237 78.9531 53.3698 79.3047 53.1875C79.6562 53.0026 80.0703 52.9102 80.5469 52.9102H80.7539V52.207H81.8438V52.9102H82.0508C82.5247 52.9102 82.9375 53.0026 83.2891 53.1875C83.6406 53.3698 83.9102 53.6237 84.0977 53.9492C84.2852 54.2721 84.3789 54.6354 84.3789 55.0391C84.3789 55.4557 84.2734 55.8346 84.0625 56.1758C83.8542 56.5169 83.5677 56.7734 83.2031 56.9453C82.8385 57.1146 82.4141 57.1992 81.9297 57.1992H81.8438V58.0781H80.7539ZM80.7539 53.8555H80.5938C80.2109 53.8555 79.9089 53.9622 79.6875 54.1758C79.4661 54.3893 79.3555 54.6745 79.3555 55.0312C79.3555 55.4062 79.4727 55.7057 79.707 55.9297C79.9414 56.1536 80.2721 56.2656 80.6992 56.2656H80.7539V53.8555ZM89.9805 57.0391H90.832V59.6641H89.6641V58H85.4609V52.2891H86.6719V56.9922H88.7734V52.2891H89.9805V57.0391Z" fill="#2C2A29" fill-opacity="0.8"/>
<defs>
<filter id="filter0_ddddii" x="0.373047" y="39.2374" width="119.796" height="97.7627" filterUnits="userSpaceOnUse" color-interpolation-filters="sRGB">
<feFlood flood-opacity="0" result="BackgroundImageFix"/>
<feColorMatrix in="SourceAlpha" type="matrix" values="0 0 0 0 0 0 0 0 0 0 0 0 0 0 0 0 0 0 127 0"/>
<feOffset dy="4"/>
<feGaussianBlur stdDeviation="2"/>
<feColorMatrix type="matrix" values="0 0 0 0 0 0 0 0 0 0 0 0 0 0 0 0 0 0 0.1 0"/>
<feBlend mode="normal" in2="BackgroundImageFix" result="effect1_dropShadow"/>
<feColorMatrix in="SourceAlpha" type="matrix" values="0 0 0 0 0 0 0 0 0 0 0 0 0 0 0 0 0 0 127 0"/>
<feOffset dy="8"/>
<feGaussianBlur stdDeviation="4"/>
<feColorMatrix type="matrix" values="0 0 0 0 0 0 0 0 0 0 0 0 0 0 0 0 0 0 0.1 0"/>
<feBlend mode="normal" in2="effect1_dropShadow" result="effect2_dropShadow"/>
<feColorMatrix in="SourceAlpha" type="matrix" values="0 0 0 0 0 0 0 0 0 0 0 0 0 0 0 0 0 0 127 0"/>
<feOffset dy="16"/>
<feGaussianBlur stdDeviation="8"/>
<feColorMatrix type="matrix" values="0 0 0 0 0 0 0 0 0 0 0 0 0 0 0 0 0 0 0.1 0"/>
<feBlend mode="normal" in2="effect2_dropShadow" result="effect3_dropShadow"/>
<feColorMatrix in="SourceAlpha" type="matrix" values="0 0 0 0 0 0 0 0 0 0 0 0 0 0 0 0 0 0 127 0"/>
<feOffset dy="48"/>
<feGaussianBlur stdDeviation="24"/>
<feColorMatrix type="matrix" values="0 0 0 0 0 0 0 0 0 0 0 0 0 0 0 0 0 0 0.1 0"/>
<feBlend mode="normal" in2="effect3_dropShadow" result="effect4_dropShadow"/>
<feBlend mode="normal" in="SourceGraphic" in2="effect4_dropShadow" result="shape"/>
<feColorMatrix in="SourceAlpha" type="matrix" values="0 0 0 0 0 0 0 0 0 0 0 0 0 0 0 0 0 0 127 0" result="hardAlpha"/>
<feOffset dx="-1"/>
<feGaussianBlur stdDeviation="0.5"/>
<feComposite in2="hardAlpha" operator="arithmetic" k2="-1" k3="1"/>
<feColorMatrix type="matrix" values="0 0 0 0 1 0 0 0 0 1 0 0 0 0 1 0 0 0 0.3 0"/>
<feBlend mode="normal" in2="shape" result="effect5_innerShadow"/>
<feColorMatrix in="SourceAlpha" type="matrix" values="0 0 0 0 0 0 0 0 0 0 0 0 0 0 0 0 0 0 127 0" result="hardAlpha"/>
<feOffset dx="1"/>
<feGaussianBlur stdDeviation="0.5"/>
<feComposite in2="hardAlpha" operator="arithmetic" k2="-1" k3="1"/>
<feColorMatrix type="matrix" values="0 0 0 0 1 0 0 0 0 1 0 0 0 0 1 0 0 0 0.3 0"/>
<feBlend mode="normal" in2="effect5_innerShadow" result="effect6_innerShadow"/>
</filter>
<filter id="filter1_ddddiii" x="0.779053" y="19.6869" width="113.571" height="114.57" filterUnits="userSpaceOnUse" color-interpolation-filters="sRGB">
<feFlood flood-opacity="0" result="BackgroundImageFix"/>
<feColorMatrix in="SourceAlpha" type="matrix" values="0 0 0 0 0 0 0 0 0 0 0 0 0 0 0 0 0 0 127 0"/>
<feOffset dy="4"/>
<feGaussianBlur stdDeviation="2"/>
<feColorMatrix type="matrix" values="0 0 0 0 0 0 0 0 0 0 0 0 0 0 0 0 0 0 0.1 0"/>
<feBlend mode="normal" in2="BackgroundImageFix" result="effect1_dropShadow"/>
<feColorMatrix in="SourceAlpha" type="matrix" values="0 0 0 0 0 0 0 0 0 0 0 0 0 0 0 0 0 0 127 0"/>
<feOffset dy="8"/>
<feGaussianBlur stdDeviation="4"/>
<feColorMatrix type="matrix" values="0 0 0 0 0 0 0 0 0 0 0 0 0 0 0 0 0 0 0.1 0"/>
<feBlend mode="normal" in2="effect1_dropShadow" result="effect2_dropShadow"/>
<feColorMatrix in="SourceAlpha" type="matrix" values="0 0 0 0 0 0 0 0 0 0 0 0 0 0 0 0 0 0 127 0"/>
<feOffset dy="16"/>
<feGaussianBlur stdDeviation="8"/>
<feColorMatrix type="matrix" values="0 0 0 0 0 0 0 0 0 0 0 0 0 0 0 0 0 0 0.1 0"/>
<feBlend mode="normal" in2="effect2_dropShadow" result="effect3_dropShadow"/>
<feColorMatrix in="SourceAlpha" type="matrix" values="0 0 0 0 0 0 0 0 0 0 0 0 0 0 0 0 0 0 127 0"/>
<feOffset dy="48"/>
<feGaussianBlur stdDeviation="24"/>
<feColorMatrix type="matrix" values="0 0 0 0 0 0 0 0 0 0 0 0 0 0 0 0 0 0 0.1 0"/>
<feBlend mode="normal" in2="effect3_dropShadow" result="effect4_dropShadow"/>
<feBlend mode="normal" in="SourceGraphic" in2="effect4_dropShadow" result="shape"/>
<feColorMatrix in="SourceAlpha" type="matrix" values="0 0 0 0 0 0 0 0 0 0 0 0 0 0 0 0 0 0 127 0" result="hardAlpha"/>
<feOffset dy="-4"/>
<feGaussianBlur stdDeviation="0.5"/>
<feComposite in2="hardAlpha" operator="arithmetic" k2="-1" k3="1"/>
<feColorMatrix type="matrix" values="0 0 0 0 0 0 0 0 0 0 0 0 0 0 0 0 0 0 0.4 0"/>
<feBlend mode="normal" in2="shape" result="effect5_innerShadow"/>
<feColorMatrix in="SourceAlpha" type="matrix" values="0 0 0 0 0 0 0 0 0 0 0 0 0 0 0 0 0 0 127 0" result="hardAlpha"/>
<feOffset dx="-1"/>
<feGaussianBlur stdDeviation="0.5"/>
<feComposite in2="hardAlpha" operator="arithmetic" k2="-1" k3="1"/>
<feColorMatrix type="matrix" values="0 0 0 0 1 0 0 0 0 1 0 0 0 0 1 0 0 0 0.3 0"/>
<feBlend mode="normal" in2="effect5_innerShadow" result="effect6_innerShadow"/>
<feColorMatrix in="SourceAlpha" type="matrix" values="0 0 0 0 0 0 0 0 0 0 0 0 0 0 0 0 0 0 127 0" result="hardAlpha"/>
<feOffset dx="1"/>
<feGaussianBlur stdDeviation="0.5"/>
<feComposite in2="hardAlpha" operator="arithmetic" k2="-1" k3="1"/>
<feColorMatrix type="matrix" values="0 0 0 0 1 0 0 0 0 1 0 0 0 0 1 0 0 0 0.3 0"/>
<feBlend mode="normal" in2="effect6_innerShadow" result="effect7_innerShadow"/>
</filter>
<filter id="filter2_ddddd" x="11.2363" y="17.4204" width="106.415" height="106.415" filterUnits="userSpaceOnUse" color-interpolation-filters="sRGB">
<feFlood flood-opacity="0" result="BackgroundImageFix"/>
<feColorMatrix in="SourceAlpha" type="matrix" values="0 0 0 0 0 0 0 0 0 0 0 0 0 0 0 0 0 0 127 0"/>
<feOffset dy="2"/>
<feGaussianBlur stdDeviation="1"/>
<feColorMatrix type="matrix" values="0 0 0 0 0 0 0 0 0 0 0 0 0 0 0 0 0 0 0.1 0"/>
<feBlend mode="normal" in2="BackgroundImageFix" result="effect1_dropShadow"/>
<feColorMatrix in="SourceAlpha" type="matrix" values="0 0 0 0 0 0 0 0 0 0 0 0 0 0 0 0 0 0 127 0"/>
<feOffset dy="4"/>
<feGaussianBlur stdDeviation="2"/>
<feColorMatrix type="matrix" values="0 0 0 0 0 0 0 0 0 0 0 0 0 0 0 0 0 0 0.1 0"/>
<feBlend mode="normal" in2="effect1_dropShadow" result="effect2_dropShadow"/>
<feColorMatrix in="SourceAlpha" type="matrix" values="0 0 0 0 0 0 0 0 0 0 0 0 0 0 0 0 0 0 127 0"/>
<feOffset dy="8"/>
<feGaussianBlur stdDeviation="4"/>
<feColorMatrix type="matrix" values="0 0 0 0 0 0 0 0 0 0 0 0 0 0 0 0 0 0 0.1 0"/>
<feBlend mode="normal" in2="effect2_dropShadow" result="effect3_dropShadow"/>
<feColorMatrix in="SourceAlpha" type="matrix" values="0 0 0 0 0 0 0 0 0 0 0 0 0 0 0 0 0 0 127 0"/>
<feOffset dy="16"/>
<feGaussianBlur stdDeviation="8"/>
<feColorMatrix type="matrix" values="0 0 0 0 0 0 0 0 0 0 0 0 0 0 0 0 0 0 0.1 0"/>
<feBlend mode="normal" in2="effect3_dropShadow" result="effect4_dropShadow"/>
<feColorMatrix in="SourceAlpha" type="matrix" values="0 0 0 0 0 0 0 0 0 0 0 0 0 0 0 0 0 0 127 0"/>
<feOffset dy="48"/>
<feGaussianBlur stdDeviation="24"/>
<feColorMatrix type="matrix" values="0 0 0 0 0 0 0 0 0 0 0 0 0 0 0 0 0 0 0.1 0"/>
<feBlend mode="normal" in2="effect4_dropShadow" result="effect5_dropShadow"/>
<feBlend mode="normal" in="SourceGraphic" in2="effect5_dropShadow" result="shape"/>
</filter>
<filter id="filter3_biii" x="49.2363" y="7.42041" width="30.4153" height="30.4153" filterUnits="userSpaceOnUse" color-interpolation-filters="sRGB">
<feFlood flood-opacity="0" result="BackgroundImageFix"/>
<feGaussianBlur in="BackgroundImage" stdDeviation="5"/>
<feComposite in2="SourceAlpha" operator="in" result="effect1_backgroundBlur"/>
<feBlend mode="normal" in="SourceGraphic" in2="effect1_backgroundBlur" result="shape"/>
<feColorMatrix in="SourceAlpha" type="matrix" values="0 0 0 0 0 0 0 0 0 0 0 0 0 0 0 0 0 0 127 0" result="hardAlpha"/>
<feOffset dy="-4"/>
<feGaussianBlur stdDeviation="0.5"/>
<feComposite in2="hardAlpha" operator="arithmetic" k2="-1" k3="1"/>
<feColorMatrix type="matrix" values="0 0 0 0 0.920833 0 0 0 0 0.920833 0 0 0 0 0.920833 0 0 0 0.1 0"/>
<feBlend mode="normal" in2="shape" result="effect2_innerShadow"/>
<feColorMatrix in="SourceAlpha" type="matrix" values="0 0 0 0 0 0 0 0 0 0 0 0 0 0 0 0 0 0 127 0" result="hardAlpha"/>
<feOffset dx="-1"/>
<feGaussianBlur stdDeviation="0.5"/>
<feComposite in2="hardAlpha" operator="arithmetic" k2="-1" k3="1"/>
<feColorMatrix type="matrix" values="0 0 0 0 0.920833 0 0 0 0 0.920833 0 0 0 0 0.920833 0 0 0 0.1 0"/>
<feBlend mode="normal" in2="effect2_innerShadow" result="effect3_innerShadow"/>
<feColorMatrix in="SourceAlpha" type="matrix" values="0 0 0 0 0 0 0 0 0 0 0 0 0 0 0 0 0 0 127 0" result="hardAlpha"/>
<feOffset dx="1"/>
<feGaussianBlur stdDeviation="0.5"/>
<feComposite in2="hardAlpha" operator="arithmetic" k2="-1" k3="1"/>
<feColorMatrix type="matrix" values="0 0 0 0 0.920833 0 0 0 0 0.920833 0 0 0 0 0.920833 0 0 0 0.1 0"/>
<feBlend mode="normal" in2="effect3_innerShadow" result="effect4_innerShadow"/>
</filter>
<linearGradient id="paint0_linear" x1="69.1854" y1="17.8949" x2="65.1532" y2="21.9271" gradientUnits="userSpaceOnUse">
<stop stop-color="#5A58E0" stop-opacity="0.15"/>
<stop offset="1" stop-color="#5A58E0" stop-opacity="0.2"/>
</linearGradient>
<linearGradient id="paint1_linear" x1="72.1694" y1="40.1187" x2="48.3731" y2="40.1187" gradientUnits="userSpaceOnUse">
<stop stop-color="#201600"/>
<stop offset="1" stop-color="#565554"/>
</linearGradient>
<radialGradient id="paint2_radial" cx="0" cy="0" r="1" gradientUnits="userSpaceOnUse" gradientTransform="translate(50.1047 22.8245) scale(12.4568 19.378)">
<stop stop-color="white" stop-opacity="0.7"/>
<stop offset="1" stop-color="#565554"/>
</radialGradient>
</defs>
</svg>
